M48
; DRILL file {KiCad (7.99.0-267-g8440d7258b)} date Monday, July 03, 2023 at 01:15:18 PM
; FORMAT={-:-/ absolute / inch / decimal}
; #@! TF.CreationDate,2023-07-03T13:15:18-07:00
; #@! TF.GenerationSoftware,Kicad,Pcbnew,(7.99.0-267-g8440d7258b)
; #@! TF.FileFunction,Plated,1,2,PTH
FMAT,2
INCH
; #@! TA.AperFunction,Plated,PTH,ViaDrill
T1C0.0157
; #@! TA.AperFunction,Plated,PTH,ComponentDrill
T2C0.0276
; #@! TA.AperFunction,Plated,PTH,ComponentDrill
T3C0.0295
; #@! TA.AperFunction,Plated,PTH,ComponentDrill
T4C0.0394
; #@! TA.AperFunction,Plated,PTH,ComponentDrill
T5C0.0409
; #@! TA.AperFunction,Plated,PTH,ComponentDrill
T6C0.0600
; #@! TA.AperFunction,Plated,PTH,ComponentDrill
T7C0.1181
; #@! TA.AperFunction,Plated,PTH,ComponentDrill
T8C0.1200
%
G90
G05
T1
X0.895Y-3.41
X11.34Y-2.66
X11.35Y-3.975
X11.525Y-1.91
X11.58Y-0.98
X11.6264Y-1.2107
X11.6269Y-1.1714
X11.65Y-4.13
X11.6572Y-2.8843
X11.679Y-0.7027
X11.685Y-0.805
X11.6891Y-1.1714
X11.6891Y-1.2107
X11.905Y-0.83
X11.915Y-2.79
X12.035Y-1.91
X12.055Y-2.725
X12.075Y-0.975
X12.175Y-3.0
X12.2538Y-2.9689
X12.255Y-3.04
X12.31Y-2.665
X12.325Y-3.005
X12.3621Y-3.0029
X12.395Y-2.7039
X12.4Y-3.53
X12.41Y-3.58
X12.435Y-2.925
X12.5162Y-3.595
X12.535Y-3.26
X12.57Y-4.1316
X12.5764Y-4.21
X12.625Y-3.0
X12.665Y-3.485
X12.7Y-4.075
X12.71Y-3.005
X12.735Y-3.565
X12.75Y-3.005
X12.79Y-3.08
X12.79Y-3.425
X12.8699Y-2.93
X12.8699Y-2.9922
X13.245Y-3.3528
X13.45Y-3.425
T3
X13.6885Y-3.9963
X13.6885Y-4.075
X13.6885Y-4.1537
T4
X13.5121Y-3.9726
X13.5121Y-4.0726
X13.5121Y-4.1726
T5
X0.8002Y-1.0502
X0.8932Y-3.484
X0.9002Y-1.0502
X0.9932Y-3.484
X1.0807Y-3.484
X1.1807Y-3.484
X12.9699Y-1.05
X13.0699Y-1.05
T6
X0.7002Y-0.7502
X0.7002Y-1.6863
X0.7932Y-3.184
X0.8865Y-2.4352
X0.8865Y-4.6817
X0.9502Y-0.6502
X0.9502Y-1.5863
X0.9807Y-3.184
X1.0432Y-3.084
X1.1365Y-2.3352
X1.1365Y-4.5817
X1.1692Y-3.9328
X1.2307Y-3.084
X1.4192Y-3.8328
X1.4491Y-1.6863
X1.6991Y-1.5863
X1.8215Y-2.4351
X1.8215Y-4.6816
X2.014Y-3.184
X2.0715Y-2.3351
X2.0715Y-4.5816
X2.1979Y-1.6863
X2.1979Y-0.7504
X2.264Y-3.084
X2.3861Y-3.9328
X2.4479Y-1.5863
X2.4479Y-0.6504
X2.5703Y-2.4351
X2.6361Y-3.8328
X2.7575Y-4.6816
X2.7621Y-3.184
X2.8203Y-2.3351
X2.9467Y-1.6863
X2.9467Y-0.7504
X3.0075Y-4.5816
X3.0121Y-3.084
X3.1349Y-3.9328
X3.1967Y-1.5863
X3.1967Y-0.6504
X3.3191Y-2.4351
X3.3849Y-3.8328
X3.5101Y-3.184
X3.5691Y-2.3351
X3.6955Y-1.6863
X3.6955Y-0.7504
X3.7601Y-3.084
X3.8837Y-3.9328
X3.9455Y-1.5863
X3.9455Y-0.6504
X4.068Y-2.4351
X4.1337Y-3.8328
X4.2581Y-3.184
X4.318Y-2.3351
X4.4443Y-1.6863
X4.4444Y-0.7504
X4.5081Y-3.084
X4.6325Y-3.9328
X4.6943Y-1.5863
X4.6944Y-0.6504
X4.8168Y-2.4351
X4.8825Y-3.8328
X5.0061Y-3.184
X5.0668Y-2.3351
X5.1932Y-1.6863
X5.2561Y-3.084
X5.3813Y-3.9328
X5.4432Y-1.5863
X5.5656Y-2.4351
X5.5676Y-0.7502
X5.568Y-4.6817
X5.6313Y-3.8328
X5.7542Y-3.184
X5.8156Y-2.3351
X5.8176Y-0.6502
X5.818Y-4.5817
X5.942Y-1.6863
X5.9424Y-4.6817
X6.0042Y-3.084
X6.1302Y-3.9328
X6.192Y-1.5863
X6.1924Y-4.5817
X6.3144Y-2.4351
X6.3164Y-0.7502
X6.3802Y-3.8328
X6.503Y-3.184
X6.5644Y-2.3351
X6.5664Y-0.6502
X6.6908Y-1.6863
X6.753Y-3.084
X6.879Y-3.9328
X6.9408Y-1.5863
X7.0632Y-2.4351
X7.0652Y-0.7502
X7.129Y-3.8328
X7.2518Y-3.184
X7.3132Y-2.3351
X7.3152Y-0.6502
X7.4396Y-1.6863
X7.5018Y-3.084
X7.6282Y-3.9328
X7.6896Y-1.5863
X7.8121Y-2.4351
X7.814Y-0.7502
X7.8782Y-3.8328
X7.9998Y-3.184
X8.0621Y-2.3351
X8.064Y-0.6502
X8.1884Y-1.6863
X8.2498Y-3.084
X8.3722Y-4.6816
X8.377Y-3.9328
X8.4384Y-1.5863
X8.5609Y-2.4351
X8.6222Y-4.5816
X8.627Y-3.8328
X8.7479Y-3.184
X8.8109Y-2.3351
X8.9372Y-1.6863
X8.9384Y-0.7501
X8.9979Y-3.084
X9.1225Y-4.6817
X9.1258Y-3.9328
X9.1872Y-1.5863
X9.1884Y-0.6501
X9.3097Y-2.4351
X9.3097Y-4.6816
X9.3725Y-4.5817
X9.3758Y-3.8328
X9.4959Y-3.184
X9.5597Y-2.3351
X9.5597Y-4.5816
X9.6861Y-0.7501
X9.6861Y-1.6863
X9.7459Y-3.084
X9.9361Y-0.6501
X9.9361Y-1.5863
X10.0585Y-2.4352
X10.0585Y-4.6817
X10.1538Y-3.9328
X10.3085Y-2.3352
X10.3085Y-4.5817
X10.4038Y-3.8328
X10.4355Y-1.6864
X10.4361Y-0.7501
X10.5296Y-3.9328
X10.6855Y-1.5864
X10.6861Y-0.6501
X10.7132Y-3.184
X10.7796Y-3.8328
X10.8099Y-1.6864
X10.9026Y-3.9328
X10.9632Y-3.084
X10.9961Y-2.4352
X10.9961Y-4.6817
X11.0599Y-1.5864
X11.1526Y-3.8328
X11.1843Y-1.6864
X11.1849Y-0.7501
X11.2461Y-2.3352
X11.2461Y-4.5817
X11.4343Y-1.5864
X11.4349Y-0.6501
X12.1211Y-0.7501
X12.1211Y-1.6863
X12.1211Y-2.4351
X12.1211Y-4.6816
X12.3711Y-0.6501
X12.3711Y-1.5863
X12.3711Y-2.3351
X12.3711Y-4.5816
X12.8699Y-0.75
X12.8699Y-1.6863
X12.8699Y-2.4351
X12.8699Y-3.9328
X12.8699Y-4.6816
X13.1199Y-0.65
X13.1199Y-1.5863
X13.1199Y-2.3351
X13.1199Y-3.8328
X13.1199Y-4.5816
X13.6187Y-0.7501
X13.6187Y-1.6863
X13.6187Y-2.4351
X13.6187Y-4.6816
X13.8687Y-0.6501
X13.8687Y-1.5863
X13.8687Y-2.3351
X13.8687Y-4.5816
T7
X11.8507Y-3.0469
X14.005Y-3.5203
T8
X10.2108Y-3.7578
X10.4911Y-1.5114
X11.1483Y-3.7578
X11.4286Y-1.5114
T2
G00X11.6593Y-0.4803
M15
G01X11.6593Y-0.5275
M16
G05
G00X11.74Y-0.7027
M15
G01X11.74Y-0.7027
M16
G05
G00X11.7715Y-0.6555
M15
G01X11.7715Y-0.6555
M16
G05
G00X11.803Y-0.7027
M15
G01X11.803Y-0.7027
M16
G05
G00X11.8345Y-0.6555
M15
G01X11.8345Y-0.6555
M16
G05
G00X11.866Y-0.7027
M15
G01X11.866Y-0.7027
M16
G05
G00X11.9467Y-0.4803
M15
G01X11.9467Y-0.5275
M16
G05
T0
M30
