%TF.GenerationSoftware,KiCad,Pcbnew,(7.99.0-267-g8440d7258b)*%
%TF.CreationDate,2023-07-07T22:01:13-07:00*%
%TF.ProjectId,1_2og_repro,315f326f-675f-4726-9570-726f2e6b6963,rev?*%
%TF.SameCoordinates,Original*%
%TF.FileFunction,Other,Comment*%
%FSLAX46Y46*%
G04 Gerber Fmt 4.6, Leading zero omitted, Abs format (unit mm)*
G04 Created by KiCad (PCBNEW (7.99.0-267-g8440d7258b)) date 2023-07-07 22:01:13*
%MOMM*%
%LPD*%
G01*
G04 APERTURE LIST*
%ADD10C,0.150000*%
%ADD11C,0.120000*%
G04 APERTURE END LIST*
D10*
%TO.C,D90*%
X21331637Y-83736972D02*
X21426875Y-83784591D01*
X21426875Y-83784591D02*
X21617351Y-83784591D01*
X21617351Y-83784591D02*
X21712589Y-83736972D01*
X21712589Y-83736972D02*
X21760208Y-83641733D01*
X21760208Y-83641733D02*
X21760208Y-83594114D01*
X21760208Y-83594114D02*
X21712589Y-83498876D01*
X21712589Y-83498876D02*
X21617351Y-83451257D01*
X21617351Y-83451257D02*
X21474494Y-83451257D01*
X21474494Y-83451257D02*
X21379256Y-83403638D01*
X21379256Y-83403638D02*
X21331637Y-83308400D01*
X21331637Y-83308400D02*
X21331637Y-83260781D01*
X21331637Y-83260781D02*
X21379256Y-83165543D01*
X21379256Y-83165543D02*
X21474494Y-83117924D01*
X21474494Y-83117924D02*
X21617351Y-83117924D01*
X21617351Y-83117924D02*
X21712589Y-83165543D01*
X22093542Y-83117924D02*
X22284018Y-83784591D01*
X22284018Y-83784591D02*
X22474494Y-83308400D01*
X22474494Y-83308400D02*
X22664970Y-83784591D01*
X22664970Y-83784591D02*
X22855446Y-83117924D01*
X23236399Y-83784591D02*
X23236399Y-83117924D01*
X23236399Y-82784591D02*
X23188780Y-82832210D01*
X23188780Y-82832210D02*
X23236399Y-82879829D01*
X23236399Y-82879829D02*
X23284018Y-82832210D01*
X23284018Y-82832210D02*
X23236399Y-82784591D01*
X23236399Y-82784591D02*
X23236399Y-82879829D01*
X23569732Y-83117924D02*
X23950684Y-83117924D01*
X23712589Y-82784591D02*
X23712589Y-83641733D01*
X23712589Y-83641733D02*
X23760208Y-83736972D01*
X23760208Y-83736972D02*
X23855446Y-83784591D01*
X23855446Y-83784591D02*
X23950684Y-83784591D01*
X24712589Y-83736972D02*
X24617351Y-83784591D01*
X24617351Y-83784591D02*
X24426875Y-83784591D01*
X24426875Y-83784591D02*
X24331637Y-83736972D01*
X24331637Y-83736972D02*
X24284018Y-83689352D01*
X24284018Y-83689352D02*
X24236399Y-83594114D01*
X24236399Y-83594114D02*
X24236399Y-83308400D01*
X24236399Y-83308400D02*
X24284018Y-83213162D01*
X24284018Y-83213162D02*
X24331637Y-83165543D01*
X24331637Y-83165543D02*
X24426875Y-83117924D01*
X24426875Y-83117924D02*
X24617351Y-83117924D01*
X24617351Y-83117924D02*
X24712589Y-83165543D01*
X25141161Y-83784591D02*
X25141161Y-82784591D01*
X25569732Y-83784591D02*
X25569732Y-83260781D01*
X25569732Y-83260781D02*
X25522113Y-83165543D01*
X25522113Y-83165543D02*
X25426875Y-83117924D01*
X25426875Y-83117924D02*
X25284018Y-83117924D01*
X25284018Y-83117924D02*
X25188780Y-83165543D01*
X25188780Y-83165543D02*
X25141161Y-83213162D01*
X27236399Y-83736972D02*
X27141161Y-83784591D01*
X27141161Y-83784591D02*
X26950685Y-83784591D01*
X26950685Y-83784591D02*
X26855447Y-83736972D01*
X26855447Y-83736972D02*
X26807828Y-83689352D01*
X26807828Y-83689352D02*
X26760209Y-83594114D01*
X26760209Y-83594114D02*
X26760209Y-83308400D01*
X26760209Y-83308400D02*
X26807828Y-83213162D01*
X26807828Y-83213162D02*
X26855447Y-83165543D01*
X26855447Y-83165543D02*
X26950685Y-83117924D01*
X26950685Y-83117924D02*
X27141161Y-83117924D01*
X27141161Y-83117924D02*
X27236399Y-83165543D01*
X28045923Y-83736972D02*
X27950685Y-83784591D01*
X27950685Y-83784591D02*
X27760209Y-83784591D01*
X27760209Y-83784591D02*
X27664971Y-83736972D01*
X27664971Y-83736972D02*
X27617352Y-83641733D01*
X27617352Y-83641733D02*
X27617352Y-83260781D01*
X27617352Y-83260781D02*
X27664971Y-83165543D01*
X27664971Y-83165543D02*
X27760209Y-83117924D01*
X27760209Y-83117924D02*
X27950685Y-83117924D01*
X27950685Y-83117924D02*
X28045923Y-83165543D01*
X28045923Y-83165543D02*
X28093542Y-83260781D01*
X28093542Y-83260781D02*
X28093542Y-83356019D01*
X28093542Y-83356019D02*
X27617352Y-83451257D01*
X28522114Y-83117924D02*
X28522114Y-83784591D01*
X28522114Y-83213162D02*
X28569733Y-83165543D01*
X28569733Y-83165543D02*
X28664971Y-83117924D01*
X28664971Y-83117924D02*
X28807828Y-83117924D01*
X28807828Y-83117924D02*
X28903066Y-83165543D01*
X28903066Y-83165543D02*
X28950685Y-83260781D01*
X28950685Y-83260781D02*
X28950685Y-83784591D01*
X29284019Y-83117924D02*
X29664971Y-83117924D01*
X29426876Y-82784591D02*
X29426876Y-83641733D01*
X29426876Y-83641733D02*
X29474495Y-83736972D01*
X29474495Y-83736972D02*
X29569733Y-83784591D01*
X29569733Y-83784591D02*
X29664971Y-83784591D01*
X30379257Y-83736972D02*
X30284019Y-83784591D01*
X30284019Y-83784591D02*
X30093543Y-83784591D01*
X30093543Y-83784591D02*
X29998305Y-83736972D01*
X29998305Y-83736972D02*
X29950686Y-83641733D01*
X29950686Y-83641733D02*
X29950686Y-83260781D01*
X29950686Y-83260781D02*
X29998305Y-83165543D01*
X29998305Y-83165543D02*
X30093543Y-83117924D01*
X30093543Y-83117924D02*
X30284019Y-83117924D01*
X30284019Y-83117924D02*
X30379257Y-83165543D01*
X30379257Y-83165543D02*
X30426876Y-83260781D01*
X30426876Y-83260781D02*
X30426876Y-83356019D01*
X30426876Y-83356019D02*
X29950686Y-83451257D01*
X30855448Y-83784591D02*
X30855448Y-83117924D01*
X30855448Y-83308400D02*
X30903067Y-83213162D01*
X30903067Y-83213162D02*
X30950686Y-83165543D01*
X30950686Y-83165543D02*
X31045924Y-83117924D01*
X31045924Y-83117924D02*
X31141162Y-83117924D01*
%TO.C,D92*%
X18971637Y-21918972D02*
X19066875Y-21966591D01*
X19066875Y-21966591D02*
X19257351Y-21966591D01*
X19257351Y-21966591D02*
X19352589Y-21918972D01*
X19352589Y-21918972D02*
X19400208Y-21823733D01*
X19400208Y-21823733D02*
X19400208Y-21776114D01*
X19400208Y-21776114D02*
X19352589Y-21680876D01*
X19352589Y-21680876D02*
X19257351Y-21633257D01*
X19257351Y-21633257D02*
X19114494Y-21633257D01*
X19114494Y-21633257D02*
X19019256Y-21585638D01*
X19019256Y-21585638D02*
X18971637Y-21490400D01*
X18971637Y-21490400D02*
X18971637Y-21442781D01*
X18971637Y-21442781D02*
X19019256Y-21347543D01*
X19019256Y-21347543D02*
X19114494Y-21299924D01*
X19114494Y-21299924D02*
X19257351Y-21299924D01*
X19257351Y-21299924D02*
X19352589Y-21347543D01*
X19733542Y-21299924D02*
X19924018Y-21966591D01*
X19924018Y-21966591D02*
X20114494Y-21490400D01*
X20114494Y-21490400D02*
X20304970Y-21966591D01*
X20304970Y-21966591D02*
X20495446Y-21299924D01*
X20876399Y-21966591D02*
X20876399Y-21299924D01*
X20876399Y-20966591D02*
X20828780Y-21014210D01*
X20828780Y-21014210D02*
X20876399Y-21061829D01*
X20876399Y-21061829D02*
X20924018Y-21014210D01*
X20924018Y-21014210D02*
X20876399Y-20966591D01*
X20876399Y-20966591D02*
X20876399Y-21061829D01*
X21209732Y-21299924D02*
X21590684Y-21299924D01*
X21352589Y-20966591D02*
X21352589Y-21823733D01*
X21352589Y-21823733D02*
X21400208Y-21918972D01*
X21400208Y-21918972D02*
X21495446Y-21966591D01*
X21495446Y-21966591D02*
X21590684Y-21966591D01*
X22352589Y-21918972D02*
X22257351Y-21966591D01*
X22257351Y-21966591D02*
X22066875Y-21966591D01*
X22066875Y-21966591D02*
X21971637Y-21918972D01*
X21971637Y-21918972D02*
X21924018Y-21871352D01*
X21924018Y-21871352D02*
X21876399Y-21776114D01*
X21876399Y-21776114D02*
X21876399Y-21490400D01*
X21876399Y-21490400D02*
X21924018Y-21395162D01*
X21924018Y-21395162D02*
X21971637Y-21347543D01*
X21971637Y-21347543D02*
X22066875Y-21299924D01*
X22066875Y-21299924D02*
X22257351Y-21299924D01*
X22257351Y-21299924D02*
X22352589Y-21347543D01*
X22781161Y-21966591D02*
X22781161Y-20966591D01*
X23209732Y-21966591D02*
X23209732Y-21442781D01*
X23209732Y-21442781D02*
X23162113Y-21347543D01*
X23162113Y-21347543D02*
X23066875Y-21299924D01*
X23066875Y-21299924D02*
X22924018Y-21299924D01*
X22924018Y-21299924D02*
X22828780Y-21347543D01*
X22828780Y-21347543D02*
X22781161Y-21395162D01*
X24876399Y-21918972D02*
X24781161Y-21966591D01*
X24781161Y-21966591D02*
X24590685Y-21966591D01*
X24590685Y-21966591D02*
X24495447Y-21918972D01*
X24495447Y-21918972D02*
X24447828Y-21871352D01*
X24447828Y-21871352D02*
X24400209Y-21776114D01*
X24400209Y-21776114D02*
X24400209Y-21490400D01*
X24400209Y-21490400D02*
X24447828Y-21395162D01*
X24447828Y-21395162D02*
X24495447Y-21347543D01*
X24495447Y-21347543D02*
X24590685Y-21299924D01*
X24590685Y-21299924D02*
X24781161Y-21299924D01*
X24781161Y-21299924D02*
X24876399Y-21347543D01*
X25685923Y-21918972D02*
X25590685Y-21966591D01*
X25590685Y-21966591D02*
X25400209Y-21966591D01*
X25400209Y-21966591D02*
X25304971Y-21918972D01*
X25304971Y-21918972D02*
X25257352Y-21823733D01*
X25257352Y-21823733D02*
X25257352Y-21442781D01*
X25257352Y-21442781D02*
X25304971Y-21347543D01*
X25304971Y-21347543D02*
X25400209Y-21299924D01*
X25400209Y-21299924D02*
X25590685Y-21299924D01*
X25590685Y-21299924D02*
X25685923Y-21347543D01*
X25685923Y-21347543D02*
X25733542Y-21442781D01*
X25733542Y-21442781D02*
X25733542Y-21538019D01*
X25733542Y-21538019D02*
X25257352Y-21633257D01*
X26162114Y-21299924D02*
X26162114Y-21966591D01*
X26162114Y-21395162D02*
X26209733Y-21347543D01*
X26209733Y-21347543D02*
X26304971Y-21299924D01*
X26304971Y-21299924D02*
X26447828Y-21299924D01*
X26447828Y-21299924D02*
X26543066Y-21347543D01*
X26543066Y-21347543D02*
X26590685Y-21442781D01*
X26590685Y-21442781D02*
X26590685Y-21966591D01*
X26924019Y-21299924D02*
X27304971Y-21299924D01*
X27066876Y-20966591D02*
X27066876Y-21823733D01*
X27066876Y-21823733D02*
X27114495Y-21918972D01*
X27114495Y-21918972D02*
X27209733Y-21966591D01*
X27209733Y-21966591D02*
X27304971Y-21966591D01*
X28019257Y-21918972D02*
X27924019Y-21966591D01*
X27924019Y-21966591D02*
X27733543Y-21966591D01*
X27733543Y-21966591D02*
X27638305Y-21918972D01*
X27638305Y-21918972D02*
X27590686Y-21823733D01*
X27590686Y-21823733D02*
X27590686Y-21442781D01*
X27590686Y-21442781D02*
X27638305Y-21347543D01*
X27638305Y-21347543D02*
X27733543Y-21299924D01*
X27733543Y-21299924D02*
X27924019Y-21299924D01*
X27924019Y-21299924D02*
X28019257Y-21347543D01*
X28019257Y-21347543D02*
X28066876Y-21442781D01*
X28066876Y-21442781D02*
X28066876Y-21538019D01*
X28066876Y-21538019D02*
X27590686Y-21633257D01*
X28495448Y-21966591D02*
X28495448Y-21299924D01*
X28495448Y-21490400D02*
X28543067Y-21395162D01*
X28543067Y-21395162D02*
X28590686Y-21347543D01*
X28590686Y-21347543D02*
X28685924Y-21299924D01*
X28685924Y-21299924D02*
X28781162Y-21299924D01*
%TO.C,D91*%
X328081637Y-21913513D02*
X328176875Y-21961132D01*
X328176875Y-21961132D02*
X328367351Y-21961132D01*
X328367351Y-21961132D02*
X328462589Y-21913513D01*
X328462589Y-21913513D02*
X328510208Y-21818274D01*
X328510208Y-21818274D02*
X328510208Y-21770655D01*
X328510208Y-21770655D02*
X328462589Y-21675417D01*
X328462589Y-21675417D02*
X328367351Y-21627798D01*
X328367351Y-21627798D02*
X328224494Y-21627798D01*
X328224494Y-21627798D02*
X328129256Y-21580179D01*
X328129256Y-21580179D02*
X328081637Y-21484941D01*
X328081637Y-21484941D02*
X328081637Y-21437322D01*
X328081637Y-21437322D02*
X328129256Y-21342084D01*
X328129256Y-21342084D02*
X328224494Y-21294465D01*
X328224494Y-21294465D02*
X328367351Y-21294465D01*
X328367351Y-21294465D02*
X328462589Y-21342084D01*
X328843542Y-21294465D02*
X329034018Y-21961132D01*
X329034018Y-21961132D02*
X329224494Y-21484941D01*
X329224494Y-21484941D02*
X329414970Y-21961132D01*
X329414970Y-21961132D02*
X329605446Y-21294465D01*
X329986399Y-21961132D02*
X329986399Y-21294465D01*
X329986399Y-20961132D02*
X329938780Y-21008751D01*
X329938780Y-21008751D02*
X329986399Y-21056370D01*
X329986399Y-21056370D02*
X330034018Y-21008751D01*
X330034018Y-21008751D02*
X329986399Y-20961132D01*
X329986399Y-20961132D02*
X329986399Y-21056370D01*
X330319732Y-21294465D02*
X330700684Y-21294465D01*
X330462589Y-20961132D02*
X330462589Y-21818274D01*
X330462589Y-21818274D02*
X330510208Y-21913513D01*
X330510208Y-21913513D02*
X330605446Y-21961132D01*
X330605446Y-21961132D02*
X330700684Y-21961132D01*
X331462589Y-21913513D02*
X331367351Y-21961132D01*
X331367351Y-21961132D02*
X331176875Y-21961132D01*
X331176875Y-21961132D02*
X331081637Y-21913513D01*
X331081637Y-21913513D02*
X331034018Y-21865893D01*
X331034018Y-21865893D02*
X330986399Y-21770655D01*
X330986399Y-21770655D02*
X330986399Y-21484941D01*
X330986399Y-21484941D02*
X331034018Y-21389703D01*
X331034018Y-21389703D02*
X331081637Y-21342084D01*
X331081637Y-21342084D02*
X331176875Y-21294465D01*
X331176875Y-21294465D02*
X331367351Y-21294465D01*
X331367351Y-21294465D02*
X331462589Y-21342084D01*
X331891161Y-21961132D02*
X331891161Y-20961132D01*
X332319732Y-21961132D02*
X332319732Y-21437322D01*
X332319732Y-21437322D02*
X332272113Y-21342084D01*
X332272113Y-21342084D02*
X332176875Y-21294465D01*
X332176875Y-21294465D02*
X332034018Y-21294465D01*
X332034018Y-21294465D02*
X331938780Y-21342084D01*
X331938780Y-21342084D02*
X331891161Y-21389703D01*
X333986399Y-21913513D02*
X333891161Y-21961132D01*
X333891161Y-21961132D02*
X333700685Y-21961132D01*
X333700685Y-21961132D02*
X333605447Y-21913513D01*
X333605447Y-21913513D02*
X333557828Y-21865893D01*
X333557828Y-21865893D02*
X333510209Y-21770655D01*
X333510209Y-21770655D02*
X333510209Y-21484941D01*
X333510209Y-21484941D02*
X333557828Y-21389703D01*
X333557828Y-21389703D02*
X333605447Y-21342084D01*
X333605447Y-21342084D02*
X333700685Y-21294465D01*
X333700685Y-21294465D02*
X333891161Y-21294465D01*
X333891161Y-21294465D02*
X333986399Y-21342084D01*
X334795923Y-21913513D02*
X334700685Y-21961132D01*
X334700685Y-21961132D02*
X334510209Y-21961132D01*
X334510209Y-21961132D02*
X334414971Y-21913513D01*
X334414971Y-21913513D02*
X334367352Y-21818274D01*
X334367352Y-21818274D02*
X334367352Y-21437322D01*
X334367352Y-21437322D02*
X334414971Y-21342084D01*
X334414971Y-21342084D02*
X334510209Y-21294465D01*
X334510209Y-21294465D02*
X334700685Y-21294465D01*
X334700685Y-21294465D02*
X334795923Y-21342084D01*
X334795923Y-21342084D02*
X334843542Y-21437322D01*
X334843542Y-21437322D02*
X334843542Y-21532560D01*
X334843542Y-21532560D02*
X334367352Y-21627798D01*
X335272114Y-21294465D02*
X335272114Y-21961132D01*
X335272114Y-21389703D02*
X335319733Y-21342084D01*
X335319733Y-21342084D02*
X335414971Y-21294465D01*
X335414971Y-21294465D02*
X335557828Y-21294465D01*
X335557828Y-21294465D02*
X335653066Y-21342084D01*
X335653066Y-21342084D02*
X335700685Y-21437322D01*
X335700685Y-21437322D02*
X335700685Y-21961132D01*
X336034019Y-21294465D02*
X336414971Y-21294465D01*
X336176876Y-20961132D02*
X336176876Y-21818274D01*
X336176876Y-21818274D02*
X336224495Y-21913513D01*
X336224495Y-21913513D02*
X336319733Y-21961132D01*
X336319733Y-21961132D02*
X336414971Y-21961132D01*
X337129257Y-21913513D02*
X337034019Y-21961132D01*
X337034019Y-21961132D02*
X336843543Y-21961132D01*
X336843543Y-21961132D02*
X336748305Y-21913513D01*
X336748305Y-21913513D02*
X336700686Y-21818274D01*
X336700686Y-21818274D02*
X336700686Y-21437322D01*
X336700686Y-21437322D02*
X336748305Y-21342084D01*
X336748305Y-21342084D02*
X336843543Y-21294465D01*
X336843543Y-21294465D02*
X337034019Y-21294465D01*
X337034019Y-21294465D02*
X337129257Y-21342084D01*
X337129257Y-21342084D02*
X337176876Y-21437322D01*
X337176876Y-21437322D02*
X337176876Y-21532560D01*
X337176876Y-21532560D02*
X336700686Y-21627798D01*
X337605448Y-21961132D02*
X337605448Y-21294465D01*
X337605448Y-21484941D02*
X337653067Y-21389703D01*
X337653067Y-21389703D02*
X337700686Y-21342084D01*
X337700686Y-21342084D02*
X337795924Y-21294465D01*
X337795924Y-21294465D02*
X337891162Y-21294465D01*
%TO.C,D89*%
X26094137Y-83736972D02*
X26189375Y-83784591D01*
X26189375Y-83784591D02*
X26379851Y-83784591D01*
X26379851Y-83784591D02*
X26475089Y-83736972D01*
X26475089Y-83736972D02*
X26522708Y-83641733D01*
X26522708Y-83641733D02*
X26522708Y-83594114D01*
X26522708Y-83594114D02*
X26475089Y-83498876D01*
X26475089Y-83498876D02*
X26379851Y-83451257D01*
X26379851Y-83451257D02*
X26236994Y-83451257D01*
X26236994Y-83451257D02*
X26141756Y-83403638D01*
X26141756Y-83403638D02*
X26094137Y-83308400D01*
X26094137Y-83308400D02*
X26094137Y-83260781D01*
X26094137Y-83260781D02*
X26141756Y-83165543D01*
X26141756Y-83165543D02*
X26236994Y-83117924D01*
X26236994Y-83117924D02*
X26379851Y-83117924D01*
X26379851Y-83117924D02*
X26475089Y-83165543D01*
X26856042Y-83117924D02*
X27046518Y-83784591D01*
X27046518Y-83784591D02*
X27236994Y-83308400D01*
X27236994Y-83308400D02*
X27427470Y-83784591D01*
X27427470Y-83784591D02*
X27617946Y-83117924D01*
X27998899Y-83784591D02*
X27998899Y-83117924D01*
X27998899Y-82784591D02*
X27951280Y-82832210D01*
X27951280Y-82832210D02*
X27998899Y-82879829D01*
X27998899Y-82879829D02*
X28046518Y-82832210D01*
X28046518Y-82832210D02*
X27998899Y-82784591D01*
X27998899Y-82784591D02*
X27998899Y-82879829D01*
X28332232Y-83117924D02*
X28713184Y-83117924D01*
X28475089Y-82784591D02*
X28475089Y-83641733D01*
X28475089Y-83641733D02*
X28522708Y-83736972D01*
X28522708Y-83736972D02*
X28617946Y-83784591D01*
X28617946Y-83784591D02*
X28713184Y-83784591D01*
X29475089Y-83736972D02*
X29379851Y-83784591D01*
X29379851Y-83784591D02*
X29189375Y-83784591D01*
X29189375Y-83784591D02*
X29094137Y-83736972D01*
X29094137Y-83736972D02*
X29046518Y-83689352D01*
X29046518Y-83689352D02*
X28998899Y-83594114D01*
X28998899Y-83594114D02*
X28998899Y-83308400D01*
X28998899Y-83308400D02*
X29046518Y-83213162D01*
X29046518Y-83213162D02*
X29094137Y-83165543D01*
X29094137Y-83165543D02*
X29189375Y-83117924D01*
X29189375Y-83117924D02*
X29379851Y-83117924D01*
X29379851Y-83117924D02*
X29475089Y-83165543D01*
X29903661Y-83784591D02*
X29903661Y-82784591D01*
X30332232Y-83784591D02*
X30332232Y-83260781D01*
X30332232Y-83260781D02*
X30284613Y-83165543D01*
X30284613Y-83165543D02*
X30189375Y-83117924D01*
X30189375Y-83117924D02*
X30046518Y-83117924D01*
X30046518Y-83117924D02*
X29951280Y-83165543D01*
X29951280Y-83165543D02*
X29903661Y-83213162D01*
X31998899Y-83736972D02*
X31903661Y-83784591D01*
X31903661Y-83784591D02*
X31713185Y-83784591D01*
X31713185Y-83784591D02*
X31617947Y-83736972D01*
X31617947Y-83736972D02*
X31570328Y-83689352D01*
X31570328Y-83689352D02*
X31522709Y-83594114D01*
X31522709Y-83594114D02*
X31522709Y-83308400D01*
X31522709Y-83308400D02*
X31570328Y-83213162D01*
X31570328Y-83213162D02*
X31617947Y-83165543D01*
X31617947Y-83165543D02*
X31713185Y-83117924D01*
X31713185Y-83117924D02*
X31903661Y-83117924D01*
X31903661Y-83117924D02*
X31998899Y-83165543D01*
X32808423Y-83736972D02*
X32713185Y-83784591D01*
X32713185Y-83784591D02*
X32522709Y-83784591D01*
X32522709Y-83784591D02*
X32427471Y-83736972D01*
X32427471Y-83736972D02*
X32379852Y-83641733D01*
X32379852Y-83641733D02*
X32379852Y-83260781D01*
X32379852Y-83260781D02*
X32427471Y-83165543D01*
X32427471Y-83165543D02*
X32522709Y-83117924D01*
X32522709Y-83117924D02*
X32713185Y-83117924D01*
X32713185Y-83117924D02*
X32808423Y-83165543D01*
X32808423Y-83165543D02*
X32856042Y-83260781D01*
X32856042Y-83260781D02*
X32856042Y-83356019D01*
X32856042Y-83356019D02*
X32379852Y-83451257D01*
X33284614Y-83117924D02*
X33284614Y-83784591D01*
X33284614Y-83213162D02*
X33332233Y-83165543D01*
X33332233Y-83165543D02*
X33427471Y-83117924D01*
X33427471Y-83117924D02*
X33570328Y-83117924D01*
X33570328Y-83117924D02*
X33665566Y-83165543D01*
X33665566Y-83165543D02*
X33713185Y-83260781D01*
X33713185Y-83260781D02*
X33713185Y-83784591D01*
X34046519Y-83117924D02*
X34427471Y-83117924D01*
X34189376Y-82784591D02*
X34189376Y-83641733D01*
X34189376Y-83641733D02*
X34236995Y-83736972D01*
X34236995Y-83736972D02*
X34332233Y-83784591D01*
X34332233Y-83784591D02*
X34427471Y-83784591D01*
X35141757Y-83736972D02*
X35046519Y-83784591D01*
X35046519Y-83784591D02*
X34856043Y-83784591D01*
X34856043Y-83784591D02*
X34760805Y-83736972D01*
X34760805Y-83736972D02*
X34713186Y-83641733D01*
X34713186Y-83641733D02*
X34713186Y-83260781D01*
X34713186Y-83260781D02*
X34760805Y-83165543D01*
X34760805Y-83165543D02*
X34856043Y-83117924D01*
X34856043Y-83117924D02*
X35046519Y-83117924D01*
X35046519Y-83117924D02*
X35141757Y-83165543D01*
X35141757Y-83165543D02*
X35189376Y-83260781D01*
X35189376Y-83260781D02*
X35189376Y-83356019D01*
X35189376Y-83356019D02*
X34713186Y-83451257D01*
X35617948Y-83784591D02*
X35617948Y-83117924D01*
X35617948Y-83308400D02*
X35665567Y-83213162D01*
X35665567Y-83213162D02*
X35713186Y-83165543D01*
X35713186Y-83165543D02*
X35808424Y-83117924D01*
X35808424Y-83117924D02*
X35903662Y-83117924D01*
D11*
%TO.C,D90*%
X25938781Y-84741972D02*
X26188781Y-84491972D01*
X26188781Y-84491972D02*
X25938781Y-84241972D01*
X26188781Y-84491972D02*
X26438781Y-84241972D01*
X26438781Y-84741972D02*
X26188781Y-84491972D01*
D10*
%TO.C,H1*%
X306241693Y-78471777D02*
G75*
G03*
X306241693Y-78471777I-3000000J0D01*
G01*
D11*
%TO.C,D92*%
X23578781Y-22923972D02*
X23828781Y-22673972D01*
X23828781Y-22673972D02*
X23578781Y-22423972D01*
X23828781Y-22673972D02*
X24078781Y-22423972D01*
X24078781Y-22923972D02*
X23828781Y-22673972D01*
D10*
%TO.C,H2*%
X360958732Y-90493906D02*
G75*
G03*
X360958732Y-90493906I-3000000J0D01*
G01*
D11*
%TO.C,D91*%
X332688781Y-22918513D02*
X332938781Y-22668513D01*
X332938781Y-22668513D02*
X332688781Y-22418513D01*
X332938781Y-22668513D02*
X333188781Y-22418513D01*
X333188781Y-22918513D02*
X332938781Y-22668513D01*
%TO.C,D89*%
X30701281Y-84741972D02*
X30951281Y-84491972D01*
X30951281Y-84491972D02*
X30701281Y-84241972D01*
X30951281Y-84491972D02*
X31201281Y-84241972D01*
X31201281Y-84741972D02*
X30951281Y-84491972D01*
%TD*%
M02*
