%TF.GenerationSoftware,KiCad,Pcbnew,8.0.8*%
%TF.CreationDate,2025-02-22T21:03:59-08:00*%
%TF.ProjectId,1_2og_repro,315f326f-675f-4726-9570-726f2e6b6963,rev?*%
%TF.SameCoordinates,Original*%
%TF.FileFunction,Soldermask,Bot*%
%TF.FilePolarity,Negative*%
%FSLAX46Y46*%
G04 Gerber Fmt 4.6, Leading zero omitted, Abs format (unit mm)*
G04 Created by KiCad (PCBNEW 8.0.8) date 2025-02-22 21:03:59*
%MOMM*%
%LPD*%
G01*
G04 APERTURE LIST*
G04 Aperture macros list*
%AMRoundRect*
0 Rectangle with rounded corners*
0 $1 Rounding radius*
0 $2 $3 $4 $5 $6 $7 $8 $9 X,Y pos of 4 corners*
0 Add a 4 corners polygon primitive as box body*
4,1,4,$2,$3,$4,$5,$6,$7,$8,$9,$2,$3,0*
0 Add four circle primitives for the rounded corners*
1,1,$1+$1,$2,$3*
1,1,$1+$1,$4,$5*
1,1,$1+$1,$6,$7*
1,1,$1+$1,$8,$9*
0 Add four rect primitives between the rounded corners*
20,1,$1+$1,$2,$3,$4,$5,0*
20,1,$1+$1,$4,$5,$6,$7,0*
20,1,$1+$1,$6,$7,$8,$9,0*
20,1,$1+$1,$8,$9,$2,$3,0*%
G04 Aperture macros list end*
%ADD10C,1.750000*%
%ADD11C,3.987800*%
%ADD12C,2.300000*%
%ADD13RoundRect,0.285750X-0.666750X-0.666750X0.666750X-0.666750X0.666750X0.666750X-0.666750X0.666750X0*%
%ADD14C,1.905000*%
%ADD15C,6.000000*%
%ADD16RoundRect,0.250000X0.625000X-0.350000X0.625000X0.350000X-0.625000X0.350000X-0.625000X-0.350000X0*%
%ADD17O,1.750000X1.200000*%
%ADD18O,1.100000X1.650000*%
%ADD19O,1.700000X2.700000*%
%ADD20C,3.048000*%
%ADD21C,4.000000*%
%ADD22R,1.700000X1.700000*%
%ADD23O,1.700000X1.700000*%
%ADD24RoundRect,0.140000X-0.170000X0.140000X-0.170000X-0.140000X0.170000X-0.140000X0.170000X0.140000X0*%
%ADD25RoundRect,0.225000X0.375000X-0.225000X0.375000X0.225000X-0.375000X0.225000X-0.375000X-0.225000X0*%
%ADD26RoundRect,0.140000X0.140000X0.170000X-0.140000X0.170000X-0.140000X-0.170000X0.140000X-0.170000X0*%
%ADD27RoundRect,0.175000X0.175000X0.325000X-0.175000X0.325000X-0.175000X-0.325000X0.175000X-0.325000X0*%
%ADD28RoundRect,0.150000X0.200000X0.150000X-0.200000X0.150000X-0.200000X-0.150000X0.200000X-0.150000X0*%
%ADD29RoundRect,0.075000X0.075000X-0.662500X0.075000X0.662500X-0.075000X0.662500X-0.075000X-0.662500X0*%
%ADD30RoundRect,0.075000X0.662500X-0.075000X0.662500X0.075000X-0.662500X0.075000X-0.662500X-0.075000X0*%
%ADD31RoundRect,0.135000X-0.135000X-0.185000X0.135000X-0.185000X0.135000X0.185000X-0.135000X0.185000X0*%
%ADD32RoundRect,0.140000X0.170000X-0.140000X0.170000X0.140000X-0.170000X0.140000X-0.170000X-0.140000X0*%
%ADD33RoundRect,0.140000X-0.140000X-0.170000X0.140000X-0.170000X0.140000X0.170000X-0.140000X0.170000X0*%
%ADD34RoundRect,0.150000X-0.475000X-0.150000X0.475000X-0.150000X0.475000X0.150000X-0.475000X0.150000X0*%
%ADD35RoundRect,0.135000X0.135000X0.185000X-0.135000X0.185000X-0.135000X-0.185000X0.135000X-0.185000X0*%
%ADD36RoundRect,0.150000X0.587500X0.150000X-0.587500X0.150000X-0.587500X-0.150000X0.587500X-0.150000X0*%
%ADD37RoundRect,0.250000X-0.625000X0.375000X-0.625000X-0.375000X0.625000X-0.375000X0.625000X0.375000X0*%
%ADD38RoundRect,0.150000X0.275000X-0.150000X0.275000X0.150000X-0.275000X0.150000X-0.275000X-0.150000X0*%
%ADD39RoundRect,0.175000X0.225000X-0.175000X0.225000X0.175000X-0.225000X0.175000X-0.225000X-0.175000X0*%
%ADD40R,1.700000X1.000000*%
G04 APERTURE END LIST*
D10*
%TO.C,SW71*%
X111991219Y-85164028D03*
D11*
X117071219Y-85164028D03*
D10*
X122151219Y-85164028D03*
D12*
X113261219Y-82624028D03*
X119611219Y-80084028D03*
%TD*%
D10*
%TO.C,SW12*%
X240381219Y-4324028D03*
D11*
X245461219Y-4324028D03*
D10*
X250541219Y-4324028D03*
D12*
X241651219Y-1784028D03*
X248001219Y755972D03*
%TD*%
D10*
%TO.C,SW26*%
X164271219Y-28104028D03*
D11*
X169351219Y-28104028D03*
D10*
X174431219Y-28104028D03*
D12*
X165541219Y-25564028D03*
X171891219Y-23024028D03*
%TD*%
D10*
%TO.C,SW76*%
X207101219Y-85164028D03*
D11*
X212181219Y-85164028D03*
D10*
X217261219Y-85164028D03*
D12*
X208371219Y-82624028D03*
X214721219Y-80084028D03*
%TD*%
D10*
%TO.C,SW21*%
X69171219Y-28104028D03*
D11*
X74251219Y-28104028D03*
D10*
X79331219Y-28104028D03*
D12*
X70441219Y-25564028D03*
X76791219Y-23024028D03*
%TD*%
D10*
%TO.C,SW24*%
X126231219Y-28104028D03*
D11*
X131311219Y-28104028D03*
D10*
X136391219Y-28104028D03*
D12*
X127501219Y-25564028D03*
X133851219Y-23024028D03*
%TD*%
D10*
%TO.C,SW25*%
X145251219Y-28104028D03*
D11*
X150331219Y-28104028D03*
D10*
X155411219Y-28104028D03*
D12*
X146521219Y-25564028D03*
X152871219Y-23024028D03*
%TD*%
D10*
%TO.C,SW60*%
X140481104Y-66144056D03*
D11*
X145561104Y-66144056D03*
D10*
X150641104Y-66144056D03*
D12*
X141751104Y-63604056D03*
X148101104Y-61064056D03*
%TD*%
D10*
%TO.C,SW83*%
X21571219Y-104184028D03*
D11*
X26651219Y-104184028D03*
D10*
X31731219Y-104184028D03*
D12*
X22841219Y-101644028D03*
X29191219Y-99104028D03*
%TD*%
D10*
%TO.C,SW74*%
X169061219Y-85164028D03*
D11*
X174141219Y-85164028D03*
D10*
X179221219Y-85164028D03*
D12*
X170331219Y-82624028D03*
X176681219Y-80084028D03*
%TD*%
D10*
%TO.C,SW9*%
X173781219Y-4326028D03*
D11*
X178861219Y-4326028D03*
D10*
X183941219Y-4326028D03*
D12*
X175051219Y-1786028D03*
X181401219Y753972D03*
%TD*%
D10*
%TO.C,SW32*%
X283181219Y-28104028D03*
D11*
X288261219Y-28104028D03*
D10*
X293341219Y-28104028D03*
D12*
X284451219Y-25564028D03*
X290801219Y-23024028D03*
%TD*%
D10*
%TO.C,SW53*%
X213719Y-66144028D03*
D11*
X5293719Y-66144028D03*
D10*
X10373719Y-66144028D03*
D12*
X1483719Y-63604028D03*
X7833719Y-61064028D03*
%TD*%
D10*
%TO.C,SW90*%
X230791219Y-104186028D03*
D11*
X235871219Y-104186028D03*
D10*
X240951219Y-104186028D03*
D12*
X232061219Y-101646028D03*
X238411219Y-99106028D03*
%TD*%
D10*
%TO.C,SW65*%
X247421192Y-66146059D03*
D11*
X252501192Y-66146059D03*
D10*
X257581192Y-66146059D03*
D12*
X248691192Y-63606059D03*
X255041192Y-61066059D03*
%TD*%
D10*
%TO.C,SW84*%
X45346219Y-104184028D03*
D11*
X50426219Y-104184028D03*
D10*
X55506219Y-104184028D03*
D12*
X46616219Y-101644028D03*
X52966219Y-99104028D03*
%TD*%
D10*
%TO.C,SW39*%
X78671219Y-47124028D03*
D11*
X83751219Y-47124028D03*
D10*
X88831219Y-47124028D03*
D12*
X79941219Y-44584028D03*
X86291219Y-42044028D03*
%TD*%
D10*
%TO.C,SW86*%
X116732633Y-104185888D03*
D11*
X121812633Y-104185888D03*
D10*
X126892633Y-104185888D03*
D12*
X118002633Y-101645888D03*
X124352633Y-99105888D03*
%TD*%
D10*
%TO.C,SW63*%
X197541104Y-66144056D03*
D11*
X202621104Y-66144056D03*
D10*
X207701104Y-66144056D03*
D12*
X198811104Y-63604056D03*
X205161104Y-61064056D03*
%TD*%
D10*
%TO.C,SW35*%
X-2158781Y-47126028D03*
D11*
X2921219Y-47126028D03*
D10*
X8001219Y-47126028D03*
D12*
X-888781Y-44586028D03*
X5461219Y-42046028D03*
%TD*%
D10*
%TO.C,SW15*%
X302201219Y-4320569D03*
D11*
X307281219Y-4320569D03*
D10*
X312361219Y-4320569D03*
D12*
X303471219Y-1780569D03*
X309821219Y759431D03*
%TD*%
D10*
%TO.C,SW47*%
X230791104Y-47126390D03*
D11*
X235871104Y-47126390D03*
D10*
X240951104Y-47126390D03*
D12*
X232061104Y-44586390D03*
X238411104Y-42046390D03*
%TD*%
D10*
%TO.C,SW41*%
X116711219Y-47124028D03*
D11*
X121791219Y-47124028D03*
D10*
X126871219Y-47124028D03*
D12*
X117981219Y-44584028D03*
X124331219Y-42044028D03*
%TD*%
D10*
%TO.C,SW62*%
X178521104Y-66144056D03*
D11*
X183601104Y-66144056D03*
D10*
X188681104Y-66144056D03*
D12*
X179791104Y-63604056D03*
X186141104Y-61064056D03*
%TD*%
D10*
%TO.C,SW89*%
X207016219Y-104186028D03*
D11*
X212096219Y-104186028D03*
D10*
X217176219Y-104186028D03*
D12*
X208286219Y-101646028D03*
X214636219Y-99106028D03*
%TD*%
D10*
%TO.C,SW49*%
X283181219Y-47124028D03*
D11*
X288261219Y-47124028D03*
D10*
X293341219Y-47124028D03*
D12*
X284451219Y-44584028D03*
X290801219Y-42044028D03*
%TD*%
D10*
%TO.C,SW28*%
X202311219Y-28104028D03*
D11*
X207391219Y-28104028D03*
D10*
X212471219Y-28104028D03*
D12*
X203581219Y-25564028D03*
X209931219Y-23024028D03*
%TD*%
D10*
%TO.C,SW10*%
X202341219Y-4324028D03*
D11*
X207421219Y-4324028D03*
D10*
X212501219Y-4324028D03*
D12*
X203611219Y-1784028D03*
X209961219Y755972D03*
%TD*%
D10*
%TO.C,SW1*%
X-6908781Y-4326028D03*
D11*
X-1828781Y-4326028D03*
D10*
X3251219Y-4326028D03*
D12*
X-5638781Y-1786028D03*
X711219Y753972D03*
%TD*%
D10*
%TO.C,SW70*%
X92971219Y-85164028D03*
D11*
X98051219Y-85164028D03*
D10*
X103131219Y-85164028D03*
D12*
X94241219Y-82624028D03*
X100591219Y-80084028D03*
%TD*%
D10*
%TO.C,SW13*%
X259401219Y-4324028D03*
D11*
X264481219Y-4324028D03*
D10*
X269561219Y-4324028D03*
D12*
X260671219Y-1784028D03*
X267021219Y755972D03*
%TD*%
D10*
%TO.C,SW87*%
X187958719Y-104184028D03*
D11*
X193038719Y-104184028D03*
D10*
X198118719Y-104184028D03*
D12*
X189228719Y-101644028D03*
X195578719Y-99104028D03*
%TD*%
D10*
%TO.C,SW11*%
X221331219Y-4324028D03*
D11*
X226411219Y-4324028D03*
D10*
X231491219Y-4324028D03*
D12*
X222601219Y-1784028D03*
X228951219Y755972D03*
%TD*%
D10*
%TO.C,SW27*%
X183291219Y-28104028D03*
D11*
X188371219Y-28104028D03*
D10*
X193451219Y-28104028D03*
D12*
X184561219Y-25564028D03*
X190911219Y-23024028D03*
%TD*%
D13*
%TO.C,D90*%
X-738781Y-71224028D03*
D14*
X1801219Y-71224028D03*
%TD*%
D10*
%TO.C,SW37*%
X40631219Y-47124028D03*
D11*
X45711219Y-47124028D03*
D10*
X50791219Y-47124028D03*
D12*
X41901219Y-44584028D03*
X48251219Y-42044028D03*
%TD*%
D10*
%TO.C,SW5*%
X88191638Y-4330875D03*
D11*
X93271638Y-4330875D03*
D10*
X98351638Y-4330875D03*
D12*
X89461638Y-1790875D03*
X95811638Y749125D03*
%TD*%
D15*
%TO.C,H1*%
X277584131Y-60123833D03*
%TD*%
D10*
%TO.C,SW4*%
X69171638Y-4330875D03*
D11*
X74251638Y-4330875D03*
D10*
X79331638Y-4330875D03*
D12*
X70441638Y-1790875D03*
X76791638Y749125D03*
%TD*%
D10*
%TO.C,SW23*%
X107211219Y-28104028D03*
D11*
X112291219Y-28104028D03*
D10*
X117371219Y-28104028D03*
D12*
X108481219Y-25564028D03*
X114831219Y-23024028D03*
%TD*%
D10*
%TO.C,SW42*%
X135731219Y-47124028D03*
D11*
X140811219Y-47124028D03*
D10*
X145891219Y-47124028D03*
D12*
X137001219Y-44584028D03*
X143351219Y-42044028D03*
%TD*%
D10*
%TO.C,SW91*%
X254606219Y-104186028D03*
D11*
X259686219Y-104186028D03*
D10*
X264766219Y-104186028D03*
D12*
X255876219Y-101646028D03*
X262226219Y-99106028D03*
%TD*%
D10*
%TO.C,SW22*%
X88191219Y-28104028D03*
D11*
X93271219Y-28104028D03*
D10*
X98351219Y-28104028D03*
D12*
X89461219Y-25564028D03*
X95811219Y-23024028D03*
%TD*%
D10*
%TO.C,SW64*%
X216561104Y-66144056D03*
D11*
X221641104Y-66144056D03*
D10*
X226721104Y-66144056D03*
D12*
X217831104Y-63604056D03*
X224181104Y-61064056D03*
%TD*%
D10*
%TO.C,SW81*%
X302201219Y-85164028D03*
D11*
X307281219Y-85164028D03*
D10*
X312361219Y-85164028D03*
D12*
X303471219Y-82624028D03*
X309821219Y-80084028D03*
%TD*%
D10*
%TO.C,SW52*%
X-4531281Y-66144028D03*
D11*
X548719Y-66144028D03*
D10*
X5628719Y-66144028D03*
D12*
X-3261281Y-63604028D03*
X3088719Y-61064028D03*
%TD*%
D10*
%TO.C,SW30*%
X249876219Y-28106028D03*
D11*
X254956219Y-28106028D03*
D10*
X260036219Y-28106028D03*
D12*
X251146219Y-25566028D03*
X257496219Y-23026028D03*
%TD*%
D16*
%TO.C,J4*%
X324264104Y-88236390D03*
D17*
X324264104Y-86236390D03*
X324264104Y-84236390D03*
%TD*%
D10*
%TO.C,SW51*%
X321221219Y-47124028D03*
D11*
X326301219Y-47124028D03*
D10*
X331381219Y-47124028D03*
D12*
X322491219Y-44584028D03*
X328841219Y-42044028D03*
%TD*%
D10*
%TO.C,SW34*%
X321221219Y-28104028D03*
D11*
X326301219Y-28104028D03*
D10*
X331381219Y-28104028D03*
D12*
X322491219Y-25564028D03*
X328841219Y-23024028D03*
%TD*%
D10*
%TO.C,SW66*%
X5003719Y-85164028D03*
D11*
X10083719Y-85164028D03*
D10*
X15163719Y-85164028D03*
D12*
X6273719Y-82624028D03*
X12623719Y-80084028D03*
%TD*%
D10*
%TO.C,SW8*%
X154761219Y-4326028D03*
D11*
X159841219Y-4326028D03*
D10*
X164921219Y-4326028D03*
D12*
X156031219Y-1786028D03*
X162381219Y753972D03*
%TD*%
D10*
%TO.C,SW36*%
X21611219Y-47124028D03*
D11*
X26691219Y-47124028D03*
D10*
X31771219Y-47124028D03*
D12*
X22881219Y-44584028D03*
X29231219Y-42044028D03*
%TD*%
D10*
%TO.C,SW68*%
X54931219Y-85164028D03*
D11*
X60011219Y-85164028D03*
D10*
X65091219Y-85164028D03*
D12*
X56201219Y-82624028D03*
X62551219Y-80084028D03*
%TD*%
D10*
%TO.C,SW94*%
X321221219Y-104184028D03*
D11*
X326301219Y-104184028D03*
D10*
X331381219Y-104184028D03*
D12*
X322491219Y-101644028D03*
X328841219Y-99104028D03*
%TD*%
D10*
%TO.C,SW19*%
X31131219Y-28104028D03*
D11*
X36211219Y-28104028D03*
D10*
X41291219Y-28104028D03*
D12*
X32401219Y-25564028D03*
X38751219Y-23024028D03*
%TD*%
D10*
%TO.C,SW73*%
X150031219Y-85164028D03*
D11*
X155111219Y-85164028D03*
D10*
X160191219Y-85164028D03*
D12*
X151301219Y-82624028D03*
X157651219Y-80084028D03*
%TD*%
D10*
%TO.C,SW78*%
X242756219Y-85164028D03*
D11*
X247836219Y-85164028D03*
D10*
X252916219Y-85164028D03*
D12*
X244026219Y-82624028D03*
X250376219Y-80084028D03*
%TD*%
D10*
%TO.C,SW61*%
X159501104Y-66144056D03*
D11*
X164581104Y-66144056D03*
D10*
X169661104Y-66144056D03*
D12*
X160771104Y-63604056D03*
X167121104Y-61064056D03*
%TD*%
D10*
%TO.C,SW43*%
X154751219Y-47124028D03*
D11*
X159831219Y-47124028D03*
D10*
X164911219Y-47124028D03*
D12*
X156021219Y-44584028D03*
X162371219Y-42044028D03*
%TD*%
D10*
%TO.C,SW33*%
X302201219Y-28104028D03*
D11*
X307281219Y-28104028D03*
D10*
X312361219Y-28104028D03*
D12*
X303471219Y-25564028D03*
X309821219Y-23024028D03*
%TD*%
D10*
%TO.C,SW88*%
X211771219Y-104184028D03*
D11*
X216851219Y-104184028D03*
D10*
X221931219Y-104184028D03*
D12*
X213041219Y-101644028D03*
X219391219Y-99104028D03*
%TD*%
D10*
%TO.C,SW93*%
X302201219Y-104184028D03*
D11*
X307281219Y-104184028D03*
D10*
X312361219Y-104184028D03*
D12*
X303471219Y-101644028D03*
X309821219Y-99104028D03*
%TD*%
D18*
%TO.C,J2*%
X274771219Y-830390D03*
X275571219Y869610D03*
X276371219Y-830390D03*
X277171219Y869610D03*
X277971219Y-830390D03*
D19*
X280021219Y4469610D03*
X272721219Y4469610D03*
%TD*%
D10*
%TO.C,SW56*%
X64401104Y-66144056D03*
D11*
X69481104Y-66144056D03*
D10*
X74561104Y-66144056D03*
D12*
X65671104Y-63604056D03*
X72021104Y-61064056D03*
%TD*%
D20*
%TO.C,S5*%
X188472633Y-111167888D03*
D11*
X188472633Y-95927888D03*
D20*
X74172633Y-111167888D03*
D11*
X74172633Y-95927888D03*
%TD*%
D10*
%TO.C,SW40*%
X97691219Y-47124028D03*
D11*
X102771219Y-47124028D03*
D10*
X107851219Y-47124028D03*
D12*
X98961219Y-44584028D03*
X105311219Y-42044028D03*
%TD*%
D10*
%TO.C,SW20*%
X50151219Y-28104028D03*
D11*
X55231219Y-28104028D03*
D10*
X60311219Y-28104028D03*
D12*
X51421219Y-25564028D03*
X57771219Y-23024028D03*
%TD*%
D10*
%TO.C,SW69*%
X73951219Y-85164028D03*
D11*
X79031219Y-85164028D03*
D10*
X84111219Y-85164028D03*
D12*
X75221219Y-82624028D03*
X81571219Y-80084028D03*
%TD*%
D10*
%TO.C,SW16*%
X321221219Y-4324028D03*
D11*
X326301219Y-4324028D03*
D10*
X331381219Y-4324028D03*
D12*
X322491219Y-1784028D03*
X328841219Y755972D03*
%TD*%
D10*
%TO.C,SW7*%
X135741219Y-4326028D03*
D11*
X140821219Y-4326028D03*
D10*
X145901219Y-4326028D03*
D12*
X137011219Y-1786028D03*
X143361219Y753972D03*
%TD*%
D10*
%TO.C,SW67*%
X35911219Y-85164028D03*
D11*
X40991219Y-85164028D03*
D10*
X46071219Y-85164028D03*
D12*
X37181219Y-82624028D03*
X43531219Y-80084028D03*
%TD*%
D10*
%TO.C,SW50*%
X302201219Y-47124028D03*
D11*
X307281219Y-47124028D03*
D10*
X312361219Y-47124028D03*
D12*
X303471219Y-44584028D03*
X309821219Y-42044028D03*
%TD*%
D21*
%TO.C,S4*%
X235929969Y-78179028D03*
D11*
X235929969Y-93419028D03*
D21*
X259742469Y-78179028D03*
D11*
X259742469Y-93419028D03*
%TD*%
D10*
%TO.C,SW72*%
X131011219Y-85164028D03*
D11*
X136091219Y-85164028D03*
D10*
X141171219Y-85164028D03*
D12*
X132281219Y-82624028D03*
X138631219Y-80084028D03*
%TD*%
D10*
%TO.C,SW3*%
X50151638Y-4330875D03*
D11*
X55231638Y-4330875D03*
D10*
X60311638Y-4330875D03*
D12*
X51421638Y-1790875D03*
X57771638Y749125D03*
%TD*%
D20*
%TO.C,S6*%
X169437633Y-111170888D03*
D11*
X169437633Y-95930888D03*
D20*
X74187633Y-111170888D03*
D11*
X74187633Y-95930888D03*
%TD*%
D10*
%TO.C,SW57*%
X83421104Y-66144056D03*
D11*
X88501104Y-66144056D03*
D10*
X93581104Y-66144056D03*
D12*
X84691104Y-63604056D03*
X91041104Y-61064056D03*
%TD*%
D20*
%TO.C,S2*%
X264407442Y-73131059D03*
D11*
X264407442Y-57891059D03*
D20*
X240594942Y-73131059D03*
D11*
X240594942Y-57891059D03*
%TD*%
D20*
%TO.C,S3*%
X-1822531Y-78179028D03*
D11*
X-1822531Y-93419028D03*
D20*
X21989969Y-78179028D03*
D11*
X21989969Y-93419028D03*
%TD*%
D15*
%TO.C,H2*%
X332301170Y-72145962D03*
%TD*%
D10*
%TO.C,SW92*%
X283181219Y-104184028D03*
D11*
X288261219Y-104184028D03*
D10*
X293341219Y-104184028D03*
D12*
X284451219Y-101644028D03*
X290801219Y-99104028D03*
%TD*%
D10*
%TO.C,SW77*%
X233211219Y-85164028D03*
D11*
X238291219Y-85164028D03*
D10*
X243371219Y-85164028D03*
D12*
X234481219Y-82624028D03*
X240831219Y-80084028D03*
%TD*%
D10*
%TO.C,SW59*%
X121461104Y-66144056D03*
D11*
X126541104Y-66144056D03*
D10*
X131621104Y-66144056D03*
D12*
X122731104Y-63604056D03*
X129081104Y-61064056D03*
%TD*%
D10*
%TO.C,SW44*%
X173771219Y-47124028D03*
D11*
X178851219Y-47124028D03*
D10*
X183931219Y-47124028D03*
D12*
X175041219Y-44584028D03*
X181391219Y-42044028D03*
%TD*%
D10*
%TO.C,SW29*%
X221331219Y-28104028D03*
D11*
X226411219Y-28104028D03*
D10*
X231491219Y-28104028D03*
D12*
X222601219Y-25564028D03*
X228951219Y-23024028D03*
%TD*%
D10*
%TO.C,SW82*%
X-2178781Y-104186028D03*
D11*
X2901219Y-104186028D03*
D10*
X7981219Y-104186028D03*
D12*
X-908781Y-101646028D03*
X5441219Y-99106028D03*
%TD*%
D10*
%TO.C,SW75*%
X188081219Y-85164028D03*
D11*
X193161219Y-85164028D03*
D10*
X198241219Y-85164028D03*
D12*
X189351219Y-82624028D03*
X195701219Y-80084028D03*
%TD*%
D10*
%TO.C,SW55*%
X45381104Y-66144056D03*
D11*
X50461104Y-66144056D03*
D10*
X55541104Y-66144056D03*
D12*
X46651104Y-63604056D03*
X53001104Y-61064056D03*
%TD*%
D10*
%TO.C,SW38*%
X59651219Y-47124028D03*
D11*
X64731219Y-47124028D03*
D10*
X69811219Y-47124028D03*
D12*
X60921219Y-44584028D03*
X67271219Y-42044028D03*
%TD*%
D21*
%TO.C,S1*%
X243049969Y-21121028D03*
D11*
X243049969Y-36361028D03*
D21*
X266862469Y-21121028D03*
D11*
X266862469Y-36361028D03*
%TD*%
D10*
%TO.C,SW80*%
X259386219Y-28106028D03*
D11*
X264466219Y-28106028D03*
D10*
X269546219Y-28106028D03*
D12*
X260656219Y-25566028D03*
X267006219Y-23026028D03*
%TD*%
D10*
%TO.C,SW14*%
X283181219Y-4324028D03*
D11*
X288261219Y-4324028D03*
D10*
X293341219Y-4324028D03*
D12*
X284451219Y-1784028D03*
X290801219Y755972D03*
%TD*%
D10*
%TO.C,SW48*%
X254606219Y-47126028D03*
D11*
X259686219Y-47126028D03*
D10*
X264766219Y-47126028D03*
D12*
X255876219Y-44586028D03*
X262226219Y-42046028D03*
%TD*%
D10*
%TO.C,SW31*%
X240366219Y-28106028D03*
D11*
X245446219Y-28106028D03*
D10*
X250526219Y-28106028D03*
D12*
X241636219Y-25566028D03*
X247986219Y-23026028D03*
%TD*%
D10*
%TO.C,SW79*%
X252231219Y-85164028D03*
D11*
X257311219Y-85164028D03*
D10*
X262391219Y-85164028D03*
D12*
X253501219Y-82624028D03*
X259851219Y-80084028D03*
%TD*%
D10*
%TO.C,SW6*%
X116721219Y-4326028D03*
D11*
X121801219Y-4326028D03*
D10*
X126881219Y-4326028D03*
D12*
X117991219Y-1786028D03*
X124341219Y753972D03*
%TD*%
D13*
%TO.C,D91*%
X308551219Y-9400569D03*
D14*
X306011219Y-9400569D03*
%TD*%
D13*
%TO.C,D89*%
X6563719Y-71224028D03*
D14*
X4023719Y-71224028D03*
%TD*%
D10*
%TO.C,SW46*%
X211811219Y-47124028D03*
D11*
X216891219Y-47124028D03*
D10*
X221971219Y-47124028D03*
D12*
X213081219Y-44584028D03*
X219431219Y-42044028D03*
%TD*%
D22*
%TO.C,J3*%
X319781219Y-88716019D03*
D23*
X319781219Y-86176019D03*
X319781219Y-83636019D03*
%TD*%
D10*
%TO.C,SW45*%
X192791219Y-47124028D03*
D11*
X197871219Y-47124028D03*
D10*
X202951219Y-47124028D03*
D12*
X194061219Y-44584028D03*
X200411219Y-42044028D03*
%TD*%
D10*
%TO.C,SW17*%
X-6908781Y-28104028D03*
D11*
X-1828781Y-28104028D03*
D10*
X3251219Y-28104028D03*
D12*
X-5638781Y-25564028D03*
X711219Y-23024028D03*
%TD*%
D10*
%TO.C,SW54*%
X26361104Y-66144056D03*
D11*
X31441104Y-66144056D03*
D10*
X36521104Y-66144056D03*
D12*
X27631104Y-63604056D03*
X33981104Y-61064056D03*
%TD*%
D10*
%TO.C,SW2*%
X31131638Y-4330875D03*
D11*
X36211638Y-4330875D03*
D10*
X41291638Y-4330875D03*
D12*
X32401638Y-1790875D03*
X38751638Y749125D03*
%TD*%
D10*
%TO.C,SW58*%
X102441104Y-66144056D03*
D11*
X107521104Y-66144056D03*
D10*
X112601104Y-66144056D03*
D12*
X103711104Y-63604056D03*
X110061104Y-61064056D03*
%TD*%
D10*
%TO.C,SW85*%
X126242633Y-104185888D03*
D11*
X131322633Y-104185888D03*
D10*
X136402633Y-104185888D03*
D12*
X127512633Y-101645888D03*
X133862633Y-99105888D03*
%TD*%
D10*
%TO.C,SW18*%
X12111219Y-28104028D03*
D11*
X17191219Y-28104028D03*
D10*
X22271219Y-28104028D03*
D12*
X13381219Y-25564028D03*
X19731219Y-23024028D03*
%TD*%
D24*
%TO.C,C7*%
X299282104Y-69754390D03*
X299282104Y-70714390D03*
%TD*%
D25*
%TO.C,D9*%
X182036227Y-7563532D03*
X182036227Y-4263532D03*
%TD*%
%TO.C,D47*%
X262861227Y-50363532D03*
X262861227Y-47063532D03*
%TD*%
D26*
%TO.C,C10*%
X288459104Y-62360390D03*
X287499104Y-62360390D03*
%TD*%
D27*
%TO.C,D94*%
X277125226Y-3823056D03*
D28*
X277125226Y-5523056D03*
X275125226Y-5523056D03*
X275125226Y-3623056D03*
%TD*%
D29*
%TO.C,U2*%
X297712219Y-69673528D03*
X297212219Y-69673528D03*
X296712219Y-69673528D03*
X296212219Y-69673528D03*
X295712219Y-69673528D03*
X295212219Y-69673528D03*
X294712219Y-69673528D03*
X294212219Y-69673528D03*
X293712219Y-69673528D03*
X293212219Y-69673528D03*
X292712219Y-69673528D03*
X292212219Y-69673528D03*
D30*
X290799719Y-68261028D03*
X290799719Y-67761028D03*
X290799719Y-67261028D03*
X290799719Y-66761028D03*
X290799719Y-66261028D03*
X290799719Y-65761028D03*
X290799719Y-65261028D03*
X290799719Y-64761028D03*
X290799719Y-64261028D03*
X290799719Y-63761028D03*
X290799719Y-63261028D03*
X290799719Y-62761028D03*
D29*
X292212219Y-61348528D03*
X292712219Y-61348528D03*
X293212219Y-61348528D03*
X293712219Y-61348528D03*
X294212219Y-61348528D03*
X294712219Y-61348528D03*
X295212219Y-61348528D03*
X295712219Y-61348528D03*
X296212219Y-61348528D03*
X296712219Y-61348528D03*
X297212219Y-61348528D03*
X297712219Y-61348528D03*
D30*
X299124719Y-62761028D03*
X299124719Y-63261028D03*
X299124719Y-63761028D03*
X299124719Y-64261028D03*
X299124719Y-64761028D03*
X299124719Y-65261028D03*
X299124719Y-65761028D03*
X299124719Y-66261028D03*
X299124719Y-66761028D03*
X299124719Y-67261028D03*
X299124719Y-67761028D03*
X299124719Y-68261028D03*
%TD*%
D25*
%TO.C,D5*%
X96446646Y-7568379D03*
X96446646Y-4268379D03*
%TD*%
%TO.C,D45*%
X220026227Y-50361532D03*
X220026227Y-47061532D03*
%TD*%
%TO.C,D75*%
X230829104Y-88401532D03*
X230829104Y-85101532D03*
%TD*%
%TO.C,D2*%
X39386646Y-7568379D03*
X39386646Y-4268379D03*
%TD*%
%TO.C,D28*%
X210566227Y-31341532D03*
X210566227Y-28041532D03*
%TD*%
%TO.C,D12*%
X248636227Y-7561532D03*
X248636227Y-4261532D03*
%TD*%
%TO.C,D73*%
X196286227Y-88401532D03*
X196286227Y-85101532D03*
%TD*%
D31*
%TO.C,R2*%
X2481104Y-74171390D03*
X3501104Y-74171390D03*
%TD*%
D25*
%TO.C,D22*%
X96446227Y-31341532D03*
X96446227Y-28041532D03*
%TD*%
%TO.C,D78*%
X310456227Y-88401532D03*
X310456227Y-85101532D03*
%TD*%
D24*
%TO.C,C4*%
X300298104Y-69754390D03*
X300298104Y-70714390D03*
%TD*%
D25*
%TO.C,D31*%
X291436227Y-31341532D03*
X291436227Y-28041532D03*
%TD*%
%TO.C,D67*%
X82166227Y-88401532D03*
X82166227Y-85101532D03*
%TD*%
%TO.C,D4*%
X77426646Y-7568379D03*
X77426646Y-4268379D03*
%TD*%
%TO.C,D11*%
X229586227Y-7561532D03*
X229586227Y-4261532D03*
%TD*%
D32*
%TO.C,C3*%
X290646104Y-61034390D03*
X290646104Y-60074390D03*
%TD*%
D25*
%TO.C,D87*%
X291436227Y-107421532D03*
X291436227Y-104121532D03*
%TD*%
%TO.C,D44*%
X201006227Y-50361532D03*
X201006227Y-47061532D03*
%TD*%
%TO.C,D6*%
X124976227Y-7563532D03*
X124976227Y-4263532D03*
%TD*%
%TO.C,D33*%
X329476227Y-31341532D03*
X329476227Y-28041532D03*
%TD*%
%TO.C,D21*%
X77426227Y-31341532D03*
X77426227Y-28041532D03*
%TD*%
%TO.C,D16*%
X329476227Y-7561532D03*
X329476227Y-4261532D03*
%TD*%
%TO.C,D15*%
X310456227Y-7558073D03*
X310456227Y-4258073D03*
%TD*%
%TO.C,D8*%
X163016227Y-7563532D03*
X163016227Y-4263532D03*
%TD*%
%TO.C,D52*%
X34716227Y-69381532D03*
X34716227Y-66081532D03*
%TD*%
%TO.C,D66*%
X63166227Y-88401532D03*
X63166227Y-85101532D03*
%TD*%
D33*
%TO.C,C9*%
X285467104Y-62360390D03*
X286427104Y-62360390D03*
%TD*%
D25*
%TO.C,D58*%
X148736227Y-69381532D03*
X148736227Y-66081532D03*
%TD*%
%TO.C,D41*%
X143946227Y-50361532D03*
X143946227Y-47061532D03*
%TD*%
%TO.C,D42*%
X162966227Y-50361532D03*
X162966227Y-47061532D03*
%TD*%
%TO.C,D1*%
X1346227Y-7563532D03*
X1346227Y-4263532D03*
%TD*%
%TO.C,D20*%
X58406227Y-31341532D03*
X58406227Y-28041532D03*
%TD*%
%TO.C,D54*%
X72716227Y-69381532D03*
X72716227Y-66081532D03*
%TD*%
%TO.C,D19*%
X39386227Y-31341532D03*
X39386227Y-28041532D03*
%TD*%
%TO.C,D62*%
X224756227Y-69381532D03*
X224756227Y-66081532D03*
%TD*%
%TO.C,D40*%
X124926227Y-50361532D03*
X124926227Y-47061532D03*
%TD*%
%TO.C,D51*%
X8468727Y-69381532D03*
X8468727Y-66081532D03*
%TD*%
%TO.C,D3*%
X58406646Y-7568379D03*
X58406646Y-4268379D03*
%TD*%
%TO.C,D35*%
X29826227Y-50361532D03*
X29826227Y-47061532D03*
%TD*%
D34*
%TO.C,U3*%
X309171219Y-62336028D03*
X309171219Y-61386028D03*
X309171219Y-60436028D03*
X311521219Y-60436028D03*
X311521219Y-61386028D03*
X311521219Y-62336028D03*
%TD*%
D24*
%TO.C,C5*%
X293694104Y-72421390D03*
X293694104Y-73381390D03*
%TD*%
D25*
%TO.C,D50*%
X329476227Y-50361532D03*
X329476227Y-47061532D03*
%TD*%
%TO.C,D88*%
X310456227Y-107421532D03*
X310456227Y-104121532D03*
%TD*%
D11*
%TO.C,S7*%
X64647633Y-95930888D03*
D20*
X64647633Y-111170888D03*
D11*
X74172633Y-95930888D03*
D20*
X74172633Y-111170888D03*
D11*
X188472633Y-95930888D03*
D20*
X188472633Y-111170888D03*
D11*
X197997633Y-95930888D03*
D20*
X197997633Y-111170888D03*
%TD*%
D25*
%TO.C,D76*%
X264865104Y-88401532D03*
X264865104Y-85101532D03*
%TD*%
%TO.C,D10*%
X210596227Y-7561532D03*
X210596227Y-4261532D03*
%TD*%
D32*
%TO.C,C2*%
X289630104Y-61034390D03*
X289630104Y-60074390D03*
%TD*%
D25*
%TO.C,D71*%
X158286227Y-88401532D03*
X158286227Y-85101532D03*
%TD*%
%TO.C,D48*%
X291436227Y-50361532D03*
X291436227Y-47061532D03*
%TD*%
D35*
%TO.C,R1*%
X314196438Y-72584056D03*
X313176438Y-72584056D03*
%TD*%
D25*
%TO.C,D86*%
X262861227Y-107423532D03*
X262861227Y-104123532D03*
%TD*%
%TO.C,D84*%
X220026227Y-107421532D03*
X220026227Y-104121532D03*
%TD*%
%TO.C,D57*%
X129716227Y-69381532D03*
X129716227Y-66081532D03*
%TD*%
%TO.C,D36*%
X48846227Y-50361532D03*
X48846227Y-47061532D03*
%TD*%
%TO.C,D53*%
X53716227Y-69381532D03*
X53716227Y-66081532D03*
%TD*%
%TO.C,D7*%
X143996227Y-7563532D03*
X143996227Y-4263532D03*
%TD*%
%TO.C,D74*%
X215286227Y-88401532D03*
X215286227Y-85101532D03*
%TD*%
%TO.C,D25*%
X153506227Y-31341532D03*
X153506227Y-28041532D03*
%TD*%
%TO.C,D59*%
X167756227Y-69381532D03*
X167756227Y-66081532D03*
%TD*%
%TO.C,D65*%
X44166227Y-88401532D03*
X44166227Y-85101532D03*
%TD*%
D31*
%TO.C,R5*%
X317414226Y-67440390D03*
X318434226Y-67440390D03*
%TD*%
D25*
%TO.C,D68*%
X101166227Y-88401532D03*
X101166227Y-85101532D03*
%TD*%
%TO.C,D79*%
X6076227Y-107423532D03*
X6076227Y-104123532D03*
%TD*%
%TO.C,D32*%
X310456227Y-31341532D03*
X310456227Y-28041532D03*
%TD*%
%TO.C,D23*%
X115466227Y-31341532D03*
X115466227Y-28041532D03*
%TD*%
D26*
%TO.C,C11*%
X312134438Y-72584056D03*
X311174438Y-72584056D03*
%TD*%
D25*
%TO.C,D26*%
X172526227Y-31341532D03*
X172526227Y-28041532D03*
%TD*%
%TO.C,D63*%
X255676200Y-69383563D03*
X255676200Y-66083563D03*
%TD*%
%TO.C,D27*%
X191546227Y-31341532D03*
X191546227Y-28041532D03*
%TD*%
%TO.C,D72*%
X177286227Y-88401532D03*
X177286227Y-85101532D03*
%TD*%
%TO.C,D64*%
X13258727Y-88401532D03*
X13258727Y-85101532D03*
%TD*%
%TO.C,D18*%
X20366227Y-31341532D03*
X20366227Y-28041532D03*
%TD*%
D36*
%TO.C,Q1*%
X318385438Y-71062390D03*
X318385438Y-72962390D03*
X316510438Y-72012390D03*
%TD*%
D32*
%TO.C,C1*%
X300425104Y-61034390D03*
X300425104Y-60074390D03*
%TD*%
D25*
%TO.C,D56*%
X110716227Y-69381532D03*
X110716227Y-66081532D03*
%TD*%
%TO.C,D80*%
X29826227Y-107421532D03*
X29826227Y-104121532D03*
%TD*%
%TO.C,D43*%
X181986227Y-50361532D03*
X181986227Y-47061532D03*
%TD*%
%TO.C,D82*%
X134497641Y-107423392D03*
X134497641Y-104123392D03*
%TD*%
%TO.C,D55*%
X91716227Y-69381532D03*
X91716227Y-66081532D03*
%TD*%
%TO.C,D85*%
X239046227Y-107423532D03*
X239046227Y-104123532D03*
%TD*%
D33*
%TO.C,C12*%
X317444226Y-68647056D03*
X318404226Y-68647056D03*
%TD*%
D32*
%TO.C,C6*%
X299409104Y-61034390D03*
X299409104Y-60074390D03*
%TD*%
D35*
%TO.C,R3*%
X307793104Y-12259056D03*
X306773104Y-12259056D03*
%TD*%
D25*
%TO.C,D61*%
X205756227Y-69381532D03*
X205756227Y-66081532D03*
%TD*%
%TO.C,D49*%
X310456227Y-50361532D03*
X310456227Y-47061532D03*
%TD*%
%TO.C,D77*%
X267641227Y-31343532D03*
X267641227Y-28043532D03*
%TD*%
%TO.C,D81*%
X53601227Y-107421532D03*
X53601227Y-104121532D03*
%TD*%
%TO.C,D70*%
X139166227Y-88401532D03*
X139166227Y-85101532D03*
%TD*%
%TO.C,D69*%
X120166227Y-88401532D03*
X120166227Y-85101532D03*
%TD*%
D37*
%TO.C,F1*%
X272688304Y-7049056D03*
X272688304Y-9849056D03*
%TD*%
D25*
%TO.C,D46*%
X239046227Y-50361532D03*
X239046227Y-47061532D03*
%TD*%
%TO.C,D30*%
X237814104Y-31343532D03*
X237814104Y-28043532D03*
%TD*%
%TO.C,D17*%
X1346227Y-31341532D03*
X1346227Y-28041532D03*
%TD*%
%TO.C,D39*%
X105906227Y-50361532D03*
X105906227Y-47061532D03*
%TD*%
%TO.C,D13*%
X267656227Y-7561532D03*
X267656227Y-4261532D03*
%TD*%
%TO.C,D29*%
X229586227Y-31341532D03*
X229586227Y-28041532D03*
%TD*%
%TO.C,D14*%
X291436227Y-7561532D03*
X291436227Y-4261532D03*
%TD*%
%TO.C,D60*%
X186756227Y-69381532D03*
X186756227Y-66081532D03*
%TD*%
%TO.C,D93*%
X329476227Y-107421532D03*
X329476227Y-104121532D03*
%TD*%
%TO.C,D83*%
X196213727Y-107421532D03*
X196213727Y-104121532D03*
%TD*%
D35*
%TO.C,R6*%
X318434226Y-69726390D03*
X317414226Y-69726390D03*
%TD*%
D25*
%TO.C,D34*%
X6076227Y-50363532D03*
X6076227Y-47063532D03*
%TD*%
D38*
%TO.C,J1*%
X330748104Y-87404390D03*
X330748104Y-86204390D03*
X330748104Y-85004390D03*
D39*
X326973104Y-88554390D03*
X326973104Y-83854390D03*
%TD*%
D25*
%TO.C,D38*%
X86886227Y-50361532D03*
X86886227Y-47061532D03*
%TD*%
D36*
%TO.C,U1*%
X287822104Y-58997390D03*
X287822104Y-60897390D03*
X285947104Y-59947390D03*
%TD*%
D40*
%TO.C,SW95*%
X314169438Y-67064390D03*
X307869438Y-67064390D03*
X314169438Y-70864390D03*
X307869438Y-70864390D03*
%TD*%
D25*
%TO.C,D37*%
X67866227Y-50361532D03*
X67866227Y-47061532D03*
%TD*%
%TO.C,D24*%
X134486227Y-31341532D03*
X134486227Y-28041532D03*
%TD*%
D24*
%TO.C,C8*%
X292678104Y-72421390D03*
X292678104Y-73381390D03*
%TD*%
M02*
