%TF.GenerationSoftware,KiCad,Pcbnew,(7.99.0-267-g8440d7258b)*%
%TF.CreationDate,2023-05-05T14:35:45-07:00*%
%TF.ProjectId,1_2og_repro,315f326f-675f-4726-9570-726f2e6b6963,rev?*%
%TF.SameCoordinates,Original*%
%TF.FileFunction,Soldermask,Top*%
%TF.FilePolarity,Negative*%
%FSLAX46Y46*%
G04 Gerber Fmt 4.6, Leading zero omitted, Abs format (unit mm)*
G04 Created by KiCad (PCBNEW (7.99.0-267-g8440d7258b)) date 2023-05-05 14:35:45*
%MOMM*%
%LPD*%
G01*
G04 APERTURE LIST*
G04 Aperture macros list*
%AMRoundRect*
0 Rectangle with rounded corners*
0 $1 Rounding radius*
0 $2 $3 $4 $5 $6 $7 $8 $9 X,Y pos of 4 corners*
0 Add a 4 corners polygon primitive as box body*
4,1,4,$2,$3,$4,$5,$6,$7,$8,$9,$2,$3,0*
0 Add four circle primitives for the rounded corners*
1,1,$1+$1,$2,$3*
1,1,$1+$1,$4,$5*
1,1,$1+$1,$6,$7*
1,1,$1+$1,$8,$9*
0 Add four rect primitives between the rounded corners*
20,1,$1+$1,$2,$3,$4,$5,0*
20,1,$1+$1,$4,$5,$6,$7,0*
20,1,$1+$1,$6,$7,$8,$9,0*
20,1,$1+$1,$8,$9,$2,$3,0*%
G04 Aperture macros list end*
%ADD10C,3.987800*%
%ADD11C,1.750000*%
%ADD12RoundRect,0.650000X0.650000X0.650000X-0.650000X0.650000X-0.650000X-0.650000X0.650000X-0.650000X0*%
%ADD13C,2.600000*%
%ADD14C,3.048000*%
%ADD15C,6.400000*%
%ADD16RoundRect,0.250000X0.625000X-0.350000X0.625000X0.350000X-0.625000X0.350000X-0.625000X-0.350000X0*%
%ADD17O,1.750000X1.200000*%
%ADD18R,0.500000X2.250000*%
%ADD19O,1.700000X2.700000*%
%ADD20R,1.700000X1.700000*%
%ADD21O,1.700000X1.700000*%
G04 APERTURE END LIST*
D10*
%TO.C,S2*%
X283047365Y-110689638D03*
X259234865Y-110689638D03*
%TD*%
D11*
%TO.C,SW71*%
X135336115Y-102434638D03*
D10*
X140416115Y-102434638D03*
D11*
X145496115Y-102434638D03*
%TD*%
%TO.C,SW12*%
X263806115Y-21594638D03*
D10*
X268886115Y-21594638D03*
D11*
X273966115Y-21594638D03*
%TD*%
%TO.C,SW26*%
X187696115Y-45374638D03*
D10*
X192776115Y-45374638D03*
D11*
X197856115Y-45374638D03*
%TD*%
%TO.C,SW76*%
X230336115Y-102434638D03*
D10*
X235416115Y-102434638D03*
D11*
X240496115Y-102434638D03*
%TD*%
%TO.C,SW21*%
X92596115Y-45374638D03*
D10*
X97676115Y-45374638D03*
D11*
X102756115Y-45374638D03*
%TD*%
%TO.C,SW24*%
X149656115Y-45374638D03*
D10*
X154736115Y-45374638D03*
D11*
X159816115Y-45374638D03*
%TD*%
%TO.C,SW25*%
X168676115Y-45374638D03*
D10*
X173756115Y-45374638D03*
D11*
X178836115Y-45374638D03*
%TD*%
%TO.C,SW60*%
X163906115Y-83414638D03*
D10*
X168986115Y-83414638D03*
D11*
X174066115Y-83414638D03*
%TD*%
%TO.C,SW83*%
X45008615Y-121454638D03*
D10*
X50088615Y-121454638D03*
D11*
X55168615Y-121454638D03*
%TD*%
%TO.C,SW74*%
X192336115Y-102434638D03*
D10*
X197416115Y-102434638D03*
D11*
X202496115Y-102434638D03*
%TD*%
%TO.C,SW9*%
X197206115Y-21594638D03*
D10*
X202286115Y-21594638D03*
D11*
X207366115Y-21594638D03*
%TD*%
%TO.C,SW32*%
X306606115Y-45374638D03*
D10*
X311686115Y-45374638D03*
D11*
X316766115Y-45374638D03*
%TD*%
%TO.C,SW53*%
X23638615Y-83414638D03*
D10*
X28718615Y-83414638D03*
D11*
X33798615Y-83414638D03*
%TD*%
%TO.C,SW90*%
X325626115Y-121454638D03*
D10*
X330706115Y-121454638D03*
D11*
X335786115Y-121454638D03*
%TD*%
%TO.C,SW65*%
X270846088Y-83414669D03*
D10*
X275926088Y-83414669D03*
D11*
X281006088Y-83414669D03*
%TD*%
%TO.C,SW84*%
X68711115Y-121454638D03*
D10*
X73791115Y-121454638D03*
D11*
X78871115Y-121454638D03*
%TD*%
%TO.C,SW39*%
X102056115Y-64394638D03*
D10*
X107136115Y-64394638D03*
D11*
X112216115Y-64394638D03*
%TD*%
%TO.C,SW86*%
X230631115Y-121454638D03*
D10*
X235711115Y-121454638D03*
D11*
X240791115Y-121454638D03*
%TD*%
%TO.C,SW63*%
X220926115Y-83414638D03*
D10*
X226006115Y-83414638D03*
D11*
X231086115Y-83414638D03*
%TD*%
%TO.C,SW35*%
X21246115Y-64394638D03*
D10*
X26326115Y-64394638D03*
D11*
X31406115Y-64394638D03*
%TD*%
%TO.C,SW15*%
X325626115Y-21591179D03*
D10*
X330706115Y-21591179D03*
D11*
X335786115Y-21591179D03*
%TD*%
D12*
%TO.C,JP1*%
X139192000Y-121451498D03*
D13*
X134112000Y-121451498D03*
%TD*%
D11*
%TO.C,SW47*%
X254216115Y-64394638D03*
D10*
X259296115Y-64394638D03*
D11*
X264376115Y-64394638D03*
%TD*%
D14*
%TO.C,S4*%
X21589865Y-95449638D03*
D10*
X21589865Y-110689638D03*
D14*
X45402365Y-95449638D03*
D10*
X45402365Y-110689638D03*
%TD*%
D11*
%TO.C,SW41*%
X140096115Y-64394638D03*
D10*
X145176115Y-64394638D03*
D11*
X150256115Y-64394638D03*
%TD*%
%TO.C,SW62*%
X201926115Y-83414638D03*
D10*
X207006115Y-83414638D03*
D11*
X212086115Y-83414638D03*
%TD*%
%TO.C,SW89*%
X306606115Y-121454638D03*
D10*
X311686115Y-121454638D03*
D11*
X316766115Y-121454638D03*
%TD*%
%TO.C,SW49*%
X306606115Y-64394638D03*
D10*
X311686115Y-64394638D03*
D11*
X316766115Y-64394638D03*
%TD*%
%TO.C,SW28*%
X225736115Y-45374638D03*
D10*
X230816115Y-45374638D03*
D11*
X235896115Y-45374638D03*
%TD*%
%TO.C,SW10*%
X225736115Y-21594638D03*
D10*
X230816115Y-21594638D03*
D11*
X235896115Y-21594638D03*
%TD*%
%TO.C,SW1*%
X16516115Y-21594638D03*
D10*
X21596115Y-21594638D03*
D11*
X26676115Y-21594638D03*
%TD*%
%TO.C,SW70*%
X116336115Y-102434638D03*
D10*
X121416115Y-102434638D03*
D11*
X126496115Y-102434638D03*
%TD*%
%TO.C,SW13*%
X282826115Y-21594638D03*
D10*
X287906115Y-21594638D03*
D11*
X292986115Y-21594638D03*
%TD*%
%TO.C,SW87*%
X254358615Y-121454638D03*
D10*
X259438615Y-121454638D03*
D11*
X264518615Y-121454638D03*
%TD*%
%TO.C,SW11*%
X244756115Y-21594638D03*
D10*
X249836115Y-21594638D03*
D11*
X254916115Y-21594638D03*
%TD*%
%TO.C,SW27*%
X206716115Y-45374638D03*
D10*
X211796115Y-45374638D03*
D11*
X216876115Y-45374638D03*
%TD*%
%TO.C,SW37*%
X64016115Y-64394638D03*
D10*
X69096115Y-64394638D03*
D11*
X74176115Y-64394638D03*
%TD*%
%TO.C,SW5*%
X111616534Y-21599485D03*
D10*
X116696534Y-21599485D03*
D11*
X121776534Y-21599485D03*
%TD*%
D15*
%TO.C,H1*%
X301009027Y-77392443D03*
%TD*%
D11*
%TO.C,SW4*%
X92596534Y-21599485D03*
D10*
X97676534Y-21599485D03*
D11*
X102756534Y-21599485D03*
%TD*%
%TO.C,SW23*%
X130636115Y-45374638D03*
D10*
X135716115Y-45374638D03*
D11*
X140796115Y-45374638D03*
%TD*%
%TO.C,SW42*%
X159116115Y-64394638D03*
D10*
X164196115Y-64394638D03*
D11*
X169276115Y-64394638D03*
%TD*%
%TO.C,SW91*%
X344646115Y-121454638D03*
D10*
X349726115Y-121454638D03*
D11*
X354806115Y-121454638D03*
%TD*%
%TO.C,SW22*%
X111616115Y-45374638D03*
D10*
X116696115Y-45374638D03*
D11*
X121776115Y-45374638D03*
%TD*%
%TO.C,SW64*%
X239926115Y-83414638D03*
D10*
X245006115Y-83414638D03*
D11*
X250086115Y-83414638D03*
%TD*%
%TO.C,SW81*%
X325626115Y-102434638D03*
D10*
X330706115Y-102434638D03*
D11*
X335786115Y-102434638D03*
%TD*%
%TO.C,SW52*%
X18876115Y-83414638D03*
D10*
X23956115Y-83414638D03*
D11*
X29036115Y-83414638D03*
%TD*%
%TO.C,SW30*%
X273301115Y-45374638D03*
D10*
X278381115Y-45374638D03*
D11*
X283461115Y-45374638D03*
%TD*%
D16*
%TO.C,J4*%
X347689000Y-105505000D03*
D17*
X347688999Y-103504999D03*
X347688999Y-101504999D03*
%TD*%
D11*
%TO.C,SW51*%
X344646115Y-64394638D03*
D10*
X349726115Y-64394638D03*
D11*
X354806115Y-64394638D03*
%TD*%
%TO.C,SW34*%
X344646115Y-45374638D03*
D10*
X349726115Y-45374638D03*
D11*
X354806115Y-45374638D03*
%TD*%
%TO.C,SW66*%
X28416115Y-102434638D03*
D10*
X33496115Y-102434638D03*
D11*
X38576115Y-102434638D03*
%TD*%
%TO.C,SW8*%
X178186115Y-21594638D03*
D10*
X183266115Y-21594638D03*
D11*
X188346115Y-21594638D03*
%TD*%
%TO.C,SW36*%
X44996115Y-64394638D03*
D10*
X50076115Y-64394638D03*
D11*
X55156115Y-64394638D03*
%TD*%
%TO.C,SW68*%
X78336115Y-102434638D03*
D10*
X83416115Y-102434638D03*
D11*
X88496115Y-102434638D03*
%TD*%
%TO.C,SW19*%
X54556115Y-45374638D03*
D10*
X59636115Y-45374638D03*
D11*
X64716115Y-45374638D03*
%TD*%
%TO.C,SW73*%
X173336115Y-102434638D03*
D10*
X178416115Y-102434638D03*
D11*
X183496115Y-102434638D03*
%TD*%
%TO.C,SW78*%
X266061115Y-102434638D03*
D10*
X271141115Y-102434638D03*
D11*
X276221115Y-102434638D03*
%TD*%
%TO.C,SW61*%
X182926115Y-83414638D03*
D10*
X188006115Y-83414638D03*
D11*
X193086115Y-83414638D03*
%TD*%
%TO.C,SW43*%
X178136115Y-64394638D03*
D10*
X183216115Y-64394638D03*
D11*
X188296115Y-64394638D03*
%TD*%
%TO.C,SW33*%
X325626115Y-45374638D03*
D10*
X330706115Y-45374638D03*
D11*
X335786115Y-45374638D03*
%TD*%
%TO.C,SW88*%
X278076115Y-121454638D03*
D10*
X283156115Y-121454638D03*
D11*
X288236115Y-121454638D03*
%TD*%
D18*
%TO.C,J2*%
X298196114Y-17349999D03*
X298996114Y-17349999D03*
X299796114Y-17349999D03*
X300596114Y-17349999D03*
X301396114Y-17349999D03*
D19*
X303446114Y-12849999D03*
X296146114Y-12849999D03*
X303446114Y-17349999D03*
X296146114Y-17349999D03*
%TD*%
D11*
%TO.C,SW56*%
X87886115Y-83414638D03*
D10*
X92966115Y-83414638D03*
D11*
X98046115Y-83414638D03*
%TD*%
D14*
%TO.C,S5*%
X211897529Y-128436498D03*
D10*
X211897529Y-113196498D03*
D14*
X97597529Y-128436498D03*
D10*
X97597529Y-113196498D03*
%TD*%
D11*
%TO.C,SW40*%
X121076115Y-64394638D03*
D10*
X126156115Y-64394638D03*
D11*
X131236115Y-64394638D03*
%TD*%
%TO.C,SW20*%
X73576115Y-45374638D03*
D10*
X78656115Y-45374638D03*
D11*
X83736115Y-45374638D03*
%TD*%
%TO.C,SW69*%
X97336115Y-102434638D03*
D10*
X102416115Y-102434638D03*
D11*
X107496115Y-102434638D03*
%TD*%
%TO.C,SW16*%
X344646115Y-21594638D03*
D10*
X349726115Y-21594638D03*
D11*
X354806115Y-21594638D03*
%TD*%
%TO.C,SW7*%
X159166115Y-21594638D03*
D10*
X164246115Y-21594638D03*
D11*
X169326115Y-21594638D03*
%TD*%
%TO.C,SW67*%
X59336115Y-102434638D03*
D10*
X64416115Y-102434638D03*
D11*
X69496115Y-102434638D03*
%TD*%
%TO.C,SW50*%
X325626115Y-64394638D03*
D10*
X330706115Y-64394638D03*
D11*
X335786115Y-64394638D03*
%TD*%
%TO.C,SW72*%
X154336115Y-102434638D03*
D10*
X159416115Y-102434638D03*
D11*
X164496115Y-102434638D03*
%TD*%
%TO.C,SW3*%
X73576534Y-21599485D03*
D10*
X78656534Y-21599485D03*
D11*
X83736534Y-21599485D03*
%TD*%
%TO.C,SW57*%
X106886115Y-83414638D03*
D10*
X111966115Y-83414638D03*
D11*
X117046115Y-83414638D03*
%TD*%
D14*
%TO.C,S3*%
X287832338Y-90399669D03*
D10*
X287832338Y-75159669D03*
D14*
X264019838Y-90399669D03*
D10*
X264019838Y-75159669D03*
%TD*%
D15*
%TO.C,H2*%
X355726066Y-89414572D03*
%TD*%
D11*
%TO.C,SW77*%
X256551115Y-102434638D03*
D10*
X261631115Y-102434638D03*
D11*
X266711115Y-102434638D03*
%TD*%
%TO.C,SW59*%
X144886115Y-83414638D03*
D10*
X149966115Y-83414638D03*
D11*
X155046115Y-83414638D03*
%TD*%
%TO.C,SW44*%
X197156115Y-64394638D03*
D10*
X202236115Y-64394638D03*
D11*
X207316115Y-64394638D03*
%TD*%
%TO.C,SW29*%
X244756115Y-45374638D03*
D10*
X249836115Y-45374638D03*
D11*
X254916115Y-45374638D03*
%TD*%
%TO.C,SW82*%
X21266115Y-121454638D03*
D10*
X26346115Y-121454638D03*
D11*
X31426115Y-121454638D03*
%TD*%
%TO.C,SW75*%
X211336115Y-102434638D03*
D10*
X216416115Y-102434638D03*
D11*
X221496115Y-102434638D03*
%TD*%
%TO.C,SW55*%
X68886115Y-83414638D03*
D10*
X73966115Y-83414638D03*
D11*
X79046115Y-83414638D03*
%TD*%
%TO.C,SW38*%
X83036115Y-64394638D03*
D10*
X88116115Y-64394638D03*
D11*
X93196115Y-64394638D03*
%TD*%
%TO.C,SW80*%
X282811115Y-45374638D03*
D10*
X287891115Y-45374638D03*
D11*
X292971115Y-45374638D03*
%TD*%
%TO.C,SW14*%
X306606115Y-21594638D03*
D10*
X311686115Y-21594638D03*
D11*
X316766115Y-21594638D03*
%TD*%
%TO.C,SW48*%
X278031115Y-64394638D03*
D10*
X283111115Y-64394638D03*
D11*
X288191115Y-64394638D03*
%TD*%
%TO.C,SW31*%
X263791115Y-45374638D03*
D10*
X268871115Y-45374638D03*
D11*
X273951115Y-45374638D03*
%TD*%
%TO.C,SW79*%
X275571115Y-102434638D03*
D10*
X280651115Y-102434638D03*
D11*
X285731115Y-102434638D03*
%TD*%
%TO.C,SW6*%
X140146115Y-21594638D03*
D10*
X145226115Y-21594638D03*
D11*
X150306115Y-21594638D03*
%TD*%
D10*
%TO.C,S1*%
X266474865Y-53629638D03*
X290287365Y-53629638D03*
%TD*%
D11*
%TO.C,SW46*%
X235196115Y-64394638D03*
D10*
X240276115Y-64394638D03*
D11*
X245356115Y-64394638D03*
%TD*%
D20*
%TO.C,J3*%
X343206114Y-105984628D03*
D21*
X343206114Y-103444628D03*
X343206114Y-100904628D03*
%TD*%
D11*
%TO.C,SW45*%
X216176115Y-64394638D03*
D10*
X221256115Y-64394638D03*
D11*
X226336115Y-64394638D03*
%TD*%
%TO.C,SW17*%
X16516115Y-45374638D03*
D10*
X21596115Y-45374638D03*
D11*
X26676115Y-45374638D03*
%TD*%
%TO.C,SW54*%
X49886115Y-83414638D03*
D10*
X54966115Y-83414638D03*
D11*
X60046115Y-83414638D03*
%TD*%
%TO.C,SW2*%
X54556534Y-21599485D03*
D10*
X59636534Y-21599485D03*
D11*
X64716534Y-21599485D03*
%TD*%
%TO.C,SW58*%
X125886115Y-83414638D03*
D10*
X130966115Y-83414638D03*
D11*
X136046115Y-83414638D03*
%TD*%
%TO.C,SW85*%
X149667529Y-121451498D03*
D10*
X154747529Y-121451498D03*
D11*
X159827529Y-121451498D03*
%TD*%
%TO.C,SW18*%
X35536115Y-45374638D03*
D10*
X40616115Y-45374638D03*
D11*
X45696115Y-45374638D03*
%TD*%
M02*
