%TF.GenerationSoftware,KiCad,Pcbnew,(7.99.0-267-g8440d7258b)*%
%TF.CreationDate,2023-07-07T22:01:13-07:00*%
%TF.ProjectId,1_2og_repro,315f326f-675f-4726-9570-726f2e6b6963,rev?*%
%TF.SameCoordinates,Original*%
%TF.FileFunction,Paste,Bot*%
%TF.FilePolarity,Positive*%
%FSLAX46Y46*%
G04 Gerber Fmt 4.6, Leading zero omitted, Abs format (unit mm)*
G04 Created by KiCad (PCBNEW (7.99.0-267-g8440d7258b)) date 2023-07-07 22:01:13*
%MOMM*%
%LPD*%
G01*
G04 APERTURE LIST*
G04 Aperture macros list*
%AMRoundRect*
0 Rectangle with rounded corners*
0 $1 Rounding radius*
0 $2 $3 $4 $5 $6 $7 $8 $9 X,Y pos of 4 corners*
0 Add a 4 corners polygon primitive as box body*
4,1,4,$2,$3,$4,$5,$6,$7,$8,$9,$2,$3,0*
0 Add four circle primitives for the rounded corners*
1,1,$1+$1,$2,$3*
1,1,$1+$1,$4,$5*
1,1,$1+$1,$6,$7*
1,1,$1+$1,$8,$9*
0 Add four rect primitives between the rounded corners*
20,1,$1+$1,$2,$3,$4,$5,0*
20,1,$1+$1,$4,$5,$6,$7,0*
20,1,$1+$1,$6,$7,$8,$9,0*
20,1,$1+$1,$8,$9,$2,$3,0*%
G04 Aperture macros list end*
%ADD10RoundRect,0.140000X-0.170000X0.140000X-0.170000X-0.140000X0.170000X-0.140000X0.170000X0.140000X0*%
%ADD11RoundRect,0.225000X0.375000X-0.225000X0.375000X0.225000X-0.375000X0.225000X-0.375000X-0.225000X0*%
%ADD12RoundRect,0.140000X0.140000X0.170000X-0.140000X0.170000X-0.140000X-0.170000X0.140000X-0.170000X0*%
%ADD13RoundRect,0.075000X0.075000X-0.662500X0.075000X0.662500X-0.075000X0.662500X-0.075000X-0.662500X0*%
%ADD14RoundRect,0.075000X0.662500X-0.075000X0.662500X0.075000X-0.662500X0.075000X-0.662500X-0.075000X0*%
%ADD15RoundRect,0.135000X0.135000X0.185000X-0.135000X0.185000X-0.135000X-0.185000X0.135000X-0.185000X0*%
%ADD16RoundRect,0.140000X0.170000X-0.140000X0.170000X0.140000X-0.170000X0.140000X-0.170000X-0.140000X0*%
%ADD17RoundRect,0.150000X0.475000X0.150000X-0.475000X0.150000X-0.475000X-0.150000X0.475000X-0.150000X0*%
%ADD18RoundRect,0.140000X-0.140000X-0.170000X0.140000X-0.170000X0.140000X0.170000X-0.140000X0.170000X0*%
%ADD19RoundRect,0.150000X-0.512500X-0.150000X0.512500X-0.150000X0.512500X0.150000X-0.512500X0.150000X0*%
%ADD20RoundRect,0.150000X0.587500X0.150000X-0.587500X0.150000X-0.587500X-0.150000X0.587500X-0.150000X0*%
%ADD21RoundRect,0.250000X-0.625000X0.375000X-0.625000X-0.375000X0.625000X-0.375000X0.625000X0.375000X0*%
%ADD22RoundRect,0.135000X-0.135000X-0.185000X0.135000X-0.185000X0.135000X0.185000X-0.135000X0.185000X0*%
%ADD23RoundRect,0.150000X0.275000X-0.150000X0.275000X0.150000X-0.275000X0.150000X-0.275000X-0.150000X0*%
%ADD24RoundRect,0.175000X0.225000X-0.175000X0.225000X0.175000X-0.225000X0.175000X-0.225000X-0.175000X0*%
%ADD25R,1.700000X1.000000*%
G04 APERTURE END LIST*
D10*
%TO.C,C7*%
X324939666Y-88102334D03*
X324939666Y-89062334D03*
%TD*%
D11*
%TO.C,D9*%
X207693789Y-25911476D03*
X207693789Y-22611476D03*
%TD*%
%TO.C,D47*%
X288518789Y-68711476D03*
X288518789Y-65411476D03*
%TD*%
D12*
%TO.C,C10*%
X314116666Y-80708334D03*
X313156666Y-80708334D03*
%TD*%
D13*
%TO.C,U2*%
X323369781Y-88021472D03*
X322869781Y-88021472D03*
X322369781Y-88021472D03*
X321869781Y-88021472D03*
X321369781Y-88021472D03*
X320869781Y-88021472D03*
X320369781Y-88021472D03*
X319869781Y-88021472D03*
X319369781Y-88021472D03*
X318869781Y-88021472D03*
X318369781Y-88021472D03*
X317869781Y-88021472D03*
D14*
X316457281Y-86608972D03*
X316457281Y-86108972D03*
X316457281Y-85608972D03*
X316457281Y-85108972D03*
X316457281Y-84608972D03*
X316457281Y-84108972D03*
X316457281Y-83608972D03*
X316457281Y-83108972D03*
X316457281Y-82608972D03*
X316457281Y-82108972D03*
X316457281Y-81608972D03*
X316457281Y-81108972D03*
D13*
X317869781Y-79696472D03*
X318369781Y-79696472D03*
X318869781Y-79696472D03*
X319369781Y-79696472D03*
X319869781Y-79696472D03*
X320369781Y-79696472D03*
X320869781Y-79696472D03*
X321369781Y-79696472D03*
X321869781Y-79696472D03*
X322369781Y-79696472D03*
X322869781Y-79696472D03*
X323369781Y-79696472D03*
D14*
X324782281Y-81108972D03*
X324782281Y-81608972D03*
X324782281Y-82108972D03*
X324782281Y-82608972D03*
X324782281Y-83108972D03*
X324782281Y-83608972D03*
X324782281Y-84108972D03*
X324782281Y-84608972D03*
X324782281Y-85108972D03*
X324782281Y-85608972D03*
X324782281Y-86108972D03*
X324782281Y-86608972D03*
%TD*%
D11*
%TO.C,D5*%
X122104208Y-25916323D03*
X122104208Y-22616323D03*
%TD*%
%TO.C,D45*%
X245683789Y-68709476D03*
X245683789Y-65409476D03*
%TD*%
%TO.C,D75*%
X256486666Y-106749476D03*
X256486666Y-103449476D03*
%TD*%
%TO.C,D2*%
X65044208Y-25916323D03*
X65044208Y-22616323D03*
%TD*%
%TO.C,D28*%
X236223789Y-49689476D03*
X236223789Y-46389476D03*
%TD*%
%TO.C,D12*%
X274293789Y-25909476D03*
X274293789Y-22609476D03*
%TD*%
%TO.C,D73*%
X221943789Y-106749476D03*
X221943789Y-103449476D03*
%TD*%
D15*
%TO.C,R2*%
X29158666Y-92519334D03*
X28138666Y-92519334D03*
%TD*%
D11*
%TO.C,D22*%
X122103789Y-49689476D03*
X122103789Y-46389476D03*
%TD*%
%TO.C,D78*%
X336113789Y-106749476D03*
X336113789Y-103449476D03*
%TD*%
D10*
%TO.C,C4*%
X325955666Y-88102334D03*
X325955666Y-89062334D03*
%TD*%
D11*
%TO.C,D31*%
X317093789Y-49689476D03*
X317093789Y-46389476D03*
%TD*%
%TO.C,D67*%
X107823789Y-106749476D03*
X107823789Y-103449476D03*
%TD*%
%TO.C,D4*%
X103084208Y-25916323D03*
X103084208Y-22616323D03*
%TD*%
%TO.C,D11*%
X255243789Y-25909476D03*
X255243789Y-22609476D03*
%TD*%
D16*
%TO.C,C3*%
X316303666Y-79382334D03*
X316303666Y-78422334D03*
%TD*%
D11*
%TO.C,D87*%
X317093789Y-125769476D03*
X317093789Y-122469476D03*
%TD*%
%TO.C,D44*%
X226663789Y-68709476D03*
X226663789Y-65409476D03*
%TD*%
%TO.C,D6*%
X150633789Y-25911476D03*
X150633789Y-22611476D03*
%TD*%
%TO.C,D33*%
X355133789Y-49689476D03*
X355133789Y-46389476D03*
%TD*%
D17*
%TO.C,U3*%
X303000666Y-23434000D03*
X303000666Y-24384000D03*
X303000666Y-25334000D03*
X300650666Y-25334000D03*
X300650666Y-24384000D03*
X300650666Y-23434000D03*
%TD*%
D11*
%TO.C,D21*%
X103083789Y-49689476D03*
X103083789Y-46389476D03*
%TD*%
%TO.C,D16*%
X355133789Y-25909476D03*
X355133789Y-22609476D03*
%TD*%
%TO.C,D15*%
X336113789Y-25906017D03*
X336113789Y-22606017D03*
%TD*%
%TO.C,D8*%
X188673789Y-25911476D03*
X188673789Y-22611476D03*
%TD*%
%TO.C,D52*%
X60373789Y-87729476D03*
X60373789Y-84429476D03*
%TD*%
%TO.C,D66*%
X88823789Y-106749476D03*
X88823789Y-103449476D03*
%TD*%
D18*
%TO.C,C9*%
X311124666Y-80708334D03*
X312084666Y-80708334D03*
%TD*%
D11*
%TO.C,D58*%
X174393789Y-87729476D03*
X174393789Y-84429476D03*
%TD*%
%TO.C,D41*%
X169603789Y-68709476D03*
X169603789Y-65409476D03*
%TD*%
%TO.C,D42*%
X188623789Y-68709476D03*
X188623789Y-65409476D03*
%TD*%
%TO.C,D1*%
X27003789Y-25911476D03*
X27003789Y-22611476D03*
%TD*%
%TO.C,D20*%
X84063789Y-49689476D03*
X84063789Y-46389476D03*
%TD*%
%TO.C,D54*%
X98373789Y-87729476D03*
X98373789Y-84429476D03*
%TD*%
%TO.C,D19*%
X65043789Y-49689476D03*
X65043789Y-46389476D03*
%TD*%
%TO.C,D62*%
X250413789Y-87729476D03*
X250413789Y-84429476D03*
%TD*%
%TO.C,D40*%
X150583789Y-68709476D03*
X150583789Y-65409476D03*
%TD*%
%TO.C,D51*%
X34126289Y-87729476D03*
X34126289Y-84429476D03*
%TD*%
%TO.C,D3*%
X84064208Y-25916323D03*
X84064208Y-22616323D03*
%TD*%
%TO.C,D35*%
X55483789Y-68709476D03*
X55483789Y-65409476D03*
%TD*%
D10*
%TO.C,C5*%
X319351666Y-90769334D03*
X319351666Y-91729334D03*
%TD*%
D11*
%TO.C,D50*%
X355133789Y-68709476D03*
X355133789Y-65409476D03*
%TD*%
%TO.C,D88*%
X336113789Y-125769476D03*
X336113789Y-122469476D03*
%TD*%
%TO.C,D76*%
X290522666Y-106749476D03*
X290522666Y-103449476D03*
%TD*%
%TO.C,D10*%
X236253789Y-25909476D03*
X236253789Y-22609476D03*
%TD*%
D16*
%TO.C,C2*%
X315287666Y-79382334D03*
X315287666Y-78422334D03*
%TD*%
D11*
%TO.C,D71*%
X183943789Y-106749476D03*
X183943789Y-103449476D03*
%TD*%
%TO.C,D48*%
X317093789Y-68709476D03*
X317093789Y-65409476D03*
%TD*%
D19*
%TO.C,U4*%
X340721166Y-107185334D03*
X340721166Y-106235334D03*
X340721166Y-105285334D03*
X342996166Y-105285334D03*
X342996166Y-107185334D03*
%TD*%
D15*
%TO.C,R1*%
X339854000Y-90932000D03*
X338834000Y-90932000D03*
%TD*%
D11*
%TO.C,D86*%
X288518789Y-125771476D03*
X288518789Y-122471476D03*
%TD*%
%TO.C,D84*%
X245683789Y-125769476D03*
X245683789Y-122469476D03*
%TD*%
%TO.C,D57*%
X155373789Y-87729476D03*
X155373789Y-84429476D03*
%TD*%
%TO.C,D36*%
X74503789Y-68709476D03*
X74503789Y-65409476D03*
%TD*%
%TO.C,D53*%
X79373789Y-87729476D03*
X79373789Y-84429476D03*
%TD*%
%TO.C,D7*%
X169653789Y-25911476D03*
X169653789Y-22611476D03*
%TD*%
%TO.C,D74*%
X240943789Y-106749476D03*
X240943789Y-103449476D03*
%TD*%
%TO.C,D25*%
X179163789Y-49689476D03*
X179163789Y-46389476D03*
%TD*%
%TO.C,D59*%
X193413789Y-87729476D03*
X193413789Y-84429476D03*
%TD*%
%TO.C,D65*%
X69823789Y-106749476D03*
X69823789Y-103449476D03*
%TD*%
D15*
%TO.C,R5*%
X345093000Y-85788334D03*
X344073000Y-85788334D03*
%TD*%
D11*
%TO.C,D68*%
X126823789Y-106749476D03*
X126823789Y-103449476D03*
%TD*%
%TO.C,D79*%
X31733789Y-125771476D03*
X31733789Y-122471476D03*
%TD*%
%TO.C,D32*%
X336113789Y-49689476D03*
X336113789Y-46389476D03*
%TD*%
D12*
%TO.C,C13*%
X343072666Y-108521334D03*
X342112666Y-108521334D03*
%TD*%
D11*
%TO.C,D23*%
X141123789Y-49689476D03*
X141123789Y-46389476D03*
%TD*%
D12*
%TO.C,C11*%
X337792000Y-90932000D03*
X336832000Y-90932000D03*
%TD*%
D11*
%TO.C,D26*%
X198183789Y-49689476D03*
X198183789Y-46389476D03*
%TD*%
%TO.C,D63*%
X281333762Y-87731507D03*
X281333762Y-84431507D03*
%TD*%
%TO.C,D27*%
X217203789Y-49689476D03*
X217203789Y-46389476D03*
%TD*%
%TO.C,D72*%
X202943789Y-106749476D03*
X202943789Y-103449476D03*
%TD*%
%TO.C,D64*%
X38916289Y-106749476D03*
X38916289Y-103449476D03*
%TD*%
%TO.C,D18*%
X46023789Y-49689476D03*
X46023789Y-46389476D03*
%TD*%
D20*
%TO.C,Q1*%
X344043000Y-89410334D03*
X344043000Y-91310334D03*
X342168000Y-90360334D03*
%TD*%
D16*
%TO.C,C1*%
X326082666Y-79382334D03*
X326082666Y-78422334D03*
%TD*%
D11*
%TO.C,D56*%
X136373789Y-87729476D03*
X136373789Y-84429476D03*
%TD*%
%TO.C,D80*%
X55483789Y-125769476D03*
X55483789Y-122469476D03*
%TD*%
%TO.C,D43*%
X207643789Y-68709476D03*
X207643789Y-65409476D03*
%TD*%
%TO.C,D82*%
X160155203Y-125771336D03*
X160155203Y-122471336D03*
%TD*%
%TO.C,D55*%
X117373789Y-87729476D03*
X117373789Y-84429476D03*
%TD*%
%TO.C,D85*%
X264703789Y-125771476D03*
X264703789Y-122471476D03*
%TD*%
D12*
%TO.C,C12*%
X345063000Y-86931334D03*
X344103000Y-86931334D03*
%TD*%
D16*
%TO.C,C6*%
X325066666Y-79382334D03*
X325066666Y-78422334D03*
%TD*%
D15*
%TO.C,R3*%
X333450666Y-30607000D03*
X332430666Y-30607000D03*
%TD*%
D11*
%TO.C,D61*%
X231413789Y-87729476D03*
X231413789Y-84429476D03*
%TD*%
%TO.C,D49*%
X336113789Y-68709476D03*
X336113789Y-65409476D03*
%TD*%
%TO.C,D77*%
X293298789Y-49691476D03*
X293298789Y-46391476D03*
%TD*%
%TO.C,D81*%
X79258789Y-125769476D03*
X79258789Y-122469476D03*
%TD*%
%TO.C,D70*%
X164823789Y-106749476D03*
X164823789Y-103449476D03*
%TD*%
%TO.C,D69*%
X145823789Y-106749476D03*
X145823789Y-103449476D03*
%TD*%
D21*
%TO.C,F1*%
X298345866Y-28197000D03*
X298345866Y-25397000D03*
%TD*%
D11*
%TO.C,D46*%
X264703789Y-68709476D03*
X264703789Y-65409476D03*
%TD*%
%TO.C,D30*%
X263471666Y-49691476D03*
X263471666Y-46391476D03*
%TD*%
%TO.C,D17*%
X27003789Y-49689476D03*
X27003789Y-46389476D03*
%TD*%
%TO.C,D39*%
X131563789Y-68709476D03*
X131563789Y-65409476D03*
%TD*%
%TO.C,D13*%
X293313789Y-25909476D03*
X293313789Y-22609476D03*
%TD*%
%TO.C,D29*%
X255243789Y-49689476D03*
X255243789Y-46389476D03*
%TD*%
%TO.C,D14*%
X317093789Y-25909476D03*
X317093789Y-22609476D03*
%TD*%
%TO.C,D60*%
X212413789Y-87729476D03*
X212413789Y-84429476D03*
%TD*%
%TO.C,D93*%
X355133789Y-125769476D03*
X355133789Y-122469476D03*
%TD*%
%TO.C,D83*%
X221871289Y-125769476D03*
X221871289Y-122469476D03*
%TD*%
D22*
%TO.C,R6*%
X344073000Y-88074334D03*
X345093000Y-88074334D03*
%TD*%
D11*
%TO.C,D34*%
X31733789Y-68711476D03*
X31733789Y-65411476D03*
%TD*%
D23*
%TO.C,J1*%
X356405666Y-105752334D03*
X356405666Y-104552334D03*
X356405666Y-103352334D03*
D24*
X352630666Y-106902334D03*
X352630666Y-102202334D03*
%TD*%
D11*
%TO.C,D38*%
X112543789Y-68709476D03*
X112543789Y-65409476D03*
%TD*%
D20*
%TO.C,U1*%
X313479666Y-77345334D03*
X313479666Y-79245334D03*
X311604666Y-78295334D03*
%TD*%
D25*
%TO.C,SW95*%
X339826999Y-85412333D03*
X333526999Y-85412333D03*
X339826999Y-89212333D03*
X333526999Y-89212333D03*
%TD*%
D11*
%TO.C,D37*%
X93523789Y-68709476D03*
X93523789Y-65409476D03*
%TD*%
%TO.C,D24*%
X160143789Y-49689476D03*
X160143789Y-46389476D03*
%TD*%
D10*
%TO.C,C8*%
X318335666Y-90769334D03*
X318335666Y-91729334D03*
%TD*%
D15*
%TO.C,R4*%
X24332666Y-30797334D03*
X23312666Y-30797334D03*
%TD*%
M02*
