%TF.GenerationSoftware,KiCad,Pcbnew,(7.99.0-267-g8440d7258b)*%
%TF.CreationDate,2023-07-06T22:55:22-07:00*%
%TF.ProjectId,1_2og_repro,315f326f-675f-4726-9570-726f2e6b6963,rev?*%
%TF.SameCoordinates,Original*%
%TF.FileFunction,Profile,NP*%
%FSLAX46Y46*%
G04 Gerber Fmt 4.6, Leading zero omitted, Abs format (unit mm)*
G04 Created by KiCad (PCBNEW (7.99.0-267-g8440d7258b)) date 2023-07-06 22:55:22*
%MOMM*%
%LPD*%
G01*
G04 APERTURE LIST*
%TA.AperFunction,Profile*%
%ADD10C,0.200000*%
%TD*%
G04 APERTURE END LIST*
D10*
X300341693Y-93593972D02*
X300341693Y-89993972D01*
X361459720Y-96013925D02*
X361458651Y-15173600D01*
X361458598Y-15173600D02*
G75*
G03*
X359458651Y-13173602I-1999898J100D01*
G01*
X361458846Y-113033954D02*
G75*
G03*
X360958760Y-112533954I-499946J54D01*
G01*
X360458733Y-96513937D02*
G75*
G03*
X359958737Y-97013931I-33J-499963D01*
G01*
X296628781Y-13173595D02*
X16326855Y-13173568D01*
X16326855Y-13173564D02*
G75*
G03*
X14326854Y-15173503I5J-2000006D01*
G01*
X309321693Y-93593972D02*
X309321693Y-89993972D01*
X297028781Y-12573972D02*
X297028781Y-12773595D01*
X300841693Y-89493993D02*
G75*
G03*
X300341693Y-89993972I-93J-499907D01*
G01*
X306628781Y-12173972D02*
X297428781Y-12173972D01*
X297428781Y-12173981D02*
G75*
G03*
X297028781Y-12573972I19J-400019D01*
G01*
X300341728Y-93593972D02*
G75*
G03*
X300841693Y-94093972I499972J-28D01*
G01*
X307028803Y-12773597D02*
G75*
G03*
X307428781Y-13173597I400097J97D01*
G01*
X359958747Y-112033954D02*
G75*
G03*
X360458754Y-112533953I500153J154D01*
G01*
X308821693Y-94093993D02*
G75*
G03*
X309321693Y-93593972I-93J500093D01*
G01*
X307028728Y-12573972D02*
G75*
G03*
X306628781Y-12173972I-399928J72D01*
G01*
X300841693Y-89493972D02*
X308821693Y-89493972D01*
X14323133Y-129433753D02*
G75*
G03*
X16323204Y-131433827I1999897J-177D01*
G01*
X14326854Y-15173503D02*
X14323137Y-129433753D01*
X359458730Y-131433977D02*
G75*
G03*
X361458777Y-129433921I-130J2000177D01*
G01*
X360959724Y-96513920D02*
G75*
G03*
X361459720Y-96013925I76J499920D01*
G01*
X309321728Y-89993972D02*
G75*
G03*
X308821693Y-89493972I-500028J-28D01*
G01*
X361458777Y-129433921D02*
X361458759Y-113033954D01*
X359458651Y-13173602D02*
X307428781Y-13173597D01*
X360458754Y-112533953D02*
X360958760Y-112533954D01*
X16323136Y-131433827D02*
X359458730Y-131433923D01*
X360458733Y-96513930D02*
X360959724Y-96513926D01*
X300841693Y-94093972D02*
X308821693Y-94093972D01*
X307028781Y-12573972D02*
X307028781Y-12773597D01*
X359958755Y-112033954D02*
X359958737Y-97013931D01*
X296628781Y-13173581D02*
G75*
G03*
X297028781Y-12773595I219J399781D01*
G01*
M02*
