M48
; DRILL file {KiCad 8.0.8} date 2025-02-22T00:27:14-0800
; FORMAT={-:-/ absolute / inch / decimal}
; #@! TF.CreationDate,2025-02-22T00:27:14-08:00
; #@! TF.GenerationSoftware,Kicad,Pcbnew,8.0.8
; #@! TF.FileFunction,NonPlated,1,2,NPTH
FMAT,2
INCH
; #@! TA.AperFunction,NonPlated,NPTH,ComponentDrill
T1C0.0689
; #@! TA.AperFunction,NonPlated,NPTH,ComponentDrill
T2C0.1200
; #@! TA.AperFunction,NonPlated,NPTH,ComponentDrill
T3C0.1570
%
G90
G05
T1
X-0.272Y-0.1703
X-0.272Y-1.1065
X-0.1784Y-2.6041
X-0.0858Y-4.1018
X-0.085Y-1.8554
X0.0084Y-2.6041
X0.128Y-0.1703
X0.128Y-1.1065
X0.197Y-3.3529
X0.2216Y-2.6041
X0.3142Y-4.1018
X0.315Y-1.8554
X0.4084Y-2.6041
X0.4768Y-1.1065
X0.597Y-3.3529
X0.8493Y-4.1017
X0.8508Y-1.8553
X0.8768Y-1.1065
X1.0378Y-2.6041
X1.2256Y-1.1065
X1.2257Y-0.1705
X1.2493Y-4.1017
X1.2508Y-1.8553
X1.4138Y-3.3529
X1.4378Y-2.6041
X1.5997Y-1.8553
X1.6256Y-1.1065
X1.6257Y-0.1705
X1.7853Y-4.1017
X1.7867Y-2.6041
X1.8138Y-3.3529
X1.9745Y-1.1065
X1.9745Y-0.1705
X1.9997Y-1.8553
X2.1626Y-3.3529
X2.1853Y-4.1017
X2.1867Y-2.6041
X2.3485Y-1.8553
X2.3745Y-1.1065
X2.3745Y-0.1705
X2.5355Y-2.6041
X2.5626Y-3.3529
X2.7233Y-1.1065
X2.7233Y-0.1705
X2.7485Y-1.8553
X2.9115Y-3.3529
X2.9355Y-2.6041
X3.0973Y-1.8553
X3.1233Y-1.1065
X3.1233Y-0.1705
X3.2843Y-2.6041
X3.3115Y-3.3529
X3.4721Y-1.1065
X3.4721Y-0.1705
X3.4973Y-1.8553
X3.6603Y-3.3529
X3.6843Y-2.6041
X3.8461Y-1.8553
X3.8721Y-1.1065
X3.8721Y-0.1705
X4.0331Y-2.6041
X4.0603Y-3.3529
X4.2209Y-1.1065
X4.2461Y-1.8553
X4.4091Y-3.3529
X4.4331Y-2.6041
X4.5949Y-1.8553
X4.5953Y-0.1703
X4.5958Y-4.1018
X4.6209Y-1.1065
X4.7819Y-2.6041
X4.8091Y-3.3529
X4.9697Y-1.1065
X4.9702Y-4.1018
X4.9949Y-1.8553
X4.9953Y-0.1703
X4.9958Y-4.1018
X5.1579Y-3.3529
X5.1819Y-2.6041
X5.3437Y-1.8553
X5.3441Y-0.1703
X5.3697Y-1.1065
X5.3702Y-4.1018
X5.5308Y-2.6041
X5.5579Y-3.3529
X5.7186Y-1.1065
X5.7437Y-1.8553
X5.7441Y-0.1703
X5.9067Y-3.3529
X5.9308Y-2.6041
X6.0926Y-1.8553
X6.093Y-0.1703
X6.1186Y-1.1065
X6.2796Y-2.6041
X6.3067Y-3.3529
X6.4674Y-1.1065
X6.4926Y-1.8553
X6.493Y-0.1703
X6.656Y-3.3529
X6.6796Y-2.6041
X6.8414Y-1.8553
X6.8418Y-0.1703
X6.8674Y-1.1065
X7.0284Y-2.6041
X7.056Y-3.3529
X7.2162Y-1.1065
X7.2414Y-1.8553
X7.2418Y-0.1703
X7.3999Y-4.1017
X7.4048Y-3.3529
X7.4284Y-2.6041
X7.5902Y-1.8553
X7.6162Y-1.1065
X7.7772Y-2.6041
X7.7999Y-4.1017
X7.8048Y-3.3529
X7.965Y-1.1065
X7.9662Y-0.1702
X7.9902Y-1.8553
X8.1502Y-4.1018
X8.1536Y-3.3529
X8.1772Y-2.6041
X8.3374Y-4.1017
X8.339Y-1.8553
X8.365Y-1.1065
X8.3662Y-0.1702
X8.526Y-2.6041
X8.5502Y-4.1018
X8.5536Y-3.3529
X8.7138Y-0.1702
X8.7138Y-1.1065
X8.7374Y-4.1017
X8.739Y-1.8553
X8.926Y-2.6041
X9.0863Y-1.8554
X9.0863Y-4.1018
X9.1138Y-0.1702
X9.1138Y-1.1065
X9.1815Y-3.3529
X9.4632Y-1.1065
X9.4638Y-0.1702
X9.4863Y-1.8554
X9.4863Y-4.1018
X9.5573Y-3.3529
X9.5815Y-3.3529
X9.741Y-2.6042
X9.8376Y-1.1065
X9.8632Y-1.1065
X9.8638Y-0.1702
X9.9304Y-3.3529
X9.9573Y-3.3529
X10.0239Y-1.8554
X10.0239Y-4.1018
X10.141Y-2.6042
X10.2121Y-1.1065
X10.2126Y-0.1702
X10.2376Y-1.1065
X10.3304Y-3.3529
X10.4239Y-1.8554
X10.4239Y-4.1018
X10.6121Y-1.1065
X10.6126Y-0.1702
X11.1489Y-0.1702
X11.1489Y-1.1065
X11.1489Y-1.8553
X11.1489Y-4.1017
X11.5489Y-0.1702
X11.5489Y-1.1065
X11.5489Y-1.8553
X11.5489Y-4.1017
X11.8977Y-0.1701
X11.8977Y-1.1065
X11.8977Y-1.8553
X11.8977Y-3.3529
X11.8977Y-4.1017
X12.2977Y-0.1701
X12.2977Y-1.1065
X12.2977Y-1.8553
X12.2977Y-3.3529
X12.2977Y-4.1017
X12.6465Y-0.1702
X12.6465Y-1.1065
X12.6465Y-1.8553
X12.6465Y-4.1017
X13.0465Y-0.1702
X13.0465Y-1.1065
X13.0465Y-1.8553
X13.0465Y-4.1017
T2
X-0.0718Y-3.0779
X0.8657Y-3.0779
X2.5452Y-4.3768
X2.9202Y-4.3767
X2.9202Y-4.3768
X2.9208Y-4.3768
X6.6708Y-4.3768
X7.4202Y-4.3767
X7.4202Y-4.3768
X7.7952Y-4.3768
X9.4722Y-2.8792
X10.4097Y-2.8792
T3
X-0.072Y-0.1703
X-0.072Y-1.1065
X-0.0718Y-3.6779
X0.0216Y-2.6041
X0.1142Y-4.1018
X0.115Y-1.8554
X0.2084Y-2.6041
X0.397Y-3.3529
X0.6768Y-1.1065
X0.8657Y-3.6779
X1.0493Y-4.1017
X1.0508Y-1.8553
X1.2378Y-2.6041
X1.4256Y-1.1065
X1.4257Y-0.1705
X1.6138Y-3.3529
X1.7997Y-1.8553
X1.9853Y-4.1017
X1.9867Y-2.6041
X2.1745Y-1.1065
X2.1745Y-0.1705
X2.3626Y-3.3529
X2.5452Y-3.7768
X2.5485Y-1.8553
X2.7355Y-2.6041
X2.9202Y-3.7767
X2.9202Y-3.7768
X2.9208Y-3.7768
X2.9233Y-1.1065
X2.9233Y-0.1705
X3.1115Y-3.3529
X3.2973Y-1.8553
X3.4843Y-2.6041
X3.6721Y-1.1065
X3.6721Y-0.1705
X3.8603Y-3.3529
X4.0461Y-1.8553
X4.2331Y-2.6041
X4.4209Y-1.1065
X4.6091Y-3.3529
X4.7949Y-1.8553
X4.7953Y-0.1703
X4.7958Y-4.1018
X4.9819Y-2.6041
X5.1697Y-1.1065
X5.1702Y-4.1018
X5.3579Y-3.3529
X5.5437Y-1.8553
X5.5441Y-0.1703
X5.7308Y-2.6041
X5.9186Y-1.1065
X6.1067Y-3.3529
X6.2926Y-1.8553
X6.293Y-0.1703
X6.4796Y-2.6041
X6.6674Y-1.1065
X6.6708Y-3.7768
X6.856Y-3.3529
X7.0414Y-1.8553
X7.0418Y-0.1703
X7.2284Y-2.6041
X7.4162Y-1.1065
X7.4202Y-3.7767
X7.4202Y-3.7768
X7.5999Y-4.1017
X7.6048Y-3.3529
X7.7902Y-1.8553
X7.7952Y-3.7768
X7.9772Y-2.6041
X8.165Y-1.1065
X8.1662Y-0.1702
X8.3502Y-4.1018
X8.3536Y-3.3529
X8.5374Y-4.1017
X8.539Y-1.8553
X8.726Y-2.6041
X8.9138Y-0.1702
X8.9138Y-1.1065
X9.2863Y-1.8554
X9.2863Y-4.1018
X9.2886Y-3.6779
X9.3815Y-3.3529
X9.4722Y-2.2792
X9.5689Y-1.4315
X9.6632Y-1.1065
X9.6638Y-0.1702
X9.7573Y-3.3529
X9.941Y-2.6042
X10.0376Y-1.1065
X10.1304Y-3.3529
X10.2239Y-1.8554
X10.2239Y-4.1018
X10.2261Y-3.6779
X10.4097Y-2.2792
X10.4121Y-1.1065
X10.4126Y-0.1702
X10.5064Y-1.4315
X11.3489Y-0.1702
X11.3489Y-1.1065
X11.3489Y-1.8553
X11.3489Y-4.1017
X12.0977Y-0.1701
X12.0977Y-1.1065
X12.0977Y-1.8553
X12.0977Y-3.3529
X12.0977Y-4.1017
X12.8465Y-0.1702
X12.8465Y-1.1065
X12.8465Y-1.8553
X12.8465Y-4.1017
M30
