M48
; DRILL file {KiCad (7.99.0-267-g8440d7258b)} date Friday, July 07, 2023 at 10:01:13 PM
; FORMAT={-:-/ absolute / inch / decimal}
; #@! TF.CreationDate,2023-07-07T22:01:13-07:00
; #@! TF.GenerationSoftware,Kicad,Pcbnew,(7.99.0-267-g8440d7258b)
; #@! TF.FileFunction,Plated,1,2,PTH
FMAT,2
INCH
; #@! TA.AperFunction,Plated,PTH,ViaDrill
T1C0.0157
; #@! TA.AperFunction,Plated,PTH,ComponentDrill
T2C0.0276
; #@! TA.AperFunction,Plated,PTH,ComponentDrill
T3C0.0295
; #@! TA.AperFunction,Plated,PTH,ComponentDrill
T4C0.0394
; #@! TA.AperFunction,Plated,PTH,ComponentDrill
T5C0.0409
; #@! TA.AperFunction,Plated,PTH,ComponentDrill
T6C0.0600
; #@! TA.AperFunction,Plated,PTH,ComponentDrill
T7C0.1181
; #@! TA.AperFunction,Plated,PTH,ComponentDrill
T8C0.1200
%
G90
G05
T1
X0.935Y-1.04
X0.9829Y-3.4525
X11.4279Y-2.7025
X11.4379Y-4.0175
X11.6129Y-1.9525
X11.635Y-4.9516
X11.6679Y-1.0225
X11.7379Y-4.1725
X11.7439Y-0.745
X11.7451Y-2.9268
X11.855Y-2.7025
X11.9063Y-2.7311
X11.98Y-0.96
X12.115Y-2.775
X12.1229Y-1.9525
X12.1629Y-1.0175
X12.2629Y-3.0425
X12.3127Y-2.7323
X12.3417Y-3.0114
X12.3429Y-3.0825
X12.3979Y-2.7075
X12.4129Y-3.0475
X12.45Y-3.0454
X12.4879Y-3.5725
X12.4979Y-3.6225
X12.6041Y-3.6375
X12.6229Y-3.3025
X12.7129Y-3.0425
X12.7529Y-3.5275
X12.7979Y-3.0475
X12.8229Y-3.6075
X12.8379Y-3.0475
X12.8779Y-3.1225
X12.8779Y-3.4675
X12.9155Y-3.4791
X12.9156Y-3.5195
X12.9548Y-3.3793
X12.9578Y-2.9725
X12.9578Y-3.0347
X12.9889Y-3.3597
X13.065Y-3.445
X13.26Y-3.62
X13.5Y-3.395
T3
X13.7764Y-4.0388
X13.7764Y-4.1175
X13.7764Y-4.1962
T4
X13.6Y-4.0151
X13.6Y-4.1151
X13.6Y-4.2151
T5
X0.8881Y-1.0927
X0.9811Y-3.5265
X0.9881Y-1.0927
X1.0811Y-3.5265
X1.1686Y-3.5265
X1.2686Y-3.5265
X13.0578Y-1.0925
X13.1578Y-1.0925
T6
X0.7881Y-0.7927
X0.7881Y-1.7288
X0.8811Y-3.2265
X0.9744Y-2.4777
X0.9744Y-4.7242
X1.0381Y-0.6927
X1.0381Y-1.6288
X1.0686Y-3.2265
X1.1311Y-3.1265
X1.2244Y-2.3777
X1.2244Y-4.6242
X1.2571Y-3.9753
X1.3186Y-3.1265
X1.5071Y-3.8753
X1.537Y-1.7288
X1.787Y-1.6288
X1.9094Y-2.4776
X1.9094Y-4.7241
X2.1019Y-3.2265
X2.1594Y-2.3776
X2.1594Y-4.6241
X2.2858Y-1.7288
X2.2858Y-0.7929
X2.3519Y-3.1265
X2.474Y-3.9753
X2.5358Y-1.6288
X2.5358Y-0.6929
X2.6582Y-2.4776
X2.724Y-3.8753
X2.8454Y-4.7241
X2.85Y-3.2265
X2.9082Y-2.3776
X3.0346Y-1.7288
X3.0346Y-0.7929
X3.0954Y-4.6241
X3.1Y-3.1265
X3.2228Y-3.9753
X3.2846Y-1.6288
X3.2846Y-0.6929
X3.407Y-2.4776
X3.4728Y-3.8753
X3.598Y-3.2265
X3.657Y-2.3776
X3.7834Y-1.7288
X3.7834Y-0.7929
X3.848Y-3.1265
X3.9716Y-3.9753
X4.0334Y-1.6288
X4.0334Y-0.6929
X4.1559Y-2.4776
X4.2216Y-3.8753
X4.346Y-3.2265
X4.4059Y-2.3776
X4.5322Y-1.7288
X4.5323Y-0.7929
X4.596Y-3.1265
X4.7204Y-3.9753
X4.7822Y-1.6288
X4.7823Y-0.6929
X4.9047Y-2.4776
X4.9704Y-3.8753
X5.094Y-3.2265
X5.1547Y-2.3776
X5.2811Y-1.7288
X5.344Y-3.1265
X5.4692Y-3.9753
X5.5311Y-1.6288
X5.6535Y-2.4776
X5.6555Y-0.7927
X5.6559Y-4.7242
X5.7192Y-3.8753
X5.8421Y-3.2265
X5.9035Y-2.3776
X5.9055Y-0.6927
X5.9059Y-4.6242
X6.0299Y-1.7288
X6.0303Y-4.7242
X6.0921Y-3.1265
X6.2181Y-3.9753
X6.2799Y-1.6288
X6.2803Y-4.6242
X6.4023Y-2.4776
X6.4043Y-0.7927
X6.4681Y-3.8753
X6.5909Y-3.2265
X6.6523Y-2.3776
X6.6543Y-0.6927
X6.7787Y-1.7288
X6.8409Y-3.1265
X6.9669Y-3.9753
X7.0287Y-1.6288
X7.1511Y-2.4776
X7.1531Y-0.7927
X7.2169Y-3.8753
X7.3397Y-3.2265
X7.4011Y-2.3776
X7.4031Y-0.6927
X7.5275Y-1.7288
X7.5897Y-3.1265
X7.7161Y-3.9753
X7.7775Y-1.6288
X7.9Y-2.4776
X7.9019Y-0.7927
X7.9661Y-3.8753
X8.0877Y-3.2265
X8.15Y-2.3776
X8.1519Y-0.6927
X8.2763Y-1.7288
X8.3377Y-3.1265
X8.4601Y-4.7241
X8.4649Y-3.9753
X8.5263Y-1.6288
X8.6488Y-2.4776
X8.7101Y-4.6241
X8.7149Y-3.8753
X8.8358Y-3.2265
X8.8988Y-2.3776
X9.0251Y-1.7288
X9.0263Y-0.7926
X9.0858Y-3.1265
X9.2104Y-4.7242
X9.2137Y-3.9753
X9.2751Y-1.6288
X9.2763Y-0.6926
X9.3976Y-2.4776
X9.3976Y-4.7241
X9.4604Y-4.6242
X9.4637Y-3.8753
X9.5838Y-3.2265
X9.6476Y-2.3776
X9.6476Y-4.6241
X9.774Y-0.7926
X9.774Y-1.7288
X9.8338Y-3.1265
X10.024Y-0.6926
X10.024Y-1.6288
X10.1464Y-2.4777
X10.1464Y-4.7242
X10.2417Y-3.9753
X10.3964Y-2.3777
X10.3964Y-4.6242
X10.4917Y-3.8753
X10.5234Y-1.7289
X10.524Y-0.7926
X10.6175Y-3.9753
X10.7734Y-1.6289
X10.774Y-0.6926
X10.8011Y-3.2265
X10.8675Y-3.8753
X10.8978Y-1.7289
X10.9905Y-3.9753
X11.0511Y-3.1265
X11.084Y-2.4777
X11.084Y-4.7242
X11.1478Y-1.6289
X11.2405Y-3.8753
X11.2722Y-1.7289
X11.2728Y-0.7926
X11.334Y-2.3777
X11.334Y-4.6242
X11.5222Y-1.6289
X11.5228Y-0.6926
X12.209Y-0.7926
X12.209Y-1.7288
X12.209Y-2.4776
X12.209Y-4.7241
X12.459Y-0.6926
X12.459Y-1.6288
X12.459Y-2.3776
X12.459Y-4.6241
X12.9578Y-0.7925
X12.9578Y-1.7288
X12.9578Y-2.4776
X12.9578Y-3.9753
X12.9578Y-4.7241
X13.2078Y-0.6925
X13.2078Y-1.6288
X13.2078Y-2.3776
X13.2078Y-3.8753
X13.2078Y-4.6241
X13.7066Y-0.7926
X13.7066Y-1.7288
X13.7066Y-2.4776
X13.7066Y-4.7241
X13.9566Y-0.6926
X13.9566Y-1.6288
X13.9566Y-2.3776
X13.9566Y-4.6241
T7
X11.9386Y-3.0894
X14.0929Y-3.5628
T8
X10.2987Y-3.8003
X10.579Y-1.5539
X11.2362Y-3.8003
X11.5165Y-1.5539
T2
G00X11.7472Y-0.5228
M15
G01X11.7472Y-0.57
M16
G05
G00X11.8279Y-0.7452
M15
G01X11.8279Y-0.7452
M16
G05
G00X11.8594Y-0.698
M15
G01X11.8594Y-0.698
M16
G05
G00X11.8909Y-0.7452
M15
G01X11.8909Y-0.7452
M16
G05
G00X11.9224Y-0.698
M15
G01X11.9224Y-0.698
M16
G05
G00X11.9539Y-0.7452
M15
G01X11.9539Y-0.7452
M16
G05
G00X12.0346Y-0.5228
M15
G01X12.0346Y-0.57
M16
G05
T0
M30
