M48
; DRILL file {KiCad (7.99.0-267-g8440d7258b)} date Friday, May 05, 2023 at 02:35:45 PM
; FORMAT={-:-/ absolute / inch / decimal}
; #@! TF.CreationDate,2023-05-05T14:35:45-07:00
; #@! TF.GenerationSoftware,Kicad,Pcbnew,(7.99.0-267-g8440d7258b)
; #@! TF.FileFunction,Plated,1,2,PTH
FMAT,2
INCH
; #@! TA.AperFunction,Plated,PTH,ViaDrill
T1C0.0157
; #@! TA.AperFunction,Plated,PTH,ComponentDrill
T2C0.0276
; #@! TA.AperFunction,Plated,PTH,ComponentDrill
T3C0.0295
; #@! TA.AperFunction,Plated,PTH,ComponentDrill
T4C0.0394
; #@! TA.AperFunction,Plated,PTH,ComponentDrill
T5C0.0409
; #@! TA.AperFunction,Plated,PTH,ComponentDrill
T6C0.0512
; #@! TA.AperFunction,Plated,PTH,ComponentDrill
T7C0.0600
; #@! TA.AperFunction,Plated,PTH,ComponentDrill
T8C0.1200
; #@! TA.AperFunction,Plated,PTH,ComponentDrill
T9C0.1260
%
G90
G05
T1
X10.0585Y-2.825
X11.14Y-1.9214
X11.51Y-3.545
X11.515Y-1.035
X11.61Y-1.975
X11.61Y-4.2226
X11.705Y-0.77
X11.72Y-2.76
X11.74Y-1.17
X11.7666Y-0.7675
X11.8079Y-0.7675
X11.868Y-2.7746
X11.8839Y-1.9761
X11.9062Y-2.7651
X11.9664Y-2.515
X11.995Y-2.3195
X12.0925Y-1.035
X12.0925Y-3.0335
X12.0925Y-3.075
X12.195Y-3.295
X12.2739Y-3.3676
X12.305Y-3.3964
X12.35Y-4.222
X12.41Y-3.12
X12.41Y-3.215
X12.41Y-3.32
X12.455Y-3.55
X12.538Y-4.223
X12.645Y-4.405
X12.735Y-3.095
X12.735Y-3.1344
X12.745Y-2.435
X12.745Y-4.05
X12.835Y-4.194
X12.835Y-4.2512
X12.9796Y-3.53
X13.0012Y-3.6398
X13.02Y-3.285
X13.125Y-2.4638
X13.2Y-3.43
X13.21Y-3.54
X13.215Y-3.0
X13.215Y-3.04
X13.2185Y-3.61
X13.245Y-3.075
X13.245Y-3.115
X13.265Y-2.8
X13.27Y-1.9475
X13.27Y-2.0047
X13.27Y-2.655
X13.2936Y-3.6112
X13.3035Y-4.0539
X13.3214Y-4.1812
X13.3214Y-4.9428
X13.3664Y-4.005
X13.3786Y-4.9428
X13.3798Y-3.6398
X13.386Y-3.9709
X13.415Y-3.355
X13.5398Y-2.8948
X13.5544Y-2.6963
X13.565Y-3.24
X13.5696Y-2.9206
X13.5901Y-2.9541
X13.6187Y-2.985
X13.665Y-3.39
X13.675Y-3.6402
X13.69Y-3.34
X13.735Y-2.16
X13.87Y-3.98
X13.915Y-3.12
T3
X13.6885Y-3.9963
X13.6885Y-4.075
X13.6885Y-4.1537
T4
X13.5121Y-3.9726
X13.5121Y-4.0726
X13.5121Y-4.1726
T5
X0.8932Y-3.484
X0.9932Y-3.484
X1.0807Y-3.484
X1.1807Y-3.484
X12.9699Y-1.05
X13.0699Y-1.05
T6
X5.28Y-4.7816
X5.48Y-4.7816
T7
X0.7002Y-0.7502
X0.7002Y-1.6864
X0.7932Y-3.184
X0.8865Y-2.4352
X0.8872Y-4.6817
X0.9502Y-0.6502
X0.9502Y-1.5864
X0.9807Y-3.184
X1.0432Y-3.084
X1.1365Y-2.3352
X1.1372Y-4.5817
X1.1687Y-3.9329
X1.2307Y-3.084
X1.4187Y-3.8329
X1.4491Y-1.6864
X1.6991Y-1.5864
X1.8215Y-2.4352
X1.822Y-4.6817
X2.014Y-3.184
X2.0715Y-2.3352
X2.072Y-4.5817
X2.1979Y-1.6864
X2.1979Y-0.7504
X2.264Y-3.084
X2.3861Y-3.9329
X2.4479Y-1.5864
X2.4479Y-0.6504
X2.5703Y-2.4352
X2.6361Y-3.8329
X2.7552Y-4.6817
X2.7621Y-3.184
X2.8203Y-2.3352
X2.9467Y-1.6864
X2.9467Y-0.7504
X3.0052Y-4.5817
X3.0121Y-3.084
X3.1341Y-3.9329
X3.1967Y-1.5864
X3.1967Y-0.6504
X3.3191Y-2.4352
X3.3841Y-3.8329
X3.5101Y-3.184
X3.5691Y-2.3352
X3.6955Y-1.6864
X3.6955Y-0.7504
X3.7601Y-3.084
X3.8821Y-3.9329
X3.9455Y-1.5864
X3.9455Y-0.6504
X4.068Y-2.4352
X4.1321Y-3.8329
X4.2581Y-3.184
X4.318Y-2.3352
X4.4443Y-1.6864
X4.4444Y-0.7504
X4.5081Y-3.084
X4.6302Y-3.9329
X4.6943Y-1.5864
X4.6944Y-0.6504
X4.8168Y-2.4352
X4.8802Y-3.8329
X5.0061Y-3.184
X5.0668Y-2.3352
X5.1932Y-1.6864
X5.2561Y-3.084
X5.3782Y-3.9329
X5.4432Y-1.5864
X5.5656Y-2.4352
X5.5676Y-0.7502
X5.6282Y-3.8329
X5.7542Y-3.184
X5.8156Y-2.3352
X5.8176Y-0.6502
X5.942Y-1.6864
X5.9424Y-4.6816
X6.0042Y-3.084
X6.1262Y-3.9329
X6.192Y-1.5864
X6.1924Y-4.5816
X6.3144Y-2.4352
X6.3164Y-0.7502
X6.3762Y-3.8329
X6.503Y-3.184
X6.5644Y-2.3352
X6.5664Y-0.6502
X6.6908Y-1.6864
X6.753Y-3.084
X6.8743Y-3.9329
X6.9408Y-1.5864
X7.0632Y-2.4352
X7.0652Y-0.7502
X7.1243Y-3.8329
X7.2518Y-3.184
X7.3132Y-2.3352
X7.3152Y-0.6502
X7.4396Y-1.6864
X7.5018Y-3.084
X7.6223Y-3.9329
X7.6896Y-1.5864
X7.8121Y-2.4352
X7.814Y-0.7502
X7.8723Y-3.8329
X7.9998Y-3.184
X8.0621Y-2.3352
X8.064Y-0.6502
X8.1884Y-1.6864
X8.2498Y-3.084
X8.3703Y-3.9329
X8.4384Y-1.5864
X8.5609Y-2.4352
X8.6203Y-3.8329
X8.7479Y-3.184
X8.8109Y-2.3352
X8.9372Y-0.7502
X8.9372Y-1.6864
X8.9979Y-3.084
X9.1184Y-3.9329
X9.13Y-4.6817
X9.1872Y-0.6502
X9.1872Y-1.5864
X9.3097Y-2.4352
X9.3684Y-3.8329
X9.38Y-4.5817
X9.4959Y-3.184
X9.5597Y-2.3352
X9.6861Y-0.7502
X9.6861Y-1.6864
X9.7459Y-3.084
X9.9361Y-0.6502
X9.9361Y-1.5864
X10.0585Y-2.4352
X10.0641Y-4.6817
X10.1504Y-3.9329
X10.3085Y-2.3352
X10.3141Y-4.5817
X10.4004Y-3.8329
X10.4355Y-1.6864
X10.4361Y-0.7502
X10.5248Y-3.9329
X10.6855Y-1.5864
X10.6861Y-0.6502
X10.7132Y-3.184
X10.7748Y-3.8329
X10.8099Y-1.6864
X10.8993Y-3.9329
X10.9632Y-3.084
X10.9961Y-2.4352
X10.9979Y-4.6817
X11.0599Y-1.5864
X11.1493Y-3.8329
X11.1843Y-1.6864
X11.1849Y-0.7502
X11.2461Y-2.3352
X11.2479Y-4.5817
X11.4343Y-1.5864
X11.4349Y-0.6502
X12.1211Y-0.7502
X12.1211Y-1.6864
X12.1211Y-2.4352
X12.1211Y-4.6817
X12.3711Y-0.6502
X12.3711Y-1.5864
X12.3711Y-2.3352
X12.3711Y-4.5817
X12.8699Y-0.75
X12.8699Y-1.6864
X12.8699Y-2.4352
X12.8699Y-3.9329
X12.8699Y-4.6817
X13.1199Y-0.65
X13.1199Y-1.5864
X13.1199Y-2.3352
X13.1199Y-3.8329
X13.1199Y-4.5817
X13.6187Y-0.7502
X13.6187Y-1.6864
X13.6187Y-2.4352
X13.6187Y-4.6817
X13.8687Y-0.6502
X13.8687Y-1.5864
X13.8687Y-2.3352
X13.8687Y-4.5817
T8
X10.2061Y-3.7579
X10.4911Y-1.5114
X11.1436Y-3.7579
X11.4286Y-1.5114
T9
X11.8507Y-3.0469
X14.005Y-3.5203
T2
G00X11.6593Y-0.4823
M15
G01X11.6593Y-0.5295
M16
G05
G00X11.6593Y-0.6594
M15
G01X11.6593Y-0.7067
M16
G05
G00X11.9467Y-0.4823
M15
G01X11.9467Y-0.5295
M16
G05
G00X11.9467Y-0.6594
M15
G01X11.9467Y-0.7067
M16
G05
T0
M30
