%TF.GenerationSoftware,KiCad,Pcbnew,(7.99.0-267-g8440d7258b)*%
%TF.CreationDate,2023-05-05T20:00:46-07:00*%
%TF.ProjectId,1_2og_repro,315f326f-675f-4726-9570-726f2e6b6963,rev?*%
%TF.SameCoordinates,Original*%
%TF.FileFunction,Other,Comment*%
%FSLAX46Y46*%
G04 Gerber Fmt 4.6, Leading zero omitted, Abs format (unit mm)*
G04 Created by KiCad (PCBNEW (7.99.0-267-g8440d7258b)) date 2023-05-05 20:00:46*
%MOMM*%
%LPD*%
G01*
G04 APERTURE LIST*
%ADD10C,0.150000*%
%ADD11C,0.120000*%
G04 APERTURE END LIST*
D10*
%TO.C,D90*%
X325848971Y-20834179D02*
X325944209Y-20881798D01*
X325944209Y-20881798D02*
X326134685Y-20881798D01*
X326134685Y-20881798D02*
X326229923Y-20834179D01*
X326229923Y-20834179D02*
X326277542Y-20738940D01*
X326277542Y-20738940D02*
X326277542Y-20691321D01*
X326277542Y-20691321D02*
X326229923Y-20596083D01*
X326229923Y-20596083D02*
X326134685Y-20548464D01*
X326134685Y-20548464D02*
X325991828Y-20548464D01*
X325991828Y-20548464D02*
X325896590Y-20500845D01*
X325896590Y-20500845D02*
X325848971Y-20405607D01*
X325848971Y-20405607D02*
X325848971Y-20357988D01*
X325848971Y-20357988D02*
X325896590Y-20262750D01*
X325896590Y-20262750D02*
X325991828Y-20215131D01*
X325991828Y-20215131D02*
X326134685Y-20215131D01*
X326134685Y-20215131D02*
X326229923Y-20262750D01*
X326610876Y-20215131D02*
X326801352Y-20881798D01*
X326801352Y-20881798D02*
X326991828Y-20405607D01*
X326991828Y-20405607D02*
X327182304Y-20881798D01*
X327182304Y-20881798D02*
X327372780Y-20215131D01*
X327753733Y-20881798D02*
X327753733Y-20215131D01*
X327753733Y-19881798D02*
X327706114Y-19929417D01*
X327706114Y-19929417D02*
X327753733Y-19977036D01*
X327753733Y-19977036D02*
X327801352Y-19929417D01*
X327801352Y-19929417D02*
X327753733Y-19881798D01*
X327753733Y-19881798D02*
X327753733Y-19977036D01*
X328087066Y-20215131D02*
X328468018Y-20215131D01*
X328229923Y-19881798D02*
X328229923Y-20738940D01*
X328229923Y-20738940D02*
X328277542Y-20834179D01*
X328277542Y-20834179D02*
X328372780Y-20881798D01*
X328372780Y-20881798D02*
X328468018Y-20881798D01*
X329229923Y-20834179D02*
X329134685Y-20881798D01*
X329134685Y-20881798D02*
X328944209Y-20881798D01*
X328944209Y-20881798D02*
X328848971Y-20834179D01*
X328848971Y-20834179D02*
X328801352Y-20786559D01*
X328801352Y-20786559D02*
X328753733Y-20691321D01*
X328753733Y-20691321D02*
X328753733Y-20405607D01*
X328753733Y-20405607D02*
X328801352Y-20310369D01*
X328801352Y-20310369D02*
X328848971Y-20262750D01*
X328848971Y-20262750D02*
X328944209Y-20215131D01*
X328944209Y-20215131D02*
X329134685Y-20215131D01*
X329134685Y-20215131D02*
X329229923Y-20262750D01*
X329658495Y-20881798D02*
X329658495Y-19881798D01*
X330087066Y-20881798D02*
X330087066Y-20357988D01*
X330087066Y-20357988D02*
X330039447Y-20262750D01*
X330039447Y-20262750D02*
X329944209Y-20215131D01*
X329944209Y-20215131D02*
X329801352Y-20215131D01*
X329801352Y-20215131D02*
X329706114Y-20262750D01*
X329706114Y-20262750D02*
X329658495Y-20310369D01*
X331753733Y-20834179D02*
X331658495Y-20881798D01*
X331658495Y-20881798D02*
X331468019Y-20881798D01*
X331468019Y-20881798D02*
X331372781Y-20834179D01*
X331372781Y-20834179D02*
X331325162Y-20786559D01*
X331325162Y-20786559D02*
X331277543Y-20691321D01*
X331277543Y-20691321D02*
X331277543Y-20405607D01*
X331277543Y-20405607D02*
X331325162Y-20310369D01*
X331325162Y-20310369D02*
X331372781Y-20262750D01*
X331372781Y-20262750D02*
X331468019Y-20215131D01*
X331468019Y-20215131D02*
X331658495Y-20215131D01*
X331658495Y-20215131D02*
X331753733Y-20262750D01*
X332563257Y-20834179D02*
X332468019Y-20881798D01*
X332468019Y-20881798D02*
X332277543Y-20881798D01*
X332277543Y-20881798D02*
X332182305Y-20834179D01*
X332182305Y-20834179D02*
X332134686Y-20738940D01*
X332134686Y-20738940D02*
X332134686Y-20357988D01*
X332134686Y-20357988D02*
X332182305Y-20262750D01*
X332182305Y-20262750D02*
X332277543Y-20215131D01*
X332277543Y-20215131D02*
X332468019Y-20215131D01*
X332468019Y-20215131D02*
X332563257Y-20262750D01*
X332563257Y-20262750D02*
X332610876Y-20357988D01*
X332610876Y-20357988D02*
X332610876Y-20453226D01*
X332610876Y-20453226D02*
X332134686Y-20548464D01*
X333039448Y-20215131D02*
X333039448Y-20881798D01*
X333039448Y-20310369D02*
X333087067Y-20262750D01*
X333087067Y-20262750D02*
X333182305Y-20215131D01*
X333182305Y-20215131D02*
X333325162Y-20215131D01*
X333325162Y-20215131D02*
X333420400Y-20262750D01*
X333420400Y-20262750D02*
X333468019Y-20357988D01*
X333468019Y-20357988D02*
X333468019Y-20881798D01*
X333801353Y-20215131D02*
X334182305Y-20215131D01*
X333944210Y-19881798D02*
X333944210Y-20738940D01*
X333944210Y-20738940D02*
X333991829Y-20834179D01*
X333991829Y-20834179D02*
X334087067Y-20881798D01*
X334087067Y-20881798D02*
X334182305Y-20881798D01*
X334896591Y-20834179D02*
X334801353Y-20881798D01*
X334801353Y-20881798D02*
X334610877Y-20881798D01*
X334610877Y-20881798D02*
X334515639Y-20834179D01*
X334515639Y-20834179D02*
X334468020Y-20738940D01*
X334468020Y-20738940D02*
X334468020Y-20357988D01*
X334468020Y-20357988D02*
X334515639Y-20262750D01*
X334515639Y-20262750D02*
X334610877Y-20215131D01*
X334610877Y-20215131D02*
X334801353Y-20215131D01*
X334801353Y-20215131D02*
X334896591Y-20262750D01*
X334896591Y-20262750D02*
X334944210Y-20357988D01*
X334944210Y-20357988D02*
X334944210Y-20453226D01*
X334944210Y-20453226D02*
X334468020Y-20548464D01*
X335372782Y-20881798D02*
X335372782Y-20215131D01*
X335372782Y-20405607D02*
X335420401Y-20310369D01*
X335420401Y-20310369D02*
X335468020Y-20262750D01*
X335468020Y-20262750D02*
X335563258Y-20215131D01*
X335563258Y-20215131D02*
X335658496Y-20215131D01*
%TO.C,D91*%
X19098971Y-82657638D02*
X19194209Y-82705257D01*
X19194209Y-82705257D02*
X19384685Y-82705257D01*
X19384685Y-82705257D02*
X19479923Y-82657638D01*
X19479923Y-82657638D02*
X19527542Y-82562399D01*
X19527542Y-82562399D02*
X19527542Y-82514780D01*
X19527542Y-82514780D02*
X19479923Y-82419542D01*
X19479923Y-82419542D02*
X19384685Y-82371923D01*
X19384685Y-82371923D02*
X19241828Y-82371923D01*
X19241828Y-82371923D02*
X19146590Y-82324304D01*
X19146590Y-82324304D02*
X19098971Y-82229066D01*
X19098971Y-82229066D02*
X19098971Y-82181447D01*
X19098971Y-82181447D02*
X19146590Y-82086209D01*
X19146590Y-82086209D02*
X19241828Y-82038590D01*
X19241828Y-82038590D02*
X19384685Y-82038590D01*
X19384685Y-82038590D02*
X19479923Y-82086209D01*
X19860876Y-82038590D02*
X20051352Y-82705257D01*
X20051352Y-82705257D02*
X20241828Y-82229066D01*
X20241828Y-82229066D02*
X20432304Y-82705257D01*
X20432304Y-82705257D02*
X20622780Y-82038590D01*
X21003733Y-82705257D02*
X21003733Y-82038590D01*
X21003733Y-81705257D02*
X20956114Y-81752876D01*
X20956114Y-81752876D02*
X21003733Y-81800495D01*
X21003733Y-81800495D02*
X21051352Y-81752876D01*
X21051352Y-81752876D02*
X21003733Y-81705257D01*
X21003733Y-81705257D02*
X21003733Y-81800495D01*
X21337066Y-82038590D02*
X21718018Y-82038590D01*
X21479923Y-81705257D02*
X21479923Y-82562399D01*
X21479923Y-82562399D02*
X21527542Y-82657638D01*
X21527542Y-82657638D02*
X21622780Y-82705257D01*
X21622780Y-82705257D02*
X21718018Y-82705257D01*
X22479923Y-82657638D02*
X22384685Y-82705257D01*
X22384685Y-82705257D02*
X22194209Y-82705257D01*
X22194209Y-82705257D02*
X22098971Y-82657638D01*
X22098971Y-82657638D02*
X22051352Y-82610018D01*
X22051352Y-82610018D02*
X22003733Y-82514780D01*
X22003733Y-82514780D02*
X22003733Y-82229066D01*
X22003733Y-82229066D02*
X22051352Y-82133828D01*
X22051352Y-82133828D02*
X22098971Y-82086209D01*
X22098971Y-82086209D02*
X22194209Y-82038590D01*
X22194209Y-82038590D02*
X22384685Y-82038590D01*
X22384685Y-82038590D02*
X22479923Y-82086209D01*
X22908495Y-82705257D02*
X22908495Y-81705257D01*
X23337066Y-82705257D02*
X23337066Y-82181447D01*
X23337066Y-82181447D02*
X23289447Y-82086209D01*
X23289447Y-82086209D02*
X23194209Y-82038590D01*
X23194209Y-82038590D02*
X23051352Y-82038590D01*
X23051352Y-82038590D02*
X22956114Y-82086209D01*
X22956114Y-82086209D02*
X22908495Y-82133828D01*
X25003733Y-82657638D02*
X24908495Y-82705257D01*
X24908495Y-82705257D02*
X24718019Y-82705257D01*
X24718019Y-82705257D02*
X24622781Y-82657638D01*
X24622781Y-82657638D02*
X24575162Y-82610018D01*
X24575162Y-82610018D02*
X24527543Y-82514780D01*
X24527543Y-82514780D02*
X24527543Y-82229066D01*
X24527543Y-82229066D02*
X24575162Y-82133828D01*
X24575162Y-82133828D02*
X24622781Y-82086209D01*
X24622781Y-82086209D02*
X24718019Y-82038590D01*
X24718019Y-82038590D02*
X24908495Y-82038590D01*
X24908495Y-82038590D02*
X25003733Y-82086209D01*
X25813257Y-82657638D02*
X25718019Y-82705257D01*
X25718019Y-82705257D02*
X25527543Y-82705257D01*
X25527543Y-82705257D02*
X25432305Y-82657638D01*
X25432305Y-82657638D02*
X25384686Y-82562399D01*
X25384686Y-82562399D02*
X25384686Y-82181447D01*
X25384686Y-82181447D02*
X25432305Y-82086209D01*
X25432305Y-82086209D02*
X25527543Y-82038590D01*
X25527543Y-82038590D02*
X25718019Y-82038590D01*
X25718019Y-82038590D02*
X25813257Y-82086209D01*
X25813257Y-82086209D02*
X25860876Y-82181447D01*
X25860876Y-82181447D02*
X25860876Y-82276685D01*
X25860876Y-82276685D02*
X25384686Y-82371923D01*
X26289448Y-82038590D02*
X26289448Y-82705257D01*
X26289448Y-82133828D02*
X26337067Y-82086209D01*
X26337067Y-82086209D02*
X26432305Y-82038590D01*
X26432305Y-82038590D02*
X26575162Y-82038590D01*
X26575162Y-82038590D02*
X26670400Y-82086209D01*
X26670400Y-82086209D02*
X26718019Y-82181447D01*
X26718019Y-82181447D02*
X26718019Y-82705257D01*
X27051353Y-82038590D02*
X27432305Y-82038590D01*
X27194210Y-81705257D02*
X27194210Y-82562399D01*
X27194210Y-82562399D02*
X27241829Y-82657638D01*
X27241829Y-82657638D02*
X27337067Y-82705257D01*
X27337067Y-82705257D02*
X27432305Y-82705257D01*
X28146591Y-82657638D02*
X28051353Y-82705257D01*
X28051353Y-82705257D02*
X27860877Y-82705257D01*
X27860877Y-82705257D02*
X27765639Y-82657638D01*
X27765639Y-82657638D02*
X27718020Y-82562399D01*
X27718020Y-82562399D02*
X27718020Y-82181447D01*
X27718020Y-82181447D02*
X27765639Y-82086209D01*
X27765639Y-82086209D02*
X27860877Y-82038590D01*
X27860877Y-82038590D02*
X28051353Y-82038590D01*
X28051353Y-82038590D02*
X28146591Y-82086209D01*
X28146591Y-82086209D02*
X28194210Y-82181447D01*
X28194210Y-82181447D02*
X28194210Y-82276685D01*
X28194210Y-82276685D02*
X27718020Y-82371923D01*
X28622782Y-82705257D02*
X28622782Y-82038590D01*
X28622782Y-82229066D02*
X28670401Y-82133828D01*
X28670401Y-82133828D02*
X28718020Y-82086209D01*
X28718020Y-82086209D02*
X28813258Y-82038590D01*
X28813258Y-82038590D02*
X28908496Y-82038590D01*
%TO.C,D89*%
X23861471Y-82657638D02*
X23956709Y-82705257D01*
X23956709Y-82705257D02*
X24147185Y-82705257D01*
X24147185Y-82705257D02*
X24242423Y-82657638D01*
X24242423Y-82657638D02*
X24290042Y-82562399D01*
X24290042Y-82562399D02*
X24290042Y-82514780D01*
X24290042Y-82514780D02*
X24242423Y-82419542D01*
X24242423Y-82419542D02*
X24147185Y-82371923D01*
X24147185Y-82371923D02*
X24004328Y-82371923D01*
X24004328Y-82371923D02*
X23909090Y-82324304D01*
X23909090Y-82324304D02*
X23861471Y-82229066D01*
X23861471Y-82229066D02*
X23861471Y-82181447D01*
X23861471Y-82181447D02*
X23909090Y-82086209D01*
X23909090Y-82086209D02*
X24004328Y-82038590D01*
X24004328Y-82038590D02*
X24147185Y-82038590D01*
X24147185Y-82038590D02*
X24242423Y-82086209D01*
X24623376Y-82038590D02*
X24813852Y-82705257D01*
X24813852Y-82705257D02*
X25004328Y-82229066D01*
X25004328Y-82229066D02*
X25194804Y-82705257D01*
X25194804Y-82705257D02*
X25385280Y-82038590D01*
X25766233Y-82705257D02*
X25766233Y-82038590D01*
X25766233Y-81705257D02*
X25718614Y-81752876D01*
X25718614Y-81752876D02*
X25766233Y-81800495D01*
X25766233Y-81800495D02*
X25813852Y-81752876D01*
X25813852Y-81752876D02*
X25766233Y-81705257D01*
X25766233Y-81705257D02*
X25766233Y-81800495D01*
X26099566Y-82038590D02*
X26480518Y-82038590D01*
X26242423Y-81705257D02*
X26242423Y-82562399D01*
X26242423Y-82562399D02*
X26290042Y-82657638D01*
X26290042Y-82657638D02*
X26385280Y-82705257D01*
X26385280Y-82705257D02*
X26480518Y-82705257D01*
X27242423Y-82657638D02*
X27147185Y-82705257D01*
X27147185Y-82705257D02*
X26956709Y-82705257D01*
X26956709Y-82705257D02*
X26861471Y-82657638D01*
X26861471Y-82657638D02*
X26813852Y-82610018D01*
X26813852Y-82610018D02*
X26766233Y-82514780D01*
X26766233Y-82514780D02*
X26766233Y-82229066D01*
X26766233Y-82229066D02*
X26813852Y-82133828D01*
X26813852Y-82133828D02*
X26861471Y-82086209D01*
X26861471Y-82086209D02*
X26956709Y-82038590D01*
X26956709Y-82038590D02*
X27147185Y-82038590D01*
X27147185Y-82038590D02*
X27242423Y-82086209D01*
X27670995Y-82705257D02*
X27670995Y-81705257D01*
X28099566Y-82705257D02*
X28099566Y-82181447D01*
X28099566Y-82181447D02*
X28051947Y-82086209D01*
X28051947Y-82086209D02*
X27956709Y-82038590D01*
X27956709Y-82038590D02*
X27813852Y-82038590D01*
X27813852Y-82038590D02*
X27718614Y-82086209D01*
X27718614Y-82086209D02*
X27670995Y-82133828D01*
X29766233Y-82657638D02*
X29670995Y-82705257D01*
X29670995Y-82705257D02*
X29480519Y-82705257D01*
X29480519Y-82705257D02*
X29385281Y-82657638D01*
X29385281Y-82657638D02*
X29337662Y-82610018D01*
X29337662Y-82610018D02*
X29290043Y-82514780D01*
X29290043Y-82514780D02*
X29290043Y-82229066D01*
X29290043Y-82229066D02*
X29337662Y-82133828D01*
X29337662Y-82133828D02*
X29385281Y-82086209D01*
X29385281Y-82086209D02*
X29480519Y-82038590D01*
X29480519Y-82038590D02*
X29670995Y-82038590D01*
X29670995Y-82038590D02*
X29766233Y-82086209D01*
X30575757Y-82657638D02*
X30480519Y-82705257D01*
X30480519Y-82705257D02*
X30290043Y-82705257D01*
X30290043Y-82705257D02*
X30194805Y-82657638D01*
X30194805Y-82657638D02*
X30147186Y-82562399D01*
X30147186Y-82562399D02*
X30147186Y-82181447D01*
X30147186Y-82181447D02*
X30194805Y-82086209D01*
X30194805Y-82086209D02*
X30290043Y-82038590D01*
X30290043Y-82038590D02*
X30480519Y-82038590D01*
X30480519Y-82038590D02*
X30575757Y-82086209D01*
X30575757Y-82086209D02*
X30623376Y-82181447D01*
X30623376Y-82181447D02*
X30623376Y-82276685D01*
X30623376Y-82276685D02*
X30147186Y-82371923D01*
X31051948Y-82038590D02*
X31051948Y-82705257D01*
X31051948Y-82133828D02*
X31099567Y-82086209D01*
X31099567Y-82086209D02*
X31194805Y-82038590D01*
X31194805Y-82038590D02*
X31337662Y-82038590D01*
X31337662Y-82038590D02*
X31432900Y-82086209D01*
X31432900Y-82086209D02*
X31480519Y-82181447D01*
X31480519Y-82181447D02*
X31480519Y-82705257D01*
X31813853Y-82038590D02*
X32194805Y-82038590D01*
X31956710Y-81705257D02*
X31956710Y-82562399D01*
X31956710Y-82562399D02*
X32004329Y-82657638D01*
X32004329Y-82657638D02*
X32099567Y-82705257D01*
X32099567Y-82705257D02*
X32194805Y-82705257D01*
X32909091Y-82657638D02*
X32813853Y-82705257D01*
X32813853Y-82705257D02*
X32623377Y-82705257D01*
X32623377Y-82705257D02*
X32528139Y-82657638D01*
X32528139Y-82657638D02*
X32480520Y-82562399D01*
X32480520Y-82562399D02*
X32480520Y-82181447D01*
X32480520Y-82181447D02*
X32528139Y-82086209D01*
X32528139Y-82086209D02*
X32623377Y-82038590D01*
X32623377Y-82038590D02*
X32813853Y-82038590D01*
X32813853Y-82038590D02*
X32909091Y-82086209D01*
X32909091Y-82086209D02*
X32956710Y-82181447D01*
X32956710Y-82181447D02*
X32956710Y-82276685D01*
X32956710Y-82276685D02*
X32480520Y-82371923D01*
X33385282Y-82705257D02*
X33385282Y-82038590D01*
X33385282Y-82229066D02*
X33432901Y-82133828D01*
X33432901Y-82133828D02*
X33480520Y-82086209D01*
X33480520Y-82086209D02*
X33575758Y-82038590D01*
X33575758Y-82038590D02*
X33670996Y-82038590D01*
D11*
%TO.C,D90*%
X330456115Y-21839179D02*
X330706115Y-21589179D01*
X330706115Y-21589179D02*
X330456115Y-21339179D01*
X330706115Y-21589179D02*
X330956115Y-21339179D01*
X330956115Y-21839179D02*
X330706115Y-21589179D01*
D10*
%TO.C,H1*%
X304209027Y-77392443D02*
G75*
G03*
X304209027Y-77392443I-3200000J0D01*
G01*
%TO.C,H2*%
X358926066Y-89414572D02*
G75*
G03*
X358926066Y-89414572I-3200000J0D01*
G01*
D11*
%TO.C,D91*%
X23706115Y-83662638D02*
X23956115Y-83412638D01*
X23956115Y-83412638D02*
X23706115Y-83162638D01*
X23956115Y-83412638D02*
X24206115Y-83162638D01*
X24206115Y-83662638D02*
X23956115Y-83412638D01*
%TO.C,D89*%
X28468615Y-83662638D02*
X28718615Y-83412638D01*
X28718615Y-83412638D02*
X28468615Y-83162638D01*
X28718615Y-83412638D02*
X28968615Y-83162638D01*
X28968615Y-83662638D02*
X28718615Y-83412638D01*
%TD*%
M02*
