%TF.GenerationSoftware,KiCad,Pcbnew,(7.99.0-267-g8440d7258b)*%
%TF.CreationDate,2023-05-05T14:35:45-07:00*%
%TF.ProjectId,1_2og_repro,315f326f-675f-4726-9570-726f2e6b6963,rev?*%
%TF.SameCoordinates,Original*%
%TF.FileFunction,Soldermask,Bot*%
%TF.FilePolarity,Negative*%
%FSLAX46Y46*%
G04 Gerber Fmt 4.6, Leading zero omitted, Abs format (unit mm)*
G04 Created by KiCad (PCBNEW (7.99.0-267-g8440d7258b)) date 2023-05-05 14:35:45*
%MOMM*%
%LPD*%
G01*
G04 APERTURE LIST*
G04 Aperture macros list*
%AMRoundRect*
0 Rectangle with rounded corners*
0 $1 Rounding radius*
0 $2 $3 $4 $5 $6 $7 $8 $9 X,Y pos of 4 corners*
0 Add a 4 corners polygon primitive as box body*
4,1,4,$2,$3,$4,$5,$6,$7,$8,$9,$2,$3,0*
0 Add four circle primitives for the rounded corners*
1,1,$1+$1,$2,$3*
1,1,$1+$1,$4,$5*
1,1,$1+$1,$6,$7*
1,1,$1+$1,$8,$9*
0 Add four rect primitives between the rounded corners*
20,1,$1+$1,$2,$3,$4,$5,0*
20,1,$1+$1,$4,$5,$6,$7,0*
20,1,$1+$1,$6,$7,$8,$9,0*
20,1,$1+$1,$8,$9,$2,$3,0*%
G04 Aperture macros list end*
%ADD10C,3.987800*%
%ADD11C,4.000000*%
%ADD12C,1.750000*%
%ADD13C,2.300000*%
%ADD14RoundRect,0.650000X0.650000X0.650000X-0.650000X0.650000X-0.650000X-0.650000X0.650000X-0.650000X0*%
%ADD15C,2.600000*%
%ADD16C,3.048000*%
%ADD17RoundRect,0.285750X-0.666750X-0.666750X0.666750X-0.666750X0.666750X0.666750X-0.666750X0.666750X0*%
%ADD18C,1.905000*%
%ADD19C,6.400000*%
%ADD20RoundRect,0.250000X0.625000X-0.350000X0.625000X0.350000X-0.625000X0.350000X-0.625000X-0.350000X0*%
%ADD21O,1.750000X1.200000*%
%ADD22O,1.700000X2.700000*%
%ADD23R,1.700000X1.700000*%
%ADD24O,1.700000X1.700000*%
%ADD25RoundRect,0.225000X0.375000X-0.225000X0.375000X0.225000X-0.375000X0.225000X-0.375000X-0.225000X0*%
%ADD26RoundRect,0.075000X0.075000X-0.662500X0.075000X0.662500X-0.075000X0.662500X-0.075000X-0.662500X0*%
%ADD27RoundRect,0.075000X0.662500X-0.075000X0.662500X0.075000X-0.662500X0.075000X-0.662500X-0.075000X0*%
%ADD28RoundRect,0.140000X-0.140000X-0.170000X0.140000X-0.170000X0.140000X0.170000X-0.140000X0.170000X0*%
%ADD29RoundRect,0.140000X-0.170000X0.140000X-0.170000X-0.140000X0.170000X-0.140000X0.170000X0.140000X0*%
%ADD30RoundRect,0.135000X0.135000X0.185000X-0.135000X0.185000X-0.135000X-0.185000X0.135000X-0.185000X0*%
%ADD31RoundRect,0.135000X0.185000X-0.135000X0.185000X0.135000X-0.185000X0.135000X-0.185000X-0.135000X0*%
%ADD32RoundRect,0.140000X0.170000X-0.140000X0.170000X0.140000X-0.170000X0.140000X-0.170000X-0.140000X0*%
%ADD33RoundRect,0.150000X0.512500X0.150000X-0.512500X0.150000X-0.512500X-0.150000X0.512500X-0.150000X0*%
%ADD34R,1.000000X1.700000*%
%ADD35RoundRect,0.150000X0.150000X-0.587500X0.150000X0.587500X-0.150000X0.587500X-0.150000X-0.587500X0*%
%ADD36RoundRect,0.140000X0.140000X0.170000X-0.140000X0.170000X-0.140000X-0.170000X0.140000X-0.170000X0*%
%ADD37RoundRect,0.150000X-0.587500X-0.150000X0.587500X-0.150000X0.587500X0.150000X-0.587500X0.150000X0*%
%ADD38RoundRect,0.150000X0.475000X0.150000X-0.475000X0.150000X-0.475000X-0.150000X0.475000X-0.150000X0*%
%ADD39RoundRect,0.250000X-0.625000X0.375000X-0.625000X-0.375000X0.625000X-0.375000X0.625000X0.375000X0*%
%ADD40RoundRect,0.135000X-0.135000X-0.185000X0.135000X-0.185000X0.135000X0.185000X-0.135000X0.185000X0*%
%ADD41RoundRect,0.150000X0.275000X-0.150000X0.275000X0.150000X-0.275000X0.150000X-0.275000X-0.150000X0*%
%ADD42RoundRect,0.175000X0.225000X-0.175000X0.225000X0.175000X-0.225000X0.175000X-0.225000X-0.175000X0*%
G04 APERTURE END LIST*
D10*
%TO.C,S2*%
X283047365Y-110689638D03*
D11*
X259234865Y-95449638D03*
D10*
X259234865Y-110689638D03*
D11*
X283047365Y-95449638D03*
%TD*%
D12*
%TO.C,SW71*%
X135336115Y-102434638D03*
D10*
X140416115Y-102434638D03*
D12*
X145496115Y-102434638D03*
D13*
X136606115Y-99894638D03*
X142956115Y-97354638D03*
%TD*%
D12*
%TO.C,SW12*%
X263806115Y-21594638D03*
D10*
X268886115Y-21594638D03*
D12*
X273966115Y-21594638D03*
D13*
X265076115Y-19054638D03*
X271426115Y-16514638D03*
%TD*%
D12*
%TO.C,SW26*%
X187696115Y-45374638D03*
D10*
X192776115Y-45374638D03*
D12*
X197856115Y-45374638D03*
D13*
X188966115Y-42834638D03*
X195316115Y-40294638D03*
%TD*%
D12*
%TO.C,SW76*%
X230336115Y-102434638D03*
D10*
X235416115Y-102434638D03*
D12*
X240496115Y-102434638D03*
D13*
X231606115Y-99894638D03*
X237956115Y-97354638D03*
%TD*%
D12*
%TO.C,SW21*%
X92596115Y-45374638D03*
D10*
X97676115Y-45374638D03*
D12*
X102756115Y-45374638D03*
D13*
X93866115Y-42834638D03*
X100216115Y-40294638D03*
%TD*%
D12*
%TO.C,SW24*%
X149656115Y-45374638D03*
D10*
X154736115Y-45374638D03*
D12*
X159816115Y-45374638D03*
D13*
X150926115Y-42834638D03*
X157276115Y-40294638D03*
%TD*%
D12*
%TO.C,SW25*%
X168676115Y-45374638D03*
D10*
X173756115Y-45374638D03*
D12*
X178836115Y-45374638D03*
D13*
X169946115Y-42834638D03*
X176296115Y-40294638D03*
%TD*%
D12*
%TO.C,SW60*%
X163906115Y-83414638D03*
D10*
X168986115Y-83414638D03*
D12*
X174066115Y-83414638D03*
D13*
X165176115Y-80874638D03*
X171526115Y-78334638D03*
%TD*%
D12*
%TO.C,SW83*%
X45008615Y-121454638D03*
D10*
X50088615Y-121454638D03*
D12*
X55168615Y-121454638D03*
D13*
X46278615Y-118914638D03*
X52628615Y-116374638D03*
%TD*%
D12*
%TO.C,SW74*%
X192336115Y-102434638D03*
D10*
X197416115Y-102434638D03*
D12*
X202496115Y-102434638D03*
D13*
X193606115Y-99894638D03*
X199956115Y-97354638D03*
%TD*%
D12*
%TO.C,SW9*%
X197206115Y-21594638D03*
D10*
X202286115Y-21594638D03*
D12*
X207366115Y-21594638D03*
D13*
X198476115Y-19054638D03*
X204826115Y-16514638D03*
%TD*%
D12*
%TO.C,SW32*%
X306606115Y-45374638D03*
D10*
X311686115Y-45374638D03*
D12*
X316766115Y-45374638D03*
D13*
X307876115Y-42834638D03*
X314226115Y-40294638D03*
%TD*%
D12*
%TO.C,SW53*%
X23638615Y-83414638D03*
D10*
X28718615Y-83414638D03*
D12*
X33798615Y-83414638D03*
D13*
X24908615Y-80874638D03*
X31258615Y-78334638D03*
%TD*%
D12*
%TO.C,SW90*%
X325626115Y-121454638D03*
D10*
X330706115Y-121454638D03*
D12*
X335786115Y-121454638D03*
D13*
X326896115Y-118914638D03*
X333246115Y-116374638D03*
%TD*%
D12*
%TO.C,SW65*%
X270846088Y-83414669D03*
D10*
X275926088Y-83414669D03*
D12*
X281006088Y-83414669D03*
D13*
X272116088Y-80874669D03*
X278466088Y-78334669D03*
%TD*%
D12*
%TO.C,SW84*%
X68711115Y-121454638D03*
D10*
X73791115Y-121454638D03*
D12*
X78871115Y-121454638D03*
D13*
X69981115Y-118914638D03*
X76331115Y-116374638D03*
%TD*%
D12*
%TO.C,SW39*%
X102056115Y-64394638D03*
D10*
X107136115Y-64394638D03*
D12*
X112216115Y-64394638D03*
D13*
X103326115Y-61854638D03*
X109676115Y-59314638D03*
%TD*%
D12*
%TO.C,SW86*%
X230631115Y-121454638D03*
D10*
X235711115Y-121454638D03*
D12*
X240791115Y-121454638D03*
D13*
X231901115Y-118914638D03*
X238251115Y-116374638D03*
%TD*%
D12*
%TO.C,SW63*%
X220926115Y-83414638D03*
D10*
X226006115Y-83414638D03*
D12*
X231086115Y-83414638D03*
D13*
X222196115Y-80874638D03*
X228546115Y-78334638D03*
%TD*%
D12*
%TO.C,SW35*%
X21246115Y-64394638D03*
D10*
X26326115Y-64394638D03*
D12*
X31406115Y-64394638D03*
D13*
X22516115Y-61854638D03*
X28866115Y-59314638D03*
%TD*%
D12*
%TO.C,SW15*%
X325626115Y-21591179D03*
D10*
X330706115Y-21591179D03*
D12*
X335786115Y-21591179D03*
D13*
X326896115Y-19051179D03*
X333246115Y-16511179D03*
%TD*%
D14*
%TO.C,JP1*%
X139192000Y-121451498D03*
D15*
X134112000Y-121451498D03*
%TD*%
D12*
%TO.C,SW47*%
X254216115Y-64394638D03*
D10*
X259296115Y-64394638D03*
D12*
X264376115Y-64394638D03*
D13*
X255486115Y-61854638D03*
X261836115Y-59314638D03*
%TD*%
D16*
%TO.C,S4*%
X21589865Y-95449638D03*
D10*
X21589865Y-110689638D03*
D16*
X45402365Y-95449638D03*
D10*
X45402365Y-110689638D03*
%TD*%
D12*
%TO.C,SW41*%
X140096115Y-64394638D03*
D10*
X145176115Y-64394638D03*
D12*
X150256115Y-64394638D03*
D13*
X141366115Y-61854638D03*
X147716115Y-59314638D03*
%TD*%
D12*
%TO.C,SW62*%
X201926115Y-83414638D03*
D10*
X207006115Y-83414638D03*
D12*
X212086115Y-83414638D03*
D13*
X203196115Y-80874638D03*
X209546115Y-78334638D03*
%TD*%
D12*
%TO.C,SW89*%
X306606115Y-121454638D03*
D10*
X311686115Y-121454638D03*
D12*
X316766115Y-121454638D03*
D13*
X307876115Y-118914638D03*
X314226115Y-116374638D03*
%TD*%
D12*
%TO.C,SW49*%
X306606115Y-64394638D03*
D10*
X311686115Y-64394638D03*
D12*
X316766115Y-64394638D03*
D13*
X307876115Y-61854638D03*
X314226115Y-59314638D03*
%TD*%
D12*
%TO.C,SW28*%
X225736115Y-45374638D03*
D10*
X230816115Y-45374638D03*
D12*
X235896115Y-45374638D03*
D13*
X227006115Y-42834638D03*
X233356115Y-40294638D03*
%TD*%
D12*
%TO.C,SW10*%
X225736115Y-21594638D03*
D10*
X230816115Y-21594638D03*
D12*
X235896115Y-21594638D03*
D13*
X227006115Y-19054638D03*
X233356115Y-16514638D03*
%TD*%
D12*
%TO.C,SW1*%
X16516115Y-21594638D03*
D10*
X21596115Y-21594638D03*
D12*
X26676115Y-21594638D03*
D13*
X17786115Y-19054638D03*
X24136115Y-16514638D03*
%TD*%
D12*
%TO.C,SW70*%
X116336115Y-102434638D03*
D10*
X121416115Y-102434638D03*
D12*
X126496115Y-102434638D03*
D13*
X117606115Y-99894638D03*
X123956115Y-97354638D03*
%TD*%
D12*
%TO.C,SW13*%
X282826115Y-21594638D03*
D10*
X287906115Y-21594638D03*
D12*
X292986115Y-21594638D03*
D13*
X284096115Y-19054638D03*
X290446115Y-16514638D03*
%TD*%
D12*
%TO.C,SW87*%
X254358615Y-121454638D03*
D10*
X259438615Y-121454638D03*
D12*
X264518615Y-121454638D03*
D13*
X255628615Y-118914638D03*
X261978615Y-116374638D03*
%TD*%
D12*
%TO.C,SW11*%
X244756115Y-21594638D03*
D10*
X249836115Y-21594638D03*
D12*
X254916115Y-21594638D03*
D13*
X246026115Y-19054638D03*
X252376115Y-16514638D03*
%TD*%
D12*
%TO.C,SW27*%
X206716115Y-45374638D03*
D10*
X211796115Y-45374638D03*
D12*
X216876115Y-45374638D03*
D13*
X207986115Y-42834638D03*
X214336115Y-40294638D03*
%TD*%
D17*
%TO.C,D90*%
X331976115Y-26671179D03*
D18*
X329436115Y-26671179D03*
%TD*%
D12*
%TO.C,SW37*%
X64016115Y-64394638D03*
D10*
X69096115Y-64394638D03*
D12*
X74176115Y-64394638D03*
D13*
X65286115Y-61854638D03*
X71636115Y-59314638D03*
%TD*%
D12*
%TO.C,SW5*%
X111616534Y-21599485D03*
D10*
X116696534Y-21599485D03*
D12*
X121776534Y-21599485D03*
D13*
X112886534Y-19059485D03*
X119236534Y-16519485D03*
%TD*%
D19*
%TO.C,H1*%
X301009027Y-77392443D03*
%TD*%
D12*
%TO.C,SW4*%
X92596534Y-21599485D03*
D10*
X97676534Y-21599485D03*
D12*
X102756534Y-21599485D03*
D13*
X93866534Y-19059485D03*
X100216534Y-16519485D03*
%TD*%
D12*
%TO.C,SW23*%
X130636115Y-45374638D03*
D10*
X135716115Y-45374638D03*
D12*
X140796115Y-45374638D03*
D13*
X131906115Y-42834638D03*
X138256115Y-40294638D03*
%TD*%
D12*
%TO.C,SW42*%
X159116115Y-64394638D03*
D10*
X164196115Y-64394638D03*
D12*
X169276115Y-64394638D03*
D13*
X160386115Y-61854638D03*
X166736115Y-59314638D03*
%TD*%
D12*
%TO.C,SW91*%
X344646115Y-121454638D03*
D10*
X349726115Y-121454638D03*
D12*
X354806115Y-121454638D03*
D13*
X345916115Y-118914638D03*
X352266115Y-116374638D03*
%TD*%
D12*
%TO.C,SW22*%
X111616115Y-45374638D03*
D10*
X116696115Y-45374638D03*
D12*
X121776115Y-45374638D03*
D13*
X112886115Y-42834638D03*
X119236115Y-40294638D03*
%TD*%
D12*
%TO.C,SW64*%
X239926115Y-83414638D03*
D10*
X245006115Y-83414638D03*
D12*
X250086115Y-83414638D03*
D13*
X241196115Y-80874638D03*
X247546115Y-78334638D03*
%TD*%
D12*
%TO.C,SW81*%
X325626115Y-102434638D03*
D10*
X330706115Y-102434638D03*
D12*
X335786115Y-102434638D03*
D13*
X326896115Y-99894638D03*
X333246115Y-97354638D03*
%TD*%
D12*
%TO.C,SW52*%
X18876115Y-83414638D03*
D10*
X23956115Y-83414638D03*
D12*
X29036115Y-83414638D03*
D13*
X20146115Y-80874638D03*
X26496115Y-78334638D03*
%TD*%
D12*
%TO.C,SW30*%
X273301115Y-45374638D03*
D10*
X278381115Y-45374638D03*
D12*
X283461115Y-45374638D03*
D13*
X274571115Y-42834638D03*
X280921115Y-40294638D03*
%TD*%
D20*
%TO.C,J4*%
X347689000Y-105505000D03*
D21*
X347688999Y-103504999D03*
X347688999Y-101504999D03*
%TD*%
D12*
%TO.C,SW51*%
X344646115Y-64394638D03*
D10*
X349726115Y-64394638D03*
D12*
X354806115Y-64394638D03*
D13*
X345916115Y-61854638D03*
X352266115Y-59314638D03*
%TD*%
D12*
%TO.C,SW34*%
X344646115Y-45374638D03*
D10*
X349726115Y-45374638D03*
D12*
X354806115Y-45374638D03*
D13*
X345916115Y-42834638D03*
X352266115Y-40294638D03*
%TD*%
D12*
%TO.C,SW66*%
X28416115Y-102434638D03*
D10*
X33496115Y-102434638D03*
D12*
X38576115Y-102434638D03*
D13*
X29686115Y-99894638D03*
X36036115Y-97354638D03*
%TD*%
D12*
%TO.C,SW8*%
X178186115Y-21594638D03*
D10*
X183266115Y-21594638D03*
D12*
X188346115Y-21594638D03*
D13*
X179456115Y-19054638D03*
X185806115Y-16514638D03*
%TD*%
D12*
%TO.C,SW36*%
X44996115Y-64394638D03*
D10*
X50076115Y-64394638D03*
D12*
X55156115Y-64394638D03*
D13*
X46266115Y-61854638D03*
X52616115Y-59314638D03*
%TD*%
D12*
%TO.C,SW68*%
X78336115Y-102434638D03*
D10*
X83416115Y-102434638D03*
D12*
X88496115Y-102434638D03*
D13*
X79606115Y-99894638D03*
X85956115Y-97354638D03*
%TD*%
D12*
%TO.C,SW19*%
X54556115Y-45374638D03*
D10*
X59636115Y-45374638D03*
D12*
X64716115Y-45374638D03*
D13*
X55826115Y-42834638D03*
X62176115Y-40294638D03*
%TD*%
D12*
%TO.C,SW73*%
X173336115Y-102434638D03*
D10*
X178416115Y-102434638D03*
D12*
X183496115Y-102434638D03*
D13*
X174606115Y-99894638D03*
X180956115Y-97354638D03*
%TD*%
D12*
%TO.C,SW78*%
X266061115Y-102434638D03*
D10*
X271141115Y-102434638D03*
D12*
X276221115Y-102434638D03*
D13*
X267331115Y-99894638D03*
X273681115Y-97354638D03*
%TD*%
D12*
%TO.C,SW61*%
X182926115Y-83414638D03*
D10*
X188006115Y-83414638D03*
D12*
X193086115Y-83414638D03*
D13*
X184196115Y-80874638D03*
X190546115Y-78334638D03*
%TD*%
D12*
%TO.C,SW43*%
X178136115Y-64394638D03*
D10*
X183216115Y-64394638D03*
D12*
X188296115Y-64394638D03*
D13*
X179406115Y-61854638D03*
X185756115Y-59314638D03*
%TD*%
D12*
%TO.C,SW33*%
X325626115Y-45374638D03*
D10*
X330706115Y-45374638D03*
D12*
X335786115Y-45374638D03*
D13*
X326896115Y-42834638D03*
X333246115Y-40294638D03*
%TD*%
D12*
%TO.C,SW88*%
X278076115Y-121454638D03*
D10*
X283156115Y-121454638D03*
D12*
X288236115Y-121454638D03*
D13*
X279346115Y-118914638D03*
X285696115Y-116374638D03*
%TD*%
D22*
%TO.C,J2*%
X303446114Y-12849999D03*
X296146114Y-12849999D03*
X303446114Y-17349999D03*
X296146114Y-17349999D03*
%TD*%
D12*
%TO.C,SW56*%
X87886115Y-83414638D03*
D10*
X92966115Y-83414638D03*
D12*
X98046115Y-83414638D03*
D13*
X89156115Y-80874638D03*
X95506115Y-78334638D03*
%TD*%
D16*
%TO.C,S5*%
X211897529Y-128436498D03*
D10*
X211897529Y-113196498D03*
D16*
X97597529Y-128436498D03*
D10*
X97597529Y-113196498D03*
%TD*%
D12*
%TO.C,SW40*%
X121076115Y-64394638D03*
D10*
X126156115Y-64394638D03*
D12*
X131236115Y-64394638D03*
D13*
X122346115Y-61854638D03*
X128696115Y-59314638D03*
%TD*%
D12*
%TO.C,SW20*%
X73576115Y-45374638D03*
D10*
X78656115Y-45374638D03*
D12*
X83736115Y-45374638D03*
D13*
X74846115Y-42834638D03*
X81196115Y-40294638D03*
%TD*%
D12*
%TO.C,SW69*%
X97336115Y-102434638D03*
D10*
X102416115Y-102434638D03*
D12*
X107496115Y-102434638D03*
D13*
X98606115Y-99894638D03*
X104956115Y-97354638D03*
%TD*%
D12*
%TO.C,SW16*%
X344646115Y-21594638D03*
D10*
X349726115Y-21594638D03*
D12*
X354806115Y-21594638D03*
D13*
X345916115Y-19054638D03*
X352266115Y-16514638D03*
%TD*%
D12*
%TO.C,SW7*%
X159166115Y-21594638D03*
D10*
X164246115Y-21594638D03*
D12*
X169326115Y-21594638D03*
D13*
X160436115Y-19054638D03*
X166786115Y-16514638D03*
%TD*%
D12*
%TO.C,SW67*%
X59336115Y-102434638D03*
D10*
X64416115Y-102434638D03*
D12*
X69496115Y-102434638D03*
D13*
X60606115Y-99894638D03*
X66956115Y-97354638D03*
%TD*%
D12*
%TO.C,SW50*%
X325626115Y-64394638D03*
D10*
X330706115Y-64394638D03*
D12*
X335786115Y-64394638D03*
D13*
X326896115Y-61854638D03*
X333246115Y-59314638D03*
%TD*%
D12*
%TO.C,SW72*%
X154336115Y-102434638D03*
D10*
X159416115Y-102434638D03*
D12*
X164496115Y-102434638D03*
D13*
X155606115Y-99894638D03*
X161956115Y-97354638D03*
%TD*%
D12*
%TO.C,SW3*%
X73576534Y-21599485D03*
D10*
X78656534Y-21599485D03*
D12*
X83736534Y-21599485D03*
D13*
X74846534Y-19059485D03*
X81196534Y-16519485D03*
%TD*%
D12*
%TO.C,SW57*%
X106886115Y-83414638D03*
D10*
X111966115Y-83414638D03*
D12*
X117046115Y-83414638D03*
D13*
X108156115Y-80874638D03*
X114506115Y-78334638D03*
%TD*%
D16*
%TO.C,S3*%
X287832338Y-90399669D03*
D10*
X287832338Y-75159669D03*
D16*
X264019838Y-90399669D03*
D10*
X264019838Y-75159669D03*
%TD*%
D19*
%TO.C,H2*%
X355726066Y-89414572D03*
%TD*%
D12*
%TO.C,SW77*%
X256551115Y-102434638D03*
D10*
X261631115Y-102434638D03*
D12*
X266711115Y-102434638D03*
D13*
X257821115Y-99894638D03*
X264171115Y-97354638D03*
%TD*%
D12*
%TO.C,SW59*%
X144886115Y-83414638D03*
D10*
X149966115Y-83414638D03*
D12*
X155046115Y-83414638D03*
D13*
X146156115Y-80874638D03*
X152506115Y-78334638D03*
%TD*%
D12*
%TO.C,SW44*%
X197156115Y-64394638D03*
D10*
X202236115Y-64394638D03*
D12*
X207316115Y-64394638D03*
D13*
X198426115Y-61854638D03*
X204776115Y-59314638D03*
%TD*%
D12*
%TO.C,SW29*%
X244756115Y-45374638D03*
D10*
X249836115Y-45374638D03*
D12*
X254916115Y-45374638D03*
D13*
X246026115Y-42834638D03*
X252376115Y-40294638D03*
%TD*%
D12*
%TO.C,SW82*%
X21266115Y-121454638D03*
D10*
X26346115Y-121454638D03*
D12*
X31426115Y-121454638D03*
D13*
X22536115Y-118914638D03*
X28886115Y-116374638D03*
%TD*%
D12*
%TO.C,SW75*%
X211336115Y-102434638D03*
D10*
X216416115Y-102434638D03*
D12*
X221496115Y-102434638D03*
D13*
X212606115Y-99894638D03*
X218956115Y-97354638D03*
%TD*%
D12*
%TO.C,SW55*%
X68886115Y-83414638D03*
D10*
X73966115Y-83414638D03*
D12*
X79046115Y-83414638D03*
D13*
X70156115Y-80874638D03*
X76506115Y-78334638D03*
%TD*%
D12*
%TO.C,SW38*%
X83036115Y-64394638D03*
D10*
X88116115Y-64394638D03*
D12*
X93196115Y-64394638D03*
D13*
X84306115Y-61854638D03*
X90656115Y-59314638D03*
%TD*%
D12*
%TO.C,SW80*%
X282811115Y-45374638D03*
D10*
X287891115Y-45374638D03*
D12*
X292971115Y-45374638D03*
D13*
X284081115Y-42834638D03*
X290431115Y-40294638D03*
%TD*%
D12*
%TO.C,SW14*%
X306606115Y-21594638D03*
D10*
X311686115Y-21594638D03*
D12*
X316766115Y-21594638D03*
D13*
X307876115Y-19054638D03*
X314226115Y-16514638D03*
%TD*%
D12*
%TO.C,SW48*%
X278031115Y-64394638D03*
D10*
X283111115Y-64394638D03*
D12*
X288191115Y-64394638D03*
D13*
X279301115Y-61854638D03*
X285651115Y-59314638D03*
%TD*%
D12*
%TO.C,SW31*%
X263791115Y-45374638D03*
D10*
X268871115Y-45374638D03*
D12*
X273951115Y-45374638D03*
D13*
X265061115Y-42834638D03*
X271411115Y-40294638D03*
%TD*%
D12*
%TO.C,SW79*%
X275571115Y-102434638D03*
D10*
X280651115Y-102434638D03*
D12*
X285731115Y-102434638D03*
D13*
X276841115Y-99894638D03*
X283191115Y-97354638D03*
%TD*%
D12*
%TO.C,SW6*%
X140146115Y-21594638D03*
D10*
X145226115Y-21594638D03*
D12*
X150306115Y-21594638D03*
D13*
X141416115Y-19054638D03*
X147766115Y-16514638D03*
%TD*%
D17*
%TO.C,D91*%
X22686115Y-88494638D03*
D18*
X25226115Y-88494638D03*
%TD*%
D17*
%TO.C,D89*%
X29988615Y-88494638D03*
D18*
X27448615Y-88494638D03*
%TD*%
D11*
%TO.C,S1*%
X266474865Y-38389638D03*
D10*
X266474865Y-53629638D03*
D11*
X290287365Y-38389638D03*
D10*
X290287365Y-53629638D03*
%TD*%
D12*
%TO.C,SW46*%
X235196115Y-64394638D03*
D10*
X240276115Y-64394638D03*
D12*
X245356115Y-64394638D03*
D13*
X236466115Y-61854638D03*
X242816115Y-59314638D03*
%TD*%
D23*
%TO.C,J3*%
X343206114Y-105984628D03*
D24*
X343206114Y-103444628D03*
X343206114Y-100904628D03*
%TD*%
D12*
%TO.C,SW45*%
X216176115Y-64394638D03*
D10*
X221256115Y-64394638D03*
D12*
X226336115Y-64394638D03*
D13*
X217446115Y-61854638D03*
X223796115Y-59314638D03*
%TD*%
D12*
%TO.C,SW17*%
X16516115Y-45374638D03*
D10*
X21596115Y-45374638D03*
D12*
X26676115Y-45374638D03*
D13*
X17786115Y-42834638D03*
X24136115Y-40294638D03*
%TD*%
D12*
%TO.C,SW54*%
X49886115Y-83414638D03*
D10*
X54966115Y-83414638D03*
D12*
X60046115Y-83414638D03*
D13*
X51156115Y-80874638D03*
X57506115Y-78334638D03*
%TD*%
D12*
%TO.C,SW2*%
X54556534Y-21599485D03*
D10*
X59636534Y-21599485D03*
D12*
X64716534Y-21599485D03*
D13*
X55826534Y-19059485D03*
X62176534Y-16519485D03*
%TD*%
D12*
%TO.C,SW58*%
X125886115Y-83414638D03*
D10*
X130966115Y-83414638D03*
D12*
X136046115Y-83414638D03*
D13*
X127156115Y-80874638D03*
X133506115Y-78334638D03*
%TD*%
D12*
%TO.C,SW85*%
X149667529Y-121451498D03*
D10*
X154747529Y-121451498D03*
D12*
X159827529Y-121451498D03*
D13*
X150937529Y-118911498D03*
X157287529Y-116371498D03*
%TD*%
D12*
%TO.C,SW18*%
X35536115Y-45374638D03*
D10*
X40616115Y-45374638D03*
D12*
X45696115Y-45374638D03*
D13*
X36806115Y-42834638D03*
X43156115Y-40294638D03*
%TD*%
D25*
%TO.C,D9*%
X205455115Y-26413638D03*
X205455115Y-23113638D03*
%TD*%
%TO.C,D47*%
X286280115Y-69213638D03*
X286280115Y-65913638D03*
%TD*%
D26*
%TO.C,U2*%
X333456115Y-87577138D03*
X332956115Y-87577138D03*
X332456115Y-87577138D03*
X331956115Y-87577138D03*
X331456115Y-87577138D03*
X330956115Y-87577138D03*
X330456115Y-87577138D03*
X329956115Y-87577138D03*
X329456115Y-87577138D03*
X328956115Y-87577138D03*
X328456115Y-87577138D03*
X327956115Y-87577138D03*
D27*
X326543615Y-86164638D03*
X326543615Y-85664638D03*
X326543615Y-85164638D03*
X326543615Y-84664638D03*
X326543615Y-84164638D03*
X326543615Y-83664638D03*
X326543615Y-83164638D03*
X326543615Y-82664638D03*
X326543615Y-82164638D03*
X326543615Y-81664638D03*
X326543615Y-81164638D03*
X326543615Y-80664638D03*
D26*
X327956115Y-79252138D03*
X328456115Y-79252138D03*
X328956115Y-79252138D03*
X329456115Y-79252138D03*
X329956115Y-79252138D03*
X330456115Y-79252138D03*
X330956115Y-79252138D03*
X331456115Y-79252138D03*
X331956115Y-79252138D03*
X332456115Y-79252138D03*
X332956115Y-79252138D03*
X333456115Y-79252138D03*
D27*
X334868615Y-80664638D03*
X334868615Y-81164638D03*
X334868615Y-81664638D03*
X334868615Y-82164638D03*
X334868615Y-82664638D03*
X334868615Y-83164638D03*
X334868615Y-83664638D03*
X334868615Y-84164638D03*
X334868615Y-84664638D03*
X334868615Y-85164638D03*
X334868615Y-85664638D03*
X334868615Y-86164638D03*
%TD*%
D25*
%TO.C,D5*%
X119865534Y-26418485D03*
X119865534Y-23118485D03*
%TD*%
D28*
%TO.C,C11*%
X346004000Y-87120000D03*
X346964000Y-87120000D03*
%TD*%
D25*
%TO.C,D45*%
X243445115Y-69213638D03*
X243445115Y-65913638D03*
%TD*%
%TO.C,D75*%
X264541000Y-107253638D03*
X264541000Y-103953638D03*
%TD*%
%TO.C,D2*%
X62805534Y-26418485D03*
X62805534Y-23118485D03*
%TD*%
%TO.C,D28*%
X233985115Y-50193638D03*
X233985115Y-46893638D03*
%TD*%
%TO.C,D12*%
X272055115Y-26413638D03*
X272055115Y-23113638D03*
%TD*%
%TO.C,D73*%
X219585115Y-107253638D03*
X219585115Y-103953638D03*
%TD*%
%TO.C,D22*%
X119865115Y-50193638D03*
X119865115Y-46893638D03*
%TD*%
%TO.C,D78*%
X333875115Y-107253638D03*
X333875115Y-103953638D03*
%TD*%
%TO.C,D31*%
X314855115Y-50193638D03*
X314855115Y-46893638D03*
%TD*%
%TO.C,D67*%
X105585115Y-107253638D03*
X105585115Y-103953638D03*
%TD*%
%TO.C,D4*%
X100845534Y-26418485D03*
X100845534Y-23118485D03*
%TD*%
%TO.C,D11*%
X253005115Y-26413638D03*
X253005115Y-23113638D03*
%TD*%
%TO.C,D87*%
X333875115Y-126273638D03*
X333875115Y-122973638D03*
%TD*%
%TO.C,D44*%
X224425115Y-69213638D03*
X224425115Y-65913638D03*
%TD*%
D29*
%TO.C,C12*%
X342900000Y-85243000D03*
X342900000Y-86203000D03*
%TD*%
D30*
%TO.C,R5*%
X331472000Y-29464000D03*
X330452000Y-29464000D03*
%TD*%
D25*
%TO.C,D6*%
X148395115Y-26413638D03*
X148395115Y-23113638D03*
%TD*%
%TO.C,D33*%
X352895115Y-50193638D03*
X352895115Y-46893638D03*
%TD*%
%TO.C,D21*%
X100845115Y-50193638D03*
X100845115Y-46893638D03*
%TD*%
%TO.C,D16*%
X352895115Y-26413638D03*
X352895115Y-23113638D03*
%TD*%
%TO.C,D15*%
X333875115Y-25018000D03*
X333875115Y-21718000D03*
%TD*%
%TO.C,D8*%
X186435115Y-26413638D03*
X186435115Y-23113638D03*
%TD*%
D31*
%TO.C,R2*%
X342900000Y-84201000D03*
X342900000Y-83181000D03*
%TD*%
D25*
%TO.C,D52*%
X58135115Y-88233638D03*
X58135115Y-84933638D03*
%TD*%
%TO.C,D66*%
X86585115Y-107253638D03*
X86585115Y-103953638D03*
%TD*%
%TO.C,D58*%
X172155115Y-88233638D03*
X172155115Y-84933638D03*
%TD*%
%TO.C,D41*%
X167365115Y-69213638D03*
X167365115Y-65913638D03*
%TD*%
%TO.C,D42*%
X186385115Y-69213638D03*
X186385115Y-65913638D03*
%TD*%
D32*
%TO.C,C7*%
X324993000Y-79601000D03*
X324993000Y-78641000D03*
%TD*%
D25*
%TO.C,D1*%
X24765115Y-26413638D03*
X24765115Y-23113638D03*
%TD*%
%TO.C,D20*%
X81825115Y-50193638D03*
X81825115Y-46893638D03*
%TD*%
%TO.C,D54*%
X96135115Y-88233638D03*
X96135115Y-84933638D03*
%TD*%
%TO.C,D19*%
X62805115Y-50193638D03*
X62805115Y-46893638D03*
%TD*%
%TO.C,D62*%
X248175115Y-88233638D03*
X248175115Y-84933638D03*
%TD*%
%TO.C,D40*%
X148345115Y-69213638D03*
X148345115Y-65913638D03*
%TD*%
%TO.C,D51*%
X37338000Y-88233638D03*
X37338000Y-84933638D03*
%TD*%
%TO.C,D3*%
X81825534Y-26418485D03*
X81825534Y-23118485D03*
%TD*%
%TO.C,D35*%
X53245115Y-69213638D03*
X53245115Y-65913638D03*
%TD*%
%TO.C,D50*%
X352895115Y-69213638D03*
X352895115Y-65913638D03*
%TD*%
%TO.C,D88*%
X352895115Y-126273638D03*
X352895115Y-122973638D03*
%TD*%
%TO.C,D76*%
X277749000Y-107253638D03*
X277749000Y-103953638D03*
%TD*%
%TO.C,D10*%
X233985115Y-26413638D03*
X233985115Y-23113638D03*
%TD*%
D32*
%TO.C,C5*%
X334518000Y-79121000D03*
X334518000Y-78161000D03*
%TD*%
%TO.C,C6*%
X334518000Y-88999000D03*
X334518000Y-88039000D03*
%TD*%
D25*
%TO.C,D71*%
X181585115Y-107253638D03*
X181585115Y-103953638D03*
%TD*%
%TO.C,D48*%
X314855115Y-69213638D03*
X314855115Y-65913638D03*
%TD*%
D33*
%TO.C,U4*%
X313684500Y-81727000D03*
X313684500Y-82677000D03*
X313684500Y-83627000D03*
X311409500Y-83627000D03*
X311409500Y-81727000D03*
%TD*%
D25*
%TO.C,D86*%
X314855115Y-126273638D03*
X314855115Y-122973638D03*
%TD*%
%TO.C,D84*%
X262607615Y-126273638D03*
X262607615Y-122973638D03*
%TD*%
D32*
%TO.C,C9*%
X298196000Y-28498500D03*
X298196000Y-27538500D03*
%TD*%
D25*
%TO.C,D57*%
X153135115Y-88233638D03*
X153135115Y-84933638D03*
%TD*%
D31*
%TO.C,R3*%
X341884000Y-86233000D03*
X341884000Y-85213000D03*
%TD*%
D25*
%TO.C,D36*%
X72265115Y-69213638D03*
X72265115Y-65913638D03*
%TD*%
%TO.C,D53*%
X77135115Y-88233638D03*
X77135115Y-84933638D03*
%TD*%
%TO.C,D7*%
X167415115Y-26413638D03*
X167415115Y-23113638D03*
%TD*%
D34*
%TO.C,SW92*%
X355345999Y-82372999D03*
X355345999Y-76072999D03*
X351545999Y-82372999D03*
X351545999Y-76072999D03*
%TD*%
D25*
%TO.C,D74*%
X238585115Y-107253638D03*
X238585115Y-103953638D03*
%TD*%
D35*
%TO.C,U1*%
X296860000Y-28956000D03*
X294960000Y-28956000D03*
X295910000Y-27081000D03*
%TD*%
D25*
%TO.C,D25*%
X176925115Y-50193638D03*
X176925115Y-46893638D03*
%TD*%
%TO.C,D59*%
X191175115Y-88233638D03*
X191175115Y-84933638D03*
%TD*%
%TO.C,D65*%
X67585115Y-107253638D03*
X67585115Y-103953638D03*
%TD*%
D32*
%TO.C,C4*%
X334555500Y-77188000D03*
X334555500Y-76228000D03*
%TD*%
D25*
%TO.C,D68*%
X124585115Y-107253638D03*
X124585115Y-103953638D03*
%TD*%
%TO.C,D79*%
X29515115Y-126273638D03*
X29515115Y-122973638D03*
%TD*%
%TO.C,D32*%
X333875115Y-50193638D03*
X333875115Y-46893638D03*
%TD*%
D29*
%TO.C,C13*%
X309753000Y-81717000D03*
X309753000Y-82677000D03*
%TD*%
D25*
%TO.C,D23*%
X138885115Y-50193638D03*
X138885115Y-46893638D03*
%TD*%
%TO.C,D26*%
X195945115Y-50193638D03*
X195945115Y-46893638D03*
%TD*%
D32*
%TO.C,C8*%
X333502000Y-77188000D03*
X333502000Y-76228000D03*
%TD*%
D25*
%TO.C,D63*%
X279095088Y-88233669D03*
X279095088Y-84933669D03*
%TD*%
D36*
%TO.C,C10*%
X296390000Y-30558500D03*
X295430000Y-30558500D03*
%TD*%
D32*
%TO.C,C3*%
X326136000Y-79601000D03*
X326136000Y-78641000D03*
%TD*%
D25*
%TO.C,D27*%
X214965115Y-50193638D03*
X214965115Y-46893638D03*
%TD*%
%TO.C,D72*%
X200585115Y-107253638D03*
X200585115Y-103953638D03*
%TD*%
%TO.C,D64*%
X36665115Y-107253638D03*
X36665115Y-103953638D03*
%TD*%
%TO.C,D18*%
X43785115Y-50193638D03*
X43785115Y-46893638D03*
%TD*%
%TO.C,D56*%
X134135115Y-88233638D03*
X134135115Y-84933638D03*
%TD*%
%TO.C,D80*%
X53257615Y-126273638D03*
X53257615Y-122973638D03*
%TD*%
%TO.C,D43*%
X205405115Y-69213638D03*
X205405115Y-65913638D03*
%TD*%
%TO.C,D82*%
X157916529Y-126270498D03*
X157916529Y-122970498D03*
%TD*%
%TO.C,D55*%
X115135115Y-88233638D03*
X115135115Y-84933638D03*
%TD*%
%TO.C,D85*%
X286325115Y-126273638D03*
X286325115Y-122973638D03*
%TD*%
D37*
%TO.C,Q1*%
X344502500Y-85705500D03*
X344502500Y-83805500D03*
X346377500Y-84755500D03*
%TD*%
D25*
%TO.C,D61*%
X229175115Y-88233638D03*
X229175115Y-84933638D03*
%TD*%
%TO.C,D49*%
X333875115Y-69213638D03*
X333875115Y-65913638D03*
%TD*%
D38*
%TO.C,U3*%
X300609000Y-21244000D03*
X300609000Y-22194000D03*
X300609000Y-23144000D03*
X298259000Y-23144000D03*
X298259000Y-22194000D03*
X298259000Y-21244000D03*
%TD*%
D25*
%TO.C,D77*%
X284988000Y-50193638D03*
X284988000Y-46893638D03*
%TD*%
%TO.C,D81*%
X76960115Y-126273638D03*
X76960115Y-122973638D03*
%TD*%
%TO.C,D70*%
X162585115Y-107253638D03*
X162585115Y-103953638D03*
%TD*%
%TO.C,D69*%
X143585115Y-107253638D03*
X143585115Y-103953638D03*
%TD*%
%TO.C,D46*%
X262465115Y-69213638D03*
X262465115Y-65913638D03*
%TD*%
%TO.C,D30*%
X281550115Y-50193638D03*
X281550115Y-46893638D03*
%TD*%
D39*
%TO.C,F1*%
X295910000Y-22194000D03*
X295910000Y-24994000D03*
%TD*%
D25*
%TO.C,D17*%
X24765115Y-50193638D03*
X24765115Y-46893638D03*
%TD*%
D40*
%TO.C,R1*%
X344041000Y-87120000D03*
X345061000Y-87120000D03*
%TD*%
D25*
%TO.C,D39*%
X129325115Y-69213638D03*
X129325115Y-65913638D03*
%TD*%
%TO.C,D13*%
X291075115Y-26413638D03*
X291075115Y-23113638D03*
%TD*%
%TO.C,D29*%
X253005115Y-50193638D03*
X253005115Y-46893638D03*
%TD*%
D32*
%TO.C,C1*%
X335534000Y-79121000D03*
X335534000Y-78161000D03*
%TD*%
D25*
%TO.C,D14*%
X314855115Y-26413638D03*
X314855115Y-23113638D03*
%TD*%
%TO.C,D60*%
X210175115Y-88233638D03*
X210175115Y-84933638D03*
%TD*%
D32*
%TO.C,C2*%
X335534000Y-88999000D03*
X335534000Y-88039000D03*
%TD*%
D25*
%TO.C,D83*%
X238880115Y-126273638D03*
X238880115Y-122973638D03*
%TD*%
%TO.C,D34*%
X29495115Y-69213638D03*
X29495115Y-65913638D03*
%TD*%
D41*
%TO.C,J1*%
X354173000Y-104673000D03*
X354173000Y-103473000D03*
X354173000Y-102273000D03*
D42*
X350398000Y-105823000D03*
X350398000Y-101123000D03*
%TD*%
D25*
%TO.C,D38*%
X110305115Y-69213638D03*
X110305115Y-65913638D03*
%TD*%
%TO.C,D37*%
X91285115Y-69213638D03*
X91285115Y-65913638D03*
%TD*%
%TO.C,D24*%
X157905115Y-50193638D03*
X157905115Y-46893638D03*
%TD*%
D40*
%TO.C,R4*%
X25779000Y-90932000D03*
X26799000Y-90932000D03*
%TD*%
M02*
