M48
; DRILL file {KiCad (7.99.0-267-g8440d7258b)} date Saturday, May 06, 2023 at 01:22:07 AM
; FORMAT={-:-/ absolute / inch / decimal}
; #@! TF.CreationDate,2023-05-06T01:22:07-07:00
; #@! TF.GenerationSoftware,Kicad,Pcbnew,(7.99.0-267-g8440d7258b)
; #@! TF.FileFunction,Plated,1,2,PTH
FMAT,2
INCH
; #@! TA.AperFunction,Plated,PTH,ViaDrill
T1C0.0157
; #@! TA.AperFunction,Plated,PTH,ComponentDrill
T2C0.0276
; #@! TA.AperFunction,Plated,PTH,ComponentDrill
T3C0.0295
; #@! TA.AperFunction,Plated,PTH,ComponentDrill
T4C0.0394
; #@! TA.AperFunction,Plated,PTH,ComponentDrill
T5C0.0409
; #@! TA.AperFunction,Plated,PTH,ComponentDrill
T6C0.0512
; #@! TA.AperFunction,Plated,PTH,ComponentDrill
T7C0.0600
; #@! TA.AperFunction,Plated,PTH,ComponentDrill
T8C0.1200
; #@! TA.AperFunction,Plated,PTH,ComponentDrill
T9C0.1260
%
G90
G05
T1
X10.0585Y-2.825
X11.14Y-1.9214
X11.51Y-3.545
X11.515Y-1.035
X11.61Y-1.975
X11.61Y-4.2226
X11.705Y-0.77
X11.72Y-2.76
X11.74Y-1.17
X11.7666Y-0.7675
X11.8079Y-0.7675
X11.868Y-2.7746
X11.8839Y-1.9761
X11.9062Y-2.7651
X11.9664Y-2.515
X11.995Y-2.3195
X12.0925Y-1.035
X12.0925Y-3.0335
X12.0925Y-3.075
X12.195Y-3.295
X12.2739Y-3.3676
X12.305Y-3.3964
X12.35Y-4.222
X12.41Y-3.12
X12.41Y-3.215
X12.41Y-3.32
X12.538Y-4.223
X12.645Y-4.405
X12.715Y-3.1
X12.745Y-2.435
X12.745Y-4.05
X12.755Y-3.175
X12.8Y-3.0521
X12.835Y-4.194
X12.835Y-4.2512
X12.945Y-3.6
X12.955Y-3.645
X12.9608Y-2.9592
X13.005Y-3.645
X13.02Y-3.285
X13.0219Y-3.0204
X13.0627Y-3.5603
X13.125Y-2.4638
X13.165Y-3.5056
X13.21Y-3.035
X13.21Y-3.605
X13.2386Y-3.4164
X13.24Y-3.56
X13.245Y-3.075
X13.245Y-3.115
X13.265Y-2.8
X13.27Y-1.9475
X13.27Y-2.0047
X13.27Y-2.655
X13.3035Y-4.0539
X13.3214Y-4.1812
X13.3214Y-4.9428
X13.365Y-3.6
X13.3664Y-4.005
X13.3786Y-4.9428
X13.3798Y-3.6398
X13.386Y-3.9709
X13.49Y-3.45
X13.5398Y-2.8948
X13.5544Y-2.6963
X13.5696Y-2.9206
X13.5901Y-2.9541
X13.6187Y-2.985
X13.735Y-2.16
X13.735Y-3.3752
X13.8239Y-3.5561
X13.87Y-3.98
T3
X13.6885Y-3.9963
X13.6885Y-4.075
X13.6885Y-4.1537
T4
X13.5121Y-3.9726
X13.5121Y-4.0726
X13.5121Y-4.1726
T5
X0.8932Y-3.484
X0.9932Y-3.484
X1.0807Y-3.484
X1.1807Y-3.484
X12.97Y-1.05
X13.07Y-1.05
T6
X5.574Y-4.5866
X5.574Y-4.7866
T7
X0.7002Y-0.7502
X0.7002Y-1.6863
X0.7932Y-3.184
X0.8865Y-2.4352
X0.8865Y-4.6817
X0.9502Y-0.6502
X0.9502Y-1.5863
X0.9807Y-3.184
X1.0432Y-3.084
X1.1365Y-2.3352
X1.1365Y-4.5817
X1.1692Y-3.9328
X1.2307Y-3.084
X1.4192Y-3.8328
X1.4491Y-1.6863
X1.6991Y-1.5863
X1.8215Y-2.4351
X1.8215Y-4.6816
X2.014Y-3.184
X2.0715Y-2.3351
X2.0715Y-4.5816
X2.1979Y-1.6863
X2.1979Y-0.7504
X2.264Y-3.084
X2.3861Y-3.9328
X2.4479Y-1.5863
X2.4479Y-0.6504
X2.5703Y-2.4351
X2.6361Y-3.8328
X2.7575Y-4.6816
X2.7621Y-3.184
X2.8203Y-2.3351
X2.9467Y-1.6863
X2.9467Y-0.7504
X3.0075Y-4.5816
X3.0121Y-3.084
X3.1349Y-3.9328
X3.1967Y-1.5863
X3.1967Y-0.6504
X3.3191Y-2.4351
X3.3849Y-3.8328
X3.5101Y-3.184
X3.5691Y-2.3351
X3.6955Y-1.6863
X3.6955Y-0.7504
X3.7601Y-3.084
X3.8837Y-3.9328
X3.9455Y-1.5863
X3.9455Y-0.6504
X4.068Y-2.4351
X4.1337Y-3.8328
X4.2581Y-3.184
X4.318Y-2.3351
X4.4443Y-1.6863
X4.4444Y-0.7504
X4.5081Y-3.084
X4.6325Y-3.9328
X4.6943Y-1.5863
X4.6944Y-0.6504
X4.8168Y-2.4351
X4.8825Y-3.8328
X5.0061Y-3.184
X5.0668Y-2.3351
X5.1932Y-1.6863
X5.2561Y-3.084
X5.3813Y-3.9328
X5.4432Y-1.5863
X5.5656Y-2.4351
X5.5676Y-0.7502
X5.6313Y-3.8328
X5.7542Y-3.184
X5.8156Y-2.3351
X5.8176Y-0.6502
X5.942Y-1.6863
X5.9424Y-4.6816
X6.0042Y-3.084
X6.1302Y-3.9328
X6.192Y-1.5863
X6.1924Y-4.5816
X6.3144Y-2.4351
X6.3164Y-0.7502
X6.3802Y-3.8328
X6.503Y-3.184
X6.5644Y-2.3351
X6.5664Y-0.6502
X6.6908Y-1.6863
X6.753Y-3.084
X6.879Y-3.9328
X6.9408Y-1.5863
X7.0632Y-2.4351
X7.0652Y-0.7502
X7.129Y-3.8328
X7.2518Y-3.184
X7.3132Y-2.3351
X7.3152Y-0.6502
X7.4396Y-1.6863
X7.5018Y-3.084
X7.6278Y-3.9328
X7.6896Y-1.5863
X7.8121Y-2.4351
X7.814Y-0.7502
X7.8778Y-3.8328
X7.9998Y-3.184
X8.0621Y-2.3351
X8.064Y-0.6502
X8.1884Y-1.6863
X8.2498Y-3.084
X8.3766Y-3.9328
X8.4384Y-1.5863
X8.5609Y-2.4351
X8.6266Y-3.8328
X8.7479Y-3.184
X8.8109Y-2.3351
X8.9372Y-1.6863
X8.9384Y-0.7501
X8.9979Y-3.084
X9.1225Y-4.6816
X9.1254Y-3.9328
X9.1872Y-1.5863
X9.1884Y-0.6501
X9.3097Y-2.4351
X9.3725Y-4.5816
X9.3754Y-3.8328
X9.4959Y-3.184
X9.5597Y-2.3351
X9.6861Y-0.7501
X9.6861Y-1.6863
X9.7459Y-3.084
X9.9361Y-0.6501
X9.9361Y-1.5863
X10.0585Y-2.4352
X10.0585Y-4.6817
X10.1538Y-3.9328
X10.3085Y-2.3352
X10.3085Y-4.5817
X10.4038Y-3.8328
X10.4355Y-1.6864
X10.4361Y-0.7501
X10.5282Y-3.9328
X10.6855Y-1.5864
X10.6861Y-0.6501
X10.7132Y-3.184
X10.7782Y-3.8328
X10.8099Y-1.6864
X10.9026Y-3.9328
X10.9632Y-3.084
X10.9961Y-2.4352
X10.9961Y-4.6817
X11.0599Y-1.5864
X11.1526Y-3.8328
X11.1843Y-1.6864
X11.1849Y-0.7501
X11.2461Y-2.3352
X11.2461Y-4.5817
X11.4343Y-1.5864
X11.4349Y-0.6501
X12.1211Y-0.7501
X12.1211Y-1.6863
X12.1211Y-2.4351
X12.1211Y-4.6816
X12.3711Y-0.6501
X12.3711Y-1.5863
X12.3711Y-2.3351
X12.3711Y-4.5816
X12.8699Y-0.75
X12.8699Y-1.6863
X12.8699Y-2.4351
X12.8699Y-3.9328
X12.8699Y-4.6816
X13.1199Y-0.65
X13.1199Y-1.5863
X13.1199Y-2.3351
X13.1199Y-3.8328
X13.1199Y-4.5816
X13.6187Y-0.7501
X13.6187Y-1.6863
X13.6187Y-2.4351
X13.6187Y-4.6816
X13.8687Y-0.6501
X13.8687Y-1.5863
X13.8687Y-2.3351
X13.8687Y-4.5816
T8
X10.2094Y-3.7578
X10.4911Y-1.5114
X11.1469Y-3.7578
X11.4286Y-1.5114
T9
X11.8507Y-3.0469
X14.005Y-3.5203
T2
G00X11.6593Y-0.4823
M15
G01X11.6593Y-0.5295
M16
G05
G00X11.6593Y-0.6594
M15
G01X11.6593Y-0.7067
M16
G05
G00X11.9467Y-0.4823
M15
G01X11.9467Y-0.5295
M16
G05
G00X11.9467Y-0.6594
M15
G01X11.9467Y-0.7067
M16
G05
T0
M30
