%TF.GenerationSoftware,KiCad,Pcbnew,(7.99.0-267-g8440d7258b)*%
%TF.CreationDate,2023-07-06T22:55:22-07:00*%
%TF.ProjectId,1_2og_repro,315f326f-675f-4726-9570-726f2e6b6963,rev?*%
%TF.SameCoordinates,Original*%
%TF.FileFunction,Soldermask,Bot*%
%TF.FilePolarity,Negative*%
%FSLAX46Y46*%
G04 Gerber Fmt 4.6, Leading zero omitted, Abs format (unit mm)*
G04 Created by KiCad (PCBNEW (7.99.0-267-g8440d7258b)) date 2023-07-06 22:55:22*
%MOMM*%
%LPD*%
G01*
G04 APERTURE LIST*
G04 Aperture macros list*
%AMRoundRect*
0 Rectangle with rounded corners*
0 $1 Rounding radius*
0 $2 $3 $4 $5 $6 $7 $8 $9 X,Y pos of 4 corners*
0 Add a 4 corners polygon primitive as box body*
4,1,4,$2,$3,$4,$5,$6,$7,$8,$9,$2,$3,0*
0 Add four circle primitives for the rounded corners*
1,1,$1+$1,$2,$3*
1,1,$1+$1,$4,$5*
1,1,$1+$1,$6,$7*
1,1,$1+$1,$8,$9*
0 Add four rect primitives between the rounded corners*
20,1,$1+$1,$2,$3,$4,$5,0*
20,1,$1+$1,$4,$5,$6,$7,0*
20,1,$1+$1,$6,$7,$8,$9,0*
20,1,$1+$1,$8,$9,$2,$3,0*%
G04 Aperture macros list end*
%ADD10C,3.048000*%
%ADD11C,3.987800*%
%ADD12C,4.000000*%
%ADD13C,1.750000*%
%ADD14C,2.300000*%
%ADD15RoundRect,0.285750X-0.666750X-0.666750X0.666750X-0.666750X0.666750X0.666750X-0.666750X0.666750X0*%
%ADD16C,1.905000*%
%ADD17C,6.000000*%
%ADD18RoundRect,0.250000X0.625000X-0.350000X0.625000X0.350000X-0.625000X0.350000X-0.625000X-0.350000X0*%
%ADD19O,1.750000X1.200000*%
%ADD20O,1.100000X1.650000*%
%ADD21O,1.700000X2.700000*%
%ADD22R,1.700000X1.700000*%
%ADD23O,1.700000X1.700000*%
%ADD24RoundRect,0.140000X-0.170000X0.140000X-0.170000X-0.140000X0.170000X-0.140000X0.170000X0.140000X0*%
%ADD25RoundRect,0.225000X0.375000X-0.225000X0.375000X0.225000X-0.375000X0.225000X-0.375000X-0.225000X0*%
%ADD26RoundRect,0.140000X0.140000X0.170000X-0.140000X0.170000X-0.140000X-0.170000X0.140000X-0.170000X0*%
%ADD27RoundRect,0.075000X0.075000X-0.662500X0.075000X0.662500X-0.075000X0.662500X-0.075000X-0.662500X0*%
%ADD28RoundRect,0.075000X0.662500X-0.075000X0.662500X0.075000X-0.662500X0.075000X-0.662500X-0.075000X0*%
%ADD29RoundRect,0.135000X0.135000X0.185000X-0.135000X0.185000X-0.135000X-0.185000X0.135000X-0.185000X0*%
%ADD30RoundRect,0.140000X0.170000X-0.140000X0.170000X0.140000X-0.170000X0.140000X-0.170000X-0.140000X0*%
%ADD31RoundRect,0.150000X0.475000X0.150000X-0.475000X0.150000X-0.475000X-0.150000X0.475000X-0.150000X0*%
%ADD32RoundRect,0.140000X-0.140000X-0.170000X0.140000X-0.170000X0.140000X0.170000X-0.140000X0.170000X0*%
%ADD33RoundRect,0.150000X-0.512500X-0.150000X0.512500X-0.150000X0.512500X0.150000X-0.512500X0.150000X0*%
%ADD34RoundRect,0.150000X0.587500X0.150000X-0.587500X0.150000X-0.587500X-0.150000X0.587500X-0.150000X0*%
%ADD35RoundRect,0.250000X-0.625000X0.375000X-0.625000X-0.375000X0.625000X-0.375000X0.625000X0.375000X0*%
%ADD36RoundRect,0.135000X-0.135000X-0.185000X0.135000X-0.185000X0.135000X0.185000X-0.135000X0.185000X0*%
%ADD37RoundRect,0.150000X0.275000X-0.150000X0.275000X0.150000X-0.275000X0.150000X-0.275000X-0.150000X0*%
%ADD38RoundRect,0.175000X0.225000X-0.175000X0.225000X0.175000X-0.225000X0.175000X-0.225000X-0.175000X0*%
%ADD39R,1.700000X1.000000*%
G04 APERTURE END LIST*
D10*
%TO.C,S5*%
X214130195Y-129515832D03*
D11*
X99830195Y-114275832D03*
D10*
X99830195Y-129515832D03*
D11*
X214130195Y-114275832D03*
%TD*%
%TO.C,S4*%
X285400031Y-111766972D03*
D12*
X261587531Y-96526972D03*
D11*
X261587531Y-111766972D03*
D12*
X285400031Y-96526972D03*
%TD*%
D10*
%TO.C,S6*%
X99845195Y-129518832D03*
D11*
X195095195Y-114278832D03*
D10*
X195095195Y-129518832D03*
D11*
X99845195Y-114278832D03*
%TD*%
%TO.C,S2*%
X266252504Y-76239003D03*
X290065004Y-76239003D03*
D10*
X290065004Y-91479003D03*
X266252504Y-91479003D03*
%TD*%
D11*
%TO.C,S3*%
X47647531Y-111766972D03*
X23835031Y-111766972D03*
D10*
X23835031Y-96526972D03*
X47647531Y-96526972D03*
%TD*%
D11*
%TO.C,S1*%
X292520031Y-54708972D03*
X268707531Y-54708972D03*
D12*
X268707531Y-39468972D03*
X292520031Y-39468972D03*
%TD*%
D13*
%TO.C,SW71*%
X137648781Y-103511972D03*
D11*
X142728781Y-103511972D03*
D13*
X147808781Y-103511972D03*
D14*
X138918781Y-100971972D03*
X145268781Y-98431972D03*
%TD*%
D13*
%TO.C,SW12*%
X266038781Y-22671972D03*
D11*
X271118781Y-22671972D03*
D13*
X276198781Y-22671972D03*
D14*
X267308781Y-20131972D03*
X273658781Y-17591972D03*
%TD*%
D13*
%TO.C,SW26*%
X189928781Y-46451972D03*
D11*
X195008781Y-46451972D03*
D13*
X200088781Y-46451972D03*
D14*
X191198781Y-43911972D03*
X197548781Y-41371972D03*
%TD*%
D13*
%TO.C,SW76*%
X232758781Y-103511972D03*
D11*
X237838781Y-103511972D03*
D13*
X242918781Y-103511972D03*
D14*
X234028781Y-100971972D03*
X240378781Y-98431972D03*
%TD*%
D13*
%TO.C,SW21*%
X94828781Y-46451972D03*
D11*
X99908781Y-46451972D03*
D13*
X104988781Y-46451972D03*
D14*
X96098781Y-43911972D03*
X102448781Y-41371972D03*
%TD*%
D13*
%TO.C,SW24*%
X151888781Y-46451972D03*
D11*
X156968781Y-46451972D03*
D13*
X162048781Y-46451972D03*
D14*
X153158781Y-43911972D03*
X159508781Y-41371972D03*
%TD*%
D13*
%TO.C,SW25*%
X170908781Y-46451972D03*
D11*
X175988781Y-46451972D03*
D13*
X181068781Y-46451972D03*
D14*
X172178781Y-43911972D03*
X178528781Y-41371972D03*
%TD*%
D13*
%TO.C,SW60*%
X166138781Y-84491972D03*
D11*
X171218781Y-84491972D03*
D13*
X176298781Y-84491972D03*
D14*
X167408781Y-81951972D03*
X173758781Y-79411972D03*
%TD*%
D13*
%TO.C,SW83*%
X47228781Y-122531972D03*
D11*
X52308781Y-122531972D03*
D13*
X57388781Y-122531972D03*
D14*
X48498781Y-119991972D03*
X54848781Y-117451972D03*
%TD*%
D13*
%TO.C,SW74*%
X194718781Y-103511972D03*
D11*
X199798781Y-103511972D03*
D13*
X204878781Y-103511972D03*
D14*
X195988781Y-100971972D03*
X202338781Y-98431972D03*
%TD*%
D13*
%TO.C,SW9*%
X199438781Y-22673972D03*
D11*
X204518781Y-22673972D03*
D13*
X209598781Y-22673972D03*
D14*
X200708781Y-20133972D03*
X207058781Y-17593972D03*
%TD*%
D13*
%TO.C,SW32*%
X308838781Y-46451972D03*
D11*
X313918781Y-46451972D03*
D13*
X318998781Y-46451972D03*
D14*
X310108781Y-43911972D03*
X316458781Y-41371972D03*
%TD*%
D13*
%TO.C,SW53*%
X25871281Y-84491972D03*
D11*
X30951281Y-84491972D03*
D13*
X36031281Y-84491972D03*
D14*
X27141281Y-81951972D03*
X33491281Y-79411972D03*
%TD*%
D13*
%TO.C,SW90*%
X256448781Y-122533972D03*
D11*
X261528781Y-122533972D03*
D13*
X266608781Y-122533972D03*
D14*
X257718781Y-119993972D03*
X264068781Y-117453972D03*
%TD*%
D13*
%TO.C,SW65*%
X273078754Y-84494003D03*
D11*
X278158754Y-84494003D03*
D13*
X283238754Y-84494003D03*
D14*
X274348754Y-81954003D03*
X280698754Y-79414003D03*
%TD*%
D13*
%TO.C,SW84*%
X71003781Y-122531972D03*
D11*
X76083781Y-122531972D03*
D13*
X81163781Y-122531972D03*
D14*
X72273781Y-119991972D03*
X78623781Y-117451972D03*
%TD*%
D13*
%TO.C,SW39*%
X104288781Y-65471972D03*
D11*
X109368781Y-65471972D03*
D13*
X114448781Y-65471972D03*
D14*
X105558781Y-62931972D03*
X111908781Y-60391972D03*
%TD*%
D13*
%TO.C,SW86*%
X142390195Y-122533832D03*
D11*
X147470195Y-122533832D03*
D13*
X152550195Y-122533832D03*
D14*
X143660195Y-119993832D03*
X150010195Y-117453832D03*
%TD*%
D13*
%TO.C,SW63*%
X223158781Y-84491972D03*
D11*
X228238781Y-84491972D03*
D13*
X233318781Y-84491972D03*
D14*
X224428781Y-81951972D03*
X230778781Y-79411972D03*
%TD*%
D13*
%TO.C,SW35*%
X23478781Y-65473972D03*
D11*
X28558781Y-65473972D03*
D13*
X33638781Y-65473972D03*
D14*
X24748781Y-62933972D03*
X31098781Y-60393972D03*
%TD*%
D13*
%TO.C,SW15*%
X327858781Y-22668513D03*
D11*
X332938781Y-22668513D03*
D13*
X338018781Y-22668513D03*
D14*
X329128781Y-20128513D03*
X335478781Y-17588513D03*
%TD*%
D13*
%TO.C,SW47*%
X256448781Y-65473972D03*
D11*
X261528781Y-65473972D03*
D13*
X266608781Y-65473972D03*
D14*
X257718781Y-62933972D03*
X264068781Y-60393972D03*
%TD*%
D13*
%TO.C,SW41*%
X142328781Y-65471972D03*
D11*
X147408781Y-65471972D03*
D13*
X152488781Y-65471972D03*
D14*
X143598781Y-62931972D03*
X149948781Y-60391972D03*
%TD*%
D13*
%TO.C,SW62*%
X204158781Y-84491972D03*
D11*
X209238781Y-84491972D03*
D13*
X214318781Y-84491972D03*
D14*
X205428781Y-81951972D03*
X211778781Y-79411972D03*
%TD*%
D13*
%TO.C,SW89*%
X232673781Y-122533972D03*
D11*
X237753781Y-122533972D03*
D13*
X242833781Y-122533972D03*
D14*
X233943781Y-119993972D03*
X240293781Y-117453972D03*
%TD*%
D13*
%TO.C,SW49*%
X308838781Y-65471972D03*
D11*
X313918781Y-65471972D03*
D13*
X318998781Y-65471972D03*
D14*
X310108781Y-62931972D03*
X316458781Y-60391972D03*
%TD*%
D13*
%TO.C,SW28*%
X227968781Y-46451972D03*
D11*
X233048781Y-46451972D03*
D13*
X238128781Y-46451972D03*
D14*
X229238781Y-43911972D03*
X235588781Y-41371972D03*
%TD*%
D13*
%TO.C,SW10*%
X227998781Y-22671972D03*
D11*
X233078781Y-22671972D03*
D13*
X238158781Y-22671972D03*
D14*
X229268781Y-20131972D03*
X235618781Y-17591972D03*
%TD*%
D13*
%TO.C,SW1*%
X18748781Y-22673972D03*
D11*
X23828781Y-22673972D03*
D13*
X28908781Y-22673972D03*
D14*
X20018781Y-20133972D03*
X26368781Y-17593972D03*
%TD*%
D13*
%TO.C,SW70*%
X118628781Y-103511972D03*
D11*
X123708781Y-103511972D03*
D13*
X128788781Y-103511972D03*
D14*
X119898781Y-100971972D03*
X126248781Y-98431972D03*
%TD*%
D13*
%TO.C,SW13*%
X285058781Y-22671972D03*
D11*
X290138781Y-22671972D03*
D13*
X295218781Y-22671972D03*
D14*
X286328781Y-20131972D03*
X292678781Y-17591972D03*
%TD*%
D13*
%TO.C,SW87*%
X213616281Y-122531972D03*
D11*
X218696281Y-122531972D03*
D13*
X223776281Y-122531972D03*
D14*
X214886281Y-119991972D03*
X221236281Y-117451972D03*
%TD*%
D13*
%TO.C,SW11*%
X246988781Y-22671972D03*
D11*
X252068781Y-22671972D03*
D13*
X257148781Y-22671972D03*
D14*
X248258781Y-20131972D03*
X254608781Y-17591972D03*
%TD*%
D13*
%TO.C,SW27*%
X208948781Y-46451972D03*
D11*
X214028781Y-46451972D03*
D13*
X219108781Y-46451972D03*
D14*
X210218781Y-43911972D03*
X216568781Y-41371972D03*
%TD*%
D15*
%TO.C,D90*%
X24918781Y-89571972D03*
D16*
X27458781Y-89571972D03*
%TD*%
D13*
%TO.C,SW37*%
X66248781Y-65471972D03*
D11*
X71328781Y-65471972D03*
D13*
X76408781Y-65471972D03*
D14*
X67518781Y-62931972D03*
X73868781Y-60391972D03*
%TD*%
D13*
%TO.C,SW5*%
X113849200Y-22678819D03*
D11*
X118929200Y-22678819D03*
D13*
X124009200Y-22678819D03*
D14*
X115119200Y-20138819D03*
X121469200Y-17598819D03*
%TD*%
D17*
%TO.C,H1*%
X303241693Y-78471777D03*
%TD*%
D13*
%TO.C,SW4*%
X94829200Y-22678819D03*
D11*
X99909200Y-22678819D03*
D13*
X104989200Y-22678819D03*
D14*
X96099200Y-20138819D03*
X102449200Y-17598819D03*
%TD*%
D13*
%TO.C,SW23*%
X132868781Y-46451972D03*
D11*
X137948781Y-46451972D03*
D13*
X143028781Y-46451972D03*
D14*
X134138781Y-43911972D03*
X140488781Y-41371972D03*
%TD*%
D13*
%TO.C,SW42*%
X161348781Y-65471972D03*
D11*
X166428781Y-65471972D03*
D13*
X171508781Y-65471972D03*
D14*
X162618781Y-62931972D03*
X168968781Y-60391972D03*
%TD*%
D13*
%TO.C,SW91*%
X280263781Y-122533972D03*
D11*
X285343781Y-122533972D03*
D13*
X290423781Y-122533972D03*
D14*
X281533781Y-119993972D03*
X287883781Y-117453972D03*
%TD*%
D13*
%TO.C,SW22*%
X113848781Y-46451972D03*
D11*
X118928781Y-46451972D03*
D13*
X124008781Y-46451972D03*
D14*
X115118781Y-43911972D03*
X121468781Y-41371972D03*
%TD*%
D13*
%TO.C,SW64*%
X242158781Y-84491972D03*
D11*
X247238781Y-84491972D03*
D13*
X252318781Y-84491972D03*
D14*
X243428781Y-81951972D03*
X249778781Y-79411972D03*
%TD*%
D13*
%TO.C,SW81*%
X327858781Y-103511972D03*
D11*
X332938781Y-103511972D03*
D13*
X338018781Y-103511972D03*
D14*
X329128781Y-100971972D03*
X335478781Y-98431972D03*
%TD*%
D13*
%TO.C,SW52*%
X21108781Y-84491972D03*
D11*
X26188781Y-84491972D03*
D13*
X31268781Y-84491972D03*
D14*
X22378781Y-81951972D03*
X28728781Y-79411972D03*
%TD*%
D13*
%TO.C,SW30*%
X275533781Y-46453972D03*
D11*
X280613781Y-46453972D03*
D13*
X285693781Y-46453972D03*
D14*
X276803781Y-43913972D03*
X283153781Y-41373972D03*
%TD*%
D18*
%TO.C,J4*%
X349921666Y-106584334D03*
D19*
X349921665Y-104584333D03*
X349921665Y-102584333D03*
%TD*%
D13*
%TO.C,SW51*%
X346878781Y-65471972D03*
D11*
X351958781Y-65471972D03*
D13*
X357038781Y-65471972D03*
D14*
X348148781Y-62931972D03*
X354498781Y-60391972D03*
%TD*%
D13*
%TO.C,SW34*%
X346878781Y-46451972D03*
D11*
X351958781Y-46451972D03*
D13*
X357038781Y-46451972D03*
D14*
X348148781Y-43911972D03*
X354498781Y-41371972D03*
%TD*%
D13*
%TO.C,SW66*%
X30661281Y-103511972D03*
D11*
X35741281Y-103511972D03*
D13*
X40821281Y-103511972D03*
D14*
X31931281Y-100971972D03*
X38281281Y-98431972D03*
%TD*%
D13*
%TO.C,SW8*%
X180418781Y-22673972D03*
D11*
X185498781Y-22673972D03*
D13*
X190578781Y-22673972D03*
D14*
X181688781Y-20133972D03*
X188038781Y-17593972D03*
%TD*%
D13*
%TO.C,SW36*%
X47228781Y-65471972D03*
D11*
X52308781Y-65471972D03*
D13*
X57388781Y-65471972D03*
D14*
X48498781Y-62931972D03*
X54848781Y-60391972D03*
%TD*%
D13*
%TO.C,SW68*%
X80588781Y-103511972D03*
D11*
X85668781Y-103511972D03*
D13*
X90748781Y-103511972D03*
D14*
X81858781Y-100971972D03*
X88208781Y-98431972D03*
%TD*%
D13*
%TO.C,SW94*%
X346878781Y-122531972D03*
D11*
X351958781Y-122531972D03*
D13*
X357038781Y-122531972D03*
D14*
X348148781Y-119991972D03*
X354498781Y-117451972D03*
%TD*%
D13*
%TO.C,SW19*%
X56788781Y-46451972D03*
D11*
X61868781Y-46451972D03*
D13*
X66948781Y-46451972D03*
D14*
X58058781Y-43911972D03*
X64408781Y-41371972D03*
%TD*%
D13*
%TO.C,SW73*%
X175688781Y-103511972D03*
D11*
X180768781Y-103511972D03*
D13*
X185848781Y-103511972D03*
D14*
X176958781Y-100971972D03*
X183308781Y-98431972D03*
%TD*%
D13*
%TO.C,SW78*%
X268413781Y-103511972D03*
D11*
X273493781Y-103511972D03*
D13*
X278573781Y-103511972D03*
D14*
X269683781Y-100971972D03*
X276033781Y-98431972D03*
%TD*%
D13*
%TO.C,SW61*%
X185158781Y-84491972D03*
D11*
X190238781Y-84491972D03*
D13*
X195318781Y-84491972D03*
D14*
X186428781Y-81951972D03*
X192778781Y-79411972D03*
%TD*%
D13*
%TO.C,SW43*%
X180368781Y-65471972D03*
D11*
X185448781Y-65471972D03*
D13*
X190528781Y-65471972D03*
D14*
X181638781Y-62931972D03*
X187988781Y-60391972D03*
%TD*%
D13*
%TO.C,SW33*%
X327858781Y-46451972D03*
D11*
X332938781Y-46451972D03*
D13*
X338018781Y-46451972D03*
D14*
X329128781Y-43911972D03*
X335478781Y-41371972D03*
%TD*%
D13*
%TO.C,SW88*%
X237428781Y-122531972D03*
D11*
X242508781Y-122531972D03*
D13*
X247588781Y-122531972D03*
D14*
X238698781Y-119991972D03*
X245048781Y-117451972D03*
%TD*%
D13*
%TO.C,SW93*%
X327858781Y-122531972D03*
D11*
X332938781Y-122531972D03*
D13*
X338018781Y-122531972D03*
D14*
X329128781Y-119991972D03*
X335478781Y-117451972D03*
%TD*%
D20*
%TO.C,J2*%
X300428780Y-19178333D03*
X301228780Y-17478333D03*
X302028780Y-19178333D03*
X302828780Y-17478333D03*
X303628780Y-19178333D03*
D21*
X305678780Y-13878333D03*
X298378780Y-13878333D03*
%TD*%
D13*
%TO.C,SW56*%
X90118781Y-84491972D03*
D11*
X95198781Y-84491972D03*
D13*
X100278781Y-84491972D03*
D14*
X91388781Y-81951972D03*
X97738781Y-79411972D03*
%TD*%
D13*
%TO.C,SW40*%
X123308781Y-65471972D03*
D11*
X128388781Y-65471972D03*
D13*
X133468781Y-65471972D03*
D14*
X124578781Y-62931972D03*
X130928781Y-60391972D03*
%TD*%
D13*
%TO.C,SW20*%
X75808781Y-46451972D03*
D11*
X80888781Y-46451972D03*
D13*
X85968781Y-46451972D03*
D14*
X77078781Y-43911972D03*
X83428781Y-41371972D03*
%TD*%
D13*
%TO.C,SW69*%
X99608781Y-103511972D03*
D11*
X104688781Y-103511972D03*
D13*
X109768781Y-103511972D03*
D14*
X100878781Y-100971972D03*
X107228781Y-98431972D03*
%TD*%
D13*
%TO.C,SW16*%
X346878781Y-22671972D03*
D11*
X351958781Y-22671972D03*
D13*
X357038781Y-22671972D03*
D14*
X348148781Y-20131972D03*
X354498781Y-17591972D03*
%TD*%
D13*
%TO.C,SW7*%
X161398781Y-22673972D03*
D11*
X166478781Y-22673972D03*
D13*
X171558781Y-22673972D03*
D14*
X162668781Y-20133972D03*
X169018781Y-17593972D03*
%TD*%
D13*
%TO.C,SW67*%
X61568781Y-103511972D03*
D11*
X66648781Y-103511972D03*
D13*
X71728781Y-103511972D03*
D14*
X62838781Y-100971972D03*
X69188781Y-98431972D03*
%TD*%
D13*
%TO.C,SW50*%
X327858781Y-65471972D03*
D11*
X332938781Y-65471972D03*
D13*
X338018781Y-65471972D03*
D14*
X329128781Y-62931972D03*
X335478781Y-60391972D03*
%TD*%
D13*
%TO.C,SW72*%
X156668781Y-103511972D03*
D11*
X161748781Y-103511972D03*
D13*
X166828781Y-103511972D03*
D14*
X157938781Y-100971972D03*
X164288781Y-98431972D03*
%TD*%
D13*
%TO.C,SW3*%
X75809200Y-22678819D03*
D11*
X80889200Y-22678819D03*
D13*
X85969200Y-22678819D03*
D14*
X77079200Y-20138819D03*
X83429200Y-17598819D03*
%TD*%
D13*
%TO.C,SW57*%
X109118781Y-84491972D03*
D11*
X114198781Y-84491972D03*
D13*
X119278781Y-84491972D03*
D14*
X110388781Y-81951972D03*
X116738781Y-79411972D03*
%TD*%
D15*
%TO.C,D92*%
X25098781Y-27753972D03*
D16*
X22558781Y-27753972D03*
%TD*%
D17*
%TO.C,H2*%
X357958732Y-90493906D03*
%TD*%
D13*
%TO.C,SW92*%
X308838781Y-122531972D03*
D11*
X313918781Y-122531972D03*
D13*
X318998781Y-122531972D03*
D14*
X310108781Y-119991972D03*
X316458781Y-117451972D03*
%TD*%
D13*
%TO.C,SW77*%
X258868781Y-103511972D03*
D11*
X263948781Y-103511972D03*
D13*
X269028781Y-103511972D03*
D14*
X260138781Y-100971972D03*
X266488781Y-98431972D03*
%TD*%
D13*
%TO.C,SW59*%
X147118781Y-84491972D03*
D11*
X152198781Y-84491972D03*
D13*
X157278781Y-84491972D03*
D14*
X148388781Y-81951972D03*
X154738781Y-79411972D03*
%TD*%
D13*
%TO.C,SW44*%
X199388781Y-65471972D03*
D11*
X204468781Y-65471972D03*
D13*
X209548781Y-65471972D03*
D14*
X200658781Y-62931972D03*
X207008781Y-60391972D03*
%TD*%
D13*
%TO.C,SW29*%
X246988781Y-46451972D03*
D11*
X252068781Y-46451972D03*
D13*
X257148781Y-46451972D03*
D14*
X248258781Y-43911972D03*
X254608781Y-41371972D03*
%TD*%
D13*
%TO.C,SW82*%
X23478781Y-122533972D03*
D11*
X28558781Y-122533972D03*
D13*
X33638781Y-122533972D03*
D14*
X24748781Y-119993972D03*
X31098781Y-117453972D03*
%TD*%
D13*
%TO.C,SW75*%
X213738781Y-103511972D03*
D11*
X218818781Y-103511972D03*
D13*
X223898781Y-103511972D03*
D14*
X215008781Y-100971972D03*
X221358781Y-98431972D03*
%TD*%
D13*
%TO.C,SW55*%
X71118781Y-84491972D03*
D11*
X76198781Y-84491972D03*
D13*
X81278781Y-84491972D03*
D14*
X72388781Y-81951972D03*
X78738781Y-79411972D03*
%TD*%
D13*
%TO.C,SW38*%
X85268781Y-65471972D03*
D11*
X90348781Y-65471972D03*
D13*
X95428781Y-65471972D03*
D14*
X86538781Y-62931972D03*
X92888781Y-60391972D03*
%TD*%
D13*
%TO.C,SW80*%
X285043781Y-46453972D03*
D11*
X290123781Y-46453972D03*
D13*
X295203781Y-46453972D03*
D14*
X286313781Y-43913972D03*
X292663781Y-41373972D03*
%TD*%
D13*
%TO.C,SW14*%
X308838781Y-22671972D03*
D11*
X313918781Y-22671972D03*
D13*
X318998781Y-22671972D03*
D14*
X310108781Y-20131972D03*
X316458781Y-17591972D03*
%TD*%
D13*
%TO.C,SW48*%
X280263781Y-65473972D03*
D11*
X285343781Y-65473972D03*
D13*
X290423781Y-65473972D03*
D14*
X281533781Y-62933972D03*
X287883781Y-60393972D03*
%TD*%
D13*
%TO.C,SW31*%
X266023781Y-46453972D03*
D11*
X271103781Y-46453972D03*
D13*
X276183781Y-46453972D03*
D14*
X267293781Y-43913972D03*
X273643781Y-41373972D03*
%TD*%
D13*
%TO.C,SW79*%
X277888781Y-103511972D03*
D11*
X282968781Y-103511972D03*
D13*
X288048781Y-103511972D03*
D14*
X279158781Y-100971972D03*
X285508781Y-98431972D03*
%TD*%
D13*
%TO.C,SW6*%
X142378781Y-22673972D03*
D11*
X147458781Y-22673972D03*
D13*
X152538781Y-22673972D03*
D14*
X143648781Y-20133972D03*
X149998781Y-17593972D03*
%TD*%
D15*
%TO.C,D91*%
X334208781Y-27748513D03*
D16*
X331668781Y-27748513D03*
%TD*%
D15*
%TO.C,D89*%
X32221281Y-89571972D03*
D16*
X29681281Y-89571972D03*
%TD*%
D13*
%TO.C,SW46*%
X237428781Y-65471972D03*
D11*
X242508781Y-65471972D03*
D13*
X247588781Y-65471972D03*
D14*
X238698781Y-62931972D03*
X245048781Y-60391972D03*
%TD*%
D22*
%TO.C,J3*%
X345438780Y-107063962D03*
D23*
X345438780Y-104523962D03*
X345438780Y-101983962D03*
%TD*%
D13*
%TO.C,SW45*%
X218408781Y-65471972D03*
D11*
X223488781Y-65471972D03*
D13*
X228568781Y-65471972D03*
D14*
X219678781Y-62931972D03*
X226028781Y-60391972D03*
%TD*%
D13*
%TO.C,SW17*%
X18748781Y-46451972D03*
D11*
X23828781Y-46451972D03*
D13*
X28908781Y-46451972D03*
D14*
X20018781Y-43911972D03*
X26368781Y-41371972D03*
%TD*%
D13*
%TO.C,SW54*%
X52118781Y-84491972D03*
D11*
X57198781Y-84491972D03*
D13*
X62278781Y-84491972D03*
D14*
X53388781Y-81951972D03*
X59738781Y-79411972D03*
%TD*%
D13*
%TO.C,SW2*%
X56789200Y-22678819D03*
D11*
X61869200Y-22678819D03*
D13*
X66949200Y-22678819D03*
D14*
X58059200Y-20138819D03*
X64409200Y-17598819D03*
%TD*%
D13*
%TO.C,SW58*%
X128118781Y-84491972D03*
D11*
X133198781Y-84491972D03*
D13*
X138278781Y-84491972D03*
D14*
X129388781Y-81951972D03*
X135738781Y-79411972D03*
%TD*%
D13*
%TO.C,SW85*%
X151900195Y-122533832D03*
D11*
X156980195Y-122533832D03*
D13*
X162060195Y-122533832D03*
D14*
X153170195Y-119993832D03*
X159520195Y-117453832D03*
%TD*%
D13*
%TO.C,SW18*%
X37768781Y-46451972D03*
D11*
X42848781Y-46451972D03*
D13*
X47928781Y-46451972D03*
D14*
X39038781Y-43911972D03*
X45388781Y-41371972D03*
%TD*%
D24*
%TO.C,C7*%
X324939666Y-88102334D03*
X324939666Y-89062334D03*
%TD*%
D25*
%TO.C,D9*%
X207693789Y-25911476D03*
X207693789Y-22611476D03*
%TD*%
%TO.C,D47*%
X288518789Y-68711476D03*
X288518789Y-65411476D03*
%TD*%
D26*
%TO.C,C10*%
X314116666Y-80708334D03*
X313156666Y-80708334D03*
%TD*%
D27*
%TO.C,U2*%
X323369781Y-88021472D03*
X322869781Y-88021472D03*
X322369781Y-88021472D03*
X321869781Y-88021472D03*
X321369781Y-88021472D03*
X320869781Y-88021472D03*
X320369781Y-88021472D03*
X319869781Y-88021472D03*
X319369781Y-88021472D03*
X318869781Y-88021472D03*
X318369781Y-88021472D03*
X317869781Y-88021472D03*
D28*
X316457281Y-86608972D03*
X316457281Y-86108972D03*
X316457281Y-85608972D03*
X316457281Y-85108972D03*
X316457281Y-84608972D03*
X316457281Y-84108972D03*
X316457281Y-83608972D03*
X316457281Y-83108972D03*
X316457281Y-82608972D03*
X316457281Y-82108972D03*
X316457281Y-81608972D03*
X316457281Y-81108972D03*
D27*
X317869781Y-79696472D03*
X318369781Y-79696472D03*
X318869781Y-79696472D03*
X319369781Y-79696472D03*
X319869781Y-79696472D03*
X320369781Y-79696472D03*
X320869781Y-79696472D03*
X321369781Y-79696472D03*
X321869781Y-79696472D03*
X322369781Y-79696472D03*
X322869781Y-79696472D03*
X323369781Y-79696472D03*
D28*
X324782281Y-81108972D03*
X324782281Y-81608972D03*
X324782281Y-82108972D03*
X324782281Y-82608972D03*
X324782281Y-83108972D03*
X324782281Y-83608972D03*
X324782281Y-84108972D03*
X324782281Y-84608972D03*
X324782281Y-85108972D03*
X324782281Y-85608972D03*
X324782281Y-86108972D03*
X324782281Y-86608972D03*
%TD*%
D25*
%TO.C,D5*%
X122104208Y-25916323D03*
X122104208Y-22616323D03*
%TD*%
%TO.C,D45*%
X245683789Y-68709476D03*
X245683789Y-65409476D03*
%TD*%
%TO.C,D75*%
X256486666Y-106749476D03*
X256486666Y-103449476D03*
%TD*%
%TO.C,D2*%
X65044208Y-25916323D03*
X65044208Y-22616323D03*
%TD*%
%TO.C,D28*%
X236223789Y-49689476D03*
X236223789Y-46389476D03*
%TD*%
%TO.C,D12*%
X274293789Y-25909476D03*
X274293789Y-22609476D03*
%TD*%
%TO.C,D73*%
X221943789Y-106749476D03*
X221943789Y-103449476D03*
%TD*%
D29*
%TO.C,R2*%
X29158666Y-92519334D03*
X28138666Y-92519334D03*
%TD*%
D25*
%TO.C,D22*%
X122103789Y-49689476D03*
X122103789Y-46389476D03*
%TD*%
%TO.C,D78*%
X336113789Y-106749476D03*
X336113789Y-103449476D03*
%TD*%
D24*
%TO.C,C4*%
X325955666Y-88102334D03*
X325955666Y-89062334D03*
%TD*%
D25*
%TO.C,D31*%
X317093789Y-49689476D03*
X317093789Y-46389476D03*
%TD*%
%TO.C,D67*%
X107823789Y-106749476D03*
X107823789Y-103449476D03*
%TD*%
%TO.C,D4*%
X103084208Y-25916323D03*
X103084208Y-22616323D03*
%TD*%
%TO.C,D11*%
X255243789Y-25909476D03*
X255243789Y-22609476D03*
%TD*%
D30*
%TO.C,C3*%
X316303666Y-79382334D03*
X316303666Y-78422334D03*
%TD*%
D25*
%TO.C,D87*%
X317093789Y-125769476D03*
X317093789Y-122469476D03*
%TD*%
%TO.C,D44*%
X226663789Y-68709476D03*
X226663789Y-65409476D03*
%TD*%
%TO.C,D6*%
X150633789Y-25911476D03*
X150633789Y-22611476D03*
%TD*%
%TO.C,D33*%
X355133789Y-49689476D03*
X355133789Y-46389476D03*
%TD*%
D31*
%TO.C,U3*%
X303000666Y-21160534D03*
X303000666Y-22110534D03*
X303000666Y-23060534D03*
X300650666Y-23060534D03*
X300650666Y-22110534D03*
X300650666Y-21160534D03*
%TD*%
D25*
%TO.C,D21*%
X103083789Y-49689476D03*
X103083789Y-46389476D03*
%TD*%
%TO.C,D16*%
X355133789Y-25909476D03*
X355133789Y-22609476D03*
%TD*%
%TO.C,D15*%
X336113789Y-25906017D03*
X336113789Y-22606017D03*
%TD*%
%TO.C,D8*%
X188673789Y-25911476D03*
X188673789Y-22611476D03*
%TD*%
%TO.C,D52*%
X60373789Y-87729476D03*
X60373789Y-84429476D03*
%TD*%
%TO.C,D66*%
X88823789Y-106749476D03*
X88823789Y-103449476D03*
%TD*%
D32*
%TO.C,C9*%
X311124666Y-80708334D03*
X312084666Y-80708334D03*
%TD*%
D25*
%TO.C,D58*%
X174393789Y-87729476D03*
X174393789Y-84429476D03*
%TD*%
%TO.C,D41*%
X169603789Y-68709476D03*
X169603789Y-65409476D03*
%TD*%
%TO.C,D42*%
X188623789Y-68709476D03*
X188623789Y-65409476D03*
%TD*%
%TO.C,D1*%
X27003789Y-25911476D03*
X27003789Y-22611476D03*
%TD*%
%TO.C,D20*%
X84063789Y-49689476D03*
X84063789Y-46389476D03*
%TD*%
%TO.C,D54*%
X98373789Y-87729476D03*
X98373789Y-84429476D03*
%TD*%
%TO.C,D19*%
X65043789Y-49689476D03*
X65043789Y-46389476D03*
%TD*%
%TO.C,D62*%
X250413789Y-87729476D03*
X250413789Y-84429476D03*
%TD*%
%TO.C,D40*%
X150583789Y-68709476D03*
X150583789Y-65409476D03*
%TD*%
%TO.C,D51*%
X34126289Y-87729476D03*
X34126289Y-84429476D03*
%TD*%
%TO.C,D3*%
X84064208Y-25916323D03*
X84064208Y-22616323D03*
%TD*%
%TO.C,D35*%
X55483789Y-68709476D03*
X55483789Y-65409476D03*
%TD*%
D24*
%TO.C,C5*%
X319351666Y-90769334D03*
X319351666Y-91729334D03*
%TD*%
D25*
%TO.C,D50*%
X355133789Y-68709476D03*
X355133789Y-65409476D03*
%TD*%
%TO.C,D88*%
X336113789Y-125769476D03*
X336113789Y-122469476D03*
%TD*%
%TO.C,D76*%
X290522666Y-106749476D03*
X290522666Y-103449476D03*
%TD*%
%TO.C,D10*%
X236253789Y-25909476D03*
X236253789Y-22609476D03*
%TD*%
D30*
%TO.C,C2*%
X315287666Y-79382334D03*
X315287666Y-78422334D03*
%TD*%
D25*
%TO.C,D71*%
X183943789Y-106749476D03*
X183943789Y-103449476D03*
%TD*%
%TO.C,D48*%
X317093789Y-68709476D03*
X317093789Y-65409476D03*
%TD*%
D33*
%TO.C,U4*%
X340721166Y-107185334D03*
X340721166Y-106235334D03*
X340721166Y-105285334D03*
X342996166Y-105285334D03*
X342996166Y-107185334D03*
%TD*%
D29*
%TO.C,R1*%
X339854000Y-90932000D03*
X338834000Y-90932000D03*
%TD*%
D25*
%TO.C,D86*%
X288518789Y-125771476D03*
X288518789Y-122471476D03*
%TD*%
%TO.C,D84*%
X245683789Y-125769476D03*
X245683789Y-122469476D03*
%TD*%
%TO.C,D57*%
X155373789Y-87729476D03*
X155373789Y-84429476D03*
%TD*%
%TO.C,D36*%
X74503789Y-68709476D03*
X74503789Y-65409476D03*
%TD*%
%TO.C,D53*%
X79373789Y-87729476D03*
X79373789Y-84429476D03*
%TD*%
%TO.C,D7*%
X169653789Y-25911476D03*
X169653789Y-22611476D03*
%TD*%
%TO.C,D74*%
X240943789Y-106749476D03*
X240943789Y-103449476D03*
%TD*%
%TO.C,D25*%
X179163789Y-49689476D03*
X179163789Y-46389476D03*
%TD*%
%TO.C,D59*%
X193413789Y-87729476D03*
X193413789Y-84429476D03*
%TD*%
%TO.C,D65*%
X69823789Y-106749476D03*
X69823789Y-103449476D03*
%TD*%
D29*
%TO.C,R5*%
X345093000Y-85788334D03*
X344073000Y-85788334D03*
%TD*%
D25*
%TO.C,D68*%
X126823789Y-106749476D03*
X126823789Y-103449476D03*
%TD*%
%TO.C,D79*%
X31733789Y-125771476D03*
X31733789Y-122471476D03*
%TD*%
%TO.C,D32*%
X336113789Y-49689476D03*
X336113789Y-46389476D03*
%TD*%
D26*
%TO.C,C13*%
X343072666Y-108521334D03*
X342112666Y-108521334D03*
%TD*%
D25*
%TO.C,D23*%
X141123789Y-49689476D03*
X141123789Y-46389476D03*
%TD*%
D26*
%TO.C,C11*%
X337792000Y-90932000D03*
X336832000Y-90932000D03*
%TD*%
D25*
%TO.C,D26*%
X198183789Y-49689476D03*
X198183789Y-46389476D03*
%TD*%
%TO.C,D63*%
X281333762Y-87731507D03*
X281333762Y-84431507D03*
%TD*%
%TO.C,D27*%
X217203789Y-49689476D03*
X217203789Y-46389476D03*
%TD*%
%TO.C,D72*%
X202943789Y-106749476D03*
X202943789Y-103449476D03*
%TD*%
%TO.C,D64*%
X38916289Y-106749476D03*
X38916289Y-103449476D03*
%TD*%
%TO.C,D18*%
X46023789Y-49689476D03*
X46023789Y-46389476D03*
%TD*%
D34*
%TO.C,Q1*%
X344043000Y-89410334D03*
X344043000Y-91310334D03*
X342168000Y-90360334D03*
%TD*%
D30*
%TO.C,C1*%
X326082666Y-79382334D03*
X326082666Y-78422334D03*
%TD*%
D25*
%TO.C,D56*%
X136373789Y-87729476D03*
X136373789Y-84429476D03*
%TD*%
%TO.C,D80*%
X55483789Y-125769476D03*
X55483789Y-122469476D03*
%TD*%
%TO.C,D43*%
X207643789Y-68709476D03*
X207643789Y-65409476D03*
%TD*%
%TO.C,D82*%
X160155203Y-125771336D03*
X160155203Y-122471336D03*
%TD*%
%TO.C,D55*%
X117373789Y-87729476D03*
X117373789Y-84429476D03*
%TD*%
%TO.C,D85*%
X264703789Y-125771476D03*
X264703789Y-122471476D03*
%TD*%
D26*
%TO.C,C12*%
X345063000Y-86931334D03*
X344103000Y-86931334D03*
%TD*%
D30*
%TO.C,C6*%
X325066666Y-79382334D03*
X325066666Y-78422334D03*
%TD*%
D29*
%TO.C,R3*%
X333450666Y-30607000D03*
X332430666Y-30607000D03*
%TD*%
D25*
%TO.C,D61*%
X231413789Y-87729476D03*
X231413789Y-84429476D03*
%TD*%
%TO.C,D49*%
X336113789Y-68709476D03*
X336113789Y-65409476D03*
%TD*%
%TO.C,D77*%
X293298789Y-49691476D03*
X293298789Y-46391476D03*
%TD*%
%TO.C,D81*%
X79258789Y-125769476D03*
X79258789Y-122469476D03*
%TD*%
%TO.C,D70*%
X164823789Y-106749476D03*
X164823789Y-103449476D03*
%TD*%
%TO.C,D69*%
X145823789Y-106749476D03*
X145823789Y-103449476D03*
%TD*%
D35*
%TO.C,F1*%
X298345866Y-24444334D03*
X298345866Y-27244334D03*
%TD*%
D25*
%TO.C,D46*%
X264703789Y-68709476D03*
X264703789Y-65409476D03*
%TD*%
%TO.C,D30*%
X263471666Y-49691476D03*
X263471666Y-46391476D03*
%TD*%
%TO.C,D17*%
X27003789Y-49689476D03*
X27003789Y-46389476D03*
%TD*%
%TO.C,D39*%
X131563789Y-68709476D03*
X131563789Y-65409476D03*
%TD*%
%TO.C,D13*%
X293313789Y-25909476D03*
X293313789Y-22609476D03*
%TD*%
%TO.C,D29*%
X255243789Y-49689476D03*
X255243789Y-46389476D03*
%TD*%
%TO.C,D14*%
X317093789Y-25909476D03*
X317093789Y-22609476D03*
%TD*%
%TO.C,D60*%
X212413789Y-87729476D03*
X212413789Y-84429476D03*
%TD*%
%TO.C,D93*%
X355133789Y-125769476D03*
X355133789Y-122469476D03*
%TD*%
%TO.C,D83*%
X221871289Y-125769476D03*
X221871289Y-122469476D03*
%TD*%
D36*
%TO.C,R6*%
X344073000Y-88074334D03*
X345093000Y-88074334D03*
%TD*%
D25*
%TO.C,D34*%
X31733789Y-68711476D03*
X31733789Y-65411476D03*
%TD*%
D37*
%TO.C,J1*%
X356405666Y-105752334D03*
X356405666Y-104552334D03*
X356405666Y-103352334D03*
D38*
X352630666Y-106902334D03*
X352630666Y-102202334D03*
%TD*%
D25*
%TO.C,D38*%
X112543789Y-68709476D03*
X112543789Y-65409476D03*
%TD*%
D34*
%TO.C,U1*%
X313479666Y-77345334D03*
X313479666Y-79245334D03*
X311604666Y-78295334D03*
%TD*%
D39*
%TO.C,SW95*%
X339826999Y-85412333D03*
X333526999Y-85412333D03*
X339826999Y-89212333D03*
X333526999Y-89212333D03*
%TD*%
D25*
%TO.C,D37*%
X93523789Y-68709476D03*
X93523789Y-65409476D03*
%TD*%
%TO.C,D24*%
X160143789Y-49689476D03*
X160143789Y-46389476D03*
%TD*%
D24*
%TO.C,C8*%
X318335666Y-90769334D03*
X318335666Y-91729334D03*
%TD*%
D29*
%TO.C,R4*%
X24332666Y-30797334D03*
X23312666Y-30797334D03*
%TD*%
M02*
