%TF.GenerationSoftware,KiCad,Pcbnew,(7.99.0-267-g8440d7258b)*%
%TF.CreationDate,2023-05-19T03:09:11-07:00*%
%TF.ProjectId,1_2og_repro,315f326f-675f-4726-9570-726f2e6b6963,rev?*%
%TF.SameCoordinates,Original*%
%TF.FileFunction,Paste,Bot*%
%TF.FilePolarity,Positive*%
%FSLAX46Y46*%
G04 Gerber Fmt 4.6, Leading zero omitted, Abs format (unit mm)*
G04 Created by KiCad (PCBNEW (7.99.0-267-g8440d7258b)) date 2023-05-19 03:09:11*
%MOMM*%
%LPD*%
G01*
G04 APERTURE LIST*
G04 Aperture macros list*
%AMRoundRect*
0 Rectangle with rounded corners*
0 $1 Rounding radius*
0 $2 $3 $4 $5 $6 $7 $8 $9 X,Y pos of 4 corners*
0 Add a 4 corners polygon primitive as box body*
4,1,4,$2,$3,$4,$5,$6,$7,$8,$9,$2,$3,0*
0 Add four circle primitives for the rounded corners*
1,1,$1+$1,$2,$3*
1,1,$1+$1,$4,$5*
1,1,$1+$1,$6,$7*
1,1,$1+$1,$8,$9*
0 Add four rect primitives between the rounded corners*
20,1,$1+$1,$2,$3,$4,$5,0*
20,1,$1+$1,$4,$5,$6,$7,0*
20,1,$1+$1,$6,$7,$8,$9,0*
20,1,$1+$1,$8,$9,$2,$3,0*%
G04 Aperture macros list end*
%ADD10R,10.000000X5.000000*%
%ADD11RoundRect,0.135000X0.135000X0.185000X-0.135000X0.185000X-0.135000X-0.185000X0.135000X-0.185000X0*%
%ADD12RoundRect,0.225000X0.375000X-0.225000X0.375000X0.225000X-0.375000X0.225000X-0.375000X-0.225000X0*%
%ADD13RoundRect,0.135000X-0.135000X-0.185000X0.135000X-0.185000X0.135000X0.185000X-0.135000X0.185000X0*%
%ADD14RoundRect,0.140000X-0.170000X0.140000X-0.170000X-0.140000X0.170000X-0.140000X0.170000X0.140000X0*%
%ADD15RoundRect,0.075000X0.662500X-0.075000X0.662500X0.075000X-0.662500X0.075000X-0.662500X-0.075000X0*%
%ADD16RoundRect,0.075000X0.075000X-0.662500X0.075000X0.662500X-0.075000X0.662500X-0.075000X-0.662500X0*%
%ADD17RoundRect,0.150000X-0.512500X-0.150000X0.512500X-0.150000X0.512500X0.150000X-0.512500X0.150000X0*%
%ADD18RoundRect,0.140000X-0.140000X-0.170000X0.140000X-0.170000X0.140000X0.170000X-0.140000X0.170000X0*%
%ADD19RoundRect,0.150000X-0.150000X0.587500X-0.150000X-0.587500X0.150000X-0.587500X0.150000X0.587500X0*%
%ADD20RoundRect,0.150000X0.475000X0.150000X-0.475000X0.150000X-0.475000X-0.150000X0.475000X-0.150000X0*%
%ADD21RoundRect,0.250000X-0.625000X0.375000X-0.625000X-0.375000X0.625000X-0.375000X0.625000X0.375000X0*%
%ADD22RoundRect,0.175000X0.225000X-0.175000X0.225000X0.175000X-0.225000X0.175000X-0.225000X-0.175000X0*%
%ADD23RoundRect,0.150000X0.275000X-0.150000X0.275000X0.150000X-0.275000X0.150000X-0.275000X-0.150000X0*%
G04 APERTURE END LIST*
D10*
%TO.C,J5*%
X330706114Y-33400999D03*
%TD*%
D11*
%TO.C,R3*%
X330198000Y-28575000D03*
X331218000Y-28575000D03*
%TD*%
%TO.C,R2*%
X25906000Y-91440000D03*
X26926000Y-91440000D03*
%TD*%
D12*
%TO.C,D86*%
X314855115Y-122973638D03*
X314855115Y-126273638D03*
%TD*%
D13*
%TO.C,R1*%
X138047000Y-121539000D03*
X139067000Y-121539000D03*
%TD*%
D12*
%TO.C,D9*%
X205455115Y-23113638D03*
X205455115Y-26413638D03*
%TD*%
D14*
%TO.C,C8*%
X329438000Y-90932000D03*
X329438000Y-89972000D03*
%TD*%
D12*
%TO.C,D47*%
X286280115Y-65913638D03*
X286280115Y-69213638D03*
%TD*%
D15*
%TO.C,U2*%
X334868615Y-86164638D03*
X334868615Y-85664638D03*
X334868615Y-85164638D03*
X334868615Y-84664638D03*
X334868615Y-84164638D03*
X334868615Y-83664638D03*
X334868615Y-83164638D03*
X334868615Y-82664638D03*
X334868615Y-82164638D03*
X334868615Y-81664638D03*
X334868615Y-81164638D03*
X334868615Y-80664638D03*
D16*
X333456115Y-79252138D03*
X332956115Y-79252138D03*
X332456115Y-79252138D03*
X331956115Y-79252138D03*
X331456115Y-79252138D03*
X330956115Y-79252138D03*
X330456115Y-79252138D03*
X329956115Y-79252138D03*
X329456115Y-79252138D03*
X328956115Y-79252138D03*
X328456115Y-79252138D03*
X327956115Y-79252138D03*
D15*
X326543615Y-80664638D03*
X326543615Y-81164638D03*
X326543615Y-81664638D03*
X326543615Y-82164638D03*
X326543615Y-82664638D03*
X326543615Y-83164638D03*
X326543615Y-83664638D03*
X326543615Y-84164638D03*
X326543615Y-84664638D03*
X326543615Y-85164638D03*
X326543615Y-85664638D03*
X326543615Y-86164638D03*
D16*
X327956115Y-87577138D03*
X328456115Y-87577138D03*
X328956115Y-87577138D03*
X329456115Y-87577138D03*
X329956115Y-87577138D03*
X330456115Y-87577138D03*
X330956115Y-87577138D03*
X331456115Y-87577138D03*
X331956115Y-87577138D03*
X332456115Y-87577138D03*
X332956115Y-87577138D03*
X333456115Y-87577138D03*
%TD*%
D12*
%TO.C,D5*%
X119865534Y-23118485D03*
X119865534Y-26418485D03*
%TD*%
D14*
%TO.C,C11*%
X330454000Y-90904000D03*
X330454000Y-89944000D03*
%TD*%
D12*
%TO.C,D45*%
X243445115Y-65913638D03*
X243445115Y-69213638D03*
%TD*%
%TO.C,D75*%
X264541000Y-103953638D03*
X264541000Y-107253638D03*
%TD*%
%TO.C,D2*%
X62805534Y-23118485D03*
X62805534Y-26418485D03*
%TD*%
%TO.C,D28*%
X233985115Y-46893638D03*
X233985115Y-50193638D03*
%TD*%
%TO.C,D12*%
X272055115Y-23113638D03*
X272055115Y-26413638D03*
%TD*%
%TO.C,D73*%
X219585115Y-103953638D03*
X219585115Y-107253638D03*
%TD*%
%TO.C,D22*%
X119865115Y-46893638D03*
X119865115Y-50193638D03*
%TD*%
%TO.C,D78*%
X333875115Y-103953638D03*
X333875115Y-107253638D03*
%TD*%
%TO.C,D31*%
X314855115Y-46893638D03*
X314855115Y-50193638D03*
%TD*%
%TO.C,D67*%
X105585115Y-103953638D03*
X105585115Y-107253638D03*
%TD*%
%TO.C,D4*%
X100845534Y-23118485D03*
X100845534Y-26418485D03*
%TD*%
%TO.C,D11*%
X253005115Y-23113638D03*
X253005115Y-26413638D03*
%TD*%
%TO.C,D87*%
X333875115Y-122973638D03*
X333875115Y-126273638D03*
%TD*%
%TO.C,D44*%
X224425115Y-65913638D03*
X224425115Y-69213638D03*
%TD*%
%TO.C,D6*%
X148395115Y-23113638D03*
X148395115Y-26413638D03*
%TD*%
%TO.C,D33*%
X352895115Y-46893638D03*
X352895115Y-50193638D03*
%TD*%
%TO.C,D21*%
X100845115Y-46893638D03*
X100845115Y-50193638D03*
%TD*%
%TO.C,D16*%
X352895115Y-23113638D03*
X352895115Y-26413638D03*
%TD*%
%TO.C,D15*%
X338074000Y-23113638D03*
X338074000Y-26413638D03*
%TD*%
%TO.C,D8*%
X186435115Y-23113638D03*
X186435115Y-26413638D03*
%TD*%
%TO.C,D52*%
X58135115Y-84933638D03*
X58135115Y-88233638D03*
%TD*%
%TO.C,D66*%
X86585115Y-103953638D03*
X86585115Y-107253638D03*
%TD*%
%TO.C,D58*%
X172155115Y-84933638D03*
X172155115Y-88233638D03*
%TD*%
%TO.C,D41*%
X167365115Y-65913638D03*
X167365115Y-69213638D03*
%TD*%
%TO.C,D42*%
X186385115Y-65913638D03*
X186385115Y-69213638D03*
%TD*%
D14*
%TO.C,C7*%
X325120000Y-79700000D03*
X325120000Y-78740000D03*
%TD*%
D12*
%TO.C,D1*%
X29083000Y-23113638D03*
X29083000Y-26413638D03*
%TD*%
%TO.C,D20*%
X81825115Y-46893638D03*
X81825115Y-50193638D03*
%TD*%
%TO.C,D54*%
X96135115Y-84933638D03*
X96135115Y-88233638D03*
%TD*%
%TO.C,D19*%
X62805115Y-46893638D03*
X62805115Y-50193638D03*
%TD*%
%TO.C,D62*%
X248175115Y-84933638D03*
X248175115Y-88233638D03*
%TD*%
%TO.C,D40*%
X148345115Y-65913638D03*
X148345115Y-69213638D03*
%TD*%
%TO.C,D51*%
X37338000Y-84933638D03*
X37338000Y-88233638D03*
%TD*%
%TO.C,D3*%
X81825534Y-23118485D03*
X81825534Y-26418485D03*
%TD*%
%TO.C,D35*%
X53245115Y-65913638D03*
X53245115Y-69213638D03*
%TD*%
%TO.C,D50*%
X352895115Y-65913638D03*
X352895115Y-69213638D03*
%TD*%
%TO.C,D88*%
X352895115Y-122973638D03*
X352895115Y-126273638D03*
%TD*%
%TO.C,D76*%
X289306000Y-103953638D03*
X289306000Y-107253638D03*
%TD*%
%TO.C,D10*%
X233985115Y-23113638D03*
X233985115Y-26413638D03*
%TD*%
D14*
%TO.C,C5*%
X335534000Y-79065000D03*
X335534000Y-78105000D03*
%TD*%
%TO.C,C6*%
X336296000Y-89507000D03*
X336296000Y-88547000D03*
%TD*%
D12*
%TO.C,D71*%
X181585115Y-103953638D03*
X181585115Y-107253638D03*
%TD*%
%TO.C,D48*%
X314855115Y-65913638D03*
X314855115Y-69213638D03*
%TD*%
D17*
%TO.C,U4*%
X340608500Y-94168000D03*
X340608500Y-92268000D03*
X338333500Y-92268000D03*
X338333500Y-93218000D03*
X338333500Y-94168000D03*
%TD*%
D14*
%TO.C,C4*%
X328422000Y-90932000D03*
X328422000Y-89972000D03*
%TD*%
D12*
%TO.C,D84*%
X262607615Y-122973638D03*
X262607615Y-126273638D03*
%TD*%
D18*
%TO.C,C9*%
X293977000Y-35052000D03*
X293017000Y-35052000D03*
%TD*%
D12*
%TO.C,D57*%
X153135115Y-84933638D03*
X153135115Y-88233638D03*
%TD*%
%TO.C,D36*%
X72265115Y-65913638D03*
X72265115Y-69213638D03*
%TD*%
%TO.C,D53*%
X77135115Y-84933638D03*
X77135115Y-88233638D03*
%TD*%
%TO.C,D7*%
X167415115Y-23113638D03*
X167415115Y-26413638D03*
%TD*%
%TO.C,D74*%
X238585115Y-103953638D03*
X238585115Y-107253638D03*
%TD*%
D19*
%TO.C,U1*%
X294005000Y-33449500D03*
X294955000Y-31574500D03*
X293055000Y-31574500D03*
%TD*%
D12*
%TO.C,D25*%
X176925115Y-46893638D03*
X176925115Y-50193638D03*
%TD*%
%TO.C,D59*%
X191175115Y-84933638D03*
X191175115Y-88233638D03*
%TD*%
%TO.C,D65*%
X67585115Y-103953638D03*
X67585115Y-107253638D03*
%TD*%
%TO.C,D68*%
X124585115Y-103953638D03*
X124585115Y-107253638D03*
%TD*%
%TO.C,D79*%
X29515115Y-122973638D03*
X29515115Y-126273638D03*
%TD*%
%TO.C,D32*%
X333875115Y-46893638D03*
X333875115Y-50193638D03*
%TD*%
D18*
%TO.C,C13*%
X343154000Y-94168000D03*
X342194000Y-94168000D03*
%TD*%
D12*
%TO.C,D23*%
X138885115Y-46893638D03*
X138885115Y-50193638D03*
%TD*%
%TO.C,D26*%
X195945115Y-46893638D03*
X195945115Y-50193638D03*
%TD*%
%TO.C,D63*%
X279095088Y-84933669D03*
X279095088Y-88233669D03*
%TD*%
D14*
%TO.C,C10*%
X296291000Y-31976000D03*
X296291000Y-31016000D03*
%TD*%
%TO.C,C3*%
X323977000Y-79700000D03*
X323977000Y-78740000D03*
%TD*%
D12*
%TO.C,D27*%
X214965115Y-46893638D03*
X214965115Y-50193638D03*
%TD*%
%TO.C,D72*%
X200585115Y-103953638D03*
X200585115Y-107253638D03*
%TD*%
%TO.C,D64*%
X36665115Y-103953638D03*
X36665115Y-107253638D03*
%TD*%
%TO.C,D18*%
X43785115Y-46893638D03*
X43785115Y-50193638D03*
%TD*%
%TO.C,D56*%
X134135115Y-84933638D03*
X134135115Y-88233638D03*
%TD*%
%TO.C,D80*%
X53257615Y-122973638D03*
X53257615Y-126273638D03*
%TD*%
%TO.C,D43*%
X205405115Y-65913638D03*
X205405115Y-69213638D03*
%TD*%
%TO.C,D82*%
X157916529Y-122970498D03*
X157916529Y-126270498D03*
%TD*%
%TO.C,D55*%
X115135115Y-84933638D03*
X115135115Y-88233638D03*
%TD*%
%TO.C,D85*%
X286325115Y-122973638D03*
X286325115Y-126273638D03*
%TD*%
%TO.C,D61*%
X229175115Y-84933638D03*
X229175115Y-88233638D03*
%TD*%
%TO.C,D49*%
X333875115Y-65913638D03*
X333875115Y-69213638D03*
%TD*%
D20*
%TO.C,U3*%
X298259000Y-21244000D03*
X298259000Y-22194000D03*
X298259000Y-23144000D03*
X300609000Y-23144000D03*
X300609000Y-22194000D03*
X300609000Y-21244000D03*
%TD*%
D12*
%TO.C,D77*%
X284988000Y-46893638D03*
X284988000Y-50193638D03*
%TD*%
%TO.C,D81*%
X76960115Y-122973638D03*
X76960115Y-126273638D03*
%TD*%
%TO.C,D70*%
X162585115Y-103953638D03*
X162585115Y-107253638D03*
%TD*%
%TO.C,D69*%
X143585115Y-103953638D03*
X143585115Y-107253638D03*
%TD*%
%TO.C,D46*%
X262465115Y-65913638D03*
X262465115Y-69213638D03*
%TD*%
%TO.C,D30*%
X281550115Y-46893638D03*
X281550115Y-50193638D03*
%TD*%
D21*
%TO.C,F1*%
X295910000Y-24994000D03*
X295910000Y-22194000D03*
%TD*%
D12*
%TO.C,D17*%
X24765115Y-46893638D03*
X24765115Y-50193638D03*
%TD*%
%TO.C,D39*%
X129325115Y-65913638D03*
X129325115Y-69213638D03*
%TD*%
%TO.C,D13*%
X291075115Y-23113638D03*
X291075115Y-26413638D03*
%TD*%
%TO.C,D29*%
X253005115Y-46893638D03*
X253005115Y-50193638D03*
%TD*%
D14*
%TO.C,C1*%
X334518000Y-79065000D03*
X334518000Y-78105000D03*
%TD*%
D12*
%TO.C,D14*%
X314855115Y-23113638D03*
X314855115Y-26413638D03*
%TD*%
%TO.C,D60*%
X210175115Y-84933638D03*
X210175115Y-88233638D03*
%TD*%
D14*
%TO.C,C2*%
X335280000Y-89507000D03*
X335280000Y-88547000D03*
%TD*%
D12*
%TO.C,D83*%
X238880115Y-122973638D03*
X238880115Y-126273638D03*
%TD*%
%TO.C,D34*%
X29495115Y-65913638D03*
X29495115Y-69213638D03*
%TD*%
D22*
%TO.C,J1*%
X350398000Y-101123000D03*
X350398000Y-105823000D03*
D23*
X354173000Y-102273000D03*
X354173000Y-103473000D03*
X354173000Y-104673000D03*
%TD*%
D12*
%TO.C,D38*%
X110305115Y-65913638D03*
X110305115Y-69213638D03*
%TD*%
%TO.C,D37*%
X91285115Y-65913638D03*
X91285115Y-69213638D03*
%TD*%
%TO.C,D24*%
X157905115Y-46893638D03*
X157905115Y-50193638D03*
%TD*%
D11*
%TO.C,R4*%
X22100000Y-29718000D03*
X21080000Y-29718000D03*
%TD*%
M02*
