%TF.GenerationSoftware,KiCad,Pcbnew,(7.99.0-267-g8440d7258b)*%
%TF.CreationDate,2023-05-08T03:16:53-07:00*%
%TF.ProjectId,1_2og_repro,315f326f-675f-4726-9570-726f2e6b6963,rev?*%
%TF.SameCoordinates,Original*%
%TF.FileFunction,Other,Comment*%
%FSLAX46Y46*%
G04 Gerber Fmt 4.6, Leading zero omitted, Abs format (unit mm)*
G04 Created by KiCad (PCBNEW (7.99.0-267-g8440d7258b)) date 2023-05-08 03:16:53*
%MOMM*%
%LPD*%
G01*
G04 APERTURE LIST*
%ADD10C,0.150000*%
%ADD11C,0.120000*%
G04 APERTURE END LIST*
D10*
%TO.C,D90*%
X325850856Y-20835000D02*
X325946094Y-20882619D01*
X325946094Y-20882619D02*
X326136570Y-20882619D01*
X326136570Y-20882619D02*
X326231808Y-20835000D01*
X326231808Y-20835000D02*
X326279427Y-20739761D01*
X326279427Y-20739761D02*
X326279427Y-20692142D01*
X326279427Y-20692142D02*
X326231808Y-20596904D01*
X326231808Y-20596904D02*
X326136570Y-20549285D01*
X326136570Y-20549285D02*
X325993713Y-20549285D01*
X325993713Y-20549285D02*
X325898475Y-20501666D01*
X325898475Y-20501666D02*
X325850856Y-20406428D01*
X325850856Y-20406428D02*
X325850856Y-20358809D01*
X325850856Y-20358809D02*
X325898475Y-20263571D01*
X325898475Y-20263571D02*
X325993713Y-20215952D01*
X325993713Y-20215952D02*
X326136570Y-20215952D01*
X326136570Y-20215952D02*
X326231808Y-20263571D01*
X326612761Y-20215952D02*
X326803237Y-20882619D01*
X326803237Y-20882619D02*
X326993713Y-20406428D01*
X326993713Y-20406428D02*
X327184189Y-20882619D01*
X327184189Y-20882619D02*
X327374665Y-20215952D01*
X327755618Y-20882619D02*
X327755618Y-20215952D01*
X327755618Y-19882619D02*
X327707999Y-19930238D01*
X327707999Y-19930238D02*
X327755618Y-19977857D01*
X327755618Y-19977857D02*
X327803237Y-19930238D01*
X327803237Y-19930238D02*
X327755618Y-19882619D01*
X327755618Y-19882619D02*
X327755618Y-19977857D01*
X328088951Y-20215952D02*
X328469903Y-20215952D01*
X328231808Y-19882619D02*
X328231808Y-20739761D01*
X328231808Y-20739761D02*
X328279427Y-20835000D01*
X328279427Y-20835000D02*
X328374665Y-20882619D01*
X328374665Y-20882619D02*
X328469903Y-20882619D01*
X329231808Y-20835000D02*
X329136570Y-20882619D01*
X329136570Y-20882619D02*
X328946094Y-20882619D01*
X328946094Y-20882619D02*
X328850856Y-20835000D01*
X328850856Y-20835000D02*
X328803237Y-20787380D01*
X328803237Y-20787380D02*
X328755618Y-20692142D01*
X328755618Y-20692142D02*
X328755618Y-20406428D01*
X328755618Y-20406428D02*
X328803237Y-20311190D01*
X328803237Y-20311190D02*
X328850856Y-20263571D01*
X328850856Y-20263571D02*
X328946094Y-20215952D01*
X328946094Y-20215952D02*
X329136570Y-20215952D01*
X329136570Y-20215952D02*
X329231808Y-20263571D01*
X329660380Y-20882619D02*
X329660380Y-19882619D01*
X330088951Y-20882619D02*
X330088951Y-20358809D01*
X330088951Y-20358809D02*
X330041332Y-20263571D01*
X330041332Y-20263571D02*
X329946094Y-20215952D01*
X329946094Y-20215952D02*
X329803237Y-20215952D01*
X329803237Y-20215952D02*
X329707999Y-20263571D01*
X329707999Y-20263571D02*
X329660380Y-20311190D01*
X331755618Y-20835000D02*
X331660380Y-20882619D01*
X331660380Y-20882619D02*
X331469904Y-20882619D01*
X331469904Y-20882619D02*
X331374666Y-20835000D01*
X331374666Y-20835000D02*
X331327047Y-20787380D01*
X331327047Y-20787380D02*
X331279428Y-20692142D01*
X331279428Y-20692142D02*
X331279428Y-20406428D01*
X331279428Y-20406428D02*
X331327047Y-20311190D01*
X331327047Y-20311190D02*
X331374666Y-20263571D01*
X331374666Y-20263571D02*
X331469904Y-20215952D01*
X331469904Y-20215952D02*
X331660380Y-20215952D01*
X331660380Y-20215952D02*
X331755618Y-20263571D01*
X332565142Y-20835000D02*
X332469904Y-20882619D01*
X332469904Y-20882619D02*
X332279428Y-20882619D01*
X332279428Y-20882619D02*
X332184190Y-20835000D01*
X332184190Y-20835000D02*
X332136571Y-20739761D01*
X332136571Y-20739761D02*
X332136571Y-20358809D01*
X332136571Y-20358809D02*
X332184190Y-20263571D01*
X332184190Y-20263571D02*
X332279428Y-20215952D01*
X332279428Y-20215952D02*
X332469904Y-20215952D01*
X332469904Y-20215952D02*
X332565142Y-20263571D01*
X332565142Y-20263571D02*
X332612761Y-20358809D01*
X332612761Y-20358809D02*
X332612761Y-20454047D01*
X332612761Y-20454047D02*
X332136571Y-20549285D01*
X333041333Y-20215952D02*
X333041333Y-20882619D01*
X333041333Y-20311190D02*
X333088952Y-20263571D01*
X333088952Y-20263571D02*
X333184190Y-20215952D01*
X333184190Y-20215952D02*
X333327047Y-20215952D01*
X333327047Y-20215952D02*
X333422285Y-20263571D01*
X333422285Y-20263571D02*
X333469904Y-20358809D01*
X333469904Y-20358809D02*
X333469904Y-20882619D01*
X333803238Y-20215952D02*
X334184190Y-20215952D01*
X333946095Y-19882619D02*
X333946095Y-20739761D01*
X333946095Y-20739761D02*
X333993714Y-20835000D01*
X333993714Y-20835000D02*
X334088952Y-20882619D01*
X334088952Y-20882619D02*
X334184190Y-20882619D01*
X334898476Y-20835000D02*
X334803238Y-20882619D01*
X334803238Y-20882619D02*
X334612762Y-20882619D01*
X334612762Y-20882619D02*
X334517524Y-20835000D01*
X334517524Y-20835000D02*
X334469905Y-20739761D01*
X334469905Y-20739761D02*
X334469905Y-20358809D01*
X334469905Y-20358809D02*
X334517524Y-20263571D01*
X334517524Y-20263571D02*
X334612762Y-20215952D01*
X334612762Y-20215952D02*
X334803238Y-20215952D01*
X334803238Y-20215952D02*
X334898476Y-20263571D01*
X334898476Y-20263571D02*
X334946095Y-20358809D01*
X334946095Y-20358809D02*
X334946095Y-20454047D01*
X334946095Y-20454047D02*
X334469905Y-20549285D01*
X335374667Y-20882619D02*
X335374667Y-20215952D01*
X335374667Y-20406428D02*
X335422286Y-20311190D01*
X335422286Y-20311190D02*
X335469905Y-20263571D01*
X335469905Y-20263571D02*
X335565143Y-20215952D01*
X335565143Y-20215952D02*
X335660381Y-20215952D01*
%TO.C,D92*%
X16738971Y-20839638D02*
X16834209Y-20887257D01*
X16834209Y-20887257D02*
X17024685Y-20887257D01*
X17024685Y-20887257D02*
X17119923Y-20839638D01*
X17119923Y-20839638D02*
X17167542Y-20744399D01*
X17167542Y-20744399D02*
X17167542Y-20696780D01*
X17167542Y-20696780D02*
X17119923Y-20601542D01*
X17119923Y-20601542D02*
X17024685Y-20553923D01*
X17024685Y-20553923D02*
X16881828Y-20553923D01*
X16881828Y-20553923D02*
X16786590Y-20506304D01*
X16786590Y-20506304D02*
X16738971Y-20411066D01*
X16738971Y-20411066D02*
X16738971Y-20363447D01*
X16738971Y-20363447D02*
X16786590Y-20268209D01*
X16786590Y-20268209D02*
X16881828Y-20220590D01*
X16881828Y-20220590D02*
X17024685Y-20220590D01*
X17024685Y-20220590D02*
X17119923Y-20268209D01*
X17500876Y-20220590D02*
X17691352Y-20887257D01*
X17691352Y-20887257D02*
X17881828Y-20411066D01*
X17881828Y-20411066D02*
X18072304Y-20887257D01*
X18072304Y-20887257D02*
X18262780Y-20220590D01*
X18643733Y-20887257D02*
X18643733Y-20220590D01*
X18643733Y-19887257D02*
X18596114Y-19934876D01*
X18596114Y-19934876D02*
X18643733Y-19982495D01*
X18643733Y-19982495D02*
X18691352Y-19934876D01*
X18691352Y-19934876D02*
X18643733Y-19887257D01*
X18643733Y-19887257D02*
X18643733Y-19982495D01*
X18977066Y-20220590D02*
X19358018Y-20220590D01*
X19119923Y-19887257D02*
X19119923Y-20744399D01*
X19119923Y-20744399D02*
X19167542Y-20839638D01*
X19167542Y-20839638D02*
X19262780Y-20887257D01*
X19262780Y-20887257D02*
X19358018Y-20887257D01*
X20119923Y-20839638D02*
X20024685Y-20887257D01*
X20024685Y-20887257D02*
X19834209Y-20887257D01*
X19834209Y-20887257D02*
X19738971Y-20839638D01*
X19738971Y-20839638D02*
X19691352Y-20792018D01*
X19691352Y-20792018D02*
X19643733Y-20696780D01*
X19643733Y-20696780D02*
X19643733Y-20411066D01*
X19643733Y-20411066D02*
X19691352Y-20315828D01*
X19691352Y-20315828D02*
X19738971Y-20268209D01*
X19738971Y-20268209D02*
X19834209Y-20220590D01*
X19834209Y-20220590D02*
X20024685Y-20220590D01*
X20024685Y-20220590D02*
X20119923Y-20268209D01*
X20548495Y-20887257D02*
X20548495Y-19887257D01*
X20977066Y-20887257D02*
X20977066Y-20363447D01*
X20977066Y-20363447D02*
X20929447Y-20268209D01*
X20929447Y-20268209D02*
X20834209Y-20220590D01*
X20834209Y-20220590D02*
X20691352Y-20220590D01*
X20691352Y-20220590D02*
X20596114Y-20268209D01*
X20596114Y-20268209D02*
X20548495Y-20315828D01*
X22643733Y-20839638D02*
X22548495Y-20887257D01*
X22548495Y-20887257D02*
X22358019Y-20887257D01*
X22358019Y-20887257D02*
X22262781Y-20839638D01*
X22262781Y-20839638D02*
X22215162Y-20792018D01*
X22215162Y-20792018D02*
X22167543Y-20696780D01*
X22167543Y-20696780D02*
X22167543Y-20411066D01*
X22167543Y-20411066D02*
X22215162Y-20315828D01*
X22215162Y-20315828D02*
X22262781Y-20268209D01*
X22262781Y-20268209D02*
X22358019Y-20220590D01*
X22358019Y-20220590D02*
X22548495Y-20220590D01*
X22548495Y-20220590D02*
X22643733Y-20268209D01*
X23453257Y-20839638D02*
X23358019Y-20887257D01*
X23358019Y-20887257D02*
X23167543Y-20887257D01*
X23167543Y-20887257D02*
X23072305Y-20839638D01*
X23072305Y-20839638D02*
X23024686Y-20744399D01*
X23024686Y-20744399D02*
X23024686Y-20363447D01*
X23024686Y-20363447D02*
X23072305Y-20268209D01*
X23072305Y-20268209D02*
X23167543Y-20220590D01*
X23167543Y-20220590D02*
X23358019Y-20220590D01*
X23358019Y-20220590D02*
X23453257Y-20268209D01*
X23453257Y-20268209D02*
X23500876Y-20363447D01*
X23500876Y-20363447D02*
X23500876Y-20458685D01*
X23500876Y-20458685D02*
X23024686Y-20553923D01*
X23929448Y-20220590D02*
X23929448Y-20887257D01*
X23929448Y-20315828D02*
X23977067Y-20268209D01*
X23977067Y-20268209D02*
X24072305Y-20220590D01*
X24072305Y-20220590D02*
X24215162Y-20220590D01*
X24215162Y-20220590D02*
X24310400Y-20268209D01*
X24310400Y-20268209D02*
X24358019Y-20363447D01*
X24358019Y-20363447D02*
X24358019Y-20887257D01*
X24691353Y-20220590D02*
X25072305Y-20220590D01*
X24834210Y-19887257D02*
X24834210Y-20744399D01*
X24834210Y-20744399D02*
X24881829Y-20839638D01*
X24881829Y-20839638D02*
X24977067Y-20887257D01*
X24977067Y-20887257D02*
X25072305Y-20887257D01*
X25786591Y-20839638D02*
X25691353Y-20887257D01*
X25691353Y-20887257D02*
X25500877Y-20887257D01*
X25500877Y-20887257D02*
X25405639Y-20839638D01*
X25405639Y-20839638D02*
X25358020Y-20744399D01*
X25358020Y-20744399D02*
X25358020Y-20363447D01*
X25358020Y-20363447D02*
X25405639Y-20268209D01*
X25405639Y-20268209D02*
X25500877Y-20220590D01*
X25500877Y-20220590D02*
X25691353Y-20220590D01*
X25691353Y-20220590D02*
X25786591Y-20268209D01*
X25786591Y-20268209D02*
X25834210Y-20363447D01*
X25834210Y-20363447D02*
X25834210Y-20458685D01*
X25834210Y-20458685D02*
X25358020Y-20553923D01*
X26262782Y-20887257D02*
X26262782Y-20220590D01*
X26262782Y-20411066D02*
X26310401Y-20315828D01*
X26310401Y-20315828D02*
X26358020Y-20268209D01*
X26358020Y-20268209D02*
X26453258Y-20220590D01*
X26453258Y-20220590D02*
X26548496Y-20220590D01*
%TO.C,D91*%
X19098971Y-82657638D02*
X19194209Y-82705257D01*
X19194209Y-82705257D02*
X19384685Y-82705257D01*
X19384685Y-82705257D02*
X19479923Y-82657638D01*
X19479923Y-82657638D02*
X19527542Y-82562399D01*
X19527542Y-82562399D02*
X19527542Y-82514780D01*
X19527542Y-82514780D02*
X19479923Y-82419542D01*
X19479923Y-82419542D02*
X19384685Y-82371923D01*
X19384685Y-82371923D02*
X19241828Y-82371923D01*
X19241828Y-82371923D02*
X19146590Y-82324304D01*
X19146590Y-82324304D02*
X19098971Y-82229066D01*
X19098971Y-82229066D02*
X19098971Y-82181447D01*
X19098971Y-82181447D02*
X19146590Y-82086209D01*
X19146590Y-82086209D02*
X19241828Y-82038590D01*
X19241828Y-82038590D02*
X19384685Y-82038590D01*
X19384685Y-82038590D02*
X19479923Y-82086209D01*
X19860876Y-82038590D02*
X20051352Y-82705257D01*
X20051352Y-82705257D02*
X20241828Y-82229066D01*
X20241828Y-82229066D02*
X20432304Y-82705257D01*
X20432304Y-82705257D02*
X20622780Y-82038590D01*
X21003733Y-82705257D02*
X21003733Y-82038590D01*
X21003733Y-81705257D02*
X20956114Y-81752876D01*
X20956114Y-81752876D02*
X21003733Y-81800495D01*
X21003733Y-81800495D02*
X21051352Y-81752876D01*
X21051352Y-81752876D02*
X21003733Y-81705257D01*
X21003733Y-81705257D02*
X21003733Y-81800495D01*
X21337066Y-82038590D02*
X21718018Y-82038590D01*
X21479923Y-81705257D02*
X21479923Y-82562399D01*
X21479923Y-82562399D02*
X21527542Y-82657638D01*
X21527542Y-82657638D02*
X21622780Y-82705257D01*
X21622780Y-82705257D02*
X21718018Y-82705257D01*
X22479923Y-82657638D02*
X22384685Y-82705257D01*
X22384685Y-82705257D02*
X22194209Y-82705257D01*
X22194209Y-82705257D02*
X22098971Y-82657638D01*
X22098971Y-82657638D02*
X22051352Y-82610018D01*
X22051352Y-82610018D02*
X22003733Y-82514780D01*
X22003733Y-82514780D02*
X22003733Y-82229066D01*
X22003733Y-82229066D02*
X22051352Y-82133828D01*
X22051352Y-82133828D02*
X22098971Y-82086209D01*
X22098971Y-82086209D02*
X22194209Y-82038590D01*
X22194209Y-82038590D02*
X22384685Y-82038590D01*
X22384685Y-82038590D02*
X22479923Y-82086209D01*
X22908495Y-82705257D02*
X22908495Y-81705257D01*
X23337066Y-82705257D02*
X23337066Y-82181447D01*
X23337066Y-82181447D02*
X23289447Y-82086209D01*
X23289447Y-82086209D02*
X23194209Y-82038590D01*
X23194209Y-82038590D02*
X23051352Y-82038590D01*
X23051352Y-82038590D02*
X22956114Y-82086209D01*
X22956114Y-82086209D02*
X22908495Y-82133828D01*
X25003733Y-82657638D02*
X24908495Y-82705257D01*
X24908495Y-82705257D02*
X24718019Y-82705257D01*
X24718019Y-82705257D02*
X24622781Y-82657638D01*
X24622781Y-82657638D02*
X24575162Y-82610018D01*
X24575162Y-82610018D02*
X24527543Y-82514780D01*
X24527543Y-82514780D02*
X24527543Y-82229066D01*
X24527543Y-82229066D02*
X24575162Y-82133828D01*
X24575162Y-82133828D02*
X24622781Y-82086209D01*
X24622781Y-82086209D02*
X24718019Y-82038590D01*
X24718019Y-82038590D02*
X24908495Y-82038590D01*
X24908495Y-82038590D02*
X25003733Y-82086209D01*
X25813257Y-82657638D02*
X25718019Y-82705257D01*
X25718019Y-82705257D02*
X25527543Y-82705257D01*
X25527543Y-82705257D02*
X25432305Y-82657638D01*
X25432305Y-82657638D02*
X25384686Y-82562399D01*
X25384686Y-82562399D02*
X25384686Y-82181447D01*
X25384686Y-82181447D02*
X25432305Y-82086209D01*
X25432305Y-82086209D02*
X25527543Y-82038590D01*
X25527543Y-82038590D02*
X25718019Y-82038590D01*
X25718019Y-82038590D02*
X25813257Y-82086209D01*
X25813257Y-82086209D02*
X25860876Y-82181447D01*
X25860876Y-82181447D02*
X25860876Y-82276685D01*
X25860876Y-82276685D02*
X25384686Y-82371923D01*
X26289448Y-82038590D02*
X26289448Y-82705257D01*
X26289448Y-82133828D02*
X26337067Y-82086209D01*
X26337067Y-82086209D02*
X26432305Y-82038590D01*
X26432305Y-82038590D02*
X26575162Y-82038590D01*
X26575162Y-82038590D02*
X26670400Y-82086209D01*
X26670400Y-82086209D02*
X26718019Y-82181447D01*
X26718019Y-82181447D02*
X26718019Y-82705257D01*
X27051353Y-82038590D02*
X27432305Y-82038590D01*
X27194210Y-81705257D02*
X27194210Y-82562399D01*
X27194210Y-82562399D02*
X27241829Y-82657638D01*
X27241829Y-82657638D02*
X27337067Y-82705257D01*
X27337067Y-82705257D02*
X27432305Y-82705257D01*
X28146591Y-82657638D02*
X28051353Y-82705257D01*
X28051353Y-82705257D02*
X27860877Y-82705257D01*
X27860877Y-82705257D02*
X27765639Y-82657638D01*
X27765639Y-82657638D02*
X27718020Y-82562399D01*
X27718020Y-82562399D02*
X27718020Y-82181447D01*
X27718020Y-82181447D02*
X27765639Y-82086209D01*
X27765639Y-82086209D02*
X27860877Y-82038590D01*
X27860877Y-82038590D02*
X28051353Y-82038590D01*
X28051353Y-82038590D02*
X28146591Y-82086209D01*
X28146591Y-82086209D02*
X28194210Y-82181447D01*
X28194210Y-82181447D02*
X28194210Y-82276685D01*
X28194210Y-82276685D02*
X27718020Y-82371923D01*
X28622782Y-82705257D02*
X28622782Y-82038590D01*
X28622782Y-82229066D02*
X28670401Y-82133828D01*
X28670401Y-82133828D02*
X28718020Y-82086209D01*
X28718020Y-82086209D02*
X28813258Y-82038590D01*
X28813258Y-82038590D02*
X28908496Y-82038590D01*
%TO.C,D89*%
X23861471Y-82657638D02*
X23956709Y-82705257D01*
X23956709Y-82705257D02*
X24147185Y-82705257D01*
X24147185Y-82705257D02*
X24242423Y-82657638D01*
X24242423Y-82657638D02*
X24290042Y-82562399D01*
X24290042Y-82562399D02*
X24290042Y-82514780D01*
X24290042Y-82514780D02*
X24242423Y-82419542D01*
X24242423Y-82419542D02*
X24147185Y-82371923D01*
X24147185Y-82371923D02*
X24004328Y-82371923D01*
X24004328Y-82371923D02*
X23909090Y-82324304D01*
X23909090Y-82324304D02*
X23861471Y-82229066D01*
X23861471Y-82229066D02*
X23861471Y-82181447D01*
X23861471Y-82181447D02*
X23909090Y-82086209D01*
X23909090Y-82086209D02*
X24004328Y-82038590D01*
X24004328Y-82038590D02*
X24147185Y-82038590D01*
X24147185Y-82038590D02*
X24242423Y-82086209D01*
X24623376Y-82038590D02*
X24813852Y-82705257D01*
X24813852Y-82705257D02*
X25004328Y-82229066D01*
X25004328Y-82229066D02*
X25194804Y-82705257D01*
X25194804Y-82705257D02*
X25385280Y-82038590D01*
X25766233Y-82705257D02*
X25766233Y-82038590D01*
X25766233Y-81705257D02*
X25718614Y-81752876D01*
X25718614Y-81752876D02*
X25766233Y-81800495D01*
X25766233Y-81800495D02*
X25813852Y-81752876D01*
X25813852Y-81752876D02*
X25766233Y-81705257D01*
X25766233Y-81705257D02*
X25766233Y-81800495D01*
X26099566Y-82038590D02*
X26480518Y-82038590D01*
X26242423Y-81705257D02*
X26242423Y-82562399D01*
X26242423Y-82562399D02*
X26290042Y-82657638D01*
X26290042Y-82657638D02*
X26385280Y-82705257D01*
X26385280Y-82705257D02*
X26480518Y-82705257D01*
X27242423Y-82657638D02*
X27147185Y-82705257D01*
X27147185Y-82705257D02*
X26956709Y-82705257D01*
X26956709Y-82705257D02*
X26861471Y-82657638D01*
X26861471Y-82657638D02*
X26813852Y-82610018D01*
X26813852Y-82610018D02*
X26766233Y-82514780D01*
X26766233Y-82514780D02*
X26766233Y-82229066D01*
X26766233Y-82229066D02*
X26813852Y-82133828D01*
X26813852Y-82133828D02*
X26861471Y-82086209D01*
X26861471Y-82086209D02*
X26956709Y-82038590D01*
X26956709Y-82038590D02*
X27147185Y-82038590D01*
X27147185Y-82038590D02*
X27242423Y-82086209D01*
X27670995Y-82705257D02*
X27670995Y-81705257D01*
X28099566Y-82705257D02*
X28099566Y-82181447D01*
X28099566Y-82181447D02*
X28051947Y-82086209D01*
X28051947Y-82086209D02*
X27956709Y-82038590D01*
X27956709Y-82038590D02*
X27813852Y-82038590D01*
X27813852Y-82038590D02*
X27718614Y-82086209D01*
X27718614Y-82086209D02*
X27670995Y-82133828D01*
X29766233Y-82657638D02*
X29670995Y-82705257D01*
X29670995Y-82705257D02*
X29480519Y-82705257D01*
X29480519Y-82705257D02*
X29385281Y-82657638D01*
X29385281Y-82657638D02*
X29337662Y-82610018D01*
X29337662Y-82610018D02*
X29290043Y-82514780D01*
X29290043Y-82514780D02*
X29290043Y-82229066D01*
X29290043Y-82229066D02*
X29337662Y-82133828D01*
X29337662Y-82133828D02*
X29385281Y-82086209D01*
X29385281Y-82086209D02*
X29480519Y-82038590D01*
X29480519Y-82038590D02*
X29670995Y-82038590D01*
X29670995Y-82038590D02*
X29766233Y-82086209D01*
X30575757Y-82657638D02*
X30480519Y-82705257D01*
X30480519Y-82705257D02*
X30290043Y-82705257D01*
X30290043Y-82705257D02*
X30194805Y-82657638D01*
X30194805Y-82657638D02*
X30147186Y-82562399D01*
X30147186Y-82562399D02*
X30147186Y-82181447D01*
X30147186Y-82181447D02*
X30194805Y-82086209D01*
X30194805Y-82086209D02*
X30290043Y-82038590D01*
X30290043Y-82038590D02*
X30480519Y-82038590D01*
X30480519Y-82038590D02*
X30575757Y-82086209D01*
X30575757Y-82086209D02*
X30623376Y-82181447D01*
X30623376Y-82181447D02*
X30623376Y-82276685D01*
X30623376Y-82276685D02*
X30147186Y-82371923D01*
X31051948Y-82038590D02*
X31051948Y-82705257D01*
X31051948Y-82133828D02*
X31099567Y-82086209D01*
X31099567Y-82086209D02*
X31194805Y-82038590D01*
X31194805Y-82038590D02*
X31337662Y-82038590D01*
X31337662Y-82038590D02*
X31432900Y-82086209D01*
X31432900Y-82086209D02*
X31480519Y-82181447D01*
X31480519Y-82181447D02*
X31480519Y-82705257D01*
X31813853Y-82038590D02*
X32194805Y-82038590D01*
X31956710Y-81705257D02*
X31956710Y-82562399D01*
X31956710Y-82562399D02*
X32004329Y-82657638D01*
X32004329Y-82657638D02*
X32099567Y-82705257D01*
X32099567Y-82705257D02*
X32194805Y-82705257D01*
X32909091Y-82657638D02*
X32813853Y-82705257D01*
X32813853Y-82705257D02*
X32623377Y-82705257D01*
X32623377Y-82705257D02*
X32528139Y-82657638D01*
X32528139Y-82657638D02*
X32480520Y-82562399D01*
X32480520Y-82562399D02*
X32480520Y-82181447D01*
X32480520Y-82181447D02*
X32528139Y-82086209D01*
X32528139Y-82086209D02*
X32623377Y-82038590D01*
X32623377Y-82038590D02*
X32813853Y-82038590D01*
X32813853Y-82038590D02*
X32909091Y-82086209D01*
X32909091Y-82086209D02*
X32956710Y-82181447D01*
X32956710Y-82181447D02*
X32956710Y-82276685D01*
X32956710Y-82276685D02*
X32480520Y-82371923D01*
X33385282Y-82705257D02*
X33385282Y-82038590D01*
X33385282Y-82229066D02*
X33432901Y-82133828D01*
X33432901Y-82133828D02*
X33480520Y-82086209D01*
X33480520Y-82086209D02*
X33575758Y-82038590D01*
X33575758Y-82038590D02*
X33670996Y-82038590D01*
D11*
%TO.C,D90*%
X330458000Y-21840000D02*
X330708000Y-21590000D01*
X330708000Y-21590000D02*
X330458000Y-21340000D01*
X330708000Y-21590000D02*
X330958000Y-21340000D01*
X330958000Y-21840000D02*
X330708000Y-21590000D01*
D10*
%TO.C,H1*%
X304209027Y-77392443D02*
G75*
G03*
X304209027Y-77392443I-3200000J0D01*
G01*
D11*
%TO.C,D92*%
X21346115Y-21844638D02*
X21596115Y-21594638D01*
X21596115Y-21594638D02*
X21346115Y-21344638D01*
X21596115Y-21594638D02*
X21846115Y-21344638D01*
X21846115Y-21844638D02*
X21596115Y-21594638D01*
D10*
%TO.C,H2*%
X358926066Y-89414572D02*
G75*
G03*
X358926066Y-89414572I-3200000J0D01*
G01*
D11*
%TO.C,D91*%
X23706115Y-83662638D02*
X23956115Y-83412638D01*
X23956115Y-83412638D02*
X23706115Y-83162638D01*
X23956115Y-83412638D02*
X24206115Y-83162638D01*
X24206115Y-83662638D02*
X23956115Y-83412638D01*
%TO.C,D89*%
X28468615Y-83662638D02*
X28718615Y-83412638D01*
X28718615Y-83412638D02*
X28468615Y-83162638D01*
X28718615Y-83412638D02*
X28968615Y-83162638D01*
X28968615Y-83662638D02*
X28718615Y-83412638D01*
%TD*%
M02*
