%TF.GenerationSoftware,KiCad,Pcbnew,(7.99.0-267-g8440d7258b)*%
%TF.CreationDate,2023-05-08T03:16:53-07:00*%
%TF.ProjectId,1_2og_repro,315f326f-675f-4726-9570-726f2e6b6963,rev?*%
%TF.SameCoordinates,Original*%
%TF.FileFunction,Profile,NP*%
%FSLAX46Y46*%
G04 Gerber Fmt 4.6, Leading zero omitted, Abs format (unit mm)*
G04 Created by KiCad (PCBNEW (7.99.0-267-g8440d7258b)) date 2023-05-08 03:16:53*
%MOMM*%
%LPD*%
G01*
G04 APERTURE LIST*
%TA.AperFunction,Profile*%
%ADD10C,0.200000*%
%TD*%
G04 APERTURE END LIST*
D10*
X298109027Y-92514638D02*
X298109027Y-88914638D01*
X359227054Y-94934591D02*
X359225985Y-14094266D01*
X359225932Y-14094266D02*
G75*
G03*
X357225985Y-12094268I-1999832J166D01*
G01*
X359226080Y-111954620D02*
G75*
G03*
X358726094Y-111454620I-499880J120D01*
G01*
X358226067Y-95434571D02*
G75*
G03*
X357726071Y-95934597I33J-500029D01*
G01*
X294396115Y-12094261D02*
X14094189Y-12094234D01*
X14094189Y-12094228D02*
G75*
G03*
X12094188Y-14094169I11J-2000012D01*
G01*
X307089027Y-92514638D02*
X307089027Y-88914638D01*
X294796115Y-11494638D02*
X294796115Y-11694261D01*
X298609027Y-88414627D02*
G75*
G03*
X298109027Y-88914638I-27J-499973D01*
G01*
X304396115Y-11094638D02*
X295196115Y-11094638D01*
X295196115Y-11094615D02*
G75*
G03*
X294796115Y-11494638I85J-400085D01*
G01*
X298109062Y-92514638D02*
G75*
G03*
X298609027Y-93014638I499938J-62D01*
G01*
X304796137Y-11694263D02*
G75*
G03*
X305196115Y-12094263I400063J63D01*
G01*
X357726081Y-110954620D02*
G75*
G03*
X358226088Y-111454619I500119J120D01*
G01*
X306589027Y-93014627D02*
G75*
G03*
X307089027Y-92514638I-27J500027D01*
G01*
X304796062Y-11494638D02*
G75*
G03*
X304396115Y-11094638I-399862J138D01*
G01*
X298609027Y-88414638D02*
X306589027Y-88414638D01*
X12090467Y-128354419D02*
G75*
G03*
X14090538Y-130354493I1999903J-171D01*
G01*
X12094188Y-14094169D02*
X12090471Y-128354419D01*
X357226064Y-130354611D02*
G75*
G03*
X359226111Y-128354587I-164J2000211D01*
G01*
X358727058Y-95434554D02*
G75*
G03*
X359227054Y-94934591I142J499854D01*
G01*
X307089062Y-88914638D02*
G75*
G03*
X306589027Y-88414638I-500062J-62D01*
G01*
X359226111Y-128354587D02*
X359226093Y-111954620D01*
X357225985Y-12094268D02*
X305196115Y-12094263D01*
X358226088Y-111454619D02*
X358726094Y-111454620D01*
X14090470Y-130354493D02*
X357226064Y-130354589D01*
X358226067Y-95434596D02*
X358727058Y-95434592D01*
X298609027Y-93014638D02*
X306589027Y-93014638D01*
X304796115Y-11494638D02*
X304796115Y-11694263D01*
X357726089Y-110954620D02*
X357726071Y-95934597D01*
X294396115Y-12094315D02*
G75*
G03*
X294796115Y-11694261I85J399915D01*
G01*
M02*
