M48
; DRILL file {KiCad (7.99.0-267-g8440d7258b)} date Friday, May 05, 2023 at 02:11:09 PM
; FORMAT={-:-/ absolute / inch / decimal}
; #@! TF.CreationDate,2023-05-05T14:11:09-07:00
; #@! TF.GenerationSoftware,Kicad,Pcbnew,(7.99.0-267-g8440d7258b)
; #@! TF.FileFunction,NonPlated,1,2,NPTH
FMAT,2
INCH
; #@! TA.AperFunction,NonPlated,NPTH,ComponentDrill
T1C0.0689
; #@! TA.AperFunction,NonPlated,NPTH,ComponentDrill
T2C0.1200
; #@! TA.AperFunction,NonPlated,NPTH,ComponentDrill
T3C0.1570
%
G90
G05
T1
X0.6502Y-0.8502
X0.6502Y-1.7864
X0.7432Y-3.284
X0.8365Y-2.5352
X0.8372Y-4.7817
X0.9307Y-3.284
X1.0502Y-0.8502
X1.0502Y-1.7864
X1.1187Y-4.0329
X1.1432Y-3.284
X1.2365Y-2.5352
X1.2372Y-4.7817
X1.3307Y-3.284
X1.3991Y-1.7864
X1.5187Y-4.0329
X1.7715Y-2.5352
X1.772Y-4.7817
X1.7991Y-1.7864
X1.964Y-3.284
X2.1479Y-1.7864
X2.1479Y-0.8504
X2.1715Y-2.5352
X2.172Y-4.7817
X2.3361Y-4.0329
X2.364Y-3.284
X2.5203Y-2.5352
X2.5479Y-1.7864
X2.5479Y-0.8504
X2.7052Y-4.7817
X2.7121Y-3.284
X2.7361Y-4.0329
X2.8967Y-1.7864
X2.8967Y-0.8504
X2.9203Y-2.5352
X3.0841Y-4.0329
X3.1052Y-4.7817
X3.1121Y-3.284
X3.2691Y-2.5352
X3.2967Y-1.7864
X3.2967Y-0.8504
X3.4601Y-3.284
X3.4841Y-4.0329
X3.6455Y-1.7864
X3.6455Y-0.8504
X3.6691Y-2.5352
X3.8321Y-4.0329
X3.8601Y-3.284
X4.018Y-2.5352
X4.0455Y-1.7864
X4.0455Y-0.8504
X4.2081Y-3.284
X4.2321Y-4.0329
X4.3943Y-1.7864
X4.3944Y-0.8504
X4.418Y-2.5352
X4.5802Y-4.0329
X4.6081Y-3.284
X4.7668Y-2.5352
X4.7943Y-1.7864
X4.7944Y-0.8504
X4.9561Y-3.284
X4.9802Y-4.0329
X5.1432Y-1.7864
X5.1668Y-2.5352
X5.3282Y-4.0329
X5.3561Y-3.284
X5.5156Y-2.5352
X5.5176Y-0.8502
X5.5432Y-1.7864
X5.7042Y-3.284
X5.7282Y-4.0329
X5.892Y-1.7864
X5.8924Y-4.7816
X5.9156Y-2.5352
X5.9176Y-0.8502
X6.0762Y-4.0329
X6.1042Y-3.284
X6.2644Y-2.5352
X6.2664Y-0.8502
X6.292Y-1.7864
X6.2924Y-4.7816
X6.453Y-3.284
X6.4762Y-4.0329
X6.6408Y-1.7864
X6.6644Y-2.5352
X6.6664Y-0.8502
X6.8243Y-4.0329
X6.853Y-3.284
X7.0132Y-2.5352
X7.0152Y-0.8502
X7.0408Y-1.7864
X7.2018Y-3.284
X7.2243Y-4.0329
X7.3896Y-1.7864
X7.4132Y-2.5352
X7.4152Y-0.8502
X7.5723Y-4.0329
X7.6018Y-3.284
X7.7621Y-2.5352
X7.764Y-0.8502
X7.7896Y-1.7864
X7.9498Y-3.284
X7.9723Y-4.0329
X8.1384Y-1.7864
X8.1621Y-2.5352
X8.164Y-0.8502
X8.3203Y-4.0329
X8.3498Y-3.284
X8.5109Y-2.5352
X8.5384Y-1.7864
X8.6979Y-3.284
X8.7203Y-4.0329
X8.8872Y-0.8502
X8.8872Y-1.7864
X8.9109Y-2.5352
X9.0684Y-4.0329
X9.08Y-4.7817
X9.0979Y-3.284
X9.2597Y-2.5352
X9.2872Y-0.8502
X9.2872Y-1.7864
X9.4459Y-3.284
X9.4684Y-4.0329
X9.48Y-4.7817
X9.6361Y-0.8502
X9.6361Y-1.7864
X9.6597Y-2.5352
X9.8459Y-3.284
X10.0085Y-2.5352
X10.0141Y-4.7817
X10.0361Y-0.8502
X10.0361Y-1.7864
X10.1004Y-4.0329
X10.3855Y-1.7864
X10.3861Y-0.8502
X10.4085Y-2.5352
X10.4141Y-4.7817
X10.4748Y-4.0329
X10.5004Y-4.0329
X10.6632Y-3.284
X10.7599Y-1.7864
X10.7855Y-1.7864
X10.7861Y-0.8502
X10.8493Y-4.0329
X10.8748Y-4.0329
X10.9461Y-2.5352
X10.9479Y-4.7817
X11.0632Y-3.284
X11.1343Y-1.7864
X11.1349Y-0.8502
X11.1599Y-1.7864
X11.2493Y-4.0329
X11.3461Y-2.5352
X11.3479Y-4.7817
X11.5343Y-1.7864
X11.5349Y-0.8502
X12.0711Y-0.8502
X12.0711Y-1.7864
X12.0711Y-2.5352
X12.0711Y-4.7817
X12.4711Y-0.8502
X12.4711Y-1.7864
X12.4711Y-2.5352
X12.4711Y-4.7817
X12.8199Y-0.85
X12.8199Y-1.7864
X12.8199Y-2.5352
X12.8199Y-4.0329
X12.8199Y-4.7817
X13.2199Y-0.85
X13.2199Y-1.7864
X13.2199Y-2.5352
X13.2199Y-4.0329
X13.2199Y-4.7817
X13.5687Y-0.8502
X13.5687Y-1.7864
X13.5687Y-2.5352
X13.5687Y-4.7817
X13.9687Y-0.8502
X13.9687Y-1.7864
X13.9687Y-2.5352
X13.9687Y-4.7817
T2
X0.85Y-3.7579
X1.7875Y-3.7579
X3.8424Y-5.0566
X8.3424Y-5.0566
X10.3945Y-3.559
X11.332Y-3.559
T3
X0.85Y-4.3579
X0.8502Y-0.8502
X0.8502Y-1.7864
X0.9432Y-3.284
X1.0365Y-2.5352
X1.0372Y-4.7817
X1.1307Y-3.284
X1.3187Y-4.0329
X1.5991Y-1.7864
X1.7875Y-4.3579
X1.9715Y-2.5352
X1.972Y-4.7817
X2.164Y-3.284
X2.3479Y-1.7864
X2.3479Y-0.8504
X2.5361Y-4.0329
X2.7203Y-2.5352
X2.9052Y-4.7817
X2.9121Y-3.284
X3.0967Y-1.7864
X3.0967Y-0.8504
X3.2841Y-4.0329
X3.4691Y-2.5352
X3.6601Y-3.284
X3.8424Y-4.4566
X3.8455Y-1.7864
X3.8455Y-0.8504
X4.0321Y-4.0329
X4.218Y-2.5352
X4.4081Y-3.284
X4.5943Y-1.7864
X4.5944Y-0.8504
X4.7802Y-4.0329
X4.9668Y-2.5352
X5.1561Y-3.284
X5.3432Y-1.7864
X5.5282Y-4.0329
X5.7156Y-2.5352
X5.7176Y-0.8502
X5.9042Y-3.284
X6.092Y-1.7864
X6.0924Y-4.7816
X6.2762Y-4.0329
X6.4644Y-2.5352
X6.4664Y-0.8502
X6.653Y-3.284
X6.8408Y-1.7864
X7.0243Y-4.0329
X7.2132Y-2.5352
X7.2152Y-0.8502
X7.4018Y-3.284
X7.5896Y-1.7864
X7.7723Y-4.0329
X7.9621Y-2.5352
X7.964Y-0.8502
X8.1498Y-3.284
X8.3384Y-1.7864
X8.3424Y-4.4566
X8.5203Y-4.0329
X8.7109Y-2.5352
X8.8979Y-3.284
X9.0872Y-0.8502
X9.0872Y-1.7864
X9.2684Y-4.0329
X9.28Y-4.7817
X9.4597Y-2.5352
X9.6459Y-3.284
X9.8361Y-0.8502
X9.8361Y-1.7864
X10.2061Y-4.3579
X10.2085Y-2.5352
X10.2141Y-4.7817
X10.3004Y-4.0329
X10.3945Y-2.959
X10.4911Y-2.1114
X10.5855Y-1.7864
X10.5861Y-0.8502
X10.6748Y-4.0329
X10.8632Y-3.284
X10.9599Y-1.7864
X11.0493Y-4.0329
X11.1436Y-4.3579
X11.1461Y-2.5352
X11.1479Y-4.7817
X11.332Y-2.959
X11.3343Y-1.7864
X11.3349Y-0.8502
X11.4286Y-2.1114
X12.2711Y-0.8502
X12.2711Y-1.7864
X12.2711Y-2.5352
X12.2711Y-4.7817
X13.0199Y-0.85
X13.0199Y-1.7864
X13.0199Y-2.5352
X13.0199Y-4.0329
X13.0199Y-4.7817
X13.7687Y-0.8502
X13.7687Y-1.7864
X13.7687Y-2.5352
X13.7687Y-4.7817
T0
M30
