%TF.GenerationSoftware,KiCad,Pcbnew,(7.99.0-267-g8440d7258b)*%
%TF.CreationDate,2023-07-06T17:47:55-07:00*%
%TF.ProjectId,1_2og_repro,315f326f-675f-4726-9570-726f2e6b6963,rev?*%
%TF.SameCoordinates,Original*%
%TF.FileFunction,Paste,Bot*%
%TF.FilePolarity,Positive*%
%FSLAX46Y46*%
G04 Gerber Fmt 4.6, Leading zero omitted, Abs format (unit mm)*
G04 Created by KiCad (PCBNEW (7.99.0-267-g8440d7258b)) date 2023-07-06 17:47:55*
%MOMM*%
%LPD*%
G01*
G04 APERTURE LIST*
G04 Aperture macros list*
%AMRoundRect*
0 Rectangle with rounded corners*
0 $1 Rounding radius*
0 $2 $3 $4 $5 $6 $7 $8 $9 X,Y pos of 4 corners*
0 Add a 4 corners polygon primitive as box body*
4,1,4,$2,$3,$4,$5,$6,$7,$8,$9,$2,$3,0*
0 Add four circle primitives for the rounded corners*
1,1,$1+$1,$2,$3*
1,1,$1+$1,$4,$5*
1,1,$1+$1,$6,$7*
1,1,$1+$1,$8,$9*
0 Add four rect primitives between the rounded corners*
20,1,$1+$1,$2,$3,$4,$5,0*
20,1,$1+$1,$4,$5,$6,$7,0*
20,1,$1+$1,$6,$7,$8,$9,0*
20,1,$1+$1,$8,$9,$2,$3,0*%
G04 Aperture macros list end*
%ADD10RoundRect,0.140000X-0.170000X0.140000X-0.170000X-0.140000X0.170000X-0.140000X0.170000X0.140000X0*%
%ADD11RoundRect,0.225000X0.375000X-0.225000X0.375000X0.225000X-0.375000X0.225000X-0.375000X-0.225000X0*%
%ADD12RoundRect,0.140000X0.140000X0.170000X-0.140000X0.170000X-0.140000X-0.170000X0.140000X-0.170000X0*%
%ADD13RoundRect,0.075000X0.075000X-0.662500X0.075000X0.662500X-0.075000X0.662500X-0.075000X-0.662500X0*%
%ADD14RoundRect,0.075000X0.662500X-0.075000X0.662500X0.075000X-0.662500X0.075000X-0.662500X-0.075000X0*%
%ADD15RoundRect,0.135000X0.135000X0.185000X-0.135000X0.185000X-0.135000X-0.185000X0.135000X-0.185000X0*%
%ADD16RoundRect,0.140000X0.170000X-0.140000X0.170000X0.140000X-0.170000X0.140000X-0.170000X-0.140000X0*%
%ADD17RoundRect,0.150000X0.475000X0.150000X-0.475000X0.150000X-0.475000X-0.150000X0.475000X-0.150000X0*%
%ADD18RoundRect,0.140000X-0.140000X-0.170000X0.140000X-0.170000X0.140000X0.170000X-0.140000X0.170000X0*%
%ADD19RoundRect,0.150000X-0.512500X-0.150000X0.512500X-0.150000X0.512500X0.150000X-0.512500X0.150000X0*%
%ADD20RoundRect,0.135000X-0.185000X0.135000X-0.185000X-0.135000X0.185000X-0.135000X0.185000X0.135000X0*%
%ADD21RoundRect,0.150000X0.587500X0.150000X-0.587500X0.150000X-0.587500X-0.150000X0.587500X-0.150000X0*%
%ADD22RoundRect,0.250000X-0.625000X0.375000X-0.625000X-0.375000X0.625000X-0.375000X0.625000X0.375000X0*%
%ADD23RoundRect,0.135000X-0.135000X-0.185000X0.135000X-0.185000X0.135000X0.185000X-0.135000X0.185000X0*%
%ADD24RoundRect,0.150000X0.275000X-0.150000X0.275000X0.150000X-0.275000X0.150000X-0.275000X-0.150000X0*%
%ADD25RoundRect,0.175000X0.225000X-0.175000X0.225000X0.175000X-0.225000X0.175000X-0.225000X-0.175000X0*%
%ADD26R,1.700000X1.000000*%
G04 APERTURE END LIST*
D10*
%TO.C,C7*%
X322707000Y-87023000D03*
X322707000Y-87983000D03*
%TD*%
D11*
%TO.C,D9*%
X205461123Y-24832142D03*
X205461123Y-21532142D03*
%TD*%
%TO.C,D47*%
X286286123Y-67632142D03*
X286286123Y-64332142D03*
%TD*%
D12*
%TO.C,C10*%
X311884000Y-79629000D03*
X310924000Y-79629000D03*
%TD*%
D13*
%TO.C,U2*%
X321137115Y-86942138D03*
X320637115Y-86942138D03*
X320137115Y-86942138D03*
X319637115Y-86942138D03*
X319137115Y-86942138D03*
X318637115Y-86942138D03*
X318137115Y-86942138D03*
X317637115Y-86942138D03*
X317137115Y-86942138D03*
X316637115Y-86942138D03*
X316137115Y-86942138D03*
X315637115Y-86942138D03*
D14*
X314224615Y-85529638D03*
X314224615Y-85029638D03*
X314224615Y-84529638D03*
X314224615Y-84029638D03*
X314224615Y-83529638D03*
X314224615Y-83029638D03*
X314224615Y-82529638D03*
X314224615Y-82029638D03*
X314224615Y-81529638D03*
X314224615Y-81029638D03*
X314224615Y-80529638D03*
X314224615Y-80029638D03*
D13*
X315637115Y-78617138D03*
X316137115Y-78617138D03*
X316637115Y-78617138D03*
X317137115Y-78617138D03*
X317637115Y-78617138D03*
X318137115Y-78617138D03*
X318637115Y-78617138D03*
X319137115Y-78617138D03*
X319637115Y-78617138D03*
X320137115Y-78617138D03*
X320637115Y-78617138D03*
X321137115Y-78617138D03*
D14*
X322549615Y-80029638D03*
X322549615Y-80529638D03*
X322549615Y-81029638D03*
X322549615Y-81529638D03*
X322549615Y-82029638D03*
X322549615Y-82529638D03*
X322549615Y-83029638D03*
X322549615Y-83529638D03*
X322549615Y-84029638D03*
X322549615Y-84529638D03*
X322549615Y-85029638D03*
X322549615Y-85529638D03*
%TD*%
D11*
%TO.C,D5*%
X119871542Y-24836989D03*
X119871542Y-21536989D03*
%TD*%
%TO.C,D45*%
X243451123Y-67630142D03*
X243451123Y-64330142D03*
%TD*%
%TO.C,D75*%
X254254000Y-105670142D03*
X254254000Y-102370142D03*
%TD*%
%TO.C,D2*%
X62811542Y-24836989D03*
X62811542Y-21536989D03*
%TD*%
%TO.C,D28*%
X233991123Y-48610142D03*
X233991123Y-45310142D03*
%TD*%
%TO.C,D12*%
X272061123Y-24830142D03*
X272061123Y-21530142D03*
%TD*%
%TO.C,D73*%
X219711123Y-105670142D03*
X219711123Y-102370142D03*
%TD*%
D15*
%TO.C,R2*%
X26926000Y-91440000D03*
X25906000Y-91440000D03*
%TD*%
D11*
%TO.C,D22*%
X119871123Y-48610142D03*
X119871123Y-45310142D03*
%TD*%
%TO.C,D78*%
X333881123Y-105670142D03*
X333881123Y-102370142D03*
%TD*%
D10*
%TO.C,C4*%
X323723000Y-87023000D03*
X323723000Y-87983000D03*
%TD*%
D11*
%TO.C,D31*%
X314861123Y-48610142D03*
X314861123Y-45310142D03*
%TD*%
%TO.C,D67*%
X105591123Y-105670142D03*
X105591123Y-102370142D03*
%TD*%
%TO.C,D4*%
X100851542Y-24836989D03*
X100851542Y-21536989D03*
%TD*%
%TO.C,D11*%
X253011123Y-24830142D03*
X253011123Y-21530142D03*
%TD*%
D16*
%TO.C,C3*%
X314071000Y-78303000D03*
X314071000Y-77343000D03*
%TD*%
D11*
%TO.C,D87*%
X314861123Y-124690142D03*
X314861123Y-121390142D03*
%TD*%
%TO.C,D44*%
X224431123Y-67630142D03*
X224431123Y-64330142D03*
%TD*%
%TO.C,D6*%
X148401123Y-24832142D03*
X148401123Y-21532142D03*
%TD*%
%TO.C,D33*%
X352901123Y-48610142D03*
X352901123Y-45310142D03*
%TD*%
D17*
%TO.C,U3*%
X300768000Y-20081200D03*
X300768000Y-21031200D03*
X300768000Y-21981200D03*
X298418000Y-21981200D03*
X298418000Y-21031200D03*
X298418000Y-20081200D03*
%TD*%
D11*
%TO.C,D21*%
X100851123Y-48610142D03*
X100851123Y-45310142D03*
%TD*%
%TO.C,D16*%
X352901123Y-24830142D03*
X352901123Y-21530142D03*
%TD*%
%TO.C,D15*%
X333881123Y-24826683D03*
X333881123Y-21526683D03*
%TD*%
%TO.C,D8*%
X186441123Y-24832142D03*
X186441123Y-21532142D03*
%TD*%
%TO.C,D52*%
X58141123Y-86650142D03*
X58141123Y-83350142D03*
%TD*%
%TO.C,D66*%
X86591123Y-105670142D03*
X86591123Y-102370142D03*
%TD*%
D18*
%TO.C,C9*%
X308892000Y-79629000D03*
X309852000Y-79629000D03*
%TD*%
D11*
%TO.C,D58*%
X172161123Y-86650142D03*
X172161123Y-83350142D03*
%TD*%
%TO.C,D41*%
X167371123Y-67630142D03*
X167371123Y-64330142D03*
%TD*%
%TO.C,D42*%
X186391123Y-67630142D03*
X186391123Y-64330142D03*
%TD*%
%TO.C,D1*%
X24771123Y-24832142D03*
X24771123Y-21532142D03*
%TD*%
%TO.C,D20*%
X81831123Y-48610142D03*
X81831123Y-45310142D03*
%TD*%
%TO.C,D54*%
X96141123Y-86650142D03*
X96141123Y-83350142D03*
%TD*%
%TO.C,D19*%
X62811123Y-48610142D03*
X62811123Y-45310142D03*
%TD*%
%TO.C,D62*%
X248181123Y-86650142D03*
X248181123Y-83350142D03*
%TD*%
%TO.C,D40*%
X148351123Y-67630142D03*
X148351123Y-64330142D03*
%TD*%
%TO.C,D51*%
X31893623Y-86650142D03*
X31893623Y-83350142D03*
%TD*%
%TO.C,D3*%
X81831542Y-24836989D03*
X81831542Y-21536989D03*
%TD*%
%TO.C,D35*%
X53251123Y-67630142D03*
X53251123Y-64330142D03*
%TD*%
D10*
%TO.C,C5*%
X317119000Y-89690000D03*
X317119000Y-90650000D03*
%TD*%
D11*
%TO.C,D50*%
X352901123Y-67630142D03*
X352901123Y-64330142D03*
%TD*%
%TO.C,D88*%
X333881123Y-124690142D03*
X333881123Y-121390142D03*
%TD*%
%TO.C,D76*%
X288290000Y-105670142D03*
X288290000Y-102370142D03*
%TD*%
%TO.C,D10*%
X234021123Y-24830142D03*
X234021123Y-21530142D03*
%TD*%
D16*
%TO.C,C2*%
X313055000Y-78303000D03*
X313055000Y-77343000D03*
%TD*%
D11*
%TO.C,D71*%
X181711123Y-105670142D03*
X181711123Y-102370142D03*
%TD*%
%TO.C,D48*%
X314861123Y-67630142D03*
X314861123Y-64330142D03*
%TD*%
D19*
%TO.C,U4*%
X338488500Y-106106000D03*
X338488500Y-105156000D03*
X338488500Y-104206000D03*
X340763500Y-104206000D03*
X340763500Y-106106000D03*
%TD*%
D20*
%TO.C,R1*%
X334645000Y-88164000D03*
X334645000Y-89184000D03*
%TD*%
D11*
%TO.C,D86*%
X286286123Y-124692142D03*
X286286123Y-121392142D03*
%TD*%
%TO.C,D84*%
X243451123Y-124690142D03*
X243451123Y-121390142D03*
%TD*%
%TO.C,D57*%
X153141123Y-86650142D03*
X153141123Y-83350142D03*
%TD*%
%TO.C,D36*%
X72271123Y-67630142D03*
X72271123Y-64330142D03*
%TD*%
%TO.C,D53*%
X77141123Y-86650142D03*
X77141123Y-83350142D03*
%TD*%
%TO.C,D7*%
X167421123Y-24832142D03*
X167421123Y-21532142D03*
%TD*%
%TO.C,D74*%
X238711123Y-105670142D03*
X238711123Y-102370142D03*
%TD*%
%TO.C,D25*%
X176931123Y-48610142D03*
X176931123Y-45310142D03*
%TD*%
%TO.C,D59*%
X191181123Y-86650142D03*
X191181123Y-83350142D03*
%TD*%
%TO.C,D65*%
X67591123Y-105670142D03*
X67591123Y-102370142D03*
%TD*%
D15*
%TO.C,R5*%
X340491000Y-84709000D03*
X339471000Y-84709000D03*
%TD*%
D11*
%TO.C,D68*%
X124591123Y-105670142D03*
X124591123Y-102370142D03*
%TD*%
%TO.C,D79*%
X29501123Y-124692142D03*
X29501123Y-121392142D03*
%TD*%
%TO.C,D32*%
X333881123Y-48610142D03*
X333881123Y-45310142D03*
%TD*%
D12*
%TO.C,C13*%
X340840000Y-107442000D03*
X339880000Y-107442000D03*
%TD*%
D11*
%TO.C,D23*%
X138891123Y-48610142D03*
X138891123Y-45310142D03*
%TD*%
D16*
%TO.C,C11*%
X335788000Y-89154000D03*
X335788000Y-88194000D03*
%TD*%
D11*
%TO.C,D26*%
X195951123Y-48610142D03*
X195951123Y-45310142D03*
%TD*%
%TO.C,D63*%
X279101096Y-86652173D03*
X279101096Y-83352173D03*
%TD*%
%TO.C,D27*%
X214971123Y-48610142D03*
X214971123Y-45310142D03*
%TD*%
%TO.C,D72*%
X200711123Y-105670142D03*
X200711123Y-102370142D03*
%TD*%
%TO.C,D64*%
X36683623Y-105670142D03*
X36683623Y-102370142D03*
%TD*%
%TO.C,D18*%
X43791123Y-48610142D03*
X43791123Y-45310142D03*
%TD*%
D21*
%TO.C,Q1*%
X339441000Y-88331000D03*
X339441000Y-90231000D03*
X337566000Y-89281000D03*
%TD*%
D16*
%TO.C,C1*%
X323850000Y-78303000D03*
X323850000Y-77343000D03*
%TD*%
D11*
%TO.C,D56*%
X134141123Y-86650142D03*
X134141123Y-83350142D03*
%TD*%
%TO.C,D80*%
X53251123Y-124690142D03*
X53251123Y-121390142D03*
%TD*%
%TO.C,D43*%
X205411123Y-67630142D03*
X205411123Y-64330142D03*
%TD*%
%TO.C,D82*%
X157922537Y-124692002D03*
X157922537Y-121392002D03*
%TD*%
%TO.C,D55*%
X115141123Y-86650142D03*
X115141123Y-83350142D03*
%TD*%
%TO.C,D85*%
X262471123Y-124692142D03*
X262471123Y-121392142D03*
%TD*%
D12*
%TO.C,C12*%
X340461000Y-85852000D03*
X339501000Y-85852000D03*
%TD*%
D16*
%TO.C,C6*%
X322834000Y-78303000D03*
X322834000Y-77343000D03*
%TD*%
D15*
%TO.C,R3*%
X331218000Y-28575000D03*
X330198000Y-28575000D03*
%TD*%
D11*
%TO.C,D61*%
X229181123Y-86650142D03*
X229181123Y-83350142D03*
%TD*%
%TO.C,D49*%
X333881123Y-67630142D03*
X333881123Y-64330142D03*
%TD*%
%TO.C,D77*%
X291066123Y-48612142D03*
X291066123Y-45312142D03*
%TD*%
%TO.C,D81*%
X77026123Y-124690142D03*
X77026123Y-121390142D03*
%TD*%
%TO.C,D70*%
X162591123Y-105670142D03*
X162591123Y-102370142D03*
%TD*%
%TO.C,D69*%
X143591123Y-105670142D03*
X143591123Y-102370142D03*
%TD*%
D22*
%TO.C,F1*%
X296113200Y-23365000D03*
X296113200Y-26165000D03*
%TD*%
D11*
%TO.C,D46*%
X262471123Y-67630142D03*
X262471123Y-64330142D03*
%TD*%
%TO.C,D30*%
X261239000Y-48612142D03*
X261239000Y-45312142D03*
%TD*%
%TO.C,D17*%
X24771123Y-48610142D03*
X24771123Y-45310142D03*
%TD*%
%TO.C,D39*%
X129331123Y-67630142D03*
X129331123Y-64330142D03*
%TD*%
%TO.C,D13*%
X291081123Y-24830142D03*
X291081123Y-21530142D03*
%TD*%
%TO.C,D29*%
X253011123Y-48610142D03*
X253011123Y-45310142D03*
%TD*%
%TO.C,D14*%
X314861123Y-24830142D03*
X314861123Y-21530142D03*
%TD*%
%TO.C,D60*%
X210181123Y-86650142D03*
X210181123Y-83350142D03*
%TD*%
%TO.C,D93*%
X352901123Y-124690142D03*
X352901123Y-121390142D03*
%TD*%
%TO.C,D83*%
X219638623Y-124690142D03*
X219638623Y-121390142D03*
%TD*%
D23*
%TO.C,R6*%
X339471000Y-86995000D03*
X340491000Y-86995000D03*
%TD*%
D11*
%TO.C,D34*%
X29501123Y-67632142D03*
X29501123Y-64332142D03*
%TD*%
D24*
%TO.C,J1*%
X354173000Y-104673000D03*
X354173000Y-103473000D03*
X354173000Y-102273000D03*
D25*
X350398000Y-105823000D03*
X350398000Y-101123000D03*
%TD*%
D11*
%TO.C,D38*%
X110311123Y-67630142D03*
X110311123Y-64330142D03*
%TD*%
D21*
%TO.C,U1*%
X311247000Y-76266000D03*
X311247000Y-78166000D03*
X309372000Y-77216000D03*
%TD*%
D26*
%TO.C,SW95*%
X332816999Y-84332999D03*
X326516999Y-84332999D03*
X332816999Y-88132999D03*
X326516999Y-88132999D03*
%TD*%
D11*
%TO.C,D37*%
X91291123Y-67630142D03*
X91291123Y-64330142D03*
%TD*%
%TO.C,D24*%
X157911123Y-48610142D03*
X157911123Y-45310142D03*
%TD*%
D10*
%TO.C,C8*%
X316103000Y-89690000D03*
X316103000Y-90650000D03*
%TD*%
D15*
%TO.C,R4*%
X22100000Y-29718000D03*
X21080000Y-29718000D03*
%TD*%
M02*
