M48
; DRILL file {KiCad (7.99.0-267-g8440d7258b)} date Wednesday, May 31, 2023 at 01:58:10 AM
; FORMAT={-:-/ absolute / inch / decimal}
; #@! TF.CreationDate,2023-05-31T01:58:10-07:00
; #@! TF.GenerationSoftware,Kicad,Pcbnew,(7.99.0-267-g8440d7258b)
; #@! TF.FileFunction,Plated,1,2,PTH
FMAT,2
INCH
; #@! TA.AperFunction,Plated,PTH,ViaDrill
T1C0.0157
; #@! TA.AperFunction,Plated,PTH,ComponentDrill
T2C0.0276
; #@! TA.AperFunction,Plated,PTH,ComponentDrill
T3C0.0295
; #@! TA.AperFunction,Plated,PTH,ComponentDrill
T4C0.0394
; #@! TA.AperFunction,Plated,PTH,ComponentDrill
T5C0.0409
; #@! TA.AperFunction,Plated,PTH,ComponentDrill
T6C0.0512
; #@! TA.AperFunction,Plated,PTH,ComponentDrill
T7C0.0600
; #@! TA.AperFunction,Plated,PTH,ComponentDrill
T8C0.1200
; #@! TA.AperFunction,Plated,PTH,ComponentDrill
T9C0.1260
%
G90
G05
T1
X4.56Y-5.0
X10.0585Y-2.8378
X11.22Y-2.07
X11.39Y-4.28
X11.53Y-1.04
X11.5559Y-1.0104
X11.58Y-1.975
X11.6256Y-2.8556
X11.6268Y-2.675
X11.665Y-1.18
X11.665Y-2.8556
X11.6661Y-2.675
X11.6727Y-0.7027
X11.7Y-0.8
X11.855Y-2.665
X11.9Y-1.975
X11.905Y-0.875
X11.985Y-2.535
X12.0373Y-1.0114
X12.07Y-1.04
X12.595Y-3.1311
X12.675Y-3.1
X12.755Y-3.175
X12.89Y-3.54
X12.93Y-3.62
X12.97Y-3.62
X12.98Y-3.245
X12.98Y-3.284
X12.98Y-3.325
X13.0199Y-3.245
X13.0199Y-3.284
X13.02Y-3.325
X13.06Y-3.245
X13.06Y-3.284
X13.06Y-3.325
X13.2539Y-3.125
X13.255Y-3.075
X13.285Y-3.485
X13.285Y-3.5244
X13.32Y-3.765
X13.475Y-3.665
X13.58Y-4.02
X13.865Y-3.98
T3
X13.6885Y-3.9963
X13.6885Y-4.075
X13.6885Y-4.1537
T4
X13.5121Y-3.9726
X13.5121Y-4.0726
X13.5121Y-4.1726
T5
X0.8002Y-1.0502
X0.8932Y-3.484
X0.9002Y-1.0502
X0.9932Y-3.484
X1.0807Y-3.484
X1.1807Y-3.484
X12.9699Y-1.05
X13.0699Y-1.05
T6
X4.24Y-4.78
X4.44Y-4.78
T7
X0.7002Y-0.7502
X0.7002Y-1.6863
X0.7932Y-3.184
X0.8865Y-2.4352
X0.8865Y-4.6817
X0.9502Y-0.6502
X0.9502Y-1.5863
X0.9807Y-3.184
X1.0432Y-3.084
X1.1365Y-2.3352
X1.1365Y-4.5817
X1.1692Y-3.9328
X1.2307Y-3.084
X1.4192Y-3.8328
X1.4491Y-1.6863
X1.6991Y-1.5863
X1.8215Y-2.4351
X1.8215Y-4.6816
X2.014Y-3.184
X2.0715Y-2.3351
X2.0715Y-4.5816
X2.1979Y-1.6863
X2.1979Y-0.7504
X2.264Y-3.084
X2.3861Y-3.9328
X2.4479Y-1.5863
X2.4479Y-0.6504
X2.5703Y-2.4351
X2.6361Y-3.8328
X2.7575Y-4.6816
X2.7621Y-3.184
X2.8203Y-2.3351
X2.9467Y-1.6863
X2.9467Y-0.7504
X3.0075Y-4.5816
X3.0121Y-3.084
X3.1349Y-3.9328
X3.1967Y-1.5863
X3.1967Y-0.6504
X3.3191Y-2.4351
X3.3849Y-3.8328
X3.5101Y-3.184
X3.5691Y-2.3351
X3.6955Y-1.6863
X3.6955Y-0.7504
X3.7601Y-3.084
X3.8837Y-3.9328
X3.9455Y-1.5863
X3.9455Y-0.6504
X4.068Y-2.4351
X4.1337Y-3.8328
X4.2581Y-3.184
X4.318Y-2.3351
X4.4443Y-1.6863
X4.4444Y-0.7504
X4.5081Y-3.084
X4.6325Y-3.9328
X4.6943Y-1.5863
X4.6944Y-0.6504
X4.8168Y-2.4351
X4.8825Y-3.8328
X5.0061Y-3.184
X5.0668Y-2.3351
X5.1932Y-1.6863
X5.2561Y-3.084
X5.3813Y-3.9328
X5.4432Y-1.5863
X5.5656Y-2.4351
X5.5676Y-0.7502
X5.568Y-4.6817
X5.6313Y-3.8328
X5.7542Y-3.184
X5.8156Y-2.3351
X5.8176Y-0.6502
X5.818Y-4.5817
X5.942Y-1.6863
X5.9424Y-4.6817
X6.0042Y-3.084
X6.1302Y-3.9328
X6.192Y-1.5863
X6.1924Y-4.5817
X6.3144Y-2.4351
X6.3164Y-0.7502
X6.3802Y-3.8328
X6.503Y-3.184
X6.5644Y-2.3351
X6.5664Y-0.6502
X6.6908Y-1.6863
X6.753Y-3.084
X6.879Y-3.9328
X6.9408Y-1.5863
X7.0632Y-2.4351
X7.0652Y-0.7502
X7.129Y-3.8328
X7.2518Y-3.184
X7.3132Y-2.3351
X7.3152Y-0.6502
X7.4396Y-1.6863
X7.5018Y-3.084
X7.6282Y-3.9328
X7.6896Y-1.5863
X7.8121Y-2.4351
X7.814Y-0.7502
X7.8782Y-3.8328
X7.9998Y-3.184
X8.0621Y-2.3351
X8.064Y-0.6502
X8.1884Y-1.6863
X8.2498Y-3.084
X8.377Y-3.9328
X8.3865Y-4.6816
X8.4384Y-1.5863
X8.5609Y-2.4351
X8.627Y-3.8328
X8.6365Y-4.5816
X8.7479Y-3.184
X8.8109Y-2.3351
X8.9372Y-1.6863
X8.9384Y-0.7501
X8.9979Y-3.084
X9.1225Y-4.6816
X9.1258Y-3.9328
X9.1872Y-1.5863
X9.1884Y-0.6501
X9.3097Y-2.4351
X9.3097Y-4.6817
X9.3725Y-4.5816
X9.3758Y-3.8328
X9.4959Y-3.184
X9.5597Y-2.3351
X9.5597Y-4.5817
X9.6861Y-0.7501
X9.6861Y-1.6863
X9.7459Y-3.084
X9.9361Y-0.6501
X9.9361Y-1.5863
X10.0585Y-2.4352
X10.0585Y-4.6817
X10.1538Y-3.9328
X10.3085Y-2.3352
X10.3085Y-4.5817
X10.4038Y-3.8328
X10.4355Y-1.6864
X10.4361Y-0.7501
X10.5296Y-3.9328
X10.6855Y-1.5864
X10.6861Y-0.6501
X10.7132Y-3.184
X10.7796Y-3.8328
X10.8099Y-1.6864
X10.9026Y-3.9328
X10.9632Y-3.084
X10.9961Y-2.4352
X10.9961Y-4.6817
X11.0599Y-1.5864
X11.1526Y-3.8328
X11.1843Y-1.6864
X11.1849Y-0.7501
X11.2461Y-2.3352
X11.2461Y-4.5817
X11.4343Y-1.5864
X11.4349Y-0.6501
X12.1211Y-0.7501
X12.1211Y-1.6863
X12.1211Y-2.4351
X12.1211Y-4.6816
X12.3711Y-0.6501
X12.3711Y-1.5863
X12.3711Y-2.3351
X12.3711Y-4.5816
X12.8699Y-0.75
X12.8699Y-1.6863
X12.8699Y-2.4351
X12.8699Y-3.9328
X12.8699Y-4.6816
X13.1199Y-0.65
X13.1199Y-1.5863
X13.1199Y-2.3351
X13.1199Y-3.8328
X13.1199Y-4.5816
X13.6187Y-0.7501
X13.6187Y-1.6863
X13.6187Y-2.4351
X13.6187Y-4.6816
X13.8687Y-0.6501
X13.8687Y-1.5863
X13.8687Y-2.3351
X13.8687Y-4.5816
T8
X10.2108Y-3.7578
X10.4911Y-1.5114
X11.1483Y-3.7578
X11.4286Y-1.5114
T9
X11.8507Y-3.0469
X14.005Y-3.5203
T2
G00X11.6593Y-0.4803
M15
G01X11.6593Y-0.5275
M16
G05
G00X11.74Y-0.7027
M15
G01X11.74Y-0.7027
M16
G05
G00X11.7715Y-0.6555
M15
G01X11.7715Y-0.6555
M16
G05
G00X11.803Y-0.7027
M15
G01X11.803Y-0.7027
M16
G05
G00X11.8345Y-0.6555
M15
G01X11.8345Y-0.6555
M16
G05
G00X11.866Y-0.7027
M15
G01X11.866Y-0.7027
M16
G05
G00X11.9467Y-0.4803
M15
G01X11.9467Y-0.5275
M16
G05
T0
M30
