%TF.GenerationSoftware,KiCad,Pcbnew,8.0.8*%
%TF.CreationDate,2025-02-22T21:03:59-08:00*%
%TF.ProjectId,1_2og_repro,315f326f-675f-4726-9570-726f2e6b6963,rev?*%
%TF.SameCoordinates,Original*%
%TF.FileFunction,Profile,NP*%
%FSLAX46Y46*%
G04 Gerber Fmt 4.6, Leading zero omitted, Abs format (unit mm)*
G04 Created by KiCad (PCBNEW 8.0.8) date 2025-02-22 21:03:59*
%MOMM*%
%LPD*%
G01*
G04 APERTURE LIST*
%TA.AperFunction,Profile*%
%ADD10C,0.200000*%
%TD*%
G04 APERTURE END LIST*
D10*
X274684131Y-71646028D02*
X274684131Y-75246028D01*
X335801089Y3174344D02*
X335802158Y-77665981D01*
X333801089Y5174342D02*
G75*
G02*
X335801089Y3174344I130J-1999870D01*
G01*
X335301198Y-94186010D02*
G75*
G02*
X335801237Y-94686010I21J-500018D01*
G01*
X334301175Y-78665987D02*
G75*
G02*
X334801171Y-78165984I499944J59D01*
G01*
X-9330707Y5174376D02*
X270971219Y5174349D01*
X-11330708Y3174441D02*
G75*
G02*
X-9330707Y5174379I2000037J-99D01*
G01*
X283664131Y-71646028D02*
X283664131Y-75246028D01*
X271371219Y5574349D02*
X271371219Y5773972D01*
X274684131Y-71646028D02*
G75*
G02*
X275184131Y-71146040I499888J100D01*
G01*
X271771219Y6173972D02*
X280971219Y6173972D01*
X271371219Y5773972D02*
G75*
G02*
X271771219Y6173972I400000J0D01*
G01*
X275184131Y-75746028D02*
G75*
G02*
X274684119Y-75246028I88J500100D01*
G01*
X281771219Y5174347D02*
G75*
G02*
X281371294Y5574347I100J400025D01*
G01*
X334801192Y-94186009D02*
G75*
G02*
X334301138Y-93686010I27J500081D01*
G01*
X283664131Y-75246028D02*
G75*
G02*
X283164131Y-75746040I-500112J100D01*
G01*
X280971219Y6173972D02*
G75*
G02*
X281371219Y5773972I200J-399800D01*
G01*
X283164131Y-71146028D02*
X275184131Y-71146028D01*
X-9334358Y-113085883D02*
G75*
G02*
X-11334426Y-111085809I-273J1999795D01*
G01*
X-11334425Y-111085809D02*
X-11330708Y3174441D01*
X335801215Y-111085977D02*
G75*
G02*
X333801168Y-113085924I-2000196J249D01*
G01*
X335802158Y-77665981D02*
G75*
G02*
X335302162Y-78166067I-499939J-147D01*
G01*
X283164131Y-71146028D02*
G75*
G02*
X283664119Y-71646028I88J-499900D01*
G01*
X335801197Y-94686010D02*
X335801215Y-111085977D01*
X281771219Y5174347D02*
X333801089Y5174342D01*
X335301198Y-94186010D02*
X334801192Y-94186009D01*
X333801168Y-113085979D02*
X-9334426Y-113085883D01*
X335302162Y-78165982D02*
X334801171Y-78165986D01*
X283164131Y-75746028D02*
X275184131Y-75746028D01*
X281371219Y5574347D02*
X281371219Y5773972D01*
X334301175Y-78665987D02*
X334301193Y-93686010D01*
X271371219Y5574349D02*
G75*
G02*
X270971219Y5174272I-399800J-277D01*
G01*
M02*
