%TF.GenerationSoftware,KiCad,Pcbnew,(7.99.0-267-g8440d7258b)*%
%TF.CreationDate,2023-07-06T17:47:55-07:00*%
%TF.ProjectId,1_2og_repro,315f326f-675f-4726-9570-726f2e6b6963,rev?*%
%TF.SameCoordinates,Original*%
%TF.FileFunction,Legend,Top*%
%TF.FilePolarity,Positive*%
%FSLAX46Y46*%
G04 Gerber Fmt 4.6, Leading zero omitted, Abs format (unit mm)*
G04 Created by KiCad (PCBNEW (7.99.0-267-g8440d7258b)) date 2023-07-06 17:47:55*
%MOMM*%
%LPD*%
G01*
G04 APERTURE LIST*
G04 Aperture macros list*
%AMRoundRect*
0 Rectangle with rounded corners*
0 $1 Rounding radius*
0 $2 $3 $4 $5 $6 $7 $8 $9 X,Y pos of 4 corners*
0 Add a 4 corners polygon primitive as box body*
4,1,4,$2,$3,$4,$5,$6,$7,$8,$9,$2,$3,0*
0 Add four circle primitives for the rounded corners*
1,1,$1+$1,$2,$3*
1,1,$1+$1,$4,$5*
1,1,$1+$1,$6,$7*
1,1,$1+$1,$8,$9*
0 Add four rect primitives between the rounded corners*
20,1,$1+$1,$2,$3,$4,$5,0*
20,1,$1+$1,$4,$5,$6,$7,0*
20,1,$1+$1,$6,$7,$8,$9,0*
20,1,$1+$1,$8,$9,$2,$3,0*%
G04 Aperture macros list end*
%ADD10C,0.150000*%
%ADD11C,0.120000*%
%ADD12C,0.000000*%
%ADD13C,3.987800*%
%ADD14C,3.048000*%
%ADD15C,6.000000*%
%ADD16C,1.750000*%
%ADD17RoundRect,0.250000X0.625000X-0.350000X0.625000X0.350000X-0.625000X0.350000X-0.625000X-0.350000X0*%
%ADD18O,1.750000X1.200000*%
%ADD19O,1.700000X2.700000*%
%ADD20R,1.700000X1.700000*%
%ADD21O,1.700000X1.700000*%
G04 APERTURE END LIST*
D10*
%TO.C,H2*%
X354964161Y-85877191D02*
X354964161Y-84877191D01*
X354964161Y-85353381D02*
X355535589Y-85353381D01*
X355535589Y-85877191D02*
X355535589Y-84877191D01*
X355964161Y-84972429D02*
X356011780Y-84924810D01*
X356011780Y-84924810D02*
X356107018Y-84877191D01*
X356107018Y-84877191D02*
X356345113Y-84877191D01*
X356345113Y-84877191D02*
X356440351Y-84924810D01*
X356440351Y-84924810D02*
X356487970Y-84972429D01*
X356487970Y-84972429D02*
X356535589Y-85067667D01*
X356535589Y-85067667D02*
X356535589Y-85162905D01*
X356535589Y-85162905D02*
X356487970Y-85305762D01*
X356487970Y-85305762D02*
X355916542Y-85877191D01*
X355916542Y-85877191D02*
X356535589Y-85877191D01*
%TO.C,H1*%
X300247122Y-73855062D02*
X300247122Y-72855062D01*
X300247122Y-73331252D02*
X300818550Y-73331252D01*
X300818550Y-73855062D02*
X300818550Y-72855062D01*
X301818550Y-73855062D02*
X301247122Y-73855062D01*
X301532836Y-73855062D02*
X301532836Y-72855062D01*
X301532836Y-72855062D02*
X301437598Y-72997919D01*
X301437598Y-72997919D02*
X301342360Y-73093157D01*
X301342360Y-73093157D02*
X301247122Y-73140776D01*
%TO.C,J4*%
X344601619Y-103838333D02*
X345315904Y-103838333D01*
X345315904Y-103838333D02*
X345458761Y-103885952D01*
X345458761Y-103885952D02*
X345554000Y-103981190D01*
X345554000Y-103981190D02*
X345601619Y-104124047D01*
X345601619Y-104124047D02*
X345601619Y-104219285D01*
X344934952Y-102933571D02*
X345601619Y-102933571D01*
X344554000Y-103171666D02*
X345268285Y-103409761D01*
X345268285Y-103409761D02*
X345268285Y-102790714D01*
%TO.C,J2*%
X299462781Y-12961619D02*
X299462781Y-13675904D01*
X299462781Y-13675904D02*
X299415162Y-13818761D01*
X299415162Y-13818761D02*
X299319924Y-13914000D01*
X299319924Y-13914000D02*
X299177067Y-13961619D01*
X299177067Y-13961619D02*
X299081829Y-13961619D01*
X299891353Y-13056857D02*
X299938972Y-13009238D01*
X299938972Y-13009238D02*
X300034210Y-12961619D01*
X300034210Y-12961619D02*
X300272305Y-12961619D01*
X300272305Y-12961619D02*
X300367543Y-13009238D01*
X300367543Y-13009238D02*
X300415162Y-13056857D01*
X300415162Y-13056857D02*
X300462781Y-13152095D01*
X300462781Y-13152095D02*
X300462781Y-13247333D01*
X300462781Y-13247333D02*
X300415162Y-13390190D01*
X300415162Y-13390190D02*
X299843734Y-13961619D01*
X299843734Y-13961619D02*
X300462781Y-13961619D01*
%TO.C,J3*%
X342872781Y-107777248D02*
X342872781Y-108491533D01*
X342872781Y-108491533D02*
X342825162Y-108634390D01*
X342825162Y-108634390D02*
X342729924Y-108729629D01*
X342729924Y-108729629D02*
X342587067Y-108777248D01*
X342587067Y-108777248D02*
X342491829Y-108777248D01*
X343253734Y-107777248D02*
X343872781Y-107777248D01*
X343872781Y-107777248D02*
X343539448Y-108158200D01*
X343539448Y-108158200D02*
X343682305Y-108158200D01*
X343682305Y-108158200D02*
X343777543Y-108205819D01*
X343777543Y-108205819D02*
X343825162Y-108253438D01*
X343825162Y-108253438D02*
X343872781Y-108348676D01*
X343872781Y-108348676D02*
X343872781Y-108586771D01*
X343872781Y-108586771D02*
X343825162Y-108682009D01*
X343825162Y-108682009D02*
X343777543Y-108729629D01*
X343777543Y-108729629D02*
X343682305Y-108777248D01*
X343682305Y-108777248D02*
X343396591Y-108777248D01*
X343396591Y-108777248D02*
X343301353Y-108729629D01*
X343301353Y-108729629D02*
X343253734Y-108682009D01*
D11*
%TO.C,J4*%
X346229000Y-107565000D02*
X354049000Y-107565000D01*
X347829000Y-107565000D02*
X347829000Y-106645000D01*
X354049000Y-107565000D02*
X354049000Y-99445000D01*
X350189000Y-106805000D02*
X351789000Y-106805000D01*
X351789000Y-106805000D02*
X351789000Y-105805000D01*
X346229000Y-106645000D02*
X346229000Y-107565000D01*
X347829000Y-106645000D02*
X346229000Y-106645000D01*
X347829000Y-106365000D02*
X347829000Y-106645000D01*
X347829000Y-106365000D02*
X346614000Y-106365000D01*
X351789000Y-106305000D02*
X354049000Y-106305000D01*
X350189000Y-105805000D02*
X350189000Y-106805000D01*
X351789000Y-105805000D02*
X350189000Y-105805000D01*
X351789000Y-105805000D02*
X354049000Y-105805000D01*
X349689000Y-105005000D02*
X349689000Y-102005000D01*
X354049000Y-105005000D02*
X349689000Y-105005000D01*
X349689000Y-102005000D02*
X354049000Y-102005000D01*
X350189000Y-101205000D02*
X350189000Y-100205000D01*
X351789000Y-101205000D02*
X350189000Y-101205000D01*
X346229000Y-100365000D02*
X347829000Y-100365000D01*
X347829000Y-100365000D02*
X347829000Y-100645000D01*
X350189000Y-100205000D02*
X351789000Y-100205000D01*
X351789000Y-100205000D02*
X351789000Y-101205000D01*
X346229000Y-99445000D02*
X346229000Y-100365000D01*
X347829000Y-99445000D02*
X347829000Y-100365000D01*
X354049000Y-99445000D02*
X346229000Y-99445000D01*
D10*
%TO.C,J2*%
X303646115Y-11049000D02*
X303646115Y-18049000D01*
X303646115Y-18049000D02*
X295946115Y-18049000D01*
X295946115Y-18049000D02*
X295946115Y-11049000D01*
D11*
%TO.C,J3*%
X344536115Y-107314629D02*
X343206115Y-107314629D01*
X344536115Y-105984629D02*
X344536115Y-107314629D01*
X344536115Y-104714629D02*
X344536115Y-99574629D01*
X344536115Y-104714629D02*
X341876115Y-104714629D01*
X344536115Y-99574629D02*
X341876115Y-99574629D01*
X341876115Y-104714629D02*
X341876115Y-99574629D01*
%TD*%
%LPC*%
D12*
G36*
X131908974Y-115481141D02*
G01*
X131909276Y-115480486D01*
X131909262Y-115479733D01*
X131908938Y-115478885D01*
X131908310Y-115477946D01*
X131906165Y-115475806D01*
X131902877Y-115473336D01*
X131898493Y-115470560D01*
X131893062Y-115467501D01*
X131879256Y-115460634D01*
X131861848Y-115452926D01*
X131841227Y-115444570D01*
X131817783Y-115435757D01*
X131791906Y-115426680D01*
X131773649Y-115420953D01*
X131749522Y-115414458D01*
X131720544Y-115407407D01*
X131687732Y-115400021D01*
X131652107Y-115392514D01*
X131614684Y-115385103D01*
X131576483Y-115378006D01*
X131538522Y-115371439D01*
X131355998Y-115339907D01*
X131370759Y-115316031D01*
X131375125Y-115309488D01*
X131380421Y-115302698D01*
X131386584Y-115295711D01*
X131393551Y-115288575D01*
X131401256Y-115281340D01*
X131409639Y-115274055D01*
X131418633Y-115266770D01*
X131428177Y-115259534D01*
X131438206Y-115252393D01*
X131448658Y-115245400D01*
X131459469Y-115238603D01*
X131470574Y-115232051D01*
X131478066Y-115227916D01*
X133103615Y-115227916D01*
X133103674Y-115231202D01*
X133104342Y-115234781D01*
X133105596Y-115238629D01*
X133107404Y-115242720D01*
X133109738Y-115247032D01*
X133112574Y-115251540D01*
X133119627Y-115261047D01*
X133128341Y-115271050D01*
X133138491Y-115281355D01*
X133149850Y-115291770D01*
X133162197Y-115302103D01*
X133175305Y-115312159D01*
X133188950Y-115321748D01*
X133202907Y-115330675D01*
X133216952Y-115338749D01*
X133230862Y-115345778D01*
X133244409Y-115351567D01*
X133250978Y-115353937D01*
X133257372Y-115355925D01*
X133269308Y-115358501D01*
X133282451Y-115360222D01*
X133296671Y-115361109D01*
X133311841Y-115361183D01*
X133327829Y-115360464D01*
X133344509Y-115358975D01*
X133361750Y-115356733D01*
X133379422Y-115353763D01*
X133397400Y-115350084D01*
X133415552Y-115345715D01*
X133433748Y-115340681D01*
X133451863Y-115334999D01*
X133469765Y-115328691D01*
X133487325Y-115321778D01*
X133504416Y-115314281D01*
X133520906Y-115306221D01*
X133542402Y-115295020D01*
X133551109Y-115290367D01*
X133558558Y-115286242D01*
X133561835Y-115284355D01*
X133564825Y-115282571D01*
X133567539Y-115280880D01*
X133569985Y-115279274D01*
X133572175Y-115277742D01*
X133574116Y-115276275D01*
X133575818Y-115274864D01*
X133577292Y-115273498D01*
X133578546Y-115272168D01*
X133579590Y-115270864D01*
X133580434Y-115269579D01*
X133581086Y-115268299D01*
X133581557Y-115267017D01*
X133581856Y-115265724D01*
X133581993Y-115264409D01*
X133581978Y-115263062D01*
X133581818Y-115261675D01*
X133581525Y-115260238D01*
X133581107Y-115258740D01*
X133580575Y-115257172D01*
X133579936Y-115255526D01*
X133579202Y-115253790D01*
X133577486Y-115250013D01*
X133574031Y-115243260D01*
X133569902Y-115236268D01*
X133565170Y-115229105D01*
X133559903Y-115221841D01*
X133554169Y-115214544D01*
X133548036Y-115207283D01*
X133541575Y-115200126D01*
X133534853Y-115193142D01*
X133527940Y-115186400D01*
X133520904Y-115179968D01*
X133513813Y-115173913D01*
X133506738Y-115168307D01*
X133499745Y-115163217D01*
X133492904Y-115158710D01*
X133486285Y-115154858D01*
X133479954Y-115151726D01*
X133476618Y-115150368D01*
X133472956Y-115149011D01*
X133464805Y-115146339D01*
X133455792Y-115143787D01*
X133446207Y-115141431D01*
X133436343Y-115139345D01*
X133426488Y-115137606D01*
X133416934Y-115136288D01*
X133412361Y-115135812D01*
X133407972Y-115135470D01*
X133403222Y-115135149D01*
X133397966Y-115134985D01*
X133386143Y-115135109D01*
X133372922Y-115135804D01*
X133358715Y-115137035D01*
X133343939Y-115138769D01*
X133329008Y-115140970D01*
X133314337Y-115143599D01*
X133300343Y-115146625D01*
X133287200Y-115149813D01*
X133273092Y-115153631D01*
X133258253Y-115157987D01*
X133242918Y-115162791D01*
X133211694Y-115173377D01*
X133181296Y-115184666D01*
X133153598Y-115195930D01*
X133141347Y-115201326D01*
X133130474Y-115206443D01*
X133121212Y-115211191D01*
X133113798Y-115215480D01*
X133108465Y-115219218D01*
X133106651Y-115220852D01*
X133105445Y-115222315D01*
X133104196Y-115224945D01*
X133103615Y-115227916D01*
X131478066Y-115227916D01*
X131481911Y-115225794D01*
X131493416Y-115219879D01*
X131505026Y-115214358D01*
X131516676Y-115209277D01*
X131532474Y-115203181D01*
X131551169Y-115197069D01*
X131596210Y-115184975D01*
X131649717Y-115173343D01*
X131709609Y-115162520D01*
X131773804Y-115152853D01*
X131840220Y-115144690D01*
X131906777Y-115138377D01*
X131971392Y-115134263D01*
X132161471Y-115121080D01*
X132357977Y-115098753D01*
X132558884Y-115067714D01*
X132762173Y-115028392D01*
X132965822Y-114981216D01*
X133167809Y-114926618D01*
X133366111Y-114865026D01*
X133558707Y-114796869D01*
X133631095Y-114768976D01*
X133693872Y-114743992D01*
X133750044Y-114720539D01*
X133802614Y-114697239D01*
X133854585Y-114672713D01*
X133908961Y-114645583D01*
X133968746Y-114614473D01*
X134036944Y-114578002D01*
X134137793Y-114524303D01*
X134183251Y-114500872D01*
X134225717Y-114479595D01*
X134265430Y-114460377D01*
X134302629Y-114443124D01*
X134337552Y-114427741D01*
X134370437Y-114414134D01*
X134401526Y-114402210D01*
X134431055Y-114391873D01*
X134459262Y-114383029D01*
X134486389Y-114375583D01*
X134512673Y-114369442D01*
X134538353Y-114364511D01*
X134563668Y-114360697D01*
X134588856Y-114357903D01*
X134605122Y-114356458D01*
X134621074Y-114355366D01*
X134636614Y-114354614D01*
X134651647Y-114354193D01*
X134666077Y-114354089D01*
X134679807Y-114354293D01*
X134692743Y-114354792D01*
X134704786Y-114355577D01*
X134715841Y-114356634D01*
X134725813Y-114357955D01*
X134734604Y-114359526D01*
X134742118Y-114361336D01*
X134745367Y-114362327D01*
X134748260Y-114363374D01*
X134750786Y-114364476D01*
X134752933Y-114365630D01*
X134754689Y-114366836D01*
X134756042Y-114368091D01*
X134756979Y-114369396D01*
X134757489Y-114370748D01*
X134757397Y-114372378D01*
X134756553Y-114374508D01*
X134752716Y-114380180D01*
X134746182Y-114387598D01*
X134737160Y-114396596D01*
X134712472Y-114418671D01*
X134680307Y-114445084D01*
X134642315Y-114474510D01*
X134600152Y-114505626D01*
X134555465Y-114537109D01*
X134509910Y-114567636D01*
X134488346Y-114581578D01*
X134461677Y-114598147D01*
X134397226Y-114636670D01*
X134324962Y-114678206D01*
X134253292Y-114717756D01*
X134195095Y-114750183D01*
X134142706Y-114780759D01*
X134095863Y-114809806D01*
X134054308Y-114837650D01*
X134035432Y-114851222D01*
X134017781Y-114864616D01*
X134001322Y-114877871D01*
X133986022Y-114891027D01*
X133971849Y-114904127D01*
X133958770Y-114917209D01*
X133946754Y-114930316D01*
X133935767Y-114943488D01*
X133925777Y-114956764D01*
X133916752Y-114970186D01*
X133908658Y-114983794D01*
X133901466Y-114997629D01*
X133895138Y-115011731D01*
X133889648Y-115026142D01*
X133884958Y-115040901D01*
X133881037Y-115056049D01*
X133877855Y-115071627D01*
X133875377Y-115087675D01*
X133873571Y-115104234D01*
X133872405Y-115121344D01*
X133871847Y-115139047D01*
X133871862Y-115157382D01*
X133873489Y-115196113D01*
X133877581Y-115252680D01*
X133883855Y-115320703D01*
X133895204Y-115427714D01*
X133914521Y-115601247D01*
X133923422Y-115674080D01*
X133937251Y-115777647D01*
X133954170Y-115898140D01*
X133972344Y-116021748D01*
X134001563Y-116216942D01*
X134019698Y-116346870D01*
X134035841Y-116480939D01*
X134059080Y-116688563D01*
X134093547Y-117008930D01*
X134107119Y-117149075D01*
X134118545Y-117279576D01*
X134128048Y-117403217D01*
X134135850Y-117522781D01*
X134142173Y-117641053D01*
X134147241Y-117760818D01*
X134151110Y-117891235D01*
X134152734Y-118019216D01*
X134152103Y-118144807D01*
X134149211Y-118268055D01*
X134144051Y-118389006D01*
X134136614Y-118507707D01*
X134126895Y-118624205D01*
X134114885Y-118738544D01*
X134100578Y-118850774D01*
X134083965Y-118960938D01*
X134065039Y-119069085D01*
X134043795Y-119175260D01*
X134020224Y-119279510D01*
X133994317Y-119381881D01*
X133966070Y-119482421D01*
X133935474Y-119581175D01*
X133895214Y-119697810D01*
X133851039Y-119810713D01*
X133802374Y-119920619D01*
X133748642Y-120028263D01*
X133689264Y-120134380D01*
X133623665Y-120239708D01*
X133551268Y-120344978D01*
X133471498Y-120450930D01*
X133383775Y-120558297D01*
X133287524Y-120667813D01*
X133182169Y-120780217D01*
X133067132Y-120896243D01*
X132941837Y-121016625D01*
X132805707Y-121142100D01*
X132658166Y-121273404D01*
X132498636Y-121411270D01*
X132277604Y-121593814D01*
X132043648Y-121774911D01*
X131790384Y-121958822D01*
X131511427Y-122149811D01*
X131200393Y-122352141D01*
X130850895Y-122570074D01*
X130456552Y-122807874D01*
X130010978Y-123069803D01*
X129613112Y-123294885D01*
X129222722Y-123502986D01*
X128841280Y-123693439D01*
X128470264Y-123865584D01*
X128111150Y-124018759D01*
X127765414Y-124152301D01*
X127434529Y-124265547D01*
X127275119Y-124314352D01*
X127119974Y-124357835D01*
X126898599Y-124407778D01*
X126517960Y-124485911D01*
X126065385Y-124574768D01*
X125628198Y-124656889D01*
X125391431Y-124697866D01*
X125160814Y-124733679D01*
X124936075Y-124764333D01*
X124716940Y-124789834D01*
X124503134Y-124810187D01*
X124294385Y-124825397D01*
X124090418Y-124835470D01*
X123890962Y-124840411D01*
X123758443Y-124841485D01*
X123642026Y-124840563D01*
X123535565Y-124837166D01*
X123432913Y-124830814D01*
X123327925Y-124821028D01*
X123214456Y-124807328D01*
X123086359Y-124789236D01*
X122937488Y-124766271D01*
X122665526Y-124724897D01*
X122372406Y-124682611D01*
X122100593Y-124642993D01*
X121850991Y-124603631D01*
X121614863Y-124562736D01*
X121383471Y-124518520D01*
X121170389Y-124473870D01*
X121148077Y-124469195D01*
X120899942Y-124412973D01*
X120630331Y-124348067D01*
X120330502Y-124272689D01*
X120220534Y-124244399D01*
X120124550Y-124218622D01*
X120038570Y-124194078D01*
X119958615Y-124169491D01*
X119880703Y-124143580D01*
X119800854Y-124115071D01*
X119715088Y-124082684D01*
X119619424Y-124045142D01*
X119369496Y-123941333D01*
X119358950Y-123936632D01*
X119246431Y-123886483D01*
X119124087Y-123829358D01*
X119002055Y-123769726D01*
X118879928Y-123707354D01*
X118757294Y-123642010D01*
X118633748Y-123573459D01*
X118432036Y-123455026D01*
X121297139Y-123455026D01*
X121297921Y-123475753D01*
X121299672Y-123495943D01*
X121300535Y-123503569D01*
X121301459Y-123510623D01*
X121302475Y-123517172D01*
X121303610Y-123523282D01*
X121304893Y-123529023D01*
X121306355Y-123534463D01*
X121308022Y-123539668D01*
X121309925Y-123544706D01*
X121312092Y-123549647D01*
X121314553Y-123554556D01*
X121317336Y-123559504D01*
X121320470Y-123564556D01*
X121323984Y-123569780D01*
X121327907Y-123575245D01*
X121332268Y-123581019D01*
X121337096Y-123587169D01*
X121344252Y-123596129D01*
X121351339Y-123604472D01*
X121358429Y-123612247D01*
X121365594Y-123619502D01*
X121372908Y-123626286D01*
X121380443Y-123632651D01*
X121388272Y-123638644D01*
X121396466Y-123644314D01*
X121405100Y-123649712D01*
X121414244Y-123654886D01*
X121423972Y-123659886D01*
X121434356Y-123664761D01*
X121445470Y-123669560D01*
X121457385Y-123674333D01*
X121470173Y-123679129D01*
X121483908Y-123683997D01*
X121514608Y-123693409D01*
X121548876Y-123701661D01*
X121587506Y-123708859D01*
X121631291Y-123715109D01*
X121681026Y-123720517D01*
X121737504Y-123725190D01*
X121801519Y-123729232D01*
X121873864Y-123732750D01*
X121912177Y-123734720D01*
X121954532Y-123737511D01*
X122045756Y-123745015D01*
X122136319Y-123754181D01*
X122177847Y-123759050D01*
X122215003Y-123763929D01*
X122501707Y-123798784D01*
X122792319Y-123823152D01*
X123083855Y-123837052D01*
X123373331Y-123840508D01*
X123657758Y-123833540D01*
X123934153Y-123816172D01*
X124199529Y-123788423D01*
X124327152Y-123770663D01*
X124450901Y-123750317D01*
X124618497Y-123720103D01*
X124608004Y-123696186D01*
X124568726Y-123614331D01*
X124551499Y-123580707D01*
X125068133Y-123580707D01*
X125069253Y-123617980D01*
X125069819Y-123623479D01*
X125070508Y-123628859D01*
X125071318Y-123634121D01*
X125072249Y-123639262D01*
X125073298Y-123644281D01*
X125074466Y-123649177D01*
X125075752Y-123653949D01*
X125077153Y-123658594D01*
X125078672Y-123663112D01*
X125080304Y-123667501D01*
X125082049Y-123671759D01*
X125083908Y-123675886D01*
X125085877Y-123679879D01*
X125087958Y-123683737D01*
X125090149Y-123687459D01*
X125092448Y-123691043D01*
X125094855Y-123694488D01*
X125097369Y-123697793D01*
X125099988Y-123700955D01*
X125102713Y-123703975D01*
X125105541Y-123706849D01*
X125108472Y-123709577D01*
X125111505Y-123712157D01*
X125114640Y-123714587D01*
X125117874Y-123716867D01*
X125121207Y-123718995D01*
X125124639Y-123720969D01*
X125128168Y-123722789D01*
X125131793Y-123724451D01*
X125135513Y-123725956D01*
X125139327Y-123727301D01*
X125143235Y-123728487D01*
X125159232Y-123730950D01*
X125181051Y-123731395D01*
X125242039Y-123726250D01*
X125325987Y-123713098D01*
X125432681Y-123691984D01*
X125561910Y-123662951D01*
X125713462Y-123626046D01*
X125887125Y-123581314D01*
X126082684Y-123528800D01*
X126193573Y-123498580D01*
X126335301Y-123461130D01*
X126637736Y-123382870D01*
X127057777Y-123274568D01*
X127229138Y-123228602D01*
X127380745Y-123186392D01*
X127517115Y-123146660D01*
X127642762Y-123108129D01*
X127762200Y-123069524D01*
X127879947Y-123029566D01*
X127953283Y-123004017D01*
X128032311Y-122977005D01*
X128169188Y-122931118D01*
X128236402Y-122908138D01*
X128268127Y-122896490D01*
X128298595Y-122884739D01*
X128327801Y-122872889D01*
X128355743Y-122860941D01*
X128382417Y-122848899D01*
X128407820Y-122836764D01*
X128431950Y-122824540D01*
X128454802Y-122812227D01*
X128476375Y-122799831D01*
X128496664Y-122787352D01*
X128515667Y-122774793D01*
X128533381Y-122762157D01*
X128549802Y-122749446D01*
X128564929Y-122736662D01*
X128578756Y-122723808D01*
X128591281Y-122710886D01*
X128602501Y-122697901D01*
X128612414Y-122684852D01*
X128621015Y-122671742D01*
X128628302Y-122658576D01*
X128634272Y-122645354D01*
X128638921Y-122632079D01*
X128642247Y-122618755D01*
X128644247Y-122605383D01*
X128644916Y-122591965D01*
X128644252Y-122578504D01*
X128642253Y-122565004D01*
X128638915Y-122551465D01*
X128634235Y-122537891D01*
X128628209Y-122524285D01*
X128619423Y-122508005D01*
X128608046Y-122490064D01*
X128593998Y-122470383D01*
X128577200Y-122448880D01*
X128535036Y-122400083D01*
X128480921Y-122343029D01*
X128414220Y-122277069D01*
X128334299Y-122201557D01*
X128240523Y-122115845D01*
X128132259Y-122019287D01*
X127879577Y-121791175D01*
X127758743Y-121677724D01*
X127632221Y-121555506D01*
X127334034Y-121257271D01*
X126928863Y-120841457D01*
X126592740Y-120496115D01*
X126344794Y-120244287D01*
X126263166Y-120161765D01*
X126178212Y-120075133D01*
X126100144Y-119994645D01*
X126039172Y-119930557D01*
X125956242Y-119843334D01*
X125881505Y-119767018D01*
X125846866Y-119732643D01*
X125813864Y-119700625D01*
X125782363Y-119670844D01*
X125752225Y-119643176D01*
X125723312Y-119617497D01*
X125695488Y-119593685D01*
X125668616Y-119571618D01*
X125642560Y-119551173D01*
X125617181Y-119532226D01*
X125592343Y-119514656D01*
X125567909Y-119498340D01*
X125543741Y-119483154D01*
X125527773Y-119473628D01*
X125513507Y-119465254D01*
X125500833Y-119458004D01*
X125495058Y-119454793D01*
X125489639Y-119451853D01*
X125484563Y-119449181D01*
X125479815Y-119446775D01*
X125475381Y-119444629D01*
X125471247Y-119442741D01*
X125467400Y-119441108D01*
X125463827Y-119439727D01*
X125460512Y-119438593D01*
X125457441Y-119437705D01*
X125454602Y-119437059D01*
X125451979Y-119436650D01*
X125449560Y-119436476D01*
X125448422Y-119436476D01*
X125447331Y-119436533D01*
X125446281Y-119436648D01*
X125445276Y-119436819D01*
X125444309Y-119437046D01*
X125443383Y-119437330D01*
X125442492Y-119437669D01*
X125441637Y-119438062D01*
X125440814Y-119438510D01*
X125440024Y-119439012D01*
X125439264Y-119439568D01*
X125438532Y-119440178D01*
X125437145Y-119441555D01*
X125435849Y-119443140D01*
X125434633Y-119444931D01*
X125433480Y-119446923D01*
X125432377Y-119449114D01*
X125431310Y-119451499D01*
X125430265Y-119454076D01*
X125413542Y-119504261D01*
X125397839Y-119565715D01*
X125383154Y-119638512D01*
X125369478Y-119722726D01*
X125356810Y-119818436D01*
X125345142Y-119925713D01*
X125334469Y-120044634D01*
X125324787Y-120175273D01*
X125317355Y-120275584D01*
X125306559Y-120405011D01*
X125293872Y-120547012D01*
X125280764Y-120685046D01*
X125237955Y-121133585D01*
X125202488Y-121542695D01*
X125169880Y-121968441D01*
X125135650Y-122466891D01*
X125117589Y-122721274D01*
X125099228Y-122961521D01*
X125091899Y-123060649D01*
X125085226Y-123162818D01*
X125074584Y-123360441D01*
X125070982Y-123447978D01*
X125068771Y-123522720D01*
X125068133Y-123580707D01*
X124551499Y-123580707D01*
X124527723Y-123534301D01*
X124482781Y-123452446D01*
X124431688Y-123365115D01*
X124372231Y-123268657D01*
X124302198Y-123159422D01*
X124219374Y-123033759D01*
X124121548Y-122888020D01*
X123371225Y-121737750D01*
X122651210Y-120615526D01*
X122574731Y-120492694D01*
X122506268Y-120385856D01*
X122474953Y-120338307D01*
X122445534Y-120294599D01*
X122417975Y-120254684D01*
X122392239Y-120218508D01*
X122368291Y-120186020D01*
X122346096Y-120157170D01*
X122325615Y-120131903D01*
X122306814Y-120110168D01*
X122289656Y-120091915D01*
X122274105Y-120077090D01*
X122260126Y-120065644D01*
X122247682Y-120057523D01*
X122242610Y-120054710D01*
X122237760Y-120052179D01*
X122233103Y-120049923D01*
X122228611Y-120047938D01*
X122224256Y-120046221D01*
X122220007Y-120044766D01*
X122215838Y-120043569D01*
X122211717Y-120042625D01*
X122207619Y-120041931D01*
X122203513Y-120041481D01*
X122199370Y-120041272D01*
X122195164Y-120041298D01*
X122190863Y-120041555D01*
X122186440Y-120042039D01*
X122181866Y-120042745D01*
X122177113Y-120043669D01*
X122164044Y-120047656D01*
X122151630Y-120054069D01*
X122139788Y-120063145D01*
X122128431Y-120075121D01*
X122117479Y-120090234D01*
X122106845Y-120108721D01*
X122096444Y-120130819D01*
X122086193Y-120156767D01*
X122076007Y-120186800D01*
X122065803Y-120221155D01*
X122055496Y-120260070D01*
X122045001Y-120303784D01*
X122023111Y-120406550D01*
X121999460Y-120531353D01*
X121983747Y-120614446D01*
X121965395Y-120704610D01*
X121946737Y-120790949D01*
X121930107Y-120862572D01*
X121891742Y-121021965D01*
X121853207Y-121190099D01*
X121806549Y-121402732D01*
X121743813Y-121695620D01*
X121687134Y-121959444D01*
X121637619Y-122183654D01*
X121593911Y-122373642D01*
X121554652Y-122534800D01*
X121518484Y-122672521D01*
X121484049Y-122792196D01*
X121449988Y-122899217D01*
X121414943Y-122998978D01*
X121380886Y-123093234D01*
X121366276Y-123135649D01*
X121353216Y-123175185D01*
X121341654Y-123212034D01*
X121331546Y-123246392D01*
X121322840Y-123278456D01*
X121315490Y-123308419D01*
X121309446Y-123336478D01*
X121304662Y-123362826D01*
X121301086Y-123387660D01*
X121298673Y-123411175D01*
X121297374Y-123433565D01*
X121297139Y-123455026D01*
X118432036Y-123455026D01*
X118382278Y-123425811D01*
X118122247Y-123262549D01*
X117850388Y-123081810D01*
X117563430Y-122881732D01*
X117372874Y-122744250D01*
X117195305Y-122611989D01*
X117130712Y-122562015D01*
X117029682Y-122483850D01*
X116874969Y-122358736D01*
X116739970Y-122243921D01*
X118321086Y-122243921D01*
X118321581Y-122260346D01*
X118322824Y-122276426D01*
X118324820Y-122292176D01*
X118327576Y-122307613D01*
X118331097Y-122322751D01*
X118335389Y-122337605D01*
X118340460Y-122352191D01*
X118346313Y-122366523D01*
X118352956Y-122380616D01*
X118360395Y-122394485D01*
X118368634Y-122408147D01*
X118377682Y-122421614D01*
X118387542Y-122434903D01*
X118398223Y-122448029D01*
X118409728Y-122461007D01*
X118422066Y-122473851D01*
X118435241Y-122486578D01*
X118449258Y-122499202D01*
X118464127Y-122511737D01*
X118496435Y-122536605D01*
X118532214Y-122561301D01*
X118573151Y-122585095D01*
X118649885Y-122626680D01*
X118879887Y-122747300D01*
X119160508Y-122891312D01*
X119430033Y-123026863D01*
X119541161Y-123080727D01*
X119661442Y-123136535D01*
X119785426Y-123191978D01*
X119907671Y-123244748D01*
X120022728Y-123292536D01*
X120125152Y-123333035D01*
X120209496Y-123363937D01*
X120243186Y-123375068D01*
X120270314Y-123382934D01*
X120286436Y-123386963D01*
X120302859Y-123390610D01*
X120319502Y-123393869D01*
X120336279Y-123396736D01*
X120353110Y-123399207D01*
X120369911Y-123401276D01*
X120386599Y-123402938D01*
X120403092Y-123404189D01*
X120419306Y-123405023D01*
X120435158Y-123405436D01*
X120450565Y-123405424D01*
X120465446Y-123404981D01*
X120479715Y-123404102D01*
X120493293Y-123402782D01*
X120506093Y-123401019D01*
X120518034Y-123398804D01*
X120564618Y-123388903D01*
X120535109Y-123279763D01*
X120528351Y-123255011D01*
X120519889Y-123226322D01*
X120499324Y-123161252D01*
X120476351Y-123092806D01*
X120453906Y-123029234D01*
X120417882Y-122934118D01*
X120372314Y-122823532D01*
X120299894Y-122656610D01*
X120183314Y-122392482D01*
X120142816Y-122297204D01*
X120091466Y-122171941D01*
X120036027Y-122033009D01*
X119983262Y-121896721D01*
X119834336Y-121510772D01*
X119715814Y-121212189D01*
X119596510Y-120924253D01*
X119445245Y-120570247D01*
X119386916Y-120436096D01*
X119337591Y-120324523D01*
X119296199Y-120233368D01*
X119278143Y-120194773D01*
X119261667Y-120160472D01*
X119246640Y-120130196D01*
X119232925Y-120103674D01*
X119220390Y-120080637D01*
X119208899Y-120060814D01*
X119198320Y-120043936D01*
X119188518Y-120029732D01*
X119179358Y-120017933D01*
X119170709Y-120008268D01*
X119158724Y-119997114D01*
X119153379Y-119993859D01*
X119148145Y-119992720D01*
X119145494Y-119993077D01*
X119142781Y-119994123D01*
X119137044Y-119998496D01*
X119130696Y-120006264D01*
X119123494Y-120017853D01*
X119115197Y-120033690D01*
X119105566Y-120054200D01*
X119081335Y-120110948D01*
X119048874Y-120191509D01*
X119006254Y-120299291D01*
X118909454Y-120547843D01*
X118812887Y-120809025D01*
X118710730Y-121098782D01*
X118597156Y-121433061D01*
X118578006Y-121489484D01*
X118557310Y-121548432D01*
X118535744Y-121608158D01*
X118513982Y-121666910D01*
X118492698Y-121722941D01*
X118472566Y-121774500D01*
X118454261Y-121819839D01*
X118438456Y-121857207D01*
X118424098Y-121890424D01*
X118409924Y-121923865D01*
X118383596Y-121987773D01*
X118372174Y-122016413D01*
X118362401Y-122041629D01*
X118354643Y-122062506D01*
X118349267Y-122078134D01*
X118338040Y-122118052D01*
X118329608Y-122156112D01*
X118326457Y-122174483D01*
X118324023Y-122192434D01*
X118322313Y-122209981D01*
X118321332Y-122227138D01*
X118321086Y-122243921D01*
X116739970Y-122243921D01*
X116730127Y-122235550D01*
X116594120Y-122113193D01*
X116465909Y-121990568D01*
X116344456Y-121866579D01*
X116228725Y-121740127D01*
X116117677Y-121610114D01*
X116010275Y-121475443D01*
X115905481Y-121335016D01*
X115802257Y-121187736D01*
X115699567Y-121032506D01*
X115597888Y-120870641D01*
X115596372Y-120868227D01*
X115491635Y-120693803D01*
X115432520Y-120590910D01*
X116469577Y-120590910D01*
X116470234Y-120613548D01*
X116472304Y-120636244D01*
X116475729Y-120659307D01*
X116480451Y-120683046D01*
X116486415Y-120707768D01*
X116497134Y-120744283D01*
X116510078Y-120780376D01*
X116525492Y-120816345D01*
X116543618Y-120852482D01*
X116564702Y-120889084D01*
X116588987Y-120926446D01*
X116616717Y-120964866D01*
X116648134Y-121004636D01*
X116683484Y-121046054D01*
X116723010Y-121089415D01*
X116766954Y-121135014D01*
X116815563Y-121183147D01*
X116869078Y-121234109D01*
X116927745Y-121288197D01*
X117061505Y-121406929D01*
X117135283Y-121471606D01*
X117210015Y-121538786D01*
X117276995Y-121600513D01*
X117304858Y-121626846D01*
X117327516Y-121648832D01*
X117370447Y-121690559D01*
X117390782Y-121709790D01*
X117410411Y-121727971D01*
X117429369Y-121745132D01*
X117447691Y-121761304D01*
X117465413Y-121776515D01*
X117482569Y-121790794D01*
X117499196Y-121804173D01*
X117515328Y-121816678D01*
X117531002Y-121828341D01*
X117546251Y-121839191D01*
X117561111Y-121849256D01*
X117575619Y-121858567D01*
X117589808Y-121867154D01*
X117603716Y-121875044D01*
X117621468Y-121884309D01*
X117639105Y-121892911D01*
X117656473Y-121900814D01*
X117673421Y-121907973D01*
X117689797Y-121914352D01*
X117705447Y-121919909D01*
X117720220Y-121924604D01*
X117733960Y-121928396D01*
X117746519Y-121931246D01*
X117752307Y-121932305D01*
X117757742Y-121933113D01*
X117762805Y-121933665D01*
X117767477Y-121933957D01*
X117771740Y-121933983D01*
X117775571Y-121933738D01*
X117778956Y-121933217D01*
X117781873Y-121932415D01*
X117784304Y-121931328D01*
X117786229Y-121929950D01*
X117787630Y-121928275D01*
X117788487Y-121926299D01*
X117788781Y-121924018D01*
X117788494Y-121921426D01*
X117787861Y-121917107D01*
X117787078Y-121909596D01*
X117785156Y-121886633D01*
X117780530Y-121820330D01*
X117772194Y-121710895D01*
X117759530Y-121593282D01*
X117742457Y-121466949D01*
X117720889Y-121331354D01*
X117694743Y-121185954D01*
X117663936Y-121030207D01*
X117628385Y-120863571D01*
X117588004Y-120685505D01*
X117507955Y-120335944D01*
X117474764Y-120184964D01*
X117446119Y-120049797D01*
X117422008Y-119930403D01*
X117402426Y-119826741D01*
X117387362Y-119738770D01*
X117376808Y-119666452D01*
X117367414Y-119599856D01*
X117363397Y-119571389D01*
X117349149Y-119484958D01*
X117341634Y-119444704D01*
X117333822Y-119406278D01*
X117325679Y-119369571D01*
X117320506Y-119348217D01*
X117527600Y-119348217D01*
X117527758Y-119363087D01*
X117528917Y-119380918D01*
X117531010Y-119401360D01*
X117537723Y-119448661D01*
X117547351Y-119502167D01*
X117559347Y-119559059D01*
X117573165Y-119616516D01*
X117588255Y-119671715D01*
X117604074Y-119721835D01*
X117632411Y-119819360D01*
X117678763Y-120009589D01*
X117869410Y-120855611D01*
X118032254Y-121579846D01*
X118082694Y-121801172D01*
X118102335Y-121883570D01*
X118102986Y-121883623D01*
X118104133Y-121883284D01*
X118105747Y-121882569D01*
X118107797Y-121881493D01*
X118113091Y-121878319D01*
X118119776Y-121873888D01*
X118127615Y-121868325D01*
X118136370Y-121861754D01*
X118145804Y-121854298D01*
X118155679Y-121846083D01*
X118166696Y-121836552D01*
X118178048Y-121825493D01*
X118189658Y-121813026D01*
X118201449Y-121799274D01*
X118213348Y-121784358D01*
X118225277Y-121768399D01*
X118237161Y-121751522D01*
X118248924Y-121733845D01*
X118260491Y-121715491D01*
X118271784Y-121696582D01*
X118282730Y-121677241D01*
X118293252Y-121657588D01*
X118303274Y-121637745D01*
X118312720Y-121617835D01*
X118321515Y-121597978D01*
X118329581Y-121578297D01*
X118390884Y-121408042D01*
X118501067Y-121095531D01*
X118558522Y-120931615D01*
X118611405Y-120783875D01*
X118660489Y-120650277D01*
X118706548Y-120528787D01*
X118750352Y-120417370D01*
X118792673Y-120313992D01*
X118834284Y-120216617D01*
X118875957Y-120123215D01*
X118896297Y-120077923D01*
X118914518Y-120036175D01*
X118930690Y-119997686D01*
X118936112Y-119984117D01*
X118944882Y-119962173D01*
X118957163Y-119929354D01*
X118967603Y-119898946D01*
X118976272Y-119870666D01*
X118983238Y-119844231D01*
X118988570Y-119819358D01*
X118992339Y-119795764D01*
X118994612Y-119773168D01*
X118995461Y-119751285D01*
X118994954Y-119729833D01*
X118993160Y-119708528D01*
X118992821Y-119706115D01*
X119411974Y-119706115D01*
X119412089Y-119718390D01*
X119413218Y-119747007D01*
X119415504Y-119781316D01*
X119418649Y-119813176D01*
X119423173Y-119845752D01*
X119429177Y-119879313D01*
X119436761Y-119914129D01*
X119446027Y-119950468D01*
X119457075Y-119988600D01*
X119484923Y-120071317D01*
X119521109Y-120164434D01*
X119566440Y-120270103D01*
X119621723Y-120390480D01*
X119687764Y-120527714D01*
X119739544Y-120636374D01*
X119807475Y-120790796D01*
X120142508Y-121589673D01*
X120426160Y-122259757D01*
X120682458Y-122852057D01*
X120872563Y-123277702D01*
X120930657Y-123400258D01*
X120948340Y-123434109D01*
X120957638Y-123447824D01*
X120960047Y-123448807D01*
X120962909Y-123448818D01*
X120966197Y-123447893D01*
X120969886Y-123446071D01*
X120978372Y-123439885D01*
X120988161Y-123430559D01*
X120999052Y-123418393D01*
X121010846Y-123403690D01*
X121023340Y-123386748D01*
X121036330Y-123367869D01*
X121049618Y-123347352D01*
X121063001Y-123325498D01*
X121076277Y-123302607D01*
X121089245Y-123278981D01*
X121101702Y-123254919D01*
X121113448Y-123230721D01*
X121124281Y-123206688D01*
X121133999Y-123183121D01*
X121149941Y-123141013D01*
X121165930Y-123094806D01*
X121181812Y-123045008D01*
X121197430Y-122992127D01*
X121212627Y-122936674D01*
X121227248Y-122879155D01*
X121241136Y-122820081D01*
X121254137Y-122759959D01*
X121534099Y-121465644D01*
X121680182Y-120808822D01*
X121757657Y-120475453D01*
X121800053Y-120321773D01*
X121833192Y-120198568D01*
X121846562Y-120147075D01*
X121857943Y-120101617D01*
X121867444Y-120061668D01*
X121875174Y-120026700D01*
X121881240Y-119996185D01*
X121885751Y-119969596D01*
X121887570Y-119955832D01*
X121888817Y-119946405D01*
X121890543Y-119926083D01*
X121891040Y-119908105D01*
X121890416Y-119891943D01*
X121888780Y-119877068D01*
X121886240Y-119862954D01*
X121883478Y-119851687D01*
X121880107Y-119841153D01*
X121876074Y-119831314D01*
X121871321Y-119822126D01*
X121868658Y-119817766D01*
X121865795Y-119813553D01*
X121862725Y-119809484D01*
X121859441Y-119805553D01*
X121855937Y-119801756D01*
X121852206Y-119798087D01*
X121848240Y-119794541D01*
X121846380Y-119793026D01*
X122445793Y-119793026D01*
X122445834Y-119806200D01*
X122447318Y-119820530D01*
X122450325Y-119836214D01*
X122454940Y-119853458D01*
X122461244Y-119872459D01*
X122469320Y-119893422D01*
X122479251Y-119916549D01*
X122491118Y-119942040D01*
X122520994Y-120000922D01*
X122559608Y-120071682D01*
X122607620Y-120155935D01*
X122649009Y-120226699D01*
X122690413Y-120295040D01*
X122733094Y-120362835D01*
X122778320Y-120431959D01*
X122827354Y-120504289D01*
X122881463Y-120581701D01*
X122941911Y-120666069D01*
X123009963Y-120759272D01*
X123230332Y-121065159D01*
X123451977Y-121385398D01*
X123710160Y-121771749D01*
X124040142Y-122275973D01*
X124284883Y-122649529D01*
X124511474Y-122991779D01*
X124546842Y-123044826D01*
X124578151Y-123091669D01*
X124605682Y-123132684D01*
X124629710Y-123168250D01*
X124650516Y-123198742D01*
X124659796Y-123212204D01*
X124668375Y-123224538D01*
X124676288Y-123235793D01*
X124683568Y-123246014D01*
X124690251Y-123255250D01*
X124696372Y-123263546D01*
X124701966Y-123270951D01*
X124707066Y-123277512D01*
X124711708Y-123283276D01*
X124715928Y-123288288D01*
X124719758Y-123292598D01*
X124723235Y-123296251D01*
X124726393Y-123299296D01*
X124729266Y-123301778D01*
X124730606Y-123302823D01*
X124731890Y-123303745D01*
X124733119Y-123304550D01*
X124734300Y-123305245D01*
X124735434Y-123305834D01*
X124736529Y-123306324D01*
X124737587Y-123306720D01*
X124738613Y-123307029D01*
X124739612Y-123307257D01*
X124740587Y-123307408D01*
X124741543Y-123307489D01*
X124742486Y-123307507D01*
X124744343Y-123307374D01*
X124746194Y-123307056D01*
X124749324Y-123306232D01*
X124752264Y-123305089D01*
X124755048Y-123303556D01*
X124757707Y-123301565D01*
X124760275Y-123299043D01*
X124762783Y-123295921D01*
X124765266Y-123292129D01*
X124767756Y-123287595D01*
X124770283Y-123282250D01*
X124772882Y-123276024D01*
X124775586Y-123268846D01*
X124778426Y-123260645D01*
X124784647Y-123240895D01*
X124791804Y-123216213D01*
X124810288Y-123147933D01*
X124825344Y-123079387D01*
X124838351Y-122995935D01*
X124850689Y-122882935D01*
X124863734Y-122725744D01*
X124878867Y-122509721D01*
X124920906Y-121842611D01*
X124955027Y-121301569D01*
X124966666Y-121127101D01*
X124976351Y-120995788D01*
X124985328Y-120891970D01*
X124994846Y-120799989D01*
X125020488Y-120588891D01*
X125045498Y-120385563D01*
X125065524Y-120210080D01*
X125080838Y-120058569D01*
X125091719Y-119927157D01*
X125098441Y-119811971D01*
X125101279Y-119709138D01*
X125100511Y-119614785D01*
X125096411Y-119525039D01*
X125093051Y-119476290D01*
X125089870Y-119434349D01*
X125087213Y-119403623D01*
X125086189Y-119393844D01*
X125085575Y-119389558D01*
X125085426Y-119388520D01*
X125084815Y-119386661D01*
X125083787Y-119384966D01*
X125082311Y-119383429D01*
X125080359Y-119382046D01*
X125077899Y-119380814D01*
X125074903Y-119379727D01*
X125071340Y-119378781D01*
X125067180Y-119377972D01*
X125062393Y-119377298D01*
X125056949Y-119376751D01*
X125050819Y-119376331D01*
X125043972Y-119376031D01*
X125028009Y-119375774D01*
X125008819Y-119375951D01*
X124912992Y-119378896D01*
X124819000Y-119384262D01*
X124723110Y-119392524D01*
X124621586Y-119404162D01*
X124510693Y-119419649D01*
X124386701Y-119439464D01*
X124245872Y-119464083D01*
X124084472Y-119493984D01*
X123863293Y-119535281D01*
X123680173Y-119568170D01*
X123527260Y-119593753D01*
X123396706Y-119613124D01*
X123280661Y-119627381D01*
X123171276Y-119637626D01*
X123060700Y-119644952D01*
X122941083Y-119650460D01*
X122893727Y-119652616D01*
X122849832Y-119655092D01*
X122808832Y-119657968D01*
X122770162Y-119661320D01*
X122733258Y-119665226D01*
X122697557Y-119669764D01*
X122662493Y-119675013D01*
X122627500Y-119681049D01*
X122601466Y-119685693D01*
X122578319Y-119690011D01*
X122557868Y-119694096D01*
X122539919Y-119698044D01*
X122531823Y-119699996D01*
X122524281Y-119701950D01*
X122517268Y-119703917D01*
X122510761Y-119705910D01*
X122504734Y-119707939D01*
X122499166Y-119710017D01*
X122494030Y-119712157D01*
X122489304Y-119714368D01*
X122484963Y-119716664D01*
X122480983Y-119719056D01*
X122477340Y-119721557D01*
X122474010Y-119724179D01*
X122470969Y-119726931D01*
X122468193Y-119729829D01*
X122465657Y-119732882D01*
X122463338Y-119736102D01*
X122461213Y-119739502D01*
X122459255Y-119743095D01*
X122457442Y-119746890D01*
X122455750Y-119750900D01*
X122454155Y-119755137D01*
X122452632Y-119759614D01*
X122449706Y-119769333D01*
X122447111Y-119780804D01*
X122445793Y-119793026D01*
X121846380Y-119793026D01*
X121844033Y-119791114D01*
X121834868Y-119784595D01*
X121824656Y-119778491D01*
X121813345Y-119772759D01*
X121800876Y-119767363D01*
X121787196Y-119762261D01*
X121772252Y-119757413D01*
X121755987Y-119752780D01*
X121738348Y-119748321D01*
X121723819Y-119744971D01*
X121708399Y-119742106D01*
X121674469Y-119737836D01*
X121635714Y-119735522D01*
X121591290Y-119735173D01*
X121540354Y-119736801D01*
X121482064Y-119740414D01*
X121415577Y-119746023D01*
X121340048Y-119753637D01*
X121247272Y-119761637D01*
X121240261Y-119762240D01*
X121137113Y-119767258D01*
X121026198Y-119768537D01*
X120903107Y-119765927D01*
X120763435Y-119759277D01*
X120602775Y-119748433D01*
X120416721Y-119733246D01*
X120200865Y-119713563D01*
X119966877Y-119691251D01*
X119793781Y-119675439D01*
X119660893Y-119664265D01*
X119547530Y-119655875D01*
X119472420Y-119650876D01*
X119446039Y-119649045D01*
X119432233Y-119647923D01*
X119428653Y-119648141D01*
X119425437Y-119649250D01*
X119422581Y-119651293D01*
X119420080Y-119654309D01*
X119417925Y-119658340D01*
X119416113Y-119663426D01*
X119414637Y-119669608D01*
X119413489Y-119676927D01*
X119412668Y-119685424D01*
X119412164Y-119695140D01*
X119411974Y-119706115D01*
X118992821Y-119706115D01*
X118990149Y-119687089D01*
X118985990Y-119665233D01*
X118980333Y-119642318D01*
X118973746Y-119621306D01*
X118966049Y-119602076D01*
X118957068Y-119584512D01*
X118952041Y-119576317D01*
X118946625Y-119568495D01*
X118940800Y-119561029D01*
X118934543Y-119553907D01*
X118927831Y-119547111D01*
X118920645Y-119540629D01*
X118912959Y-119534445D01*
X118904753Y-119528544D01*
X118896004Y-119522911D01*
X118886691Y-119517533D01*
X118866282Y-119507477D01*
X118843348Y-119498260D01*
X118817714Y-119489762D01*
X118789201Y-119481864D01*
X118757633Y-119474451D01*
X118722832Y-119467401D01*
X118684623Y-119460599D01*
X118639906Y-119452187D01*
X118591479Y-119441879D01*
X118539418Y-119429683D01*
X118483796Y-119415601D01*
X118424689Y-119399639D01*
X118362173Y-119381803D01*
X118296322Y-119362098D01*
X118227211Y-119340527D01*
X118133154Y-119311220D01*
X118047534Y-119285074D01*
X117970614Y-119262173D01*
X117911297Y-119245087D01*
X125734980Y-119245087D01*
X125735003Y-119248179D01*
X125735413Y-119251430D01*
X125736202Y-119254872D01*
X125737359Y-119258528D01*
X125738878Y-119262427D01*
X125740748Y-119266599D01*
X125745505Y-119275863D01*
X125751558Y-119286541D01*
X125767254Y-119313020D01*
X125792406Y-119353754D01*
X125819634Y-119394787D01*
X125849187Y-119436384D01*
X125881317Y-119478812D01*
X125916273Y-119522335D01*
X125954307Y-119567217D01*
X126040609Y-119662124D01*
X126142225Y-119765651D01*
X126261160Y-119879920D01*
X126399418Y-120007051D01*
X126559003Y-120149165D01*
X126659011Y-120237808D01*
X126755061Y-120324830D01*
X126849188Y-120412156D01*
X126943429Y-120501708D01*
X127039821Y-120595410D01*
X127140399Y-120695185D01*
X127362256Y-120920650D01*
X127734044Y-121301690D01*
X127877320Y-121446979D01*
X127998414Y-121568286D01*
X128101995Y-121670238D01*
X128192736Y-121757465D01*
X128275308Y-121834594D01*
X128354383Y-121906252D01*
X128423148Y-121967287D01*
X128496290Y-122030581D01*
X128569841Y-122092902D01*
X128639823Y-122151014D01*
X128702263Y-122201685D01*
X128753189Y-122241680D01*
X128773093Y-122256664D01*
X128788627Y-122267766D01*
X128799297Y-122274582D01*
X128802651Y-122276256D01*
X128804604Y-122276708D01*
X128806271Y-122276275D01*
X128808121Y-122275323D01*
X128810143Y-122273876D01*
X128812321Y-122271957D01*
X128817104Y-122266804D01*
X128822365Y-122260055D01*
X128828006Y-122251906D01*
X128833923Y-122242549D01*
X128840016Y-122232178D01*
X128846182Y-122220984D01*
X128849208Y-122215156D01*
X128852320Y-122209162D01*
X128858329Y-122196907D01*
X128864107Y-122184410D01*
X128869553Y-122171864D01*
X128874564Y-122159464D01*
X128879040Y-122147401D01*
X128882878Y-122135870D01*
X128885978Y-122125065D01*
X128890860Y-122105105D01*
X128895017Y-122084858D01*
X128898447Y-122064139D01*
X128901142Y-122042765D01*
X128903098Y-122020550D01*
X128904310Y-121997307D01*
X128904774Y-121972853D01*
X128904482Y-121947001D01*
X128901620Y-121890367D01*
X128895681Y-121825924D01*
X128886627Y-121752190D01*
X128874416Y-121667683D01*
X128868046Y-121614782D01*
X128860346Y-121538919D01*
X128852263Y-121450121D01*
X128844744Y-121358413D01*
X128829589Y-121167035D01*
X128812149Y-120980972D01*
X128791576Y-120793989D01*
X128767022Y-120599854D01*
X128737636Y-120392335D01*
X128702570Y-120165196D01*
X128611996Y-119627131D01*
X128552059Y-119275154D01*
X128496359Y-118930393D01*
X128474071Y-118791599D01*
X128452523Y-118665835D01*
X128439786Y-118596657D01*
X128675375Y-118596657D01*
X128679643Y-118644291D01*
X128689307Y-118710853D01*
X128705215Y-118801617D01*
X128728212Y-118921853D01*
X128798855Y-119271837D01*
X128890065Y-119730041D01*
X128926366Y-119928471D01*
X128958394Y-120118384D01*
X128987599Y-120308728D01*
X129015427Y-120508453D01*
X129072741Y-120971833D01*
X129092259Y-121138497D01*
X129107771Y-121275624D01*
X129119705Y-121388069D01*
X129128492Y-121480684D01*
X129134560Y-121558323D01*
X129138340Y-121625842D01*
X129140260Y-121688091D01*
X129140751Y-121749926D01*
X129141252Y-121884841D01*
X129141890Y-121941396D01*
X129142834Y-121980304D01*
X129143765Y-121998102D01*
X129145391Y-122017387D01*
X129147651Y-122037863D01*
X129150483Y-122059235D01*
X129157605Y-122103484D01*
X129166257Y-122147766D01*
X129175935Y-122189717D01*
X129181001Y-122209079D01*
X129186136Y-122226971D01*
X129191275Y-122243097D01*
X129196357Y-122257163D01*
X129201318Y-122268870D01*
X129206095Y-122277926D01*
X129211276Y-122286212D01*
X129216799Y-122294244D01*
X129222631Y-122301993D01*
X129228741Y-122309432D01*
X129235096Y-122316533D01*
X129241663Y-122323270D01*
X129248413Y-122329614D01*
X129255309Y-122335539D01*
X129262323Y-122341016D01*
X129269421Y-122346019D01*
X129276569Y-122350519D01*
X129283738Y-122354489D01*
X129290894Y-122357902D01*
X129298005Y-122360730D01*
X129301534Y-122361917D01*
X129305038Y-122362947D01*
X129308516Y-122363816D01*
X129311962Y-122364522D01*
X129326028Y-122366173D01*
X129342396Y-122366146D01*
X129360948Y-122364483D01*
X129381561Y-122361224D01*
X129404117Y-122356411D01*
X129428493Y-122350087D01*
X129454569Y-122342291D01*
X129482225Y-122333066D01*
X129511339Y-122322452D01*
X129541792Y-122310493D01*
X129606231Y-122282701D01*
X129674576Y-122250022D01*
X129745862Y-122212786D01*
X129803462Y-122182594D01*
X129877671Y-122144646D01*
X129959045Y-122103821D01*
X130038141Y-122065003D01*
X130156282Y-122006397D01*
X130266864Y-121949608D01*
X130371698Y-121893619D01*
X130472597Y-121837409D01*
X130571372Y-121779961D01*
X130669837Y-121720254D01*
X130769803Y-121657269D01*
X130873082Y-121589987D01*
X131012491Y-121495345D01*
X131150612Y-121396538D01*
X131286239Y-121294543D01*
X131418160Y-121190333D01*
X131545171Y-121084886D01*
X131666059Y-120979177D01*
X131779619Y-120874179D01*
X131884641Y-120770870D01*
X131910397Y-120744327D01*
X131933755Y-120719359D01*
X131954786Y-120695832D01*
X131973560Y-120673611D01*
X131990148Y-120652562D01*
X132004621Y-120632553D01*
X132017047Y-120613448D01*
X132022516Y-120604192D01*
X132027499Y-120595114D01*
X132032008Y-120586194D01*
X132036048Y-120577417D01*
X132039631Y-120568766D01*
X132042764Y-120560224D01*
X132045456Y-120551774D01*
X132047716Y-120543399D01*
X132049554Y-120535085D01*
X132050978Y-120526811D01*
X132051995Y-120518563D01*
X132052617Y-120510324D01*
X132052850Y-120502077D01*
X132052705Y-120493805D01*
X132052190Y-120485492D01*
X132051314Y-120477120D01*
X132050085Y-120468673D01*
X132048512Y-120460134D01*
X132044159Y-120442898D01*
X132038459Y-120426061D01*
X132031312Y-120409526D01*
X132022619Y-120393196D01*
X132012279Y-120376973D01*
X132000192Y-120360759D01*
X131986259Y-120344458D01*
X131970379Y-120327970D01*
X131952451Y-120311199D01*
X131932378Y-120294046D01*
X131910058Y-120276416D01*
X131885392Y-120258208D01*
X131858277Y-120239327D01*
X131828617Y-120219674D01*
X131796311Y-120199153D01*
X131761257Y-120177664D01*
X131605203Y-120081899D01*
X131420905Y-119967792D01*
X131229793Y-119848992D01*
X131015771Y-119719845D01*
X130757785Y-119567585D01*
X130434776Y-119379443D01*
X130109530Y-119190789D01*
X129866406Y-119048077D01*
X129677932Y-118934999D01*
X129516637Y-118835248D01*
X129375706Y-118746959D01*
X129254695Y-118672600D01*
X129151742Y-118611117D01*
X129106456Y-118584877D01*
X129064985Y-118561461D01*
X129027099Y-118540739D01*
X128992565Y-118522578D01*
X128961147Y-118506848D01*
X128932617Y-118493416D01*
X128906739Y-118482152D01*
X128883283Y-118472924D01*
X128862013Y-118465600D01*
X128842699Y-118460050D01*
X128834981Y-118458217D01*
X128827378Y-118456680D01*
X128819897Y-118455438D01*
X128812543Y-118454487D01*
X128805320Y-118453826D01*
X128798237Y-118453452D01*
X128791295Y-118453363D01*
X128784501Y-118453557D01*
X128777861Y-118454031D01*
X128771380Y-118454783D01*
X128765062Y-118455811D01*
X128758914Y-118457112D01*
X128752940Y-118458686D01*
X128747147Y-118460528D01*
X128741538Y-118462637D01*
X128736120Y-118465010D01*
X128730897Y-118467646D01*
X128725876Y-118470541D01*
X128721061Y-118473693D01*
X128716457Y-118477102D01*
X128712070Y-118480763D01*
X128707906Y-118484675D01*
X128703969Y-118488835D01*
X128700265Y-118493243D01*
X128696799Y-118497893D01*
X128693577Y-118502785D01*
X128690603Y-118507916D01*
X128687882Y-118513285D01*
X128685422Y-118518889D01*
X128683225Y-118524725D01*
X128681299Y-118530791D01*
X128679648Y-118537086D01*
X128675659Y-118562680D01*
X128675375Y-118596657D01*
X128439786Y-118596657D01*
X128434280Y-118566754D01*
X128427201Y-118531490D01*
X128421909Y-118508016D01*
X128418659Y-118495185D01*
X128415629Y-118483594D01*
X128412773Y-118473144D01*
X128410045Y-118463737D01*
X128407402Y-118455273D01*
X128404799Y-118447654D01*
X128402190Y-118440781D01*
X128399531Y-118434555D01*
X128396778Y-118428878D01*
X128393885Y-118423650D01*
X128390807Y-118418773D01*
X128387501Y-118414147D01*
X128383921Y-118409676D01*
X128380022Y-118405259D01*
X128375760Y-118400798D01*
X128371090Y-118396193D01*
X128367384Y-118392768D01*
X128363492Y-118389414D01*
X128359428Y-118386142D01*
X128355204Y-118382961D01*
X128350830Y-118379880D01*
X128346323Y-118376908D01*
X128341693Y-118374055D01*
X128336952Y-118371329D01*
X128332115Y-118368741D01*
X128327191Y-118366298D01*
X128322194Y-118364011D01*
X128317139Y-118361889D01*
X128312035Y-118359941D01*
X128306896Y-118358176D01*
X128301735Y-118356603D01*
X128296563Y-118355232D01*
X128290344Y-118353794D01*
X128284152Y-118352573D01*
X128277944Y-118351566D01*
X128271679Y-118350771D01*
X128265317Y-118350188D01*
X128258816Y-118349815D01*
X128252133Y-118349649D01*
X128245231Y-118349688D01*
X128238064Y-118349931D01*
X128230593Y-118350376D01*
X128214572Y-118351864D01*
X128196838Y-118354141D01*
X128177060Y-118357190D01*
X128144382Y-118363586D01*
X128111904Y-118371715D01*
X128078140Y-118382146D01*
X128041605Y-118395449D01*
X128000815Y-118412191D01*
X127954283Y-118432944D01*
X127900525Y-118458276D01*
X127838056Y-118488756D01*
X127786248Y-118513431D01*
X127730574Y-118538060D01*
X127669188Y-118563354D01*
X127600244Y-118590023D01*
X127521894Y-118618774D01*
X127432294Y-118650319D01*
X127211954Y-118724626D01*
X126955859Y-118808138D01*
X126674691Y-118896981D01*
X126411462Y-118977953D01*
X126209180Y-119037855D01*
X126134676Y-119059436D01*
X126070231Y-119079026D01*
X126014354Y-119097176D01*
X125965558Y-119114434D01*
X125943349Y-119122900D01*
X125922351Y-119131349D01*
X125902379Y-119139849D01*
X125883246Y-119148469D01*
X125864767Y-119157279D01*
X125846755Y-119166345D01*
X125811384Y-119185525D01*
X125780547Y-119203257D01*
X125768319Y-119210498D01*
X125758118Y-119216950D01*
X125753755Y-119219950D01*
X125749873Y-119222834D01*
X125746461Y-119225631D01*
X125743510Y-119228369D01*
X125741012Y-119231075D01*
X125738957Y-119233776D01*
X125737335Y-119236501D01*
X125736137Y-119239275D01*
X125735356Y-119242128D01*
X125734980Y-119245087D01*
X117911297Y-119245087D01*
X117902653Y-119242597D01*
X117843912Y-119226429D01*
X117794649Y-119213752D01*
X117755128Y-119204645D01*
X117739102Y-119201458D01*
X117725608Y-119199194D01*
X117714265Y-119197590D01*
X117703300Y-119196331D01*
X117692711Y-119195420D01*
X117682493Y-119194861D01*
X117672641Y-119194657D01*
X117663150Y-119194813D01*
X117654016Y-119195331D01*
X117645235Y-119196215D01*
X117636803Y-119197470D01*
X117628713Y-119199097D01*
X117620963Y-119201102D01*
X117613547Y-119203486D01*
X117606462Y-119206256D01*
X117599701Y-119209413D01*
X117593261Y-119212961D01*
X117587138Y-119216904D01*
X117581327Y-119221247D01*
X117575823Y-119225992D01*
X117570622Y-119231141D01*
X117565719Y-119236701D01*
X117561110Y-119242674D01*
X117556791Y-119249063D01*
X117552757Y-119255872D01*
X117549002Y-119263106D01*
X117545523Y-119270767D01*
X117542316Y-119278858D01*
X117539375Y-119287384D01*
X117536696Y-119296349D01*
X117534276Y-119305756D01*
X117532108Y-119315608D01*
X117530189Y-119325909D01*
X117528514Y-119336662D01*
X117527600Y-119348217D01*
X117320506Y-119348217D01*
X117317176Y-119334472D01*
X117308284Y-119300872D01*
X117298973Y-119268661D01*
X117289213Y-119237729D01*
X117278973Y-119207965D01*
X117268225Y-119179261D01*
X117256936Y-119151506D01*
X117245079Y-119124590D01*
X117232623Y-119098405D01*
X117230763Y-119094620D01*
X117228854Y-119090953D01*
X117226907Y-119087422D01*
X117224937Y-119084048D01*
X117222956Y-119080852D01*
X117220980Y-119077850D01*
X117219019Y-119075066D01*
X117217090Y-119072516D01*
X117215203Y-119070221D01*
X117213374Y-119068201D01*
X117212485Y-119067299D01*
X117211615Y-119066474D01*
X117210766Y-119065727D01*
X117209940Y-119065061D01*
X117209138Y-119064479D01*
X117208363Y-119063982D01*
X117207614Y-119063573D01*
X117206896Y-119063256D01*
X117206208Y-119063031D01*
X117205553Y-119062901D01*
X117204932Y-119062871D01*
X117204347Y-119062940D01*
X117200354Y-119064625D01*
X117194891Y-119067880D01*
X117188127Y-119072553D01*
X117180236Y-119078489D01*
X117161752Y-119093549D01*
X117140805Y-119111835D01*
X117118764Y-119132130D01*
X117096994Y-119153213D01*
X117076866Y-119173861D01*
X117067845Y-119183643D01*
X117059747Y-119192857D01*
X117039183Y-119217810D01*
X117019106Y-119244093D01*
X116999376Y-119271985D01*
X116979855Y-119301764D01*
X116960403Y-119333711D01*
X116940881Y-119368104D01*
X116921152Y-119405222D01*
X116901077Y-119445346D01*
X116859330Y-119535721D01*
X116814532Y-119641464D01*
X116765571Y-119764808D01*
X116711337Y-119907984D01*
X116674984Y-120004397D01*
X116636706Y-120102487D01*
X116600904Y-120190752D01*
X116585306Y-120227606D01*
X116571979Y-120257691D01*
X116553313Y-120300010D01*
X116536690Y-120339000D01*
X116522054Y-120374968D01*
X116509345Y-120408224D01*
X116498509Y-120439073D01*
X116489486Y-120467826D01*
X116482220Y-120494790D01*
X116476653Y-120520271D01*
X116472729Y-120544580D01*
X116470389Y-120568024D01*
X116469577Y-120590910D01*
X115432520Y-120590910D01*
X115307734Y-120373714D01*
X115295667Y-120351439D01*
X115142908Y-120069446D01*
X114997000Y-119780704D01*
X114931090Y-119642064D01*
X114901034Y-119575872D01*
X114869851Y-119507195D01*
X114813262Y-119376061D01*
X114761802Y-119249847D01*
X115741891Y-119249847D01*
X115742026Y-119276187D01*
X115743591Y-119303654D01*
X115746579Y-119332364D01*
X115750981Y-119362433D01*
X115756789Y-119393976D01*
X115763994Y-119427107D01*
X115772586Y-119461943D01*
X115784068Y-119503738D01*
X115797858Y-119549089D01*
X115812997Y-119595315D01*
X115828523Y-119639737D01*
X115843477Y-119679674D01*
X115856897Y-119712446D01*
X115862731Y-119725307D01*
X115867822Y-119735371D01*
X115872050Y-119742304D01*
X115873802Y-119744491D01*
X115875294Y-119745770D01*
X115876433Y-119746361D01*
X115877847Y-119746705D01*
X115879519Y-119746809D01*
X115881436Y-119746685D01*
X115885944Y-119745787D01*
X115891249Y-119744084D01*
X115897233Y-119741649D01*
X115903779Y-119738558D01*
X115910766Y-119734885D01*
X115918075Y-119730703D01*
X115925587Y-119726087D01*
X115933185Y-119721111D01*
X115940748Y-119715849D01*
X115948157Y-119710375D01*
X115955295Y-119704765D01*
X115962041Y-119699090D01*
X115968276Y-119693426D01*
X115973884Y-119687847D01*
X115980807Y-119679505D01*
X115987531Y-119669717D01*
X115994021Y-119658604D01*
X116000243Y-119646291D01*
X116006163Y-119632901D01*
X116011743Y-119618558D01*
X116016954Y-119603385D01*
X116021757Y-119587506D01*
X116026120Y-119571045D01*
X116030007Y-119554124D01*
X116033385Y-119536869D01*
X116036218Y-119519401D01*
X116038473Y-119501845D01*
X116040114Y-119484325D01*
X116041108Y-119466963D01*
X116041418Y-119449883D01*
X116040141Y-119410702D01*
X116037231Y-119367611D01*
X116032724Y-119320991D01*
X116026661Y-119271225D01*
X116019082Y-119218697D01*
X116010024Y-119163788D01*
X115999527Y-119106883D01*
X115987630Y-119048362D01*
X115981316Y-119019418D01*
X115975136Y-118992495D01*
X115969254Y-118968171D01*
X115963837Y-118947024D01*
X115959048Y-118929633D01*
X115955054Y-118916573D01*
X115953405Y-118911848D01*
X115952018Y-118908424D01*
X115950911Y-118906371D01*
X115950470Y-118905881D01*
X115950107Y-118905762D01*
X115947586Y-118906486D01*
X115944729Y-118907645D01*
X115938090Y-118911190D01*
X115930356Y-118916236D01*
X115921696Y-118922620D01*
X115912276Y-118930181D01*
X115902265Y-118938754D01*
X115891830Y-118948178D01*
X115881138Y-118958291D01*
X115870358Y-118968930D01*
X115859655Y-118979933D01*
X115849200Y-118991136D01*
X115839158Y-119002379D01*
X115829697Y-119013498D01*
X115820985Y-119024331D01*
X115813190Y-119034716D01*
X115806478Y-119044489D01*
X115793351Y-119065873D01*
X115781732Y-119087347D01*
X115771611Y-119109025D01*
X115762981Y-119131023D01*
X115755834Y-119153455D01*
X115750160Y-119176440D01*
X115745950Y-119200089D01*
X115743197Y-119224520D01*
X115741891Y-119249847D01*
X114761802Y-119249847D01*
X114761303Y-119248624D01*
X114713956Y-119124849D01*
X114671200Y-119004698D01*
X114633015Y-118888134D01*
X114599384Y-118775122D01*
X114570284Y-118665623D01*
X114545696Y-118559601D01*
X114520737Y-118432362D01*
X114500797Y-118306412D01*
X114499805Y-118297936D01*
X114485557Y-118176231D01*
X114474700Y-118036295D01*
X114467908Y-117881083D01*
X114464862Y-117705073D01*
X114464948Y-117659445D01*
X115167479Y-117659445D01*
X115168815Y-117692671D01*
X115171424Y-117734471D01*
X115175134Y-117782250D01*
X115179774Y-117833413D01*
X115185175Y-117885365D01*
X115191164Y-117935513D01*
X115200540Y-117997581D01*
X115213419Y-118067790D01*
X115229040Y-118142933D01*
X115246632Y-118219801D01*
X115265432Y-118295188D01*
X115284670Y-118365884D01*
X115303584Y-118428682D01*
X115321405Y-118480376D01*
X115328972Y-118499597D01*
X115337801Y-118521128D01*
X115357987Y-118568175D01*
X115379442Y-118615628D01*
X115389859Y-118637667D01*
X115399649Y-118657599D01*
X115408706Y-118675350D01*
X115418608Y-118693862D01*
X115429178Y-118712870D01*
X115440239Y-118732106D01*
X115463124Y-118770187D01*
X115485847Y-118805968D01*
X115506994Y-118837309D01*
X115516533Y-118850645D01*
X115525146Y-118862069D01*
X115532656Y-118871313D01*
X115538887Y-118878109D01*
X115543661Y-118882191D01*
X115545447Y-118883129D01*
X115546802Y-118883290D01*
X115548747Y-118882601D01*
X115551166Y-118881278D01*
X115557305Y-118876863D01*
X115564988Y-118870307D01*
X115573977Y-118861875D01*
X115584040Y-118851831D01*
X115594941Y-118840440D01*
X115618322Y-118814664D01*
X115639657Y-118789691D01*
X116189371Y-118789691D01*
X116189452Y-118804283D01*
X116190905Y-118836848D01*
X116194090Y-118874823D01*
X116199015Y-118919297D01*
X116205691Y-118971356D01*
X116218295Y-119071154D01*
X116223020Y-119117384D01*
X116227141Y-119167187D01*
X116234918Y-119295569D01*
X116244313Y-119492413D01*
X116249617Y-119603330D01*
X116255463Y-119710834D01*
X116261185Y-119802642D01*
X116266116Y-119866471D01*
X116271309Y-119919441D01*
X116277229Y-119972109D01*
X116283547Y-120022368D01*
X116289929Y-120068111D01*
X116296046Y-120107235D01*
X116301564Y-120137629D01*
X116303995Y-120148896D01*
X116306153Y-120157191D01*
X116307995Y-120162251D01*
X116308786Y-120163486D01*
X116309482Y-120163813D01*
X116312991Y-120162590D01*
X116317327Y-120160270D01*
X116322425Y-120156920D01*
X116328217Y-120152603D01*
X116334637Y-120147388D01*
X116341618Y-120141339D01*
X116356997Y-120127002D01*
X116373820Y-120110118D01*
X116391555Y-120091213D01*
X116409670Y-120070810D01*
X116427630Y-120049437D01*
X116442983Y-120030115D01*
X116458207Y-120009734D01*
X116473377Y-119988161D01*
X116488564Y-119965268D01*
X116519272Y-119915002D01*
X116550904Y-119857895D01*
X116584031Y-119792903D01*
X116619222Y-119718988D01*
X116657050Y-119635108D01*
X116698086Y-119540224D01*
X116753020Y-119412122D01*
X116804937Y-119292100D01*
X116819384Y-119259065D01*
X116832303Y-119228218D01*
X116843720Y-119199430D01*
X116853664Y-119172574D01*
X116862163Y-119147520D01*
X116869245Y-119124139D01*
X116874939Y-119102303D01*
X116879272Y-119081883D01*
X116882273Y-119062750D01*
X116883968Y-119044774D01*
X116884388Y-119027829D01*
X116884129Y-119019702D01*
X116883560Y-119011783D01*
X116882687Y-119004059D01*
X116881512Y-118996510D01*
X116880039Y-118989123D01*
X116878271Y-118981880D01*
X116873866Y-118967765D01*
X116868326Y-118954033D01*
X116862709Y-118942784D01*
X116856016Y-118931246D01*
X116839600Y-118907455D01*
X116819475Y-118882938D01*
X116796036Y-118857975D01*
X116769677Y-118832847D01*
X116740791Y-118807830D01*
X116709777Y-118783206D01*
X116677026Y-118759253D01*
X116642935Y-118736251D01*
X116607897Y-118714478D01*
X116572309Y-118694215D01*
X116536566Y-118675740D01*
X116501060Y-118659333D01*
X116466189Y-118645273D01*
X116432346Y-118633840D01*
X116399926Y-118625312D01*
X116389595Y-118623123D01*
X116379542Y-118621235D01*
X116369767Y-118619647D01*
X116360268Y-118618360D01*
X116351043Y-118617374D01*
X116342092Y-118616690D01*
X116333413Y-118616309D01*
X116325004Y-118616231D01*
X116316865Y-118616456D01*
X116308994Y-118616985D01*
X116301389Y-118617818D01*
X116294050Y-118618956D01*
X116286973Y-118620399D01*
X116280159Y-118622148D01*
X116273606Y-118624202D01*
X116267312Y-118626563D01*
X116261276Y-118629233D01*
X116255497Y-118632208D01*
X116249974Y-118635492D01*
X116244704Y-118639084D01*
X116239687Y-118642986D01*
X116234921Y-118647196D01*
X116230405Y-118651716D01*
X116226137Y-118656546D01*
X116222116Y-118661688D01*
X116218341Y-118667141D01*
X116214811Y-118672905D01*
X116211522Y-118678980D01*
X116208476Y-118685369D01*
X116205669Y-118692071D01*
X116203100Y-118699087D01*
X116200770Y-118706415D01*
X116197867Y-118717241D01*
X116195388Y-118728197D01*
X116193332Y-118739420D01*
X116191702Y-118751045D01*
X116190497Y-118763207D01*
X116189720Y-118776044D01*
X116189371Y-118789691D01*
X115639657Y-118789691D01*
X115642245Y-118786662D01*
X115664831Y-118758541D01*
X115675038Y-118745096D01*
X115684207Y-118732414D01*
X115692104Y-118720756D01*
X115698495Y-118710389D01*
X115705955Y-118696874D01*
X115713186Y-118682288D01*
X115720149Y-118666766D01*
X115726806Y-118650442D01*
X115733121Y-118633451D01*
X115739056Y-118615929D01*
X115744574Y-118598008D01*
X115749637Y-118579825D01*
X115754208Y-118561514D01*
X115758250Y-118543210D01*
X115761725Y-118525049D01*
X115764594Y-118507162D01*
X115766823Y-118489688D01*
X115768373Y-118472759D01*
X115769206Y-118456510D01*
X115769285Y-118441078D01*
X115768366Y-118423873D01*
X115766558Y-118405325D01*
X115763912Y-118385628D01*
X115760476Y-118364972D01*
X115756302Y-118343548D01*
X115751439Y-118321548D01*
X115745936Y-118299163D01*
X115739844Y-118276586D01*
X115733213Y-118254007D01*
X115726093Y-118231618D01*
X115718533Y-118209609D01*
X115710584Y-118188175D01*
X115702295Y-118167504D01*
X115693718Y-118147789D01*
X115684900Y-118129220D01*
X115675893Y-118111992D01*
X115656913Y-118078647D01*
X115636210Y-118045399D01*
X115613907Y-118012375D01*
X115590125Y-117979703D01*
X115564987Y-117947509D01*
X115538614Y-117915921D01*
X115511130Y-117885066D01*
X115482654Y-117855071D01*
X115453312Y-117826064D01*
X115423223Y-117798171D01*
X115392512Y-117771520D01*
X115361299Y-117746239D01*
X115329706Y-117722454D01*
X115297855Y-117700292D01*
X115265871Y-117679882D01*
X115233874Y-117661350D01*
X115221805Y-117654691D01*
X115210337Y-117648517D01*
X115199741Y-117642961D01*
X115190285Y-117638156D01*
X115182244Y-117634233D01*
X115178838Y-117632644D01*
X115175886Y-117631326D01*
X115173424Y-117630296D01*
X115171485Y-117629568D01*
X115170103Y-117629160D01*
X115169631Y-117629082D01*
X115169311Y-117629090D01*
X115168236Y-117631355D01*
X115167588Y-117637386D01*
X115167479Y-117659445D01*
X114464948Y-117659445D01*
X114465245Y-117502742D01*
X114468740Y-117268569D01*
X114473766Y-116992766D01*
X114475222Y-116899251D01*
X114476004Y-116828712D01*
X114476135Y-116776190D01*
X114475640Y-116736722D01*
X114474540Y-116705351D01*
X114472860Y-116677115D01*
X114468588Y-116629781D01*
X114462447Y-116579611D01*
X114454413Y-116526505D01*
X114444466Y-116470361D01*
X114432583Y-116411078D01*
X114418745Y-116348555D01*
X114402927Y-116282691D01*
X114385110Y-116213385D01*
X114356488Y-116095492D01*
X114320696Y-115933139D01*
X114276555Y-115721167D01*
X114222885Y-115454417D01*
X114144834Y-115051487D01*
X114115994Y-114896578D01*
X114093217Y-114768550D01*
X114075956Y-114664286D01*
X114063664Y-114580668D01*
X114055795Y-114514579D01*
X114051805Y-114462903D01*
X114050734Y-114429937D01*
X114050457Y-114397382D01*
X114050969Y-114365269D01*
X114052264Y-114333630D01*
X114054338Y-114302497D01*
X114057185Y-114271901D01*
X114060800Y-114241873D01*
X114065177Y-114212446D01*
X114070313Y-114183649D01*
X114076201Y-114155516D01*
X114082836Y-114128077D01*
X114090213Y-114101363D01*
X114098327Y-114075408D01*
X114107173Y-114050241D01*
X114116745Y-114025894D01*
X114127038Y-114002399D01*
X114130074Y-113996074D01*
X114133096Y-113989908D01*
X114136085Y-113983933D01*
X114139022Y-113978183D01*
X114141887Y-113972693D01*
X114144661Y-113967494D01*
X114147323Y-113962618D01*
X114149857Y-113958102D01*
X114152240Y-113953976D01*
X114154455Y-113950274D01*
X114156481Y-113947030D01*
X114158301Y-113944275D01*
X114159893Y-113942046D01*
X114161239Y-113940372D01*
X114161815Y-113939755D01*
X114162321Y-113939288D01*
X114162755Y-113938978D01*
X114163116Y-113938829D01*
X114164599Y-113938704D01*
X114166291Y-113938906D01*
X114170251Y-113940242D01*
X114174906Y-113942741D01*
X114180161Y-113946307D01*
X114185923Y-113950843D01*
X114192099Y-113956252D01*
X114198596Y-113962437D01*
X114205322Y-113969304D01*
X114212182Y-113976755D01*
X114219083Y-113984694D01*
X114225934Y-113993024D01*
X114232639Y-114001649D01*
X114239107Y-114010472D01*
X114245243Y-114019397D01*
X114250956Y-114028329D01*
X114256151Y-114037169D01*
X114263488Y-114051018D01*
X114270284Y-114065550D01*
X114276584Y-114081027D01*
X114282432Y-114097713D01*
X114287874Y-114115869D01*
X114292956Y-114135758D01*
X114302218Y-114181784D01*
X114310580Y-114237892D01*
X114318403Y-114306182D01*
X114326050Y-114388751D01*
X114333882Y-114487701D01*
X114343121Y-114616092D01*
X114351091Y-114719119D01*
X114358432Y-114802288D01*
X114365787Y-114871107D01*
X114373797Y-114931079D01*
X114383105Y-114987711D01*
X114394352Y-115046509D01*
X114408181Y-115112979D01*
X114419561Y-115164194D01*
X114429917Y-115208611D01*
X114439826Y-115248135D01*
X114449861Y-115284674D01*
X114460597Y-115320135D01*
X114472607Y-115356424D01*
X114486466Y-115395446D01*
X114502749Y-115439111D01*
X114565915Y-115598889D01*
X114634935Y-115756975D01*
X114709535Y-115913005D01*
X114789450Y-116066607D01*
X114874408Y-116217415D01*
X114964138Y-116365061D01*
X115058372Y-116509177D01*
X115156841Y-116649394D01*
X115259273Y-116785346D01*
X115365400Y-116916664D01*
X115474953Y-117042980D01*
X115587659Y-117163926D01*
X115703251Y-117279134D01*
X115821459Y-117388236D01*
X115942013Y-117490864D01*
X116064643Y-117586651D01*
X116131709Y-117635315D01*
X116199479Y-117682056D01*
X116268392Y-117727080D01*
X116338888Y-117770592D01*
X116411403Y-117812797D01*
X116486379Y-117853902D01*
X116564250Y-117894112D01*
X116645459Y-117933629D01*
X116730443Y-117972662D01*
X116819639Y-118011415D01*
X117012425Y-118088901D01*
X117227327Y-118167730D01*
X117467852Y-118249546D01*
X117871089Y-118375565D01*
X118266523Y-118485214D01*
X118659687Y-118579498D01*
X119056104Y-118659419D01*
X119461304Y-118725975D01*
X119880813Y-118780171D01*
X120320161Y-118823007D01*
X120784875Y-118855487D01*
X121216909Y-118876797D01*
X121621629Y-118888615D01*
X122003295Y-118890792D01*
X122366167Y-118883187D01*
X122714501Y-118865655D01*
X123052559Y-118838050D01*
X123384599Y-118800227D01*
X123714881Y-118752044D01*
X123893770Y-118721288D01*
X124084771Y-118685580D01*
X124499465Y-118600040D01*
X124951666Y-118496891D01*
X125434078Y-118377600D01*
X126149527Y-118192504D01*
X126294331Y-118154469D01*
X128808402Y-118154469D01*
X128809698Y-118158362D01*
X128812096Y-118163204D01*
X128815533Y-118168917D01*
X128819944Y-118175430D01*
X128825266Y-118182669D01*
X128831432Y-118190559D01*
X128846042Y-118208006D01*
X128863261Y-118227179D01*
X128882570Y-118247493D01*
X128903456Y-118268360D01*
X128925401Y-118289191D01*
X128942604Y-118304484D01*
X128961437Y-118320153D01*
X128981933Y-118336215D01*
X129004126Y-118352690D01*
X129053733Y-118386949D01*
X129110519Y-118423073D01*
X129174749Y-118461207D01*
X129246684Y-118501496D01*
X129326590Y-118544085D01*
X129414730Y-118589119D01*
X129552345Y-118658875D01*
X129688742Y-118730211D01*
X129828017Y-118805436D01*
X129974262Y-118886861D01*
X130131571Y-118976796D01*
X130304040Y-119077553D01*
X130710830Y-119320766D01*
X131170266Y-119594588D01*
X131218585Y-119623427D01*
X131271211Y-119655576D01*
X131326446Y-119689960D01*
X131382593Y-119725503D01*
X131437954Y-119761128D01*
X131490833Y-119795760D01*
X131539531Y-119828322D01*
X131582352Y-119857738D01*
X131622406Y-119885490D01*
X131663176Y-119913281D01*
X131703520Y-119940359D01*
X131742296Y-119965975D01*
X131778361Y-119989377D01*
X131810574Y-120009816D01*
X131837791Y-120026540D01*
X131858871Y-120038800D01*
X131886208Y-120053644D01*
X131913599Y-120067777D01*
X131940807Y-120081117D01*
X131967598Y-120093582D01*
X131993738Y-120105093D01*
X132018990Y-120115568D01*
X132043120Y-120124925D01*
X132065892Y-120133086D01*
X132087072Y-120139969D01*
X132106426Y-120145492D01*
X132123716Y-120149576D01*
X132138707Y-120152139D01*
X132145268Y-120152825D01*
X132151166Y-120153101D01*
X132156372Y-120152956D01*
X132160857Y-120152381D01*
X132164592Y-120151366D01*
X132167545Y-120149898D01*
X132169690Y-120147970D01*
X132170995Y-120145572D01*
X132172851Y-120130393D01*
X132171732Y-120104313D01*
X132161526Y-120024003D01*
X132142291Y-119913745D01*
X132115942Y-119782640D01*
X132084392Y-119639792D01*
X132049555Y-119494304D01*
X132013344Y-119355278D01*
X131977673Y-119231819D01*
X131808377Y-118692046D01*
X131627907Y-118141460D01*
X131442436Y-117598363D01*
X131258135Y-117081052D01*
X131216147Y-116966761D01*
X131181760Y-116872325D01*
X131158366Y-116807336D01*
X131152271Y-116789781D01*
X131149355Y-116781384D01*
X131149234Y-116781074D01*
X131149011Y-116780793D01*
X131148268Y-116780311D01*
X131147146Y-116779938D01*
X131145667Y-116779674D01*
X131143852Y-116779519D01*
X131141722Y-116779472D01*
X131139297Y-116779533D01*
X131136600Y-116779700D01*
X131130470Y-116780353D01*
X131123499Y-116781428D01*
X131115856Y-116782920D01*
X131107710Y-116784826D01*
X131089335Y-116789572D01*
X131070245Y-116795494D01*
X131050355Y-116802644D01*
X131029576Y-116811070D01*
X131007822Y-116820824D01*
X130985006Y-116831955D01*
X130935838Y-116858552D01*
X130881376Y-116891260D01*
X130820923Y-116930483D01*
X130753784Y-116976621D01*
X130679261Y-117030078D01*
X130569798Y-117108697D01*
X130446854Y-117192296D01*
X130294167Y-117291853D01*
X130095473Y-117418349D01*
X130006508Y-117474015D01*
X129925016Y-117523782D01*
X129848296Y-117569153D01*
X129773645Y-117611633D01*
X129698361Y-117652727D01*
X129619741Y-117693937D01*
X129535084Y-117736769D01*
X129441688Y-117782726D01*
X129312142Y-117847041D01*
X129191824Y-117909279D01*
X129083316Y-117967927D01*
X129034299Y-117995435D01*
X128989203Y-118021478D01*
X128948354Y-118045868D01*
X128912072Y-118068417D01*
X128880682Y-118088937D01*
X128854504Y-118107236D01*
X128833865Y-118123129D01*
X128819087Y-118136424D01*
X128813996Y-118142038D01*
X128810491Y-118146934D01*
X128808613Y-118151085D01*
X128808402Y-118154469D01*
X126294331Y-118154469D01*
X126660093Y-118058396D01*
X127164040Y-117917971D01*
X127633584Y-117777398D01*
X128071962Y-117635462D01*
X128482416Y-117490945D01*
X128868183Y-117342631D01*
X129232502Y-117189303D01*
X129578611Y-117029744D01*
X129909751Y-116862737D01*
X130054980Y-116784179D01*
X130173455Y-116716664D01*
X131496259Y-116716664D01*
X131516245Y-116810695D01*
X131535080Y-116893075D01*
X131558765Y-116985550D01*
X131587582Y-117089045D01*
X131621811Y-117204480D01*
X131707628Y-117474864D01*
X131818464Y-117804089D01*
X131846500Y-117886255D01*
X131869194Y-117954278D01*
X131887600Y-118011759D01*
X131902764Y-118062301D01*
X131915741Y-118109502D01*
X131927579Y-118156968D01*
X131939329Y-118208298D01*
X131952043Y-118267094D01*
X131982014Y-118395633D01*
X132030192Y-118576429D01*
X132107831Y-118849693D01*
X132226181Y-119255637D01*
X132392139Y-119820069D01*
X132443639Y-119992369D01*
X132458182Y-120039507D01*
X132463979Y-120056247D01*
X132465040Y-120056525D01*
X132466636Y-120056354D01*
X132471336Y-120054734D01*
X132477875Y-120051532D01*
X132486053Y-120046892D01*
X132506518Y-120033876D01*
X132531117Y-120016843D01*
X132558235Y-119996950D01*
X132586258Y-119975354D01*
X132613575Y-119953211D01*
X132638568Y-119931677D01*
X132672771Y-119899686D01*
X132706156Y-119866075D01*
X132738749Y-119830799D01*
X132770575Y-119793814D01*
X132801658Y-119755074D01*
X132832023Y-119714535D01*
X132861695Y-119672151D01*
X132890698Y-119627878D01*
X132919057Y-119581670D01*
X132946798Y-119533485D01*
X132973945Y-119483274D01*
X133000523Y-119430995D01*
X133026556Y-119376602D01*
X133052070Y-119320050D01*
X133077089Y-119261296D01*
X133101638Y-119200291D01*
X133127298Y-119133913D01*
X133150880Y-119070132D01*
X133173286Y-119006093D01*
X133195422Y-118938942D01*
X133218191Y-118865823D01*
X133242498Y-118783883D01*
X133299343Y-118582116D01*
X133353053Y-118388340D01*
X133390867Y-118253397D01*
X133396662Y-118233172D01*
X133402475Y-118211242D01*
X133408159Y-118188305D01*
X133413564Y-118165056D01*
X133418546Y-118142195D01*
X133422954Y-118120415D01*
X133426641Y-118100417D01*
X133429460Y-118082896D01*
X133432756Y-118059684D01*
X133435032Y-118039575D01*
X133435766Y-118030320D01*
X133436220Y-118021407D01*
X133436385Y-118012690D01*
X133436253Y-118004024D01*
X133435816Y-117995264D01*
X133435065Y-117986266D01*
X133433993Y-117976885D01*
X133432590Y-117966976D01*
X133430850Y-117956392D01*
X133428761Y-117944992D01*
X133423512Y-117919159D01*
X133418054Y-117892828D01*
X133415555Y-117881606D01*
X133413142Y-117871505D01*
X133410766Y-117862395D01*
X133408377Y-117854145D01*
X133405922Y-117846624D01*
X133403353Y-117839703D01*
X133400620Y-117833251D01*
X133397672Y-117827135D01*
X133394459Y-117821226D01*
X133390931Y-117815393D01*
X133387037Y-117809507D01*
X133382728Y-117803435D01*
X133377952Y-117797047D01*
X133372661Y-117790213D01*
X133363538Y-117779094D01*
X133353719Y-117768003D01*
X133343150Y-117756898D01*
X133331775Y-117745735D01*
X133319538Y-117734469D01*
X133306384Y-117723057D01*
X133292257Y-117711456D01*
X133277103Y-117699621D01*
X133260864Y-117687511D01*
X133243485Y-117675079D01*
X133224913Y-117662283D01*
X133205090Y-117649080D01*
X133161471Y-117621274D01*
X133112184Y-117591314D01*
X133047317Y-117550988D01*
X132958297Y-117494074D01*
X132856877Y-117428129D01*
X132754807Y-117360717D01*
X132642665Y-117286092D01*
X132540497Y-117219417D01*
X132445969Y-117159254D01*
X132356745Y-117104166D01*
X132270493Y-117052715D01*
X132184879Y-117003465D01*
X132097565Y-116954975D01*
X132006220Y-116905812D01*
X131922759Y-116862011D01*
X131851920Y-116825650D01*
X131792169Y-116796018D01*
X131765973Y-116783505D01*
X131741972Y-116772408D01*
X131719975Y-116762639D01*
X131699792Y-116754110D01*
X131681230Y-116746730D01*
X131664096Y-116740413D01*
X131648200Y-116735069D01*
X131633348Y-116730610D01*
X131619350Y-116726947D01*
X131606013Y-116723991D01*
X131595450Y-116722155D01*
X131584397Y-116720456D01*
X131573193Y-116718937D01*
X131562175Y-116717643D01*
X131551677Y-116716617D01*
X131542040Y-116715907D01*
X131533598Y-116715554D01*
X131529931Y-116715527D01*
X131526689Y-116715605D01*
X131496259Y-116716664D01*
X130173455Y-116716664D01*
X130199092Y-116702054D01*
X130228736Y-116684280D01*
X130343481Y-116615476D01*
X130489546Y-116523553D01*
X130638682Y-116425399D01*
X130733580Y-116360359D01*
X131613473Y-116360359D01*
X131613790Y-116370066D01*
X131614840Y-116379688D01*
X131616576Y-116389285D01*
X131618955Y-116398915D01*
X131621934Y-116408637D01*
X131628810Y-116426734D01*
X131637080Y-116444009D01*
X131647168Y-116460754D01*
X131659500Y-116477263D01*
X131674501Y-116493829D01*
X131692597Y-116510743D01*
X131714212Y-116528298D01*
X131739774Y-116546788D01*
X131769706Y-116566503D01*
X131804434Y-116587737D01*
X131844385Y-116610783D01*
X131889983Y-116635933D01*
X131999821Y-116693718D01*
X132137352Y-116763430D01*
X132292622Y-116841745D01*
X132418989Y-116906718D01*
X132522783Y-116962036D01*
X132568195Y-116987225D01*
X132610337Y-117011380D01*
X132650001Y-117034965D01*
X132687978Y-117058437D01*
X132725060Y-117082257D01*
X132762039Y-117106887D01*
X132838848Y-117160418D01*
X132924735Y-117222712D01*
X133012447Y-117286272D01*
X133052347Y-117314345D01*
X133089880Y-117340101D01*
X133125248Y-117363652D01*
X133158655Y-117385117D01*
X133190305Y-117404610D01*
X133220398Y-117422245D01*
X133249139Y-117438141D01*
X133276729Y-117452410D01*
X133303372Y-117465169D01*
X133329272Y-117476533D01*
X133354630Y-117486617D01*
X133379650Y-117495537D01*
X133404533Y-117503408D01*
X133429484Y-117510345D01*
X133479295Y-117524101D01*
X133503486Y-117421582D01*
X133523439Y-117337088D01*
X133531578Y-117299697D01*
X133538521Y-117265081D01*
X133544291Y-117232891D01*
X133548905Y-117202781D01*
X133552388Y-117174401D01*
X133554758Y-117147403D01*
X133556039Y-117121439D01*
X133556251Y-117096164D01*
X133555415Y-117071227D01*
X133553551Y-117046280D01*
X133550682Y-117020978D01*
X133546829Y-116994969D01*
X133542012Y-116967910D01*
X133536253Y-116939449D01*
X133518639Y-116865551D01*
X133508393Y-116829934D01*
X133496743Y-116794327D01*
X133483353Y-116758071D01*
X133467891Y-116720504D01*
X133450022Y-116680969D01*
X133429409Y-116638806D01*
X133378623Y-116543959D01*
X133312858Y-116430687D01*
X133229439Y-116293717D01*
X133125692Y-116127773D01*
X133103081Y-116091021D01*
X133078729Y-116050254D01*
X133027757Y-115961837D01*
X132978692Y-115872845D01*
X132956723Y-115831360D01*
X132937448Y-115793602D01*
X132912990Y-115745057D01*
X132889743Y-115700245D01*
X132881606Y-115685095D01*
X132867607Y-115659034D01*
X132849689Y-115627021D01*
X133062593Y-115627021D01*
X133064949Y-115646125D01*
X133069705Y-115666863D01*
X133076907Y-115689348D01*
X133086597Y-115713692D01*
X133098816Y-115740009D01*
X133113607Y-115768409D01*
X133131013Y-115799007D01*
X133151076Y-115831913D01*
X133173838Y-115867241D01*
X133199341Y-115905104D01*
X133227629Y-115945613D01*
X133259363Y-115991839D01*
X133298894Y-116051286D01*
X133341116Y-116116246D01*
X133380930Y-116179014D01*
X133417081Y-116236417D01*
X133449387Y-116286862D01*
X133474344Y-116325006D01*
X133482973Y-116337795D01*
X133488450Y-116345507D01*
X133507572Y-116367590D01*
X133528888Y-116327895D01*
X133534563Y-116316473D01*
X133540209Y-116303656D01*
X133545785Y-116289594D01*
X133551253Y-116274437D01*
X133556572Y-116258334D01*
X133561704Y-116241434D01*
X133571246Y-116205847D01*
X133579564Y-116168870D01*
X133583164Y-116150236D01*
X133586340Y-116131704D01*
X133589051Y-116113424D01*
X133591260Y-116095545D01*
X133592924Y-116078218D01*
X133594006Y-116061591D01*
X133594497Y-116042630D01*
X133594323Y-116022584D01*
X133593467Y-116001415D01*
X133591909Y-115979085D01*
X133589633Y-115955556D01*
X133586616Y-115930789D01*
X133582843Y-115904746D01*
X133578294Y-115877389D01*
X133571782Y-115842021D01*
X133564750Y-115809239D01*
X133557114Y-115778913D01*
X133553044Y-115764634D01*
X133548793Y-115750920D01*
X133544349Y-115737757D01*
X133539704Y-115725128D01*
X133534845Y-115713018D01*
X133529764Y-115701411D01*
X133524449Y-115690291D01*
X133518890Y-115679642D01*
X133513078Y-115669448D01*
X133507001Y-115659692D01*
X133500650Y-115650359D01*
X133494013Y-115641434D01*
X133487082Y-115632898D01*
X133479845Y-115624739D01*
X133472292Y-115616937D01*
X133464412Y-115609480D01*
X133456196Y-115602349D01*
X133447633Y-115595529D01*
X133438712Y-115589006D01*
X133429424Y-115582761D01*
X133419758Y-115576779D01*
X133409704Y-115571044D01*
X133399252Y-115565541D01*
X133388391Y-115560254D01*
X133377110Y-115555165D01*
X133365400Y-115550260D01*
X133349645Y-115544356D01*
X133332967Y-115538586D01*
X133315888Y-115533112D01*
X133298927Y-115528099D01*
X133282606Y-115523709D01*
X133267447Y-115520109D01*
X133260464Y-115518657D01*
X133253968Y-115517463D01*
X133248023Y-115516548D01*
X133242692Y-115515933D01*
X133230084Y-115514829D01*
X133217568Y-115514252D01*
X133205201Y-115514183D01*
X133193045Y-115514609D01*
X133181160Y-115515510D01*
X133169604Y-115516870D01*
X133158438Y-115518674D01*
X133147722Y-115520904D01*
X133137517Y-115523542D01*
X133127880Y-115526574D01*
X133118872Y-115529981D01*
X133110555Y-115533749D01*
X133102986Y-115537858D01*
X133096226Y-115542294D01*
X133093168Y-115544629D01*
X133090335Y-115547039D01*
X133087734Y-115549522D01*
X133085372Y-115552076D01*
X133076351Y-115564697D01*
X133069519Y-115578389D01*
X133064922Y-115593265D01*
X133062599Y-115609438D01*
X133062593Y-115627021D01*
X132849689Y-115627021D01*
X132846484Y-115621295D01*
X132826278Y-115586895D01*
X132806890Y-115555704D01*
X132788222Y-115527590D01*
X132770176Y-115502423D01*
X132761356Y-115490903D01*
X132752655Y-115480070D01*
X132744060Y-115469909D01*
X132735560Y-115460403D01*
X132727141Y-115451534D01*
X132718793Y-115443289D01*
X132710502Y-115435648D01*
X132702258Y-115428596D01*
X132694046Y-115422118D01*
X132685855Y-115416195D01*
X132677674Y-115410812D01*
X132669488Y-115405953D01*
X132661287Y-115401601D01*
X132653058Y-115397741D01*
X132644789Y-115394354D01*
X132636467Y-115391426D01*
X132620820Y-115386884D01*
X132605472Y-115383805D01*
X132590335Y-115382231D01*
X132575323Y-115382205D01*
X132560349Y-115383774D01*
X132545325Y-115386977D01*
X132530163Y-115391863D01*
X132514778Y-115398471D01*
X132499081Y-115406845D01*
X132482987Y-115417032D01*
X132466406Y-115429072D01*
X132449254Y-115443011D01*
X132431441Y-115458893D01*
X132412882Y-115476758D01*
X132393489Y-115496654D01*
X132373174Y-115518621D01*
X132305318Y-115592158D01*
X132272341Y-115626591D01*
X132237514Y-115661965D01*
X132198975Y-115700158D01*
X132154863Y-115743044D01*
X132042462Y-115850394D01*
X131972196Y-115917360D01*
X131909441Y-115977844D01*
X131853842Y-116032319D01*
X131805049Y-116081257D01*
X131762708Y-116125131D01*
X131743845Y-116145317D01*
X131726465Y-116164414D01*
X131710521Y-116182481D01*
X131695969Y-116199577D01*
X131682766Y-116215761D01*
X131670867Y-116231092D01*
X131660229Y-116245631D01*
X131650807Y-116259434D01*
X131642558Y-116272562D01*
X131635436Y-116285074D01*
X131629399Y-116297029D01*
X131624402Y-116308485D01*
X131620401Y-116319502D01*
X131617351Y-116330139D01*
X131615210Y-116340455D01*
X131613931Y-116350509D01*
X131613473Y-116360359D01*
X130733580Y-116360359D01*
X130792285Y-116320125D01*
X130951751Y-116206842D01*
X131118477Y-116084663D01*
X131563632Y-115747273D01*
X131802593Y-115564192D01*
X131895378Y-115491755D01*
X131908974Y-115481141D01*
G37*
D10*
X106046812Y-116146807D02*
X106046812Y-115480140D01*
X106046812Y-115575378D02*
X106094431Y-115527759D01*
X106094431Y-115527759D02*
X106189669Y-115480140D01*
X106189669Y-115480140D02*
X106332526Y-115480140D01*
X106332526Y-115480140D02*
X106427764Y-115527759D01*
X106427764Y-115527759D02*
X106475383Y-115622997D01*
X106475383Y-115622997D02*
X106475383Y-116146807D01*
X106475383Y-115622997D02*
X106523002Y-115527759D01*
X106523002Y-115527759D02*
X106618240Y-115480140D01*
X106618240Y-115480140D02*
X106761097Y-115480140D01*
X106761097Y-115480140D02*
X106856336Y-115527759D01*
X106856336Y-115527759D02*
X106903955Y-115622997D01*
X106903955Y-115622997D02*
X106903955Y-116146807D01*
X107380145Y-116146807D02*
X107380145Y-115146807D01*
X107475383Y-115765854D02*
X107761097Y-116146807D01*
X107761097Y-115480140D02*
X107380145Y-115861092D01*
X108189669Y-116146807D02*
X108189669Y-115146807D01*
X108618240Y-116146807D02*
X108618240Y-115622997D01*
X108618240Y-115622997D02*
X108570621Y-115527759D01*
X108570621Y-115527759D02*
X108475383Y-115480140D01*
X108475383Y-115480140D02*
X108332526Y-115480140D01*
X108332526Y-115480140D02*
X108237288Y-115527759D01*
X108237288Y-115527759D02*
X108189669Y-115575378D01*
X109808717Y-116099188D02*
X109903955Y-116146807D01*
X109903955Y-116146807D02*
X110094431Y-116146807D01*
X110094431Y-116146807D02*
X110189669Y-116099188D01*
X110189669Y-116099188D02*
X110237288Y-116003949D01*
X110237288Y-116003949D02*
X110237288Y-115956330D01*
X110237288Y-115956330D02*
X110189669Y-115861092D01*
X110189669Y-115861092D02*
X110094431Y-115813473D01*
X110094431Y-115813473D02*
X109951574Y-115813473D01*
X109951574Y-115813473D02*
X109856336Y-115765854D01*
X109856336Y-115765854D02*
X109808717Y-115670616D01*
X109808717Y-115670616D02*
X109808717Y-115622997D01*
X109808717Y-115622997D02*
X109856336Y-115527759D01*
X109856336Y-115527759D02*
X109951574Y-115480140D01*
X109951574Y-115480140D02*
X110094431Y-115480140D01*
X110094431Y-115480140D02*
X110189669Y-115527759D01*
X110523003Y-115480140D02*
X110903955Y-115480140D01*
X110665860Y-115146807D02*
X110665860Y-116003949D01*
X110665860Y-116003949D02*
X110713479Y-116099188D01*
X110713479Y-116099188D02*
X110808717Y-116146807D01*
X110808717Y-116146807D02*
X110903955Y-116146807D01*
X111665860Y-115480140D02*
X111665860Y-116146807D01*
X111237289Y-115480140D02*
X111237289Y-116003949D01*
X111237289Y-116003949D02*
X111284908Y-116099188D01*
X111284908Y-116099188D02*
X111380146Y-116146807D01*
X111380146Y-116146807D02*
X111523003Y-116146807D01*
X111523003Y-116146807D02*
X111618241Y-116099188D01*
X111618241Y-116099188D02*
X111665860Y-116051568D01*
X112570622Y-116146807D02*
X112570622Y-115146807D01*
X112570622Y-116099188D02*
X112475384Y-116146807D01*
X112475384Y-116146807D02*
X112284908Y-116146807D01*
X112284908Y-116146807D02*
X112189670Y-116099188D01*
X112189670Y-116099188D02*
X112142051Y-116051568D01*
X112142051Y-116051568D02*
X112094432Y-115956330D01*
X112094432Y-115956330D02*
X112094432Y-115670616D01*
X112094432Y-115670616D02*
X112142051Y-115575378D01*
X112142051Y-115575378D02*
X112189670Y-115527759D01*
X112189670Y-115527759D02*
X112284908Y-115480140D01*
X112284908Y-115480140D02*
X112475384Y-115480140D01*
X112475384Y-115480140D02*
X112570622Y-115527759D01*
X113046813Y-116146807D02*
X113046813Y-115480140D01*
X113046813Y-115146807D02*
X112999194Y-115194426D01*
X112999194Y-115194426D02*
X113046813Y-115242045D01*
X113046813Y-115242045D02*
X113094432Y-115194426D01*
X113094432Y-115194426D02*
X113046813Y-115146807D01*
X113046813Y-115146807D02*
X113046813Y-115242045D01*
X113665860Y-116146807D02*
X113570622Y-116099188D01*
X113570622Y-116099188D02*
X113523003Y-116051568D01*
X113523003Y-116051568D02*
X113475384Y-115956330D01*
X113475384Y-115956330D02*
X113475384Y-115670616D01*
X113475384Y-115670616D02*
X113523003Y-115575378D01*
X113523003Y-115575378D02*
X113570622Y-115527759D01*
X113570622Y-115527759D02*
X113665860Y-115480140D01*
X113665860Y-115480140D02*
X113808717Y-115480140D01*
X113808717Y-115480140D02*
X113903955Y-115527759D01*
X113903955Y-115527759D02*
X113951574Y-115575378D01*
X113951574Y-115575378D02*
X113999193Y-115670616D01*
X113999193Y-115670616D02*
X113999193Y-115956330D01*
X113999193Y-115956330D02*
X113951574Y-116051568D01*
X113951574Y-116051568D02*
X113903955Y-116099188D01*
X113903955Y-116099188D02*
X113808717Y-116146807D01*
X113808717Y-116146807D02*
X113665860Y-116146807D01*
X115713479Y-116146807D02*
X115142051Y-116146807D01*
X115427765Y-116146807D02*
X115427765Y-115146807D01*
X115427765Y-115146807D02*
X115332527Y-115289664D01*
X115332527Y-115289664D02*
X115237289Y-115384902D01*
X115237289Y-115384902D02*
X115142051Y-115432521D01*
X116142051Y-116051568D02*
X116189670Y-116099188D01*
X116189670Y-116099188D02*
X116142051Y-116146807D01*
X116142051Y-116146807D02*
X116094432Y-116099188D01*
X116094432Y-116099188D02*
X116142051Y-116051568D01*
X116142051Y-116051568D02*
X116142051Y-116146807D01*
X116570622Y-115242045D02*
X116618241Y-115194426D01*
X116618241Y-115194426D02*
X116713479Y-115146807D01*
X116713479Y-115146807D02*
X116951574Y-115146807D01*
X116951574Y-115146807D02*
X117046812Y-115194426D01*
X117046812Y-115194426D02*
X117094431Y-115242045D01*
X117094431Y-115242045D02*
X117142050Y-115337283D01*
X117142050Y-115337283D02*
X117142050Y-115432521D01*
X117142050Y-115432521D02*
X117094431Y-115575378D01*
X117094431Y-115575378D02*
X116523003Y-116146807D01*
X116523003Y-116146807D02*
X117142050Y-116146807D01*
X117713479Y-116146807D02*
X117618241Y-116099188D01*
X117618241Y-116099188D02*
X117570622Y-116051568D01*
X117570622Y-116051568D02*
X117523003Y-115956330D01*
X117523003Y-115956330D02*
X117523003Y-115670616D01*
X117523003Y-115670616D02*
X117570622Y-115575378D01*
X117570622Y-115575378D02*
X117618241Y-115527759D01*
X117618241Y-115527759D02*
X117713479Y-115480140D01*
X117713479Y-115480140D02*
X117856336Y-115480140D01*
X117856336Y-115480140D02*
X117951574Y-115527759D01*
X117951574Y-115527759D02*
X117999193Y-115575378D01*
X117999193Y-115575378D02*
X118046812Y-115670616D01*
X118046812Y-115670616D02*
X118046812Y-115956330D01*
X118046812Y-115956330D02*
X117999193Y-116051568D01*
X117999193Y-116051568D02*
X117951574Y-116099188D01*
X117951574Y-116099188D02*
X117856336Y-116146807D01*
X117856336Y-116146807D02*
X117713479Y-116146807D01*
X118903955Y-115480140D02*
X118903955Y-116289664D01*
X118903955Y-116289664D02*
X118856336Y-116384902D01*
X118856336Y-116384902D02*
X118808717Y-116432521D01*
X118808717Y-116432521D02*
X118713479Y-116480140D01*
X118713479Y-116480140D02*
X118570622Y-116480140D01*
X118570622Y-116480140D02*
X118475384Y-116432521D01*
X118903955Y-116099188D02*
X118808717Y-116146807D01*
X118808717Y-116146807D02*
X118618241Y-116146807D01*
X118618241Y-116146807D02*
X118523003Y-116099188D01*
X118523003Y-116099188D02*
X118475384Y-116051568D01*
X118475384Y-116051568D02*
X118427765Y-115956330D01*
X118427765Y-115956330D02*
X118427765Y-115670616D01*
X118427765Y-115670616D02*
X118475384Y-115575378D01*
X118475384Y-115575378D02*
X118523003Y-115527759D01*
X118523003Y-115527759D02*
X118618241Y-115480140D01*
X118618241Y-115480140D02*
X118808717Y-115480140D01*
X118808717Y-115480140D02*
X118903955Y-115527759D01*
X120142051Y-116146807D02*
X120142051Y-115146807D01*
X120142051Y-115527759D02*
X120237289Y-115480140D01*
X120237289Y-115480140D02*
X120427765Y-115480140D01*
X120427765Y-115480140D02*
X120523003Y-115527759D01*
X120523003Y-115527759D02*
X120570622Y-115575378D01*
X120570622Y-115575378D02*
X120618241Y-115670616D01*
X120618241Y-115670616D02*
X120618241Y-115956330D01*
X120618241Y-115956330D02*
X120570622Y-116051568D01*
X120570622Y-116051568D02*
X120523003Y-116099188D01*
X120523003Y-116099188D02*
X120427765Y-116146807D01*
X120427765Y-116146807D02*
X120237289Y-116146807D01*
X120237289Y-116146807D02*
X120142051Y-116099188D01*
X121475384Y-116146807D02*
X121475384Y-115622997D01*
X121475384Y-115622997D02*
X121427765Y-115527759D01*
X121427765Y-115527759D02*
X121332527Y-115480140D01*
X121332527Y-115480140D02*
X121142051Y-115480140D01*
X121142051Y-115480140D02*
X121046813Y-115527759D01*
X121475384Y-116099188D02*
X121380146Y-116146807D01*
X121380146Y-116146807D02*
X121142051Y-116146807D01*
X121142051Y-116146807D02*
X121046813Y-116099188D01*
X121046813Y-116099188D02*
X120999194Y-116003949D01*
X120999194Y-116003949D02*
X120999194Y-115908711D01*
X120999194Y-115908711D02*
X121046813Y-115813473D01*
X121046813Y-115813473D02*
X121142051Y-115765854D01*
X121142051Y-115765854D02*
X121380146Y-115765854D01*
X121380146Y-115765854D02*
X121475384Y-115718235D01*
X122380146Y-116099188D02*
X122284908Y-116146807D01*
X122284908Y-116146807D02*
X122094432Y-116146807D01*
X122094432Y-116146807D02*
X121999194Y-116099188D01*
X121999194Y-116099188D02*
X121951575Y-116051568D01*
X121951575Y-116051568D02*
X121903956Y-115956330D01*
X121903956Y-115956330D02*
X121903956Y-115670616D01*
X121903956Y-115670616D02*
X121951575Y-115575378D01*
X121951575Y-115575378D02*
X121999194Y-115527759D01*
X121999194Y-115527759D02*
X122094432Y-115480140D01*
X122094432Y-115480140D02*
X122284908Y-115480140D01*
X122284908Y-115480140D02*
X122380146Y-115527759D01*
X122808718Y-116146807D02*
X122808718Y-115146807D01*
X122903956Y-115765854D02*
X123189670Y-116146807D01*
X123189670Y-115480140D02*
X122808718Y-115861092D01*
X124046813Y-115480140D02*
X124046813Y-116146807D01*
X123618242Y-115480140D02*
X123618242Y-116003949D01*
X123618242Y-116003949D02*
X123665861Y-116099188D01*
X123665861Y-116099188D02*
X123761099Y-116146807D01*
X123761099Y-116146807D02*
X123903956Y-116146807D01*
X123903956Y-116146807D02*
X123999194Y-116099188D01*
X123999194Y-116099188D02*
X124046813Y-116051568D01*
X124523004Y-115480140D02*
X124523004Y-116480140D01*
X124523004Y-115527759D02*
X124618242Y-115480140D01*
X124618242Y-115480140D02*
X124808718Y-115480140D01*
X124808718Y-115480140D02*
X124903956Y-115527759D01*
X124903956Y-115527759D02*
X124951575Y-115575378D01*
X124951575Y-115575378D02*
X124999194Y-115670616D01*
X124999194Y-115670616D02*
X124999194Y-115956330D01*
X124999194Y-115956330D02*
X124951575Y-116051568D01*
X124951575Y-116051568D02*
X124903956Y-116099188D01*
X124903956Y-116099188D02*
X124808718Y-116146807D01*
X124808718Y-116146807D02*
X124618242Y-116146807D01*
X124618242Y-116146807D02*
X124523004Y-116099188D01*
X126189671Y-115480140D02*
X126189671Y-116480140D01*
X126189671Y-115527759D02*
X126284909Y-115480140D01*
X126284909Y-115480140D02*
X126475385Y-115480140D01*
X126475385Y-115480140D02*
X126570623Y-115527759D01*
X126570623Y-115527759D02*
X126618242Y-115575378D01*
X126618242Y-115575378D02*
X126665861Y-115670616D01*
X126665861Y-115670616D02*
X126665861Y-115956330D01*
X126665861Y-115956330D02*
X126618242Y-116051568D01*
X126618242Y-116051568D02*
X126570623Y-116099188D01*
X126570623Y-116099188D02*
X126475385Y-116146807D01*
X126475385Y-116146807D02*
X126284909Y-116146807D01*
X126284909Y-116146807D02*
X126189671Y-116099188D01*
X127237290Y-116146807D02*
X127142052Y-116099188D01*
X127142052Y-116099188D02*
X127094433Y-116003949D01*
X127094433Y-116003949D02*
X127094433Y-115146807D01*
X128046814Y-116146807D02*
X128046814Y-115622997D01*
X128046814Y-115622997D02*
X127999195Y-115527759D01*
X127999195Y-115527759D02*
X127903957Y-115480140D01*
X127903957Y-115480140D02*
X127713481Y-115480140D01*
X127713481Y-115480140D02*
X127618243Y-115527759D01*
X128046814Y-116099188D02*
X127951576Y-116146807D01*
X127951576Y-116146807D02*
X127713481Y-116146807D01*
X127713481Y-116146807D02*
X127618243Y-116099188D01*
X127618243Y-116099188D02*
X127570624Y-116003949D01*
X127570624Y-116003949D02*
X127570624Y-115908711D01*
X127570624Y-115908711D02*
X127618243Y-115813473D01*
X127618243Y-115813473D02*
X127713481Y-115765854D01*
X127713481Y-115765854D02*
X127951576Y-115765854D01*
X127951576Y-115765854D02*
X128046814Y-115718235D01*
X128523005Y-115480140D02*
X128523005Y-116146807D01*
X128523005Y-115575378D02*
X128570624Y-115527759D01*
X128570624Y-115527759D02*
X128665862Y-115480140D01*
X128665862Y-115480140D02*
X128808719Y-115480140D01*
X128808719Y-115480140D02*
X128903957Y-115527759D01*
X128903957Y-115527759D02*
X128951576Y-115622997D01*
X128951576Y-115622997D02*
X128951576Y-116146807D01*
X106046812Y-117766807D02*
X106046812Y-116766807D01*
X106046812Y-117147759D02*
X106142050Y-117100140D01*
X106142050Y-117100140D02*
X106332526Y-117100140D01*
X106332526Y-117100140D02*
X106427764Y-117147759D01*
X106427764Y-117147759D02*
X106475383Y-117195378D01*
X106475383Y-117195378D02*
X106523002Y-117290616D01*
X106523002Y-117290616D02*
X106523002Y-117576330D01*
X106523002Y-117576330D02*
X106475383Y-117671568D01*
X106475383Y-117671568D02*
X106427764Y-117719188D01*
X106427764Y-117719188D02*
X106332526Y-117766807D01*
X106332526Y-117766807D02*
X106142050Y-117766807D01*
X106142050Y-117766807D02*
X106046812Y-117719188D01*
X106856336Y-117100140D02*
X107094431Y-117766807D01*
X107332526Y-117100140D02*
X107094431Y-117766807D01*
X107094431Y-117766807D02*
X106999193Y-118004902D01*
X106999193Y-118004902D02*
X106951574Y-118052521D01*
X106951574Y-118052521D02*
X106856336Y-118100140D01*
X108380146Y-117100140D02*
X108903955Y-117100140D01*
X108903955Y-117100140D02*
X108380146Y-117766807D01*
X108380146Y-117766807D02*
X108903955Y-117766807D01*
X109284908Y-117766807D02*
X109284908Y-116766807D01*
X109713479Y-117766807D02*
X109713479Y-117242997D01*
X109713479Y-117242997D02*
X109665860Y-117147759D01*
X109665860Y-117147759D02*
X109570622Y-117100140D01*
X109570622Y-117100140D02*
X109427765Y-117100140D01*
X109427765Y-117100140D02*
X109332527Y-117147759D01*
X109332527Y-117147759D02*
X109284908Y-117195378D01*
X110332527Y-117766807D02*
X110237289Y-117719188D01*
X110237289Y-117719188D02*
X110189670Y-117671568D01*
X110189670Y-117671568D02*
X110142051Y-117576330D01*
X110142051Y-117576330D02*
X110142051Y-117290616D01*
X110142051Y-117290616D02*
X110189670Y-117195378D01*
X110189670Y-117195378D02*
X110237289Y-117147759D01*
X110237289Y-117147759D02*
X110332527Y-117100140D01*
X110332527Y-117100140D02*
X110475384Y-117100140D01*
X110475384Y-117100140D02*
X110570622Y-117147759D01*
X110570622Y-117147759D02*
X110618241Y-117195378D01*
X110618241Y-117195378D02*
X110665860Y-117290616D01*
X110665860Y-117290616D02*
X110665860Y-117576330D01*
X110665860Y-117576330D02*
X110618241Y-117671568D01*
X110618241Y-117671568D02*
X110570622Y-117719188D01*
X110570622Y-117719188D02*
X110475384Y-117766807D01*
X110475384Y-117766807D02*
X110332527Y-117766807D01*
X111237289Y-117766807D02*
X111142051Y-117719188D01*
X111142051Y-117719188D02*
X111094432Y-117623949D01*
X111094432Y-117623949D02*
X111094432Y-116766807D01*
D13*
%TO.C,S1*%
X290287365Y-53629638D03*
X266474865Y-53629638D03*
%TD*%
%TO.C,S2*%
X264019838Y-75159669D03*
X287832338Y-75159669D03*
D14*
X287832338Y-90399669D03*
X264019838Y-90399669D03*
%TD*%
D13*
%TO.C,S3*%
X45414865Y-110687638D03*
X21602365Y-110687638D03*
D14*
X21602365Y-95447638D03*
X45414865Y-95447638D03*
%TD*%
D13*
%TO.C,S4*%
X283167365Y-110687638D03*
X259354865Y-110687638D03*
%TD*%
D15*
%TO.C,H2*%
X355726066Y-89414572D03*
%TD*%
%TO.C,H1*%
X301009027Y-77392443D03*
%TD*%
D16*
%TO.C,SW71*%
X135416115Y-102432638D03*
D13*
X140496115Y-102432638D03*
D16*
X145576115Y-102432638D03*
%TD*%
%TO.C,SW12*%
X263806115Y-21592638D03*
D13*
X268886115Y-21592638D03*
D16*
X273966115Y-21592638D03*
%TD*%
%TO.C,SW26*%
X187696115Y-45372638D03*
D13*
X192776115Y-45372638D03*
D16*
X197856115Y-45372638D03*
%TD*%
%TO.C,SW76*%
X230526115Y-102432638D03*
D13*
X235606115Y-102432638D03*
D16*
X240686115Y-102432638D03*
%TD*%
%TO.C,SW21*%
X92596115Y-45372638D03*
D13*
X97676115Y-45372638D03*
D16*
X102756115Y-45372638D03*
%TD*%
%TO.C,SW24*%
X149656115Y-45372638D03*
D13*
X154736115Y-45372638D03*
D16*
X159816115Y-45372638D03*
%TD*%
%TO.C,SW25*%
X168676115Y-45372638D03*
D13*
X173756115Y-45372638D03*
D16*
X178836115Y-45372638D03*
%TD*%
%TO.C,SW60*%
X163906115Y-83412638D03*
D13*
X168986115Y-83412638D03*
D16*
X174066115Y-83412638D03*
%TD*%
%TO.C,SW83*%
X44996115Y-121452638D03*
D13*
X50076115Y-121452638D03*
D16*
X55156115Y-121452638D03*
%TD*%
%TO.C,SW74*%
X192486115Y-102432638D03*
D13*
X197566115Y-102432638D03*
D16*
X202646115Y-102432638D03*
%TD*%
%TO.C,SW9*%
X197206115Y-21594638D03*
D13*
X202286115Y-21594638D03*
D16*
X207366115Y-21594638D03*
%TD*%
%TO.C,SW32*%
X306606115Y-45372638D03*
D13*
X311686115Y-45372638D03*
D16*
X316766115Y-45372638D03*
%TD*%
%TO.C,SW53*%
X23638615Y-83412638D03*
D13*
X28718615Y-83412638D03*
D16*
X33798615Y-83412638D03*
%TD*%
%TO.C,SW90*%
X254216115Y-121454638D03*
D13*
X259296115Y-121454638D03*
D16*
X264376115Y-121454638D03*
%TD*%
%TO.C,SW65*%
X270846088Y-83414669D03*
D13*
X275926088Y-83414669D03*
D16*
X281006088Y-83414669D03*
%TD*%
%TO.C,SW84*%
X68771115Y-121452638D03*
D13*
X73851115Y-121452638D03*
D16*
X78931115Y-121452638D03*
%TD*%
%TO.C,SW39*%
X102056115Y-64392638D03*
D13*
X107136115Y-64392638D03*
D16*
X112216115Y-64392638D03*
%TD*%
%TO.C,SW86*%
X140157529Y-121454498D03*
D13*
X145237529Y-121454498D03*
D16*
X150317529Y-121454498D03*
%TD*%
%TO.C,SW63*%
X220926115Y-83412638D03*
D13*
X226006115Y-83412638D03*
D16*
X231086115Y-83412638D03*
%TD*%
%TO.C,SW35*%
X21246115Y-64394638D03*
D13*
X26326115Y-64394638D03*
D16*
X31406115Y-64394638D03*
%TD*%
%TO.C,SW15*%
X325626115Y-21589179D03*
D13*
X330706115Y-21589179D03*
D16*
X335786115Y-21589179D03*
%TD*%
%TO.C,SW47*%
X254216115Y-64394638D03*
D13*
X259296115Y-64394638D03*
D16*
X264376115Y-64394638D03*
%TD*%
%TO.C,SW41*%
X140096115Y-64392638D03*
D13*
X145176115Y-64392638D03*
D16*
X150256115Y-64392638D03*
%TD*%
%TO.C,SW62*%
X201926115Y-83412638D03*
D13*
X207006115Y-83412638D03*
D16*
X212086115Y-83412638D03*
%TD*%
%TO.C,SW89*%
X230441115Y-121454638D03*
D13*
X235521115Y-121454638D03*
D16*
X240601115Y-121454638D03*
%TD*%
%TO.C,SW49*%
X306606115Y-64392638D03*
D13*
X311686115Y-64392638D03*
D16*
X316766115Y-64392638D03*
%TD*%
%TO.C,SW28*%
X225736115Y-45372638D03*
D13*
X230816115Y-45372638D03*
D16*
X235896115Y-45372638D03*
%TD*%
%TO.C,SW10*%
X225766115Y-21592638D03*
D13*
X230846115Y-21592638D03*
D16*
X235926115Y-21592638D03*
%TD*%
%TO.C,SW1*%
X16516115Y-21594638D03*
D13*
X21596115Y-21594638D03*
D16*
X26676115Y-21594638D03*
%TD*%
%TO.C,SW70*%
X116396115Y-102432638D03*
D13*
X121476115Y-102432638D03*
D16*
X126556115Y-102432638D03*
%TD*%
%TO.C,SW13*%
X282826115Y-21592638D03*
D13*
X287906115Y-21592638D03*
D16*
X292986115Y-21592638D03*
%TD*%
%TO.C,SW87*%
X211383615Y-121452638D03*
D13*
X216463615Y-121452638D03*
D16*
X221543615Y-121452638D03*
%TD*%
%TO.C,SW11*%
X244756115Y-21592638D03*
D13*
X249836115Y-21592638D03*
D16*
X254916115Y-21592638D03*
%TD*%
%TO.C,SW27*%
X206716115Y-45372638D03*
D13*
X211796115Y-45372638D03*
D16*
X216876115Y-45372638D03*
%TD*%
%TO.C,SW37*%
X64016115Y-64392638D03*
D13*
X69096115Y-64392638D03*
D16*
X74176115Y-64392638D03*
%TD*%
%TO.C,SW5*%
X111616534Y-21599485D03*
D13*
X116696534Y-21599485D03*
D16*
X121776534Y-21599485D03*
%TD*%
%TO.C,SW4*%
X92596534Y-21599485D03*
D13*
X97676534Y-21599485D03*
D16*
X102756534Y-21599485D03*
%TD*%
%TO.C,SW23*%
X130636115Y-45372638D03*
D13*
X135716115Y-45372638D03*
D16*
X140796115Y-45372638D03*
%TD*%
%TO.C,SW42*%
X159116115Y-64392638D03*
D13*
X164196115Y-64392638D03*
D16*
X169276115Y-64392638D03*
%TD*%
%TO.C,SW91*%
X278031115Y-121454638D03*
D13*
X283111115Y-121454638D03*
D16*
X288191115Y-121454638D03*
%TD*%
%TO.C,SW22*%
X111616115Y-45372638D03*
D13*
X116696115Y-45372638D03*
D16*
X121776115Y-45372638D03*
%TD*%
%TO.C,SW64*%
X239926115Y-83412638D03*
D13*
X245006115Y-83412638D03*
D16*
X250086115Y-83412638D03*
%TD*%
%TO.C,SW81*%
X325626115Y-102432638D03*
D13*
X330706115Y-102432638D03*
D16*
X335786115Y-102432638D03*
%TD*%
%TO.C,SW52*%
X18876115Y-83412638D03*
D13*
X23956115Y-83412638D03*
D16*
X29036115Y-83412638D03*
%TD*%
%TO.C,SW30*%
X273301115Y-45374638D03*
D13*
X278381115Y-45374638D03*
D16*
X283461115Y-45374638D03*
%TD*%
D17*
%TO.C,J4*%
X347689000Y-105505000D03*
D18*
X347688999Y-103504999D03*
X347688999Y-101504999D03*
%TD*%
D16*
%TO.C,SW51*%
X344646115Y-64392638D03*
D13*
X349726115Y-64392638D03*
D16*
X354806115Y-64392638D03*
%TD*%
%TO.C,SW34*%
X344646115Y-45372638D03*
D13*
X349726115Y-45372638D03*
D16*
X354806115Y-45372638D03*
%TD*%
%TO.C,SW66*%
X28428615Y-102432638D03*
D13*
X33508615Y-102432638D03*
D16*
X38588615Y-102432638D03*
%TD*%
%TO.C,SW8*%
X178186115Y-21594638D03*
D13*
X183266115Y-21594638D03*
D16*
X188346115Y-21594638D03*
%TD*%
%TO.C,SW36*%
X44996115Y-64392638D03*
D13*
X50076115Y-64392638D03*
D16*
X55156115Y-64392638D03*
%TD*%
%TO.C,SW68*%
X78356115Y-102432638D03*
D13*
X83436115Y-102432638D03*
D16*
X88516115Y-102432638D03*
%TD*%
%TO.C,SW94*%
X344646115Y-121452638D03*
D13*
X349726115Y-121452638D03*
D16*
X354806115Y-121452638D03*
%TD*%
%TO.C,SW19*%
X54556115Y-45372638D03*
D13*
X59636115Y-45372638D03*
D16*
X64716115Y-45372638D03*
%TD*%
%TO.C,SW73*%
X173456115Y-102432638D03*
D13*
X178536115Y-102432638D03*
D16*
X183616115Y-102432638D03*
%TD*%
%TO.C,SW78*%
X266181115Y-102432638D03*
D13*
X271261115Y-102432638D03*
D16*
X276341115Y-102432638D03*
%TD*%
%TO.C,SW61*%
X182926115Y-83412638D03*
D13*
X188006115Y-83412638D03*
D16*
X193086115Y-83412638D03*
%TD*%
%TO.C,SW43*%
X178136115Y-64392638D03*
D13*
X183216115Y-64392638D03*
D16*
X188296115Y-64392638D03*
%TD*%
%TO.C,SW33*%
X325626115Y-45372638D03*
D13*
X330706115Y-45372638D03*
D16*
X335786115Y-45372638D03*
%TD*%
%TO.C,SW88*%
X235196115Y-121452638D03*
D13*
X240276115Y-121452638D03*
D16*
X245356115Y-121452638D03*
%TD*%
%TO.C,SW93*%
X325626115Y-121452638D03*
D13*
X330706115Y-121452638D03*
D16*
X335786115Y-121452638D03*
%TD*%
D19*
%TO.C,J2*%
X303446114Y-12798999D03*
X296146114Y-12798999D03*
%TD*%
D16*
%TO.C,SW56*%
X87886115Y-83412638D03*
D13*
X92966115Y-83412638D03*
D16*
X98046115Y-83412638D03*
%TD*%
D14*
%TO.C,S5*%
X211897529Y-128436498D03*
D13*
X211897529Y-113196498D03*
D14*
X97597529Y-128436498D03*
D13*
X97597529Y-113196498D03*
%TD*%
D16*
%TO.C,SW40*%
X121076115Y-64392638D03*
D13*
X126156115Y-64392638D03*
D16*
X131236115Y-64392638D03*
%TD*%
%TO.C,SW20*%
X73576115Y-45372638D03*
D13*
X78656115Y-45372638D03*
D16*
X83736115Y-45372638D03*
%TD*%
%TO.C,SW69*%
X97376115Y-102432638D03*
D13*
X102456115Y-102432638D03*
D16*
X107536115Y-102432638D03*
%TD*%
%TO.C,SW16*%
X344646115Y-21592638D03*
D13*
X349726115Y-21592638D03*
D16*
X354806115Y-21592638D03*
%TD*%
%TO.C,SW7*%
X159166115Y-21594638D03*
D13*
X164246115Y-21594638D03*
D16*
X169326115Y-21594638D03*
%TD*%
%TO.C,SW67*%
X59336115Y-102432638D03*
D13*
X64416115Y-102432638D03*
D16*
X69496115Y-102432638D03*
%TD*%
%TO.C,SW50*%
X325626115Y-64392638D03*
D13*
X330706115Y-64392638D03*
D16*
X335786115Y-64392638D03*
%TD*%
%TO.C,SW72*%
X154436115Y-102432638D03*
D13*
X159516115Y-102432638D03*
D16*
X164596115Y-102432638D03*
%TD*%
%TO.C,SW3*%
X73576534Y-21599485D03*
D13*
X78656534Y-21599485D03*
D16*
X83736534Y-21599485D03*
%TD*%
D14*
%TO.C,S6*%
X192862529Y-128439498D03*
D13*
X192862529Y-113199498D03*
D14*
X97612529Y-128439498D03*
D13*
X97612529Y-113199498D03*
%TD*%
D16*
%TO.C,SW57*%
X106886115Y-83412638D03*
D13*
X111966115Y-83412638D03*
D16*
X117046115Y-83412638D03*
%TD*%
%TO.C,SW92*%
X306606115Y-121452638D03*
D13*
X311686115Y-121452638D03*
D16*
X316766115Y-121452638D03*
%TD*%
%TO.C,SW77*%
X256636115Y-102432638D03*
D13*
X261716115Y-102432638D03*
D16*
X266796115Y-102432638D03*
%TD*%
%TO.C,SW59*%
X144886115Y-83412638D03*
D13*
X149966115Y-83412638D03*
D16*
X155046115Y-83412638D03*
%TD*%
%TO.C,SW44*%
X197156115Y-64392638D03*
D13*
X202236115Y-64392638D03*
D16*
X207316115Y-64392638D03*
%TD*%
%TO.C,SW29*%
X244756115Y-45372638D03*
D13*
X249836115Y-45372638D03*
D16*
X254916115Y-45372638D03*
%TD*%
%TO.C,SW82*%
X21246115Y-121454638D03*
D13*
X26326115Y-121454638D03*
D16*
X31406115Y-121454638D03*
%TD*%
%TO.C,SW75*%
X211506115Y-102432638D03*
D13*
X216586115Y-102432638D03*
D16*
X221666115Y-102432638D03*
%TD*%
%TO.C,SW55*%
X68886115Y-83412638D03*
D13*
X73966115Y-83412638D03*
D16*
X79046115Y-83412638D03*
%TD*%
%TO.C,SW38*%
X83036115Y-64392638D03*
D13*
X88116115Y-64392638D03*
D16*
X93196115Y-64392638D03*
%TD*%
%TO.C,SW80*%
X282811115Y-45374638D03*
D13*
X287891115Y-45374638D03*
D16*
X292971115Y-45374638D03*
%TD*%
%TO.C,SW14*%
X306606115Y-21592638D03*
D13*
X311686115Y-21592638D03*
D16*
X316766115Y-21592638D03*
%TD*%
%TO.C,SW48*%
X278031115Y-64394638D03*
D13*
X283111115Y-64394638D03*
D16*
X288191115Y-64394638D03*
%TD*%
%TO.C,SW31*%
X263791115Y-45374638D03*
D13*
X268871115Y-45374638D03*
D16*
X273951115Y-45374638D03*
%TD*%
%TO.C,SW79*%
X275656115Y-102432638D03*
D13*
X280736115Y-102432638D03*
D16*
X285816115Y-102432638D03*
%TD*%
%TO.C,SW6*%
X140146115Y-21594638D03*
D13*
X145226115Y-21594638D03*
D16*
X150306115Y-21594638D03*
%TD*%
%TO.C,SW46*%
X235196115Y-64392638D03*
D13*
X240276115Y-64392638D03*
D16*
X245356115Y-64392638D03*
%TD*%
D20*
%TO.C,J3*%
X343206114Y-105984628D03*
D21*
X343206114Y-103444628D03*
X343206114Y-100904628D03*
%TD*%
D16*
%TO.C,SW45*%
X216176115Y-64392638D03*
D13*
X221256115Y-64392638D03*
D16*
X226336115Y-64392638D03*
%TD*%
%TO.C,SW17*%
X16516115Y-45372638D03*
D13*
X21596115Y-45372638D03*
D16*
X26676115Y-45372638D03*
%TD*%
%TO.C,SW54*%
X49886115Y-83412638D03*
D13*
X54966115Y-83412638D03*
D16*
X60046115Y-83412638D03*
%TD*%
%TO.C,SW2*%
X54556534Y-21599485D03*
D13*
X59636534Y-21599485D03*
D16*
X64716534Y-21599485D03*
%TD*%
%TO.C,SW58*%
X125886115Y-83412638D03*
D13*
X130966115Y-83412638D03*
D16*
X136046115Y-83412638D03*
%TD*%
%TO.C,SW85*%
X149667529Y-121454498D03*
D13*
X154747529Y-121454498D03*
D16*
X159827529Y-121454498D03*
%TD*%
%TO.C,SW18*%
X35536115Y-45372638D03*
D13*
X40616115Y-45372638D03*
D16*
X45696115Y-45372638D03*
%TD*%
M02*
