M48
; DRILL file {KiCad 8.0.8} date 2025-02-22T00:27:14-0800
; FORMAT={-:-/ absolute / inch / decimal}
; #@! TF.CreationDate,2025-02-22T00:27:14-08:00
; #@! TF.GenerationSoftware,Kicad,Pcbnew,8.0.8
; #@! TF.FileFunction,Plated,1,2,PTH
FMAT,2
INCH
; #@! TA.AperFunction,Plated,PTH,ViaDrill
T1C0.0157
; #@! TA.AperFunction,Plated,PTH,ComponentDrill
T2C0.0276
; #@! TA.AperFunction,Plated,PTH,ComponentDrill
T3C0.0295
; #@! TA.AperFunction,Plated,PTH,ComponentDrill
T4C0.0394
; #@! TA.AperFunction,Plated,PTH,ComponentDrill
T5C0.0409
; #@! TA.AperFunction,Plated,PTH,ComponentDrill
T6C0.0600
; #@! TA.AperFunction,Plated,PTH,ComponentDrill
T7C0.1181
; #@! TA.AperFunction,Plated,PTH,ComponentDrill
T8C0.1200
%
G90
G05
T1
X10.4178Y-1.9801
X10.4278Y-3.2951
X10.6578Y-0.3001
X10.6717Y-1.2301
X10.7017Y-4.2292
X10.7328Y-3.4451
X10.7349Y-2.2044
X10.8169Y-1.98
X10.8709Y-2.0087
X10.9617Y-0.1476
X11.1049Y-2.0526
X11.1128Y-1.2301
X11.1528Y-0.2951
X11.2528Y-2.3201
X11.2796Y-2.0088
X11.3328Y-2.3601
X11.3475Y-2.289
X11.3878Y-1.9851
X11.4028Y-2.3251
X11.4399Y-2.323
X11.4778Y-2.8501
X11.4878Y-2.9001
X11.5864Y-2.2607
X11.5939Y-2.9151
X11.7028Y-2.3201
X11.7428Y-2.8051
X11.7663Y-2.916
X11.7878Y-2.329
X11.8017Y-2.8851
X11.8278Y-2.329
X11.8678Y-2.7451
X11.876Y-2.462
X11.9071Y-2.6373
X11.9477Y-2.1984
X11.9477Y-2.2786
X11.9763Y-2.6664
X12.0867Y-2.3926
X12.0917Y-2.3352
X12.1967Y-2.292
X12.2499Y-2.8976
X12.2967Y-2.3326
X12.3717Y-2.4326
X12.4567Y-2.7476
X12.5717Y-2.6576
X12.6958Y-2.2926
T2
X10.8178Y-0.0228
X10.8493Y0.0244
X10.8808Y-0.0228
X10.9123Y0.0244
X10.9437Y-0.0228
T3
X12.7663Y-3.3164
X12.7663Y-3.3951
X12.7663Y-3.4739
T4
X12.5898Y-3.2928
X12.5898Y-3.3928
X12.5898Y-3.4928
T5
X-0.0291Y-2.8041
X0.0709Y-2.8041
X0.1584Y-2.8041
X0.2584Y-2.8041
X12.0477Y-0.3701
X12.1477Y-0.3701
T6
X-0.222Y-0.0703
X-0.222Y-1.0065
X-0.1284Y-2.5041
X-0.0358Y-4.0018
X-0.035Y-1.7554
X0.028Y0.0297
X0.028Y-0.9065
X0.0584Y-2.5041
X0.1216Y-2.4041
X0.2142Y-3.9018
X0.215Y-1.6554
X0.247Y-3.2529
X0.3084Y-2.4041
X0.497Y-3.1529
X0.5268Y-1.0065
X0.7768Y-0.9065
X0.8993Y-4.0017
X0.9008Y-1.7553
X1.0878Y-2.5041
X1.1493Y-3.9017
X1.1508Y-1.6553
X1.2756Y-1.0065
X1.2757Y-0.0705
X1.3378Y-2.4041
X1.4638Y-3.2529
X1.5256Y-0.9065
X1.5257Y0.0295
X1.6497Y-1.7553
X1.7138Y-3.1529
X1.8353Y-4.0017
X1.8367Y-2.5041
X1.8997Y-1.6553
X2.0245Y-1.0065
X2.0245Y-0.0705
X2.0853Y-3.9017
X2.0867Y-2.4041
X2.2126Y-3.2529
X2.2745Y-0.9065
X2.2745Y0.0295
X2.3985Y-1.7553
X2.4626Y-3.1529
X2.5855Y-2.5041
X2.6485Y-1.6553
X2.7733Y-1.0065
X2.7733Y-0.0705
X2.8355Y-2.4041
X2.9615Y-3.2529
X3.0233Y-0.9065
X3.0233Y0.0295
X3.1473Y-1.7553
X3.2115Y-3.1529
X3.3343Y-2.5041
X3.3973Y-1.6553
X3.5221Y-1.0065
X3.5221Y-0.0705
X3.5843Y-2.4041
X3.7103Y-3.2529
X3.7721Y-0.9065
X3.7721Y0.0295
X3.8961Y-1.7553
X3.9603Y-3.1529
X4.0831Y-2.5041
X4.1461Y-1.6553
X4.2709Y-1.0065
X4.3331Y-2.4041
X4.4591Y-3.2529
X4.5209Y-0.9065
X4.6449Y-1.7553
X4.6453Y-0.0703
X4.6458Y-4.0018
X4.7091Y-3.1529
X4.8319Y-2.5041
X4.8949Y-1.6553
X4.8953Y0.0297
X4.8958Y-3.9018
X5.0197Y-1.0065
X5.0202Y-4.0018
X5.0819Y-2.4041
X5.2079Y-3.2529
X5.2697Y-0.9065
X5.2702Y-3.9018
X5.3937Y-1.7553
X5.3941Y-0.0703
X5.4579Y-3.1529
X5.5808Y-2.5041
X5.6437Y-1.6553
X5.6441Y0.0297
X5.7686Y-1.0065
X5.8308Y-2.4041
X5.9567Y-3.2529
X6.0186Y-0.9065
X6.1426Y-1.7553
X6.143Y-0.0703
X6.2067Y-3.1529
X6.3296Y-2.5041
X6.3926Y-1.6553
X6.393Y0.0297
X6.5174Y-1.0065
X6.5796Y-2.4041
X6.706Y-3.2529
X6.7674Y-0.9065
X6.8914Y-1.7553
X6.8918Y-0.0703
X6.956Y-3.1529
X7.0784Y-2.5041
X7.1414Y-1.6553
X7.1418Y0.0297
X7.2662Y-1.0065
X7.3284Y-2.4041
X7.4499Y-4.0017
X7.4548Y-3.2529
X7.5162Y-0.9065
X7.6402Y-1.7553
X7.6999Y-3.9017
X7.7048Y-3.1529
X7.8272Y-2.5041
X7.8902Y-1.6553
X8.015Y-1.0065
X8.0162Y-0.0702
X8.0772Y-2.4041
X8.2002Y-4.0018
X8.2036Y-3.2529
X8.265Y-0.9065
X8.2662Y0.0298
X8.3874Y-4.0017
X8.389Y-1.7553
X8.4502Y-3.9018
X8.4536Y-3.1529
X8.576Y-2.5041
X8.6374Y-3.9017
X8.639Y-1.6553
X8.7638Y-0.0702
X8.7638Y-1.0065
X8.826Y-2.4041
X9.0138Y0.0298
X9.0138Y-0.9065
X9.1363Y-1.7554
X9.1363Y-4.0018
X9.2315Y-3.2529
X9.3863Y-1.6554
X9.3863Y-3.9018
X9.4815Y-3.1529
X9.5132Y-1.0065
X9.5138Y-0.0702
X9.6073Y-3.2529
X9.7632Y-0.9065
X9.7638Y0.0298
X9.791Y-2.5042
X9.8573Y-3.1529
X9.8876Y-1.0065
X9.9804Y-3.2529
X10.041Y-2.4042
X10.0739Y-1.7554
X10.0739Y-4.0018
X10.1376Y-0.9065
X10.2304Y-3.1529
X10.2621Y-1.0065
X10.2626Y-0.0702
X10.3239Y-1.6554
X10.3239Y-3.9018
X10.5121Y-0.9065
X10.5126Y0.0298
X11.1989Y-0.0702
X11.1989Y-1.0065
X11.1989Y-1.7553
X11.1989Y-4.0017
X11.4489Y0.0298
X11.4489Y-0.9065
X11.4489Y-1.6553
X11.4489Y-3.9017
X11.9477Y-0.0701
X11.9477Y-1.0065
X11.9477Y-1.7553
X11.9477Y-3.2529
X11.9477Y-4.0017
X12.1977Y0.0299
X12.1977Y-0.9065
X12.1977Y-1.6553
X12.1977Y-3.1529
X12.1977Y-3.9017
X12.6965Y-0.0702
X12.6965Y-1.0065
X12.6965Y-1.7553
X12.6965Y-4.0017
X12.9465Y0.0298
X12.9465Y-0.9065
X12.9465Y-1.6553
X12.9465Y-3.9017
T7
X10.9285Y-2.3671
X13.0827Y-2.8404
T8
X9.2886Y-3.0779
X9.5689Y-0.8315
X10.2261Y-3.0779
X10.5064Y-0.8315
T2
G00X10.7371Y0.1996
M15
G01X10.7371Y0.1523
M16
G05
G00X11.0245Y0.1996
M15
G01X11.0245Y0.1523
M16
G05
M30
