%TF.GenerationSoftware,KiCad,Pcbnew,(7.99.0-267-g8440d7258b)*%
%TF.CreationDate,2023-07-07T22:01:13-07:00*%
%TF.ProjectId,1_2og_repro,315f326f-675f-4726-9570-726f2e6b6963,rev?*%
%TF.SameCoordinates,Original*%
%TF.FileFunction,Legend,Top*%
%TF.FilePolarity,Positive*%
%FSLAX46Y46*%
G04 Gerber Fmt 4.6, Leading zero omitted, Abs format (unit mm)*
G04 Created by KiCad (PCBNEW (7.99.0-267-g8440d7258b)) date 2023-07-07 22:01:13*
%MOMM*%
%LPD*%
G01*
G04 APERTURE LIST*
G04 Aperture macros list*
%AMRoundRect*
0 Rectangle with rounded corners*
0 $1 Rounding radius*
0 $2 $3 $4 $5 $6 $7 $8 $9 X,Y pos of 4 corners*
0 Add a 4 corners polygon primitive as box body*
4,1,4,$2,$3,$4,$5,$6,$7,$8,$9,$2,$3,0*
0 Add four circle primitives for the rounded corners*
1,1,$1+$1,$2,$3*
1,1,$1+$1,$4,$5*
1,1,$1+$1,$6,$7*
1,1,$1+$1,$8,$9*
0 Add four rect primitives between the rounded corners*
20,1,$1+$1,$2,$3,$4,$5,0*
20,1,$1+$1,$4,$5,$6,$7,0*
20,1,$1+$1,$6,$7,$8,$9,0*
20,1,$1+$1,$8,$9,$2,$3,0*%
G04 Aperture macros list end*
%ADD10C,0.150000*%
%ADD11C,0.120000*%
%ADD12C,0.000000*%
%ADD13C,1.750000*%
%ADD14C,3.987800*%
%ADD15C,6.000000*%
%ADD16RoundRect,0.250000X0.625000X-0.350000X0.625000X0.350000X-0.625000X0.350000X-0.625000X-0.350000X0*%
%ADD17O,1.750000X1.200000*%
%ADD18O,1.700000X2.700000*%
%ADD19C,3.048000*%
%ADD20R,1.700000X1.700000*%
%ADD21O,1.700000X1.700000*%
G04 APERTURE END LIST*
D10*
%TO.C,H1*%
X302479788Y-74934396D02*
X302479788Y-73934396D01*
X302479788Y-74410586D02*
X303051216Y-74410586D01*
X303051216Y-74934396D02*
X303051216Y-73934396D01*
X304051216Y-74934396D02*
X303479788Y-74934396D01*
X303765502Y-74934396D02*
X303765502Y-73934396D01*
X303765502Y-73934396D02*
X303670264Y-74077253D01*
X303670264Y-74077253D02*
X303575026Y-74172491D01*
X303575026Y-74172491D02*
X303479788Y-74220110D01*
%TO.C,J4*%
X346834285Y-104917667D02*
X347548570Y-104917667D01*
X347548570Y-104917667D02*
X347691427Y-104965286D01*
X347691427Y-104965286D02*
X347786666Y-105060524D01*
X347786666Y-105060524D02*
X347834285Y-105203381D01*
X347834285Y-105203381D02*
X347834285Y-105298619D01*
X347167618Y-104012905D02*
X347834285Y-104012905D01*
X346786666Y-104251000D02*
X347500951Y-104489095D01*
X347500951Y-104489095D02*
X347500951Y-103870048D01*
%TO.C,J2*%
X301695447Y-14040953D02*
X301695447Y-14755238D01*
X301695447Y-14755238D02*
X301647828Y-14898095D01*
X301647828Y-14898095D02*
X301552590Y-14993334D01*
X301552590Y-14993334D02*
X301409733Y-15040953D01*
X301409733Y-15040953D02*
X301314495Y-15040953D01*
X302124019Y-14136191D02*
X302171638Y-14088572D01*
X302171638Y-14088572D02*
X302266876Y-14040953D01*
X302266876Y-14040953D02*
X302504971Y-14040953D01*
X302504971Y-14040953D02*
X302600209Y-14088572D01*
X302600209Y-14088572D02*
X302647828Y-14136191D01*
X302647828Y-14136191D02*
X302695447Y-14231429D01*
X302695447Y-14231429D02*
X302695447Y-14326667D01*
X302695447Y-14326667D02*
X302647828Y-14469524D01*
X302647828Y-14469524D02*
X302076400Y-15040953D01*
X302076400Y-15040953D02*
X302695447Y-15040953D01*
%TO.C,H2*%
X357196827Y-86956525D02*
X357196827Y-85956525D01*
X357196827Y-86432715D02*
X357768255Y-86432715D01*
X357768255Y-86956525D02*
X357768255Y-85956525D01*
X358196827Y-86051763D02*
X358244446Y-86004144D01*
X358244446Y-86004144D02*
X358339684Y-85956525D01*
X358339684Y-85956525D02*
X358577779Y-85956525D01*
X358577779Y-85956525D02*
X358673017Y-86004144D01*
X358673017Y-86004144D02*
X358720636Y-86051763D01*
X358720636Y-86051763D02*
X358768255Y-86147001D01*
X358768255Y-86147001D02*
X358768255Y-86242239D01*
X358768255Y-86242239D02*
X358720636Y-86385096D01*
X358720636Y-86385096D02*
X358149208Y-86956525D01*
X358149208Y-86956525D02*
X358768255Y-86956525D01*
%TO.C,J3*%
X345105447Y-108856582D02*
X345105447Y-109570867D01*
X345105447Y-109570867D02*
X345057828Y-109713724D01*
X345057828Y-109713724D02*
X344962590Y-109808963D01*
X344962590Y-109808963D02*
X344819733Y-109856582D01*
X344819733Y-109856582D02*
X344724495Y-109856582D01*
X345486400Y-108856582D02*
X346105447Y-108856582D01*
X346105447Y-108856582D02*
X345772114Y-109237534D01*
X345772114Y-109237534D02*
X345914971Y-109237534D01*
X345914971Y-109237534D02*
X346010209Y-109285153D01*
X346010209Y-109285153D02*
X346057828Y-109332772D01*
X346057828Y-109332772D02*
X346105447Y-109428010D01*
X346105447Y-109428010D02*
X346105447Y-109666105D01*
X346105447Y-109666105D02*
X346057828Y-109761343D01*
X346057828Y-109761343D02*
X346010209Y-109808963D01*
X346010209Y-109808963D02*
X345914971Y-109856582D01*
X345914971Y-109856582D02*
X345629257Y-109856582D01*
X345629257Y-109856582D02*
X345534019Y-109808963D01*
X345534019Y-109808963D02*
X345486400Y-109761343D01*
D11*
%TO.C,J4*%
X348461666Y-108644334D02*
X356281666Y-108644334D01*
X350061666Y-108644334D02*
X350061666Y-107724334D01*
X356281666Y-108644334D02*
X356281666Y-100524334D01*
X352421666Y-107884334D02*
X354021666Y-107884334D01*
X354021666Y-107884334D02*
X354021666Y-106884334D01*
X348461666Y-107724334D02*
X348461666Y-108644334D01*
X350061666Y-107724334D02*
X348461666Y-107724334D01*
X350061666Y-107444334D02*
X350061666Y-107724334D01*
X350061666Y-107444334D02*
X348846666Y-107444334D01*
X354021666Y-107384334D02*
X356281666Y-107384334D01*
X352421666Y-106884334D02*
X352421666Y-107884334D01*
X354021666Y-106884334D02*
X352421666Y-106884334D01*
X354021666Y-106884334D02*
X356281666Y-106884334D01*
X351921666Y-106084334D02*
X351921666Y-103084334D01*
X356281666Y-106084334D02*
X351921666Y-106084334D01*
X351921666Y-103084334D02*
X356281666Y-103084334D01*
X352421666Y-102284334D02*
X352421666Y-101284334D01*
X354021666Y-102284334D02*
X352421666Y-102284334D01*
X348461666Y-101444334D02*
X350061666Y-101444334D01*
X350061666Y-101444334D02*
X350061666Y-101724334D01*
X352421666Y-101284334D02*
X354021666Y-101284334D01*
X354021666Y-101284334D02*
X354021666Y-102284334D01*
X348461666Y-100524334D02*
X348461666Y-101444334D01*
X350061666Y-100524334D02*
X350061666Y-101444334D01*
X356281666Y-100524334D02*
X348461666Y-100524334D01*
D10*
%TO.C,J2*%
X305878781Y-12128334D02*
X305878781Y-19128334D01*
X305878781Y-19128334D02*
X298178781Y-19128334D01*
X298178781Y-19128334D02*
X298178781Y-12128334D01*
D11*
%TO.C,J3*%
X346768781Y-108393963D02*
X345438781Y-108393963D01*
X346768781Y-107063963D02*
X346768781Y-108393963D01*
X346768781Y-105793963D02*
X346768781Y-100653963D01*
X346768781Y-105793963D02*
X344108781Y-105793963D01*
X346768781Y-100653963D02*
X344108781Y-100653963D01*
X344108781Y-105793963D02*
X344108781Y-100653963D01*
%TD*%
%LPC*%
D12*
G36*
X134141640Y-116560475D02*
G01*
X134141942Y-116559820D01*
X134141928Y-116559067D01*
X134141604Y-116558219D01*
X134140976Y-116557280D01*
X134138831Y-116555140D01*
X134135543Y-116552670D01*
X134131159Y-116549894D01*
X134125728Y-116546835D01*
X134111922Y-116539968D01*
X134094514Y-116532260D01*
X134073893Y-116523904D01*
X134050449Y-116515091D01*
X134024572Y-116506014D01*
X134006315Y-116500287D01*
X133982188Y-116493792D01*
X133953210Y-116486741D01*
X133920398Y-116479355D01*
X133884773Y-116471848D01*
X133847350Y-116464437D01*
X133809149Y-116457340D01*
X133771188Y-116450773D01*
X133588664Y-116419241D01*
X133603425Y-116395365D01*
X133607791Y-116388822D01*
X133613087Y-116382032D01*
X133619250Y-116375045D01*
X133626217Y-116367909D01*
X133633922Y-116360674D01*
X133642305Y-116353389D01*
X133651299Y-116346104D01*
X133660843Y-116338868D01*
X133670872Y-116331727D01*
X133681324Y-116324734D01*
X133692135Y-116317937D01*
X133703240Y-116311385D01*
X133710732Y-116307250D01*
X135336281Y-116307250D01*
X135336340Y-116310536D01*
X135337008Y-116314115D01*
X135338262Y-116317963D01*
X135340070Y-116322054D01*
X135342404Y-116326366D01*
X135345240Y-116330874D01*
X135352293Y-116340381D01*
X135361007Y-116350384D01*
X135371157Y-116360689D01*
X135382516Y-116371104D01*
X135394863Y-116381437D01*
X135407971Y-116391493D01*
X135421616Y-116401082D01*
X135435573Y-116410009D01*
X135449618Y-116418083D01*
X135463528Y-116425112D01*
X135477075Y-116430901D01*
X135483644Y-116433271D01*
X135490038Y-116435259D01*
X135501974Y-116437835D01*
X135515117Y-116439556D01*
X135529337Y-116440443D01*
X135544507Y-116440517D01*
X135560495Y-116439798D01*
X135577175Y-116438309D01*
X135594416Y-116436067D01*
X135612088Y-116433097D01*
X135630066Y-116429418D01*
X135648218Y-116425049D01*
X135666414Y-116420015D01*
X135684529Y-116414333D01*
X135702431Y-116408025D01*
X135719991Y-116401112D01*
X135737082Y-116393615D01*
X135753572Y-116385555D01*
X135775068Y-116374354D01*
X135783775Y-116369701D01*
X135791224Y-116365576D01*
X135794501Y-116363689D01*
X135797491Y-116361905D01*
X135800205Y-116360214D01*
X135802651Y-116358608D01*
X135804841Y-116357076D01*
X135806782Y-116355609D01*
X135808484Y-116354198D01*
X135809958Y-116352832D01*
X135811212Y-116351502D01*
X135812256Y-116350198D01*
X135813100Y-116348913D01*
X135813752Y-116347633D01*
X135814223Y-116346351D01*
X135814522Y-116345058D01*
X135814659Y-116343743D01*
X135814644Y-116342396D01*
X135814484Y-116341009D01*
X135814191Y-116339572D01*
X135813773Y-116338074D01*
X135813241Y-116336506D01*
X135812602Y-116334860D01*
X135811868Y-116333124D01*
X135810152Y-116329347D01*
X135806697Y-116322594D01*
X135802568Y-116315602D01*
X135797836Y-116308439D01*
X135792569Y-116301175D01*
X135786835Y-116293878D01*
X135780702Y-116286617D01*
X135774241Y-116279460D01*
X135767519Y-116272476D01*
X135760606Y-116265734D01*
X135753570Y-116259302D01*
X135746479Y-116253247D01*
X135739404Y-116247641D01*
X135732411Y-116242551D01*
X135725570Y-116238044D01*
X135718951Y-116234192D01*
X135712620Y-116231060D01*
X135709284Y-116229702D01*
X135705622Y-116228345D01*
X135697471Y-116225673D01*
X135688458Y-116223121D01*
X135678873Y-116220765D01*
X135669009Y-116218679D01*
X135659154Y-116216940D01*
X135649600Y-116215622D01*
X135645027Y-116215146D01*
X135640638Y-116214804D01*
X135635888Y-116214483D01*
X135630632Y-116214319D01*
X135618809Y-116214443D01*
X135605588Y-116215138D01*
X135591381Y-116216369D01*
X135576605Y-116218103D01*
X135561674Y-116220304D01*
X135547003Y-116222933D01*
X135533009Y-116225959D01*
X135519866Y-116229147D01*
X135505758Y-116232965D01*
X135490919Y-116237321D01*
X135475584Y-116242125D01*
X135444360Y-116252711D01*
X135413962Y-116264000D01*
X135386264Y-116275264D01*
X135374013Y-116280660D01*
X135363140Y-116285777D01*
X135353878Y-116290525D01*
X135346464Y-116294814D01*
X135341131Y-116298552D01*
X135339317Y-116300186D01*
X135338111Y-116301649D01*
X135336862Y-116304279D01*
X135336281Y-116307250D01*
X133710732Y-116307250D01*
X133714577Y-116305128D01*
X133726082Y-116299213D01*
X133737692Y-116293692D01*
X133749342Y-116288611D01*
X133765140Y-116282515D01*
X133783835Y-116276403D01*
X133828876Y-116264309D01*
X133882383Y-116252677D01*
X133942275Y-116241854D01*
X134006470Y-116232187D01*
X134072886Y-116224024D01*
X134139443Y-116217711D01*
X134204058Y-116213597D01*
X134394137Y-116200414D01*
X134590643Y-116178087D01*
X134791550Y-116147048D01*
X134994839Y-116107726D01*
X135198488Y-116060550D01*
X135400475Y-116005952D01*
X135598777Y-115944360D01*
X135791373Y-115876203D01*
X135863761Y-115848310D01*
X135926538Y-115823326D01*
X135982710Y-115799873D01*
X136035280Y-115776573D01*
X136087251Y-115752047D01*
X136141627Y-115724917D01*
X136201412Y-115693807D01*
X136269610Y-115657336D01*
X136370459Y-115603637D01*
X136415917Y-115580206D01*
X136458383Y-115558929D01*
X136498096Y-115539711D01*
X136535295Y-115522458D01*
X136570218Y-115507075D01*
X136603103Y-115493468D01*
X136634192Y-115481544D01*
X136663721Y-115471207D01*
X136691928Y-115462363D01*
X136719055Y-115454917D01*
X136745339Y-115448776D01*
X136771019Y-115443845D01*
X136796334Y-115440031D01*
X136821522Y-115437237D01*
X136837788Y-115435792D01*
X136853740Y-115434700D01*
X136869280Y-115433948D01*
X136884313Y-115433527D01*
X136898743Y-115433423D01*
X136912473Y-115433627D01*
X136925409Y-115434126D01*
X136937452Y-115434911D01*
X136948507Y-115435968D01*
X136958479Y-115437289D01*
X136967270Y-115438860D01*
X136974784Y-115440670D01*
X136978033Y-115441661D01*
X136980926Y-115442708D01*
X136983452Y-115443810D01*
X136985599Y-115444964D01*
X136987355Y-115446170D01*
X136988708Y-115447425D01*
X136989645Y-115448730D01*
X136990155Y-115450082D01*
X136990063Y-115451712D01*
X136989219Y-115453842D01*
X136985382Y-115459514D01*
X136978848Y-115466932D01*
X136969826Y-115475930D01*
X136945138Y-115498005D01*
X136912973Y-115524418D01*
X136874981Y-115553844D01*
X136832818Y-115584960D01*
X136788131Y-115616443D01*
X136742576Y-115646970D01*
X136721012Y-115660912D01*
X136694343Y-115677481D01*
X136629892Y-115716004D01*
X136557628Y-115757540D01*
X136485958Y-115797090D01*
X136427761Y-115829517D01*
X136375372Y-115860093D01*
X136328529Y-115889140D01*
X136286974Y-115916984D01*
X136268098Y-115930556D01*
X136250447Y-115943950D01*
X136233988Y-115957205D01*
X136218688Y-115970361D01*
X136204515Y-115983461D01*
X136191436Y-115996543D01*
X136179420Y-116009650D01*
X136168433Y-116022822D01*
X136158443Y-116036098D01*
X136149418Y-116049520D01*
X136141324Y-116063128D01*
X136134132Y-116076963D01*
X136127804Y-116091065D01*
X136122314Y-116105476D01*
X136117624Y-116120235D01*
X136113703Y-116135383D01*
X136110521Y-116150961D01*
X136108043Y-116167009D01*
X136106237Y-116183568D01*
X136105071Y-116200678D01*
X136104513Y-116218381D01*
X136104528Y-116236716D01*
X136106155Y-116275447D01*
X136110247Y-116332014D01*
X136116521Y-116400037D01*
X136127870Y-116507048D01*
X136147187Y-116680581D01*
X136156088Y-116753414D01*
X136169917Y-116856981D01*
X136186836Y-116977474D01*
X136205010Y-117101082D01*
X136234229Y-117296276D01*
X136252364Y-117426204D01*
X136268507Y-117560273D01*
X136291746Y-117767897D01*
X136326213Y-118088264D01*
X136339785Y-118228409D01*
X136351211Y-118358910D01*
X136360714Y-118482551D01*
X136368516Y-118602115D01*
X136374839Y-118720387D01*
X136379907Y-118840152D01*
X136383776Y-118970569D01*
X136385400Y-119098550D01*
X136384769Y-119224141D01*
X136381877Y-119347389D01*
X136376717Y-119468340D01*
X136369280Y-119587041D01*
X136359561Y-119703539D01*
X136347551Y-119817878D01*
X136333244Y-119930108D01*
X136316631Y-120040272D01*
X136297705Y-120148419D01*
X136276461Y-120254594D01*
X136252890Y-120358844D01*
X136226983Y-120461215D01*
X136198736Y-120561755D01*
X136168140Y-120660509D01*
X136127880Y-120777144D01*
X136083705Y-120890047D01*
X136035040Y-120999953D01*
X135981308Y-121107597D01*
X135921930Y-121213714D01*
X135856331Y-121319042D01*
X135783934Y-121424312D01*
X135704164Y-121530264D01*
X135616441Y-121637631D01*
X135520190Y-121747147D01*
X135414835Y-121859551D01*
X135299798Y-121975577D01*
X135174503Y-122095959D01*
X135038373Y-122221434D01*
X134890832Y-122352738D01*
X134731302Y-122490604D01*
X134510270Y-122673148D01*
X134276314Y-122854245D01*
X134023050Y-123038156D01*
X133744093Y-123229145D01*
X133433059Y-123431475D01*
X133083561Y-123649408D01*
X132689218Y-123887208D01*
X132243644Y-124149137D01*
X131845778Y-124374219D01*
X131455388Y-124582320D01*
X131073946Y-124772773D01*
X130702930Y-124944918D01*
X130343816Y-125098093D01*
X129998080Y-125231635D01*
X129667195Y-125344881D01*
X129507785Y-125393686D01*
X129352640Y-125437169D01*
X129131265Y-125487112D01*
X128750626Y-125565245D01*
X128298051Y-125654102D01*
X127860864Y-125736223D01*
X127624097Y-125777200D01*
X127393480Y-125813013D01*
X127168741Y-125843667D01*
X126949606Y-125869168D01*
X126735800Y-125889521D01*
X126527051Y-125904731D01*
X126323084Y-125914804D01*
X126123628Y-125919745D01*
X125991109Y-125920819D01*
X125874692Y-125919897D01*
X125768231Y-125916500D01*
X125665579Y-125910148D01*
X125560591Y-125900362D01*
X125447122Y-125886662D01*
X125319025Y-125868570D01*
X125170154Y-125845605D01*
X124898192Y-125804231D01*
X124605072Y-125761945D01*
X124333259Y-125722327D01*
X124083657Y-125682965D01*
X123847529Y-125642070D01*
X123616137Y-125597854D01*
X123403055Y-125553204D01*
X123380743Y-125548529D01*
X123132608Y-125492307D01*
X122862997Y-125427401D01*
X122563168Y-125352023D01*
X122453200Y-125323733D01*
X122357216Y-125297956D01*
X122271236Y-125273412D01*
X122191281Y-125248825D01*
X122113369Y-125222914D01*
X122033520Y-125194405D01*
X121947754Y-125162018D01*
X121852090Y-125124476D01*
X121602162Y-125020667D01*
X121591616Y-125015966D01*
X121479097Y-124965817D01*
X121356753Y-124908692D01*
X121234721Y-124849060D01*
X121112594Y-124786688D01*
X120989960Y-124721344D01*
X120866414Y-124652793D01*
X120664702Y-124534360D01*
X123529805Y-124534360D01*
X123530587Y-124555087D01*
X123532338Y-124575277D01*
X123533201Y-124582903D01*
X123534125Y-124589957D01*
X123535141Y-124596506D01*
X123536276Y-124602616D01*
X123537559Y-124608357D01*
X123539021Y-124613797D01*
X123540688Y-124619002D01*
X123542591Y-124624040D01*
X123544758Y-124628981D01*
X123547219Y-124633890D01*
X123550002Y-124638838D01*
X123553136Y-124643890D01*
X123556650Y-124649114D01*
X123560573Y-124654579D01*
X123564934Y-124660353D01*
X123569762Y-124666503D01*
X123576918Y-124675463D01*
X123584005Y-124683806D01*
X123591095Y-124691581D01*
X123598260Y-124698836D01*
X123605574Y-124705620D01*
X123613109Y-124711985D01*
X123620938Y-124717978D01*
X123629132Y-124723648D01*
X123637766Y-124729046D01*
X123646910Y-124734220D01*
X123656638Y-124739220D01*
X123667022Y-124744095D01*
X123678136Y-124748894D01*
X123690051Y-124753667D01*
X123702839Y-124758463D01*
X123716574Y-124763331D01*
X123747274Y-124772743D01*
X123781542Y-124780995D01*
X123820172Y-124788193D01*
X123863957Y-124794443D01*
X123913692Y-124799851D01*
X123970170Y-124804524D01*
X124034185Y-124808566D01*
X124106530Y-124812084D01*
X124144843Y-124814054D01*
X124187198Y-124816845D01*
X124278422Y-124824349D01*
X124368985Y-124833515D01*
X124410513Y-124838384D01*
X124447669Y-124843263D01*
X124734373Y-124878118D01*
X125024985Y-124902486D01*
X125316521Y-124916386D01*
X125605997Y-124919842D01*
X125890424Y-124912874D01*
X126166819Y-124895506D01*
X126432195Y-124867757D01*
X126559818Y-124849997D01*
X126683567Y-124829651D01*
X126851163Y-124799437D01*
X126840670Y-124775520D01*
X126801392Y-124693665D01*
X126784165Y-124660041D01*
X127300799Y-124660041D01*
X127301919Y-124697314D01*
X127302485Y-124702813D01*
X127303174Y-124708193D01*
X127303984Y-124713455D01*
X127304915Y-124718596D01*
X127305964Y-124723615D01*
X127307132Y-124728511D01*
X127308418Y-124733283D01*
X127309819Y-124737928D01*
X127311338Y-124742446D01*
X127312970Y-124746835D01*
X127314715Y-124751093D01*
X127316574Y-124755220D01*
X127318543Y-124759213D01*
X127320624Y-124763071D01*
X127322815Y-124766793D01*
X127325114Y-124770377D01*
X127327521Y-124773822D01*
X127330035Y-124777127D01*
X127332654Y-124780289D01*
X127335379Y-124783309D01*
X127338207Y-124786183D01*
X127341138Y-124788911D01*
X127344171Y-124791491D01*
X127347306Y-124793921D01*
X127350540Y-124796201D01*
X127353873Y-124798329D01*
X127357305Y-124800303D01*
X127360834Y-124802123D01*
X127364459Y-124803785D01*
X127368179Y-124805290D01*
X127371993Y-124806635D01*
X127375901Y-124807821D01*
X127391898Y-124810284D01*
X127413717Y-124810729D01*
X127474705Y-124805584D01*
X127558653Y-124792432D01*
X127665347Y-124771318D01*
X127794576Y-124742285D01*
X127946128Y-124705380D01*
X128119791Y-124660648D01*
X128315350Y-124608134D01*
X128426239Y-124577914D01*
X128567967Y-124540464D01*
X128870402Y-124462204D01*
X129290443Y-124353902D01*
X129461804Y-124307936D01*
X129613411Y-124265726D01*
X129749781Y-124225994D01*
X129875428Y-124187463D01*
X129994866Y-124148858D01*
X130112613Y-124108900D01*
X130185949Y-124083351D01*
X130264977Y-124056339D01*
X130401854Y-124010452D01*
X130469068Y-123987472D01*
X130500793Y-123975824D01*
X130531261Y-123964073D01*
X130560467Y-123952223D01*
X130588409Y-123940275D01*
X130615083Y-123928233D01*
X130640486Y-123916098D01*
X130664616Y-123903874D01*
X130687468Y-123891561D01*
X130709041Y-123879165D01*
X130729330Y-123866686D01*
X130748333Y-123854127D01*
X130766047Y-123841491D01*
X130782468Y-123828780D01*
X130797595Y-123815996D01*
X130811422Y-123803142D01*
X130823947Y-123790220D01*
X130835167Y-123777235D01*
X130845080Y-123764186D01*
X130853681Y-123751076D01*
X130860968Y-123737910D01*
X130866938Y-123724688D01*
X130871587Y-123711413D01*
X130874913Y-123698089D01*
X130876913Y-123684717D01*
X130877582Y-123671299D01*
X130876918Y-123657838D01*
X130874919Y-123644338D01*
X130871581Y-123630799D01*
X130866901Y-123617225D01*
X130860875Y-123603619D01*
X130852089Y-123587339D01*
X130840712Y-123569398D01*
X130826664Y-123549717D01*
X130809866Y-123528214D01*
X130767702Y-123479417D01*
X130713587Y-123422363D01*
X130646886Y-123356403D01*
X130566965Y-123280891D01*
X130473189Y-123195179D01*
X130364925Y-123098621D01*
X130112243Y-122870509D01*
X129991409Y-122757058D01*
X129864887Y-122634840D01*
X129566700Y-122336605D01*
X129161529Y-121920791D01*
X128825406Y-121575449D01*
X128577460Y-121323621D01*
X128495832Y-121241099D01*
X128410878Y-121154467D01*
X128332810Y-121073979D01*
X128271838Y-121009891D01*
X128188908Y-120922668D01*
X128114171Y-120846352D01*
X128079532Y-120811977D01*
X128046530Y-120779959D01*
X128015029Y-120750178D01*
X127984891Y-120722510D01*
X127955978Y-120696831D01*
X127928154Y-120673019D01*
X127901282Y-120650952D01*
X127875226Y-120630507D01*
X127849847Y-120611560D01*
X127825009Y-120593990D01*
X127800575Y-120577674D01*
X127776407Y-120562488D01*
X127760439Y-120552962D01*
X127746173Y-120544588D01*
X127733499Y-120537338D01*
X127727724Y-120534127D01*
X127722305Y-120531187D01*
X127717229Y-120528515D01*
X127712481Y-120526109D01*
X127708047Y-120523963D01*
X127703913Y-120522075D01*
X127700066Y-120520442D01*
X127696493Y-120519061D01*
X127693178Y-120517927D01*
X127690107Y-120517039D01*
X127687268Y-120516393D01*
X127684645Y-120515984D01*
X127682226Y-120515810D01*
X127681088Y-120515810D01*
X127679997Y-120515867D01*
X127678947Y-120515982D01*
X127677942Y-120516153D01*
X127676975Y-120516380D01*
X127676049Y-120516664D01*
X127675158Y-120517003D01*
X127674303Y-120517396D01*
X127673480Y-120517844D01*
X127672690Y-120518346D01*
X127671930Y-120518902D01*
X127671198Y-120519512D01*
X127669811Y-120520889D01*
X127668515Y-120522474D01*
X127667299Y-120524265D01*
X127666146Y-120526257D01*
X127665043Y-120528448D01*
X127663976Y-120530833D01*
X127662931Y-120533410D01*
X127646208Y-120583595D01*
X127630505Y-120645049D01*
X127615820Y-120717846D01*
X127602144Y-120802060D01*
X127589476Y-120897770D01*
X127577808Y-121005047D01*
X127567135Y-121123968D01*
X127557453Y-121254607D01*
X127550021Y-121354918D01*
X127539225Y-121484345D01*
X127526538Y-121626346D01*
X127513430Y-121764380D01*
X127470621Y-122212919D01*
X127435154Y-122622029D01*
X127402546Y-123047775D01*
X127368316Y-123546225D01*
X127350255Y-123800608D01*
X127331894Y-124040855D01*
X127324565Y-124139983D01*
X127317892Y-124242152D01*
X127307250Y-124439775D01*
X127303648Y-124527312D01*
X127301437Y-124602054D01*
X127300799Y-124660041D01*
X126784165Y-124660041D01*
X126760389Y-124613635D01*
X126715447Y-124531780D01*
X126664354Y-124444449D01*
X126604897Y-124347991D01*
X126534864Y-124238756D01*
X126452040Y-124113093D01*
X126354214Y-123967354D01*
X125603891Y-122817084D01*
X124883876Y-121694860D01*
X124807397Y-121572028D01*
X124738934Y-121465190D01*
X124707619Y-121417641D01*
X124678200Y-121373933D01*
X124650641Y-121334018D01*
X124624905Y-121297842D01*
X124600957Y-121265354D01*
X124578762Y-121236504D01*
X124558281Y-121211237D01*
X124539480Y-121189502D01*
X124522322Y-121171249D01*
X124506771Y-121156424D01*
X124492792Y-121144978D01*
X124480348Y-121136857D01*
X124475276Y-121134044D01*
X124470426Y-121131513D01*
X124465769Y-121129257D01*
X124461277Y-121127272D01*
X124456922Y-121125555D01*
X124452673Y-121124100D01*
X124448504Y-121122903D01*
X124444383Y-121121959D01*
X124440285Y-121121265D01*
X124436179Y-121120815D01*
X124432036Y-121120606D01*
X124427830Y-121120632D01*
X124423529Y-121120889D01*
X124419106Y-121121373D01*
X124414532Y-121122079D01*
X124409779Y-121123003D01*
X124396710Y-121126990D01*
X124384296Y-121133403D01*
X124372454Y-121142479D01*
X124361097Y-121154455D01*
X124350145Y-121169568D01*
X124339511Y-121188055D01*
X124329110Y-121210153D01*
X124318859Y-121236101D01*
X124308673Y-121266134D01*
X124298469Y-121300489D01*
X124288162Y-121339404D01*
X124277667Y-121383118D01*
X124255777Y-121485884D01*
X124232126Y-121610687D01*
X124216413Y-121693780D01*
X124198061Y-121783944D01*
X124179403Y-121870283D01*
X124162773Y-121941906D01*
X124124408Y-122101299D01*
X124085873Y-122269433D01*
X124039215Y-122482066D01*
X123976479Y-122774954D01*
X123919800Y-123038778D01*
X123870285Y-123262988D01*
X123826577Y-123452976D01*
X123787318Y-123614134D01*
X123751150Y-123751855D01*
X123716715Y-123871530D01*
X123682654Y-123978551D01*
X123647609Y-124078312D01*
X123613552Y-124172568D01*
X123598942Y-124214983D01*
X123585882Y-124254519D01*
X123574320Y-124291368D01*
X123564212Y-124325726D01*
X123555506Y-124357790D01*
X123548156Y-124387753D01*
X123542112Y-124415812D01*
X123537328Y-124442160D01*
X123533752Y-124466994D01*
X123531339Y-124490509D01*
X123530040Y-124512899D01*
X123529805Y-124534360D01*
X120664702Y-124534360D01*
X120614944Y-124505145D01*
X120354913Y-124341883D01*
X120083054Y-124161144D01*
X119796096Y-123961066D01*
X119605540Y-123823584D01*
X119427971Y-123691323D01*
X119363378Y-123641349D01*
X119262348Y-123563184D01*
X119107635Y-123438070D01*
X118972636Y-123323255D01*
X120553752Y-123323255D01*
X120554247Y-123339680D01*
X120555490Y-123355760D01*
X120557486Y-123371510D01*
X120560242Y-123386947D01*
X120563763Y-123402085D01*
X120568055Y-123416939D01*
X120573126Y-123431525D01*
X120578979Y-123445857D01*
X120585622Y-123459950D01*
X120593061Y-123473819D01*
X120601300Y-123487481D01*
X120610348Y-123500948D01*
X120620208Y-123514237D01*
X120630889Y-123527363D01*
X120642394Y-123540341D01*
X120654732Y-123553185D01*
X120667907Y-123565912D01*
X120681924Y-123578536D01*
X120696793Y-123591071D01*
X120729101Y-123615939D01*
X120764880Y-123640635D01*
X120805817Y-123664429D01*
X120882551Y-123706014D01*
X121112553Y-123826634D01*
X121393174Y-123970646D01*
X121662699Y-124106197D01*
X121773827Y-124160061D01*
X121894108Y-124215869D01*
X122018092Y-124271312D01*
X122140337Y-124324082D01*
X122255394Y-124371870D01*
X122357818Y-124412369D01*
X122442162Y-124443271D01*
X122475852Y-124454402D01*
X122502980Y-124462268D01*
X122519102Y-124466297D01*
X122535525Y-124469944D01*
X122552168Y-124473203D01*
X122568945Y-124476070D01*
X122585776Y-124478541D01*
X122602577Y-124480610D01*
X122619265Y-124482272D01*
X122635758Y-124483523D01*
X122651972Y-124484357D01*
X122667824Y-124484770D01*
X122683231Y-124484758D01*
X122698112Y-124484315D01*
X122712381Y-124483436D01*
X122725959Y-124482116D01*
X122738759Y-124480353D01*
X122750700Y-124478138D01*
X122797284Y-124468237D01*
X122767775Y-124359097D01*
X122761017Y-124334345D01*
X122752555Y-124305656D01*
X122731990Y-124240586D01*
X122709017Y-124172140D01*
X122686572Y-124108568D01*
X122650548Y-124013452D01*
X122604980Y-123902866D01*
X122532560Y-123735944D01*
X122415980Y-123471816D01*
X122375482Y-123376538D01*
X122324132Y-123251275D01*
X122268693Y-123112343D01*
X122215928Y-122976055D01*
X122067002Y-122590106D01*
X121948480Y-122291523D01*
X121829176Y-122003587D01*
X121677911Y-121649581D01*
X121619582Y-121515430D01*
X121570257Y-121403857D01*
X121528865Y-121312702D01*
X121510809Y-121274107D01*
X121494333Y-121239806D01*
X121479306Y-121209530D01*
X121465591Y-121183008D01*
X121453056Y-121159971D01*
X121441565Y-121140148D01*
X121430986Y-121123270D01*
X121421184Y-121109066D01*
X121412024Y-121097267D01*
X121403375Y-121087602D01*
X121391390Y-121076448D01*
X121386045Y-121073193D01*
X121380811Y-121072054D01*
X121378160Y-121072411D01*
X121375447Y-121073457D01*
X121369710Y-121077830D01*
X121363362Y-121085598D01*
X121356160Y-121097187D01*
X121347863Y-121113024D01*
X121338232Y-121133534D01*
X121314001Y-121190282D01*
X121281540Y-121270843D01*
X121238920Y-121378625D01*
X121142120Y-121627177D01*
X121045553Y-121888359D01*
X120943396Y-122178116D01*
X120829822Y-122512395D01*
X120810672Y-122568818D01*
X120789976Y-122627766D01*
X120768410Y-122687492D01*
X120746648Y-122746244D01*
X120725364Y-122802275D01*
X120705232Y-122853834D01*
X120686927Y-122899173D01*
X120671122Y-122936541D01*
X120656764Y-122969758D01*
X120642590Y-123003199D01*
X120616262Y-123067107D01*
X120604840Y-123095747D01*
X120595067Y-123120963D01*
X120587309Y-123141840D01*
X120581933Y-123157468D01*
X120570706Y-123197386D01*
X120562274Y-123235446D01*
X120559123Y-123253817D01*
X120556689Y-123271768D01*
X120554979Y-123289315D01*
X120553998Y-123306472D01*
X120553752Y-123323255D01*
X118972636Y-123323255D01*
X118962793Y-123314884D01*
X118826786Y-123192527D01*
X118698575Y-123069902D01*
X118577122Y-122945913D01*
X118461391Y-122819461D01*
X118350343Y-122689448D01*
X118242941Y-122554777D01*
X118138147Y-122414350D01*
X118034923Y-122267070D01*
X117932233Y-122111840D01*
X117830554Y-121949975D01*
X117829038Y-121947561D01*
X117724301Y-121773137D01*
X117665186Y-121670244D01*
X118702243Y-121670244D01*
X118702900Y-121692882D01*
X118704970Y-121715578D01*
X118708395Y-121738641D01*
X118713117Y-121762380D01*
X118719081Y-121787102D01*
X118729800Y-121823617D01*
X118742744Y-121859710D01*
X118758158Y-121895679D01*
X118776284Y-121931816D01*
X118797368Y-121968418D01*
X118821653Y-122005780D01*
X118849383Y-122044200D01*
X118880800Y-122083970D01*
X118916150Y-122125388D01*
X118955676Y-122168749D01*
X118999620Y-122214348D01*
X119048229Y-122262481D01*
X119101744Y-122313443D01*
X119160411Y-122367531D01*
X119294171Y-122486263D01*
X119367949Y-122550940D01*
X119442681Y-122618120D01*
X119509661Y-122679847D01*
X119537524Y-122706180D01*
X119560182Y-122728166D01*
X119603113Y-122769893D01*
X119623448Y-122789124D01*
X119643077Y-122807305D01*
X119662035Y-122824466D01*
X119680357Y-122840638D01*
X119698079Y-122855849D01*
X119715235Y-122870128D01*
X119731862Y-122883507D01*
X119747994Y-122896012D01*
X119763668Y-122907675D01*
X119778917Y-122918525D01*
X119793777Y-122928590D01*
X119808285Y-122937901D01*
X119822474Y-122946488D01*
X119836382Y-122954378D01*
X119854134Y-122963643D01*
X119871771Y-122972245D01*
X119889139Y-122980148D01*
X119906087Y-122987307D01*
X119922463Y-122993686D01*
X119938113Y-122999243D01*
X119952886Y-123003938D01*
X119966626Y-123007730D01*
X119979185Y-123010580D01*
X119984973Y-123011639D01*
X119990408Y-123012447D01*
X119995471Y-123012999D01*
X120000143Y-123013291D01*
X120004406Y-123013317D01*
X120008237Y-123013072D01*
X120011622Y-123012551D01*
X120014539Y-123011749D01*
X120016970Y-123010662D01*
X120018895Y-123009284D01*
X120020296Y-123007609D01*
X120021153Y-123005633D01*
X120021447Y-123003352D01*
X120021160Y-123000760D01*
X120020527Y-122996441D01*
X120019744Y-122988930D01*
X120017822Y-122965967D01*
X120013196Y-122899664D01*
X120004860Y-122790229D01*
X119992196Y-122672616D01*
X119975123Y-122546283D01*
X119953555Y-122410688D01*
X119927409Y-122265288D01*
X119896602Y-122109541D01*
X119861051Y-121942905D01*
X119820670Y-121764839D01*
X119740621Y-121415278D01*
X119707430Y-121264298D01*
X119678785Y-121129131D01*
X119654674Y-121009737D01*
X119635092Y-120906075D01*
X119620028Y-120818104D01*
X119609474Y-120745786D01*
X119600080Y-120679190D01*
X119596063Y-120650723D01*
X119581815Y-120564292D01*
X119574300Y-120524038D01*
X119566488Y-120485612D01*
X119558345Y-120448905D01*
X119553172Y-120427551D01*
X119760266Y-120427551D01*
X119760424Y-120442421D01*
X119761583Y-120460252D01*
X119763676Y-120480694D01*
X119770389Y-120527995D01*
X119780017Y-120581501D01*
X119792013Y-120638393D01*
X119805831Y-120695850D01*
X119820921Y-120751049D01*
X119836740Y-120801169D01*
X119865077Y-120898694D01*
X119911429Y-121088923D01*
X120102076Y-121934945D01*
X120264920Y-122659180D01*
X120315360Y-122880506D01*
X120335001Y-122962904D01*
X120335652Y-122962957D01*
X120336799Y-122962618D01*
X120338413Y-122961903D01*
X120340463Y-122960827D01*
X120345757Y-122957653D01*
X120352442Y-122953222D01*
X120360281Y-122947659D01*
X120369036Y-122941088D01*
X120378470Y-122933632D01*
X120388345Y-122925417D01*
X120399362Y-122915886D01*
X120410714Y-122904827D01*
X120422324Y-122892360D01*
X120434115Y-122878608D01*
X120446014Y-122863692D01*
X120457943Y-122847733D01*
X120469827Y-122830856D01*
X120481590Y-122813179D01*
X120493157Y-122794825D01*
X120504450Y-122775916D01*
X120515396Y-122756575D01*
X120525918Y-122736922D01*
X120535940Y-122717079D01*
X120545386Y-122697169D01*
X120554181Y-122677312D01*
X120562247Y-122657631D01*
X120623550Y-122487376D01*
X120733733Y-122174865D01*
X120791188Y-122010949D01*
X120844071Y-121863209D01*
X120893155Y-121729611D01*
X120939214Y-121608121D01*
X120983018Y-121496704D01*
X121025339Y-121393326D01*
X121066950Y-121295951D01*
X121108623Y-121202549D01*
X121128963Y-121157257D01*
X121147184Y-121115509D01*
X121163356Y-121077020D01*
X121168778Y-121063451D01*
X121177548Y-121041507D01*
X121189829Y-121008688D01*
X121200269Y-120978280D01*
X121208938Y-120950000D01*
X121215904Y-120923565D01*
X121221236Y-120898692D01*
X121225005Y-120875098D01*
X121227278Y-120852502D01*
X121228127Y-120830619D01*
X121227620Y-120809167D01*
X121225826Y-120787862D01*
X121225487Y-120785449D01*
X121644640Y-120785449D01*
X121644755Y-120797724D01*
X121645884Y-120826341D01*
X121648170Y-120860650D01*
X121651315Y-120892510D01*
X121655839Y-120925086D01*
X121661843Y-120958647D01*
X121669427Y-120993463D01*
X121678693Y-121029802D01*
X121689741Y-121067934D01*
X121717589Y-121150651D01*
X121753775Y-121243768D01*
X121799106Y-121349437D01*
X121854389Y-121469814D01*
X121920430Y-121607048D01*
X121972210Y-121715708D01*
X122040141Y-121870130D01*
X122375174Y-122669007D01*
X122658826Y-123339091D01*
X122915124Y-123931391D01*
X123105229Y-124357036D01*
X123163323Y-124479592D01*
X123181006Y-124513443D01*
X123190304Y-124527158D01*
X123192713Y-124528141D01*
X123195575Y-124528152D01*
X123198863Y-124527227D01*
X123202552Y-124525405D01*
X123211038Y-124519219D01*
X123220827Y-124509893D01*
X123231718Y-124497727D01*
X123243512Y-124483024D01*
X123256006Y-124466082D01*
X123268996Y-124447203D01*
X123282284Y-124426686D01*
X123295667Y-124404832D01*
X123308943Y-124381941D01*
X123321911Y-124358315D01*
X123334368Y-124334253D01*
X123346114Y-124310055D01*
X123356947Y-124286022D01*
X123366665Y-124262455D01*
X123382607Y-124220347D01*
X123398596Y-124174140D01*
X123414478Y-124124342D01*
X123430096Y-124071461D01*
X123445293Y-124016008D01*
X123459914Y-123958489D01*
X123473802Y-123899415D01*
X123486803Y-123839293D01*
X123766765Y-122544978D01*
X123912848Y-121888156D01*
X123990323Y-121554787D01*
X124032719Y-121401107D01*
X124065858Y-121277902D01*
X124079228Y-121226409D01*
X124090609Y-121180951D01*
X124100110Y-121141002D01*
X124107840Y-121106034D01*
X124113906Y-121075519D01*
X124118417Y-121048930D01*
X124120236Y-121035166D01*
X124121483Y-121025739D01*
X124123209Y-121005417D01*
X124123706Y-120987439D01*
X124123082Y-120971277D01*
X124121446Y-120956402D01*
X124118906Y-120942288D01*
X124116144Y-120931021D01*
X124112773Y-120920487D01*
X124108740Y-120910648D01*
X124103987Y-120901460D01*
X124101324Y-120897100D01*
X124098461Y-120892887D01*
X124095391Y-120888818D01*
X124092107Y-120884887D01*
X124088603Y-120881090D01*
X124084872Y-120877421D01*
X124080906Y-120873875D01*
X124079046Y-120872360D01*
X124678459Y-120872360D01*
X124678500Y-120885534D01*
X124679984Y-120899864D01*
X124682991Y-120915548D01*
X124687606Y-120932792D01*
X124693910Y-120951793D01*
X124701986Y-120972756D01*
X124711917Y-120995883D01*
X124723784Y-121021374D01*
X124753660Y-121080256D01*
X124792274Y-121151016D01*
X124840286Y-121235269D01*
X124881675Y-121306033D01*
X124923079Y-121374374D01*
X124965760Y-121442169D01*
X125010986Y-121511293D01*
X125060020Y-121583623D01*
X125114129Y-121661035D01*
X125174577Y-121745403D01*
X125242629Y-121838606D01*
X125462998Y-122144493D01*
X125684643Y-122464732D01*
X125942826Y-122851083D01*
X126272808Y-123355307D01*
X126517549Y-123728863D01*
X126744140Y-124071113D01*
X126779508Y-124124160D01*
X126810817Y-124171003D01*
X126838348Y-124212018D01*
X126862376Y-124247584D01*
X126883182Y-124278076D01*
X126892462Y-124291538D01*
X126901041Y-124303872D01*
X126908954Y-124315127D01*
X126916234Y-124325348D01*
X126922917Y-124334584D01*
X126929038Y-124342880D01*
X126934632Y-124350285D01*
X126939732Y-124356846D01*
X126944374Y-124362610D01*
X126948594Y-124367622D01*
X126952424Y-124371932D01*
X126955901Y-124375585D01*
X126959059Y-124378630D01*
X126961932Y-124381112D01*
X126963272Y-124382157D01*
X126964556Y-124383079D01*
X126965785Y-124383884D01*
X126966966Y-124384579D01*
X126968100Y-124385168D01*
X126969195Y-124385658D01*
X126970253Y-124386054D01*
X126971279Y-124386363D01*
X126972278Y-124386591D01*
X126973253Y-124386742D01*
X126974209Y-124386823D01*
X126975152Y-124386841D01*
X126977009Y-124386708D01*
X126978860Y-124386390D01*
X126981990Y-124385566D01*
X126984930Y-124384423D01*
X126987714Y-124382890D01*
X126990373Y-124380899D01*
X126992941Y-124378377D01*
X126995449Y-124375255D01*
X126997932Y-124371463D01*
X127000422Y-124366929D01*
X127002949Y-124361584D01*
X127005548Y-124355358D01*
X127008252Y-124348180D01*
X127011092Y-124339979D01*
X127017313Y-124320229D01*
X127024470Y-124295547D01*
X127042954Y-124227267D01*
X127058010Y-124158721D01*
X127071017Y-124075269D01*
X127083355Y-123962269D01*
X127096400Y-123805078D01*
X127111533Y-123589055D01*
X127153572Y-122921945D01*
X127187693Y-122380903D01*
X127199332Y-122206435D01*
X127209017Y-122075122D01*
X127217994Y-121971304D01*
X127227512Y-121879323D01*
X127253154Y-121668225D01*
X127278164Y-121464897D01*
X127298190Y-121289414D01*
X127313504Y-121137903D01*
X127324385Y-121006491D01*
X127331107Y-120891305D01*
X127333945Y-120788472D01*
X127333177Y-120694119D01*
X127329077Y-120604373D01*
X127325717Y-120555624D01*
X127322536Y-120513683D01*
X127319879Y-120482957D01*
X127318855Y-120473178D01*
X127318241Y-120468892D01*
X127318092Y-120467854D01*
X127317481Y-120465995D01*
X127316453Y-120464300D01*
X127314977Y-120462763D01*
X127313025Y-120461380D01*
X127310565Y-120460148D01*
X127307569Y-120459061D01*
X127304006Y-120458115D01*
X127299846Y-120457306D01*
X127295059Y-120456632D01*
X127289615Y-120456085D01*
X127283485Y-120455665D01*
X127276638Y-120455365D01*
X127260675Y-120455108D01*
X127241485Y-120455285D01*
X127145658Y-120458230D01*
X127051666Y-120463596D01*
X126955776Y-120471858D01*
X126854252Y-120483496D01*
X126743359Y-120498983D01*
X126619367Y-120518798D01*
X126478538Y-120543417D01*
X126317138Y-120573318D01*
X126095959Y-120614615D01*
X125912839Y-120647504D01*
X125759926Y-120673087D01*
X125629372Y-120692458D01*
X125513327Y-120706715D01*
X125403942Y-120716960D01*
X125293366Y-120724286D01*
X125173749Y-120729794D01*
X125126393Y-120731950D01*
X125082498Y-120734426D01*
X125041498Y-120737302D01*
X125002828Y-120740654D01*
X124965924Y-120744560D01*
X124930223Y-120749098D01*
X124895159Y-120754347D01*
X124860166Y-120760383D01*
X124834132Y-120765027D01*
X124810985Y-120769345D01*
X124790534Y-120773430D01*
X124772585Y-120777378D01*
X124764489Y-120779330D01*
X124756947Y-120781284D01*
X124749934Y-120783251D01*
X124743427Y-120785244D01*
X124737400Y-120787273D01*
X124731832Y-120789351D01*
X124726696Y-120791491D01*
X124721970Y-120793702D01*
X124717629Y-120795998D01*
X124713649Y-120798390D01*
X124710006Y-120800891D01*
X124706676Y-120803513D01*
X124703635Y-120806265D01*
X124700859Y-120809163D01*
X124698323Y-120812216D01*
X124696004Y-120815436D01*
X124693879Y-120818836D01*
X124691921Y-120822429D01*
X124690108Y-120826224D01*
X124688416Y-120830234D01*
X124686821Y-120834471D01*
X124685298Y-120838948D01*
X124682372Y-120848667D01*
X124679777Y-120860138D01*
X124678459Y-120872360D01*
X124079046Y-120872360D01*
X124076699Y-120870448D01*
X124067534Y-120863929D01*
X124057322Y-120857825D01*
X124046011Y-120852093D01*
X124033542Y-120846697D01*
X124019862Y-120841595D01*
X124004918Y-120836747D01*
X123988653Y-120832114D01*
X123971014Y-120827655D01*
X123956485Y-120824305D01*
X123941065Y-120821440D01*
X123907135Y-120817170D01*
X123868380Y-120814856D01*
X123823956Y-120814507D01*
X123773020Y-120816135D01*
X123714730Y-120819748D01*
X123648243Y-120825357D01*
X123572714Y-120832971D01*
X123479938Y-120840971D01*
X123472927Y-120841574D01*
X123369779Y-120846592D01*
X123258864Y-120847871D01*
X123135773Y-120845261D01*
X122996101Y-120838611D01*
X122835441Y-120827767D01*
X122649387Y-120812580D01*
X122433531Y-120792897D01*
X122199543Y-120770585D01*
X122026447Y-120754773D01*
X121893559Y-120743599D01*
X121780196Y-120735209D01*
X121705086Y-120730210D01*
X121678705Y-120728379D01*
X121664899Y-120727257D01*
X121661319Y-120727475D01*
X121658103Y-120728584D01*
X121655247Y-120730627D01*
X121652746Y-120733643D01*
X121650591Y-120737674D01*
X121648779Y-120742760D01*
X121647303Y-120748942D01*
X121646155Y-120756261D01*
X121645334Y-120764758D01*
X121644830Y-120774474D01*
X121644640Y-120785449D01*
X121225487Y-120785449D01*
X121222815Y-120766423D01*
X121218656Y-120744567D01*
X121212999Y-120721652D01*
X121206412Y-120700640D01*
X121198715Y-120681410D01*
X121189734Y-120663846D01*
X121184707Y-120655651D01*
X121179291Y-120647829D01*
X121173466Y-120640363D01*
X121167209Y-120633241D01*
X121160497Y-120626445D01*
X121153311Y-120619963D01*
X121145625Y-120613779D01*
X121137419Y-120607878D01*
X121128670Y-120602245D01*
X121119357Y-120596867D01*
X121098948Y-120586811D01*
X121076014Y-120577594D01*
X121050380Y-120569096D01*
X121021867Y-120561198D01*
X120990299Y-120553785D01*
X120955498Y-120546735D01*
X120917289Y-120539933D01*
X120872572Y-120531521D01*
X120824145Y-120521213D01*
X120772084Y-120509017D01*
X120716462Y-120494935D01*
X120657355Y-120478973D01*
X120594839Y-120461137D01*
X120528988Y-120441432D01*
X120459877Y-120419861D01*
X120365820Y-120390554D01*
X120280200Y-120364408D01*
X120203280Y-120341507D01*
X120143963Y-120324421D01*
X127967646Y-120324421D01*
X127967669Y-120327513D01*
X127968079Y-120330764D01*
X127968868Y-120334206D01*
X127970025Y-120337862D01*
X127971544Y-120341761D01*
X127973414Y-120345933D01*
X127978171Y-120355197D01*
X127984224Y-120365875D01*
X127999920Y-120392354D01*
X128025072Y-120433088D01*
X128052300Y-120474121D01*
X128081853Y-120515718D01*
X128113983Y-120558146D01*
X128148939Y-120601669D01*
X128186973Y-120646551D01*
X128273275Y-120741458D01*
X128374891Y-120844985D01*
X128493826Y-120959254D01*
X128632084Y-121086385D01*
X128791669Y-121228499D01*
X128891677Y-121317142D01*
X128987727Y-121404164D01*
X129081854Y-121491490D01*
X129176095Y-121581042D01*
X129272487Y-121674744D01*
X129373065Y-121774519D01*
X129594922Y-121999984D01*
X129966710Y-122381024D01*
X130109986Y-122526313D01*
X130231080Y-122647620D01*
X130334661Y-122749572D01*
X130425402Y-122836799D01*
X130507974Y-122913928D01*
X130587049Y-122985586D01*
X130655814Y-123046621D01*
X130728956Y-123109915D01*
X130802507Y-123172236D01*
X130872489Y-123230348D01*
X130934929Y-123281019D01*
X130985855Y-123321014D01*
X131005759Y-123335998D01*
X131021293Y-123347100D01*
X131031963Y-123353916D01*
X131035317Y-123355590D01*
X131037270Y-123356042D01*
X131038937Y-123355609D01*
X131040787Y-123354657D01*
X131042809Y-123353210D01*
X131044987Y-123351291D01*
X131049770Y-123346138D01*
X131055031Y-123339389D01*
X131060672Y-123331240D01*
X131066589Y-123321883D01*
X131072682Y-123311512D01*
X131078848Y-123300318D01*
X131081874Y-123294490D01*
X131084986Y-123288496D01*
X131090995Y-123276241D01*
X131096773Y-123263744D01*
X131102219Y-123251198D01*
X131107230Y-123238798D01*
X131111706Y-123226735D01*
X131115544Y-123215204D01*
X131118644Y-123204399D01*
X131123526Y-123184439D01*
X131127683Y-123164192D01*
X131131113Y-123143473D01*
X131133808Y-123122099D01*
X131135764Y-123099884D01*
X131136976Y-123076641D01*
X131137440Y-123052187D01*
X131137148Y-123026335D01*
X131134286Y-122969701D01*
X131128347Y-122905258D01*
X131119293Y-122831524D01*
X131107082Y-122747017D01*
X131100712Y-122694116D01*
X131093012Y-122618253D01*
X131084929Y-122529455D01*
X131077410Y-122437747D01*
X131062255Y-122246369D01*
X131044815Y-122060306D01*
X131024242Y-121873323D01*
X130999688Y-121679188D01*
X130970302Y-121471669D01*
X130935236Y-121244530D01*
X130844662Y-120706465D01*
X130784725Y-120354488D01*
X130729025Y-120009727D01*
X130706737Y-119870933D01*
X130685189Y-119745169D01*
X130672452Y-119675991D01*
X130908041Y-119675991D01*
X130912309Y-119723625D01*
X130921973Y-119790187D01*
X130937881Y-119880951D01*
X130960878Y-120001187D01*
X131031521Y-120351171D01*
X131122731Y-120809375D01*
X131159032Y-121007805D01*
X131191060Y-121197718D01*
X131220265Y-121388062D01*
X131248093Y-121587787D01*
X131305407Y-122051167D01*
X131324925Y-122217831D01*
X131340437Y-122354958D01*
X131352371Y-122467403D01*
X131361158Y-122560018D01*
X131367226Y-122637657D01*
X131371006Y-122705176D01*
X131372926Y-122767425D01*
X131373417Y-122829260D01*
X131373918Y-122964175D01*
X131374556Y-123020730D01*
X131375500Y-123059638D01*
X131376431Y-123077436D01*
X131378057Y-123096721D01*
X131380317Y-123117197D01*
X131383149Y-123138569D01*
X131390271Y-123182818D01*
X131398923Y-123227100D01*
X131408601Y-123269051D01*
X131413667Y-123288413D01*
X131418802Y-123306305D01*
X131423941Y-123322431D01*
X131429023Y-123336497D01*
X131433984Y-123348204D01*
X131438761Y-123357260D01*
X131443942Y-123365546D01*
X131449465Y-123373578D01*
X131455297Y-123381327D01*
X131461407Y-123388766D01*
X131467762Y-123395867D01*
X131474329Y-123402604D01*
X131481079Y-123408948D01*
X131487975Y-123414873D01*
X131494989Y-123420350D01*
X131502087Y-123425353D01*
X131509235Y-123429853D01*
X131516404Y-123433823D01*
X131523560Y-123437236D01*
X131530671Y-123440064D01*
X131534200Y-123441251D01*
X131537704Y-123442281D01*
X131541182Y-123443150D01*
X131544628Y-123443856D01*
X131558694Y-123445507D01*
X131575062Y-123445480D01*
X131593614Y-123443817D01*
X131614227Y-123440558D01*
X131636783Y-123435745D01*
X131661159Y-123429421D01*
X131687235Y-123421625D01*
X131714891Y-123412400D01*
X131744005Y-123401786D01*
X131774458Y-123389827D01*
X131838897Y-123362035D01*
X131907242Y-123329356D01*
X131978528Y-123292120D01*
X132036128Y-123261928D01*
X132110337Y-123223980D01*
X132191711Y-123183155D01*
X132270807Y-123144337D01*
X132388948Y-123085731D01*
X132499530Y-123028942D01*
X132604364Y-122972953D01*
X132705263Y-122916743D01*
X132804038Y-122859295D01*
X132902503Y-122799588D01*
X133002469Y-122736603D01*
X133105748Y-122669321D01*
X133245157Y-122574679D01*
X133383278Y-122475872D01*
X133518905Y-122373877D01*
X133650826Y-122269667D01*
X133777837Y-122164220D01*
X133898725Y-122058511D01*
X134012285Y-121953513D01*
X134117307Y-121850204D01*
X134143063Y-121823661D01*
X134166421Y-121798693D01*
X134187452Y-121775166D01*
X134206226Y-121752945D01*
X134222814Y-121731896D01*
X134237287Y-121711887D01*
X134249713Y-121692782D01*
X134255182Y-121683526D01*
X134260165Y-121674448D01*
X134264674Y-121665528D01*
X134268714Y-121656751D01*
X134272297Y-121648100D01*
X134275430Y-121639558D01*
X134278122Y-121631108D01*
X134280382Y-121622733D01*
X134282220Y-121614419D01*
X134283644Y-121606145D01*
X134284661Y-121597897D01*
X134285283Y-121589658D01*
X134285516Y-121581411D01*
X134285371Y-121573139D01*
X134284856Y-121564826D01*
X134283980Y-121556454D01*
X134282751Y-121548007D01*
X134281178Y-121539468D01*
X134276825Y-121522232D01*
X134271125Y-121505395D01*
X134263978Y-121488860D01*
X134255285Y-121472530D01*
X134244945Y-121456307D01*
X134232858Y-121440093D01*
X134218925Y-121423792D01*
X134203045Y-121407304D01*
X134185117Y-121390533D01*
X134165044Y-121373380D01*
X134142724Y-121355750D01*
X134118058Y-121337542D01*
X134090943Y-121318661D01*
X134061283Y-121299008D01*
X134028977Y-121278487D01*
X133993923Y-121256998D01*
X133837869Y-121161233D01*
X133653571Y-121047126D01*
X133462459Y-120928326D01*
X133248437Y-120799179D01*
X132990451Y-120646919D01*
X132667442Y-120458777D01*
X132342196Y-120270123D01*
X132099072Y-120127411D01*
X131910598Y-120014333D01*
X131749303Y-119914582D01*
X131608372Y-119826293D01*
X131487361Y-119751934D01*
X131384408Y-119690451D01*
X131339122Y-119664211D01*
X131297651Y-119640795D01*
X131259765Y-119620073D01*
X131225231Y-119601912D01*
X131193813Y-119586182D01*
X131165283Y-119572750D01*
X131139405Y-119561486D01*
X131115949Y-119552258D01*
X131094679Y-119544934D01*
X131075365Y-119539384D01*
X131067647Y-119537551D01*
X131060044Y-119536014D01*
X131052563Y-119534772D01*
X131045209Y-119533821D01*
X131037986Y-119533160D01*
X131030903Y-119532786D01*
X131023961Y-119532697D01*
X131017167Y-119532891D01*
X131010527Y-119533365D01*
X131004046Y-119534117D01*
X130997728Y-119535145D01*
X130991580Y-119536446D01*
X130985606Y-119538020D01*
X130979813Y-119539862D01*
X130974204Y-119541971D01*
X130968786Y-119544344D01*
X130963563Y-119546980D01*
X130958542Y-119549875D01*
X130953727Y-119553027D01*
X130949123Y-119556436D01*
X130944736Y-119560097D01*
X130940572Y-119564009D01*
X130936635Y-119568169D01*
X130932931Y-119572577D01*
X130929465Y-119577227D01*
X130926243Y-119582119D01*
X130923269Y-119587250D01*
X130920548Y-119592619D01*
X130918088Y-119598223D01*
X130915891Y-119604059D01*
X130913965Y-119610125D01*
X130912314Y-119616420D01*
X130908325Y-119642014D01*
X130908041Y-119675991D01*
X130672452Y-119675991D01*
X130666946Y-119646088D01*
X130659867Y-119610824D01*
X130654575Y-119587350D01*
X130651325Y-119574519D01*
X130648295Y-119562928D01*
X130645439Y-119552478D01*
X130642711Y-119543071D01*
X130640068Y-119534607D01*
X130637465Y-119526988D01*
X130634856Y-119520115D01*
X130632197Y-119513889D01*
X130629444Y-119508212D01*
X130626551Y-119502984D01*
X130623473Y-119498107D01*
X130620167Y-119493481D01*
X130616587Y-119489010D01*
X130612688Y-119484593D01*
X130608426Y-119480132D01*
X130603756Y-119475527D01*
X130600050Y-119472102D01*
X130596158Y-119468748D01*
X130592094Y-119465476D01*
X130587870Y-119462295D01*
X130583496Y-119459214D01*
X130578989Y-119456242D01*
X130574359Y-119453389D01*
X130569618Y-119450663D01*
X130564781Y-119448075D01*
X130559857Y-119445632D01*
X130554860Y-119443345D01*
X130549805Y-119441223D01*
X130544701Y-119439275D01*
X130539562Y-119437510D01*
X130534401Y-119435937D01*
X130529229Y-119434566D01*
X130523010Y-119433128D01*
X130516818Y-119431907D01*
X130510610Y-119430900D01*
X130504345Y-119430105D01*
X130497983Y-119429522D01*
X130491482Y-119429149D01*
X130484799Y-119428983D01*
X130477897Y-119429022D01*
X130470730Y-119429265D01*
X130463259Y-119429710D01*
X130447238Y-119431198D01*
X130429504Y-119433475D01*
X130409726Y-119436524D01*
X130377048Y-119442920D01*
X130344570Y-119451049D01*
X130310806Y-119461480D01*
X130274271Y-119474783D01*
X130233481Y-119491525D01*
X130186949Y-119512278D01*
X130133191Y-119537610D01*
X130070722Y-119568090D01*
X130018914Y-119592765D01*
X129963240Y-119617394D01*
X129901854Y-119642688D01*
X129832910Y-119669357D01*
X129754560Y-119698108D01*
X129664960Y-119729653D01*
X129444620Y-119803960D01*
X129188525Y-119887472D01*
X128907357Y-119976315D01*
X128644128Y-120057287D01*
X128441846Y-120117189D01*
X128367342Y-120138770D01*
X128302897Y-120158360D01*
X128247020Y-120176510D01*
X128198224Y-120193768D01*
X128176015Y-120202234D01*
X128155017Y-120210683D01*
X128135045Y-120219183D01*
X128115912Y-120227803D01*
X128097433Y-120236613D01*
X128079421Y-120245679D01*
X128044050Y-120264859D01*
X128013213Y-120282591D01*
X128000985Y-120289832D01*
X127990784Y-120296284D01*
X127986421Y-120299284D01*
X127982539Y-120302168D01*
X127979127Y-120304965D01*
X127976176Y-120307703D01*
X127973678Y-120310409D01*
X127971623Y-120313110D01*
X127970001Y-120315835D01*
X127968803Y-120318609D01*
X127968022Y-120321462D01*
X127967646Y-120324421D01*
X120143963Y-120324421D01*
X120135319Y-120321931D01*
X120076578Y-120305763D01*
X120027315Y-120293086D01*
X119987794Y-120283979D01*
X119971768Y-120280792D01*
X119958274Y-120278528D01*
X119946931Y-120276924D01*
X119935966Y-120275665D01*
X119925377Y-120274754D01*
X119915159Y-120274195D01*
X119905307Y-120273991D01*
X119895816Y-120274147D01*
X119886682Y-120274665D01*
X119877901Y-120275549D01*
X119869469Y-120276804D01*
X119861379Y-120278431D01*
X119853629Y-120280436D01*
X119846213Y-120282820D01*
X119839128Y-120285590D01*
X119832367Y-120288747D01*
X119825927Y-120292295D01*
X119819804Y-120296238D01*
X119813993Y-120300581D01*
X119808489Y-120305326D01*
X119803288Y-120310475D01*
X119798385Y-120316035D01*
X119793776Y-120322008D01*
X119789457Y-120328397D01*
X119785423Y-120335206D01*
X119781668Y-120342440D01*
X119778189Y-120350101D01*
X119774982Y-120358192D01*
X119772041Y-120366718D01*
X119769362Y-120375683D01*
X119766942Y-120385090D01*
X119764774Y-120394942D01*
X119762855Y-120405243D01*
X119761180Y-120415996D01*
X119760266Y-120427551D01*
X119553172Y-120427551D01*
X119549842Y-120413806D01*
X119540950Y-120380206D01*
X119531639Y-120347995D01*
X119521879Y-120317063D01*
X119511639Y-120287299D01*
X119500891Y-120258595D01*
X119489602Y-120230840D01*
X119477745Y-120203924D01*
X119465289Y-120177739D01*
X119463429Y-120173954D01*
X119461520Y-120170287D01*
X119459573Y-120166756D01*
X119457603Y-120163382D01*
X119455622Y-120160186D01*
X119453646Y-120157184D01*
X119451685Y-120154400D01*
X119449756Y-120151850D01*
X119447869Y-120149555D01*
X119446040Y-120147535D01*
X119445151Y-120146633D01*
X119444281Y-120145808D01*
X119443432Y-120145061D01*
X119442606Y-120144395D01*
X119441804Y-120143813D01*
X119441029Y-120143316D01*
X119440280Y-120142907D01*
X119439562Y-120142590D01*
X119438874Y-120142365D01*
X119438219Y-120142235D01*
X119437598Y-120142205D01*
X119437013Y-120142274D01*
X119433020Y-120143959D01*
X119427557Y-120147214D01*
X119420793Y-120151887D01*
X119412902Y-120157823D01*
X119394418Y-120172883D01*
X119373471Y-120191169D01*
X119351430Y-120211464D01*
X119329660Y-120232547D01*
X119309532Y-120253195D01*
X119300511Y-120262977D01*
X119292413Y-120272191D01*
X119271849Y-120297144D01*
X119251772Y-120323427D01*
X119232042Y-120351319D01*
X119212521Y-120381098D01*
X119193069Y-120413045D01*
X119173547Y-120447438D01*
X119153818Y-120484556D01*
X119133743Y-120524680D01*
X119091996Y-120615055D01*
X119047198Y-120720798D01*
X118998237Y-120844142D01*
X118944003Y-120987318D01*
X118907650Y-121083731D01*
X118869372Y-121181821D01*
X118833570Y-121270086D01*
X118817972Y-121306940D01*
X118804645Y-121337025D01*
X118785979Y-121379344D01*
X118769356Y-121418334D01*
X118754720Y-121454302D01*
X118742011Y-121487558D01*
X118731175Y-121518407D01*
X118722152Y-121547160D01*
X118714886Y-121574124D01*
X118709319Y-121599605D01*
X118705395Y-121623914D01*
X118703055Y-121647358D01*
X118702243Y-121670244D01*
X117665186Y-121670244D01*
X117540400Y-121453048D01*
X117528333Y-121430773D01*
X117375574Y-121148780D01*
X117229666Y-120860038D01*
X117163756Y-120721398D01*
X117133700Y-120655206D01*
X117102517Y-120586529D01*
X117045928Y-120455395D01*
X116994468Y-120329181D01*
X117974557Y-120329181D01*
X117974692Y-120355521D01*
X117976257Y-120382988D01*
X117979245Y-120411698D01*
X117983647Y-120441767D01*
X117989455Y-120473310D01*
X117996660Y-120506441D01*
X118005252Y-120541277D01*
X118016734Y-120583072D01*
X118030524Y-120628423D01*
X118045663Y-120674649D01*
X118061189Y-120719071D01*
X118076143Y-120759008D01*
X118089563Y-120791780D01*
X118095397Y-120804641D01*
X118100488Y-120814705D01*
X118104716Y-120821638D01*
X118106468Y-120823825D01*
X118107960Y-120825104D01*
X118109099Y-120825695D01*
X118110513Y-120826039D01*
X118112185Y-120826143D01*
X118114102Y-120826019D01*
X118118610Y-120825121D01*
X118123915Y-120823418D01*
X118129899Y-120820983D01*
X118136445Y-120817892D01*
X118143432Y-120814219D01*
X118150741Y-120810037D01*
X118158253Y-120805421D01*
X118165851Y-120800445D01*
X118173414Y-120795183D01*
X118180823Y-120789709D01*
X118187961Y-120784099D01*
X118194707Y-120778424D01*
X118200942Y-120772760D01*
X118206550Y-120767181D01*
X118213473Y-120758839D01*
X118220197Y-120749051D01*
X118226687Y-120737938D01*
X118232909Y-120725625D01*
X118238829Y-120712235D01*
X118244409Y-120697892D01*
X118249620Y-120682719D01*
X118254423Y-120666840D01*
X118258786Y-120650379D01*
X118262673Y-120633458D01*
X118266051Y-120616203D01*
X118268884Y-120598735D01*
X118271139Y-120581179D01*
X118272780Y-120563659D01*
X118273774Y-120546297D01*
X118274084Y-120529217D01*
X118272807Y-120490036D01*
X118269897Y-120446945D01*
X118265390Y-120400325D01*
X118259327Y-120350559D01*
X118251748Y-120298031D01*
X118242690Y-120243122D01*
X118232193Y-120186217D01*
X118220296Y-120127696D01*
X118213982Y-120098752D01*
X118207802Y-120071829D01*
X118201920Y-120047505D01*
X118196503Y-120026358D01*
X118191714Y-120008967D01*
X118187720Y-119995907D01*
X118186071Y-119991182D01*
X118184684Y-119987758D01*
X118183577Y-119985705D01*
X118183136Y-119985215D01*
X118182773Y-119985096D01*
X118180252Y-119985820D01*
X118177395Y-119986979D01*
X118170756Y-119990524D01*
X118163022Y-119995570D01*
X118154362Y-120001954D01*
X118144942Y-120009515D01*
X118134931Y-120018088D01*
X118124496Y-120027512D01*
X118113804Y-120037625D01*
X118103024Y-120048264D01*
X118092321Y-120059267D01*
X118081866Y-120070470D01*
X118071824Y-120081713D01*
X118062363Y-120092832D01*
X118053651Y-120103665D01*
X118045856Y-120114050D01*
X118039144Y-120123823D01*
X118026017Y-120145207D01*
X118014398Y-120166681D01*
X118004277Y-120188359D01*
X117995647Y-120210357D01*
X117988500Y-120232789D01*
X117982826Y-120255774D01*
X117978616Y-120279423D01*
X117975863Y-120303854D01*
X117974557Y-120329181D01*
X116994468Y-120329181D01*
X116993969Y-120327958D01*
X116946622Y-120204183D01*
X116903866Y-120084032D01*
X116865681Y-119967468D01*
X116832050Y-119854456D01*
X116802950Y-119744957D01*
X116778362Y-119638935D01*
X116753403Y-119511696D01*
X116733463Y-119385746D01*
X116732471Y-119377270D01*
X116718223Y-119255565D01*
X116707366Y-119115629D01*
X116700574Y-118960417D01*
X116697528Y-118784407D01*
X116697614Y-118738779D01*
X117400145Y-118738779D01*
X117401481Y-118772005D01*
X117404090Y-118813805D01*
X117407800Y-118861584D01*
X117412440Y-118912747D01*
X117417841Y-118964699D01*
X117423830Y-119014847D01*
X117433206Y-119076915D01*
X117446085Y-119147124D01*
X117461706Y-119222267D01*
X117479298Y-119299135D01*
X117498098Y-119374522D01*
X117517336Y-119445218D01*
X117536250Y-119508016D01*
X117554071Y-119559710D01*
X117561638Y-119578931D01*
X117570467Y-119600462D01*
X117590653Y-119647509D01*
X117612108Y-119694962D01*
X117622525Y-119717001D01*
X117632315Y-119736933D01*
X117641372Y-119754684D01*
X117651274Y-119773196D01*
X117661844Y-119792204D01*
X117672905Y-119811440D01*
X117695790Y-119849521D01*
X117718513Y-119885302D01*
X117739660Y-119916643D01*
X117749199Y-119929979D01*
X117757812Y-119941403D01*
X117765322Y-119950647D01*
X117771553Y-119957443D01*
X117776327Y-119961525D01*
X117778113Y-119962463D01*
X117779468Y-119962624D01*
X117781413Y-119961935D01*
X117783832Y-119960612D01*
X117789971Y-119956197D01*
X117797654Y-119949641D01*
X117806643Y-119941209D01*
X117816706Y-119931165D01*
X117827607Y-119919774D01*
X117850988Y-119893998D01*
X117872323Y-119869025D01*
X118422037Y-119869025D01*
X118422118Y-119883617D01*
X118423571Y-119916182D01*
X118426756Y-119954157D01*
X118431681Y-119998631D01*
X118438357Y-120050690D01*
X118450961Y-120150488D01*
X118455686Y-120196718D01*
X118459807Y-120246521D01*
X118467584Y-120374903D01*
X118476979Y-120571747D01*
X118482283Y-120682664D01*
X118488129Y-120790168D01*
X118493851Y-120881976D01*
X118498782Y-120945805D01*
X118503975Y-120998775D01*
X118509895Y-121051443D01*
X118516213Y-121101702D01*
X118522595Y-121147445D01*
X118528712Y-121186569D01*
X118534230Y-121216963D01*
X118536661Y-121228230D01*
X118538819Y-121236525D01*
X118540661Y-121241585D01*
X118541452Y-121242820D01*
X118542148Y-121243147D01*
X118545657Y-121241924D01*
X118549993Y-121239604D01*
X118555091Y-121236254D01*
X118560883Y-121231937D01*
X118567303Y-121226722D01*
X118574284Y-121220673D01*
X118589663Y-121206336D01*
X118606486Y-121189452D01*
X118624221Y-121170547D01*
X118642336Y-121150144D01*
X118660296Y-121128771D01*
X118675649Y-121109449D01*
X118690873Y-121089068D01*
X118706043Y-121067495D01*
X118721230Y-121044602D01*
X118751938Y-120994336D01*
X118783570Y-120937229D01*
X118816697Y-120872237D01*
X118851888Y-120798322D01*
X118889716Y-120714442D01*
X118930752Y-120619558D01*
X118985686Y-120491456D01*
X119037603Y-120371434D01*
X119052050Y-120338399D01*
X119064969Y-120307552D01*
X119076386Y-120278764D01*
X119086330Y-120251908D01*
X119094829Y-120226854D01*
X119101911Y-120203473D01*
X119107605Y-120181637D01*
X119111938Y-120161217D01*
X119114939Y-120142084D01*
X119116634Y-120124108D01*
X119117054Y-120107163D01*
X119116795Y-120099036D01*
X119116226Y-120091117D01*
X119115353Y-120083393D01*
X119114178Y-120075844D01*
X119112705Y-120068457D01*
X119110937Y-120061214D01*
X119106532Y-120047099D01*
X119100992Y-120033367D01*
X119095375Y-120022118D01*
X119088682Y-120010580D01*
X119072266Y-119986789D01*
X119052141Y-119962272D01*
X119028702Y-119937309D01*
X119002343Y-119912181D01*
X118973457Y-119887164D01*
X118942443Y-119862540D01*
X118909692Y-119838587D01*
X118875601Y-119815585D01*
X118840563Y-119793812D01*
X118804975Y-119773549D01*
X118769232Y-119755074D01*
X118733726Y-119738667D01*
X118698855Y-119724607D01*
X118665012Y-119713174D01*
X118632592Y-119704646D01*
X118622261Y-119702457D01*
X118612208Y-119700569D01*
X118602433Y-119698981D01*
X118592934Y-119697694D01*
X118583709Y-119696708D01*
X118574758Y-119696024D01*
X118566079Y-119695643D01*
X118557670Y-119695565D01*
X118549531Y-119695790D01*
X118541660Y-119696319D01*
X118534055Y-119697152D01*
X118526716Y-119698290D01*
X118519639Y-119699733D01*
X118512825Y-119701482D01*
X118506272Y-119703536D01*
X118499978Y-119705897D01*
X118493942Y-119708567D01*
X118488163Y-119711542D01*
X118482640Y-119714826D01*
X118477370Y-119718418D01*
X118472353Y-119722320D01*
X118467587Y-119726530D01*
X118463071Y-119731050D01*
X118458803Y-119735880D01*
X118454782Y-119741022D01*
X118451007Y-119746475D01*
X118447477Y-119752239D01*
X118444188Y-119758314D01*
X118441142Y-119764703D01*
X118438335Y-119771405D01*
X118435766Y-119778421D01*
X118433436Y-119785749D01*
X118430533Y-119796575D01*
X118428054Y-119807531D01*
X118425998Y-119818754D01*
X118424368Y-119830379D01*
X118423163Y-119842541D01*
X118422386Y-119855378D01*
X118422037Y-119869025D01*
X117872323Y-119869025D01*
X117874911Y-119865996D01*
X117897497Y-119837875D01*
X117907704Y-119824430D01*
X117916873Y-119811748D01*
X117924770Y-119800090D01*
X117931161Y-119789723D01*
X117938621Y-119776208D01*
X117945852Y-119761622D01*
X117952815Y-119746100D01*
X117959472Y-119729776D01*
X117965787Y-119712785D01*
X117971722Y-119695263D01*
X117977240Y-119677342D01*
X117982303Y-119659159D01*
X117986874Y-119640848D01*
X117990916Y-119622544D01*
X117994391Y-119604383D01*
X117997260Y-119586496D01*
X117999489Y-119569022D01*
X118001039Y-119552093D01*
X118001872Y-119535844D01*
X118001951Y-119520412D01*
X118001032Y-119503207D01*
X117999224Y-119484659D01*
X117996578Y-119464962D01*
X117993142Y-119444306D01*
X117988968Y-119422882D01*
X117984105Y-119400882D01*
X117978602Y-119378497D01*
X117972510Y-119355920D01*
X117965879Y-119333341D01*
X117958759Y-119310952D01*
X117951199Y-119288943D01*
X117943250Y-119267509D01*
X117934961Y-119246838D01*
X117926384Y-119227123D01*
X117917566Y-119208554D01*
X117908559Y-119191326D01*
X117889579Y-119157981D01*
X117868876Y-119124733D01*
X117846573Y-119091709D01*
X117822791Y-119059037D01*
X117797653Y-119026843D01*
X117771280Y-118995255D01*
X117743796Y-118964400D01*
X117715320Y-118934405D01*
X117685978Y-118905398D01*
X117655889Y-118877505D01*
X117625178Y-118850854D01*
X117593965Y-118825573D01*
X117562372Y-118801788D01*
X117530521Y-118779626D01*
X117498537Y-118759216D01*
X117466540Y-118740684D01*
X117454471Y-118734025D01*
X117443003Y-118727851D01*
X117432407Y-118722295D01*
X117422951Y-118717490D01*
X117414910Y-118713567D01*
X117411504Y-118711978D01*
X117408552Y-118710660D01*
X117406090Y-118709630D01*
X117404151Y-118708902D01*
X117402769Y-118708494D01*
X117402297Y-118708416D01*
X117401977Y-118708424D01*
X117400902Y-118710689D01*
X117400254Y-118716720D01*
X117400145Y-118738779D01*
X116697614Y-118738779D01*
X116697911Y-118582076D01*
X116701406Y-118347903D01*
X116706432Y-118072100D01*
X116707888Y-117978585D01*
X116708670Y-117908046D01*
X116708801Y-117855524D01*
X116708306Y-117816056D01*
X116707206Y-117784685D01*
X116705526Y-117756449D01*
X116701254Y-117709115D01*
X116695113Y-117658945D01*
X116687079Y-117605839D01*
X116677132Y-117549695D01*
X116665249Y-117490412D01*
X116651411Y-117427889D01*
X116635593Y-117362025D01*
X116617776Y-117292719D01*
X116589154Y-117174826D01*
X116553362Y-117012473D01*
X116509221Y-116800501D01*
X116455551Y-116533751D01*
X116377500Y-116130821D01*
X116348660Y-115975912D01*
X116325883Y-115847884D01*
X116308622Y-115743620D01*
X116296330Y-115660002D01*
X116288461Y-115593913D01*
X116284471Y-115542237D01*
X116283400Y-115509271D01*
X116283123Y-115476716D01*
X116283635Y-115444603D01*
X116284930Y-115412964D01*
X116287004Y-115381831D01*
X116289851Y-115351235D01*
X116293466Y-115321207D01*
X116297843Y-115291780D01*
X116302979Y-115262983D01*
X116308867Y-115234850D01*
X116315502Y-115207411D01*
X116322879Y-115180697D01*
X116330993Y-115154742D01*
X116339839Y-115129575D01*
X116349411Y-115105228D01*
X116359704Y-115081733D01*
X116362740Y-115075408D01*
X116365762Y-115069242D01*
X116368751Y-115063267D01*
X116371688Y-115057517D01*
X116374553Y-115052027D01*
X116377327Y-115046828D01*
X116379989Y-115041952D01*
X116382523Y-115037436D01*
X116384906Y-115033310D01*
X116387121Y-115029608D01*
X116389147Y-115026364D01*
X116390967Y-115023609D01*
X116392559Y-115021380D01*
X116393905Y-115019706D01*
X116394481Y-115019089D01*
X116394987Y-115018622D01*
X116395421Y-115018312D01*
X116395782Y-115018163D01*
X116397265Y-115018038D01*
X116398957Y-115018240D01*
X116402917Y-115019576D01*
X116407572Y-115022075D01*
X116412827Y-115025641D01*
X116418589Y-115030177D01*
X116424765Y-115035586D01*
X116431262Y-115041771D01*
X116437988Y-115048638D01*
X116444848Y-115056089D01*
X116451749Y-115064028D01*
X116458600Y-115072358D01*
X116465305Y-115080983D01*
X116471773Y-115089806D01*
X116477909Y-115098731D01*
X116483622Y-115107663D01*
X116488817Y-115116503D01*
X116496154Y-115130352D01*
X116502950Y-115144884D01*
X116509250Y-115160361D01*
X116515098Y-115177047D01*
X116520540Y-115195203D01*
X116525622Y-115215092D01*
X116534884Y-115261118D01*
X116543246Y-115317226D01*
X116551069Y-115385516D01*
X116558716Y-115468085D01*
X116566548Y-115567035D01*
X116575787Y-115695426D01*
X116583757Y-115798453D01*
X116591098Y-115881622D01*
X116598453Y-115950441D01*
X116606463Y-116010413D01*
X116615771Y-116067045D01*
X116627018Y-116125843D01*
X116640847Y-116192313D01*
X116652227Y-116243528D01*
X116662583Y-116287945D01*
X116672492Y-116327469D01*
X116682527Y-116364008D01*
X116693263Y-116399469D01*
X116705273Y-116435758D01*
X116719132Y-116474780D01*
X116735415Y-116518445D01*
X116798581Y-116678223D01*
X116867601Y-116836309D01*
X116942201Y-116992339D01*
X117022116Y-117145941D01*
X117107074Y-117296749D01*
X117196804Y-117444395D01*
X117291038Y-117588511D01*
X117389507Y-117728728D01*
X117491939Y-117864680D01*
X117598066Y-117995998D01*
X117707619Y-118122314D01*
X117820325Y-118243260D01*
X117935917Y-118358468D01*
X118054125Y-118467570D01*
X118174679Y-118570198D01*
X118297309Y-118665985D01*
X118364375Y-118714649D01*
X118432145Y-118761390D01*
X118501058Y-118806414D01*
X118571554Y-118849926D01*
X118644069Y-118892131D01*
X118719045Y-118933236D01*
X118796916Y-118973446D01*
X118878125Y-119012963D01*
X118963109Y-119051996D01*
X119052305Y-119090749D01*
X119245091Y-119168235D01*
X119459993Y-119247064D01*
X119700518Y-119328880D01*
X120103755Y-119454899D01*
X120499189Y-119564548D01*
X120892353Y-119658832D01*
X121288770Y-119738753D01*
X121693970Y-119805309D01*
X122113479Y-119859505D01*
X122552827Y-119902341D01*
X123017541Y-119934821D01*
X123449575Y-119956131D01*
X123854295Y-119967949D01*
X124235961Y-119970126D01*
X124598833Y-119962521D01*
X124947167Y-119944989D01*
X125285225Y-119917384D01*
X125617265Y-119879561D01*
X125947547Y-119831378D01*
X126126436Y-119800622D01*
X126317437Y-119764914D01*
X126732131Y-119679374D01*
X127184332Y-119576225D01*
X127666744Y-119456934D01*
X128382193Y-119271838D01*
X128526997Y-119233803D01*
X131041068Y-119233803D01*
X131042364Y-119237696D01*
X131044762Y-119242538D01*
X131048199Y-119248251D01*
X131052610Y-119254764D01*
X131057932Y-119262003D01*
X131064098Y-119269893D01*
X131078708Y-119287340D01*
X131095927Y-119306513D01*
X131115236Y-119326827D01*
X131136122Y-119347694D01*
X131158067Y-119368525D01*
X131175270Y-119383818D01*
X131194103Y-119399487D01*
X131214599Y-119415549D01*
X131236792Y-119432024D01*
X131286399Y-119466283D01*
X131343185Y-119502407D01*
X131407415Y-119540541D01*
X131479350Y-119580830D01*
X131559256Y-119623419D01*
X131647396Y-119668453D01*
X131785011Y-119738209D01*
X131921408Y-119809545D01*
X132060683Y-119884770D01*
X132206928Y-119966195D01*
X132364237Y-120056130D01*
X132536706Y-120156887D01*
X132943496Y-120400100D01*
X133402932Y-120673922D01*
X133451251Y-120702761D01*
X133503877Y-120734910D01*
X133559112Y-120769294D01*
X133615259Y-120804837D01*
X133670620Y-120840462D01*
X133723499Y-120875094D01*
X133772197Y-120907656D01*
X133815018Y-120937072D01*
X133855072Y-120964824D01*
X133895842Y-120992615D01*
X133936186Y-121019693D01*
X133974962Y-121045309D01*
X134011027Y-121068711D01*
X134043240Y-121089150D01*
X134070457Y-121105874D01*
X134091537Y-121118134D01*
X134118874Y-121132978D01*
X134146265Y-121147111D01*
X134173473Y-121160451D01*
X134200264Y-121172916D01*
X134226404Y-121184427D01*
X134251656Y-121194902D01*
X134275786Y-121204259D01*
X134298558Y-121212420D01*
X134319738Y-121219303D01*
X134339092Y-121224826D01*
X134356382Y-121228910D01*
X134371373Y-121231473D01*
X134377934Y-121232159D01*
X134383832Y-121232435D01*
X134389038Y-121232290D01*
X134393523Y-121231715D01*
X134397258Y-121230700D01*
X134400211Y-121229232D01*
X134402356Y-121227304D01*
X134403661Y-121224906D01*
X134405517Y-121209727D01*
X134404398Y-121183647D01*
X134394192Y-121103337D01*
X134374957Y-120993079D01*
X134348608Y-120861974D01*
X134317058Y-120719126D01*
X134282221Y-120573638D01*
X134246010Y-120434612D01*
X134210339Y-120311153D01*
X134041043Y-119771380D01*
X133860573Y-119220794D01*
X133675102Y-118677697D01*
X133490801Y-118160386D01*
X133448813Y-118046095D01*
X133414426Y-117951659D01*
X133391032Y-117886670D01*
X133384937Y-117869115D01*
X133382021Y-117860718D01*
X133381900Y-117860408D01*
X133381677Y-117860127D01*
X133380934Y-117859645D01*
X133379812Y-117859272D01*
X133378333Y-117859008D01*
X133376518Y-117858853D01*
X133374388Y-117858806D01*
X133371963Y-117858867D01*
X133369266Y-117859034D01*
X133363136Y-117859687D01*
X133356165Y-117860762D01*
X133348522Y-117862254D01*
X133340376Y-117864160D01*
X133322001Y-117868906D01*
X133302911Y-117874828D01*
X133283021Y-117881978D01*
X133262242Y-117890404D01*
X133240488Y-117900158D01*
X133217672Y-117911289D01*
X133168504Y-117937886D01*
X133114042Y-117970594D01*
X133053589Y-118009817D01*
X132986450Y-118055955D01*
X132911927Y-118109412D01*
X132802464Y-118188031D01*
X132679520Y-118271630D01*
X132526833Y-118371187D01*
X132328139Y-118497683D01*
X132239174Y-118553349D01*
X132157682Y-118603116D01*
X132080962Y-118648487D01*
X132006311Y-118690967D01*
X131931027Y-118732061D01*
X131852407Y-118773271D01*
X131767750Y-118816103D01*
X131674354Y-118862060D01*
X131544808Y-118926375D01*
X131424490Y-118988613D01*
X131315982Y-119047261D01*
X131266965Y-119074769D01*
X131221869Y-119100812D01*
X131181020Y-119125202D01*
X131144738Y-119147751D01*
X131113348Y-119168271D01*
X131087170Y-119186570D01*
X131066531Y-119202463D01*
X131051753Y-119215758D01*
X131046662Y-119221372D01*
X131043157Y-119226268D01*
X131041279Y-119230419D01*
X131041068Y-119233803D01*
X128526997Y-119233803D01*
X128892759Y-119137730D01*
X129396706Y-118997305D01*
X129866250Y-118856732D01*
X130304628Y-118714796D01*
X130715082Y-118570279D01*
X131100849Y-118421965D01*
X131465168Y-118268637D01*
X131811277Y-118109078D01*
X132142417Y-117942071D01*
X132287646Y-117863513D01*
X132406121Y-117795998D01*
X133728925Y-117795998D01*
X133748911Y-117890029D01*
X133767746Y-117972409D01*
X133791431Y-118064884D01*
X133820248Y-118168379D01*
X133854477Y-118283814D01*
X133940294Y-118554198D01*
X134051130Y-118883423D01*
X134079166Y-118965589D01*
X134101860Y-119033612D01*
X134120266Y-119091093D01*
X134135430Y-119141635D01*
X134148407Y-119188836D01*
X134160245Y-119236302D01*
X134171995Y-119287632D01*
X134184709Y-119346428D01*
X134214680Y-119474967D01*
X134262858Y-119655763D01*
X134340497Y-119929027D01*
X134458847Y-120334971D01*
X134624805Y-120899403D01*
X134676305Y-121071703D01*
X134690848Y-121118841D01*
X134696645Y-121135581D01*
X134697706Y-121135859D01*
X134699302Y-121135688D01*
X134704002Y-121134068D01*
X134710541Y-121130866D01*
X134718719Y-121126226D01*
X134739184Y-121113210D01*
X134763783Y-121096177D01*
X134790901Y-121076284D01*
X134818924Y-121054688D01*
X134846241Y-121032545D01*
X134871234Y-121011011D01*
X134905437Y-120979020D01*
X134938822Y-120945409D01*
X134971415Y-120910133D01*
X135003241Y-120873148D01*
X135034324Y-120834408D01*
X135064689Y-120793869D01*
X135094361Y-120751485D01*
X135123364Y-120707212D01*
X135151723Y-120661004D01*
X135179464Y-120612819D01*
X135206611Y-120562608D01*
X135233189Y-120510329D01*
X135259222Y-120455936D01*
X135284736Y-120399384D01*
X135309755Y-120340630D01*
X135334304Y-120279625D01*
X135359964Y-120213247D01*
X135383546Y-120149466D01*
X135405952Y-120085427D01*
X135428088Y-120018276D01*
X135450857Y-119945157D01*
X135475164Y-119863217D01*
X135532009Y-119661450D01*
X135585719Y-119467674D01*
X135623533Y-119332731D01*
X135629328Y-119312506D01*
X135635141Y-119290576D01*
X135640825Y-119267639D01*
X135646230Y-119244390D01*
X135651212Y-119221529D01*
X135655620Y-119199749D01*
X135659307Y-119179751D01*
X135662126Y-119162230D01*
X135665422Y-119139018D01*
X135667698Y-119118909D01*
X135668432Y-119109654D01*
X135668886Y-119100741D01*
X135669051Y-119092024D01*
X135668919Y-119083358D01*
X135668482Y-119074598D01*
X135667731Y-119065600D01*
X135666659Y-119056219D01*
X135665256Y-119046310D01*
X135663516Y-119035726D01*
X135661427Y-119024326D01*
X135656178Y-118998493D01*
X135650720Y-118972162D01*
X135648221Y-118960940D01*
X135645808Y-118950839D01*
X135643432Y-118941729D01*
X135641043Y-118933479D01*
X135638588Y-118925958D01*
X135636019Y-118919037D01*
X135633286Y-118912585D01*
X135630338Y-118906469D01*
X135627125Y-118900560D01*
X135623597Y-118894727D01*
X135619703Y-118888841D01*
X135615394Y-118882769D01*
X135610618Y-118876381D01*
X135605327Y-118869547D01*
X135596204Y-118858428D01*
X135586385Y-118847337D01*
X135575816Y-118836232D01*
X135564441Y-118825069D01*
X135552204Y-118813803D01*
X135539050Y-118802391D01*
X135524923Y-118790790D01*
X135509769Y-118778955D01*
X135493530Y-118766845D01*
X135476151Y-118754413D01*
X135457579Y-118741617D01*
X135437756Y-118728414D01*
X135394137Y-118700608D01*
X135344850Y-118670648D01*
X135279983Y-118630322D01*
X135190963Y-118573408D01*
X135089543Y-118507463D01*
X134987473Y-118440051D01*
X134875331Y-118365426D01*
X134773163Y-118298751D01*
X134678635Y-118238588D01*
X134589411Y-118183500D01*
X134503159Y-118132049D01*
X134417545Y-118082799D01*
X134330231Y-118034309D01*
X134238886Y-117985146D01*
X134155425Y-117941345D01*
X134084586Y-117904984D01*
X134024835Y-117875352D01*
X133998639Y-117862839D01*
X133974638Y-117851742D01*
X133952641Y-117841973D01*
X133932458Y-117833444D01*
X133913896Y-117826064D01*
X133896762Y-117819747D01*
X133880866Y-117814403D01*
X133866014Y-117809944D01*
X133852016Y-117806281D01*
X133838679Y-117803325D01*
X133828116Y-117801489D01*
X133817063Y-117799790D01*
X133805859Y-117798271D01*
X133794841Y-117796977D01*
X133784343Y-117795951D01*
X133774706Y-117795241D01*
X133766264Y-117794888D01*
X133762597Y-117794861D01*
X133759355Y-117794939D01*
X133728925Y-117795998D01*
X132406121Y-117795998D01*
X132431758Y-117781388D01*
X132461402Y-117763614D01*
X132576147Y-117694810D01*
X132722212Y-117602887D01*
X132871348Y-117504733D01*
X132966246Y-117439693D01*
X133846139Y-117439693D01*
X133846456Y-117449400D01*
X133847506Y-117459022D01*
X133849242Y-117468619D01*
X133851621Y-117478249D01*
X133854600Y-117487971D01*
X133861476Y-117506068D01*
X133869746Y-117523343D01*
X133879834Y-117540088D01*
X133892166Y-117556597D01*
X133907167Y-117573163D01*
X133925263Y-117590077D01*
X133946878Y-117607632D01*
X133972440Y-117626122D01*
X134002372Y-117645837D01*
X134037100Y-117667071D01*
X134077051Y-117690117D01*
X134122649Y-117715267D01*
X134232487Y-117773052D01*
X134370018Y-117842764D01*
X134525288Y-117921079D01*
X134651655Y-117986052D01*
X134755449Y-118041370D01*
X134800861Y-118066559D01*
X134843003Y-118090714D01*
X134882667Y-118114299D01*
X134920644Y-118137771D01*
X134957726Y-118161591D01*
X134994705Y-118186221D01*
X135071514Y-118239752D01*
X135157401Y-118302046D01*
X135245113Y-118365606D01*
X135285013Y-118393679D01*
X135322546Y-118419435D01*
X135357914Y-118442986D01*
X135391321Y-118464451D01*
X135422971Y-118483944D01*
X135453064Y-118501579D01*
X135481805Y-118517475D01*
X135509395Y-118531744D01*
X135536038Y-118544503D01*
X135561938Y-118555867D01*
X135587296Y-118565951D01*
X135612316Y-118574871D01*
X135637199Y-118582742D01*
X135662150Y-118589679D01*
X135711961Y-118603435D01*
X135736152Y-118500916D01*
X135756105Y-118416422D01*
X135764244Y-118379031D01*
X135771187Y-118344415D01*
X135776957Y-118312225D01*
X135781571Y-118282115D01*
X135785054Y-118253735D01*
X135787424Y-118226737D01*
X135788705Y-118200773D01*
X135788917Y-118175498D01*
X135788081Y-118150561D01*
X135786217Y-118125614D01*
X135783348Y-118100312D01*
X135779495Y-118074303D01*
X135774678Y-118047244D01*
X135768919Y-118018783D01*
X135751305Y-117944885D01*
X135741059Y-117909268D01*
X135729409Y-117873661D01*
X135716019Y-117837405D01*
X135700557Y-117799838D01*
X135682688Y-117760303D01*
X135662075Y-117718140D01*
X135611289Y-117623293D01*
X135545524Y-117510021D01*
X135462105Y-117373051D01*
X135358358Y-117207107D01*
X135335747Y-117170355D01*
X135311395Y-117129588D01*
X135260423Y-117041171D01*
X135211358Y-116952179D01*
X135189389Y-116910694D01*
X135170114Y-116872936D01*
X135145656Y-116824391D01*
X135122409Y-116779579D01*
X135114272Y-116764429D01*
X135100273Y-116738368D01*
X135082355Y-116706355D01*
X135295259Y-116706355D01*
X135297615Y-116725459D01*
X135302371Y-116746197D01*
X135309573Y-116768682D01*
X135319263Y-116793026D01*
X135331482Y-116819343D01*
X135346273Y-116847743D01*
X135363679Y-116878341D01*
X135383742Y-116911247D01*
X135406504Y-116946575D01*
X135432007Y-116984438D01*
X135460295Y-117024947D01*
X135492029Y-117071173D01*
X135531560Y-117130620D01*
X135573782Y-117195580D01*
X135613596Y-117258348D01*
X135649747Y-117315751D01*
X135682053Y-117366196D01*
X135707010Y-117404340D01*
X135715639Y-117417129D01*
X135721116Y-117424841D01*
X135740238Y-117446924D01*
X135761554Y-117407229D01*
X135767229Y-117395807D01*
X135772875Y-117382990D01*
X135778451Y-117368928D01*
X135783919Y-117353771D01*
X135789238Y-117337668D01*
X135794370Y-117320768D01*
X135803912Y-117285181D01*
X135812230Y-117248204D01*
X135815830Y-117229570D01*
X135819006Y-117211038D01*
X135821717Y-117192758D01*
X135823926Y-117174879D01*
X135825590Y-117157552D01*
X135826672Y-117140925D01*
X135827163Y-117121964D01*
X135826989Y-117101918D01*
X135826133Y-117080749D01*
X135824575Y-117058419D01*
X135822299Y-117034890D01*
X135819282Y-117010123D01*
X135815509Y-116984080D01*
X135810960Y-116956723D01*
X135804448Y-116921355D01*
X135797416Y-116888573D01*
X135789780Y-116858247D01*
X135785710Y-116843968D01*
X135781459Y-116830254D01*
X135777015Y-116817091D01*
X135772370Y-116804462D01*
X135767511Y-116792352D01*
X135762430Y-116780745D01*
X135757115Y-116769625D01*
X135751556Y-116758976D01*
X135745744Y-116748782D01*
X135739667Y-116739026D01*
X135733316Y-116729693D01*
X135726679Y-116720768D01*
X135719748Y-116712232D01*
X135712511Y-116704073D01*
X135704958Y-116696271D01*
X135697078Y-116688814D01*
X135688862Y-116681683D01*
X135680299Y-116674863D01*
X135671378Y-116668340D01*
X135662090Y-116662095D01*
X135652424Y-116656113D01*
X135642370Y-116650378D01*
X135631918Y-116644875D01*
X135621057Y-116639588D01*
X135609776Y-116634499D01*
X135598066Y-116629594D01*
X135582311Y-116623690D01*
X135565633Y-116617920D01*
X135548554Y-116612446D01*
X135531593Y-116607433D01*
X135515272Y-116603043D01*
X135500113Y-116599443D01*
X135493130Y-116597991D01*
X135486634Y-116596797D01*
X135480689Y-116595882D01*
X135475358Y-116595267D01*
X135462750Y-116594163D01*
X135450234Y-116593586D01*
X135437867Y-116593517D01*
X135425711Y-116593943D01*
X135413826Y-116594844D01*
X135402270Y-116596204D01*
X135391104Y-116598008D01*
X135380388Y-116600238D01*
X135370183Y-116602876D01*
X135360546Y-116605908D01*
X135351538Y-116609315D01*
X135343221Y-116613083D01*
X135335652Y-116617192D01*
X135328892Y-116621628D01*
X135325834Y-116623963D01*
X135323001Y-116626373D01*
X135320400Y-116628856D01*
X135318038Y-116631410D01*
X135309017Y-116644031D01*
X135302185Y-116657723D01*
X135297588Y-116672599D01*
X135295265Y-116688772D01*
X135295259Y-116706355D01*
X135082355Y-116706355D01*
X135079150Y-116700629D01*
X135058944Y-116666229D01*
X135039556Y-116635038D01*
X135020888Y-116606924D01*
X135002842Y-116581757D01*
X134994022Y-116570237D01*
X134985321Y-116559404D01*
X134976726Y-116549243D01*
X134968226Y-116539737D01*
X134959807Y-116530868D01*
X134951459Y-116522623D01*
X134943168Y-116514982D01*
X134934924Y-116507930D01*
X134926712Y-116501452D01*
X134918521Y-116495529D01*
X134910340Y-116490146D01*
X134902154Y-116485287D01*
X134893953Y-116480935D01*
X134885724Y-116477075D01*
X134877455Y-116473688D01*
X134869133Y-116470760D01*
X134853486Y-116466218D01*
X134838138Y-116463139D01*
X134823001Y-116461565D01*
X134807989Y-116461539D01*
X134793015Y-116463108D01*
X134777991Y-116466311D01*
X134762829Y-116471197D01*
X134747444Y-116477805D01*
X134731747Y-116486179D01*
X134715653Y-116496366D01*
X134699072Y-116508406D01*
X134681920Y-116522345D01*
X134664107Y-116538227D01*
X134645548Y-116556092D01*
X134626155Y-116575988D01*
X134605840Y-116597955D01*
X134537984Y-116671492D01*
X134505007Y-116705925D01*
X134470180Y-116741299D01*
X134431641Y-116779492D01*
X134387529Y-116822378D01*
X134275128Y-116929728D01*
X134204862Y-116996694D01*
X134142107Y-117057178D01*
X134086508Y-117111653D01*
X134037715Y-117160591D01*
X133995374Y-117204465D01*
X133976511Y-117224651D01*
X133959131Y-117243748D01*
X133943187Y-117261815D01*
X133928635Y-117278911D01*
X133915432Y-117295095D01*
X133903533Y-117310426D01*
X133892895Y-117324965D01*
X133883473Y-117338768D01*
X133875224Y-117351896D01*
X133868102Y-117364408D01*
X133862065Y-117376363D01*
X133857068Y-117387819D01*
X133853067Y-117398836D01*
X133850017Y-117409473D01*
X133847876Y-117419789D01*
X133846597Y-117429843D01*
X133846139Y-117439693D01*
X132966246Y-117439693D01*
X133024951Y-117399459D01*
X133184417Y-117286176D01*
X133351143Y-117163997D01*
X133796298Y-116826607D01*
X134035259Y-116643526D01*
X134128044Y-116571089D01*
X134141640Y-116560475D01*
G37*
D10*
X108279478Y-117226141D02*
X108279478Y-116559474D01*
X108279478Y-116654712D02*
X108327097Y-116607093D01*
X108327097Y-116607093D02*
X108422335Y-116559474D01*
X108422335Y-116559474D02*
X108565192Y-116559474D01*
X108565192Y-116559474D02*
X108660430Y-116607093D01*
X108660430Y-116607093D02*
X108708049Y-116702331D01*
X108708049Y-116702331D02*
X108708049Y-117226141D01*
X108708049Y-116702331D02*
X108755668Y-116607093D01*
X108755668Y-116607093D02*
X108850906Y-116559474D01*
X108850906Y-116559474D02*
X108993763Y-116559474D01*
X108993763Y-116559474D02*
X109089002Y-116607093D01*
X109089002Y-116607093D02*
X109136621Y-116702331D01*
X109136621Y-116702331D02*
X109136621Y-117226141D01*
X109612811Y-117226141D02*
X109612811Y-116226141D01*
X109708049Y-116845188D02*
X109993763Y-117226141D01*
X109993763Y-116559474D02*
X109612811Y-116940426D01*
X110422335Y-117226141D02*
X110422335Y-116226141D01*
X110850906Y-117226141D02*
X110850906Y-116702331D01*
X110850906Y-116702331D02*
X110803287Y-116607093D01*
X110803287Y-116607093D02*
X110708049Y-116559474D01*
X110708049Y-116559474D02*
X110565192Y-116559474D01*
X110565192Y-116559474D02*
X110469954Y-116607093D01*
X110469954Y-116607093D02*
X110422335Y-116654712D01*
X112041383Y-117178522D02*
X112136621Y-117226141D01*
X112136621Y-117226141D02*
X112327097Y-117226141D01*
X112327097Y-117226141D02*
X112422335Y-117178522D01*
X112422335Y-117178522D02*
X112469954Y-117083283D01*
X112469954Y-117083283D02*
X112469954Y-117035664D01*
X112469954Y-117035664D02*
X112422335Y-116940426D01*
X112422335Y-116940426D02*
X112327097Y-116892807D01*
X112327097Y-116892807D02*
X112184240Y-116892807D01*
X112184240Y-116892807D02*
X112089002Y-116845188D01*
X112089002Y-116845188D02*
X112041383Y-116749950D01*
X112041383Y-116749950D02*
X112041383Y-116702331D01*
X112041383Y-116702331D02*
X112089002Y-116607093D01*
X112089002Y-116607093D02*
X112184240Y-116559474D01*
X112184240Y-116559474D02*
X112327097Y-116559474D01*
X112327097Y-116559474D02*
X112422335Y-116607093D01*
X112755669Y-116559474D02*
X113136621Y-116559474D01*
X112898526Y-116226141D02*
X112898526Y-117083283D01*
X112898526Y-117083283D02*
X112946145Y-117178522D01*
X112946145Y-117178522D02*
X113041383Y-117226141D01*
X113041383Y-117226141D02*
X113136621Y-117226141D01*
X113898526Y-116559474D02*
X113898526Y-117226141D01*
X113469955Y-116559474D02*
X113469955Y-117083283D01*
X113469955Y-117083283D02*
X113517574Y-117178522D01*
X113517574Y-117178522D02*
X113612812Y-117226141D01*
X113612812Y-117226141D02*
X113755669Y-117226141D01*
X113755669Y-117226141D02*
X113850907Y-117178522D01*
X113850907Y-117178522D02*
X113898526Y-117130902D01*
X114803288Y-117226141D02*
X114803288Y-116226141D01*
X114803288Y-117178522D02*
X114708050Y-117226141D01*
X114708050Y-117226141D02*
X114517574Y-117226141D01*
X114517574Y-117226141D02*
X114422336Y-117178522D01*
X114422336Y-117178522D02*
X114374717Y-117130902D01*
X114374717Y-117130902D02*
X114327098Y-117035664D01*
X114327098Y-117035664D02*
X114327098Y-116749950D01*
X114327098Y-116749950D02*
X114374717Y-116654712D01*
X114374717Y-116654712D02*
X114422336Y-116607093D01*
X114422336Y-116607093D02*
X114517574Y-116559474D01*
X114517574Y-116559474D02*
X114708050Y-116559474D01*
X114708050Y-116559474D02*
X114803288Y-116607093D01*
X115279479Y-117226141D02*
X115279479Y-116559474D01*
X115279479Y-116226141D02*
X115231860Y-116273760D01*
X115231860Y-116273760D02*
X115279479Y-116321379D01*
X115279479Y-116321379D02*
X115327098Y-116273760D01*
X115327098Y-116273760D02*
X115279479Y-116226141D01*
X115279479Y-116226141D02*
X115279479Y-116321379D01*
X115898526Y-117226141D02*
X115803288Y-117178522D01*
X115803288Y-117178522D02*
X115755669Y-117130902D01*
X115755669Y-117130902D02*
X115708050Y-117035664D01*
X115708050Y-117035664D02*
X115708050Y-116749950D01*
X115708050Y-116749950D02*
X115755669Y-116654712D01*
X115755669Y-116654712D02*
X115803288Y-116607093D01*
X115803288Y-116607093D02*
X115898526Y-116559474D01*
X115898526Y-116559474D02*
X116041383Y-116559474D01*
X116041383Y-116559474D02*
X116136621Y-116607093D01*
X116136621Y-116607093D02*
X116184240Y-116654712D01*
X116184240Y-116654712D02*
X116231859Y-116749950D01*
X116231859Y-116749950D02*
X116231859Y-117035664D01*
X116231859Y-117035664D02*
X116184240Y-117130902D01*
X116184240Y-117130902D02*
X116136621Y-117178522D01*
X116136621Y-117178522D02*
X116041383Y-117226141D01*
X116041383Y-117226141D02*
X115898526Y-117226141D01*
X117946145Y-117226141D02*
X117374717Y-117226141D01*
X117660431Y-117226141D02*
X117660431Y-116226141D01*
X117660431Y-116226141D02*
X117565193Y-116368998D01*
X117565193Y-116368998D02*
X117469955Y-116464236D01*
X117469955Y-116464236D02*
X117374717Y-116511855D01*
X118374717Y-117130902D02*
X118422336Y-117178522D01*
X118422336Y-117178522D02*
X118374717Y-117226141D01*
X118374717Y-117226141D02*
X118327098Y-117178522D01*
X118327098Y-117178522D02*
X118374717Y-117130902D01*
X118374717Y-117130902D02*
X118374717Y-117226141D01*
X118803288Y-116321379D02*
X118850907Y-116273760D01*
X118850907Y-116273760D02*
X118946145Y-116226141D01*
X118946145Y-116226141D02*
X119184240Y-116226141D01*
X119184240Y-116226141D02*
X119279478Y-116273760D01*
X119279478Y-116273760D02*
X119327097Y-116321379D01*
X119327097Y-116321379D02*
X119374716Y-116416617D01*
X119374716Y-116416617D02*
X119374716Y-116511855D01*
X119374716Y-116511855D02*
X119327097Y-116654712D01*
X119327097Y-116654712D02*
X118755669Y-117226141D01*
X118755669Y-117226141D02*
X119374716Y-117226141D01*
X119946145Y-117226141D02*
X119850907Y-117178522D01*
X119850907Y-117178522D02*
X119803288Y-117130902D01*
X119803288Y-117130902D02*
X119755669Y-117035664D01*
X119755669Y-117035664D02*
X119755669Y-116749950D01*
X119755669Y-116749950D02*
X119803288Y-116654712D01*
X119803288Y-116654712D02*
X119850907Y-116607093D01*
X119850907Y-116607093D02*
X119946145Y-116559474D01*
X119946145Y-116559474D02*
X120089002Y-116559474D01*
X120089002Y-116559474D02*
X120184240Y-116607093D01*
X120184240Y-116607093D02*
X120231859Y-116654712D01*
X120231859Y-116654712D02*
X120279478Y-116749950D01*
X120279478Y-116749950D02*
X120279478Y-117035664D01*
X120279478Y-117035664D02*
X120231859Y-117130902D01*
X120231859Y-117130902D02*
X120184240Y-117178522D01*
X120184240Y-117178522D02*
X120089002Y-117226141D01*
X120089002Y-117226141D02*
X119946145Y-117226141D01*
X121136621Y-116559474D02*
X121136621Y-117368998D01*
X121136621Y-117368998D02*
X121089002Y-117464236D01*
X121089002Y-117464236D02*
X121041383Y-117511855D01*
X121041383Y-117511855D02*
X120946145Y-117559474D01*
X120946145Y-117559474D02*
X120803288Y-117559474D01*
X120803288Y-117559474D02*
X120708050Y-117511855D01*
X121136621Y-117178522D02*
X121041383Y-117226141D01*
X121041383Y-117226141D02*
X120850907Y-117226141D01*
X120850907Y-117226141D02*
X120755669Y-117178522D01*
X120755669Y-117178522D02*
X120708050Y-117130902D01*
X120708050Y-117130902D02*
X120660431Y-117035664D01*
X120660431Y-117035664D02*
X120660431Y-116749950D01*
X120660431Y-116749950D02*
X120708050Y-116654712D01*
X120708050Y-116654712D02*
X120755669Y-116607093D01*
X120755669Y-116607093D02*
X120850907Y-116559474D01*
X120850907Y-116559474D02*
X121041383Y-116559474D01*
X121041383Y-116559474D02*
X121136621Y-116607093D01*
X122374717Y-117226141D02*
X122374717Y-116226141D01*
X122374717Y-116607093D02*
X122469955Y-116559474D01*
X122469955Y-116559474D02*
X122660431Y-116559474D01*
X122660431Y-116559474D02*
X122755669Y-116607093D01*
X122755669Y-116607093D02*
X122803288Y-116654712D01*
X122803288Y-116654712D02*
X122850907Y-116749950D01*
X122850907Y-116749950D02*
X122850907Y-117035664D01*
X122850907Y-117035664D02*
X122803288Y-117130902D01*
X122803288Y-117130902D02*
X122755669Y-117178522D01*
X122755669Y-117178522D02*
X122660431Y-117226141D01*
X122660431Y-117226141D02*
X122469955Y-117226141D01*
X122469955Y-117226141D02*
X122374717Y-117178522D01*
X123708050Y-117226141D02*
X123708050Y-116702331D01*
X123708050Y-116702331D02*
X123660431Y-116607093D01*
X123660431Y-116607093D02*
X123565193Y-116559474D01*
X123565193Y-116559474D02*
X123374717Y-116559474D01*
X123374717Y-116559474D02*
X123279479Y-116607093D01*
X123708050Y-117178522D02*
X123612812Y-117226141D01*
X123612812Y-117226141D02*
X123374717Y-117226141D01*
X123374717Y-117226141D02*
X123279479Y-117178522D01*
X123279479Y-117178522D02*
X123231860Y-117083283D01*
X123231860Y-117083283D02*
X123231860Y-116988045D01*
X123231860Y-116988045D02*
X123279479Y-116892807D01*
X123279479Y-116892807D02*
X123374717Y-116845188D01*
X123374717Y-116845188D02*
X123612812Y-116845188D01*
X123612812Y-116845188D02*
X123708050Y-116797569D01*
X124612812Y-117178522D02*
X124517574Y-117226141D01*
X124517574Y-117226141D02*
X124327098Y-117226141D01*
X124327098Y-117226141D02*
X124231860Y-117178522D01*
X124231860Y-117178522D02*
X124184241Y-117130902D01*
X124184241Y-117130902D02*
X124136622Y-117035664D01*
X124136622Y-117035664D02*
X124136622Y-116749950D01*
X124136622Y-116749950D02*
X124184241Y-116654712D01*
X124184241Y-116654712D02*
X124231860Y-116607093D01*
X124231860Y-116607093D02*
X124327098Y-116559474D01*
X124327098Y-116559474D02*
X124517574Y-116559474D01*
X124517574Y-116559474D02*
X124612812Y-116607093D01*
X125041384Y-117226141D02*
X125041384Y-116226141D01*
X125136622Y-116845188D02*
X125422336Y-117226141D01*
X125422336Y-116559474D02*
X125041384Y-116940426D01*
X126279479Y-116559474D02*
X126279479Y-117226141D01*
X125850908Y-116559474D02*
X125850908Y-117083283D01*
X125850908Y-117083283D02*
X125898527Y-117178522D01*
X125898527Y-117178522D02*
X125993765Y-117226141D01*
X125993765Y-117226141D02*
X126136622Y-117226141D01*
X126136622Y-117226141D02*
X126231860Y-117178522D01*
X126231860Y-117178522D02*
X126279479Y-117130902D01*
X126755670Y-116559474D02*
X126755670Y-117559474D01*
X126755670Y-116607093D02*
X126850908Y-116559474D01*
X126850908Y-116559474D02*
X127041384Y-116559474D01*
X127041384Y-116559474D02*
X127136622Y-116607093D01*
X127136622Y-116607093D02*
X127184241Y-116654712D01*
X127184241Y-116654712D02*
X127231860Y-116749950D01*
X127231860Y-116749950D02*
X127231860Y-117035664D01*
X127231860Y-117035664D02*
X127184241Y-117130902D01*
X127184241Y-117130902D02*
X127136622Y-117178522D01*
X127136622Y-117178522D02*
X127041384Y-117226141D01*
X127041384Y-117226141D02*
X126850908Y-117226141D01*
X126850908Y-117226141D02*
X126755670Y-117178522D01*
X128422337Y-116559474D02*
X128422337Y-117559474D01*
X128422337Y-116607093D02*
X128517575Y-116559474D01*
X128517575Y-116559474D02*
X128708051Y-116559474D01*
X128708051Y-116559474D02*
X128803289Y-116607093D01*
X128803289Y-116607093D02*
X128850908Y-116654712D01*
X128850908Y-116654712D02*
X128898527Y-116749950D01*
X128898527Y-116749950D02*
X128898527Y-117035664D01*
X128898527Y-117035664D02*
X128850908Y-117130902D01*
X128850908Y-117130902D02*
X128803289Y-117178522D01*
X128803289Y-117178522D02*
X128708051Y-117226141D01*
X128708051Y-117226141D02*
X128517575Y-117226141D01*
X128517575Y-117226141D02*
X128422337Y-117178522D01*
X129469956Y-117226141D02*
X129374718Y-117178522D01*
X129374718Y-117178522D02*
X129327099Y-117083283D01*
X129327099Y-117083283D02*
X129327099Y-116226141D01*
X130279480Y-117226141D02*
X130279480Y-116702331D01*
X130279480Y-116702331D02*
X130231861Y-116607093D01*
X130231861Y-116607093D02*
X130136623Y-116559474D01*
X130136623Y-116559474D02*
X129946147Y-116559474D01*
X129946147Y-116559474D02*
X129850909Y-116607093D01*
X130279480Y-117178522D02*
X130184242Y-117226141D01*
X130184242Y-117226141D02*
X129946147Y-117226141D01*
X129946147Y-117226141D02*
X129850909Y-117178522D01*
X129850909Y-117178522D02*
X129803290Y-117083283D01*
X129803290Y-117083283D02*
X129803290Y-116988045D01*
X129803290Y-116988045D02*
X129850909Y-116892807D01*
X129850909Y-116892807D02*
X129946147Y-116845188D01*
X129946147Y-116845188D02*
X130184242Y-116845188D01*
X130184242Y-116845188D02*
X130279480Y-116797569D01*
X130755671Y-116559474D02*
X130755671Y-117226141D01*
X130755671Y-116654712D02*
X130803290Y-116607093D01*
X130803290Y-116607093D02*
X130898528Y-116559474D01*
X130898528Y-116559474D02*
X131041385Y-116559474D01*
X131041385Y-116559474D02*
X131136623Y-116607093D01*
X131136623Y-116607093D02*
X131184242Y-116702331D01*
X131184242Y-116702331D02*
X131184242Y-117226141D01*
X108279478Y-118846141D02*
X108279478Y-117846141D01*
X108279478Y-118227093D02*
X108374716Y-118179474D01*
X108374716Y-118179474D02*
X108565192Y-118179474D01*
X108565192Y-118179474D02*
X108660430Y-118227093D01*
X108660430Y-118227093D02*
X108708049Y-118274712D01*
X108708049Y-118274712D02*
X108755668Y-118369950D01*
X108755668Y-118369950D02*
X108755668Y-118655664D01*
X108755668Y-118655664D02*
X108708049Y-118750902D01*
X108708049Y-118750902D02*
X108660430Y-118798522D01*
X108660430Y-118798522D02*
X108565192Y-118846141D01*
X108565192Y-118846141D02*
X108374716Y-118846141D01*
X108374716Y-118846141D02*
X108279478Y-118798522D01*
X109089002Y-118179474D02*
X109327097Y-118846141D01*
X109565192Y-118179474D02*
X109327097Y-118846141D01*
X109327097Y-118846141D02*
X109231859Y-119084236D01*
X109231859Y-119084236D02*
X109184240Y-119131855D01*
X109184240Y-119131855D02*
X109089002Y-119179474D01*
X110612812Y-118179474D02*
X111136621Y-118179474D01*
X111136621Y-118179474D02*
X110612812Y-118846141D01*
X110612812Y-118846141D02*
X111136621Y-118846141D01*
X111517574Y-118846141D02*
X111517574Y-117846141D01*
X111946145Y-118846141D02*
X111946145Y-118322331D01*
X111946145Y-118322331D02*
X111898526Y-118227093D01*
X111898526Y-118227093D02*
X111803288Y-118179474D01*
X111803288Y-118179474D02*
X111660431Y-118179474D01*
X111660431Y-118179474D02*
X111565193Y-118227093D01*
X111565193Y-118227093D02*
X111517574Y-118274712D01*
X112565193Y-118846141D02*
X112469955Y-118798522D01*
X112469955Y-118798522D02*
X112422336Y-118750902D01*
X112422336Y-118750902D02*
X112374717Y-118655664D01*
X112374717Y-118655664D02*
X112374717Y-118369950D01*
X112374717Y-118369950D02*
X112422336Y-118274712D01*
X112422336Y-118274712D02*
X112469955Y-118227093D01*
X112469955Y-118227093D02*
X112565193Y-118179474D01*
X112565193Y-118179474D02*
X112708050Y-118179474D01*
X112708050Y-118179474D02*
X112803288Y-118227093D01*
X112803288Y-118227093D02*
X112850907Y-118274712D01*
X112850907Y-118274712D02*
X112898526Y-118369950D01*
X112898526Y-118369950D02*
X112898526Y-118655664D01*
X112898526Y-118655664D02*
X112850907Y-118750902D01*
X112850907Y-118750902D02*
X112803288Y-118798522D01*
X112803288Y-118798522D02*
X112708050Y-118846141D01*
X112708050Y-118846141D02*
X112565193Y-118846141D01*
X113469955Y-118846141D02*
X113374717Y-118798522D01*
X113374717Y-118798522D02*
X113327098Y-118703283D01*
X113327098Y-118703283D02*
X113327098Y-117846141D01*
D13*
%TO.C,SW71*%
X147808781Y-103511972D03*
D14*
X142728781Y-103511972D03*
D13*
X137648781Y-103511972D03*
%TD*%
%TO.C,SW12*%
X276198781Y-22671972D03*
D14*
X271118781Y-22671972D03*
D13*
X266038781Y-22671972D03*
%TD*%
%TO.C,SW26*%
X200088781Y-46451972D03*
D14*
X195008781Y-46451972D03*
D13*
X189928781Y-46451972D03*
%TD*%
%TO.C,SW76*%
X242918781Y-103511972D03*
D14*
X237838781Y-103511972D03*
D13*
X232758781Y-103511972D03*
%TD*%
%TO.C,SW21*%
X104988781Y-46451972D03*
D14*
X99908781Y-46451972D03*
D13*
X94828781Y-46451972D03*
%TD*%
%TO.C,SW24*%
X162048781Y-46451972D03*
D14*
X156968781Y-46451972D03*
D13*
X151888781Y-46451972D03*
%TD*%
%TO.C,SW25*%
X181068781Y-46451972D03*
D14*
X175988781Y-46451972D03*
D13*
X170908781Y-46451972D03*
%TD*%
%TO.C,SW60*%
X176298781Y-84491972D03*
D14*
X171218781Y-84491972D03*
D13*
X166138781Y-84491972D03*
%TD*%
%TO.C,SW83*%
X57388781Y-122531972D03*
D14*
X52308781Y-122531972D03*
D13*
X47228781Y-122531972D03*
%TD*%
%TO.C,SW74*%
X204878781Y-103511972D03*
D14*
X199798781Y-103511972D03*
D13*
X194718781Y-103511972D03*
%TD*%
%TO.C,SW9*%
X209598781Y-22673972D03*
D14*
X204518781Y-22673972D03*
D13*
X199438781Y-22673972D03*
%TD*%
%TO.C,SW32*%
X318998781Y-46451972D03*
D14*
X313918781Y-46451972D03*
D13*
X308838781Y-46451972D03*
%TD*%
%TO.C,SW53*%
X36031281Y-84491972D03*
D14*
X30951281Y-84491972D03*
D13*
X25871281Y-84491972D03*
%TD*%
%TO.C,SW90*%
X266608781Y-122533972D03*
D14*
X261528781Y-122533972D03*
D13*
X256448781Y-122533972D03*
%TD*%
%TO.C,SW65*%
X283238754Y-84494003D03*
D14*
X278158754Y-84494003D03*
D13*
X273078754Y-84494003D03*
%TD*%
%TO.C,SW84*%
X81163781Y-122531972D03*
D14*
X76083781Y-122531972D03*
D13*
X71003781Y-122531972D03*
%TD*%
%TO.C,SW39*%
X114448781Y-65471972D03*
D14*
X109368781Y-65471972D03*
D13*
X104288781Y-65471972D03*
%TD*%
%TO.C,SW86*%
X152550195Y-122533832D03*
D14*
X147470195Y-122533832D03*
D13*
X142390195Y-122533832D03*
%TD*%
%TO.C,SW63*%
X233318781Y-84491972D03*
D14*
X228238781Y-84491972D03*
D13*
X223158781Y-84491972D03*
%TD*%
%TO.C,SW35*%
X33638781Y-65473972D03*
D14*
X28558781Y-65473972D03*
D13*
X23478781Y-65473972D03*
%TD*%
%TO.C,SW15*%
X338018781Y-22668513D03*
D14*
X332938781Y-22668513D03*
D13*
X327858781Y-22668513D03*
%TD*%
%TO.C,SW47*%
X266608781Y-65473972D03*
D14*
X261528781Y-65473972D03*
D13*
X256448781Y-65473972D03*
%TD*%
%TO.C,SW41*%
X152488781Y-65471972D03*
D14*
X147408781Y-65471972D03*
D13*
X142328781Y-65471972D03*
%TD*%
%TO.C,SW62*%
X214318781Y-84491972D03*
D14*
X209238781Y-84491972D03*
D13*
X204158781Y-84491972D03*
%TD*%
%TO.C,SW89*%
X242833781Y-122533972D03*
D14*
X237753781Y-122533972D03*
D13*
X232673781Y-122533972D03*
%TD*%
%TO.C,SW49*%
X318998781Y-65471972D03*
D14*
X313918781Y-65471972D03*
D13*
X308838781Y-65471972D03*
%TD*%
%TO.C,SW28*%
X238128781Y-46451972D03*
D14*
X233048781Y-46451972D03*
D13*
X227968781Y-46451972D03*
%TD*%
%TO.C,SW10*%
X238158781Y-22671972D03*
D14*
X233078781Y-22671972D03*
D13*
X227998781Y-22671972D03*
%TD*%
%TO.C,SW1*%
X28908781Y-22673972D03*
D14*
X23828781Y-22673972D03*
D13*
X18748781Y-22673972D03*
%TD*%
%TO.C,SW70*%
X128788781Y-103511972D03*
D14*
X123708781Y-103511972D03*
D13*
X118628781Y-103511972D03*
%TD*%
%TO.C,SW13*%
X295218781Y-22671972D03*
D14*
X290138781Y-22671972D03*
D13*
X285058781Y-22671972D03*
%TD*%
%TO.C,SW87*%
X223776281Y-122531972D03*
D14*
X218696281Y-122531972D03*
D13*
X213616281Y-122531972D03*
%TD*%
%TO.C,SW11*%
X257148781Y-22671972D03*
D14*
X252068781Y-22671972D03*
D13*
X246988781Y-22671972D03*
%TD*%
%TO.C,SW27*%
X219108781Y-46451972D03*
D14*
X214028781Y-46451972D03*
D13*
X208948781Y-46451972D03*
%TD*%
%TO.C,SW37*%
X76408781Y-65471972D03*
D14*
X71328781Y-65471972D03*
D13*
X66248781Y-65471972D03*
%TD*%
%TO.C,SW5*%
X124009200Y-22678819D03*
D14*
X118929200Y-22678819D03*
D13*
X113849200Y-22678819D03*
%TD*%
D15*
%TO.C,H1*%
X303241693Y-78471777D03*
%TD*%
D13*
%TO.C,SW4*%
X104989200Y-22678819D03*
D14*
X99909200Y-22678819D03*
D13*
X94829200Y-22678819D03*
%TD*%
%TO.C,SW23*%
X143028781Y-46451972D03*
D14*
X137948781Y-46451972D03*
D13*
X132868781Y-46451972D03*
%TD*%
%TO.C,SW42*%
X171508781Y-65471972D03*
D14*
X166428781Y-65471972D03*
D13*
X161348781Y-65471972D03*
%TD*%
%TO.C,SW91*%
X290423781Y-122533972D03*
D14*
X285343781Y-122533972D03*
D13*
X280263781Y-122533972D03*
%TD*%
%TO.C,SW22*%
X124008781Y-46451972D03*
D14*
X118928781Y-46451972D03*
D13*
X113848781Y-46451972D03*
%TD*%
%TO.C,SW64*%
X252318781Y-84491972D03*
D14*
X247238781Y-84491972D03*
D13*
X242158781Y-84491972D03*
%TD*%
%TO.C,SW81*%
X338018781Y-103511972D03*
D14*
X332938781Y-103511972D03*
D13*
X327858781Y-103511972D03*
%TD*%
%TO.C,SW52*%
X31268781Y-84491972D03*
D14*
X26188781Y-84491972D03*
D13*
X21108781Y-84491972D03*
%TD*%
%TO.C,SW30*%
X285693781Y-46453972D03*
D14*
X280613781Y-46453972D03*
D13*
X275533781Y-46453972D03*
%TD*%
D16*
%TO.C,J4*%
X349921666Y-106584334D03*
D17*
X349921665Y-104584333D03*
X349921665Y-102584333D03*
%TD*%
D13*
%TO.C,SW51*%
X357038781Y-65471972D03*
D14*
X351958781Y-65471972D03*
D13*
X346878781Y-65471972D03*
%TD*%
%TO.C,SW34*%
X357038781Y-46451972D03*
D14*
X351958781Y-46451972D03*
D13*
X346878781Y-46451972D03*
%TD*%
%TO.C,SW66*%
X40821281Y-103511972D03*
D14*
X35741281Y-103511972D03*
D13*
X30661281Y-103511972D03*
%TD*%
%TO.C,SW8*%
X190578781Y-22673972D03*
D14*
X185498781Y-22673972D03*
D13*
X180418781Y-22673972D03*
%TD*%
%TO.C,SW36*%
X57388781Y-65471972D03*
D14*
X52308781Y-65471972D03*
D13*
X47228781Y-65471972D03*
%TD*%
%TO.C,SW68*%
X90748781Y-103511972D03*
D14*
X85668781Y-103511972D03*
D13*
X80588781Y-103511972D03*
%TD*%
%TO.C,SW94*%
X357038781Y-122531972D03*
D14*
X351958781Y-122531972D03*
D13*
X346878781Y-122531972D03*
%TD*%
%TO.C,SW19*%
X66948781Y-46451972D03*
D14*
X61868781Y-46451972D03*
D13*
X56788781Y-46451972D03*
%TD*%
%TO.C,SW73*%
X185848781Y-103511972D03*
D14*
X180768781Y-103511972D03*
D13*
X175688781Y-103511972D03*
%TD*%
%TO.C,SW78*%
X278573781Y-103511972D03*
D14*
X273493781Y-103511972D03*
D13*
X268413781Y-103511972D03*
%TD*%
%TO.C,SW61*%
X195318781Y-84491972D03*
D14*
X190238781Y-84491972D03*
D13*
X185158781Y-84491972D03*
%TD*%
%TO.C,SW43*%
X190528781Y-65471972D03*
D14*
X185448781Y-65471972D03*
D13*
X180368781Y-65471972D03*
%TD*%
%TO.C,SW33*%
X338018781Y-46451972D03*
D14*
X332938781Y-46451972D03*
D13*
X327858781Y-46451972D03*
%TD*%
%TO.C,SW88*%
X247588781Y-122531972D03*
D14*
X242508781Y-122531972D03*
D13*
X237428781Y-122531972D03*
%TD*%
%TO.C,SW93*%
X338018781Y-122531972D03*
D14*
X332938781Y-122531972D03*
D13*
X327858781Y-122531972D03*
%TD*%
D18*
%TO.C,J2*%
X305678780Y-13878333D03*
X298378780Y-13878333D03*
%TD*%
D13*
%TO.C,SW56*%
X100278781Y-84491972D03*
D14*
X95198781Y-84491972D03*
D13*
X90118781Y-84491972D03*
%TD*%
D14*
%TO.C,S5*%
X99830195Y-114275832D03*
D19*
X99830195Y-129515832D03*
D14*
X214130195Y-114275832D03*
D19*
X214130195Y-129515832D03*
%TD*%
D13*
%TO.C,SW40*%
X133468781Y-65471972D03*
D14*
X128388781Y-65471972D03*
D13*
X123308781Y-65471972D03*
%TD*%
%TO.C,SW20*%
X85968781Y-46451972D03*
D14*
X80888781Y-46451972D03*
D13*
X75808781Y-46451972D03*
%TD*%
%TO.C,SW69*%
X109768781Y-103511972D03*
D14*
X104688781Y-103511972D03*
D13*
X99608781Y-103511972D03*
%TD*%
%TO.C,SW16*%
X357038781Y-22671972D03*
D14*
X351958781Y-22671972D03*
D13*
X346878781Y-22671972D03*
%TD*%
%TO.C,SW7*%
X171558781Y-22673972D03*
D14*
X166478781Y-22673972D03*
D13*
X161398781Y-22673972D03*
%TD*%
%TO.C,SW67*%
X71728781Y-103511972D03*
D14*
X66648781Y-103511972D03*
D13*
X61568781Y-103511972D03*
%TD*%
%TO.C,SW50*%
X338018781Y-65471972D03*
D14*
X332938781Y-65471972D03*
D13*
X327858781Y-65471972D03*
%TD*%
D14*
%TO.C,S4*%
X285400031Y-111766972D03*
X261587531Y-111766972D03*
%TD*%
D13*
%TO.C,SW72*%
X166828781Y-103511972D03*
D14*
X161748781Y-103511972D03*
D13*
X156668781Y-103511972D03*
%TD*%
%TO.C,SW3*%
X85969200Y-22678819D03*
D14*
X80889200Y-22678819D03*
D13*
X75809200Y-22678819D03*
%TD*%
D14*
%TO.C,S6*%
X99845195Y-114278832D03*
D19*
X99845195Y-129518832D03*
D14*
X195095195Y-114278832D03*
D19*
X195095195Y-129518832D03*
%TD*%
D13*
%TO.C,SW57*%
X119278781Y-84491972D03*
D14*
X114198781Y-84491972D03*
D13*
X109118781Y-84491972D03*
%TD*%
D14*
%TO.C,S2*%
X266252504Y-76239003D03*
D19*
X266252504Y-91479003D03*
D14*
X290065004Y-76239003D03*
D19*
X290065004Y-91479003D03*
%TD*%
D14*
%TO.C,S3*%
X47647531Y-111766972D03*
D19*
X47647531Y-96526972D03*
D14*
X23835031Y-111766972D03*
D19*
X23835031Y-96526972D03*
%TD*%
D15*
%TO.C,H2*%
X357958732Y-90493906D03*
%TD*%
D13*
%TO.C,SW92*%
X318998781Y-122531972D03*
D14*
X313918781Y-122531972D03*
D13*
X308838781Y-122531972D03*
%TD*%
%TO.C,SW77*%
X269028781Y-103511972D03*
D14*
X263948781Y-103511972D03*
D13*
X258868781Y-103511972D03*
%TD*%
%TO.C,SW59*%
X157278781Y-84491972D03*
D14*
X152198781Y-84491972D03*
D13*
X147118781Y-84491972D03*
%TD*%
%TO.C,SW44*%
X209548781Y-65471972D03*
D14*
X204468781Y-65471972D03*
D13*
X199388781Y-65471972D03*
%TD*%
%TO.C,SW29*%
X257148781Y-46451972D03*
D14*
X252068781Y-46451972D03*
D13*
X246988781Y-46451972D03*
%TD*%
%TO.C,SW82*%
X33638781Y-122533972D03*
D14*
X28558781Y-122533972D03*
D13*
X23478781Y-122533972D03*
%TD*%
%TO.C,SW75*%
X223898781Y-103511972D03*
D14*
X218818781Y-103511972D03*
D13*
X213738781Y-103511972D03*
%TD*%
%TO.C,SW55*%
X81278781Y-84491972D03*
D14*
X76198781Y-84491972D03*
D13*
X71118781Y-84491972D03*
%TD*%
%TO.C,SW38*%
X95428781Y-65471972D03*
D14*
X90348781Y-65471972D03*
D13*
X85268781Y-65471972D03*
%TD*%
D14*
%TO.C,S1*%
X292520031Y-54708972D03*
X268707531Y-54708972D03*
%TD*%
D13*
%TO.C,SW80*%
X295203781Y-46453972D03*
D14*
X290123781Y-46453972D03*
D13*
X285043781Y-46453972D03*
%TD*%
%TO.C,SW14*%
X318998781Y-22671972D03*
D14*
X313918781Y-22671972D03*
D13*
X308838781Y-22671972D03*
%TD*%
%TO.C,SW48*%
X290423781Y-65473972D03*
D14*
X285343781Y-65473972D03*
D13*
X280263781Y-65473972D03*
%TD*%
%TO.C,SW31*%
X276183781Y-46453972D03*
D14*
X271103781Y-46453972D03*
D13*
X266023781Y-46453972D03*
%TD*%
%TO.C,SW79*%
X288048781Y-103511972D03*
D14*
X282968781Y-103511972D03*
D13*
X277888781Y-103511972D03*
%TD*%
%TO.C,SW6*%
X152538781Y-22673972D03*
D14*
X147458781Y-22673972D03*
D13*
X142378781Y-22673972D03*
%TD*%
%TO.C,SW46*%
X247588781Y-65471972D03*
D14*
X242508781Y-65471972D03*
D13*
X237428781Y-65471972D03*
%TD*%
D20*
%TO.C,J3*%
X345438780Y-107063962D03*
D21*
X345438780Y-104523962D03*
X345438780Y-101983962D03*
%TD*%
D13*
%TO.C,SW45*%
X228568781Y-65471972D03*
D14*
X223488781Y-65471972D03*
D13*
X218408781Y-65471972D03*
%TD*%
%TO.C,SW17*%
X28908781Y-46451972D03*
D14*
X23828781Y-46451972D03*
D13*
X18748781Y-46451972D03*
%TD*%
%TO.C,SW54*%
X62278781Y-84491972D03*
D14*
X57198781Y-84491972D03*
D13*
X52118781Y-84491972D03*
%TD*%
%TO.C,SW2*%
X66949200Y-22678819D03*
D14*
X61869200Y-22678819D03*
D13*
X56789200Y-22678819D03*
%TD*%
%TO.C,SW58*%
X138278781Y-84491972D03*
D14*
X133198781Y-84491972D03*
D13*
X128118781Y-84491972D03*
%TD*%
%TO.C,SW85*%
X162060195Y-122533832D03*
D14*
X156980195Y-122533832D03*
D13*
X151900195Y-122533832D03*
%TD*%
%TO.C,SW18*%
X47928781Y-46451972D03*
D14*
X42848781Y-46451972D03*
D13*
X37768781Y-46451972D03*
%TD*%
M02*
