%TF.GenerationSoftware,KiCad,Pcbnew,(7.99.0-267-g8440d7258b)*%
%TF.CreationDate,2023-05-05T14:11:09-07:00*%
%TF.ProjectId,1_2og_repro,315f326f-675f-4726-9570-726f2e6b6963,rev?*%
%TF.SameCoordinates,Original*%
%TF.FileFunction,Soldermask,Top*%
%TF.FilePolarity,Negative*%
%FSLAX46Y46*%
G04 Gerber Fmt 4.6, Leading zero omitted, Abs format (unit mm)*
G04 Created by KiCad (PCBNEW (7.99.0-267-g8440d7258b)) date 2023-05-05 14:11:09*
%MOMM*%
%LPD*%
G01*
G04 APERTURE LIST*
G04 Aperture macros list*
%AMRoundRect*
0 Rectangle with rounded corners*
0 $1 Rounding radius*
0 $2 $3 $4 $5 $6 $7 $8 $9 X,Y pos of 4 corners*
0 Add a 4 corners polygon primitive as box body*
4,1,4,$2,$3,$4,$5,$6,$7,$8,$9,$2,$3,0*
0 Add four circle primitives for the rounded corners*
1,1,$1+$1,$2,$3*
1,1,$1+$1,$4,$5*
1,1,$1+$1,$6,$7*
1,1,$1+$1,$8,$9*
0 Add four rect primitives between the rounded corners*
20,1,$1+$1,$2,$3,$4,$5,0*
20,1,$1+$1,$4,$5,$6,$7,0*
20,1,$1+$1,$6,$7,$8,$9,0*
20,1,$1+$1,$8,$9,$2,$3,0*%
G04 Aperture macros list end*
%ADD10C,3.987800*%
%ADD11C,3.048000*%
%ADD12R,0.500000X2.250000*%
%ADD13O,1.700000X2.700000*%
%ADD14C,1.750000*%
%ADD15RoundRect,0.650000X0.650000X0.650000X-0.650000X0.650000X-0.650000X-0.650000X0.650000X-0.650000X0*%
%ADD16C,2.600000*%
%ADD17C,6.400000*%
%ADD18RoundRect,0.250000X0.625000X-0.350000X0.625000X0.350000X-0.625000X0.350000X-0.625000X-0.350000X0*%
%ADD19O,1.750000X1.200000*%
%ADD20R,1.700000X1.700000*%
%ADD21O,1.700000X1.700000*%
G04 APERTURE END LIST*
D10*
%TO.C,S4*%
X45402365Y-110689638D03*
X21589865Y-110689638D03*
D11*
X21589865Y-95449638D03*
X45402365Y-95449638D03*
%TD*%
D10*
%TO.C,S3*%
X264019838Y-75159669D03*
X287832338Y-75159669D03*
D11*
X287832338Y-90399669D03*
X264019838Y-90399669D03*
%TD*%
D12*
%TO.C,J2*%
X298196114Y-17349999D03*
X298996114Y-17349999D03*
X299796114Y-17349999D03*
X300596114Y-17349999D03*
X301396114Y-17349999D03*
D13*
X303446114Y-17349999D03*
X296146114Y-17349999D03*
X296146114Y-12849999D03*
X303446114Y-12849999D03*
%TD*%
D10*
%TO.C,S1*%
X290287365Y-53629638D03*
X266474865Y-53629638D03*
%TD*%
D14*
%TO.C,SW71*%
X145496115Y-102434638D03*
D10*
X140416115Y-102434638D03*
D14*
X135336115Y-102434638D03*
%TD*%
%TO.C,SW12*%
X273966115Y-21594638D03*
D10*
X268886115Y-21594638D03*
D14*
X263806115Y-21594638D03*
%TD*%
%TO.C,SW26*%
X197856115Y-45374638D03*
D10*
X192776115Y-45374638D03*
D14*
X187696115Y-45374638D03*
%TD*%
%TO.C,SW76*%
X240496115Y-102434638D03*
D10*
X235416115Y-102434638D03*
D14*
X230336115Y-102434638D03*
%TD*%
%TO.C,SW21*%
X102756115Y-45374638D03*
D10*
X97676115Y-45374638D03*
D14*
X92596115Y-45374638D03*
%TD*%
%TO.C,SW24*%
X159816115Y-45374638D03*
D10*
X154736115Y-45374638D03*
D14*
X149656115Y-45374638D03*
%TD*%
%TO.C,SW25*%
X178836115Y-45374638D03*
D10*
X173756115Y-45374638D03*
D14*
X168676115Y-45374638D03*
%TD*%
%TO.C,SW60*%
X174066115Y-83414638D03*
D10*
X168986115Y-83414638D03*
D14*
X163906115Y-83414638D03*
%TD*%
%TO.C,SW83*%
X55168615Y-121454638D03*
D10*
X50088615Y-121454638D03*
D14*
X45008615Y-121454638D03*
%TD*%
%TO.C,SW74*%
X202496115Y-102434638D03*
D10*
X197416115Y-102434638D03*
D14*
X192336115Y-102434638D03*
%TD*%
%TO.C,SW9*%
X207366115Y-21594638D03*
D10*
X202286115Y-21594638D03*
D14*
X197206115Y-21594638D03*
%TD*%
%TO.C,SW32*%
X316766115Y-45374638D03*
D10*
X311686115Y-45374638D03*
D14*
X306606115Y-45374638D03*
%TD*%
%TO.C,SW90*%
X335786115Y-121454638D03*
D10*
X330706115Y-121454638D03*
D14*
X325626115Y-121454638D03*
%TD*%
%TO.C,SW65*%
X281006088Y-83414669D03*
D10*
X275926088Y-83414669D03*
D14*
X270846088Y-83414669D03*
%TD*%
%TO.C,SW39*%
X112216115Y-64394638D03*
D10*
X107136115Y-64394638D03*
D14*
X102056115Y-64394638D03*
%TD*%
%TO.C,SW63*%
X231086115Y-83414638D03*
D10*
X226006115Y-83414638D03*
D14*
X220926115Y-83414638D03*
%TD*%
%TO.C,SW15*%
X335786115Y-21591179D03*
D10*
X330706115Y-21591179D03*
D14*
X325626115Y-21591179D03*
%TD*%
%TO.C,SW47*%
X264376115Y-64394638D03*
D10*
X259296115Y-64394638D03*
D14*
X254216115Y-64394638D03*
%TD*%
%TO.C,SW41*%
X150256115Y-64394638D03*
D10*
X145176115Y-64394638D03*
D14*
X140096115Y-64394638D03*
%TD*%
%TO.C,SW62*%
X212086115Y-83414638D03*
D10*
X207006115Y-83414638D03*
D14*
X201926115Y-83414638D03*
%TD*%
%TO.C,SW89*%
X316766115Y-121454638D03*
D10*
X311686115Y-121454638D03*
D14*
X306606115Y-121454638D03*
%TD*%
%TO.C,SW49*%
X316766115Y-64394638D03*
D10*
X311686115Y-64394638D03*
D14*
X306606115Y-64394638D03*
%TD*%
%TO.C,SW28*%
X235896115Y-45374638D03*
D10*
X230816115Y-45374638D03*
D14*
X225736115Y-45374638D03*
%TD*%
%TO.C,SW10*%
X235896115Y-21594638D03*
D10*
X230816115Y-21594638D03*
D14*
X225736115Y-21594638D03*
%TD*%
%TO.C,SW1*%
X26676115Y-21594638D03*
D10*
X21596115Y-21594638D03*
D14*
X16516115Y-21594638D03*
%TD*%
%TO.C,SW70*%
X126496115Y-102434638D03*
D10*
X121416115Y-102434638D03*
D14*
X116336115Y-102434638D03*
%TD*%
%TO.C,SW13*%
X292986115Y-21594638D03*
D10*
X287906115Y-21594638D03*
D14*
X282826115Y-21594638D03*
%TD*%
%TO.C,SW87*%
X264518615Y-121454638D03*
D10*
X259438615Y-121454638D03*
D14*
X254358615Y-121454638D03*
%TD*%
%TO.C,SW11*%
X254916115Y-21594638D03*
D10*
X249836115Y-21594638D03*
D14*
X244756115Y-21594638D03*
%TD*%
%TO.C,SW27*%
X216876115Y-45374638D03*
D10*
X211796115Y-45374638D03*
D14*
X206716115Y-45374638D03*
%TD*%
%TO.C,SW37*%
X74176115Y-64394638D03*
D10*
X69096115Y-64394638D03*
D14*
X64016115Y-64394638D03*
%TD*%
%TO.C,SW5*%
X121776534Y-21599485D03*
D10*
X116696534Y-21599485D03*
D14*
X111616534Y-21599485D03*
%TD*%
%TO.C,SW4*%
X102756534Y-21599485D03*
D10*
X97676534Y-21599485D03*
D14*
X92596534Y-21599485D03*
%TD*%
%TO.C,SW23*%
X140796115Y-45374638D03*
D10*
X135716115Y-45374638D03*
D14*
X130636115Y-45374638D03*
%TD*%
%TO.C,SW42*%
X169276115Y-64394638D03*
D10*
X164196115Y-64394638D03*
D14*
X159116115Y-64394638D03*
%TD*%
%TO.C,SW91*%
X354806115Y-121454638D03*
D10*
X349726115Y-121454638D03*
D14*
X344646115Y-121454638D03*
%TD*%
%TO.C,SW22*%
X121776115Y-45374638D03*
D10*
X116696115Y-45374638D03*
D14*
X111616115Y-45374638D03*
%TD*%
%TO.C,SW64*%
X250086115Y-83414638D03*
D10*
X245006115Y-83414638D03*
D14*
X239926115Y-83414638D03*
%TD*%
%TO.C,SW81*%
X335786115Y-102434638D03*
D10*
X330706115Y-102434638D03*
D14*
X325626115Y-102434638D03*
%TD*%
%TO.C,SW30*%
X283461115Y-45374638D03*
D10*
X278381115Y-45374638D03*
D14*
X273301115Y-45374638D03*
%TD*%
%TO.C,SW51*%
X354806115Y-64394638D03*
D10*
X349726115Y-64394638D03*
D14*
X344646115Y-64394638D03*
%TD*%
%TO.C,SW34*%
X354806115Y-45374638D03*
D10*
X349726115Y-45374638D03*
D14*
X344646115Y-45374638D03*
%TD*%
%TO.C,SW66*%
X38576115Y-102434638D03*
D10*
X33496115Y-102434638D03*
D14*
X28416115Y-102434638D03*
%TD*%
%TO.C,SW8*%
X188346115Y-21594638D03*
D10*
X183266115Y-21594638D03*
D14*
X178186115Y-21594638D03*
%TD*%
%TO.C,SW36*%
X55156115Y-64394638D03*
D10*
X50076115Y-64394638D03*
D14*
X44996115Y-64394638D03*
%TD*%
%TO.C,SW68*%
X88496115Y-102434638D03*
D10*
X83416115Y-102434638D03*
D14*
X78336115Y-102434638D03*
%TD*%
%TO.C,SW19*%
X64716115Y-45374638D03*
D10*
X59636115Y-45374638D03*
D14*
X54556115Y-45374638D03*
%TD*%
%TO.C,SW73*%
X183496115Y-102434638D03*
D10*
X178416115Y-102434638D03*
D14*
X173336115Y-102434638D03*
%TD*%
%TO.C,SW78*%
X276221115Y-102434638D03*
D10*
X271141115Y-102434638D03*
D14*
X266061115Y-102434638D03*
%TD*%
%TO.C,SW61*%
X193086115Y-83414638D03*
D10*
X188006115Y-83414638D03*
D14*
X182926115Y-83414638D03*
%TD*%
%TO.C,SW43*%
X188296115Y-64394638D03*
D10*
X183216115Y-64394638D03*
D14*
X178136115Y-64394638D03*
%TD*%
%TO.C,SW33*%
X335786115Y-45374638D03*
D10*
X330706115Y-45374638D03*
D14*
X325626115Y-45374638D03*
%TD*%
%TO.C,SW56*%
X98046115Y-83414638D03*
D10*
X92966115Y-83414638D03*
D14*
X87886115Y-83414638D03*
%TD*%
%TO.C,SW40*%
X131236115Y-64394638D03*
D10*
X126156115Y-64394638D03*
D14*
X121076115Y-64394638D03*
%TD*%
%TO.C,SW20*%
X83736115Y-45374638D03*
D10*
X78656115Y-45374638D03*
D14*
X73576115Y-45374638D03*
%TD*%
%TO.C,SW69*%
X107496115Y-102434638D03*
D10*
X102416115Y-102434638D03*
D14*
X97336115Y-102434638D03*
%TD*%
%TO.C,SW16*%
X354806115Y-21594638D03*
D10*
X349726115Y-21594638D03*
D14*
X344646115Y-21594638D03*
%TD*%
%TO.C,SW7*%
X169326115Y-21594638D03*
D10*
X164246115Y-21594638D03*
D14*
X159166115Y-21594638D03*
%TD*%
%TO.C,SW67*%
X69496115Y-102434638D03*
D10*
X64416115Y-102434638D03*
D14*
X59336115Y-102434638D03*
%TD*%
%TO.C,SW50*%
X335786115Y-64394638D03*
D10*
X330706115Y-64394638D03*
D14*
X325626115Y-64394638D03*
%TD*%
%TO.C,SW72*%
X164496115Y-102434638D03*
D10*
X159416115Y-102434638D03*
D14*
X154336115Y-102434638D03*
%TD*%
%TO.C,SW3*%
X83736534Y-21599485D03*
D10*
X78656534Y-21599485D03*
D14*
X73576534Y-21599485D03*
%TD*%
%TO.C,SW57*%
X117046115Y-83414638D03*
D10*
X111966115Y-83414638D03*
D14*
X106886115Y-83414638D03*
%TD*%
%TO.C,SW59*%
X155046115Y-83414638D03*
D10*
X149966115Y-83414638D03*
D14*
X144886115Y-83414638D03*
%TD*%
%TO.C,SW44*%
X207316115Y-64394638D03*
D10*
X202236115Y-64394638D03*
D14*
X197156115Y-64394638D03*
%TD*%
%TO.C,SW29*%
X254916115Y-45374638D03*
D10*
X249836115Y-45374638D03*
D14*
X244756115Y-45374638D03*
%TD*%
%TO.C,SW75*%
X221496115Y-102434638D03*
D10*
X216416115Y-102434638D03*
D14*
X211336115Y-102434638D03*
%TD*%
%TO.C,SW55*%
X79046115Y-83414638D03*
D10*
X73966115Y-83414638D03*
D14*
X68886115Y-83414638D03*
%TD*%
%TO.C,SW38*%
X93196115Y-64394638D03*
D10*
X88116115Y-64394638D03*
D14*
X83036115Y-64394638D03*
%TD*%
%TO.C,SW80*%
X292971115Y-45374638D03*
D10*
X287891115Y-45374638D03*
D14*
X282811115Y-45374638D03*
%TD*%
%TO.C,SW14*%
X316766115Y-21594638D03*
D10*
X311686115Y-21594638D03*
D14*
X306606115Y-21594638D03*
%TD*%
%TO.C,SW31*%
X273951115Y-45374638D03*
D10*
X268871115Y-45374638D03*
D14*
X263791115Y-45374638D03*
%TD*%
%TO.C,SW79*%
X285731115Y-102434638D03*
D10*
X280651115Y-102434638D03*
D14*
X275571115Y-102434638D03*
%TD*%
%TO.C,SW6*%
X150306115Y-21594638D03*
D10*
X145226115Y-21594638D03*
D14*
X140146115Y-21594638D03*
%TD*%
%TO.C,SW46*%
X245356115Y-64394638D03*
D10*
X240276115Y-64394638D03*
D14*
X235196115Y-64394638D03*
%TD*%
%TO.C,SW45*%
X226336115Y-64394638D03*
D10*
X221256115Y-64394638D03*
D14*
X216176115Y-64394638D03*
%TD*%
%TO.C,SW17*%
X26676115Y-45374638D03*
D10*
X21596115Y-45374638D03*
D14*
X16516115Y-45374638D03*
%TD*%
%TO.C,SW54*%
X60046115Y-83414638D03*
D10*
X54966115Y-83414638D03*
D14*
X49886115Y-83414638D03*
%TD*%
%TO.C,SW2*%
X64716534Y-21599485D03*
D10*
X59636534Y-21599485D03*
D14*
X54556534Y-21599485D03*
%TD*%
%TO.C,SW58*%
X136046115Y-83414638D03*
D10*
X130966115Y-83414638D03*
D14*
X125886115Y-83414638D03*
%TD*%
%TO.C,SW85*%
X159827529Y-121451498D03*
D10*
X154747529Y-121451498D03*
D14*
X149667529Y-121451498D03*
%TD*%
%TO.C,SW18*%
X45696115Y-45374638D03*
D10*
X40616115Y-45374638D03*
D14*
X35536115Y-45374638D03*
%TD*%
%TO.C,SW53*%
X23638615Y-83414638D03*
D10*
X28718615Y-83414638D03*
D14*
X33798615Y-83414638D03*
%TD*%
%TO.C,SW84*%
X68711115Y-121454638D03*
D10*
X73791115Y-121454638D03*
D14*
X78871115Y-121454638D03*
%TD*%
%TO.C,SW86*%
X230631115Y-121454638D03*
D10*
X235711115Y-121454638D03*
D14*
X240791115Y-121454638D03*
%TD*%
%TO.C,SW35*%
X21246115Y-64394638D03*
D10*
X26326115Y-64394638D03*
D14*
X31406115Y-64394638D03*
%TD*%
D15*
%TO.C,JP1*%
X139192000Y-121451498D03*
D16*
X134112000Y-121451498D03*
%TD*%
D17*
%TO.C,H1*%
X301009027Y-77392443D03*
%TD*%
D14*
%TO.C,SW52*%
X18876115Y-83414638D03*
D10*
X23956115Y-83414638D03*
D14*
X29036115Y-83414638D03*
%TD*%
D18*
%TO.C,J4*%
X347689000Y-105505000D03*
D19*
X347688999Y-103504999D03*
X347688999Y-101504999D03*
%TD*%
D10*
%TO.C,S2*%
X259234865Y-110689638D03*
X283047365Y-110689638D03*
%TD*%
D14*
%TO.C,SW88*%
X278076115Y-121454638D03*
D10*
X283156115Y-121454638D03*
D14*
X288236115Y-121454638D03*
%TD*%
D11*
%TO.C,S5*%
X211897529Y-128436498D03*
D10*
X211897529Y-113196498D03*
D11*
X97597529Y-128436498D03*
D10*
X97597529Y-113196498D03*
%TD*%
D17*
%TO.C,H2*%
X355726066Y-89414572D03*
%TD*%
D14*
%TO.C,SW77*%
X256551115Y-102434638D03*
D10*
X261631115Y-102434638D03*
D14*
X266711115Y-102434638D03*
%TD*%
%TO.C,SW82*%
X21266115Y-121454638D03*
D10*
X26346115Y-121454638D03*
D14*
X31426115Y-121454638D03*
%TD*%
%TO.C,SW48*%
X278031115Y-64394638D03*
D10*
X283111115Y-64394638D03*
D14*
X288191115Y-64394638D03*
%TD*%
D20*
%TO.C,J3*%
X343206114Y-105984628D03*
D21*
X343206114Y-103444628D03*
X343206114Y-100904628D03*
%TD*%
M02*
