%TF.GenerationSoftware,KiCad,Pcbnew,(7.99.0-267-g8440d7258b)*%
%TF.CreationDate,2023-07-06T17:47:55-07:00*%
%TF.ProjectId,1_2og_repro,315f326f-675f-4726-9570-726f2e6b6963,rev?*%
%TF.SameCoordinates,Original*%
%TF.FileFunction,Soldermask,Bot*%
%TF.FilePolarity,Negative*%
%FSLAX46Y46*%
G04 Gerber Fmt 4.6, Leading zero omitted, Abs format (unit mm)*
G04 Created by KiCad (PCBNEW (7.99.0-267-g8440d7258b)) date 2023-07-06 17:47:55*
%MOMM*%
%LPD*%
G01*
G04 APERTURE LIST*
G04 Aperture macros list*
%AMRoundRect*
0 Rectangle with rounded corners*
0 $1 Rounding radius*
0 $2 $3 $4 $5 $6 $7 $8 $9 X,Y pos of 4 corners*
0 Add a 4 corners polygon primitive as box body*
4,1,4,$2,$3,$4,$5,$6,$7,$8,$9,$2,$3,0*
0 Add four circle primitives for the rounded corners*
1,1,$1+$1,$2,$3*
1,1,$1+$1,$4,$5*
1,1,$1+$1,$6,$7*
1,1,$1+$1,$8,$9*
0 Add four rect primitives between the rounded corners*
20,1,$1+$1,$2,$3,$4,$5,0*
20,1,$1+$1,$4,$5,$6,$7,0*
20,1,$1+$1,$6,$7,$8,$9,0*
20,1,$1+$1,$8,$9,$2,$3,0*%
G04 Aperture macros list end*
%ADD10C,3.987800*%
%ADD11C,4.000000*%
%ADD12C,3.048000*%
%ADD13C,6.000000*%
%ADD14C,1.750000*%
%ADD15C,2.300000*%
%ADD16RoundRect,0.285750X-0.666750X-0.666750X0.666750X-0.666750X0.666750X0.666750X-0.666750X0.666750X0*%
%ADD17C,1.905000*%
%ADD18RoundRect,0.250000X0.625000X-0.350000X0.625000X0.350000X-0.625000X0.350000X-0.625000X-0.350000X0*%
%ADD19O,1.750000X1.200000*%
%ADD20O,1.100000X1.650000*%
%ADD21O,1.700000X2.700000*%
%ADD22R,1.700000X1.700000*%
%ADD23O,1.700000X1.700000*%
%ADD24RoundRect,0.140000X-0.170000X0.140000X-0.170000X-0.140000X0.170000X-0.140000X0.170000X0.140000X0*%
%ADD25RoundRect,0.225000X0.375000X-0.225000X0.375000X0.225000X-0.375000X0.225000X-0.375000X-0.225000X0*%
%ADD26RoundRect,0.140000X0.140000X0.170000X-0.140000X0.170000X-0.140000X-0.170000X0.140000X-0.170000X0*%
%ADD27RoundRect,0.075000X0.075000X-0.662500X0.075000X0.662500X-0.075000X0.662500X-0.075000X-0.662500X0*%
%ADD28RoundRect,0.075000X0.662500X-0.075000X0.662500X0.075000X-0.662500X0.075000X-0.662500X-0.075000X0*%
%ADD29RoundRect,0.135000X0.135000X0.185000X-0.135000X0.185000X-0.135000X-0.185000X0.135000X-0.185000X0*%
%ADD30RoundRect,0.140000X0.170000X-0.140000X0.170000X0.140000X-0.170000X0.140000X-0.170000X-0.140000X0*%
%ADD31RoundRect,0.150000X0.475000X0.150000X-0.475000X0.150000X-0.475000X-0.150000X0.475000X-0.150000X0*%
%ADD32RoundRect,0.140000X-0.140000X-0.170000X0.140000X-0.170000X0.140000X0.170000X-0.140000X0.170000X0*%
%ADD33RoundRect,0.150000X-0.512500X-0.150000X0.512500X-0.150000X0.512500X0.150000X-0.512500X0.150000X0*%
%ADD34RoundRect,0.135000X-0.185000X0.135000X-0.185000X-0.135000X0.185000X-0.135000X0.185000X0.135000X0*%
%ADD35RoundRect,0.150000X0.587500X0.150000X-0.587500X0.150000X-0.587500X-0.150000X0.587500X-0.150000X0*%
%ADD36RoundRect,0.250000X-0.625000X0.375000X-0.625000X-0.375000X0.625000X-0.375000X0.625000X0.375000X0*%
%ADD37RoundRect,0.135000X-0.135000X-0.185000X0.135000X-0.185000X0.135000X0.185000X-0.135000X0.185000X0*%
%ADD38RoundRect,0.150000X0.275000X-0.150000X0.275000X0.150000X-0.275000X0.150000X-0.275000X-0.150000X0*%
%ADD39RoundRect,0.175000X0.225000X-0.175000X0.225000X0.175000X-0.225000X0.175000X-0.225000X-0.175000X0*%
%ADD40R,1.700000X1.000000*%
G04 APERTURE END LIST*
D10*
%TO.C,S1*%
X290287365Y-53629638D03*
X266474865Y-53629638D03*
D11*
X266474865Y-38389638D03*
X290287365Y-38389638D03*
%TD*%
D10*
%TO.C,S2*%
X264019838Y-75159669D03*
X287832338Y-75159669D03*
D12*
X287832338Y-90399669D03*
X264019838Y-90399669D03*
%TD*%
D10*
%TO.C,S3*%
X45414865Y-110687638D03*
X21602365Y-110687638D03*
D12*
X21602365Y-95447638D03*
X45414865Y-95447638D03*
%TD*%
D10*
%TO.C,S4*%
X283167365Y-110687638D03*
D11*
X259354865Y-95447638D03*
D10*
X259354865Y-110687638D03*
D11*
X283167365Y-95447638D03*
%TD*%
D13*
%TO.C,H2*%
X355726066Y-89414572D03*
%TD*%
%TO.C,H1*%
X301009027Y-77392443D03*
%TD*%
D14*
%TO.C,SW71*%
X135416115Y-102432638D03*
D10*
X140496115Y-102432638D03*
D14*
X145576115Y-102432638D03*
D15*
X136686115Y-99892638D03*
X143036115Y-97352638D03*
%TD*%
D14*
%TO.C,SW12*%
X263806115Y-21592638D03*
D10*
X268886115Y-21592638D03*
D14*
X273966115Y-21592638D03*
D15*
X265076115Y-19052638D03*
X271426115Y-16512638D03*
%TD*%
D14*
%TO.C,SW26*%
X187696115Y-45372638D03*
D10*
X192776115Y-45372638D03*
D14*
X197856115Y-45372638D03*
D15*
X188966115Y-42832638D03*
X195316115Y-40292638D03*
%TD*%
D14*
%TO.C,SW76*%
X230526115Y-102432638D03*
D10*
X235606115Y-102432638D03*
D14*
X240686115Y-102432638D03*
D15*
X231796115Y-99892638D03*
X238146115Y-97352638D03*
%TD*%
D14*
%TO.C,SW21*%
X92596115Y-45372638D03*
D10*
X97676115Y-45372638D03*
D14*
X102756115Y-45372638D03*
D15*
X93866115Y-42832638D03*
X100216115Y-40292638D03*
%TD*%
D14*
%TO.C,SW24*%
X149656115Y-45372638D03*
D10*
X154736115Y-45372638D03*
D14*
X159816115Y-45372638D03*
D15*
X150926115Y-42832638D03*
X157276115Y-40292638D03*
%TD*%
D14*
%TO.C,SW25*%
X168676115Y-45372638D03*
D10*
X173756115Y-45372638D03*
D14*
X178836115Y-45372638D03*
D15*
X169946115Y-42832638D03*
X176296115Y-40292638D03*
%TD*%
D14*
%TO.C,SW60*%
X163906115Y-83412638D03*
D10*
X168986115Y-83412638D03*
D14*
X174066115Y-83412638D03*
D15*
X165176115Y-80872638D03*
X171526115Y-78332638D03*
%TD*%
D14*
%TO.C,SW83*%
X44996115Y-121452638D03*
D10*
X50076115Y-121452638D03*
D14*
X55156115Y-121452638D03*
D15*
X46266115Y-118912638D03*
X52616115Y-116372638D03*
%TD*%
D14*
%TO.C,SW74*%
X192486115Y-102432638D03*
D10*
X197566115Y-102432638D03*
D14*
X202646115Y-102432638D03*
D15*
X193756115Y-99892638D03*
X200106115Y-97352638D03*
%TD*%
D14*
%TO.C,SW9*%
X197206115Y-21594638D03*
D10*
X202286115Y-21594638D03*
D14*
X207366115Y-21594638D03*
D15*
X198476115Y-19054638D03*
X204826115Y-16514638D03*
%TD*%
D14*
%TO.C,SW32*%
X306606115Y-45372638D03*
D10*
X311686115Y-45372638D03*
D14*
X316766115Y-45372638D03*
D15*
X307876115Y-42832638D03*
X314226115Y-40292638D03*
%TD*%
D14*
%TO.C,SW53*%
X23638615Y-83412638D03*
D10*
X28718615Y-83412638D03*
D14*
X33798615Y-83412638D03*
D15*
X24908615Y-80872638D03*
X31258615Y-78332638D03*
%TD*%
D14*
%TO.C,SW90*%
X254216115Y-121454638D03*
D10*
X259296115Y-121454638D03*
D14*
X264376115Y-121454638D03*
D15*
X255486115Y-118914638D03*
X261836115Y-116374638D03*
%TD*%
D14*
%TO.C,SW65*%
X270846088Y-83414669D03*
D10*
X275926088Y-83414669D03*
D14*
X281006088Y-83414669D03*
D15*
X272116088Y-80874669D03*
X278466088Y-78334669D03*
%TD*%
D14*
%TO.C,SW84*%
X68771115Y-121452638D03*
D10*
X73851115Y-121452638D03*
D14*
X78931115Y-121452638D03*
D15*
X70041115Y-118912638D03*
X76391115Y-116372638D03*
%TD*%
D14*
%TO.C,SW39*%
X102056115Y-64392638D03*
D10*
X107136115Y-64392638D03*
D14*
X112216115Y-64392638D03*
D15*
X103326115Y-61852638D03*
X109676115Y-59312638D03*
%TD*%
D14*
%TO.C,SW86*%
X140157529Y-121454498D03*
D10*
X145237529Y-121454498D03*
D14*
X150317529Y-121454498D03*
D15*
X141427529Y-118914498D03*
X147777529Y-116374498D03*
%TD*%
D14*
%TO.C,SW63*%
X220926115Y-83412638D03*
D10*
X226006115Y-83412638D03*
D14*
X231086115Y-83412638D03*
D15*
X222196115Y-80872638D03*
X228546115Y-78332638D03*
%TD*%
D14*
%TO.C,SW35*%
X21246115Y-64394638D03*
D10*
X26326115Y-64394638D03*
D14*
X31406115Y-64394638D03*
D15*
X22516115Y-61854638D03*
X28866115Y-59314638D03*
%TD*%
D14*
%TO.C,SW15*%
X325626115Y-21589179D03*
D10*
X330706115Y-21589179D03*
D14*
X335786115Y-21589179D03*
D15*
X326896115Y-19049179D03*
X333246115Y-16509179D03*
%TD*%
D14*
%TO.C,SW47*%
X254216115Y-64394638D03*
D10*
X259296115Y-64394638D03*
D14*
X264376115Y-64394638D03*
D15*
X255486115Y-61854638D03*
X261836115Y-59314638D03*
%TD*%
D14*
%TO.C,SW41*%
X140096115Y-64392638D03*
D10*
X145176115Y-64392638D03*
D14*
X150256115Y-64392638D03*
D15*
X141366115Y-61852638D03*
X147716115Y-59312638D03*
%TD*%
D14*
%TO.C,SW62*%
X201926115Y-83412638D03*
D10*
X207006115Y-83412638D03*
D14*
X212086115Y-83412638D03*
D15*
X203196115Y-80872638D03*
X209546115Y-78332638D03*
%TD*%
D14*
%TO.C,SW89*%
X230441115Y-121454638D03*
D10*
X235521115Y-121454638D03*
D14*
X240601115Y-121454638D03*
D15*
X231711115Y-118914638D03*
X238061115Y-116374638D03*
%TD*%
D14*
%TO.C,SW49*%
X306606115Y-64392638D03*
D10*
X311686115Y-64392638D03*
D14*
X316766115Y-64392638D03*
D15*
X307876115Y-61852638D03*
X314226115Y-59312638D03*
%TD*%
D14*
%TO.C,SW28*%
X225736115Y-45372638D03*
D10*
X230816115Y-45372638D03*
D14*
X235896115Y-45372638D03*
D15*
X227006115Y-42832638D03*
X233356115Y-40292638D03*
%TD*%
D14*
%TO.C,SW10*%
X225766115Y-21592638D03*
D10*
X230846115Y-21592638D03*
D14*
X235926115Y-21592638D03*
D15*
X227036115Y-19052638D03*
X233386115Y-16512638D03*
%TD*%
D14*
%TO.C,SW1*%
X16516115Y-21594638D03*
D10*
X21596115Y-21594638D03*
D14*
X26676115Y-21594638D03*
D15*
X17786115Y-19054638D03*
X24136115Y-16514638D03*
%TD*%
D14*
%TO.C,SW70*%
X116396115Y-102432638D03*
D10*
X121476115Y-102432638D03*
D14*
X126556115Y-102432638D03*
D15*
X117666115Y-99892638D03*
X124016115Y-97352638D03*
%TD*%
D14*
%TO.C,SW13*%
X282826115Y-21592638D03*
D10*
X287906115Y-21592638D03*
D14*
X292986115Y-21592638D03*
D15*
X284096115Y-19052638D03*
X290446115Y-16512638D03*
%TD*%
D14*
%TO.C,SW87*%
X211383615Y-121452638D03*
D10*
X216463615Y-121452638D03*
D14*
X221543615Y-121452638D03*
D15*
X212653615Y-118912638D03*
X219003615Y-116372638D03*
%TD*%
D14*
%TO.C,SW11*%
X244756115Y-21592638D03*
D10*
X249836115Y-21592638D03*
D14*
X254916115Y-21592638D03*
D15*
X246026115Y-19052638D03*
X252376115Y-16512638D03*
%TD*%
D14*
%TO.C,SW27*%
X206716115Y-45372638D03*
D10*
X211796115Y-45372638D03*
D14*
X216876115Y-45372638D03*
D15*
X207986115Y-42832638D03*
X214336115Y-40292638D03*
%TD*%
D16*
%TO.C,D90*%
X22686115Y-88492638D03*
D17*
X25226115Y-88492638D03*
%TD*%
D14*
%TO.C,SW37*%
X64016115Y-64392638D03*
D10*
X69096115Y-64392638D03*
D14*
X74176115Y-64392638D03*
D15*
X65286115Y-61852638D03*
X71636115Y-59312638D03*
%TD*%
D14*
%TO.C,SW5*%
X111616534Y-21599485D03*
D10*
X116696534Y-21599485D03*
D14*
X121776534Y-21599485D03*
D15*
X112886534Y-19059485D03*
X119236534Y-16519485D03*
%TD*%
D14*
%TO.C,SW4*%
X92596534Y-21599485D03*
D10*
X97676534Y-21599485D03*
D14*
X102756534Y-21599485D03*
D15*
X93866534Y-19059485D03*
X100216534Y-16519485D03*
%TD*%
D14*
%TO.C,SW23*%
X130636115Y-45372638D03*
D10*
X135716115Y-45372638D03*
D14*
X140796115Y-45372638D03*
D15*
X131906115Y-42832638D03*
X138256115Y-40292638D03*
%TD*%
D14*
%TO.C,SW42*%
X159116115Y-64392638D03*
D10*
X164196115Y-64392638D03*
D14*
X169276115Y-64392638D03*
D15*
X160386115Y-61852638D03*
X166736115Y-59312638D03*
%TD*%
D14*
%TO.C,SW91*%
X278031115Y-121454638D03*
D10*
X283111115Y-121454638D03*
D14*
X288191115Y-121454638D03*
D15*
X279301115Y-118914638D03*
X285651115Y-116374638D03*
%TD*%
D14*
%TO.C,SW22*%
X111616115Y-45372638D03*
D10*
X116696115Y-45372638D03*
D14*
X121776115Y-45372638D03*
D15*
X112886115Y-42832638D03*
X119236115Y-40292638D03*
%TD*%
D14*
%TO.C,SW64*%
X239926115Y-83412638D03*
D10*
X245006115Y-83412638D03*
D14*
X250086115Y-83412638D03*
D15*
X241196115Y-80872638D03*
X247546115Y-78332638D03*
%TD*%
D14*
%TO.C,SW81*%
X325626115Y-102432638D03*
D10*
X330706115Y-102432638D03*
D14*
X335786115Y-102432638D03*
D15*
X326896115Y-99892638D03*
X333246115Y-97352638D03*
%TD*%
D14*
%TO.C,SW52*%
X18876115Y-83412638D03*
D10*
X23956115Y-83412638D03*
D14*
X29036115Y-83412638D03*
D15*
X20146115Y-80872638D03*
X26496115Y-78332638D03*
%TD*%
D14*
%TO.C,SW30*%
X273301115Y-45374638D03*
D10*
X278381115Y-45374638D03*
D14*
X283461115Y-45374638D03*
D15*
X274571115Y-42834638D03*
X280921115Y-40294638D03*
%TD*%
D18*
%TO.C,J4*%
X347689000Y-105505000D03*
D19*
X347688999Y-103504999D03*
X347688999Y-101504999D03*
%TD*%
D14*
%TO.C,SW51*%
X344646115Y-64392638D03*
D10*
X349726115Y-64392638D03*
D14*
X354806115Y-64392638D03*
D15*
X345916115Y-61852638D03*
X352266115Y-59312638D03*
%TD*%
D14*
%TO.C,SW34*%
X344646115Y-45372638D03*
D10*
X349726115Y-45372638D03*
D14*
X354806115Y-45372638D03*
D15*
X345916115Y-42832638D03*
X352266115Y-40292638D03*
%TD*%
D14*
%TO.C,SW66*%
X28428615Y-102432638D03*
D10*
X33508615Y-102432638D03*
D14*
X38588615Y-102432638D03*
D15*
X29698615Y-99892638D03*
X36048615Y-97352638D03*
%TD*%
D14*
%TO.C,SW8*%
X178186115Y-21594638D03*
D10*
X183266115Y-21594638D03*
D14*
X188346115Y-21594638D03*
D15*
X179456115Y-19054638D03*
X185806115Y-16514638D03*
%TD*%
D14*
%TO.C,SW36*%
X44996115Y-64392638D03*
D10*
X50076115Y-64392638D03*
D14*
X55156115Y-64392638D03*
D15*
X46266115Y-61852638D03*
X52616115Y-59312638D03*
%TD*%
D14*
%TO.C,SW68*%
X78356115Y-102432638D03*
D10*
X83436115Y-102432638D03*
D14*
X88516115Y-102432638D03*
D15*
X79626115Y-99892638D03*
X85976115Y-97352638D03*
%TD*%
D14*
%TO.C,SW94*%
X344646115Y-121452638D03*
D10*
X349726115Y-121452638D03*
D14*
X354806115Y-121452638D03*
D15*
X345916115Y-118912638D03*
X352266115Y-116372638D03*
%TD*%
D14*
%TO.C,SW19*%
X54556115Y-45372638D03*
D10*
X59636115Y-45372638D03*
D14*
X64716115Y-45372638D03*
D15*
X55826115Y-42832638D03*
X62176115Y-40292638D03*
%TD*%
D14*
%TO.C,SW73*%
X173456115Y-102432638D03*
D10*
X178536115Y-102432638D03*
D14*
X183616115Y-102432638D03*
D15*
X174726115Y-99892638D03*
X181076115Y-97352638D03*
%TD*%
D14*
%TO.C,SW78*%
X266181115Y-102432638D03*
D10*
X271261115Y-102432638D03*
D14*
X276341115Y-102432638D03*
D15*
X267451115Y-99892638D03*
X273801115Y-97352638D03*
%TD*%
D14*
%TO.C,SW61*%
X182926115Y-83412638D03*
D10*
X188006115Y-83412638D03*
D14*
X193086115Y-83412638D03*
D15*
X184196115Y-80872638D03*
X190546115Y-78332638D03*
%TD*%
D14*
%TO.C,SW43*%
X178136115Y-64392638D03*
D10*
X183216115Y-64392638D03*
D14*
X188296115Y-64392638D03*
D15*
X179406115Y-61852638D03*
X185756115Y-59312638D03*
%TD*%
D14*
%TO.C,SW33*%
X325626115Y-45372638D03*
D10*
X330706115Y-45372638D03*
D14*
X335786115Y-45372638D03*
D15*
X326896115Y-42832638D03*
X333246115Y-40292638D03*
%TD*%
D14*
%TO.C,SW88*%
X235196115Y-121452638D03*
D10*
X240276115Y-121452638D03*
D14*
X245356115Y-121452638D03*
D15*
X236466115Y-118912638D03*
X242816115Y-116372638D03*
%TD*%
D14*
%TO.C,SW93*%
X325626115Y-121452638D03*
D10*
X330706115Y-121452638D03*
D14*
X335786115Y-121452638D03*
D15*
X326896115Y-118912638D03*
X333246115Y-116372638D03*
%TD*%
D20*
%TO.C,J2*%
X298196114Y-18098999D03*
X298996114Y-16398999D03*
X299796114Y-18098999D03*
X300596114Y-16398999D03*
X301396114Y-18098999D03*
D21*
X303446114Y-12798999D03*
X296146114Y-12798999D03*
%TD*%
D14*
%TO.C,SW56*%
X87886115Y-83412638D03*
D10*
X92966115Y-83412638D03*
D14*
X98046115Y-83412638D03*
D15*
X89156115Y-80872638D03*
X95506115Y-78332638D03*
%TD*%
D12*
%TO.C,S5*%
X211897529Y-128436498D03*
D10*
X211897529Y-113196498D03*
D12*
X97597529Y-128436498D03*
D10*
X97597529Y-113196498D03*
%TD*%
D14*
%TO.C,SW40*%
X121076115Y-64392638D03*
D10*
X126156115Y-64392638D03*
D14*
X131236115Y-64392638D03*
D15*
X122346115Y-61852638D03*
X128696115Y-59312638D03*
%TD*%
D14*
%TO.C,SW20*%
X73576115Y-45372638D03*
D10*
X78656115Y-45372638D03*
D14*
X83736115Y-45372638D03*
D15*
X74846115Y-42832638D03*
X81196115Y-40292638D03*
%TD*%
D14*
%TO.C,SW69*%
X97376115Y-102432638D03*
D10*
X102456115Y-102432638D03*
D14*
X107536115Y-102432638D03*
D15*
X98646115Y-99892638D03*
X104996115Y-97352638D03*
%TD*%
D14*
%TO.C,SW16*%
X344646115Y-21592638D03*
D10*
X349726115Y-21592638D03*
D14*
X354806115Y-21592638D03*
D15*
X345916115Y-19052638D03*
X352266115Y-16512638D03*
%TD*%
D14*
%TO.C,SW7*%
X159166115Y-21594638D03*
D10*
X164246115Y-21594638D03*
D14*
X169326115Y-21594638D03*
D15*
X160436115Y-19054638D03*
X166786115Y-16514638D03*
%TD*%
D14*
%TO.C,SW67*%
X59336115Y-102432638D03*
D10*
X64416115Y-102432638D03*
D14*
X69496115Y-102432638D03*
D15*
X60606115Y-99892638D03*
X66956115Y-97352638D03*
%TD*%
D14*
%TO.C,SW50*%
X325626115Y-64392638D03*
D10*
X330706115Y-64392638D03*
D14*
X335786115Y-64392638D03*
D15*
X326896115Y-61852638D03*
X333246115Y-59312638D03*
%TD*%
D14*
%TO.C,SW72*%
X154436115Y-102432638D03*
D10*
X159516115Y-102432638D03*
D14*
X164596115Y-102432638D03*
D15*
X155706115Y-99892638D03*
X162056115Y-97352638D03*
%TD*%
D14*
%TO.C,SW3*%
X73576534Y-21599485D03*
D10*
X78656534Y-21599485D03*
D14*
X83736534Y-21599485D03*
D15*
X74846534Y-19059485D03*
X81196534Y-16519485D03*
%TD*%
D12*
%TO.C,S6*%
X192862529Y-128439498D03*
D10*
X192862529Y-113199498D03*
D12*
X97612529Y-128439498D03*
D10*
X97612529Y-113199498D03*
%TD*%
D14*
%TO.C,SW57*%
X106886115Y-83412638D03*
D10*
X111966115Y-83412638D03*
D14*
X117046115Y-83412638D03*
D15*
X108156115Y-80872638D03*
X114506115Y-78332638D03*
%TD*%
D16*
%TO.C,D92*%
X22866115Y-26674638D03*
D17*
X20326115Y-26674638D03*
%TD*%
D14*
%TO.C,SW92*%
X306606115Y-121452638D03*
D10*
X311686115Y-121452638D03*
D14*
X316766115Y-121452638D03*
D15*
X307876115Y-118912638D03*
X314226115Y-116372638D03*
%TD*%
D14*
%TO.C,SW77*%
X256636115Y-102432638D03*
D10*
X261716115Y-102432638D03*
D14*
X266796115Y-102432638D03*
D15*
X257906115Y-99892638D03*
X264256115Y-97352638D03*
%TD*%
D14*
%TO.C,SW59*%
X144886115Y-83412638D03*
D10*
X149966115Y-83412638D03*
D14*
X155046115Y-83412638D03*
D15*
X146156115Y-80872638D03*
X152506115Y-78332638D03*
%TD*%
D14*
%TO.C,SW44*%
X197156115Y-64392638D03*
D10*
X202236115Y-64392638D03*
D14*
X207316115Y-64392638D03*
D15*
X198426115Y-61852638D03*
X204776115Y-59312638D03*
%TD*%
D14*
%TO.C,SW29*%
X244756115Y-45372638D03*
D10*
X249836115Y-45372638D03*
D14*
X254916115Y-45372638D03*
D15*
X246026115Y-42832638D03*
X252376115Y-40292638D03*
%TD*%
D14*
%TO.C,SW82*%
X21246115Y-121454638D03*
D10*
X26326115Y-121454638D03*
D14*
X31406115Y-121454638D03*
D15*
X22516115Y-118914638D03*
X28866115Y-116374638D03*
%TD*%
D14*
%TO.C,SW75*%
X211506115Y-102432638D03*
D10*
X216586115Y-102432638D03*
D14*
X221666115Y-102432638D03*
D15*
X212776115Y-99892638D03*
X219126115Y-97352638D03*
%TD*%
D14*
%TO.C,SW55*%
X68886115Y-83412638D03*
D10*
X73966115Y-83412638D03*
D14*
X79046115Y-83412638D03*
D15*
X70156115Y-80872638D03*
X76506115Y-78332638D03*
%TD*%
D14*
%TO.C,SW38*%
X83036115Y-64392638D03*
D10*
X88116115Y-64392638D03*
D14*
X93196115Y-64392638D03*
D15*
X84306115Y-61852638D03*
X90656115Y-59312638D03*
%TD*%
D14*
%TO.C,SW80*%
X282811115Y-45374638D03*
D10*
X287891115Y-45374638D03*
D14*
X292971115Y-45374638D03*
D15*
X284081115Y-42834638D03*
X290431115Y-40294638D03*
%TD*%
D14*
%TO.C,SW14*%
X306606115Y-21592638D03*
D10*
X311686115Y-21592638D03*
D14*
X316766115Y-21592638D03*
D15*
X307876115Y-19052638D03*
X314226115Y-16512638D03*
%TD*%
D14*
%TO.C,SW48*%
X278031115Y-64394638D03*
D10*
X283111115Y-64394638D03*
D14*
X288191115Y-64394638D03*
D15*
X279301115Y-61854638D03*
X285651115Y-59314638D03*
%TD*%
D14*
%TO.C,SW31*%
X263791115Y-45374638D03*
D10*
X268871115Y-45374638D03*
D14*
X273951115Y-45374638D03*
D15*
X265061115Y-42834638D03*
X271411115Y-40294638D03*
%TD*%
D14*
%TO.C,SW79*%
X275656115Y-102432638D03*
D10*
X280736115Y-102432638D03*
D14*
X285816115Y-102432638D03*
D15*
X276926115Y-99892638D03*
X283276115Y-97352638D03*
%TD*%
D14*
%TO.C,SW6*%
X140146115Y-21594638D03*
D10*
X145226115Y-21594638D03*
D14*
X150306115Y-21594638D03*
D15*
X141416115Y-19054638D03*
X147766115Y-16514638D03*
%TD*%
D16*
%TO.C,D91*%
X331976115Y-26669179D03*
D17*
X329436115Y-26669179D03*
%TD*%
D16*
%TO.C,D89*%
X29988615Y-88492638D03*
D17*
X27448615Y-88492638D03*
%TD*%
D14*
%TO.C,SW46*%
X235196115Y-64392638D03*
D10*
X240276115Y-64392638D03*
D14*
X245356115Y-64392638D03*
D15*
X236466115Y-61852638D03*
X242816115Y-59312638D03*
%TD*%
D22*
%TO.C,J3*%
X343206114Y-105984628D03*
D23*
X343206114Y-103444628D03*
X343206114Y-100904628D03*
%TD*%
D14*
%TO.C,SW45*%
X216176115Y-64392638D03*
D10*
X221256115Y-64392638D03*
D14*
X226336115Y-64392638D03*
D15*
X217446115Y-61852638D03*
X223796115Y-59312638D03*
%TD*%
D14*
%TO.C,SW17*%
X16516115Y-45372638D03*
D10*
X21596115Y-45372638D03*
D14*
X26676115Y-45372638D03*
D15*
X17786115Y-42832638D03*
X24136115Y-40292638D03*
%TD*%
D14*
%TO.C,SW54*%
X49886115Y-83412638D03*
D10*
X54966115Y-83412638D03*
D14*
X60046115Y-83412638D03*
D15*
X51156115Y-80872638D03*
X57506115Y-78332638D03*
%TD*%
D14*
%TO.C,SW2*%
X54556534Y-21599485D03*
D10*
X59636534Y-21599485D03*
D14*
X64716534Y-21599485D03*
D15*
X55826534Y-19059485D03*
X62176534Y-16519485D03*
%TD*%
D14*
%TO.C,SW58*%
X125886115Y-83412638D03*
D10*
X130966115Y-83412638D03*
D14*
X136046115Y-83412638D03*
D15*
X127156115Y-80872638D03*
X133506115Y-78332638D03*
%TD*%
D14*
%TO.C,SW85*%
X149667529Y-121454498D03*
D10*
X154747529Y-121454498D03*
D14*
X159827529Y-121454498D03*
D15*
X150937529Y-118914498D03*
X157287529Y-116374498D03*
%TD*%
D14*
%TO.C,SW18*%
X35536115Y-45372638D03*
D10*
X40616115Y-45372638D03*
D14*
X45696115Y-45372638D03*
D15*
X36806115Y-42832638D03*
X43156115Y-40292638D03*
%TD*%
D24*
%TO.C,C7*%
X322707000Y-87023000D03*
X322707000Y-87983000D03*
%TD*%
D25*
%TO.C,D9*%
X205461123Y-24832142D03*
X205461123Y-21532142D03*
%TD*%
%TO.C,D47*%
X286286123Y-67632142D03*
X286286123Y-64332142D03*
%TD*%
D26*
%TO.C,C10*%
X311884000Y-79629000D03*
X310924000Y-79629000D03*
%TD*%
D27*
%TO.C,U2*%
X321137115Y-86942138D03*
X320637115Y-86942138D03*
X320137115Y-86942138D03*
X319637115Y-86942138D03*
X319137115Y-86942138D03*
X318637115Y-86942138D03*
X318137115Y-86942138D03*
X317637115Y-86942138D03*
X317137115Y-86942138D03*
X316637115Y-86942138D03*
X316137115Y-86942138D03*
X315637115Y-86942138D03*
D28*
X314224615Y-85529638D03*
X314224615Y-85029638D03*
X314224615Y-84529638D03*
X314224615Y-84029638D03*
X314224615Y-83529638D03*
X314224615Y-83029638D03*
X314224615Y-82529638D03*
X314224615Y-82029638D03*
X314224615Y-81529638D03*
X314224615Y-81029638D03*
X314224615Y-80529638D03*
X314224615Y-80029638D03*
D27*
X315637115Y-78617138D03*
X316137115Y-78617138D03*
X316637115Y-78617138D03*
X317137115Y-78617138D03*
X317637115Y-78617138D03*
X318137115Y-78617138D03*
X318637115Y-78617138D03*
X319137115Y-78617138D03*
X319637115Y-78617138D03*
X320137115Y-78617138D03*
X320637115Y-78617138D03*
X321137115Y-78617138D03*
D28*
X322549615Y-80029638D03*
X322549615Y-80529638D03*
X322549615Y-81029638D03*
X322549615Y-81529638D03*
X322549615Y-82029638D03*
X322549615Y-82529638D03*
X322549615Y-83029638D03*
X322549615Y-83529638D03*
X322549615Y-84029638D03*
X322549615Y-84529638D03*
X322549615Y-85029638D03*
X322549615Y-85529638D03*
%TD*%
D25*
%TO.C,D5*%
X119871542Y-24836989D03*
X119871542Y-21536989D03*
%TD*%
%TO.C,D45*%
X243451123Y-67630142D03*
X243451123Y-64330142D03*
%TD*%
%TO.C,D75*%
X254254000Y-105670142D03*
X254254000Y-102370142D03*
%TD*%
%TO.C,D2*%
X62811542Y-24836989D03*
X62811542Y-21536989D03*
%TD*%
%TO.C,D28*%
X233991123Y-48610142D03*
X233991123Y-45310142D03*
%TD*%
%TO.C,D12*%
X272061123Y-24830142D03*
X272061123Y-21530142D03*
%TD*%
%TO.C,D73*%
X219711123Y-105670142D03*
X219711123Y-102370142D03*
%TD*%
D29*
%TO.C,R2*%
X26926000Y-91440000D03*
X25906000Y-91440000D03*
%TD*%
D25*
%TO.C,D22*%
X119871123Y-48610142D03*
X119871123Y-45310142D03*
%TD*%
%TO.C,D78*%
X333881123Y-105670142D03*
X333881123Y-102370142D03*
%TD*%
D24*
%TO.C,C4*%
X323723000Y-87023000D03*
X323723000Y-87983000D03*
%TD*%
D25*
%TO.C,D31*%
X314861123Y-48610142D03*
X314861123Y-45310142D03*
%TD*%
%TO.C,D67*%
X105591123Y-105670142D03*
X105591123Y-102370142D03*
%TD*%
%TO.C,D4*%
X100851542Y-24836989D03*
X100851542Y-21536989D03*
%TD*%
%TO.C,D11*%
X253011123Y-24830142D03*
X253011123Y-21530142D03*
%TD*%
D30*
%TO.C,C3*%
X314071000Y-78303000D03*
X314071000Y-77343000D03*
%TD*%
D25*
%TO.C,D87*%
X314861123Y-124690142D03*
X314861123Y-121390142D03*
%TD*%
%TO.C,D44*%
X224431123Y-67630142D03*
X224431123Y-64330142D03*
%TD*%
%TO.C,D6*%
X148401123Y-24832142D03*
X148401123Y-21532142D03*
%TD*%
%TO.C,D33*%
X352901123Y-48610142D03*
X352901123Y-45310142D03*
%TD*%
D31*
%TO.C,U3*%
X300768000Y-20081200D03*
X300768000Y-21031200D03*
X300768000Y-21981200D03*
X298418000Y-21981200D03*
X298418000Y-21031200D03*
X298418000Y-20081200D03*
%TD*%
D25*
%TO.C,D21*%
X100851123Y-48610142D03*
X100851123Y-45310142D03*
%TD*%
%TO.C,D16*%
X352901123Y-24830142D03*
X352901123Y-21530142D03*
%TD*%
%TO.C,D15*%
X333881123Y-24826683D03*
X333881123Y-21526683D03*
%TD*%
%TO.C,D8*%
X186441123Y-24832142D03*
X186441123Y-21532142D03*
%TD*%
%TO.C,D52*%
X58141123Y-86650142D03*
X58141123Y-83350142D03*
%TD*%
%TO.C,D66*%
X86591123Y-105670142D03*
X86591123Y-102370142D03*
%TD*%
D32*
%TO.C,C9*%
X308892000Y-79629000D03*
X309852000Y-79629000D03*
%TD*%
D25*
%TO.C,D58*%
X172161123Y-86650142D03*
X172161123Y-83350142D03*
%TD*%
%TO.C,D41*%
X167371123Y-67630142D03*
X167371123Y-64330142D03*
%TD*%
%TO.C,D42*%
X186391123Y-67630142D03*
X186391123Y-64330142D03*
%TD*%
%TO.C,D1*%
X24771123Y-24832142D03*
X24771123Y-21532142D03*
%TD*%
%TO.C,D20*%
X81831123Y-48610142D03*
X81831123Y-45310142D03*
%TD*%
%TO.C,D54*%
X96141123Y-86650142D03*
X96141123Y-83350142D03*
%TD*%
%TO.C,D19*%
X62811123Y-48610142D03*
X62811123Y-45310142D03*
%TD*%
%TO.C,D62*%
X248181123Y-86650142D03*
X248181123Y-83350142D03*
%TD*%
%TO.C,D40*%
X148351123Y-67630142D03*
X148351123Y-64330142D03*
%TD*%
%TO.C,D51*%
X31893623Y-86650142D03*
X31893623Y-83350142D03*
%TD*%
%TO.C,D3*%
X81831542Y-24836989D03*
X81831542Y-21536989D03*
%TD*%
%TO.C,D35*%
X53251123Y-67630142D03*
X53251123Y-64330142D03*
%TD*%
D24*
%TO.C,C5*%
X317119000Y-89690000D03*
X317119000Y-90650000D03*
%TD*%
D25*
%TO.C,D50*%
X352901123Y-67630142D03*
X352901123Y-64330142D03*
%TD*%
%TO.C,D88*%
X333881123Y-124690142D03*
X333881123Y-121390142D03*
%TD*%
%TO.C,D76*%
X288290000Y-105670142D03*
X288290000Y-102370142D03*
%TD*%
%TO.C,D10*%
X234021123Y-24830142D03*
X234021123Y-21530142D03*
%TD*%
D30*
%TO.C,C2*%
X313055000Y-78303000D03*
X313055000Y-77343000D03*
%TD*%
D25*
%TO.C,D71*%
X181711123Y-105670142D03*
X181711123Y-102370142D03*
%TD*%
%TO.C,D48*%
X314861123Y-67630142D03*
X314861123Y-64330142D03*
%TD*%
D33*
%TO.C,U4*%
X338488500Y-106106000D03*
X338488500Y-105156000D03*
X338488500Y-104206000D03*
X340763500Y-104206000D03*
X340763500Y-106106000D03*
%TD*%
D34*
%TO.C,R1*%
X334645000Y-88164000D03*
X334645000Y-89184000D03*
%TD*%
D25*
%TO.C,D86*%
X286286123Y-124692142D03*
X286286123Y-121392142D03*
%TD*%
%TO.C,D84*%
X243451123Y-124690142D03*
X243451123Y-121390142D03*
%TD*%
%TO.C,D57*%
X153141123Y-86650142D03*
X153141123Y-83350142D03*
%TD*%
%TO.C,D36*%
X72271123Y-67630142D03*
X72271123Y-64330142D03*
%TD*%
%TO.C,D53*%
X77141123Y-86650142D03*
X77141123Y-83350142D03*
%TD*%
%TO.C,D7*%
X167421123Y-24832142D03*
X167421123Y-21532142D03*
%TD*%
%TO.C,D74*%
X238711123Y-105670142D03*
X238711123Y-102370142D03*
%TD*%
%TO.C,D25*%
X176931123Y-48610142D03*
X176931123Y-45310142D03*
%TD*%
%TO.C,D59*%
X191181123Y-86650142D03*
X191181123Y-83350142D03*
%TD*%
%TO.C,D65*%
X67591123Y-105670142D03*
X67591123Y-102370142D03*
%TD*%
D29*
%TO.C,R5*%
X340491000Y-84709000D03*
X339471000Y-84709000D03*
%TD*%
D25*
%TO.C,D68*%
X124591123Y-105670142D03*
X124591123Y-102370142D03*
%TD*%
%TO.C,D79*%
X29501123Y-124692142D03*
X29501123Y-121392142D03*
%TD*%
%TO.C,D32*%
X333881123Y-48610142D03*
X333881123Y-45310142D03*
%TD*%
D26*
%TO.C,C13*%
X340840000Y-107442000D03*
X339880000Y-107442000D03*
%TD*%
D25*
%TO.C,D23*%
X138891123Y-48610142D03*
X138891123Y-45310142D03*
%TD*%
D30*
%TO.C,C11*%
X335788000Y-89154000D03*
X335788000Y-88194000D03*
%TD*%
D25*
%TO.C,D26*%
X195951123Y-48610142D03*
X195951123Y-45310142D03*
%TD*%
%TO.C,D63*%
X279101096Y-86652173D03*
X279101096Y-83352173D03*
%TD*%
%TO.C,D27*%
X214971123Y-48610142D03*
X214971123Y-45310142D03*
%TD*%
%TO.C,D72*%
X200711123Y-105670142D03*
X200711123Y-102370142D03*
%TD*%
%TO.C,D64*%
X36683623Y-105670142D03*
X36683623Y-102370142D03*
%TD*%
%TO.C,D18*%
X43791123Y-48610142D03*
X43791123Y-45310142D03*
%TD*%
D35*
%TO.C,Q1*%
X339441000Y-88331000D03*
X339441000Y-90231000D03*
X337566000Y-89281000D03*
%TD*%
D30*
%TO.C,C1*%
X323850000Y-78303000D03*
X323850000Y-77343000D03*
%TD*%
D25*
%TO.C,D56*%
X134141123Y-86650142D03*
X134141123Y-83350142D03*
%TD*%
%TO.C,D80*%
X53251123Y-124690142D03*
X53251123Y-121390142D03*
%TD*%
%TO.C,D43*%
X205411123Y-67630142D03*
X205411123Y-64330142D03*
%TD*%
%TO.C,D82*%
X157922537Y-124692002D03*
X157922537Y-121392002D03*
%TD*%
%TO.C,D55*%
X115141123Y-86650142D03*
X115141123Y-83350142D03*
%TD*%
%TO.C,D85*%
X262471123Y-124692142D03*
X262471123Y-121392142D03*
%TD*%
D26*
%TO.C,C12*%
X340461000Y-85852000D03*
X339501000Y-85852000D03*
%TD*%
D30*
%TO.C,C6*%
X322834000Y-78303000D03*
X322834000Y-77343000D03*
%TD*%
D29*
%TO.C,R3*%
X331218000Y-28575000D03*
X330198000Y-28575000D03*
%TD*%
D25*
%TO.C,D61*%
X229181123Y-86650142D03*
X229181123Y-83350142D03*
%TD*%
%TO.C,D49*%
X333881123Y-67630142D03*
X333881123Y-64330142D03*
%TD*%
%TO.C,D77*%
X291066123Y-48612142D03*
X291066123Y-45312142D03*
%TD*%
%TO.C,D81*%
X77026123Y-124690142D03*
X77026123Y-121390142D03*
%TD*%
%TO.C,D70*%
X162591123Y-105670142D03*
X162591123Y-102370142D03*
%TD*%
%TO.C,D69*%
X143591123Y-105670142D03*
X143591123Y-102370142D03*
%TD*%
D36*
%TO.C,F1*%
X296113200Y-23365000D03*
X296113200Y-26165000D03*
%TD*%
D25*
%TO.C,D46*%
X262471123Y-67630142D03*
X262471123Y-64330142D03*
%TD*%
%TO.C,D30*%
X261239000Y-48612142D03*
X261239000Y-45312142D03*
%TD*%
%TO.C,D17*%
X24771123Y-48610142D03*
X24771123Y-45310142D03*
%TD*%
%TO.C,D39*%
X129331123Y-67630142D03*
X129331123Y-64330142D03*
%TD*%
%TO.C,D13*%
X291081123Y-24830142D03*
X291081123Y-21530142D03*
%TD*%
%TO.C,D29*%
X253011123Y-48610142D03*
X253011123Y-45310142D03*
%TD*%
%TO.C,D14*%
X314861123Y-24830142D03*
X314861123Y-21530142D03*
%TD*%
%TO.C,D60*%
X210181123Y-86650142D03*
X210181123Y-83350142D03*
%TD*%
%TO.C,D93*%
X352901123Y-124690142D03*
X352901123Y-121390142D03*
%TD*%
%TO.C,D83*%
X219638623Y-124690142D03*
X219638623Y-121390142D03*
%TD*%
D37*
%TO.C,R6*%
X339471000Y-86995000D03*
X340491000Y-86995000D03*
%TD*%
D25*
%TO.C,D34*%
X29501123Y-67632142D03*
X29501123Y-64332142D03*
%TD*%
D38*
%TO.C,J1*%
X354173000Y-104673000D03*
X354173000Y-103473000D03*
X354173000Y-102273000D03*
D39*
X350398000Y-105823000D03*
X350398000Y-101123000D03*
%TD*%
D25*
%TO.C,D38*%
X110311123Y-67630142D03*
X110311123Y-64330142D03*
%TD*%
D35*
%TO.C,U1*%
X311247000Y-76266000D03*
X311247000Y-78166000D03*
X309372000Y-77216000D03*
%TD*%
D40*
%TO.C,SW95*%
X332816999Y-84332999D03*
X326516999Y-84332999D03*
X332816999Y-88132999D03*
X326516999Y-88132999D03*
%TD*%
D25*
%TO.C,D37*%
X91291123Y-67630142D03*
X91291123Y-64330142D03*
%TD*%
%TO.C,D24*%
X157911123Y-48610142D03*
X157911123Y-45310142D03*
%TD*%
D24*
%TO.C,C8*%
X316103000Y-89690000D03*
X316103000Y-90650000D03*
%TD*%
D29*
%TO.C,R4*%
X22100000Y-29718000D03*
X21080000Y-29718000D03*
%TD*%
M02*
