M48
; DRILL file {KiCad (7.99.0-267-g8440d7258b)} date Friday, July 07, 2023 at 10:01:13 PM
; FORMAT={-:-/ absolute / inch / decimal}
; #@! TF.CreationDate,2023-07-07T22:01:13-07:00
; #@! TF.GenerationSoftware,Kicad,Pcbnew,(7.99.0-267-g8440d7258b)
; #@! TF.FileFunction,NonPlated,1,2,NPTH
FMAT,2
INCH
; #@! TA.AperFunction,NonPlated,NPTH,ComponentDrill
T1C0.0689
; #@! TA.AperFunction,NonPlated,NPTH,ComponentDrill
T2C0.1200
; #@! TA.AperFunction,NonPlated,NPTH,ComponentDrill
T3C0.1570
%
G90
G05
T1
X0.7381Y-0.8927
X0.7381Y-1.8288
X0.8311Y-3.3265
X0.9244Y-2.5777
X0.9244Y-4.8242
X1.0186Y-3.3265
X1.1381Y-0.8927
X1.1381Y-1.8288
X1.2071Y-4.0753
X1.2311Y-3.3265
X1.3244Y-2.5777
X1.3244Y-4.8242
X1.4186Y-3.3265
X1.487Y-1.8288
X1.6071Y-4.0753
X1.8594Y-2.5776
X1.8594Y-4.8241
X1.887Y-1.8288
X2.0519Y-3.3265
X2.2358Y-1.8288
X2.2358Y-0.8929
X2.2594Y-2.5776
X2.2594Y-4.8241
X2.424Y-4.0753
X2.4519Y-3.3265
X2.6082Y-2.5776
X2.6358Y-1.8288
X2.6358Y-0.8929
X2.7954Y-4.8241
X2.8Y-3.3265
X2.824Y-4.0753
X2.9846Y-1.8288
X2.9846Y-0.8929
X3.0082Y-2.5776
X3.1728Y-4.0753
X3.1954Y-4.8241
X3.2Y-3.3265
X3.357Y-2.5776
X3.3846Y-1.8288
X3.3846Y-0.8929
X3.548Y-3.3265
X3.5728Y-4.0753
X3.7334Y-1.8288
X3.7334Y-0.8929
X3.757Y-2.5776
X3.9216Y-4.0753
X3.948Y-3.3265
X4.1059Y-2.5776
X4.1334Y-1.8288
X4.1334Y-0.8929
X4.296Y-3.3265
X4.3216Y-4.0753
X4.4822Y-1.8288
X4.4823Y-0.8929
X4.5059Y-2.5776
X4.6704Y-4.0753
X4.696Y-3.3265
X4.8547Y-2.5776
X4.8822Y-1.8288
X4.8823Y-0.8929
X5.044Y-3.3265
X5.0704Y-4.0753
X5.2311Y-1.8288
X5.2547Y-2.5776
X5.4192Y-4.0753
X5.444Y-3.3265
X5.6035Y-2.5776
X5.6055Y-0.8927
X5.6059Y-4.8242
X5.6311Y-1.8288
X5.7921Y-3.3265
X5.8192Y-4.0753
X5.9799Y-1.8288
X5.9803Y-4.8242
X6.0035Y-2.5776
X6.0055Y-0.8927
X6.0059Y-4.8242
X6.1681Y-4.0753
X6.1921Y-3.3265
X6.3523Y-2.5776
X6.3543Y-0.8927
X6.3799Y-1.8288
X6.3803Y-4.8242
X6.5409Y-3.3265
X6.5681Y-4.0753
X6.7287Y-1.8288
X6.7523Y-2.5776
X6.7543Y-0.8927
X6.9169Y-4.0753
X6.9409Y-3.3265
X7.1011Y-2.5776
X7.1031Y-0.8927
X7.1287Y-1.8288
X7.2897Y-3.3265
X7.3169Y-4.0753
X7.4775Y-1.8288
X7.5011Y-2.5776
X7.5031Y-0.8927
X7.6661Y-4.0753
X7.6897Y-3.3265
X7.85Y-2.5776
X7.8519Y-0.8927
X7.8775Y-1.8288
X8.0377Y-3.3265
X8.0661Y-4.0753
X8.2263Y-1.8288
X8.25Y-2.5776
X8.2519Y-0.8927
X8.4101Y-4.8241
X8.4149Y-4.0753
X8.4377Y-3.3265
X8.5988Y-2.5776
X8.6263Y-1.8288
X8.7858Y-3.3265
X8.8101Y-4.8241
X8.8149Y-4.0753
X8.9751Y-1.8288
X8.9763Y-0.8926
X8.9988Y-2.5776
X9.1604Y-4.8242
X9.1637Y-4.0753
X9.1858Y-3.3265
X9.3476Y-2.5776
X9.3476Y-4.8241
X9.3751Y-1.8288
X9.3763Y-0.8926
X9.5338Y-3.3265
X9.5604Y-4.8242
X9.5637Y-4.0753
X9.724Y-0.8926
X9.724Y-1.8288
X9.7476Y-2.5776
X9.7476Y-4.8241
X9.9338Y-3.3265
X10.0964Y-2.5777
X10.0964Y-4.8242
X10.124Y-0.8926
X10.124Y-1.8288
X10.1917Y-4.0753
X10.4734Y-1.8289
X10.474Y-0.8926
X10.4964Y-2.5777
X10.4964Y-4.8242
X10.5675Y-4.0753
X10.5917Y-4.0753
X10.7511Y-3.3265
X10.8478Y-1.8289
X10.8734Y-1.8289
X10.874Y-0.8926
X10.9405Y-4.0753
X10.9675Y-4.0753
X11.034Y-2.5777
X11.034Y-4.8242
X11.1511Y-3.3265
X11.2222Y-1.8289
X11.2228Y-0.8926
X11.2478Y-1.8289
X11.3405Y-4.0753
X11.434Y-2.5777
X11.434Y-4.8242
X11.6222Y-1.8289
X11.6228Y-0.8926
X12.159Y-0.8926
X12.159Y-1.8288
X12.159Y-2.5776
X12.159Y-4.8241
X12.559Y-0.8926
X12.559Y-1.8288
X12.559Y-2.5776
X12.559Y-4.8241
X12.9078Y-0.8925
X12.9078Y-1.8288
X12.9078Y-2.5776
X12.9078Y-4.0753
X12.9078Y-4.8241
X13.3078Y-0.8925
X13.3078Y-1.8288
X13.3078Y-2.5776
X13.3078Y-4.0753
X13.3078Y-4.8241
X13.6566Y-0.8926
X13.6566Y-1.8288
X13.6566Y-2.5776
X13.6566Y-4.8241
X14.0566Y-0.8926
X14.0566Y-1.8288
X14.0566Y-2.5776
X14.0566Y-4.8241
T2
X0.9384Y-3.8003
X1.8759Y-3.8003
X3.9303Y-5.099
X3.9309Y-5.0992
X7.6809Y-5.0992
X8.4303Y-5.099
X10.4824Y-3.6015
X11.4199Y-3.6015
T3
X0.9381Y-0.8927
X0.9381Y-1.8288
X0.9384Y-4.4003
X1.0311Y-3.3265
X1.1244Y-2.5777
X1.1244Y-4.8242
X1.2186Y-3.3265
X1.4071Y-4.0753
X1.687Y-1.8288
X1.8759Y-4.4003
X2.0594Y-2.5776
X2.0594Y-4.8241
X2.2519Y-3.3265
X2.4358Y-1.8288
X2.4358Y-0.8929
X2.624Y-4.0753
X2.8082Y-2.5776
X2.9954Y-4.8241
X3.0Y-3.3265
X3.1846Y-1.8288
X3.1846Y-0.8929
X3.3728Y-4.0753
X3.557Y-2.5776
X3.748Y-3.3265
X3.9303Y-4.499
X3.9309Y-4.4992
X3.9334Y-1.8288
X3.9334Y-0.8929
X4.1216Y-4.0753
X4.3059Y-2.5776
X4.496Y-3.3265
X4.6822Y-1.8288
X4.6823Y-0.8929
X4.8704Y-4.0753
X5.0547Y-2.5776
X5.244Y-3.3265
X5.4311Y-1.8288
X5.6192Y-4.0753
X5.8035Y-2.5776
X5.8055Y-0.8927
X5.8059Y-4.8242
X5.9921Y-3.3265
X6.1799Y-1.8288
X6.1803Y-4.8242
X6.3681Y-4.0753
X6.5523Y-2.5776
X6.5543Y-0.8927
X6.7409Y-3.3265
X6.9287Y-1.8288
X7.1169Y-4.0753
X7.3011Y-2.5776
X7.3031Y-0.8927
X7.4897Y-3.3265
X7.6775Y-1.8288
X7.6809Y-4.4992
X7.8661Y-4.0753
X8.05Y-2.5776
X8.0519Y-0.8927
X8.2377Y-3.3265
X8.4263Y-1.8288
X8.4303Y-4.499
X8.6101Y-4.8241
X8.6149Y-4.0753
X8.7988Y-2.5776
X8.9858Y-3.3265
X9.1751Y-1.8288
X9.1763Y-0.8926
X9.3604Y-4.8242
X9.3637Y-4.0753
X9.5476Y-2.5776
X9.5476Y-4.8241
X9.7338Y-3.3265
X9.924Y-0.8926
X9.924Y-1.8288
X10.2964Y-2.5777
X10.2964Y-4.8242
X10.2987Y-4.4003
X10.3917Y-4.0753
X10.4824Y-3.0015
X10.579Y-2.1539
X10.6734Y-1.8289
X10.674Y-0.8926
X10.7675Y-4.0753
X10.9511Y-3.3265
X11.0478Y-1.8289
X11.1405Y-4.0753
X11.234Y-2.5777
X11.234Y-4.8242
X11.2362Y-4.4003
X11.4199Y-3.0015
X11.4222Y-1.8289
X11.4228Y-0.8926
X11.5165Y-2.1539
X12.359Y-0.8926
X12.359Y-1.8288
X12.359Y-2.5776
X12.359Y-4.8241
X13.1078Y-0.8925
X13.1078Y-1.8288
X13.1078Y-2.5776
X13.1078Y-4.0753
X13.1078Y-4.8241
X13.8566Y-0.8926
X13.8566Y-1.8288
X13.8566Y-2.5776
X13.8566Y-4.8241
T0
M30
