M48
; DRILL file {KiCad (7.99.0-267-g8440d7258b)} date Friday, May 05, 2023 at 12:14:14 PM
; FORMAT={-:-/ absolute / inch / decimal}
; #@! TF.CreationDate,2023-05-05T12:14:14-07:00
; #@! TF.GenerationSoftware,Kicad,Pcbnew,(7.99.0-267-g8440d7258b)
; #@! TF.FileFunction,Plated,1,2,PTH
FMAT,2
INCH
; #@! TA.AperFunction,Plated,PTH,ViaDrill
T1C0.0157
; #@! TA.AperFunction,Plated,PTH,ComponentDrill
T2C0.1260
%
G90
G05
T1
X1.01Y-0.985
X1.19Y-0.8
X1.245Y-0.855
X1.305Y-0.8
X1.3661Y-0.854
X1.42Y-0.8
X1.4861Y-0.854
X1.54Y-0.8
X1.6061Y-0.854
X1.665Y-0.8
X1.7261Y-0.854
X1.78Y-0.8
X1.8461Y-0.854
X1.9Y-0.8
X1.9661Y-0.854
X2.015Y-0.8
X2.0861Y-0.854
X2.14Y-0.8
X2.2061Y-0.854
X2.255Y-0.8
X2.3261Y-0.854
X2.385Y-0.8
X2.4461Y-0.854
X2.5Y-0.8
X2.5661Y-0.854
X2.615Y-0.8
X2.6861Y-0.854
X2.735Y-0.8
X2.8061Y-0.854
X2.855Y-0.8
X2.9261Y-0.854
X2.975Y-0.8
X3.0461Y-0.854
T2
X0.9008Y-0.8017
X3.055Y-1.275
T0
M30
