M48
; DRILL file {KiCad (7.99.0-267-g8440d7258b)} date Friday, May 05, 2023 at 07:34:04 PM
; FORMAT={-:-/ absolute / inch / decimal}
; #@! TF.CreationDate,2023-05-05T19:34:04-07:00
; #@! TF.GenerationSoftware,Kicad,Pcbnew,(7.99.0-267-g8440d7258b)
; #@! TF.FileFunction,Plated,1,2,PTH
FMAT,2
INCH
; #@! TA.AperFunction,Plated,PTH,ViaDrill
T1C0.0157
; #@! TA.AperFunction,Plated,PTH,ComponentDrill
T2C0.0394
; #@! TA.AperFunction,Plated,PTH,ComponentDrill
T3C0.1260
%
G90
G05
T1
X1.19Y-0.8
X1.22Y-1.02
X1.245Y-0.855
X1.305Y-0.8
X1.34Y-1.02
X1.3661Y-0.854
X1.42Y-0.8
X1.46Y-1.02
X1.4861Y-0.854
X1.54Y-0.8
X1.58Y-1.02
X1.6061Y-0.854
X1.665Y-0.8
X1.7Y-1.02
X1.7261Y-0.854
X1.78Y-0.8
X1.82Y-1.02
X1.8461Y-0.854
X1.9Y-0.8
X1.94Y-1.02
X1.9661Y-0.854
X2.015Y-0.8
X2.06Y-1.02
X2.0861Y-0.854
X2.14Y-0.8
X2.18Y-1.02
X2.2061Y-0.854
X2.255Y-0.8
X2.3Y-1.02
X2.3261Y-0.854
X2.385Y-0.8
X2.42Y-1.02
X2.4461Y-0.854
X2.5Y-0.8
X2.54Y-1.02
X2.5661Y-0.854
X2.615Y-0.8
X2.66Y-1.02
X2.6861Y-0.854
X2.735Y-0.8
X2.78Y-1.02
X2.8061Y-0.854
X2.855Y-0.8
X2.9Y-1.02
X2.9261Y-0.854
X2.975Y-0.8
X3.02Y-1.02
X3.0461Y-0.854
T2
X0.865Y-1.32
X0.965Y-1.32
X1.065Y-1.32
T3
X0.9008Y-0.8017
X3.055Y-1.275
T0
M30
