%TF.GenerationSoftware,KiCad,Pcbnew,8.0.8*%
%TF.CreationDate,2025-02-22T01:21:36-08:00*%
%TF.ProjectId,1_2og_lightbar,315f326f-675f-46c6-9967-68746261722e,rev?*%
%TF.SameCoordinates,Original*%
%TF.FileFunction,Paste,Top*%
%TF.FilePolarity,Positive*%
%FSLAX46Y46*%
G04 Gerber Fmt 4.6, Leading zero omitted, Abs format (unit mm)*
G04 Created by KiCad (PCBNEW 8.0.8) date 2025-02-22 01:21:36*
%MOMM*%
%LPD*%
G01*
G04 APERTURE LIST*
G04 Aperture macros list*
%AMRoundRect*
0 Rectangle with rounded corners*
0 $1 Rounding radius*
0 $2 $3 $4 $5 $6 $7 $8 $9 X,Y pos of 4 corners*
0 Add a 4 corners polygon primitive as box body*
4,1,4,$2,$3,$4,$5,$6,$7,$8,$9,$2,$3,0*
0 Add four circle primitives for the rounded corners*
1,1,$1+$1,$2,$3*
1,1,$1+$1,$4,$5*
1,1,$1+$1,$6,$7*
1,1,$1+$1,$8,$9*
0 Add four rect primitives between the rounded corners*
20,1,$1+$1,$2,$3,$4,$5,0*
20,1,$1+$1,$4,$5,$6,$7,0*
20,1,$1+$1,$6,$7,$8,$9,0*
20,1,$1+$1,$8,$9,$2,$3,0*%
G04 Aperture macros list end*
%ADD10RoundRect,0.250000X-0.450000X0.262500X-0.450000X-0.262500X0.450000X-0.262500X0.450000X0.262500X0*%
%ADD11RoundRect,0.250000X0.450000X-0.262500X0.450000X0.262500X-0.450000X0.262500X-0.450000X-0.262500X0*%
%ADD12RoundRect,0.125000X-0.125000X0.125000X-0.125000X-0.125000X0.125000X-0.125000X0.125000X0.125000X0*%
%ADD13RoundRect,0.140000X0.140000X0.170000X-0.140000X0.170000X-0.140000X-0.170000X0.140000X-0.170000X0*%
%ADD14RoundRect,0.150000X-0.150000X-0.275000X0.150000X-0.275000X0.150000X0.275000X-0.150000X0.275000X0*%
%ADD15RoundRect,0.175000X-0.175000X-0.225000X0.175000X-0.225000X0.175000X0.225000X-0.175000X0.225000X0*%
G04 APERTURE END LIST*
D10*
%TO.C,R2*%
X78486000Y-21611500D03*
X78486000Y-23436500D03*
%TD*%
D11*
%TO.C,R1*%
X26987500Y-24336500D03*
X26987500Y-22511500D03*
%TD*%
D12*
%TO.C,D3*%
X35576000Y-21699000D03*
X34676000Y-21699000D03*
X34676000Y-22599000D03*
X35576000Y-22599000D03*
%TD*%
%TO.C,D16*%
X75200000Y-21699000D03*
X74300000Y-21699000D03*
X74300000Y-22599000D03*
X75200000Y-22599000D03*
%TD*%
D13*
%TO.C,C14*%
X69134000Y-24000000D03*
X68174000Y-24000000D03*
%TD*%
D12*
%TO.C,D11*%
X59960000Y-21699000D03*
X59060000Y-21699000D03*
X59060000Y-22599000D03*
X59960000Y-22599000D03*
%TD*%
D13*
%TO.C,C10*%
X56942000Y-24000000D03*
X55982000Y-24000000D03*
%TD*%
D12*
%TO.C,D4*%
X38624000Y-21699000D03*
X37724000Y-21699000D03*
X37724000Y-22599000D03*
X38624000Y-22599000D03*
%TD*%
D14*
%TO.C,J2*%
X23311000Y-30668750D03*
X24511000Y-30668750D03*
X25711000Y-30668750D03*
D15*
X22161000Y-34443750D03*
X26861000Y-34443750D03*
%TD*%
D13*
%TO.C,C12*%
X63038000Y-24000000D03*
X62078000Y-24000000D03*
%TD*%
%TO.C,C6*%
X44750000Y-24000000D03*
X43790000Y-24000000D03*
%TD*%
%TO.C,C9*%
X53894000Y-24000000D03*
X52934000Y-24000000D03*
%TD*%
D12*
%TO.C,D6*%
X44720000Y-21699000D03*
X43820000Y-21699000D03*
X43820000Y-22599000D03*
X44720000Y-22599000D03*
%TD*%
D13*
%TO.C,C5*%
X41702000Y-24000000D03*
X40742000Y-24000000D03*
%TD*%
D12*
%TO.C,D12*%
X63008000Y-21699000D03*
X62108000Y-21699000D03*
X62108000Y-22599000D03*
X63008000Y-22599000D03*
%TD*%
D13*
%TO.C,C1*%
X29510000Y-24000000D03*
X28550000Y-24000000D03*
%TD*%
D12*
%TO.C,D10*%
X56912000Y-21699000D03*
X56012000Y-21699000D03*
X56012000Y-22599000D03*
X56912000Y-22599000D03*
%TD*%
%TO.C,D14*%
X69104000Y-21699000D03*
X68204000Y-21699000D03*
X68204000Y-22599000D03*
X69104000Y-22599000D03*
%TD*%
D13*
%TO.C,C11*%
X59990000Y-24000000D03*
X59030000Y-24000000D03*
%TD*%
%TO.C,C2*%
X32558000Y-24000000D03*
X31598000Y-24000000D03*
%TD*%
%TO.C,C13*%
X66086000Y-24000000D03*
X65126000Y-24000000D03*
%TD*%
D12*
%TO.C,D1*%
X29480000Y-21699000D03*
X28580000Y-21699000D03*
X28580000Y-22599000D03*
X29480000Y-22599000D03*
%TD*%
%TO.C,D9*%
X53864000Y-21699000D03*
X52964000Y-21699000D03*
X52964000Y-22599000D03*
X53864000Y-22599000D03*
%TD*%
%TO.C,D13*%
X66056000Y-21699000D03*
X65156000Y-21699000D03*
X65156000Y-22599000D03*
X66056000Y-22599000D03*
%TD*%
%TO.C,D2*%
X32528000Y-21699000D03*
X31628000Y-21699000D03*
X31628000Y-22599000D03*
X32528000Y-22599000D03*
%TD*%
D13*
%TO.C,C4*%
X38654000Y-24000000D03*
X37694000Y-24000000D03*
%TD*%
D12*
%TO.C,D8*%
X50816000Y-21699000D03*
X49916000Y-21699000D03*
X49916000Y-22599000D03*
X50816000Y-22599000D03*
%TD*%
D13*
%TO.C,C16*%
X75230000Y-24000000D03*
X74270000Y-24000000D03*
%TD*%
%TO.C,C3*%
X35606000Y-24000000D03*
X34646000Y-24000000D03*
%TD*%
%TO.C,C8*%
X50846000Y-24000000D03*
X49886000Y-24000000D03*
%TD*%
%TO.C,C7*%
X47798000Y-24000000D03*
X46838000Y-24000000D03*
%TD*%
D12*
%TO.C,D7*%
X47768000Y-21699000D03*
X46868000Y-21699000D03*
X46868000Y-22599000D03*
X47768000Y-22599000D03*
%TD*%
D13*
%TO.C,C15*%
X72182000Y-24000000D03*
X71222000Y-24000000D03*
%TD*%
D12*
%TO.C,D5*%
X41672000Y-21699000D03*
X40772000Y-21699000D03*
X40772000Y-22599000D03*
X41672000Y-22599000D03*
%TD*%
%TO.C,D15*%
X72152000Y-21699000D03*
X71252000Y-21699000D03*
X71252000Y-22599000D03*
X72152000Y-22599000D03*
%TD*%
M02*
