%TF.GenerationSoftware,KiCad,Pcbnew,(7.99.0-267-g8440d7258b)*%
%TF.CreationDate,2023-05-05T12:14:14-07:00*%
%TF.ProjectId,1_2og_lightbar,315f326f-675f-46c6-9967-68746261722e,rev?*%
%TF.SameCoordinates,Original*%
%TF.FileFunction,Copper,L2,Bot*%
%TF.FilePolarity,Positive*%
%FSLAX46Y46*%
G04 Gerber Fmt 4.6, Leading zero omitted, Abs format (unit mm)*
G04 Created by KiCad (PCBNEW (7.99.0-267-g8440d7258b)) date 2023-05-05 12:14:14*
%MOMM*%
%LPD*%
G01*
G04 APERTURE LIST*
%TA.AperFunction,ComponentPad*%
%ADD10C,3.600000*%
%TD*%
%TA.AperFunction,ConnectorPad*%
%ADD11C,5.600000*%
%TD*%
%TA.AperFunction,ViaPad*%
%ADD12C,0.800000*%
%TD*%
%TA.AperFunction,Conductor*%
%ADD13C,0.381000*%
%TD*%
G04 APERTURE END LIST*
D10*
%TO.P,H2,1,1*%
%TO.N,GND*%
X77597000Y-32385000D03*
D11*
X77597000Y-32385000D03*
%TD*%
D10*
%TO.P,H1,1,1*%
%TO.N,GND*%
X22879961Y-20362871D03*
D11*
X22879961Y-20362871D03*
%TD*%
D12*
%TO.N,+5V*%
X57277000Y-20320000D03*
X45212000Y-20320000D03*
X42291000Y-20320000D03*
X63500000Y-20320000D03*
X36068000Y-20320000D03*
X51181000Y-20320000D03*
X39116000Y-20320000D03*
X48260000Y-20320000D03*
X30226000Y-20320000D03*
X33147000Y-20320000D03*
X54356000Y-20320000D03*
X72517000Y-20320000D03*
X60579000Y-20320000D03*
X25654000Y-25019000D03*
X66421000Y-20320000D03*
X69469000Y-20320000D03*
X75565000Y-20320000D03*
%TO.N,GND*%
X56035000Y-21692000D03*
X68227000Y-21692000D03*
X77371000Y-21692000D03*
X52987000Y-21692000D03*
X62131000Y-21692000D03*
X46891000Y-21692000D03*
X43843000Y-21692000D03*
X37747000Y-21692000D03*
X49939000Y-21692000D03*
X40795000Y-21692000D03*
X31623000Y-21717000D03*
X65179000Y-21692000D03*
X71275000Y-21692000D03*
X74323000Y-21692000D03*
X34699000Y-21692000D03*
X59083000Y-21692000D03*
%TD*%
D13*
%TO.N,+5V*%
X66421000Y-20320000D02*
X69469000Y-20320000D01*
X39116000Y-20320000D02*
X42291000Y-20320000D01*
X63500000Y-20320000D02*
X66421000Y-20320000D01*
X25654000Y-25019000D02*
X25654000Y-23368000D01*
X25654000Y-23368000D02*
X28702000Y-20320000D01*
X36068000Y-20320000D02*
X39116000Y-20320000D01*
X60579000Y-20320000D02*
X63500000Y-20320000D01*
X51181000Y-20320000D02*
X54356000Y-20320000D01*
X54356000Y-20320000D02*
X57277000Y-20320000D01*
X42291000Y-20320000D02*
X45212000Y-20320000D01*
X33147000Y-20320000D02*
X36068000Y-20320000D01*
X69469000Y-20320000D02*
X72517000Y-20320000D01*
X48260000Y-20320000D02*
X51181000Y-20320000D01*
X72517000Y-20320000D02*
X75565000Y-20320000D01*
X57277000Y-20320000D02*
X60579000Y-20320000D01*
X30226000Y-20320000D02*
X33147000Y-20320000D01*
X28702000Y-20320000D02*
X30226000Y-20320000D01*
X45212000Y-20320000D02*
X48260000Y-20320000D01*
%TD*%
%TA.AperFunction,Conductor*%
%TO.N,GND*%
G36*
X77600032Y-16764648D02*
G01*
X77749447Y-16771989D01*
X77933466Y-16781633D01*
X77945133Y-16782801D01*
X78108636Y-16807054D01*
X78109669Y-16807213D01*
X78277572Y-16833807D01*
X78288263Y-16835988D01*
X78451273Y-16876819D01*
X78452922Y-16877246D01*
X78614599Y-16920567D01*
X78624237Y-16923578D01*
X78783374Y-16980518D01*
X78786013Y-16981497D01*
X78806242Y-16989262D01*
X78941042Y-17041007D01*
X78949610Y-17044672D01*
X79102905Y-17117176D01*
X79106182Y-17118785D01*
X79131363Y-17131615D01*
X79253602Y-17193898D01*
X79261027Y-17198009D01*
X79344219Y-17247872D01*
X79406767Y-17285362D01*
X79410553Y-17287725D01*
X79549020Y-17377646D01*
X79555348Y-17382040D01*
X79692018Y-17483403D01*
X79696128Y-17486588D01*
X79824328Y-17590403D01*
X79829533Y-17594863D01*
X79925265Y-17681629D01*
X79955651Y-17709169D01*
X79960059Y-17713366D01*
X80076632Y-17829939D01*
X80080829Y-17834347D01*
X80195131Y-17960460D01*
X80199601Y-17965677D01*
X80303400Y-18093858D01*
X80306607Y-18097994D01*
X80340416Y-18143580D01*
X80407955Y-18234646D01*
X80412352Y-18240978D01*
X80502273Y-18379445D01*
X80504636Y-18383231D01*
X80591978Y-18528951D01*
X80596105Y-18536406D01*
X80671213Y-18683816D01*
X80672822Y-18687093D01*
X80745326Y-18840388D01*
X80748996Y-18848968D01*
X80808501Y-19003985D01*
X80809488Y-19006647D01*
X80866414Y-19165743D01*
X80869438Y-19175424D01*
X80912708Y-19336909D01*
X80913217Y-19338874D01*
X80954006Y-19501715D01*
X80956195Y-19512446D01*
X80982771Y-19680242D01*
X80982956Y-19681445D01*
X81007195Y-19844846D01*
X81008367Y-19856552D01*
X81017989Y-20040170D01*
X81017886Y-20040175D01*
X81018011Y-20040574D01*
X81025351Y-20189967D01*
X81025500Y-20196052D01*
X81025500Y-31488086D01*
X81011575Y-31545177D01*
X80972929Y-31589446D01*
X80918240Y-31610951D01*
X80859791Y-31604861D01*
X80810710Y-31572545D01*
X80782020Y-31521259D01*
X80728850Y-31329758D01*
X80596398Y-30997329D01*
X80428781Y-30681170D01*
X80227968Y-30384995D01*
X80100557Y-30234995D01*
X80100556Y-30234994D01*
X77597000Y-32738553D01*
X75444255Y-34891295D01*
X75444256Y-34891296D01*
X75457485Y-34903828D01*
X75742363Y-35120386D01*
X75798646Y-35154250D01*
X75842988Y-35200057D01*
X75858710Y-35261843D01*
X75841654Y-35323274D01*
X75796329Y-35368110D01*
X75734717Y-35384500D01*
X31247330Y-35384500D01*
X31236706Y-35384044D01*
X31158883Y-35377352D01*
X31158151Y-35377287D01*
X30988379Y-35361674D01*
X30973078Y-35359296D01*
X30864529Y-35335402D01*
X30862373Y-35334907D01*
X30728267Y-35302869D01*
X30714845Y-35298849D01*
X30604469Y-35258864D01*
X30601019Y-35257555D01*
X30478638Y-35209055D01*
X30467232Y-35203853D01*
X30360819Y-35148661D01*
X30356286Y-35146189D01*
X30244189Y-35081991D01*
X30234854Y-35076078D01*
X30135594Y-35006798D01*
X30130261Y-35002858D01*
X30029272Y-34924008D01*
X30021948Y-34917820D01*
X29932244Y-34835870D01*
X29926443Y-34830211D01*
X29837910Y-34738006D01*
X29832485Y-34731973D01*
X29754251Y-34639022D01*
X29748365Y-34631453D01*
X29703467Y-34568867D01*
X29673658Y-34527314D01*
X29669965Y-34521864D01*
X29645245Y-34483190D01*
X29604773Y-34419869D01*
X29599237Y-34410292D01*
X29539631Y-34295656D01*
X29537345Y-34291026D01*
X29486535Y-34182491D01*
X29481800Y-34170883D01*
X29475434Y-34152696D01*
X29438293Y-34046584D01*
X29437150Y-34043157D01*
X29401668Y-33931207D01*
X29398203Y-33917662D01*
X29371611Y-33782233D01*
X29371240Y-33780251D01*
X29351757Y-33670722D01*
X29350006Y-33655367D01*
X29341295Y-33484996D01*
X29341267Y-33484422D01*
X29337961Y-33411232D01*
X29338717Y-33390874D01*
X29351125Y-33287484D01*
X29345779Y-33058765D01*
X29307937Y-32833136D01*
X29238369Y-32615188D01*
X29138493Y-32409359D01*
X29122022Y-32385000D01*
X74292152Y-32385000D01*
X74311525Y-32742310D01*
X74369419Y-33095451D01*
X74465149Y-33440241D01*
X74597601Y-33772670D01*
X74765218Y-34088829D01*
X74966031Y-34385004D01*
X75093441Y-34535003D01*
X75093442Y-34535004D01*
X77243447Y-32385001D01*
X77243447Y-32384999D01*
X75093442Y-30234994D01*
X75093441Y-30234995D01*
X74966030Y-30384995D01*
X74765218Y-30681170D01*
X74597601Y-30997329D01*
X74465149Y-31329758D01*
X74369419Y-31674548D01*
X74311525Y-32027689D01*
X74292152Y-32385000D01*
X29122022Y-32385000D01*
X29010341Y-32219839D01*
X28856522Y-32050486D01*
X28680167Y-31904748D01*
X28680168Y-31904748D01*
X28680165Y-31904746D01*
X28484862Y-31785588D01*
X28274598Y-31695441D01*
X28053637Y-31636133D01*
X27957031Y-31624540D01*
X27949233Y-31622500D01*
X27947485Y-31622500D01*
X27932629Y-31621607D01*
X27914913Y-31619469D01*
X27896799Y-31622500D01*
X21362719Y-31622500D01*
X21311836Y-31611579D01*
X21237964Y-31578338D01*
X21237441Y-31578101D01*
X21036408Y-31486519D01*
X21025702Y-31480999D01*
X20898694Y-31407494D01*
X20897210Y-31406622D01*
X20742727Y-31314329D01*
X20733625Y-31308333D01*
X20608311Y-31217644D01*
X20606006Y-31215935D01*
X20469006Y-31111874D01*
X20461478Y-31105674D01*
X20343729Y-31000666D01*
X20340774Y-30997944D01*
X20218338Y-30881419D01*
X20212314Y-30875274D01*
X20104867Y-30757770D01*
X20101462Y-30753887D01*
X19993546Y-30625523D01*
X19988942Y-30619700D01*
X19893581Y-30491328D01*
X19889991Y-30486228D01*
X19797180Y-30347011D01*
X19793829Y-30341696D01*
X19759595Y-30284207D01*
X19712015Y-30204307D01*
X19708416Y-30197827D01*
X19631435Y-30048849D01*
X19629198Y-30044291D01*
X19562003Y-29899797D01*
X19558668Y-29891920D01*
X19553604Y-29878703D01*
X75444255Y-29878703D01*
X77597000Y-32031447D01*
X77597001Y-32031447D01*
X79749743Y-29878703D01*
X79749742Y-29878702D01*
X79736514Y-29866171D01*
X79451636Y-29649613D01*
X79145015Y-29465126D01*
X78820253Y-29314875D01*
X78481140Y-29200614D01*
X78131664Y-29123689D01*
X77775922Y-29085000D01*
X77418078Y-29085000D01*
X77062335Y-29123689D01*
X76712859Y-29200614D01*
X76373746Y-29314875D01*
X76048984Y-29465126D01*
X75742363Y-29649613D01*
X75457486Y-29866170D01*
X75444256Y-29878702D01*
X75444255Y-29878703D01*
X19553604Y-29878703D01*
X19498204Y-29734098D01*
X19496828Y-29730325D01*
X19445175Y-29581218D01*
X19442348Y-29571884D01*
X19398976Y-29405365D01*
X19398285Y-29402581D01*
X19377595Y-29314875D01*
X19362776Y-29252056D01*
X19360751Y-29241396D01*
X19334928Y-29062985D01*
X19334765Y-29061799D01*
X19315730Y-28916039D01*
X19314753Y-28904039D01*
X19307526Y-28682902D01*
X19304586Y-28578111D01*
X19304568Y-28571912D01*
X19305512Y-28529100D01*
X19304500Y-28523937D01*
X19304500Y-22869166D01*
X20727216Y-22869166D01*
X20727217Y-22869167D01*
X20740446Y-22881699D01*
X21025324Y-23098257D01*
X21331945Y-23282744D01*
X21656707Y-23432995D01*
X21995820Y-23547256D01*
X22345296Y-23624181D01*
X22701039Y-23662871D01*
X23058883Y-23662871D01*
X23414625Y-23624181D01*
X23764101Y-23547256D01*
X24103214Y-23432995D01*
X24427976Y-23282744D01*
X24734593Y-23098259D01*
X24787400Y-23058116D01*
X24845956Y-23033932D01*
X24908815Y-23041828D01*
X24959570Y-23079744D01*
X24984971Y-23137782D01*
X24979885Y-23186466D01*
X24979967Y-23186476D01*
X24979376Y-23191338D01*
X24978389Y-23200792D01*
X24978152Y-23201414D01*
X24971006Y-23260266D01*
X24969879Y-23267668D01*
X24959195Y-23325971D01*
X24962774Y-23385139D01*
X24963000Y-23392626D01*
X24963000Y-24393058D01*
X24954764Y-24437497D01*
X24931150Y-24476029D01*
X24924002Y-24483967D01*
X24921464Y-24486787D01*
X24826820Y-24650715D01*
X24768326Y-24830742D01*
X24748540Y-25019000D01*
X24768326Y-25207257D01*
X24826820Y-25387284D01*
X24921466Y-25551216D01*
X25048129Y-25691889D01*
X25201269Y-25803151D01*
X25374197Y-25880144D01*
X25559352Y-25919500D01*
X25559354Y-25919500D01*
X25748646Y-25919500D01*
X25748648Y-25919500D01*
X25872083Y-25893262D01*
X25933803Y-25880144D01*
X26106730Y-25803151D01*
X26259871Y-25691888D01*
X26386533Y-25551216D01*
X26481179Y-25387284D01*
X26539674Y-25207256D01*
X26559460Y-25019000D01*
X26539674Y-24830744D01*
X26481179Y-24650716D01*
X26481179Y-24650715D01*
X26386535Y-24486787D01*
X26386534Y-24486786D01*
X26386533Y-24486784D01*
X26376849Y-24476029D01*
X26353236Y-24437497D01*
X26345000Y-24393058D01*
X26345000Y-23705584D01*
X26354439Y-23658131D01*
X26381319Y-23617903D01*
X28951903Y-21047319D01*
X28992131Y-21020439D01*
X29039584Y-21011000D01*
X29604768Y-21011000D01*
X29643086Y-21017069D01*
X29677652Y-21034681D01*
X29773270Y-21104151D01*
X29773271Y-21104151D01*
X29773272Y-21104152D01*
X29946197Y-21181144D01*
X30131352Y-21220500D01*
X30131354Y-21220500D01*
X30320646Y-21220500D01*
X30320648Y-21220500D01*
X30444083Y-21194262D01*
X30505803Y-21181144D01*
X30678730Y-21104151D01*
X30774347Y-21034681D01*
X30808914Y-21017069D01*
X30847232Y-21011000D01*
X32525768Y-21011000D01*
X32564086Y-21017069D01*
X32598652Y-21034681D01*
X32694270Y-21104151D01*
X32694271Y-21104151D01*
X32694272Y-21104152D01*
X32867197Y-21181144D01*
X33052352Y-21220500D01*
X33052354Y-21220500D01*
X33241646Y-21220500D01*
X33241648Y-21220500D01*
X33365083Y-21194262D01*
X33426803Y-21181144D01*
X33599730Y-21104151D01*
X33695347Y-21034681D01*
X33729914Y-21017069D01*
X33768232Y-21011000D01*
X35446768Y-21011000D01*
X35485086Y-21017069D01*
X35519652Y-21034681D01*
X35615270Y-21104151D01*
X35615271Y-21104151D01*
X35615272Y-21104152D01*
X35788197Y-21181144D01*
X35973352Y-21220500D01*
X35973354Y-21220500D01*
X36162646Y-21220500D01*
X36162648Y-21220500D01*
X36286084Y-21194262D01*
X36347803Y-21181144D01*
X36520730Y-21104151D01*
X36616347Y-21034681D01*
X36650914Y-21017069D01*
X36689232Y-21011000D01*
X38494768Y-21011000D01*
X38533086Y-21017069D01*
X38567652Y-21034681D01*
X38663270Y-21104151D01*
X38663271Y-21104151D01*
X38663272Y-21104152D01*
X38836197Y-21181144D01*
X39021352Y-21220500D01*
X39021354Y-21220500D01*
X39210646Y-21220500D01*
X39210648Y-21220500D01*
X39334084Y-21194262D01*
X39395803Y-21181144D01*
X39568730Y-21104151D01*
X39664347Y-21034681D01*
X39698914Y-21017069D01*
X39737232Y-21011000D01*
X41669768Y-21011000D01*
X41708086Y-21017069D01*
X41742652Y-21034681D01*
X41838270Y-21104151D01*
X41838271Y-21104151D01*
X41838272Y-21104152D01*
X42011197Y-21181144D01*
X42196352Y-21220500D01*
X42196354Y-21220500D01*
X42385646Y-21220500D01*
X42385648Y-21220500D01*
X42509084Y-21194262D01*
X42570803Y-21181144D01*
X42743730Y-21104151D01*
X42839347Y-21034681D01*
X42873914Y-21017069D01*
X42912232Y-21011000D01*
X44590768Y-21011000D01*
X44629086Y-21017069D01*
X44663652Y-21034681D01*
X44759270Y-21104151D01*
X44759271Y-21104151D01*
X44759272Y-21104152D01*
X44932197Y-21181144D01*
X45117352Y-21220500D01*
X45117354Y-21220500D01*
X45306646Y-21220500D01*
X45306648Y-21220500D01*
X45430084Y-21194262D01*
X45491803Y-21181144D01*
X45664730Y-21104151D01*
X45760347Y-21034681D01*
X45794914Y-21017069D01*
X45833232Y-21011000D01*
X47638768Y-21011000D01*
X47677086Y-21017069D01*
X47711652Y-21034681D01*
X47807270Y-21104151D01*
X47807271Y-21104151D01*
X47807272Y-21104152D01*
X47980197Y-21181144D01*
X48165352Y-21220500D01*
X48165354Y-21220500D01*
X48354646Y-21220500D01*
X48354648Y-21220500D01*
X48478084Y-21194262D01*
X48539803Y-21181144D01*
X48712730Y-21104151D01*
X48808347Y-21034681D01*
X48842914Y-21017069D01*
X48881232Y-21011000D01*
X50559768Y-21011000D01*
X50598086Y-21017069D01*
X50632652Y-21034681D01*
X50728270Y-21104151D01*
X50728271Y-21104151D01*
X50728272Y-21104152D01*
X50901197Y-21181144D01*
X51086352Y-21220500D01*
X51086354Y-21220500D01*
X51275646Y-21220500D01*
X51275648Y-21220500D01*
X51399084Y-21194262D01*
X51460803Y-21181144D01*
X51633730Y-21104151D01*
X51729347Y-21034681D01*
X51763914Y-21017069D01*
X51802232Y-21011000D01*
X53734768Y-21011000D01*
X53773086Y-21017069D01*
X53807652Y-21034681D01*
X53903270Y-21104151D01*
X53903271Y-21104151D01*
X53903272Y-21104152D01*
X54076197Y-21181144D01*
X54261352Y-21220500D01*
X54261354Y-21220500D01*
X54450646Y-21220500D01*
X54450648Y-21220500D01*
X54574084Y-21194262D01*
X54635803Y-21181144D01*
X54808730Y-21104151D01*
X54904347Y-21034681D01*
X54938914Y-21017069D01*
X54977232Y-21011000D01*
X56655768Y-21011000D01*
X56694086Y-21017069D01*
X56728652Y-21034681D01*
X56824270Y-21104151D01*
X56824271Y-21104151D01*
X56824272Y-21104152D01*
X56997197Y-21181144D01*
X57182352Y-21220500D01*
X57182354Y-21220500D01*
X57371646Y-21220500D01*
X57371648Y-21220500D01*
X57495084Y-21194262D01*
X57556803Y-21181144D01*
X57729730Y-21104151D01*
X57825347Y-21034681D01*
X57859914Y-21017069D01*
X57898232Y-21011000D01*
X59957768Y-21011000D01*
X59996086Y-21017069D01*
X60030652Y-21034681D01*
X60126270Y-21104151D01*
X60126271Y-21104151D01*
X60126272Y-21104152D01*
X60299197Y-21181144D01*
X60484352Y-21220500D01*
X60484354Y-21220500D01*
X60673646Y-21220500D01*
X60673648Y-21220500D01*
X60797084Y-21194262D01*
X60858803Y-21181144D01*
X61031730Y-21104151D01*
X61127347Y-21034681D01*
X61161914Y-21017069D01*
X61200232Y-21011000D01*
X62878768Y-21011000D01*
X62917086Y-21017069D01*
X62951652Y-21034681D01*
X63047270Y-21104151D01*
X63047271Y-21104151D01*
X63047272Y-21104152D01*
X63220197Y-21181144D01*
X63405352Y-21220500D01*
X63405354Y-21220500D01*
X63594646Y-21220500D01*
X63594648Y-21220500D01*
X63718084Y-21194262D01*
X63779803Y-21181144D01*
X63952730Y-21104151D01*
X64048347Y-21034681D01*
X64082914Y-21017069D01*
X64121232Y-21011000D01*
X65799768Y-21011000D01*
X65838086Y-21017069D01*
X65872652Y-21034681D01*
X65968270Y-21104151D01*
X65968271Y-21104151D01*
X65968272Y-21104152D01*
X66141197Y-21181144D01*
X66326352Y-21220500D01*
X66326354Y-21220500D01*
X66515646Y-21220500D01*
X66515648Y-21220500D01*
X66639084Y-21194262D01*
X66700803Y-21181144D01*
X66873730Y-21104151D01*
X66969347Y-21034681D01*
X67003914Y-21017069D01*
X67042232Y-21011000D01*
X68847768Y-21011000D01*
X68886086Y-21017069D01*
X68920652Y-21034681D01*
X69016270Y-21104151D01*
X69016271Y-21104151D01*
X69016272Y-21104152D01*
X69189197Y-21181144D01*
X69374352Y-21220500D01*
X69374354Y-21220500D01*
X69563646Y-21220500D01*
X69563648Y-21220500D01*
X69687084Y-21194262D01*
X69748803Y-21181144D01*
X69921730Y-21104151D01*
X70017347Y-21034681D01*
X70051914Y-21017069D01*
X70090232Y-21011000D01*
X71895768Y-21011000D01*
X71934086Y-21017069D01*
X71968652Y-21034681D01*
X72064270Y-21104151D01*
X72064271Y-21104151D01*
X72064272Y-21104152D01*
X72237197Y-21181144D01*
X72422352Y-21220500D01*
X72422354Y-21220500D01*
X72611646Y-21220500D01*
X72611648Y-21220500D01*
X72735084Y-21194262D01*
X72796803Y-21181144D01*
X72969730Y-21104151D01*
X73065347Y-21034681D01*
X73099914Y-21017069D01*
X73138232Y-21011000D01*
X74943768Y-21011000D01*
X74982086Y-21017069D01*
X75016652Y-21034681D01*
X75112270Y-21104151D01*
X75112271Y-21104151D01*
X75112272Y-21104152D01*
X75285197Y-21181144D01*
X75470352Y-21220500D01*
X75470354Y-21220500D01*
X75659646Y-21220500D01*
X75659648Y-21220500D01*
X75783084Y-21194262D01*
X75844803Y-21181144D01*
X76017730Y-21104151D01*
X76170871Y-20992888D01*
X76297533Y-20852216D01*
X76392179Y-20688284D01*
X76450674Y-20508256D01*
X76470460Y-20320000D01*
X76450674Y-20131744D01*
X76409674Y-20005560D01*
X76392179Y-19951715D01*
X76297533Y-19787783D01*
X76170870Y-19647110D01*
X76017730Y-19535848D01*
X75844802Y-19458855D01*
X75659648Y-19419500D01*
X75659646Y-19419500D01*
X75470354Y-19419500D01*
X75470352Y-19419500D01*
X75285197Y-19458855D01*
X75112272Y-19535847D01*
X75047511Y-19582898D01*
X75019703Y-19603103D01*
X75016654Y-19605318D01*
X74982086Y-19622931D01*
X74943768Y-19629000D01*
X73138232Y-19629000D01*
X73099914Y-19622931D01*
X73065346Y-19605318D01*
X73062297Y-19603103D01*
X72969730Y-19535849D01*
X72969729Y-19535848D01*
X72969727Y-19535847D01*
X72796802Y-19458855D01*
X72611648Y-19419500D01*
X72611646Y-19419500D01*
X72422354Y-19419500D01*
X72422352Y-19419500D01*
X72237197Y-19458855D01*
X72064272Y-19535847D01*
X71999511Y-19582898D01*
X71971703Y-19603103D01*
X71968654Y-19605318D01*
X71934086Y-19622931D01*
X71895768Y-19629000D01*
X70090232Y-19629000D01*
X70051914Y-19622931D01*
X70017346Y-19605318D01*
X70014297Y-19603103D01*
X69921730Y-19535849D01*
X69921729Y-19535848D01*
X69921727Y-19535847D01*
X69748802Y-19458855D01*
X69563648Y-19419500D01*
X69563646Y-19419500D01*
X69374354Y-19419500D01*
X69374352Y-19419500D01*
X69189197Y-19458855D01*
X69016272Y-19535847D01*
X68951511Y-19582898D01*
X68923703Y-19603103D01*
X68920654Y-19605318D01*
X68886086Y-19622931D01*
X68847768Y-19629000D01*
X67042232Y-19629000D01*
X67003914Y-19622931D01*
X66969346Y-19605318D01*
X66966297Y-19603103D01*
X66873730Y-19535849D01*
X66873729Y-19535848D01*
X66873727Y-19535847D01*
X66700802Y-19458855D01*
X66515648Y-19419500D01*
X66515646Y-19419500D01*
X66326354Y-19419500D01*
X66326352Y-19419500D01*
X66141197Y-19458855D01*
X65968272Y-19535847D01*
X65903511Y-19582898D01*
X65875703Y-19603103D01*
X65872654Y-19605318D01*
X65838086Y-19622931D01*
X65799768Y-19629000D01*
X64121232Y-19629000D01*
X64082914Y-19622931D01*
X64048346Y-19605318D01*
X64045297Y-19603103D01*
X63952730Y-19535849D01*
X63952729Y-19535848D01*
X63952727Y-19535847D01*
X63779802Y-19458855D01*
X63594648Y-19419500D01*
X63594646Y-19419500D01*
X63405354Y-19419500D01*
X63405352Y-19419500D01*
X63220197Y-19458855D01*
X63047272Y-19535847D01*
X62982511Y-19582898D01*
X62954703Y-19603103D01*
X62951654Y-19605318D01*
X62917086Y-19622931D01*
X62878768Y-19629000D01*
X61200232Y-19629000D01*
X61161914Y-19622931D01*
X61127346Y-19605318D01*
X61124297Y-19603103D01*
X61031730Y-19535849D01*
X61031729Y-19535848D01*
X61031727Y-19535847D01*
X60858802Y-19458855D01*
X60673648Y-19419500D01*
X60673646Y-19419500D01*
X60484354Y-19419500D01*
X60484352Y-19419500D01*
X60299197Y-19458855D01*
X60126272Y-19535847D01*
X60061511Y-19582898D01*
X60033703Y-19603103D01*
X60030654Y-19605318D01*
X59996086Y-19622931D01*
X59957768Y-19629000D01*
X57898232Y-19629000D01*
X57859914Y-19622931D01*
X57825346Y-19605318D01*
X57822297Y-19603103D01*
X57729730Y-19535849D01*
X57729729Y-19535848D01*
X57729727Y-19535847D01*
X57556802Y-19458855D01*
X57371648Y-19419500D01*
X57371646Y-19419500D01*
X57182354Y-19419500D01*
X57182352Y-19419500D01*
X56997197Y-19458855D01*
X56824272Y-19535847D01*
X56759511Y-19582898D01*
X56731703Y-19603103D01*
X56728654Y-19605318D01*
X56694086Y-19622931D01*
X56655768Y-19629000D01*
X54977232Y-19629000D01*
X54938914Y-19622931D01*
X54904346Y-19605318D01*
X54901297Y-19603103D01*
X54808730Y-19535849D01*
X54808729Y-19535848D01*
X54808727Y-19535847D01*
X54635802Y-19458855D01*
X54450648Y-19419500D01*
X54450646Y-19419500D01*
X54261354Y-19419500D01*
X54261352Y-19419500D01*
X54076197Y-19458855D01*
X53903272Y-19535847D01*
X53838511Y-19582898D01*
X53810703Y-19603103D01*
X53807654Y-19605318D01*
X53773086Y-19622931D01*
X53734768Y-19629000D01*
X51802232Y-19629000D01*
X51763914Y-19622931D01*
X51729346Y-19605318D01*
X51726297Y-19603103D01*
X51633730Y-19535849D01*
X51633729Y-19535848D01*
X51633727Y-19535847D01*
X51460802Y-19458855D01*
X51275648Y-19419500D01*
X51275646Y-19419500D01*
X51086354Y-19419500D01*
X51086352Y-19419500D01*
X50901197Y-19458855D01*
X50728272Y-19535847D01*
X50663511Y-19582898D01*
X50635703Y-19603103D01*
X50632654Y-19605318D01*
X50598086Y-19622931D01*
X50559768Y-19629000D01*
X48881232Y-19629000D01*
X48842914Y-19622931D01*
X48808346Y-19605318D01*
X48805297Y-19603103D01*
X48712730Y-19535849D01*
X48712729Y-19535848D01*
X48712727Y-19535847D01*
X48539802Y-19458855D01*
X48354648Y-19419500D01*
X48354646Y-19419500D01*
X48165354Y-19419500D01*
X48165352Y-19419500D01*
X47980197Y-19458855D01*
X47807272Y-19535847D01*
X47742511Y-19582898D01*
X47714703Y-19603103D01*
X47711654Y-19605318D01*
X47677086Y-19622931D01*
X47638768Y-19629000D01*
X45833232Y-19629000D01*
X45794914Y-19622931D01*
X45760346Y-19605318D01*
X45757297Y-19603103D01*
X45664730Y-19535849D01*
X45664729Y-19535848D01*
X45664727Y-19535847D01*
X45491802Y-19458855D01*
X45306648Y-19419500D01*
X45306646Y-19419500D01*
X45117354Y-19419500D01*
X45117352Y-19419500D01*
X44932197Y-19458855D01*
X44759272Y-19535847D01*
X44694511Y-19582898D01*
X44666703Y-19603103D01*
X44663654Y-19605318D01*
X44629086Y-19622931D01*
X44590768Y-19629000D01*
X42912232Y-19629000D01*
X42873914Y-19622931D01*
X42839346Y-19605318D01*
X42836297Y-19603103D01*
X42743730Y-19535849D01*
X42743729Y-19535848D01*
X42743727Y-19535847D01*
X42570802Y-19458855D01*
X42385648Y-19419500D01*
X42385646Y-19419500D01*
X42196354Y-19419500D01*
X42196352Y-19419500D01*
X42011197Y-19458855D01*
X41838272Y-19535847D01*
X41773511Y-19582898D01*
X41745703Y-19603103D01*
X41742654Y-19605318D01*
X41708086Y-19622931D01*
X41669768Y-19629000D01*
X39737232Y-19629000D01*
X39698914Y-19622931D01*
X39664346Y-19605318D01*
X39661297Y-19603103D01*
X39568730Y-19535849D01*
X39568729Y-19535848D01*
X39568727Y-19535847D01*
X39395802Y-19458855D01*
X39210648Y-19419500D01*
X39210646Y-19419500D01*
X39021354Y-19419500D01*
X39021352Y-19419500D01*
X38836197Y-19458855D01*
X38663272Y-19535847D01*
X38598511Y-19582898D01*
X38570703Y-19603103D01*
X38567654Y-19605318D01*
X38533086Y-19622931D01*
X38494768Y-19629000D01*
X36689232Y-19629000D01*
X36650914Y-19622931D01*
X36616346Y-19605318D01*
X36613297Y-19603103D01*
X36520730Y-19535849D01*
X36520729Y-19535848D01*
X36520727Y-19535847D01*
X36347802Y-19458855D01*
X36162648Y-19419500D01*
X36162646Y-19419500D01*
X35973354Y-19419500D01*
X35973352Y-19419500D01*
X35788197Y-19458855D01*
X35615272Y-19535847D01*
X35550511Y-19582898D01*
X35522703Y-19603103D01*
X35519654Y-19605318D01*
X35485086Y-19622931D01*
X35446768Y-19629000D01*
X33768232Y-19629000D01*
X33729914Y-19622931D01*
X33695346Y-19605318D01*
X33692297Y-19603103D01*
X33599730Y-19535849D01*
X33599729Y-19535848D01*
X33599727Y-19535847D01*
X33426802Y-19458855D01*
X33241648Y-19419500D01*
X33241646Y-19419500D01*
X33052354Y-19419500D01*
X33052352Y-19419500D01*
X32867197Y-19458855D01*
X32694272Y-19535847D01*
X32629511Y-19582898D01*
X32601703Y-19603103D01*
X32598654Y-19605318D01*
X32564086Y-19622931D01*
X32525768Y-19629000D01*
X30847232Y-19629000D01*
X30808914Y-19622931D01*
X30774346Y-19605318D01*
X30771297Y-19603103D01*
X30678730Y-19535849D01*
X30678729Y-19535848D01*
X30678727Y-19535847D01*
X30505802Y-19458855D01*
X30320648Y-19419500D01*
X30320646Y-19419500D01*
X30131354Y-19419500D01*
X30131352Y-19419500D01*
X29946197Y-19458855D01*
X29773272Y-19535847D01*
X29708511Y-19582898D01*
X29680703Y-19603103D01*
X29677654Y-19605318D01*
X29643086Y-19622931D01*
X29604768Y-19629000D01*
X28726626Y-19629000D01*
X28719139Y-19628774D01*
X28679165Y-19626356D01*
X28659972Y-19625195D01*
X28659971Y-19625195D01*
X28601668Y-19635879D01*
X28594266Y-19637005D01*
X28535418Y-19644152D01*
X28535416Y-19644152D01*
X28535413Y-19644153D01*
X28526203Y-19647645D01*
X28504604Y-19653666D01*
X28494917Y-19655441D01*
X28440864Y-19679768D01*
X28433950Y-19682632D01*
X28378515Y-19703656D01*
X28370409Y-19709252D01*
X28350875Y-19720269D01*
X28345695Y-19722601D01*
X28341894Y-19724312D01*
X28295243Y-19760861D01*
X28289212Y-19765298D01*
X28240415Y-19798980D01*
X28201104Y-19843352D01*
X28195972Y-19848804D01*
X25995488Y-22049288D01*
X25934463Y-22082708D01*
X25865046Y-22078001D01*
X25809091Y-22036648D01*
X25784216Y-21971670D01*
X25798252Y-21903524D01*
X25879359Y-21750541D01*
X26011811Y-21418112D01*
X26107541Y-21073322D01*
X26165435Y-20720181D01*
X26184808Y-20362870D01*
X26165435Y-20005560D01*
X26107541Y-19652419D01*
X26011811Y-19307629D01*
X25879359Y-18975200D01*
X25711742Y-18659041D01*
X25510929Y-18362866D01*
X25383518Y-18212866D01*
X25383517Y-18212865D01*
X22879961Y-20716424D01*
X20727216Y-22869166D01*
X19304500Y-22869166D01*
X19304500Y-20362870D01*
X19575113Y-20362870D01*
X19594486Y-20720181D01*
X19652380Y-21073322D01*
X19748110Y-21418112D01*
X19880562Y-21750541D01*
X20048179Y-22066700D01*
X20248992Y-22362875D01*
X20376402Y-22512874D01*
X20376403Y-22512875D01*
X22526408Y-20362872D01*
X22526408Y-20362870D01*
X20376403Y-18212865D01*
X20376402Y-18212866D01*
X20248991Y-18362866D01*
X20048179Y-18659041D01*
X19880562Y-18975200D01*
X19748110Y-19307629D01*
X19652380Y-19652419D01*
X19594486Y-20005560D01*
X19575113Y-20362870D01*
X19304500Y-20362870D01*
X19304500Y-20323051D01*
X19304649Y-20316967D01*
X19311997Y-20167381D01*
X19322308Y-19970655D01*
X19323475Y-19958997D01*
X19348408Y-19790914D01*
X19348465Y-19790542D01*
X19376458Y-19613801D01*
X19378633Y-19603137D01*
X19420702Y-19435191D01*
X19421163Y-19433412D01*
X19466469Y-19264327D01*
X19469489Y-19254663D01*
X19528275Y-19090367D01*
X19529237Y-19087767D01*
X19591413Y-18925793D01*
X19595077Y-18917229D01*
X19612226Y-18880970D01*
X19670045Y-18758721D01*
X19671562Y-18755631D01*
X19750031Y-18601629D01*
X19754109Y-18594263D01*
X19844473Y-18443500D01*
X19846766Y-18439826D01*
X19940634Y-18295282D01*
X19945000Y-18288996D01*
X20049823Y-18147658D01*
X20052984Y-18143580D01*
X20161330Y-18009783D01*
X20165748Y-18004628D01*
X20284021Y-17874134D01*
X20288138Y-17869810D01*
X20301374Y-17856574D01*
X20727216Y-17856574D01*
X22879961Y-20009318D01*
X22879962Y-20009318D01*
X25032704Y-17856574D01*
X25032703Y-17856573D01*
X25019475Y-17844042D01*
X24734597Y-17627484D01*
X24427976Y-17442997D01*
X24103214Y-17292746D01*
X23764101Y-17178485D01*
X23414625Y-17101560D01*
X23058883Y-17062871D01*
X22701039Y-17062871D01*
X22345296Y-17101560D01*
X21995820Y-17178485D01*
X21656707Y-17292746D01*
X21331945Y-17442997D01*
X21025324Y-17627484D01*
X20740447Y-17844041D01*
X20727217Y-17856573D01*
X20727216Y-17856574D01*
X20301374Y-17856574D01*
X20409810Y-17748138D01*
X20414134Y-17744021D01*
X20544628Y-17625748D01*
X20549783Y-17621330D01*
X20683580Y-17512984D01*
X20687658Y-17509823D01*
X20828996Y-17405000D01*
X20835282Y-17400634D01*
X20979826Y-17306766D01*
X20983500Y-17304473D01*
X21134263Y-17214109D01*
X21141629Y-17210031D01*
X21295631Y-17131562D01*
X21298721Y-17130045D01*
X21457229Y-17055077D01*
X21465793Y-17051413D01*
X21627767Y-16989237D01*
X21630367Y-16988275D01*
X21794663Y-16929489D01*
X21804327Y-16926469D01*
X21973412Y-16881163D01*
X21975191Y-16880702D01*
X22143137Y-16838633D01*
X22153801Y-16836458D01*
X22330542Y-16808465D01*
X22330914Y-16808408D01*
X22498997Y-16783475D01*
X22510653Y-16782308D01*
X22707411Y-16771996D01*
X22853411Y-16764823D01*
X22856968Y-16764649D01*
X22863051Y-16764500D01*
X77593949Y-16764500D01*
X77600032Y-16764648D01*
G37*
%TD.AperFunction*%
%TD*%
M02*
