M48
; DRILL file {KiCad 8.0.8} date 2025-02-22T01:21:36-0800
; FORMAT={-:-/ absolute / inch / decimal}
; #@! TF.CreationDate,2025-02-22T01:21:36-08:00
; #@! TF.GenerationSoftware,Kicad,Pcbnew,8.0.8
; #@! TF.FileFunction,Plated,1,2,PTH
FMAT,2
INCH
; #@! TA.AperFunction,Plated,PTH,ViaDrill
T1C0.0157
; #@! TA.AperFunction,Plated,PTH,ComponentDrill
T2C0.0394
; #@! TA.AperFunction,Plated,PTH,ComponentDrill
T3C0.1181
%
G90
G05
T1
X1.1614Y-1.0236
X1.26Y-0.81
X1.2795Y-1.0236
X1.38Y-0.81
X1.3976Y-1.0236
X1.5Y-0.81
X1.5157Y-1.0236
X1.62Y-0.81
X1.6339Y-1.0236
X1.74Y-0.81
X1.752Y-1.0236
X1.86Y-0.81
X1.8701Y-1.0236
X1.98Y-0.81
X1.9882Y-1.0236
X2.1Y-0.81
X2.1063Y-1.0236
X2.22Y-0.81
X2.2244Y-1.0236
X2.34Y-0.81
X2.3622Y-1.0236
X2.46Y-0.81
X2.4803Y-1.0236
X2.58Y-0.81
X2.5984Y-1.0236
X2.7Y-0.81
X2.7165Y-1.0236
X2.82Y-0.81
X2.8346Y-1.0236
X2.91Y-0.81
X2.9528Y-1.0236
T2
X0.8661Y-1.0938
X0.9661Y-1.0938
X1.0661Y-1.0938
T3
X0.9008Y-0.8017
X3.055Y-1.275
M30
