%TF.GenerationSoftware,KiCad,Pcbnew,8.0.8*%
%TF.CreationDate,2025-02-22T01:21:36-08:00*%
%TF.ProjectId,1_2og_lightbar,315f326f-675f-46c6-9967-68746261722e,rev?*%
%TF.SameCoordinates,Original*%
%TF.FileFunction,Copper,L2,Bot*%
%TF.FilePolarity,Positive*%
%FSLAX46Y46*%
G04 Gerber Fmt 4.6, Leading zero omitted, Abs format (unit mm)*
G04 Created by KiCad (PCBNEW 8.0.8) date 2025-02-22 01:21:36*
%MOMM*%
%LPD*%
G01*
G04 APERTURE LIST*
%TA.AperFunction,ComponentPad*%
%ADD10C,6.000000*%
%TD*%
%TA.AperFunction,ComponentPad*%
%ADD11R,1.700000X1.700000*%
%TD*%
%TA.AperFunction,ComponentPad*%
%ADD12O,1.700000X1.700000*%
%TD*%
%TA.AperFunction,ViaPad*%
%ADD13C,0.800000*%
%TD*%
%TA.AperFunction,Conductor*%
%ADD14C,0.381000*%
%TD*%
G04 APERTURE END LIST*
D10*
%TO.P,H2,1,1*%
%TO.N,GND*%
X77597000Y-32385000D03*
%TD*%
D11*
%TO.P,J1,1,Pin_1*%
%TO.N,+5V*%
X22000000Y-27781250D03*
D12*
%TO.P,J1,2,Pin_2*%
%TO.N,LIGHTBAR_RGB_OUT*%
X24540000Y-27781250D03*
%TO.P,J1,3,Pin_3*%
%TO.N,GND*%
X27080000Y-27781250D03*
%TD*%
D10*
%TO.P,H1,1,1*%
%TO.N,GND*%
X22879961Y-20362871D03*
%TD*%
D13*
%TO.N,+5V*%
X41500000Y-26000000D03*
X29500000Y-26000000D03*
X50500000Y-26000000D03*
X69000000Y-26000000D03*
X60000000Y-26000000D03*
X38500000Y-26000000D03*
X75000000Y-26000000D03*
X66000000Y-26000000D03*
X56500000Y-26000000D03*
X44500000Y-26000000D03*
X72000000Y-26000000D03*
X53500000Y-26000000D03*
X32500000Y-26000000D03*
X63000000Y-26000000D03*
X35500000Y-26000000D03*
X47500000Y-26000000D03*
%TO.N,GND*%
X50292000Y-20574000D03*
X47244000Y-20574000D03*
X35052000Y-20574000D03*
X68580000Y-20574000D03*
X44196000Y-20574000D03*
X32004000Y-20574000D03*
X65532000Y-20574000D03*
X56388000Y-20574000D03*
X38100000Y-20574000D03*
X41148000Y-20574000D03*
X73914000Y-20574000D03*
X71628000Y-20574000D03*
X62484000Y-20574000D03*
X59436000Y-20574000D03*
X53340000Y-20574000D03*
%TD*%
D14*
%TO.N,+5V*%
X47500000Y-26000000D02*
X50500000Y-26000000D01*
X38500000Y-26000000D02*
X41500000Y-26000000D01*
X50500000Y-26000000D02*
X53500000Y-26000000D01*
X60000000Y-26000000D02*
X63000000Y-26000000D01*
X56500000Y-26000000D02*
X60000000Y-26000000D01*
X53500000Y-26000000D02*
X56500000Y-26000000D01*
X44500000Y-26000000D02*
X47500000Y-26000000D01*
X66000000Y-26000000D02*
X69000000Y-26000000D01*
X22000000Y-27781250D02*
X23781250Y-26000000D01*
X35500000Y-26000000D02*
X38500000Y-26000000D01*
X41500000Y-26000000D02*
X44500000Y-26000000D01*
X63000000Y-26000000D02*
X66000000Y-26000000D01*
X29500000Y-26000000D02*
X32500000Y-26000000D01*
X23781250Y-26000000D02*
X29500000Y-26000000D01*
X69000000Y-26000000D02*
X72000000Y-26000000D01*
X72000000Y-26000000D02*
X75000000Y-26000000D01*
X32500000Y-26000000D02*
X35500000Y-26000000D01*
%TD*%
%TA.AperFunction,Conductor*%
%TO.N,GND*%
G36*
X77597840Y-16764011D02*
G01*
X77600443Y-16764045D01*
X77770902Y-16766275D01*
X77782217Y-16766942D01*
X78127328Y-16803214D01*
X78140141Y-16805244D01*
X78478747Y-16877217D01*
X78491271Y-16880573D01*
X78770839Y-16971410D01*
X78820504Y-16987547D01*
X78832621Y-16992198D01*
X79148875Y-17133003D01*
X79160424Y-17138888D01*
X79460222Y-17311976D01*
X79471103Y-17319042D01*
X79751165Y-17522520D01*
X79761251Y-17530688D01*
X80018503Y-17762318D01*
X80027681Y-17771496D01*
X80259311Y-18028748D01*
X80267479Y-18038834D01*
X80470957Y-18318896D01*
X80478026Y-18329782D01*
X80651107Y-18629567D01*
X80657000Y-18641132D01*
X80797801Y-18957378D01*
X80802452Y-18969495D01*
X80909424Y-19298721D01*
X80912783Y-19311258D01*
X80984754Y-19649856D01*
X80986785Y-19662675D01*
X81023056Y-20007768D01*
X81023724Y-20019107D01*
X81025989Y-20192159D01*
X81026000Y-20193782D01*
X81026000Y-30888881D01*
X81006315Y-30955920D01*
X80953511Y-31001675D01*
X80884353Y-31011619D01*
X80820797Y-30982594D01*
X80791515Y-30945176D01*
X80632245Y-30632594D01*
X80432446Y-30324929D01*
X80243701Y-30091850D01*
X78819659Y-31515893D01*
X78741136Y-31407816D01*
X78574184Y-31240864D01*
X78466104Y-31162340D01*
X79890148Y-29738297D01*
X79657070Y-29549553D01*
X79349406Y-29349754D01*
X79022535Y-29183204D01*
X78680051Y-29051736D01*
X78325685Y-28956784D01*
X77963353Y-28899397D01*
X77597001Y-28880197D01*
X77596999Y-28880197D01*
X77230646Y-28899397D01*
X76868315Y-28956784D01*
X76868313Y-28956784D01*
X76513948Y-29051736D01*
X76171464Y-29183204D01*
X75844594Y-29349754D01*
X75536924Y-29549557D01*
X75303850Y-29738295D01*
X75303849Y-29738296D01*
X76727893Y-31162340D01*
X76619816Y-31240864D01*
X76452864Y-31407816D01*
X76374340Y-31515893D01*
X74950296Y-30091849D01*
X74950295Y-30091850D01*
X74761557Y-30324924D01*
X74561754Y-30632594D01*
X74395204Y-30959464D01*
X74263736Y-31301948D01*
X74168784Y-31656313D01*
X74168784Y-31656315D01*
X74111397Y-32018646D01*
X74092197Y-32384999D01*
X74092197Y-32385000D01*
X74111397Y-32751353D01*
X74168784Y-33113684D01*
X74168784Y-33113686D01*
X74263736Y-33468051D01*
X74395204Y-33810535D01*
X74561754Y-34137406D01*
X74761553Y-34445070D01*
X74950297Y-34678148D01*
X76374340Y-33254105D01*
X76452864Y-33362184D01*
X76619816Y-33529136D01*
X76727893Y-33607659D01*
X75303850Y-35031701D01*
X75468007Y-35164634D01*
X75507718Y-35222121D01*
X75510046Y-35291952D01*
X75474250Y-35351956D01*
X75411697Y-35383082D01*
X75389971Y-35385000D01*
X21356988Y-35385000D01*
X21316181Y-35378093D01*
X21241183Y-35351956D01*
X21174845Y-35328837D01*
X21162843Y-35323936D01*
X20854873Y-35178971D01*
X20841927Y-35171908D01*
X20554103Y-34991879D01*
X20542087Y-34983329D01*
X20277671Y-34770403D01*
X20266755Y-34760487D01*
X20029485Y-34517673D01*
X20019824Y-34506531D01*
X19813066Y-34237276D01*
X19804796Y-34225066D01*
X19631457Y-33933153D01*
X19624697Y-33920054D01*
X19487239Y-33609624D01*
X19482083Y-33595814D01*
X19382451Y-33271260D01*
X19378976Y-33256958D01*
X19318579Y-32922868D01*
X19316824Y-32908228D01*
X19296464Y-32568453D01*
X19296366Y-32555489D01*
X19304000Y-32384998D01*
X19304000Y-26883385D01*
X20649500Y-26883385D01*
X20649500Y-28679120D01*
X20649501Y-28679126D01*
X20655908Y-28738733D01*
X20706202Y-28873578D01*
X20706206Y-28873585D01*
X20792452Y-28988794D01*
X20792455Y-28988797D01*
X20907664Y-29075043D01*
X20907671Y-29075047D01*
X21042517Y-29125341D01*
X21042516Y-29125341D01*
X21049444Y-29126085D01*
X21102127Y-29131750D01*
X22897872Y-29131749D01*
X22957483Y-29125341D01*
X23092331Y-29075046D01*
X23207546Y-28988796D01*
X23293796Y-28873581D01*
X23342810Y-28742166D01*
X23384681Y-28686234D01*
X23450145Y-28661816D01*
X23518418Y-28676667D01*
X23546673Y-28697819D01*
X23668599Y-28819745D01*
X23754933Y-28880197D01*
X23862165Y-28955282D01*
X23862167Y-28955283D01*
X23862170Y-28955285D01*
X24076337Y-29055153D01*
X24304592Y-29116313D01*
X24481034Y-29131750D01*
X24539999Y-29136909D01*
X24540000Y-29136909D01*
X24540001Y-29136909D01*
X24598966Y-29131750D01*
X24775408Y-29116313D01*
X25003663Y-29055153D01*
X25217830Y-28955285D01*
X25411401Y-28819745D01*
X25578495Y-28652651D01*
X25708730Y-28466655D01*
X25763307Y-28423031D01*
X25832805Y-28415837D01*
X25895160Y-28447360D01*
X25911879Y-28466655D01*
X26041890Y-28652328D01*
X26208917Y-28819355D01*
X26402421Y-28954850D01*
X26616507Y-29054679D01*
X26616516Y-29054683D01*
X26830000Y-29111884D01*
X26830000Y-28214262D01*
X26887007Y-28247175D01*
X27014174Y-28281250D01*
X27145826Y-28281250D01*
X27272993Y-28247175D01*
X27330000Y-28214262D01*
X27330000Y-29111883D01*
X27543483Y-29054683D01*
X27543492Y-29054679D01*
X27757578Y-28954850D01*
X27951082Y-28819355D01*
X28118105Y-28652332D01*
X28253600Y-28458828D01*
X28353429Y-28244742D01*
X28353432Y-28244736D01*
X28410636Y-28031250D01*
X27513012Y-28031250D01*
X27545925Y-27974243D01*
X27580000Y-27847076D01*
X27580000Y-27715424D01*
X27545925Y-27588257D01*
X27513012Y-27531250D01*
X28410636Y-27531250D01*
X28410635Y-27531249D01*
X28353432Y-27317763D01*
X28353429Y-27317757D01*
X28253600Y-27103672D01*
X28253599Y-27103670D01*
X28118113Y-26910176D01*
X28118108Y-26910170D01*
X28110619Y-26902681D01*
X28077134Y-26841358D01*
X28082118Y-26771666D01*
X28123990Y-26715733D01*
X28189454Y-26691316D01*
X28198300Y-26691000D01*
X28878768Y-26691000D01*
X28945807Y-26710685D01*
X28951653Y-26714682D01*
X29047265Y-26784148D01*
X29047270Y-26784151D01*
X29220192Y-26861142D01*
X29220197Y-26861144D01*
X29405354Y-26900500D01*
X29405355Y-26900500D01*
X29594644Y-26900500D01*
X29594646Y-26900500D01*
X29779803Y-26861144D01*
X29952730Y-26784151D01*
X30046900Y-26715733D01*
X30048347Y-26714682D01*
X30114153Y-26691202D01*
X30121232Y-26691000D01*
X31878768Y-26691000D01*
X31945807Y-26710685D01*
X31951653Y-26714682D01*
X32047265Y-26784148D01*
X32047270Y-26784151D01*
X32220192Y-26861142D01*
X32220197Y-26861144D01*
X32405354Y-26900500D01*
X32405355Y-26900500D01*
X32594644Y-26900500D01*
X32594646Y-26900500D01*
X32779803Y-26861144D01*
X32952730Y-26784151D01*
X33046900Y-26715733D01*
X33048347Y-26714682D01*
X33114153Y-26691202D01*
X33121232Y-26691000D01*
X34878768Y-26691000D01*
X34945807Y-26710685D01*
X34951653Y-26714682D01*
X35047265Y-26784148D01*
X35047270Y-26784151D01*
X35220192Y-26861142D01*
X35220197Y-26861144D01*
X35405354Y-26900500D01*
X35405355Y-26900500D01*
X35594644Y-26900500D01*
X35594646Y-26900500D01*
X35779803Y-26861144D01*
X35952730Y-26784151D01*
X36046900Y-26715733D01*
X36048347Y-26714682D01*
X36114153Y-26691202D01*
X36121232Y-26691000D01*
X37878768Y-26691000D01*
X37945807Y-26710685D01*
X37951653Y-26714682D01*
X38047265Y-26784148D01*
X38047270Y-26784151D01*
X38220192Y-26861142D01*
X38220197Y-26861144D01*
X38405354Y-26900500D01*
X38405355Y-26900500D01*
X38594644Y-26900500D01*
X38594646Y-26900500D01*
X38779803Y-26861144D01*
X38952730Y-26784151D01*
X39046900Y-26715733D01*
X39048347Y-26714682D01*
X39114153Y-26691202D01*
X39121232Y-26691000D01*
X40878768Y-26691000D01*
X40945807Y-26710685D01*
X40951653Y-26714682D01*
X41047265Y-26784148D01*
X41047270Y-26784151D01*
X41220192Y-26861142D01*
X41220197Y-26861144D01*
X41405354Y-26900500D01*
X41405355Y-26900500D01*
X41594644Y-26900500D01*
X41594646Y-26900500D01*
X41779803Y-26861144D01*
X41952730Y-26784151D01*
X42046900Y-26715733D01*
X42048347Y-26714682D01*
X42114153Y-26691202D01*
X42121232Y-26691000D01*
X43878768Y-26691000D01*
X43945807Y-26710685D01*
X43951653Y-26714682D01*
X44047265Y-26784148D01*
X44047270Y-26784151D01*
X44220192Y-26861142D01*
X44220197Y-26861144D01*
X44405354Y-26900500D01*
X44405355Y-26900500D01*
X44594644Y-26900500D01*
X44594646Y-26900500D01*
X44779803Y-26861144D01*
X44952730Y-26784151D01*
X45046900Y-26715733D01*
X45048347Y-26714682D01*
X45114153Y-26691202D01*
X45121232Y-26691000D01*
X46878768Y-26691000D01*
X46945807Y-26710685D01*
X46951653Y-26714682D01*
X47047265Y-26784148D01*
X47047270Y-26784151D01*
X47220192Y-26861142D01*
X47220197Y-26861144D01*
X47405354Y-26900500D01*
X47405355Y-26900500D01*
X47594644Y-26900500D01*
X47594646Y-26900500D01*
X47779803Y-26861144D01*
X47952730Y-26784151D01*
X48046900Y-26715733D01*
X48048347Y-26714682D01*
X48114153Y-26691202D01*
X48121232Y-26691000D01*
X49878768Y-26691000D01*
X49945807Y-26710685D01*
X49951653Y-26714682D01*
X50047265Y-26784148D01*
X50047270Y-26784151D01*
X50220192Y-26861142D01*
X50220197Y-26861144D01*
X50405354Y-26900500D01*
X50405355Y-26900500D01*
X50594644Y-26900500D01*
X50594646Y-26900500D01*
X50779803Y-26861144D01*
X50952730Y-26784151D01*
X51046900Y-26715733D01*
X51048347Y-26714682D01*
X51114153Y-26691202D01*
X51121232Y-26691000D01*
X52878768Y-26691000D01*
X52945807Y-26710685D01*
X52951653Y-26714682D01*
X53047265Y-26784148D01*
X53047270Y-26784151D01*
X53220192Y-26861142D01*
X53220197Y-26861144D01*
X53405354Y-26900500D01*
X53405355Y-26900500D01*
X53594644Y-26900500D01*
X53594646Y-26900500D01*
X53779803Y-26861144D01*
X53952730Y-26784151D01*
X54046900Y-26715733D01*
X54048347Y-26714682D01*
X54114153Y-26691202D01*
X54121232Y-26691000D01*
X55878768Y-26691000D01*
X55945807Y-26710685D01*
X55951653Y-26714682D01*
X56047265Y-26784148D01*
X56047270Y-26784151D01*
X56220192Y-26861142D01*
X56220197Y-26861144D01*
X56405354Y-26900500D01*
X56405355Y-26900500D01*
X56594644Y-26900500D01*
X56594646Y-26900500D01*
X56779803Y-26861144D01*
X56952730Y-26784151D01*
X57046900Y-26715733D01*
X57048347Y-26714682D01*
X57114153Y-26691202D01*
X57121232Y-26691000D01*
X59378768Y-26691000D01*
X59445807Y-26710685D01*
X59451653Y-26714682D01*
X59547265Y-26784148D01*
X59547270Y-26784151D01*
X59720192Y-26861142D01*
X59720197Y-26861144D01*
X59905354Y-26900500D01*
X59905355Y-26900500D01*
X60094644Y-26900500D01*
X60094646Y-26900500D01*
X60279803Y-26861144D01*
X60452730Y-26784151D01*
X60546900Y-26715733D01*
X60548347Y-26714682D01*
X60614153Y-26691202D01*
X60621232Y-26691000D01*
X62378768Y-26691000D01*
X62445807Y-26710685D01*
X62451653Y-26714682D01*
X62547265Y-26784148D01*
X62547270Y-26784151D01*
X62720192Y-26861142D01*
X62720197Y-26861144D01*
X62905354Y-26900500D01*
X62905355Y-26900500D01*
X63094644Y-26900500D01*
X63094646Y-26900500D01*
X63279803Y-26861144D01*
X63452730Y-26784151D01*
X63546900Y-26715733D01*
X63548347Y-26714682D01*
X63614153Y-26691202D01*
X63621232Y-26691000D01*
X65378768Y-26691000D01*
X65445807Y-26710685D01*
X65451653Y-26714682D01*
X65547265Y-26784148D01*
X65547270Y-26784151D01*
X65720192Y-26861142D01*
X65720197Y-26861144D01*
X65905354Y-26900500D01*
X65905355Y-26900500D01*
X66094644Y-26900500D01*
X66094646Y-26900500D01*
X66279803Y-26861144D01*
X66452730Y-26784151D01*
X66546900Y-26715733D01*
X66548347Y-26714682D01*
X66614153Y-26691202D01*
X66621232Y-26691000D01*
X68378768Y-26691000D01*
X68445807Y-26710685D01*
X68451653Y-26714682D01*
X68547265Y-26784148D01*
X68547270Y-26784151D01*
X68720192Y-26861142D01*
X68720197Y-26861144D01*
X68905354Y-26900500D01*
X68905355Y-26900500D01*
X69094644Y-26900500D01*
X69094646Y-26900500D01*
X69279803Y-26861144D01*
X69452730Y-26784151D01*
X69546900Y-26715733D01*
X69548347Y-26714682D01*
X69614153Y-26691202D01*
X69621232Y-26691000D01*
X71378768Y-26691000D01*
X71445807Y-26710685D01*
X71451653Y-26714682D01*
X71547265Y-26784148D01*
X71547270Y-26784151D01*
X71720192Y-26861142D01*
X71720197Y-26861144D01*
X71905354Y-26900500D01*
X71905355Y-26900500D01*
X72094644Y-26900500D01*
X72094646Y-26900500D01*
X72279803Y-26861144D01*
X72452730Y-26784151D01*
X72546900Y-26715733D01*
X72548347Y-26714682D01*
X72614153Y-26691202D01*
X72621232Y-26691000D01*
X74378768Y-26691000D01*
X74445807Y-26710685D01*
X74451653Y-26714682D01*
X74547265Y-26784148D01*
X74547270Y-26784151D01*
X74720192Y-26861142D01*
X74720197Y-26861144D01*
X74905354Y-26900500D01*
X74905355Y-26900500D01*
X75094644Y-26900500D01*
X75094646Y-26900500D01*
X75279803Y-26861144D01*
X75452730Y-26784151D01*
X75605871Y-26672888D01*
X75732533Y-26532216D01*
X75827179Y-26368284D01*
X75885674Y-26188256D01*
X75905460Y-26000000D01*
X75885674Y-25811744D01*
X75827179Y-25631716D01*
X75732533Y-25467784D01*
X75605871Y-25327112D01*
X75553848Y-25289315D01*
X75452734Y-25215851D01*
X75452729Y-25215848D01*
X75279807Y-25138857D01*
X75279802Y-25138855D01*
X75134001Y-25107865D01*
X75094646Y-25099500D01*
X74905354Y-25099500D01*
X74872897Y-25106398D01*
X74720197Y-25138855D01*
X74720192Y-25138857D01*
X74547270Y-25215848D01*
X74547265Y-25215851D01*
X74451653Y-25285318D01*
X74385847Y-25308798D01*
X74378768Y-25309000D01*
X72621232Y-25309000D01*
X72554193Y-25289315D01*
X72548347Y-25285318D01*
X72452734Y-25215851D01*
X72452729Y-25215848D01*
X72279807Y-25138857D01*
X72279802Y-25138855D01*
X72134001Y-25107865D01*
X72094646Y-25099500D01*
X71905354Y-25099500D01*
X71872897Y-25106398D01*
X71720197Y-25138855D01*
X71720192Y-25138857D01*
X71547270Y-25215848D01*
X71547265Y-25215851D01*
X71451653Y-25285318D01*
X71385847Y-25308798D01*
X71378768Y-25309000D01*
X69621232Y-25309000D01*
X69554193Y-25289315D01*
X69548347Y-25285318D01*
X69452734Y-25215851D01*
X69452729Y-25215848D01*
X69279807Y-25138857D01*
X69279802Y-25138855D01*
X69134001Y-25107865D01*
X69094646Y-25099500D01*
X68905354Y-25099500D01*
X68872897Y-25106398D01*
X68720197Y-25138855D01*
X68720192Y-25138857D01*
X68547270Y-25215848D01*
X68547265Y-25215851D01*
X68451653Y-25285318D01*
X68385847Y-25308798D01*
X68378768Y-25309000D01*
X66621232Y-25309000D01*
X66554193Y-25289315D01*
X66548347Y-25285318D01*
X66452734Y-25215851D01*
X66452729Y-25215848D01*
X66279807Y-25138857D01*
X66279802Y-25138855D01*
X66134001Y-25107865D01*
X66094646Y-25099500D01*
X65905354Y-25099500D01*
X65872897Y-25106398D01*
X65720197Y-25138855D01*
X65720192Y-25138857D01*
X65547270Y-25215848D01*
X65547265Y-25215851D01*
X65451653Y-25285318D01*
X65385847Y-25308798D01*
X65378768Y-25309000D01*
X63621232Y-25309000D01*
X63554193Y-25289315D01*
X63548347Y-25285318D01*
X63452734Y-25215851D01*
X63452729Y-25215848D01*
X63279807Y-25138857D01*
X63279802Y-25138855D01*
X63134001Y-25107865D01*
X63094646Y-25099500D01*
X62905354Y-25099500D01*
X62872897Y-25106398D01*
X62720197Y-25138855D01*
X62720192Y-25138857D01*
X62547270Y-25215848D01*
X62547265Y-25215851D01*
X62451653Y-25285318D01*
X62385847Y-25308798D01*
X62378768Y-25309000D01*
X60621232Y-25309000D01*
X60554193Y-25289315D01*
X60548347Y-25285318D01*
X60452734Y-25215851D01*
X60452729Y-25215848D01*
X60279807Y-25138857D01*
X60279802Y-25138855D01*
X60134001Y-25107865D01*
X60094646Y-25099500D01*
X59905354Y-25099500D01*
X59872897Y-25106398D01*
X59720197Y-25138855D01*
X59720192Y-25138857D01*
X59547270Y-25215848D01*
X59547265Y-25215851D01*
X59451653Y-25285318D01*
X59385847Y-25308798D01*
X59378768Y-25309000D01*
X57121232Y-25309000D01*
X57054193Y-25289315D01*
X57048347Y-25285318D01*
X56952734Y-25215851D01*
X56952729Y-25215848D01*
X56779807Y-25138857D01*
X56779802Y-25138855D01*
X56634001Y-25107865D01*
X56594646Y-25099500D01*
X56405354Y-25099500D01*
X56372897Y-25106398D01*
X56220197Y-25138855D01*
X56220192Y-25138857D01*
X56047270Y-25215848D01*
X56047265Y-25215851D01*
X55951653Y-25285318D01*
X55885847Y-25308798D01*
X55878768Y-25309000D01*
X54121232Y-25309000D01*
X54054193Y-25289315D01*
X54048347Y-25285318D01*
X53952734Y-25215851D01*
X53952729Y-25215848D01*
X53779807Y-25138857D01*
X53779802Y-25138855D01*
X53634001Y-25107865D01*
X53594646Y-25099500D01*
X53405354Y-25099500D01*
X53372897Y-25106398D01*
X53220197Y-25138855D01*
X53220192Y-25138857D01*
X53047270Y-25215848D01*
X53047265Y-25215851D01*
X52951653Y-25285318D01*
X52885847Y-25308798D01*
X52878768Y-25309000D01*
X51121232Y-25309000D01*
X51054193Y-25289315D01*
X51048347Y-25285318D01*
X50952734Y-25215851D01*
X50952729Y-25215848D01*
X50779807Y-25138857D01*
X50779802Y-25138855D01*
X50634001Y-25107865D01*
X50594646Y-25099500D01*
X50405354Y-25099500D01*
X50372897Y-25106398D01*
X50220197Y-25138855D01*
X50220192Y-25138857D01*
X50047270Y-25215848D01*
X50047265Y-25215851D01*
X49951653Y-25285318D01*
X49885847Y-25308798D01*
X49878768Y-25309000D01*
X48121232Y-25309000D01*
X48054193Y-25289315D01*
X48048347Y-25285318D01*
X47952734Y-25215851D01*
X47952729Y-25215848D01*
X47779807Y-25138857D01*
X47779802Y-25138855D01*
X47634001Y-25107865D01*
X47594646Y-25099500D01*
X47405354Y-25099500D01*
X47372897Y-25106398D01*
X47220197Y-25138855D01*
X47220192Y-25138857D01*
X47047270Y-25215848D01*
X47047265Y-25215851D01*
X46951653Y-25285318D01*
X46885847Y-25308798D01*
X46878768Y-25309000D01*
X45121232Y-25309000D01*
X45054193Y-25289315D01*
X45048347Y-25285318D01*
X44952734Y-25215851D01*
X44952729Y-25215848D01*
X44779807Y-25138857D01*
X44779802Y-25138855D01*
X44634001Y-25107865D01*
X44594646Y-25099500D01*
X44405354Y-25099500D01*
X44372897Y-25106398D01*
X44220197Y-25138855D01*
X44220192Y-25138857D01*
X44047270Y-25215848D01*
X44047265Y-25215851D01*
X43951653Y-25285318D01*
X43885847Y-25308798D01*
X43878768Y-25309000D01*
X42121232Y-25309000D01*
X42054193Y-25289315D01*
X42048347Y-25285318D01*
X41952734Y-25215851D01*
X41952729Y-25215848D01*
X41779807Y-25138857D01*
X41779802Y-25138855D01*
X41634001Y-25107865D01*
X41594646Y-25099500D01*
X41405354Y-25099500D01*
X41372897Y-25106398D01*
X41220197Y-25138855D01*
X41220192Y-25138857D01*
X41047270Y-25215848D01*
X41047265Y-25215851D01*
X40951653Y-25285318D01*
X40885847Y-25308798D01*
X40878768Y-25309000D01*
X39121232Y-25309000D01*
X39054193Y-25289315D01*
X39048347Y-25285318D01*
X38952734Y-25215851D01*
X38952729Y-25215848D01*
X38779807Y-25138857D01*
X38779802Y-25138855D01*
X38634001Y-25107865D01*
X38594646Y-25099500D01*
X38405354Y-25099500D01*
X38372897Y-25106398D01*
X38220197Y-25138855D01*
X38220192Y-25138857D01*
X38047270Y-25215848D01*
X38047265Y-25215851D01*
X37951653Y-25285318D01*
X37885847Y-25308798D01*
X37878768Y-25309000D01*
X36121232Y-25309000D01*
X36054193Y-25289315D01*
X36048347Y-25285318D01*
X35952734Y-25215851D01*
X35952729Y-25215848D01*
X35779807Y-25138857D01*
X35779802Y-25138855D01*
X35634001Y-25107865D01*
X35594646Y-25099500D01*
X35405354Y-25099500D01*
X35372897Y-25106398D01*
X35220197Y-25138855D01*
X35220192Y-25138857D01*
X35047270Y-25215848D01*
X35047265Y-25215851D01*
X34951653Y-25285318D01*
X34885847Y-25308798D01*
X34878768Y-25309000D01*
X33121232Y-25309000D01*
X33054193Y-25289315D01*
X33048347Y-25285318D01*
X32952734Y-25215851D01*
X32952729Y-25215848D01*
X32779807Y-25138857D01*
X32779802Y-25138855D01*
X32634001Y-25107865D01*
X32594646Y-25099500D01*
X32405354Y-25099500D01*
X32372897Y-25106398D01*
X32220197Y-25138855D01*
X32220192Y-25138857D01*
X32047270Y-25215848D01*
X32047265Y-25215851D01*
X31951653Y-25285318D01*
X31885847Y-25308798D01*
X31878768Y-25309000D01*
X30121232Y-25309000D01*
X30054193Y-25289315D01*
X30048347Y-25285318D01*
X29952734Y-25215851D01*
X29952729Y-25215848D01*
X29779807Y-25138857D01*
X29779802Y-25138855D01*
X29634001Y-25107865D01*
X29594646Y-25099500D01*
X29405354Y-25099500D01*
X29372897Y-25106398D01*
X29220197Y-25138855D01*
X29220192Y-25138857D01*
X29047270Y-25215848D01*
X29047265Y-25215851D01*
X28951653Y-25285318D01*
X28885847Y-25308798D01*
X28878768Y-25309000D01*
X23713190Y-25309000D01*
X23579698Y-25335553D01*
X23579688Y-25335556D01*
X23453945Y-25387640D01*
X23453932Y-25387647D01*
X23340764Y-25463264D01*
X23340760Y-25463267D01*
X22409596Y-26394431D01*
X22348273Y-26427916D01*
X22321915Y-26430750D01*
X21102129Y-26430750D01*
X21102123Y-26430751D01*
X21042516Y-26437158D01*
X20907671Y-26487452D01*
X20907664Y-26487456D01*
X20792455Y-26573702D01*
X20792452Y-26573705D01*
X20706206Y-26688914D01*
X20706202Y-26688921D01*
X20655908Y-26823767D01*
X20649501Y-26883366D01*
X20649500Y-26883385D01*
X19304000Y-26883385D01*
X19304000Y-21481880D01*
X19323685Y-21414841D01*
X19376489Y-21369086D01*
X19445647Y-21359142D01*
X19509203Y-21388167D01*
X19545486Y-21442899D01*
X19545531Y-21442883D01*
X19545607Y-21443081D01*
X19545937Y-21443579D01*
X19546699Y-21445927D01*
X19678165Y-21788406D01*
X19844715Y-22115277D01*
X20044514Y-22422941D01*
X20233258Y-22656019D01*
X21657301Y-21231975D01*
X21735825Y-21340055D01*
X21902777Y-21507007D01*
X22010854Y-21585529D01*
X20586811Y-23009572D01*
X20819890Y-23198317D01*
X21127554Y-23398116D01*
X21454425Y-23564666D01*
X21796909Y-23696134D01*
X22151275Y-23791086D01*
X22513607Y-23848473D01*
X22879960Y-23867674D01*
X22879962Y-23867674D01*
X23246314Y-23848473D01*
X23608645Y-23791086D01*
X23608647Y-23791086D01*
X23963012Y-23696134D01*
X24305496Y-23564666D01*
X24632367Y-23398116D01*
X24940025Y-23198321D01*
X25173109Y-23009572D01*
X23749067Y-21585530D01*
X23857145Y-21507007D01*
X24024097Y-21340055D01*
X24102620Y-21231977D01*
X25526662Y-22656019D01*
X25715411Y-22422935D01*
X25915206Y-22115277D01*
X26081756Y-21788406D01*
X26213224Y-21445922D01*
X26308176Y-21091557D01*
X26308176Y-21091555D01*
X26365563Y-20729224D01*
X26384764Y-20362871D01*
X26384764Y-20362870D01*
X26365563Y-19996517D01*
X26308176Y-19634186D01*
X26308176Y-19634184D01*
X26213224Y-19279819D01*
X26081756Y-18937335D01*
X25915206Y-18610465D01*
X25715407Y-18302800D01*
X25526662Y-18069721D01*
X24102619Y-19493764D01*
X24024097Y-19385687D01*
X23857145Y-19218735D01*
X23749065Y-19140211D01*
X25173109Y-17716168D01*
X24940031Y-17527424D01*
X24632367Y-17327625D01*
X24305496Y-17161075D01*
X23963012Y-17029607D01*
X23881532Y-17007775D01*
X23821872Y-16971410D01*
X23791343Y-16908563D01*
X23799638Y-16839187D01*
X23844123Y-16785309D01*
X23910675Y-16764035D01*
X23913626Y-16764000D01*
X77596218Y-16764000D01*
X77597840Y-16764011D01*
G37*
%TD.AperFunction*%
%TD*%
M02*
