%TF.GenerationSoftware,KiCad,Pcbnew,(7.99.0-267-g8440d7258b)*%
%TF.CreationDate,2023-05-05T03:53:06-07:00*%
%TF.ProjectId,1_2og_lightbar,315f326f-675f-46c6-9967-68746261722e,rev?*%
%TF.SameCoordinates,Original*%
%TF.FileFunction,Soldermask,Top*%
%TF.FilePolarity,Negative*%
%FSLAX46Y46*%
G04 Gerber Fmt 4.6, Leading zero omitted, Abs format (unit mm)*
G04 Created by KiCad (PCBNEW (7.99.0-267-g8440d7258b)) date 2023-05-05 03:53:06*
%MOMM*%
%LPD*%
G01*
G04 APERTURE LIST*
G04 Aperture macros list*
%AMRoundRect*
0 Rectangle with rounded corners*
0 $1 Rounding radius*
0 $2 $3 $4 $5 $6 $7 $8 $9 X,Y pos of 4 corners*
0 Add a 4 corners polygon primitive as box body*
4,1,4,$2,$3,$4,$5,$6,$7,$8,$9,$2,$3,0*
0 Add four circle primitives for the rounded corners*
1,1,$1+$1,$2,$3*
1,1,$1+$1,$4,$5*
1,1,$1+$1,$6,$7*
1,1,$1+$1,$8,$9*
0 Add four rect primitives between the rounded corners*
20,1,$1+$1,$2,$3,$4,$5,0*
20,1,$1+$1,$4,$5,$6,$7,0*
20,1,$1+$1,$6,$7,$8,$9,0*
20,1,$1+$1,$8,$9,$2,$3,0*%
G04 Aperture macros list end*
%ADD10RoundRect,0.140000X-0.140000X-0.170000X0.140000X-0.170000X0.140000X0.170000X-0.140000X0.170000X0*%
%ADD11RoundRect,0.105000X0.245000X-0.245000X0.245000X0.245000X-0.245000X0.245000X-0.245000X-0.245000X0*%
%ADD12C,3.600000*%
%ADD13C,5.600000*%
%ADD14RoundRect,0.150000X-0.150000X-0.275000X0.150000X-0.275000X0.150000X0.275000X-0.150000X0.275000X0*%
%ADD15RoundRect,0.175000X-0.175000X-0.225000X0.175000X-0.225000X0.175000X0.225000X-0.175000X0.225000X0*%
G04 APERTURE END LIST*
D10*
%TO.C,C14*%
X69370000Y-21742000D03*
X70330000Y-21742000D03*
%TD*%
%TO.C,C11*%
X60226000Y-21742000D03*
X61186000Y-21742000D03*
%TD*%
D11*
%TO.C,D3*%
X35772000Y-24664000D03*
X36872000Y-24664000D03*
X36872000Y-22834000D03*
X35772000Y-22834000D03*
%TD*%
D10*
%TO.C,C4*%
X38890000Y-21742000D03*
X39850000Y-21742000D03*
%TD*%
D11*
%TO.C,D16*%
X75396000Y-24664000D03*
X76496000Y-24664000D03*
X76496000Y-22834000D03*
X75396000Y-22834000D03*
%TD*%
D12*
%TO.C,H2*%
X77597000Y-32385000D03*
D13*
X77597000Y-32385000D03*
%TD*%
D11*
%TO.C,D11*%
X60156000Y-24664000D03*
X61256000Y-24664000D03*
X61256000Y-22834000D03*
X60156000Y-22834000D03*
%TD*%
D10*
%TO.C,C7*%
X48034000Y-21742000D03*
X48994000Y-21742000D03*
%TD*%
%TO.C,C12*%
X63274000Y-21742000D03*
X64234000Y-21742000D03*
%TD*%
D11*
%TO.C,D4*%
X38820000Y-24664000D03*
X39920000Y-24664000D03*
X39920000Y-22834000D03*
X38820000Y-22834000D03*
%TD*%
D10*
%TO.C,C1*%
X29746000Y-21742000D03*
X30706000Y-21742000D03*
%TD*%
%TO.C,C9*%
X54130000Y-21742000D03*
X55090000Y-21742000D03*
%TD*%
%TO.C,C10*%
X57178000Y-21742000D03*
X58138000Y-21742000D03*
%TD*%
D11*
%TO.C,D6*%
X44916000Y-24664000D03*
X46016000Y-24664000D03*
X46016000Y-22834000D03*
X44916000Y-22834000D03*
%TD*%
D10*
%TO.C,C16*%
X75466000Y-21742000D03*
X76426000Y-21742000D03*
%TD*%
D11*
%TO.C,D12*%
X63204000Y-24664000D03*
X64304000Y-24664000D03*
X64304000Y-22834000D03*
X63204000Y-22834000D03*
%TD*%
%TO.C,D10*%
X57108000Y-24664000D03*
X58208000Y-24664000D03*
X58208000Y-22834000D03*
X57108000Y-22834000D03*
%TD*%
%TO.C,D14*%
X69300000Y-24664000D03*
X70400000Y-24664000D03*
X70400000Y-22834000D03*
X69300000Y-22834000D03*
%TD*%
D10*
%TO.C,C2*%
X32794000Y-21742000D03*
X33754000Y-21742000D03*
%TD*%
%TO.C,C3*%
X35842000Y-21742000D03*
X36802000Y-21742000D03*
%TD*%
D11*
%TO.C,D1*%
X29676000Y-24664000D03*
X30776000Y-24664000D03*
X30776000Y-22834000D03*
X29676000Y-22834000D03*
%TD*%
D14*
%TO.C,J1*%
X23254000Y-26543000D03*
X24454000Y-26543000D03*
X25654000Y-26543000D03*
D15*
X22104000Y-30318000D03*
X26804000Y-30318000D03*
%TD*%
D10*
%TO.C,C8*%
X51082000Y-21742000D03*
X52042000Y-21742000D03*
%TD*%
D11*
%TO.C,D9*%
X54060000Y-24664000D03*
X55160000Y-24664000D03*
X55160000Y-22834000D03*
X54060000Y-22834000D03*
%TD*%
%TO.C,D13*%
X66252000Y-24664000D03*
X67352000Y-24664000D03*
X67352000Y-22834000D03*
X66252000Y-22834000D03*
%TD*%
%TO.C,D2*%
X32724000Y-24664000D03*
X33824000Y-24664000D03*
X33824000Y-22834000D03*
X32724000Y-22834000D03*
%TD*%
D10*
%TO.C,C6*%
X44986000Y-21742000D03*
X45946000Y-21742000D03*
%TD*%
D11*
%TO.C,D8*%
X51012000Y-24664000D03*
X52112000Y-24664000D03*
X52112000Y-22834000D03*
X51012000Y-22834000D03*
%TD*%
D10*
%TO.C,C13*%
X66322000Y-21742000D03*
X67282000Y-21742000D03*
%TD*%
D11*
%TO.C,D7*%
X47964000Y-24664000D03*
X49064000Y-24664000D03*
X49064000Y-22834000D03*
X47964000Y-22834000D03*
%TD*%
D10*
%TO.C,C5*%
X41938000Y-21742000D03*
X42898000Y-21742000D03*
%TD*%
%TO.C,C15*%
X72418000Y-21742000D03*
X73378000Y-21742000D03*
%TD*%
D12*
%TO.C,H1*%
X22879961Y-20362871D03*
D13*
X22879961Y-20362871D03*
%TD*%
D11*
%TO.C,D5*%
X41868000Y-24664000D03*
X42968000Y-24664000D03*
X42968000Y-22834000D03*
X41868000Y-22834000D03*
%TD*%
%TO.C,D15*%
X72348000Y-24664000D03*
X73448000Y-24664000D03*
X73448000Y-22834000D03*
X72348000Y-22834000D03*
%TD*%
M02*
