%TF.GenerationSoftware,KiCad,Pcbnew,(7.99.0-267-g8440d7258b)*%
%TF.CreationDate,2023-05-05T01:06:14-07:00*%
%TF.ProjectId,1_2og_lightbar,315f326f-675f-46c6-9967-68746261722e,rev?*%
%TF.SameCoordinates,Original*%
%TF.FileFunction,Copper,L2,Bot*%
%TF.FilePolarity,Positive*%
%FSLAX46Y46*%
G04 Gerber Fmt 4.6, Leading zero omitted, Abs format (unit mm)*
G04 Created by KiCad (PCBNEW (7.99.0-267-g8440d7258b)) date 2023-05-05 01:06:14*
%MOMM*%
%LPD*%
G01*
G04 APERTURE LIST*
%TA.AperFunction,ComponentPad*%
%ADD10C,3.600000*%
%TD*%
%TA.AperFunction,ConnectorPad*%
%ADD11C,5.600000*%
%TD*%
%TA.AperFunction,ComponentPad*%
%ADD12R,1.350000X1.350000*%
%TD*%
%TA.AperFunction,ComponentPad*%
%ADD13O,1.350000X1.350000*%
%TD*%
%TA.AperFunction,ViaPad*%
%ADD14C,0.800000*%
%TD*%
%TA.AperFunction,Conductor*%
%ADD15C,0.381000*%
%TD*%
G04 APERTURE END LIST*
D10*
%TO.P,H2,1,1*%
%TO.N,GND*%
X77597000Y-32385000D03*
D11*
X77597000Y-32385000D03*
%TD*%
D12*
%TO.P,J1,1,Pin_1*%
%TO.N,GND*%
X22542999Y-33400999D03*
D13*
%TO.P,J1,2,Pin_2*%
%TO.N,LIGHTBAR_RGB_OUT*%
X24542999Y-33400999D03*
%TO.P,J1,3,Pin_3*%
%TO.N,+5V*%
X26542999Y-33400999D03*
%TD*%
D10*
%TO.P,H1,1,1*%
%TO.N,GND*%
X22879961Y-20362871D03*
D11*
X22879961Y-20362871D03*
%TD*%
D14*
%TO.N,+5V*%
X57277000Y-20320000D03*
X45212000Y-20320000D03*
X42291000Y-20320000D03*
X63500000Y-20320000D03*
X36068000Y-20320000D03*
X51181000Y-20320000D03*
X39116000Y-20320000D03*
X48260000Y-20320000D03*
X30226000Y-20320000D03*
X33147000Y-20320000D03*
X54356000Y-20320000D03*
X72517000Y-20320000D03*
X60579000Y-20320000D03*
X66421000Y-20320000D03*
X69469000Y-20320000D03*
X75565000Y-20320000D03*
%TO.N,GND*%
X56035000Y-21692000D03*
X68227000Y-21692000D03*
X77371000Y-21692000D03*
X52987000Y-21692000D03*
X62131000Y-21692000D03*
X46891000Y-21692000D03*
X43843000Y-21692000D03*
X37747000Y-21692000D03*
X49939000Y-21692000D03*
X40795000Y-21692000D03*
X31623000Y-21717000D03*
X65179000Y-21692000D03*
X71275000Y-21692000D03*
X74323000Y-21692000D03*
X34699000Y-21692000D03*
X59083000Y-21692000D03*
%TD*%
D15*
%TO.N,+5V*%
X66421000Y-20320000D02*
X69469000Y-20320000D01*
X39116000Y-20320000D02*
X42291000Y-20320000D01*
X63500000Y-20320000D02*
X66421000Y-20320000D01*
X36068000Y-20320000D02*
X39116000Y-20320000D01*
X60579000Y-20320000D02*
X63500000Y-20320000D01*
X51181000Y-20320000D02*
X54356000Y-20320000D01*
X54356000Y-20320000D02*
X57277000Y-20320000D01*
X42291000Y-20320000D02*
X45212000Y-20320000D01*
X33147000Y-20320000D02*
X36068000Y-20320000D01*
X28702000Y-20320000D02*
X29718000Y-20320000D01*
X69469000Y-20320000D02*
X72517000Y-20320000D01*
X26543000Y-33401000D02*
X26543000Y-22479000D01*
X48260000Y-20320000D02*
X51181000Y-20320000D01*
X72517000Y-20320000D02*
X75565000Y-20320000D01*
X57277000Y-20320000D02*
X60579000Y-20320000D01*
X30226000Y-20320000D02*
X33147000Y-20320000D01*
X29718000Y-20320000D02*
X30226000Y-20320000D01*
X26543000Y-22479000D02*
X28702000Y-20320000D01*
X45212000Y-20320000D02*
X48260000Y-20320000D01*
%TD*%
%TA.AperFunction,Conductor*%
%TO.N,GND*%
G36*
X77600032Y-16764648D02*
G01*
X77749447Y-16771989D01*
X77933466Y-16781633D01*
X77945133Y-16782801D01*
X78108636Y-16807054D01*
X78109669Y-16807213D01*
X78277572Y-16833807D01*
X78288263Y-16835988D01*
X78451273Y-16876819D01*
X78452922Y-16877246D01*
X78614599Y-16920567D01*
X78624237Y-16923578D01*
X78783374Y-16980518D01*
X78786013Y-16981497D01*
X78806242Y-16989262D01*
X78941042Y-17041007D01*
X78949610Y-17044672D01*
X79102905Y-17117176D01*
X79106182Y-17118785D01*
X79131363Y-17131615D01*
X79253602Y-17193898D01*
X79261027Y-17198009D01*
X79344219Y-17247872D01*
X79406767Y-17285362D01*
X79410553Y-17287725D01*
X79549020Y-17377646D01*
X79555348Y-17382040D01*
X79692018Y-17483403D01*
X79696128Y-17486588D01*
X79824328Y-17590403D01*
X79829533Y-17594863D01*
X79925265Y-17681629D01*
X79955651Y-17709169D01*
X79960059Y-17713366D01*
X80076632Y-17829939D01*
X80080829Y-17834347D01*
X80195131Y-17960460D01*
X80199601Y-17965677D01*
X80303400Y-18093858D01*
X80306607Y-18097994D01*
X80340416Y-18143580D01*
X80407955Y-18234646D01*
X80412352Y-18240978D01*
X80502273Y-18379445D01*
X80504636Y-18383231D01*
X80591978Y-18528951D01*
X80596105Y-18536406D01*
X80671213Y-18683816D01*
X80672822Y-18687093D01*
X80745326Y-18840388D01*
X80748996Y-18848968D01*
X80808501Y-19003985D01*
X80809488Y-19006647D01*
X80866414Y-19165743D01*
X80869438Y-19175424D01*
X80912708Y-19336909D01*
X80913217Y-19338874D01*
X80954006Y-19501715D01*
X80956195Y-19512446D01*
X80982771Y-19680242D01*
X80982956Y-19681445D01*
X81007195Y-19844846D01*
X81008367Y-19856552D01*
X81017989Y-20040170D01*
X81017886Y-20040175D01*
X81018011Y-20040574D01*
X81025351Y-20189967D01*
X81025500Y-20196052D01*
X81025500Y-31488086D01*
X81011575Y-31545177D01*
X80972929Y-31589446D01*
X80918240Y-31610951D01*
X80859791Y-31604861D01*
X80810710Y-31572545D01*
X80782020Y-31521259D01*
X80728850Y-31329758D01*
X80596398Y-30997329D01*
X80428781Y-30681170D01*
X80227968Y-30384995D01*
X80100557Y-30234995D01*
X80100556Y-30234994D01*
X77597000Y-32738553D01*
X75444255Y-34891295D01*
X75444256Y-34891296D01*
X75457485Y-34903828D01*
X75742363Y-35120386D01*
X75798646Y-35154250D01*
X75842988Y-35200057D01*
X75858710Y-35261843D01*
X75841654Y-35323274D01*
X75796329Y-35368110D01*
X75734717Y-35384500D01*
X22910993Y-35384500D01*
X22905420Y-35383408D01*
X22862967Y-35384428D01*
X22857032Y-35384429D01*
X22707480Y-35380859D01*
X22707073Y-35380848D01*
X22519091Y-35375744D01*
X22507361Y-35374868D01*
X22342135Y-35354603D01*
X22340929Y-35354449D01*
X22169684Y-35331738D01*
X22158899Y-35329819D01*
X21993470Y-35292788D01*
X21991495Y-35292329D01*
X21826595Y-35252574D01*
X21816840Y-35249796D01*
X21654640Y-35196334D01*
X21651953Y-35195414D01*
X21493296Y-35139059D01*
X21484627Y-35135607D01*
X21327873Y-35066250D01*
X21324555Y-35064723D01*
X21173248Y-34992375D01*
X21165693Y-34988438D01*
X21016165Y-34903866D01*
X21012351Y-34901618D01*
X20913583Y-34840962D01*
X20869728Y-34814030D01*
X20863289Y-34809794D01*
X20722595Y-34710849D01*
X20718346Y-34707724D01*
X20682234Y-34679959D01*
X20585806Y-34605821D01*
X20580514Y-34601512D01*
X20450121Y-34489189D01*
X20445611Y-34485106D01*
X20324498Y-34369955D01*
X20320202Y-34365666D01*
X20201454Y-34241110D01*
X20196835Y-34235987D01*
X20088381Y-34108756D01*
X20085046Y-34104670D01*
X20020807Y-34022471D01*
X19979151Y-33969168D01*
X19974612Y-33962972D01*
X19879948Y-33824952D01*
X19877490Y-33821227D01*
X19846695Y-33772670D01*
X19785477Y-33676141D01*
X19781179Y-33668819D01*
X19771526Y-33651000D01*
X21368000Y-33651000D01*
X21368000Y-34123824D01*
X21374402Y-34183375D01*
X21424647Y-34318089D01*
X21510811Y-34433188D01*
X21625910Y-34519352D01*
X21760624Y-34569597D01*
X21820176Y-34576000D01*
X22293000Y-34576000D01*
X22793000Y-34576000D01*
X23265824Y-34576000D01*
X23325375Y-34569597D01*
X23460089Y-34519352D01*
X23575188Y-34433188D01*
X23637413Y-34350068D01*
X23691562Y-34308878D01*
X23759293Y-34302458D01*
X23820217Y-34332741D01*
X23825496Y-34337553D01*
X23831568Y-34343088D01*
X23868014Y-34365654D01*
X24016791Y-34457773D01*
X24175745Y-34519352D01*
X24219931Y-34536470D01*
X24434074Y-34576500D01*
X24651924Y-34576500D01*
X24651926Y-34576500D01*
X24866069Y-34536470D01*
X25001496Y-34484004D01*
X25069208Y-34457773D01*
X25069210Y-34457772D01*
X25254432Y-34343088D01*
X25415427Y-34196322D01*
X25444045Y-34158424D01*
X25487728Y-34122150D01*
X25543000Y-34109150D01*
X25598272Y-34122150D01*
X25641955Y-34158425D01*
X25670572Y-34196322D01*
X25719703Y-34241110D01*
X25831568Y-34343088D01*
X25868014Y-34365654D01*
X26016791Y-34457773D01*
X26175745Y-34519352D01*
X26219931Y-34536470D01*
X26434074Y-34576500D01*
X26651924Y-34576500D01*
X26651926Y-34576500D01*
X26866069Y-34536470D01*
X27001496Y-34484004D01*
X27069208Y-34457773D01*
X27069210Y-34457772D01*
X27254432Y-34343088D01*
X27415427Y-34196322D01*
X27546712Y-34022472D01*
X27643817Y-33827459D01*
X27643818Y-33827457D01*
X27703435Y-33617925D01*
X27706577Y-33584008D01*
X27723536Y-33401000D01*
X27704998Y-33200941D01*
X27703435Y-33184074D01*
X27643818Y-32974542D01*
X27546712Y-32779528D01*
X27415426Y-32605676D01*
X27274462Y-32477171D01*
X27244566Y-32435620D01*
X27234000Y-32385534D01*
X27234000Y-32385000D01*
X74292152Y-32385000D01*
X74311525Y-32742310D01*
X74369419Y-33095451D01*
X74465149Y-33440241D01*
X74597601Y-33772670D01*
X74765218Y-34088829D01*
X74966031Y-34385004D01*
X75093441Y-34535003D01*
X75093442Y-34535004D01*
X77243447Y-32385001D01*
X77243447Y-32384999D01*
X75093442Y-30234994D01*
X75093441Y-30234995D01*
X74966030Y-30384995D01*
X74765218Y-30681170D01*
X74597601Y-30997329D01*
X74465149Y-31329758D01*
X74369419Y-31674548D01*
X74311525Y-32027689D01*
X74292152Y-32385000D01*
X27234000Y-32385000D01*
X27234000Y-29878703D01*
X75444255Y-29878703D01*
X77597000Y-32031447D01*
X77597001Y-32031447D01*
X79749743Y-29878703D01*
X79749742Y-29878702D01*
X79736514Y-29866171D01*
X79451636Y-29649613D01*
X79145015Y-29465126D01*
X78820253Y-29314875D01*
X78481140Y-29200614D01*
X78131664Y-29123689D01*
X77775922Y-29085000D01*
X77418078Y-29085000D01*
X77062335Y-29123689D01*
X76712859Y-29200614D01*
X76373746Y-29314875D01*
X76048984Y-29465126D01*
X75742363Y-29649613D01*
X75457486Y-29866170D01*
X75444256Y-29878702D01*
X75444255Y-29878703D01*
X27234000Y-29878703D01*
X27234000Y-22816584D01*
X27243439Y-22769131D01*
X27270319Y-22728903D01*
X28951903Y-21047319D01*
X28992131Y-21020439D01*
X29039584Y-21011000D01*
X29604768Y-21011000D01*
X29643086Y-21017069D01*
X29677652Y-21034681D01*
X29773270Y-21104151D01*
X29773271Y-21104151D01*
X29773272Y-21104152D01*
X29946197Y-21181144D01*
X30131352Y-21220500D01*
X30131354Y-21220500D01*
X30320646Y-21220500D01*
X30320648Y-21220500D01*
X30444083Y-21194262D01*
X30505803Y-21181144D01*
X30678730Y-21104151D01*
X30774347Y-21034681D01*
X30808914Y-21017069D01*
X30847232Y-21011000D01*
X32525768Y-21011000D01*
X32564086Y-21017069D01*
X32598652Y-21034681D01*
X32694270Y-21104151D01*
X32694271Y-21104151D01*
X32694272Y-21104152D01*
X32867197Y-21181144D01*
X33052352Y-21220500D01*
X33052354Y-21220500D01*
X33241646Y-21220500D01*
X33241648Y-21220500D01*
X33365083Y-21194262D01*
X33426803Y-21181144D01*
X33599730Y-21104151D01*
X33695347Y-21034681D01*
X33729914Y-21017069D01*
X33768232Y-21011000D01*
X35446768Y-21011000D01*
X35485086Y-21017069D01*
X35519652Y-21034681D01*
X35615270Y-21104151D01*
X35615271Y-21104151D01*
X35615272Y-21104152D01*
X35788197Y-21181144D01*
X35973352Y-21220500D01*
X35973354Y-21220500D01*
X36162646Y-21220500D01*
X36162648Y-21220500D01*
X36286084Y-21194262D01*
X36347803Y-21181144D01*
X36520730Y-21104151D01*
X36616347Y-21034681D01*
X36650914Y-21017069D01*
X36689232Y-21011000D01*
X38494768Y-21011000D01*
X38533086Y-21017069D01*
X38567652Y-21034681D01*
X38663270Y-21104151D01*
X38663271Y-21104151D01*
X38663272Y-21104152D01*
X38836197Y-21181144D01*
X39021352Y-21220500D01*
X39021354Y-21220500D01*
X39210646Y-21220500D01*
X39210648Y-21220500D01*
X39334084Y-21194262D01*
X39395803Y-21181144D01*
X39568730Y-21104151D01*
X39664347Y-21034681D01*
X39698914Y-21017069D01*
X39737232Y-21011000D01*
X41669768Y-21011000D01*
X41708086Y-21017069D01*
X41742652Y-21034681D01*
X41838270Y-21104151D01*
X41838271Y-21104151D01*
X41838272Y-21104152D01*
X42011197Y-21181144D01*
X42196352Y-21220500D01*
X42196354Y-21220500D01*
X42385646Y-21220500D01*
X42385648Y-21220500D01*
X42509084Y-21194262D01*
X42570803Y-21181144D01*
X42743730Y-21104151D01*
X42839347Y-21034681D01*
X42873914Y-21017069D01*
X42912232Y-21011000D01*
X44590768Y-21011000D01*
X44629086Y-21017069D01*
X44663652Y-21034681D01*
X44759270Y-21104151D01*
X44759271Y-21104151D01*
X44759272Y-21104152D01*
X44932197Y-21181144D01*
X45117352Y-21220500D01*
X45117354Y-21220500D01*
X45306646Y-21220500D01*
X45306648Y-21220500D01*
X45430084Y-21194262D01*
X45491803Y-21181144D01*
X45664730Y-21104151D01*
X45760347Y-21034681D01*
X45794914Y-21017069D01*
X45833232Y-21011000D01*
X47638768Y-21011000D01*
X47677086Y-21017069D01*
X47711652Y-21034681D01*
X47807270Y-21104151D01*
X47807271Y-21104151D01*
X47807272Y-21104152D01*
X47980197Y-21181144D01*
X48165352Y-21220500D01*
X48165354Y-21220500D01*
X48354646Y-21220500D01*
X48354648Y-21220500D01*
X48478084Y-21194262D01*
X48539803Y-21181144D01*
X48712730Y-21104151D01*
X48808347Y-21034681D01*
X48842914Y-21017069D01*
X48881232Y-21011000D01*
X50559768Y-21011000D01*
X50598086Y-21017069D01*
X50632652Y-21034681D01*
X50728270Y-21104151D01*
X50728271Y-21104151D01*
X50728272Y-21104152D01*
X50901197Y-21181144D01*
X51086352Y-21220500D01*
X51086354Y-21220500D01*
X51275646Y-21220500D01*
X51275648Y-21220500D01*
X51399084Y-21194262D01*
X51460803Y-21181144D01*
X51633730Y-21104151D01*
X51729347Y-21034681D01*
X51763914Y-21017069D01*
X51802232Y-21011000D01*
X53734768Y-21011000D01*
X53773086Y-21017069D01*
X53807652Y-21034681D01*
X53903270Y-21104151D01*
X53903271Y-21104151D01*
X53903272Y-21104152D01*
X54076197Y-21181144D01*
X54261352Y-21220500D01*
X54261354Y-21220500D01*
X54450646Y-21220500D01*
X54450648Y-21220500D01*
X54574084Y-21194262D01*
X54635803Y-21181144D01*
X54808730Y-21104151D01*
X54904347Y-21034681D01*
X54938914Y-21017069D01*
X54977232Y-21011000D01*
X56655768Y-21011000D01*
X56694086Y-21017069D01*
X56728652Y-21034681D01*
X56824270Y-21104151D01*
X56824271Y-21104151D01*
X56824272Y-21104152D01*
X56997197Y-21181144D01*
X57182352Y-21220500D01*
X57182354Y-21220500D01*
X57371646Y-21220500D01*
X57371648Y-21220500D01*
X57495084Y-21194262D01*
X57556803Y-21181144D01*
X57729730Y-21104151D01*
X57825347Y-21034681D01*
X57859914Y-21017069D01*
X57898232Y-21011000D01*
X59957768Y-21011000D01*
X59996086Y-21017069D01*
X60030652Y-21034681D01*
X60126270Y-21104151D01*
X60126271Y-21104151D01*
X60126272Y-21104152D01*
X60299197Y-21181144D01*
X60484352Y-21220500D01*
X60484354Y-21220500D01*
X60673646Y-21220500D01*
X60673648Y-21220500D01*
X60797084Y-21194262D01*
X60858803Y-21181144D01*
X61031730Y-21104151D01*
X61127347Y-21034681D01*
X61161914Y-21017069D01*
X61200232Y-21011000D01*
X62878768Y-21011000D01*
X62917086Y-21017069D01*
X62951652Y-21034681D01*
X63047270Y-21104151D01*
X63047271Y-21104151D01*
X63047272Y-21104152D01*
X63220197Y-21181144D01*
X63405352Y-21220500D01*
X63405354Y-21220500D01*
X63594646Y-21220500D01*
X63594648Y-21220500D01*
X63718084Y-21194262D01*
X63779803Y-21181144D01*
X63952730Y-21104151D01*
X64048347Y-21034681D01*
X64082914Y-21017069D01*
X64121232Y-21011000D01*
X65799768Y-21011000D01*
X65838086Y-21017069D01*
X65872652Y-21034681D01*
X65968270Y-21104151D01*
X65968271Y-21104151D01*
X65968272Y-21104152D01*
X66141197Y-21181144D01*
X66326352Y-21220500D01*
X66326354Y-21220500D01*
X66515646Y-21220500D01*
X66515648Y-21220500D01*
X66639084Y-21194262D01*
X66700803Y-21181144D01*
X66873730Y-21104151D01*
X66969347Y-21034681D01*
X67003914Y-21017069D01*
X67042232Y-21011000D01*
X68847768Y-21011000D01*
X68886086Y-21017069D01*
X68920652Y-21034681D01*
X69016270Y-21104151D01*
X69016271Y-21104151D01*
X69016272Y-21104152D01*
X69189197Y-21181144D01*
X69374352Y-21220500D01*
X69374354Y-21220500D01*
X69563646Y-21220500D01*
X69563648Y-21220500D01*
X69687084Y-21194262D01*
X69748803Y-21181144D01*
X69921730Y-21104151D01*
X70017347Y-21034681D01*
X70051914Y-21017069D01*
X70090232Y-21011000D01*
X71895768Y-21011000D01*
X71934086Y-21017069D01*
X71968652Y-21034681D01*
X72064270Y-21104151D01*
X72064271Y-21104151D01*
X72064272Y-21104152D01*
X72237197Y-21181144D01*
X72422352Y-21220500D01*
X72422354Y-21220500D01*
X72611646Y-21220500D01*
X72611648Y-21220500D01*
X72735084Y-21194262D01*
X72796803Y-21181144D01*
X72969730Y-21104151D01*
X73065347Y-21034681D01*
X73099914Y-21017069D01*
X73138232Y-21011000D01*
X74943768Y-21011000D01*
X74982086Y-21017069D01*
X75016652Y-21034681D01*
X75112270Y-21104151D01*
X75112271Y-21104151D01*
X75112272Y-21104152D01*
X75285197Y-21181144D01*
X75470352Y-21220500D01*
X75470354Y-21220500D01*
X75659646Y-21220500D01*
X75659648Y-21220500D01*
X75783084Y-21194262D01*
X75844803Y-21181144D01*
X76017730Y-21104151D01*
X76170871Y-20992888D01*
X76297533Y-20852216D01*
X76392179Y-20688284D01*
X76450674Y-20508256D01*
X76470460Y-20320000D01*
X76450674Y-20131744D01*
X76409674Y-20005560D01*
X76392179Y-19951715D01*
X76297533Y-19787783D01*
X76170870Y-19647110D01*
X76017730Y-19535848D01*
X75844802Y-19458855D01*
X75659648Y-19419500D01*
X75659646Y-19419500D01*
X75470354Y-19419500D01*
X75470352Y-19419500D01*
X75285197Y-19458855D01*
X75112272Y-19535847D01*
X75047511Y-19582898D01*
X75019703Y-19603103D01*
X75016654Y-19605318D01*
X74982086Y-19622931D01*
X74943768Y-19629000D01*
X73138232Y-19629000D01*
X73099914Y-19622931D01*
X73065346Y-19605318D01*
X73062297Y-19603103D01*
X72969730Y-19535849D01*
X72969729Y-19535848D01*
X72969727Y-19535847D01*
X72796802Y-19458855D01*
X72611648Y-19419500D01*
X72611646Y-19419500D01*
X72422354Y-19419500D01*
X72422352Y-19419500D01*
X72237197Y-19458855D01*
X72064272Y-19535847D01*
X71999511Y-19582898D01*
X71971703Y-19603103D01*
X71968654Y-19605318D01*
X71934086Y-19622931D01*
X71895768Y-19629000D01*
X70090232Y-19629000D01*
X70051914Y-19622931D01*
X70017346Y-19605318D01*
X70014297Y-19603103D01*
X69921730Y-19535849D01*
X69921729Y-19535848D01*
X69921727Y-19535847D01*
X69748802Y-19458855D01*
X69563648Y-19419500D01*
X69563646Y-19419500D01*
X69374354Y-19419500D01*
X69374352Y-19419500D01*
X69189197Y-19458855D01*
X69016272Y-19535847D01*
X68951511Y-19582898D01*
X68923703Y-19603103D01*
X68920654Y-19605318D01*
X68886086Y-19622931D01*
X68847768Y-19629000D01*
X67042232Y-19629000D01*
X67003914Y-19622931D01*
X66969346Y-19605318D01*
X66966297Y-19603103D01*
X66873730Y-19535849D01*
X66873729Y-19535848D01*
X66873727Y-19535847D01*
X66700802Y-19458855D01*
X66515648Y-19419500D01*
X66515646Y-19419500D01*
X66326354Y-19419500D01*
X66326352Y-19419500D01*
X66141197Y-19458855D01*
X65968272Y-19535847D01*
X65903511Y-19582898D01*
X65875703Y-19603103D01*
X65872654Y-19605318D01*
X65838086Y-19622931D01*
X65799768Y-19629000D01*
X64121232Y-19629000D01*
X64082914Y-19622931D01*
X64048346Y-19605318D01*
X64045297Y-19603103D01*
X63952730Y-19535849D01*
X63952729Y-19535848D01*
X63952727Y-19535847D01*
X63779802Y-19458855D01*
X63594648Y-19419500D01*
X63594646Y-19419500D01*
X63405354Y-19419500D01*
X63405352Y-19419500D01*
X63220197Y-19458855D01*
X63047272Y-19535847D01*
X62982511Y-19582898D01*
X62954703Y-19603103D01*
X62951654Y-19605318D01*
X62917086Y-19622931D01*
X62878768Y-19629000D01*
X61200232Y-19629000D01*
X61161914Y-19622931D01*
X61127346Y-19605318D01*
X61124297Y-19603103D01*
X61031730Y-19535849D01*
X61031729Y-19535848D01*
X61031727Y-19535847D01*
X60858802Y-19458855D01*
X60673648Y-19419500D01*
X60673646Y-19419500D01*
X60484354Y-19419500D01*
X60484352Y-19419500D01*
X60299197Y-19458855D01*
X60126272Y-19535847D01*
X60061511Y-19582898D01*
X60033703Y-19603103D01*
X60030654Y-19605318D01*
X59996086Y-19622931D01*
X59957768Y-19629000D01*
X57898232Y-19629000D01*
X57859914Y-19622931D01*
X57825346Y-19605318D01*
X57822297Y-19603103D01*
X57729730Y-19535849D01*
X57729729Y-19535848D01*
X57729727Y-19535847D01*
X57556802Y-19458855D01*
X57371648Y-19419500D01*
X57371646Y-19419500D01*
X57182354Y-19419500D01*
X57182352Y-19419500D01*
X56997197Y-19458855D01*
X56824272Y-19535847D01*
X56759511Y-19582898D01*
X56731703Y-19603103D01*
X56728654Y-19605318D01*
X56694086Y-19622931D01*
X56655768Y-19629000D01*
X54977232Y-19629000D01*
X54938914Y-19622931D01*
X54904346Y-19605318D01*
X54901297Y-19603103D01*
X54808730Y-19535849D01*
X54808729Y-19535848D01*
X54808727Y-19535847D01*
X54635802Y-19458855D01*
X54450648Y-19419500D01*
X54450646Y-19419500D01*
X54261354Y-19419500D01*
X54261352Y-19419500D01*
X54076197Y-19458855D01*
X53903272Y-19535847D01*
X53838511Y-19582898D01*
X53810703Y-19603103D01*
X53807654Y-19605318D01*
X53773086Y-19622931D01*
X53734768Y-19629000D01*
X51802232Y-19629000D01*
X51763914Y-19622931D01*
X51729346Y-19605318D01*
X51726297Y-19603103D01*
X51633730Y-19535849D01*
X51633729Y-19535848D01*
X51633727Y-19535847D01*
X51460802Y-19458855D01*
X51275648Y-19419500D01*
X51275646Y-19419500D01*
X51086354Y-19419500D01*
X51086352Y-19419500D01*
X50901197Y-19458855D01*
X50728272Y-19535847D01*
X50663511Y-19582898D01*
X50635703Y-19603103D01*
X50632654Y-19605318D01*
X50598086Y-19622931D01*
X50559768Y-19629000D01*
X48881232Y-19629000D01*
X48842914Y-19622931D01*
X48808346Y-19605318D01*
X48805297Y-19603103D01*
X48712730Y-19535849D01*
X48712729Y-19535848D01*
X48712727Y-19535847D01*
X48539802Y-19458855D01*
X48354648Y-19419500D01*
X48354646Y-19419500D01*
X48165354Y-19419500D01*
X48165352Y-19419500D01*
X47980197Y-19458855D01*
X47807272Y-19535847D01*
X47742511Y-19582898D01*
X47714703Y-19603103D01*
X47711654Y-19605318D01*
X47677086Y-19622931D01*
X47638768Y-19629000D01*
X45833232Y-19629000D01*
X45794914Y-19622931D01*
X45760346Y-19605318D01*
X45757297Y-19603103D01*
X45664730Y-19535849D01*
X45664729Y-19535848D01*
X45664727Y-19535847D01*
X45491802Y-19458855D01*
X45306648Y-19419500D01*
X45306646Y-19419500D01*
X45117354Y-19419500D01*
X45117352Y-19419500D01*
X44932197Y-19458855D01*
X44759272Y-19535847D01*
X44694511Y-19582898D01*
X44666703Y-19603103D01*
X44663654Y-19605318D01*
X44629086Y-19622931D01*
X44590768Y-19629000D01*
X42912232Y-19629000D01*
X42873914Y-19622931D01*
X42839346Y-19605318D01*
X42836297Y-19603103D01*
X42743730Y-19535849D01*
X42743729Y-19535848D01*
X42743727Y-19535847D01*
X42570802Y-19458855D01*
X42385648Y-19419500D01*
X42385646Y-19419500D01*
X42196354Y-19419500D01*
X42196352Y-19419500D01*
X42011197Y-19458855D01*
X41838272Y-19535847D01*
X41773511Y-19582898D01*
X41745703Y-19603103D01*
X41742654Y-19605318D01*
X41708086Y-19622931D01*
X41669768Y-19629000D01*
X39737232Y-19629000D01*
X39698914Y-19622931D01*
X39664346Y-19605318D01*
X39661297Y-19603103D01*
X39568730Y-19535849D01*
X39568729Y-19535848D01*
X39568727Y-19535847D01*
X39395802Y-19458855D01*
X39210648Y-19419500D01*
X39210646Y-19419500D01*
X39021354Y-19419500D01*
X39021352Y-19419500D01*
X38836197Y-19458855D01*
X38663272Y-19535847D01*
X38598511Y-19582898D01*
X38570703Y-19603103D01*
X38567654Y-19605318D01*
X38533086Y-19622931D01*
X38494768Y-19629000D01*
X36689232Y-19629000D01*
X36650914Y-19622931D01*
X36616346Y-19605318D01*
X36613297Y-19603103D01*
X36520730Y-19535849D01*
X36520729Y-19535848D01*
X36520727Y-19535847D01*
X36347802Y-19458855D01*
X36162648Y-19419500D01*
X36162646Y-19419500D01*
X35973354Y-19419500D01*
X35973352Y-19419500D01*
X35788197Y-19458855D01*
X35615272Y-19535847D01*
X35550511Y-19582898D01*
X35522703Y-19603103D01*
X35519654Y-19605318D01*
X35485086Y-19622931D01*
X35446768Y-19629000D01*
X33768232Y-19629000D01*
X33729914Y-19622931D01*
X33695346Y-19605318D01*
X33692297Y-19603103D01*
X33599730Y-19535849D01*
X33599729Y-19535848D01*
X33599727Y-19535847D01*
X33426802Y-19458855D01*
X33241648Y-19419500D01*
X33241646Y-19419500D01*
X33052354Y-19419500D01*
X33052352Y-19419500D01*
X32867197Y-19458855D01*
X32694272Y-19535847D01*
X32629511Y-19582898D01*
X32601703Y-19603103D01*
X32598654Y-19605318D01*
X32564086Y-19622931D01*
X32525768Y-19629000D01*
X30847232Y-19629000D01*
X30808914Y-19622931D01*
X30774346Y-19605318D01*
X30771297Y-19603103D01*
X30678730Y-19535849D01*
X30678729Y-19535848D01*
X30678727Y-19535847D01*
X30505802Y-19458855D01*
X30320648Y-19419500D01*
X30320646Y-19419500D01*
X30131354Y-19419500D01*
X30131352Y-19419500D01*
X29946197Y-19458855D01*
X29773272Y-19535847D01*
X29708511Y-19582898D01*
X29680703Y-19603103D01*
X29677654Y-19605318D01*
X29643086Y-19622931D01*
X29604768Y-19629000D01*
X28726626Y-19629000D01*
X28719139Y-19628774D01*
X28679165Y-19626356D01*
X28659972Y-19625195D01*
X28659971Y-19625195D01*
X28601668Y-19635879D01*
X28594266Y-19637005D01*
X28535418Y-19644152D01*
X28535416Y-19644152D01*
X28535413Y-19644153D01*
X28526203Y-19647645D01*
X28504604Y-19653666D01*
X28494917Y-19655441D01*
X28440864Y-19679768D01*
X28433950Y-19682632D01*
X28378515Y-19703656D01*
X28370409Y-19709252D01*
X28350875Y-19720269D01*
X28345695Y-19722601D01*
X28341894Y-19724312D01*
X28295243Y-19760861D01*
X28289212Y-19765298D01*
X28240415Y-19798980D01*
X28201104Y-19843352D01*
X28195972Y-19848804D01*
X26071804Y-21972972D01*
X26066352Y-21978104D01*
X26021982Y-22017413D01*
X26003153Y-22044692D01*
X25956428Y-22085224D01*
X25895937Y-22098142D01*
X25852260Y-22084929D01*
X25886658Y-22117409D01*
X25905720Y-22175068D01*
X25895117Y-22234864D01*
X25878441Y-22271917D01*
X25876666Y-22281604D01*
X25870645Y-22303203D01*
X25867153Y-22312413D01*
X25860006Y-22371266D01*
X25858879Y-22378668D01*
X25848195Y-22436971D01*
X25851774Y-22496139D01*
X25852000Y-22503626D01*
X25852000Y-32385534D01*
X25841435Y-32435620D01*
X25811539Y-32477170D01*
X25764802Y-32519777D01*
X25670571Y-32605680D01*
X25650621Y-32632097D01*
X25641955Y-32643575D01*
X25641953Y-32643577D01*
X25598271Y-32679850D01*
X25542999Y-32692849D01*
X25487728Y-32679849D01*
X25444046Y-32643575D01*
X25415428Y-32605678D01*
X25254432Y-32458912D01*
X25069208Y-32344226D01*
X24866073Y-32265531D01*
X24866070Y-32265530D01*
X24866069Y-32265530D01*
X24651926Y-32225500D01*
X24434074Y-32225500D01*
X24219931Y-32265530D01*
X24219926Y-32265531D01*
X24016794Y-32344225D01*
X23831565Y-32458914D01*
X23820215Y-32469261D01*
X23759291Y-32499542D01*
X23691561Y-32493121D01*
X23637413Y-32451932D01*
X23575188Y-32368811D01*
X23460089Y-32282647D01*
X23325375Y-32232402D01*
X23265824Y-32226000D01*
X22793000Y-32226000D01*
X22793000Y-34576000D01*
X22293000Y-34576000D01*
X22293000Y-33651000D01*
X21368000Y-33651000D01*
X19771526Y-33651000D01*
X19738642Y-33590296D01*
X19701289Y-33521341D01*
X19699597Y-33518106D01*
X19622412Y-33365024D01*
X19618540Y-33356567D01*
X19554253Y-33200941D01*
X19553200Y-33198305D01*
X19534915Y-33151000D01*
X21368000Y-33151000D01*
X22293000Y-33151000D01*
X22293000Y-32226000D01*
X21820176Y-32226000D01*
X21760624Y-32232402D01*
X21625910Y-32282647D01*
X21510811Y-32368811D01*
X21424647Y-32483910D01*
X21374402Y-32618624D01*
X21368000Y-32678176D01*
X21368000Y-33151000D01*
X19534915Y-33151000D01*
X19491628Y-33039011D01*
X19488374Y-33029451D01*
X19440330Y-32866685D01*
X19439800Y-32864831D01*
X19394446Y-32701373D01*
X19392001Y-32690762D01*
X19360670Y-32520802D01*
X19360515Y-32519938D01*
X19331894Y-32355655D01*
X19330432Y-32344025D01*
X19315855Y-32156517D01*
X19304841Y-32008580D01*
X19304500Y-31999376D01*
X19304500Y-22869166D01*
X20727216Y-22869166D01*
X20727217Y-22869167D01*
X20740446Y-22881699D01*
X21025324Y-23098257D01*
X21331945Y-23282744D01*
X21656707Y-23432995D01*
X21995820Y-23547256D01*
X22345296Y-23624181D01*
X22701039Y-23662871D01*
X23058883Y-23662871D01*
X23414625Y-23624181D01*
X23764101Y-23547256D01*
X24103214Y-23432995D01*
X24427976Y-23282744D01*
X24734597Y-23098257D01*
X25019476Y-22881698D01*
X25032703Y-22869168D01*
X25032704Y-22869166D01*
X22879961Y-20716424D01*
X20727216Y-22869166D01*
X19304500Y-22869166D01*
X19304500Y-20362870D01*
X19575113Y-20362870D01*
X19594486Y-20720181D01*
X19652380Y-21073322D01*
X19748110Y-21418112D01*
X19880562Y-21750541D01*
X20048179Y-22066700D01*
X20248992Y-22362875D01*
X20376402Y-22512874D01*
X20376403Y-22512875D01*
X22526408Y-20362872D01*
X22526408Y-20362871D01*
X23233514Y-20362871D01*
X25383517Y-22512874D01*
X25510924Y-22362881D01*
X25679406Y-22114389D01*
X25724757Y-22074000D01*
X25783847Y-22059989D01*
X25828724Y-22072021D01*
X25793545Y-22035951D01*
X25777121Y-21976316D01*
X25791549Y-21916167D01*
X25879359Y-21750541D01*
X26011811Y-21418112D01*
X26107541Y-21073322D01*
X26165435Y-20720181D01*
X26184808Y-20362870D01*
X26165435Y-20005560D01*
X26107541Y-19652419D01*
X26011811Y-19307629D01*
X25879359Y-18975200D01*
X25711742Y-18659041D01*
X25510929Y-18362866D01*
X25383518Y-18212866D01*
X25383517Y-18212865D01*
X23233514Y-20362871D01*
X22526408Y-20362871D01*
X22526408Y-20362870D01*
X20376403Y-18212865D01*
X20376402Y-18212866D01*
X20248991Y-18362866D01*
X20048179Y-18659041D01*
X19880562Y-18975200D01*
X19748110Y-19307629D01*
X19652380Y-19652419D01*
X19594486Y-20005560D01*
X19575113Y-20362870D01*
X19304500Y-20362870D01*
X19304500Y-20323051D01*
X19304649Y-20316967D01*
X19311997Y-20167381D01*
X19322308Y-19970655D01*
X19323475Y-19958997D01*
X19348408Y-19790914D01*
X19348465Y-19790542D01*
X19376458Y-19613801D01*
X19378633Y-19603137D01*
X19420702Y-19435191D01*
X19421163Y-19433412D01*
X19466469Y-19264327D01*
X19469489Y-19254663D01*
X19528275Y-19090367D01*
X19529237Y-19087767D01*
X19591413Y-18925793D01*
X19595077Y-18917229D01*
X19612226Y-18880970D01*
X19670045Y-18758721D01*
X19671562Y-18755631D01*
X19750031Y-18601629D01*
X19754109Y-18594263D01*
X19844473Y-18443500D01*
X19846766Y-18439826D01*
X19940634Y-18295282D01*
X19945000Y-18288996D01*
X20049823Y-18147658D01*
X20052984Y-18143580D01*
X20161330Y-18009783D01*
X20165748Y-18004628D01*
X20284021Y-17874134D01*
X20288138Y-17869810D01*
X20301374Y-17856574D01*
X20727216Y-17856574D01*
X22879961Y-20009318D01*
X22879962Y-20009318D01*
X25032704Y-17856574D01*
X25032703Y-17856573D01*
X25019475Y-17844042D01*
X24734597Y-17627484D01*
X24427976Y-17442997D01*
X24103214Y-17292746D01*
X23764101Y-17178485D01*
X23414625Y-17101560D01*
X23058883Y-17062871D01*
X22701039Y-17062871D01*
X22345296Y-17101560D01*
X21995820Y-17178485D01*
X21656707Y-17292746D01*
X21331945Y-17442997D01*
X21025324Y-17627484D01*
X20740447Y-17844041D01*
X20727217Y-17856573D01*
X20727216Y-17856574D01*
X20301374Y-17856574D01*
X20409810Y-17748138D01*
X20414134Y-17744021D01*
X20544628Y-17625748D01*
X20549783Y-17621330D01*
X20683580Y-17512984D01*
X20687658Y-17509823D01*
X20828996Y-17405000D01*
X20835282Y-17400634D01*
X20979826Y-17306766D01*
X20983500Y-17304473D01*
X21134263Y-17214109D01*
X21141629Y-17210031D01*
X21295631Y-17131562D01*
X21298721Y-17130045D01*
X21457229Y-17055077D01*
X21465793Y-17051413D01*
X21627767Y-16989237D01*
X21630367Y-16988275D01*
X21794663Y-16929489D01*
X21804327Y-16926469D01*
X21973412Y-16881163D01*
X21975191Y-16880702D01*
X22143137Y-16838633D01*
X22153801Y-16836458D01*
X22330542Y-16808465D01*
X22330914Y-16808408D01*
X22498997Y-16783475D01*
X22510653Y-16782308D01*
X22707411Y-16771996D01*
X22853411Y-16764823D01*
X22856968Y-16764649D01*
X22863051Y-16764500D01*
X77593949Y-16764500D01*
X77600032Y-16764648D01*
G37*
%TD.AperFunction*%
%TD*%
M02*
